<?xml version="1.0" encoding="UTF-8"?><svg id="Layer_2" xmlns="http://www.w3.org/2000/svg" viewBox="0 0 234.07 335.22"><defs><style>.cls-1{fill:#fff;}</style></defs><g id="Layer_1-2"><path d="M29.13,234.97c-.64.56,6.37,10.22,7.21,11.26,9.45,11.69,24.87,23.37,40.08,25.62,11.2,1.65,21.6-3.25,23.19-15.29-.83.07-.55,1.12-1.45,1.66-3.6,2.16-8.91-1.27-11.15-.64-1.6.45-.73,2.94-4.41,2.85-9.69-.24-25.87-16.42-28.3-25.44-1.13-4.2,2.06-4.08,2.2-5.53.09-.89-1.3-3.64-1.46-5.28-.18-1.83-.27-4.43.73-5.97,16.16-13.86,31.92-28.27,45.23-44.96-1.47-3.79-1.42-6.48,2.97-7.63.8-20.58,1.2-41.12.86-61.75-.16-.62-.58-.69-1.13-.79-2.33-.43-6.5.08-9.13.02-1.6-.04-3.01-.68-4.8-.54-3,.24-3.91,1.96-8.55,1.42s-4.39-2.7-6.6-3.47-5.97-.89-8.56-1.51c-3.1-.73-9.87-1.72-11.01-4.81-1.38-3.77-1.13-15.02.43-18.73,1.08-2.57,7.39-3.63,10.1-4.28,4.97-1.19,6.65-.72,11.16-3.27,2.64-1.49,7.17-1.51,10.16-1.26,4.68.4,6.64.3,11.54-.02,1.32-.09,5.67.39,6.26-.45l-.02-6.27c-26.69-11.72-25.53-49.74,3.01-58.37,24.3-7.35,47.11,12.71,40.14,37.75-.33,1.19-2.09,4.93-2.05,5.44.07.76,1.56,3.01,1.95,4.26.6,1.96,2.29,8.01,2.27,9.74-.02,1.82-1.41,5.94-1.92,7.9,2.38.04,7.64-.16,9.56,1.24,3.88,2.84,9.66,2.65,14.62,4.08,1.54.45,4.74,1.27,5.81,2.34,2.06,2.06,1.56,9.44,2.24,12.39,2.07,1.12,4.06,2.47,5.88,3.94,6.16,4.97,15.46,15.42,18.56,22.68,1.13,2.65,2.24,5.52.19,8.03-14.98,10.94-28.31,23.76-41.28,36.89-5.64,5.71-11.56,11.19-16.52,17.53-.21,1.14.52.6,1.2.69,3.39.45,7.54,1.77,10.79.75.68-.22,1.21-.99,1.79-1.13.9-.22,1.72.42,2.54.21,1.11-.29,1.48-2.04,2.84-2.2.23,1.68-1.12,2.62-1.91,3.83.67.54,4.95-3.05,3.78-.29-.66,1.55-3.27,1.45-3.3,3.17l3.84-.23c-.26,2.19-3.22,1.67-4.19,2.28-.32.2-.82,1.47-1.89,2.19-5.59,3.8-11.45-.99-17.35-.81-2.69,3.82-.02,4.89,1.26,8.43,1.21,3.35,2.01,8.32,1.5,11.84-.19,1.37-1.36,2.96-1.36,3.88,0,1.25,1.72,2.58,1.4,4.07-.77.14-1.28-.42-1.71-.93-.77-.92-.29-2.21-1.64-1.94l.47,3.83h-1.43c-.14-.13-.28-4.94-1.44-3.35l-.36,3.24-1.08.59-.24-4.32c-.3,0-1.07,3.36-2.63,2.88-.34-.36,1.15-2.49,1.21-3.31s-.77-1.82-.78-3.16c-.01-2.05,1.08-4.53,1.04-6.71-.02-1.12-1.23-6.77-1.93-7.24-.83.1-2.74.39-3.27.88-.8.74-3.38,6.03-3.49,7.29-.96,10.29.17,25.91.99,36.47,1.4,18.05,2.79,39.57,27.35,35.04,18.75-3.46,37.4-20.15,46-36.71h-12.71c-.17,0-2.33-.78-2.43-.92-.41-.66-.27-1.29.04-1.95.71-1.52,7.74-7.16,9.59-9.11,7.74-8.18,14.22-17.81,19.02-27.98,1.42-3.02,2.07-6.65,4.22-9.22,1.44-.72,4.18,5.53,4.74,6.81,6.69,15.29,8.21,36.23,4.63,52.45-.36,1.63-2.01,8.22-2.87,9.12-.73.76-1.64.63-2.45.03-1.9-1.42-4.42-9.06-7.39-10.59-5.27,15.25-15.05,28.7-26.85,39.57-1.69,1.56-6.17,4.34-7.25,5.73-.91,1.17.78,4.8-3.06,7.45-2.97,2.04-5.37.55-8.5.09-17.6,10.16-38.51,15.9-51.66,32.3-1.02,1.27-3.99,6.48-5.05,6.48-1.32,0-4.39-5.56-5.53-6.96-6.5-7.98-15.04-13.32-23.94-18.29-.59-.16-2.62,2.21-3.53,2.78-8.9,5.63-20.38-2.11-17.34-12.59-6.63-3.79-13.3-7.61-19.39-12.24-14.45-10.98-26.86-27.01-32.65-44.32-.86-.88-6.85,10.18-7.39,10.59-3.08,2.31-4.58-5.68-5.13-7.89-4.16-16.67-2.52-40.7,5.39-56.12.79-1.54,2.29-5.13,4.27-3.91.71.44,5.69,12.84,6.93,15.13,3.97,7.3,10.13,15.52,15.83,21.58,1.74,1.84,9.02,7.87,9.59,9.11.31.66.45,1.28.04,1.95-.11.14-2.26.92-2.43.92h-12.71ZM105.36,56.55v-11.99c0-.06-.8-.07-1.19-.46-14.57-14.66,1.11-37.21,20.37-29.99,5.1,1.91,10.19,7.48,10.99,12.98.23,1.56-.34,3.63.29,4.99.69,1.49,4.2,4.56,5.49,6.02.73.82,1.63,2.03,1.94,3.1l.98-.28c11.91-31.11-29.58-52.62-49.88-27.28-11.52,14.38-5.87,36.05,11.02,42.91ZM133.17,30.17c-1.32-12.44-15.69-19.3-25.85-11.23-6.96,5.53-8.27,16.75-1.24,22.73,3.62-6.94,14.9-8.46,20.14-2.88.45.48,1.75,2.95,1.91,2.88,1.95-.76-.96-2.71-1.4-3.39-3.4-5.16.6-10.44,6.44-8.12ZM131.25,39.29c.04-2.37-.47-5.11,1.43-6.96,0-.91-4.18-1.63-5.06,1.18-.97,3.12,1.53,4.2,3.62,5.77ZM137,44.56l.89-6.37-4.48-5.13c-1.4-.02-.89,8.05,1,9.06l2.6,2.44ZM126.46,66.63v-20.38c0-.47-.76-3.14-1.03-3.76-2.45-5.59-13.82-5.78-16.47.16-.84,1.88-1.11,6.98-1.22,9.33-.23,4.86.22,9.79.03,14.65,6.18-1.04,12.49-.3,18.7,0ZM140.84,51.76l1.84-7.33c-1.03-1.75-2.08-3.97-3.75-5.14l-.45,7.88,2.36,4.58ZM129.34,56.55l7.61-5.13c.36-1.4-4.14-8.27-5.47-8.77l-2.61,3.11.47,10.78ZM144.19,46.96c-.76-.72-.81.16-1,.67-.32.88-2.9,9.94-.67,9.87,2.07-2.04,3.52-3.74,3-6.83-.07-.45-1.19-3.58-1.33-3.71ZM129.81,66.63l6.9.37c2.75-.52,3.75-10.78,1.49-12.83-.87,2.15-8.07,4.8-8.63,5.74-.99,1.63.6,4.82.24,6.72ZM141.81,64.23c4.44-1.77,6.51-4.15,4.78-9.11-2.18,2.77-5.25,5.19-4.78,9.11ZM144.59,67.5l1.52-3.76c-.11-.14-2.35,1.47-2.86,1.7-1.16.53-2.32-.45-2.89,1.42l4.23.64ZM86.18,69.03l-8.54,1.04c-2.22,8.67-2.83,18.62-.43,27.35,1.41,5.12,4.46,3.44,8.97,3.74-2.75-10.48-2.52-21.62,0-32.13ZM146.05,70.53c-6.57-1.03-13.23-.79-19.85-1-1.27-.04-2.43-.49-3.79-.52-11.38-.23-22.96.45-34.25,1.51-1.71,9.67-2.17,19.1.17,28.74.24.35,4.86.88,5.78.93,11.82.76,24.16.56,35.96,0,3.1-.15,6.27.3,9.35-.24.75-.36,1.43-2.15,1.85-2.95,1.08-2.08,5.86-11.87,6.19-13.47s-.67-12.43-1.39-13.02ZM149.48,79.1c1.99-1.89,5.04-2.39,7.64-1.62l.97-.52-1.91-6.71-8.14-1.2c1.19,3.22,1.63,6.64,1.44,10.07ZM74.67,72.38l-16.53,3.84c-1.49,5.78-1.68,12.08.06,17.78l16.47,3.79c-1.43-8.63-2.04-16.81,0-25.42ZM177.28,84.37c.03-1.69-.27-7.41-1.45-8.38l-16.29-3.6,1.01,5.7c5.94,1.04,11.23,4.04,16.73,6.28ZM193.05,100.12l-.66.07c-10.5-10.95-24.96-19.85-40.52-20.14,1.15,5.46,5.55,9.22,8.16,13.9l.98-.29c2.26-4.13,3.15-7.37,8.63-6.2s16.99,10.39,20.58,14.9c1.03,1.3,2.81,3.51,2.33,5.16-.26.87-6.31,6.1-6.87,6.09-2.49-.06,3.22-4.61,2.64-5.26-3.03.32-7.27-3.78-9.47-4.24-.63-.13-1.5.46-1.55.4-.06-.06.07-.97-.5-1.66-.84-1.03-4.17-2.87-5.52-4.08-2.16-1.94-4.92-4.51-5.99-7.2-.94-.65-2.65,3.07-3.29,3.68-.26,1.65,11.67,10.6,13.69,12.05,1.76,1.26,7.99,4.54,8.29,6.09.26,1.35-.16,3.13.01,4.55.52.61,3.52-2.97,4.99-2.88,2.09.12,12.38,6.17,13.98,3.88s-3.71-9.99-5.15-12.17-4.96-4.83-3.75-7.52c-1.28-.46-.83.76-1.01.88ZM154.75,93c.04-3.82-3.98-6.34-4.33-10.07-.15-.16-.58.28-.71.48-2.69,4.08-5.61,14.38-7.83,19.5-8.27,19.09-17.92,37.62-28.3,55.64l3.76,4.72,5.68-10.63,2.94-7.36c-.63,7.15-4.7,13.29-8.03,19.43l8.03,7.25c1.14.32,1.69-1,2.89-1.5,3.48-1.47,7.09-.94,9.36,2.15h.7c-.19-1.92,8.99-10.16,9.59-9.58l-9.58,10.79,4.52,1.67c2.18-2.6,4.19-5.43,6.49-7.92,8.62-9.33,19.3-19.83,28.77-28.29,6.97-6.22,14.49-11.8,22.06-17.26l-11.75-4.56c-3.05,1.39-5.21,5.24-8.86,4.8-.5-2.48,3.63-6.16,1.95-8.42-.97-1.3-5.1-2.8-6.71-3.84-7.37-4.78-14.76-10.85-19.94-17.94l-.71.95ZM178.11,93.61c-1.26-.8-9.22-3.88-10.66-3.98-.3-.02-.79-.13-.72.25.42,1.34,6.18,7.77,7.51,7.87l1.9-1.85,5.41,3.63-1.19,2.59,9.85,4.79c1.44-1.87-9.46-10.44-11.06-11.73-.54-.43-.75-1.38-1.05-1.57ZM176.33,98.76c-.57.51,2.54,3.47,3.34,1.68l-3.34-1.68ZM138.45,103.08h-9.11v18.7l9.11-18.7ZM126.46,103.55h-18.7l-.95,53.72c1.19-1.93,4.42-.92,5.05-1.38.33-.24,3.94-6.52,4.03-7.03.45-2.44.42-8.98.52-11.95.35-10.94-.67-22,.46-32.87l.97,7.41v33.35s8.61-16.06,8.61-16.06v-25.18ZM111.11,165.9c-.33-1.08,1.28-8.69-1.19-8.15s-.88,7.16,1.19,8.15ZM115.91,171.66c-.8-1.85.32-3.71-.1-5.39-.12-.5-3.15-4.88-3.73-4.2-.08,3.59.52,7.62,3.83,9.59ZM108.71,167.34l-.71-1.92-.72.72v.71s1.43.48,1.43.48ZM121.18,176.45c-.38-4.23-.38-6.73-4.31-9.11-.26,3.62.59,7.67,4.31,9.11ZM103.79,167.89c-.65.18-1.26.91-1.32,1.61.01,2.61,6.07,3.22,7.67,1.44-1.51-.9-4.64-3.52-6.36-3.05ZM114.95,175.49c-1.86-5.19-4.68-2.14-8.63-2.39,2.21,3.14,5.23,2.73,8.63,2.39ZM122.62,176.93l1.9-3.12-2.85-1.67.95,4.79ZM132.21,172.14c.35.81,4.68,4.32,4.78,2.16.08-1.58-3.43-2.64-4.78-2.16ZM133.65,175.97c-1.58-3.9-4.95-3.39-7.19-.23,2.76-.06,4.76,1.6,7.19.23ZM107.28,176.94c-1.55-.08-2.84-2.53-4.32-1.72-11.79,14.12-24.81,27.94-39.09,39.58-1.29,1.05-6.82,4.54-6.97,5.54-.45,3.06,2.31,8.34,3.42,11.23l7.48-3.25c4.3-.37-2.99,8.23-3.11,9.35-.09.9,2.9,4.33,3.73,5.22,6.33,6.78,14.28,10.9,23.41,12.56,1.62.29,4.78,1.29,5.81-.14,1.23-1.71,2.83-7.13,3.94-9.48,8.66-18.35,18.96-35.84,29.2-53.33.3-1.8-6.09-2.12-7.22-1.42-1.26.78-3.73,7.77-5.74,8.88-.42-2.44,4.8-8.44,4.81-9.84,0-.48-.07-.73-.52-.94l-1.41-.27c.77-2.18-1.53-4.31,0-6.69-4.55-.33-8.57-2.62-12.67-4.35-1.21,1.92-2.55,3.89-4.09,5.56-.61.66-5.14,5.1-5.77,4.54l9.11-11.02ZM119.75,178.85c-2.07-3.24-3.91-2.82-7.19-1.91.42.79,2.52,1.53,3.32,1.7,1.29.28,2.56.26,3.86.21ZM140.72,179.21c.64-1.03,1.07-2.5-.15-3.21l-6.44,1.9c.64,1.91,5.34,2.39,6.59,1.31ZM130.29,177.42c-4.56-.67-7.14.99-7.19,5.75,2.34-2.3,5.72-2.71,7.19-5.75ZM162.41,181.25l-.73-2.88-2.14,1.2,2.87,1.68ZM138.45,180.78c-1.99.12-3.36-.69-4.79-1.92l2.25,3.29,2.54-1.37ZM149.47,182.2c-.25-.84-3.73-4.01-4.31-3.35v2.87s4.31.48,4.31.48ZM157.14,184.12c-2.86-2.51-4.19-5.6-8.63-5.27,2.1,3.97,4.2,4.8,8.63,5.27ZM131.97,179.34l-1.67,3.06c.22.74,2.28,1.22,3.06,1.22l.72-1.12-2.12-3.16ZM161.94,182.68c-2.16-1.51-4.4-3.42-7.19-2.87,2.17,2.29,3.97,4.94,7.19,2.87ZM143.24,180.29l-3.35,3.35c2.59.35,3.71-.73,3.35-3.35ZM127.9,181.73c-4.52,1.73-7.22,5.83-.71,7.18.08-2.45-.99-4.99.71-7.18ZM141.8,185.09c-3.55-1.05-5.35.55-8.63,1.19,2.65,2.44,7.31,2.65,8.63-1.19ZM136.04,189.41c-2.53-.33-3.86-2.46-5.74-3.84-1.04,3.01.2,3.99,3.09,4.34.47.06,2.69.32,2.66-.5ZM141.32,195.64c.29-2.27,1.29-4.36.96-6.71l-2.91,1.74,1.95,4.97ZM116.39,284.84v-60.43c-1.2,1.08-2.17,3.03-2.96,4.47-2.31,4.2-8.12,14.04-9.28,18.05-2.75,9.49-.7,19.18-11.41,25.03-21.51,11.75-54.22-13.86-64.47-32.07-4.92-8.73-2.33-7.37,6.37-7.35l5.51-.95c-3.1-2.02-6.31-5.35-8.87-8.15-8.74-9.55-16.29-20.73-20.38-33.1l-2.4,5.02c-6.46,17.37-7.42,36.57-2.38,54.44,2.51-1.73,5.74-9.21,8.15-10.32s3.41,5.03,4.22,6.81c10.46,22.84,26.52,39.44,48.97,50.79,1.87-.96,2.95-2.77,4.97-3.72,10.04-4.76,19,3.55,16.2,13.94,11.17,5.53,21.48,13.11,28.48,23.56,12.31-19.65,35.76-25.91,54.92-36.69l.38-.51c-2.35-7.86,5.6-12.76,11.76-7.43,13.63-9.93,23.82-23.41,30.93-38.64.6-1.28,2.92-7.8,3.41-8.11,1.09-.7,1.76.33,2.43.97,2.67,2.56,4.33,6.9,7.17,9.37,3.55-13.34,4.1-27.8,1.29-41.33-.4-1.92-4.77-17.66-5.84-17.65-6.51,15.74-16.5,29.96-29.48,41,1.96.03,4.09.61,6,.71,6.67.36,10.83-2.22,6.55,6.08-5.62,10.9-20.41,24.45-31.24,30.14-11.89,6.25-31.2,10.65-40.21-2.49-7.86-11.47-6.5-46.66-7.27-61.32-.03-.54.31-1.32-.47-1.19l-9.57,17.04-.5,63.29-.96.71ZM141.81,201.39c3.61-2.51,3.59-5.87,1.91-9.59l-1.88,5.54-.02,4.05ZM140.89,207.1c5.01,2.12,4.98-4.19,4.75-7.62-1.1.58-1.32,1.93-2.13,2.9-1.15,1.4-3.23,1.75-2.62,4.72ZM57.89,231.61c-1.08-.05-2,.82-1.72,1.92.78,3.11,8.08,12.94,10.58,15.37,1.12,1.08,7.79,6.27,8.9,5.53l.95-1.71c-3.78-1.82-12.51-9.66-13.69-13.42-.86-2.73,1.5-4.34,2.18-6.73-2.96.9-6.19,3.82-7.2-.96ZM84.74,256.55l-6.56-2.81-2.07,1.61c2.49.81,7,4.43,8.63,1.2ZM181.92,294.27c4.44-4.41-1.5-10.89-6.06-7.74-5.68,3.92,1.06,12.72,6.06,7.74ZM75.99,294.07c-10.05,1.71-10.81,16.19-.38,18.38,14.36,3.01,16.17-21.07.38-18.38Z"/><path class="cls-1" d="M37.75,166.69c10.68-1.02,16.49,16.65,6.19,20.32-19.02,6.79-21.14-18.89-6.19-20.32Z"/><path class="cls-1" d="M170.62,235.5c9.43-.92,14.56,14.99,5.46,18.3-16.79,6.11-18.66-17.01-5.46-18.3Z"/><path class="cls-1" d="M58.53,182.82c2.2-.23,3.4,3.69,1.27,4.5-3.92,1.5-4.36-4.19-1.27-4.5Z"/><path class="cls-1" d="M162.32,260.14c2.2-.23,3.4,3.69,1.27,4.5-3.92,1.5-4.36-4.19-1.27-4.5Z"/><path d="M30.26,169.43c1.72-1.68,3.72-2.24,6.06-2.57-.35,1.78-2.84,1.87-4.26,3.16-9.23,8.36-.1,22.88,11,16.76,8.72-4.8,6.87-18.58-4.57-19.46-.74-.06-1.9.5-1.68-.7,4.34-2.4,9.99.62,12.08,4.69,5.07,9.87-3.96,22.17-14.81,18.17-8.32-3.07-9.96-14.05-3.82-20.06Z"/><path d="M172.48,237.36c-12-3.15-13.77,17.08-1.72,16.75,11.09-.31,13.1-15.11,2.2-17.71,2.47-2.86,6.59,1.55,7.76,4,6.15,12.96-13.01,20.9-18.88,10.26-2.71-4.91-.52-12.46,4.78-14.6,1.82-.73,5.31-1.23,5.87,1.31Z"/><path d="M164.21,308.46c2.81-.43,4.77.23,6.99,1.89,8.29,6.19,1.86,20.26-9.26,16.46-8.92-3.05-7.29-16.88,2.27-18.35ZM163.72,310.37c-9.07,1.88-7.54,17.53,4.1,15.13,8.2-1.69,7.13-17.46-4.1-15.13Z"/><path d="M200.65,41.32c14.24-2.43,14.19,18.05-.07,16.15-10.07-1.34-9.5-14.51.07-16.15ZM201.63,42.75c-11.23,1.13-7.23,17.45,4.26,12.46,7.54-3.27,3.69-13.25-4.26-12.46Z"/><path d="M52.48,138.19c5.96-1.38,11.24,5.19,9.88,10.84-2.31,9.62-18.29,7.86-16.42-3.96.36-2.28,4.4-6.39,6.54-6.88ZM53.47,139.61c-1.27.16-4.15,2.22-4.9,3.29-4.43,6.31,3.18,13.92,9.78,9.3,5.45-3.82,1.29-13.36-4.88-12.59Z"/><path d="M32.85,292.14c7.19-1.04,11.59,8.69,4.6,12.77-9.53,5.57-14.93-11.28-4.6-12.77ZM32.34,294.06c-5.46,1.25-4.21,11.2,2.66,9.87,6.64-1.29,4.94-11.61-2.66-9.87Z"/><path d="M175.71,208.7c8.91-1.84,10.16,10.18,3.15,11.78-8.71,1.99-10.25-10.31-3.15-11.78ZM176.68,210.13c-5.58.92-4.56,9.05.36,9.03,6.17-.02,6.57-10.18-.36-9.03Z"/><path d="M217.42,59.05c9.43-2.16,11,11.48,1.33,10.96-6.58-.35-6.8-9.71-1.33-10.96ZM217.9,60.49c-3.4.77-3.95,6.25-.37,7.35,7.73,2.39,7.64-9.01.37-7.35Z"/><path d="M204.97,72c8.56-1.42,11.14,12.7,1.68,13.21-8.75.47-8.99-12-1.68-13.21ZM204.98,73.43c-7.42,1.01-4.55,11.54,2.65,9.87,5.72-1.32,4.21-10.81-2.65-9.87Z"/><path d="M38.1,114.21c8.52-1.94,7.45,12.26-.35,10.23-5.31-1.38-4.47-9.14.35-10.23ZM36.45,122.12c3.52,3.52,9.02-2.34,5.18-5.9-3.02-2.79-8.46,2.62-5.18,5.9Z"/><path d="M42.89,208.69c6.46-1.92,7.57,8.23.9,7.57-3.87-.39-4.29-6.56-.9-7.57ZM44.31,210.13c-3.1.29-2.66,5.52,1.28,4.14,2.14-.75.93-4.34-1.28-4.14Z"/><path d="M211.95,101.77c1.66-2.06,6.79-1.9,7.08,2.03.57,7.94-11.41,3.37-7.08-2.03ZM216.96,105.83c3.17-3.18-4.13-5.74-4.13-1.56,0,2.22,2.9,2.79,4.13,1.56Z"/><path d="M181.12,305.95l-1.46,3.09c.42,2.26,3.42,2.9,3.87.5.66-3.54-2.33-1.52-1.93-4.07,6.15.22,4.16,9.05-1.32,6.83-4.43-1.8-.64-7.74.83-6.35Z"/><path d="M166.85,200.32c-2.16-2.17.55-7.53,4.18-4.42,3.2,2.74-1.78,6.83-4.18,4.42ZM167.73,196.64c-1.66,1.2,1.33,4.48,2.62,1.88.68-1.38-1.85-2.43-2.62-1.88Z"/><path d="M208.56,29.1c-2-2.28,1.69-6.09,4.01-4.24.97,1.01.89,2.64.43,3.89-1.18,1.18-3.06,1.25-4.44.36ZM211.8,25.86c-.44-.44-2.5-.42-1.86,1.62.69,2.2,2.71-.76,1.86-1.62Z"/><path d="M57.89,183.17c-1.98,3.94,2.73,4.99,2.44,1.68-.12-1.44-1.85-.66-1.48-2.16,4.9-.42,3.04,7.45-1.32,5.4-2.03-1.11-2.37-4.65.36-4.92Z"/><path d="M49.74,299.23c.26.87-.69,1.14-.87,1.77-.67,2.37,4.21,2.36,2.31-1.29,3.41.62,1.89,4.82-1.21,4.74s-3.9-5.48-.23-5.22Z"/><path d="M164.33,259.91c.35,1.69-1.49.51-2.67,1.4-1.53,1.15-.15,3.01,1.28,2.7,1.87-.4.69-2.44,2.35-2.18,1.08,4.03-5.13,4.66-5.67,1.09-.4-2.63,2.61-3.49,4.72-3.01Z"/><path d="M168.04,238.9c.84-.19,1.73-.25,2.53.14,2.87,1.86-1.94,5.52-3.97,4.97l-1.22-1.23c-.64-1.73,1.06-3.52,2.66-3.88ZM170.09,239.76c-2.33-.38-4.13.95-3.83,3.35,2.12.17,4.23-.9,3.83-3.35Z"/><path d="M31.41,280.65c1.91,1.89-1.09,5.34-3.49,3.24-1.97-1.73,1.31-5.4,3.49-3.24ZM30.56,282.92c.16-.87-.53-1.59-1.43-1.43v1.43s1.43,0,1.43,0Z"/><path d="M35.36,175.5c-5.08,5.21-5.88-2.85-.72-4.8.77.47-.15,1.06-.48,1.44-1.16,1.36-2.86,2.35-.97,4.3l2.16-.94Z"/><path d="M47.75,102.67c2.55,1.61-2.86,6.74-3.7,1.72.06-1.63,2.6-2.42,3.7-1.72ZM46.87,103.56h-1.91s0,.71,0,.71c.5.75,1.03.84,1.91.72v-1.43Z"/><path d="M50.09,196.21c3.19-.95,3.22,2.64,1.24,3.2-2.27.64-3.44-2.54-1.24-3.2Z"/><path d="M46.51,248.76c-1.57-1.34.71-4.5,2.79-3.03,1.84,1.3-.74,4.77-2.79,3.03ZM47.35,247.91c1.76,0,1.76-1.43,0-1.43v1.43Z"/><path d="M181.41,179.85c2.71-.92,3.31,3.6.43,3.35-1.68-.14-1.63-2.95-.43-3.35Z"/><path d="M218.16,38.94c1.28-1.28,3.36.16,2.53,1.79-1.15,2.26-4.27-.05-2.53-1.79Z"/><path d="M149.83,324.54c-.84.87-2.66.26-2.56-1.08.24-3.27,4.58-.98,2.56,1.08Z"/><path d="M205.82,93.49c1.67-.47,3.11,2.2.86,2.8-1.99.54-2.05-2.47-.86-2.8Z"/><path d="M83.79,320.82v-2.4c3.33-.4,3.26,2.83,0,2.4Z"/><path d="M42.32,182.21c1.64-.37.83,1.9,0,1.91-.67,0-1.03-1.67,0-1.91Z"/><path d="M70.36,321.78c.3.32-.22,1.9-.72,1.91-1.43.01-.13-2.82.72-1.91Z"/><path d="M44.95,179.81c0,1.76-1.43,1.76-1.43,0h1.43Z"/><rect x="190.71" y="198.04" width=".95" height="1.43"/><path d="M39.67,169.74c.72.72-1.43,2.04-1.43.72,0-.32,1.15-.99,1.43-.72Z"/><path d="M43.03,159.19c-.72-.72,1.43-2.04,1.43-.72,0,.32-1.15.99-1.43.72Z"/><rect x="173.93" y="248.88" width="1.43" height=".95"/><path class="cls-1" d="M116.39,284.84l.96-.71.5-63.29,9.57-17.04c.79-.13.45.65.47,1.19.77,14.66-.59,49.84,7.27,61.32,9,13.14,28.31,8.73,40.21,2.49,10.83-5.69,25.62-19.24,31.24-30.14,4.28-8.3.12-5.73-6.55-6.08-1.91-.1-4.04-.68-6-.71,12.98-11.04,22.98-25.26,29.48-41,1.07,0,5.45,15.73,5.84,17.65,2.81,13.54,2.26,28-1.29,41.33-2.84-2.47-4.5-6.81-7.17-9.37-.67-.64-1.34-1.67-2.43-.97-.48.31-2.81,6.83-3.41,8.11-7.11,15.23-17.3,28.7-30.93,38.64-6.16-5.33-14.11-.43-11.76,7.43l-.38.51c-19.16,10.78-42.61,17.04-54.92,36.69-7-10.45-17.3-18.02-28.48-23.56,2.8-10.38-6.16-18.7-16.2-13.94-2.02.96-3.1,2.76-4.97,3.72-22.45-11.35-38.51-27.95-48.97-50.79-.82-1.78-1.88-7.88-4.22-6.81s-5.64,8.59-8.15,10.32c-5.04-17.87-4.08-37.07,2.38-54.44l2.4-5.02c4.08,12.37,11.64,23.54,20.38,33.1,2.57,2.81,5.78,6.13,8.87,8.15l-5.51.95c-8.7-.03-11.29-1.38-6.37,7.35,10.26,18.21,42.96,43.81,64.47,32.07,10.71-5.85,8.66-15.55,11.41-25.03,1.16-4.01,6.97-13.85,9.28-18.05.79-1.44,1.76-3.39,2.96-4.47v60.43ZM201.73,228.73c.86.77,5.76-4.48,6.48-5.26,4.52-4.98,8.78-11.5,11.26-17.75l-17.74,23.02ZM36.31,263.26c.21-.88-.3-1.33-.65-1.99-2.45-4.61-6.95-9.67-9.8-14.66-7.26-12.68-10.26-23.29-14.15-37.17-.14-.49-.12-1.45-.81-1.34,1.7,20.16,11.92,40.41,25.4,55.15ZM180.16,278.6c2.77-1.26,5.54-3.38,7.9-5.28,13.5-10.92,24.47-28.12,30.47-44.34,2.32-6.28,4.52-13.17,4.3-19.91l-6.95,22.05c-5.62,12.8-12.81,25.77-22.75,35.76-4.03,4.06-9.38,7.2-12.97,11.72ZM8.03,241.2c.19-2.93-.83-5.98-.97-8.85-.36-7.1.37-14.29.26-21.37-1.73-.04-1.82,19.5-1.7,21.37.17,2.52.55,7.17,2.41,8.85ZM106.8,257.99c-1.25-.23-.84.24-1.18.95-2.14,4.59-2.37,8.41-6.24,12.48l-9.84,6.7c9.97-1.19,16.12-10.8,17.26-20.14ZM70.36,288.21c-9.06-5.18-17.99-10.66-25.89-17.5-.65-.57-4.16-4.67-4.79-4.08,2.53,4.92,8.24,9.14,12.79,12.38,4.34,3.08,11.53,7.67,16.44,9.46.45.16,1.56.63,1.45-.25ZM102.49,284.85c-2.68-.32-3.23,3.51-.95,4.55,2.8,1.27,5.59-1.72,3.75-4.48l-2.33-.06,1.43,2.86c-1.12.32-2.64,1.07-2.88-.69l.96-2.18ZM164.82,288.21c-1.15-.06-2.18.45-3.2.87-10.38,4.23-28.51,12.5-35.62,20.96-1.04,1.23-2.43,2.98-2.89,4.54.56.55,3.87-3.7,4.54-4.33,11.19-10.47,24.82-13.72,37.17-22.04ZM116.87,291.08v6.71l.98-4.05-.98-2.66ZM109.68,310.74c.74-.7-7.19-7.02-7.99-7.59-2.78-1.97-6.39-4.33-9.75-4.87l17.74,12.46Z"/><path class="cls-1" d="M154.75,93l.71-.95c5.18,7.09,12.57,13.17,19.94,17.94,1.6,1.04,5.74,2.55,6.71,3.84,1.68,2.26-2.45,5.94-1.95,8.42,3.65.44,5.81-3.42,8.86-4.8l11.75,4.56c-7.57,5.46-15.09,11.04-22.06,17.26-9.47,8.46-20.16,18.96-28.77,28.29-2.3,2.49-4.31,5.32-6.49,7.92l-4.52-1.67,9.58-10.79c-.6-.58-9.78,7.67-9.59,9.59h-.7c-2.28-3.1-5.89-3.63-9.36-2.16-1.19.51-1.75,1.82-2.89,1.5l-8.03-7.25c3.33-6.14,7.4-12.28,8.03-19.43l-2.94,7.36-5.68,10.63-3.76-4.72c10.38-18.01,20.02-36.54,28.3-55.64,2.22-5.12,5.14-15.42,7.83-19.5.13-.2.56-.64.71-.48.34,3.73,4.36,6.25,4.33,10.07ZM148.99,98.28c-4.17,1.47,1.09,6.01,1.91,1.68l-.95-.72-.72.95-.25-1.91ZM145.16,105.96h-.95v1.43h.95v-1.43ZM158.02,115.65c-.29-.17-1.28-.32-1.35.13l2.87,4.07c-3.29.78-9.25,7-11.87,7.61-1.05.25-6.53-3.54-8.27.06,2.27.01,4.42-.43,6.23,1.2-.24.55-9.02,6.93-9.61,7.2-1.34.59-2.47-.43-3.81-.24-.27,1.1.2.79.6,1.1.8.62,1.69.97,2.52,1.77,1.67,1.58,2.32,3.82,5.02,3.85l-2.39-3.35,9.83-7.2,5.52,6.44-4.06,9.74c-.33.06-3.9-1.67-3.14-.13,2.28,1.8,6.01,1.98,7.26,4.95l2.8.09c-.91-1.47-2.02-1.49-1.9-3.52.07-1.04,2.95-10.02,3.4-10.32.5-.34,4.75.18,5.69-1.74-.85-.59-5.06,1.35-4.8-.47,1.13-1.8,5.49-13.32,6.55-13.62,1.13-.33,2.96,1.61,3.52.19-2.47-1.45-5.35-2.59-7.63-4.36-1.04-.81-2.8-3.34-3-3.45ZM180.2,130.37c2.24.56,4.02-.82,2.11-2.83l-.23,1.91-1.91-1.43.04,2.35ZM177.76,132.81h-1.43s0,1.91,0,1.91h.71c.75-.51.84-1.03.72-1.91ZM125.02,159.19c-.85-.87-3.32,3.29-2.87,4.31.87-.19,3.28-3.89,2.87-4.31Z"/><path class="cls-1" d="M107.28,176.94l-9.11,11.02c.62.56,5.15-3.87,5.77-4.54,1.54-1.67,2.89-3.64,4.09-5.56,4.1,1.73,8.12,4.02,12.67,4.35-1.53,2.38.77,4.51,0,6.69l1.41.27c.45.21.53.46.52.94,0,1.4-5.22,7.4-4.81,9.84,2.02-1.11,4.48-8.1,5.74-8.88,1.13-.7,7.52-.38,7.22,1.42-10.24,17.49-20.54,34.98-29.2,53.33-1.11,2.35-2.71,7.77-3.94,9.48-1.03,1.43-4.19.43-5.81.14-9.13-1.66-17.08-5.77-23.41-12.56-.82-.88-3.82-4.31-3.73-5.22.11-1.12,7.4-9.72,3.11-9.35l-7.48,3.25c-1.11-2.89-3.87-8.16-3.42-11.23.15-1,5.68-4.49,6.97-5.54,14.28-11.64,27.3-25.46,39.09-39.58,1.48-.81,2.77,1.64,4.32,1.72ZM90.02,206.19l-.44-2.19-2.43.52,2.87,1.67ZM81.25,205.34c-3.83.86-2.28,6.84-1.56,9.5.73,1.13,5.55.2,6.49-.26,1.36-.67.69-2.45,1.2-3.59s2.78-1.88,1.45-4.34c-2.22-1.17-5.09-1.87-7.59-1.31ZM74.5,213.42c-1.83.31-1.14,3.06.35,2.8,1.83-.31,1.14-3.06-.35-2.8ZM108.24,220.1c-.28-.28-1.43.4-1.43.72,0,1.33,2.15,0,1.43-.72ZM103.93,224.41c.85.91,2.15-1.92.72-1.91-.49,0-1.01,1.59-.72,1.91ZM100.56,234.01c-3.75.28-1.71,3.74-1.91,6.23,2.25.13.96-2.69,1.01-3.62.04-.85,1.22-1.53.91-2.61ZM94.81,244.56l-2.19-.47.27-1.45c-1.6.32-1.96,1.47-1.15,2.93,1.29.54,3.09.9,3.08-1.01Z"/><path class="cls-1" d="M146.05,70.53c.72.58,1.71,11.48,1.39,13.02s-5.11,11.39-6.19,13.47c-.42.8-1.09,2.59-1.85,2.95-3.08.54-6.24.1-9.35.24-11.8.55-24.14.76-35.96,0-.92-.06-5.53-.59-5.78-.93-2.33-9.64-1.87-19.07-.17-28.74,11.29-1.07,22.87-1.74,34.25-1.51,1.37.03,2.52.48,3.79.52,6.62.21,13.28-.03,19.85,1ZM113.99,73.34c-.18-.87-.94-.89-1.66-.97-4.18-.47-16.69.3-20.72,1.39-.82.22-1.33-.35-1.11,1.02l23.49-1.44ZM122.62,72.87h-3.35v.47h3.35v-.47ZM125.98,93.01l-34.52-.72c9.38,1.98,18.99,1.71,28.55,1.7l5.97-.97ZM136.05,92.05c-1.24.1-3.23-.54-3.83.95,1.05-.31,4.22.88,3.83-.95ZM111.6,97.8c-.18-.88-.94-.89-1.66-.98-6.32-.72-13.37.12-19.67-.96-1.42,0-.53.66.12.84,1.37.4,5.77,1.09,7.06,1.09h14.14ZM139.4,96.85c-4.55-.69-9.66.19-14.39.23l6,.76,8.39-1Z"/><path class="cls-1" d="M105.36,56.55c-16.88-6.87-22.54-28.54-11.02-42.91,20.3-25.34,61.79-3.83,49.88,27.28l-.98.28c-.31-1.07-1.21-2.27-1.94-3.1-1.29-1.45-4.8-4.53-5.49-6.02-.63-1.36-.06-3.43-.29-4.99-.8-5.51-5.9-11.07-10.99-12.98-19.26-7.22-34.94,15.33-20.37,29.99.4.4,1.19.4,1.19.46v11.99Z"/><path class="cls-1" d="M126.46,103.55v25.18l-8.63,16.06v-33.35s-.96-7.41-.96-7.41c-1.13,10.87-.11,21.93-.46,32.87-.1,2.97-.07,9.51-.52,11.95-.09.51-3.71,6.79-4.03,7.03-.63.46-3.86-.55-5.05,1.38l.95-53.72h18.7Z"/><path class="cls-1" d="M193.05,100.12c.18-.12-.27-1.34,1.01-.88-1.21,2.69,2.25,5.26,3.75,7.52s6.8,9.81,5.15,12.17-11.89-3.76-13.98-3.88c-1.46-.08-4.46,3.49-4.99,2.88-.17-1.42.25-3.2-.01-4.55-.3-1.55-6.54-4.83-8.29-6.09-2.02-1.45-13.95-10.41-13.69-12.05.63-.61,2.34-4.34,3.29-3.68,1.07,2.7,3.83,5.26,5.99,7.2,1.35,1.22,4.68,3.05,5.52,4.08.56.69.43,1.6.5,1.66.06.06.93-.53,1.55-.4,2.19.46,6.43,4.56,9.47,4.24.59.65-5.13,5.2-2.64,5.26.56.01,6.62-5.22,6.87-6.09.49-1.65-1.29-3.86-2.33-5.16-3.59-4.52-15.01-13.72-20.58-14.9s-6.37,2.07-8.63,6.2l-.98.29c-2.61-4.68-7.01-8.44-8.16-13.9,15.56.29,30.02,9.19,40.52,20.14l.66-.07Z"/><path class="cls-1" d="M126.46,66.63c-6.21-.3-12.52-1.04-18.7,0,.19-4.86-.26-9.79-.03-14.65.11-2.35.38-7.45,1.22-9.33,2.66-5.94,14.02-5.75,16.47-.16.27.63,1.03,3.29,1.03,3.76v20.38ZM110.63,63.27c.28-1.61,1.18-15.8.24-15.83-1.05,3.88-1.54,9.09-1.19,13.19.05.58.18,2.56.95,2.64Z"/><path class="cls-1" d="M74.67,72.38c-2.04,8.61-1.43,16.78,0,25.42l-16.47-3.79c-1.75-5.7-1.55-12-.06-17.78l16.53-3.84ZM68.92,90.6c-.2-.93-.96-.84-1.68-.96-2.2-.36-4.72-.5-6.96-.47.19.9.95.87,1.67.97,2.18.3,4.75.4,6.96.46ZM72.28,94.44c-.17-.92-1-.8-1.66-.98-3.12-.86-7.08-.9-10.33-1.41l5.65,1.77,6.33.62Z"/><path class="cls-1" d="M75.99,294.07c15.79-2.69,13.98,21.38-.38,18.38-10.43-2.18-9.67-16.66.38-18.38ZM76.59,298.27c.3-.32-.22-1.9-.72-1.91-1.43-.01-.13,2.82.72,1.91ZM74.68,296.84c-3.55-.28-5.64,5.93-1.24,5.72.32-.02,1.61-.39,1.68-.49,1.66-2.66-2.51.37-2.86-1.21-.32-1.95,1.68-2.57,2.43-4.01ZM83.78,304.51c-.76-.76-2.19.67-1.43,1.43s2.19-.67,1.43-1.43ZM81.15,307.39l-.72,1.18.72.72.72-1.18-.72-.72Z"/><path class="cls-1" d="M86.18,69.03c-2.52,10.51-2.75,21.64,0,32.13-4.5-.29-7.56,1.38-8.97-3.74-2.41-8.72-1.79-18.68.43-27.35l8.54-1.04Z"/><path class="cls-1" d="M177.28,84.37c-5.5-2.24-10.79-5.24-16.73-6.28l-1.01-5.7,16.29,3.6c1.18.97,1.48,6.69,1.45,8.38Z"/><path class="cls-1" d="M57.89,231.61c1.01,4.78,4.23,1.87,7.2.96-.68,2.39-3.04,4-2.18,6.73,1.18,3.76,9.91,11.6,13.69,13.42l-.95,1.71c-1.11.74-7.78-4.45-8.9-5.53-2.5-2.43-9.79-12.26-10.58-15.37-.28-1.1.64-1.97,1.72-1.92Z"/><path class="cls-1" d="M178.11,93.61c.31.19.52,1.14,1.05,1.57,1.6,1.29,12.5,9.86,11.06,11.73l-9.85-4.79,1.19-2.59-5.41-3.63-1.9,1.85c-1.33-.1-7.09-6.53-7.51-7.87-.07-.38.42-.27.72-.25,1.44.1,9.39,3.18,10.66,3.98Z"/><path class="cls-1" d="M181.92,294.27c-5,4.97-11.74-3.82-6.06-7.74,4.56-3.15,10.5,3.33,6.06,7.74ZM177.76,288.2c-.32-.3-1.9.22-1.91.72-.01,1.43,2.82.13,1.91-.72Z"/><path class="cls-1" d="M129.34,56.55l-.47-10.78,2.61-3.11c1.34.5,5.84,7.37,5.47,8.77l-7.61,5.13Z"/><path class="cls-1" d="M149.48,79.1c.19-3.42-.25-6.85-1.44-10.07l8.14,1.2,1.91,6.71-.97.52c-2.6-.76-5.65-.26-7.64,1.62Z"/><path class="cls-1" d="M137,44.56l-2.6-2.44c-1.89-1.01-2.4-9.08-1-9.06l4.48,5.13-.89,6.37Z"/><path class="cls-1" d="M140.84,51.76l-2.36-4.58.45-7.88c1.67,1.17,2.72,3.38,3.75,5.14l-1.84,7.33Z"/><path class="cls-1" d="M144.19,46.96c.14.13,1.26,3.26,1.33,3.71.52,3.09-.93,4.79-3,6.83-2.23.06.35-9,.67-9.87.19-.51.24-1.38,1-.67Z"/><path class="cls-1" d="M141.81,64.23c-.46-3.92,2.6-6.34,4.78-9.11,1.73,4.96-.35,7.34-4.78,9.11Z"/><path class="cls-1" d="M131.25,39.29c-2.09-1.57-4.59-2.65-3.62-5.77.87-2.81,5.05-2.09,5.06-1.18-1.9,1.85-1.39,4.59-1.43,6.96Z"/><path class="cls-1" d="M140.89,207.1c-.62-2.97,1.47-3.32,2.62-4.72.81-.98,1.02-2.32,2.13-2.9.23,3.43.27,9.74-4.75,7.62Z"/><path class="cls-1" d="M115.91,171.66c-3.31-1.97-3.91-6-3.83-9.59.58-.69,3.6,3.7,3.73,4.2.42,1.69-.7,3.54.1,5.39Z"/><path class="cls-1" d="M121.18,176.45c-3.71-1.44-4.56-5.49-4.31-9.11,3.93,2.38,3.93,4.88,4.31,9.11Z"/><path class="cls-1" d="M103.79,167.89c1.72-.48,4.85,2.15,6.36,3.05-1.61,1.79-7.66,1.17-7.67-1.44.06-.7.67-1.43,1.32-1.61Z"/><path class="cls-1" d="M114.95,175.49c-3.4.34-6.42.75-8.63-2.39,3.95.25,6.77-2.8,8.63,2.39Z"/><path class="cls-1" d="M130.29,177.42c-1.46,3.04-4.85,3.45-7.19,5.75.04-4.76,2.62-6.42,7.19-5.75Z"/><path class="cls-1" d="M127.9,181.73c-1.7,2.19-.64,4.73-.71,7.18-6.51-1.35-3.81-5.46.71-7.18Z"/><path class="cls-1" d="M141.8,185.09c-1.32,3.84-5.98,3.63-8.63,1.19,3.28-.64,5.08-2.25,8.63-1.19Z"/><path class="cls-1" d="M157.14,184.12c-4.43-.46-6.53-1.3-8.63-5.27,4.44-.34,5.77,2.75,8.63,5.27Z"/><path class="cls-1" d="M141.81,201.39l.02-4.05,1.88-5.54c1.68,3.71,1.7,7.08-1.91,9.59Z"/><path class="cls-1" d="M140.72,179.21c-1.25,1.07-5.95.59-6.59-1.31l6.44-1.9c1.22.72.79,2.19.15,3.21Z"/><path class="cls-1" d="M84.74,256.55c-1.63,3.23-6.14-.39-8.63-1.2l2.07-1.61,6.56,2.81Z"/><path class="cls-1" d="M111.11,165.9c-2.07-.99-3.63-7.62-1.19-8.15s.86,7.07,1.19,8.15Z"/><path class="cls-1" d="M133.65,175.97c-2.43,1.37-4.43-.29-7.19-.23,2.24-3.16,5.61-3.67,7.19.23Z"/><path class="cls-1" d="M161.94,182.68c-3.22,2.07-5.02-.57-7.19-2.87,2.8-.56,5.03,1.36,7.19,2.87Z"/><path class="cls-1" d="M119.75,178.85c-1.31.05-2.57.07-3.86-.21-.8-.17-2.9-.91-3.32-1.7,3.28-.91,5.12-1.34,7.19,1.91Z"/><path class="cls-1" d="M136.04,189.41c.03.82-2.18.55-2.66.5-2.89-.34-4.13-1.33-3.09-4.34,1.88,1.38,3.21,3.51,5.74,3.84Z"/><path class="cls-1" d="M141.32,195.64l-1.95-4.97,2.91-1.74c.33,2.35-.67,4.44-.96,6.71Z"/><path class="cls-1" d="M144.59,67.5l-4.23-.64c.57-1.87,1.73-.89,2.89-1.42.51-.23,2.74-1.84,2.86-1.7l-1.52,3.76Z"/><path class="cls-1" d="M131.97,179.34l2.12,3.16-.72,1.12c-.78,0-2.84-.48-3.06-1.22l1.67-3.06Z"/><path class="cls-1" d="M149.47,182.2l-4.31-.48v-2.87c.58-.66,4.06,2.51,4.31,3.35Z"/><path class="cls-1" d="M132.21,172.14c1.36-.48,4.86.58,4.78,2.16-.11,2.16-4.43-1.35-4.78-2.16Z"/><polygon class="cls-1" points="122.62 176.93 121.67 172.14 124.52 173.81 122.62 176.93"/><path class="cls-1" d="M138.45,180.78l-2.54,1.37-2.25-3.29c1.43,1.24,2.8,2.05,4.79,1.92Z"/><path class="cls-1" d="M143.24,180.29c.36,2.62-.76,3.7-3.35,3.35l3.35-3.35Z"/><polygon class="cls-1" points="162.41 181.25 159.54 179.57 161.69 178.37 162.41 181.25"/><path class="cls-1" d="M176.33,98.76l3.34,1.68c-.81,1.79-3.92-1.16-3.34-1.68Z"/><polygon class="cls-1" points="108.71 167.34 107.28 166.86 107.28 166.15 108 165.43 108.71 167.34"/><path class="cls-1" d="M163.72,310.37c11.23-2.33,12.3,13.43,4.1,15.13-11.64,2.4-13.17-13.25-4.1-15.13ZM160.62,317.34c2.04,2.08,6.73-3.4,4.2-4.93-2.72-1.63-6.06,3.03-4.2,4.93Z"/><path class="cls-1" d="M201.63,42.75c7.96-.8,11.8,9.18,4.26,12.46-11.49,4.99-15.5-11.33-4.26-12.46ZM201.25,46.48c.28-.28-.4-1.43-.72-1.43-1.33,0,0,2.15.72,1.43ZM199.34,45.53c-1.3-1.05-4.64,5.27.96,3.35v-.95s-1.91.48-1.91.48l.96-2.87Z"/><path class="cls-1" d="M53.47,139.61c6.16-.77,10.33,8.77,4.88,12.59-6.59,4.62-14.21-2.99-9.78-9.3.75-1.07,3.63-3.13,4.9-3.29ZM52.5,145.63c3.18-2.95-2.05-5.92-3.01-.79.32,1.54,1.94,1.79,3.01.79Z"/><path class="cls-1" d="M32.34,294.06c7.6-1.74,9.3,8.57,2.66,9.87-6.87,1.34-8.12-8.61-2.66-9.87Z"/><path class="cls-1" d="M176.68,210.13c6.93-1.14,6.53,9.02.36,9.03-4.92.01-5.94-8.12-.36-9.03Z"/><path class="cls-1" d="M217.9,60.49c7.27-1.65,7.36,9.75-.37,7.35-3.58-1.11-3.03-6.58.37-7.35Z"/><path class="cls-1" d="M204.98,73.43c6.86-.94,8.37,8.56,2.65,9.87-7.2,1.66-10.06-8.86-2.65-9.87ZM209.88,78.61c.36-.45-.02-2.73-1.43-2.39,1.25,1.82-.53,2.05-.48,2.15.42.81,1.69.5,1.91.23Z"/><path class="cls-1" d="M36.45,122.12c-3.28-3.28,2.16-8.69,5.18-5.9,3.85,3.55-1.66,9.42-5.18,5.9Z"/><path class="cls-1" d="M44.31,210.13c2.22-.21,3.42,3.39,1.28,4.14-3.95,1.38-4.39-3.84-1.28-4.14Z"/><path class="cls-1" d="M216.96,105.83c-1.23,1.23-4.13.66-4.13-1.56,0-4.18,7.3-1.62,4.13,1.56Z"/><path class="cls-1" d="M167.73,196.64c.77-.55,3.3.5,2.62,1.88-1.29,2.6-4.29-.68-2.62-1.88Z"/><path class="cls-1" d="M211.8,25.86c.85.85-1.16,3.82-1.86,1.62-.64-2.04,1.42-2.06,1.86-1.62Z"/><path class="cls-1" d="M170.09,239.76c.4,2.45-1.71,3.52-3.83,3.35-.3-2.41,1.5-3.73,3.83-3.35Z"/><path class="cls-1" d="M30.56,282.92h-1.43s0-1.43,0-1.43c.91-.15,1.59.56,1.43,1.43Z"/><path class="cls-1" d="M46.87,103.56v1.43c-.88.11-1.41.03-1.91-.72v-.71s1.91,0,1.91,0Z"/><path class="cls-1" d="M47.35,247.91v-1.43c1.76,0,1.76,1.43,0,1.43Z"/><path d="M180.16,278.6c3.58-4.52,8.93-7.67,12.97-11.72,9.93-9.98,17.12-22.96,22.75-35.76l6.95-22.05c.22,6.74-1.98,13.63-4.3,19.91-6,16.22-16.97,33.42-30.47,44.34-2.36,1.91-5.13,4.03-7.9,5.28Z"/><path d="M36.31,263.26c-13.49-14.75-23.7-34.99-25.4-55.15.69-.11.67.85.81,1.34,3.89,13.88,6.89,24.49,14.15,37.17,2.85,4.99,7.36,10.05,9.8,14.66.35.66.85,1.1.65,1.99Z"/><path d="M164.82,288.21c-12.35,8.33-25.98,11.57-37.17,22.04-.67.62-3.98,4.88-4.54,4.33.46-1.56,1.85-3.31,2.89-4.54,7.11-8.46,25.24-16.73,35.62-20.96,1.02-.42,2.06-.93,3.2-.87Z"/><path d="M70.36,288.21c.11.89-1,.42-1.45.25-4.9-1.79-12.1-6.38-16.44-9.46-4.55-3.24-10.27-7.46-12.79-12.38.63-.6,4.13,3.51,4.79,4.08,7.91,6.84,16.84,12.33,25.89,17.5Z"/><path d="M8.03,241.2c-1.86-1.69-2.25-6.33-2.41-8.85-.12-1.87-.03-21.4,1.7-21.37.11,7.08-.62,14.26-.26,21.37.15,2.87,1.17,5.92.97,8.85Z"/><path d="M201.73,228.73l17.74-23.02c-2.48,6.25-6.73,12.77-11.26,17.75-.72.79-5.62,6.03-6.48,5.26Z"/><path d="M106.8,257.99c-1.14,9.34-7.28,18.95-17.26,20.14l9.84-6.7c3.87-4.07,4.1-7.9,6.24-12.48.33-.71-.07-1.19,1.18-.95Z"/><path d="M109.68,310.74l-17.74-12.46c3.36.54,6.97,2.91,9.75,4.87.8.57,8.73,6.88,7.99,7.59Z"/><path d="M102.49,284.85l-.96,2.18c.24,1.75,1.75,1.01,2.88.69l-1.43-2.86,2.33.06c1.83,2.76-.95,5.75-3.75,4.48-2.28-1.03-1.73-4.86.95-4.55Z"/><polygon points="116.87 291.08 117.85 293.74 116.87 297.79 116.87 291.08"/><path d="M158.02,115.65c.2.11,1.96,2.65,3,3.45,2.28,1.77,5.16,2.9,7.63,4.36-.56,1.42-2.39-.52-3.52-.19-1.06.31-5.43,11.82-6.55,13.62-.27,1.83,3.95-.12,4.8.47-.94,1.93-5.18,1.4-5.69,1.74-.45.31-3.33,9.28-3.4,10.32-.13,2.03.99,2.05,1.9,3.52l-2.8-.09c-1.25-2.96-4.98-3.15-7.26-4.95-.76-1.53,2.81.2,3.14.13l4.06-9.74-5.52-6.44-9.83,7.2,2.39,3.35c-2.7-.03-3.35-2.27-5.02-3.85-.84-.79-1.73-1.15-2.52-1.77-.4-.31-.88,0-.6-1.1,1.34-.2,2.47.83,3.81.24.6-.26,9.38-6.65,9.61-7.2-1.81-1.63-3.96-1.19-6.23-1.2,1.74-3.6,7.22.18,8.27-.06,2.61-.61,8.58-6.84,11.87-7.61l-2.87-4.07c.07-.46,1.06-.3,1.35-.13ZM160.5,120.35c-.86-.16-1.57.65-1.92,1.43.86.16,1.57-.65,1.92-1.43ZM160.97,128.97c.34-2.02,1.89-3.45,2.68-5.23.17-.38,1.2-1.26-.05-1.47-.89-.15-2.56,4.34-2.89,5.26-.16.45-.63,1.56.25,1.45ZM154.74,135.69l4.8-11.51-9.05,5.81c-.56.95,3.32,6.38,4.25,5.7ZM153.78,142.4c.14-.15.6-2.13.48-2.39-.64-.26-1.13,2-.95,2.39.15-.02.41.07.47,0ZM152.82,149.6l.96-4.79-1.7,3.35.74,1.44Z"/><path d="M148.99,98.28l.25,1.91.72-.95.95.72c-.83,4.33-6.08-.21-1.91-1.68Z"/><path d="M180.2,130.37l-.04-2.35,1.91,1.43.23-1.91c1.91,2.02.13,3.39-2.11,2.83Z"/><path d="M125.02,159.19c.41.42-2,4.12-2.87,4.31-.45-1.02,2.02-5.19,2.87-4.31Z"/><path d="M177.76,132.81c.11.88.03,1.41-.72,1.91h-.71s0-1.91,0-1.91h1.43Z"/><rect x="144.2" y="105.96" width=".95" height="1.43"/><path d="M81.25,205.34c2.49-.56,5.36.14,7.59,1.31,1.33,2.46-.94,3.21-1.45,4.34s.16,2.93-1.2,3.59c-.95.46-5.77,1.39-6.49.26-.71-2.67-2.26-8.64,1.56-9.5ZM88.1,207.63c-6.79-2.94-10.09-.6-6.72,6.49l4.35-.96,2.37-5.53Z"/><path d="M100.56,234.01c.31,1.08-.87,1.76-.91,2.61-.04.93,1.25,3.75-1.01,3.62.2-2.49-1.84-5.95,1.91-6.23Z"/><path d="M94.81,244.56c.02,1.91-1.78,1.55-3.08,1.01-.8-1.46-.45-2.61,1.15-2.93l-.27,1.45,2.19.47Z"/><path d="M74.5,213.42c1.49-.25,2.18,2.49.35,2.8-1.49.25-2.18-2.49-.35-2.8Z"/><polygon points="90.02 206.19 87.15 204.52 89.57 204 90.02 206.19"/><path d="M103.93,224.41c-.3-.32.22-1.9.72-1.91,1.43-.01.13,2.82-.72,1.91Z"/><path d="M108.24,220.1c.72.72-1.43,2.04-1.43.72,0-.32,1.15-.99,1.43-.72Z"/><path d="M125.98,93.01l-5.97.97c-9.56.01-19.17.29-28.55-1.7l34.52.72Z"/><path d="M113.99,73.34l-23.49,1.44c-.23-1.37.29-.8,1.11-1.02,4.03-1.09,16.54-1.86,20.72-1.39.72.08,1.48.1,1.66.97Z"/><path d="M111.6,97.8h-14.14c-1.3,0-5.7-.69-7.06-1.09-.65-.19-1.55-.84-.12-.84,6.3,1.07,13.35.24,19.67.96.72.08,1.48.1,1.66.98Z"/><path d="M139.4,96.85l-8.39,1-6-.76c4.73-.05,9.84-.93,14.39-.23Z"/><path d="M136.05,92.05c.38,1.84-2.79.64-3.83.95.6-1.49,2.6-.86,3.83-.95Z"/><rect x="119.27" y="72.87" width="3.35" height=".47"/><path d="M110.63,63.27c-.77-.08-.9-2.06-.95-2.64-.35-4.1.14-9.3,1.19-13.19.93.03.03,14.22-.24,15.83Z"/><path d="M72.28,94.44l-6.33-.62-5.65-1.77c3.25.51,7.2.55,10.33,1.41.66.18,1.49.06,1.66.98Z"/><path d="M68.92,90.6c-2.21-.06-4.78-.17-6.96-.46-.72-.1-1.48-.07-1.67-.97,2.23-.03,4.76.12,6.96.47.71.12,1.48.03,1.68.96Z"/><path d="M74.68,296.84c-.75,1.44-2.75,2.06-2.43,4.01.35,1.58,4.52-1.45,2.86,1.21-.06.1-1.36.48-1.68.49-4.4.21-2.31-6,1.24-5.72Z"/><path d="M76.59,298.27c-.85.91-2.15-1.92-.72-1.91.49,0,1.01,1.59.72,1.91Z"/><path d="M83.78,304.51c.76.76-.67,2.19-1.43,1.43s.67-2.19,1.43-1.43Z"/><polygon points="81.15 307.39 81.87 308.11 81.15 309.29 80.43 308.58 81.15 307.39"/><path d="M177.76,288.2c.91.85-1.92,2.15-1.91.72,0-.49,1.59-1.01,1.91-.72Z"/><path d="M160.62,317.34c-1.86-1.9,1.48-6.56,4.2-4.93,2.53,1.52-2.16,7.01-4.2,4.93ZM164.33,313.14c-1.82-.87-4.36,3.01-2.63,3.35.78.15,3.09-2.27,2.63-3.35Z"/><path d="M199.34,45.53l-.96,2.87,1.91-.48v.95c-5.59,1.92-2.25-4.4-.95-3.35Z"/><path d="M201.25,46.48c-.72.72-2.04-1.43-.72-1.43.32,0,.99,1.15.72,1.43Z"/><path d="M52.5,145.63c-1.07,1-2.69.74-3.01-.79.96-5.13,6.2-2.16,3.01.79ZM52.06,144.72c.17-.27.3-1.66-.15-1.83-.8.66-1.39,1.29-1.2,2.4.28-.18,1.31-.5,1.35-.56Z"/><path d="M209.88,78.61c-.22.27-1.48.57-1.91-.23-.05-.1,1.73-.34.48-2.15,1.4-.35,1.79,1.93,1.43,2.39Z"/><path class="cls-1" d="M154.74,135.69c-.94.68-4.81-4.75-4.25-5.7l9.05-5.81-4.8,11.51Z"/><path class="cls-1" d="M160.97,128.97c-.89.11-.42-1-.25-1.45.33-.91,2-5.4,2.89-5.26,1.25.21.22,1.09.05,1.47-.79,1.79-2.35,3.22-2.68,5.23Z"/><polygon class="cls-1" points="152.82 149.6 152.08 148.16 153.78 144.8 152.82 149.6"/><path class="cls-1" d="M160.5,120.35c-.35.78-1.05,1.59-1.92,1.43.35-.78,1.05-1.59,1.92-1.43Z"/><path class="cls-1" d="M153.78,142.4c-.06.07-.31-.02-.47,0-.18-.4.31-2.66.95-2.39.12.26-.34,2.24-.48,2.39Z"/><path class="cls-1" d="M88.1,207.63l-2.37,5.53-4.35.96c-3.37-7.09-.06-9.43,6.72-6.49Z"/><path class="cls-1" d="M164.33,313.14c.46,1.09-1.85,3.51-2.63,3.35-1.73-.34.81-4.23,2.63-3.35Z"/><path class="cls-1" d="M52.06,144.72c-.04.06-1.07.38-1.35.56-.19-1.1.4-1.74,1.2-2.4.45.17.32,1.56.15,1.83Z"/></g></svg>