<?xml version="1.0" encoding="UTF-8"?><svg id="Layer_2" xmlns="http://www.w3.org/2000/svg" viewBox="0 0 219.19 271.19"><defs><style>.cls-1{fill:#fff;}</style></defs><g id="Layer_1-2"><path d="M155.39,118.66l9.82-25.07c10.18-5.64,20.31-12.05,30.7-17.27,1.02-.51,2.54-1.73,3.49-.84.65.61,1.74,4.87,2.1,6.06,3.99,13.29,7.4,26.93,10.73,40.35l-19.91,54.8,24.85-6.7c1.23-.11,1.8.31,2.02,1.53l-1.39,32.21-47.18,50.43c-.79.48-2.81.59-3.85.71-6.06.68-14.2.39-19.71,2.6-6.09,2.45-11.79,5.92-17.97,8.18l-12.89-3.03c-4.63,2.22-9.01,5.2-13.57,7.49-.99.49-2.05,1.28-3.18,1.02-7.67-1.87-15.56-5.33-23.21-7.02-8-1.77-16.85-1.89-24.88-3.9L6,220.92c-1.65-10.43-4.48-21.22-5.75-31.67-.18-1.5-.77-2.96.85-3.87l26.45,2.35L3.33,134.13c3.99-17.65,9.42-35.06,14.1-52.57.66-1.23,1.39-1.29,2.52-.5l38.04,25.75.84.83,3.01,7.42c-.06-2.11-.11-4.25-.24-6.35-.95-15.56-2.36-31.09-2.29-46.66C75.32,41.32,91.31,20.52,107.82.22l.64-.22c.7.07,4.09,3.94,4.84,4.74,15.25,16.5,29.49,34,44.38,50.83.16,2.03.15,4.1.12,6.14-.23,12.9-1.18,25.94-1.7,38.83-.24,6.04-.29,12.07-.71,18.12ZM108.37,5.71l-.69.87-29.76,66.66.11,1.06,15.12,37.17c.42.1,2.97-3.61,3.43-4.24,9.27-12.7,18.53-25.51,27.58-38.37.53-.75,3.61-5.04,3.62-5.46L108.37,5.71ZM111.73,6.91l-.47.11,18.65,55.21c2.25,2.16,4.88,4.37,7.37,6.3.46.36,2.7,2.19,3,2.05l14.37-14.6L111.73,6.91ZM76,71.66l27.82-62.35-41.22,52.91,13.4,9.44ZM137.64,151.76l14.14-10.67.25-.47c1.13-22.95,1.75-45.87,2.63-68.84l.49-12.82-13.9,14.27-3.6,78.54ZM97.34,211.23c-1.72-32.19-3.92-64.35-5.57-96.47l-16.15-39.97-13.77-9.85c.72,19.78,1.99,39.53,3.17,59.3l32.32,86.99ZM104.54,220.59l17.46-56.29,12.77-10.01.46-.74,3.82-80.11c-.06-1.17-8.32-6.63-9.45-8.01l-34.85,48.37-.51,1.17,5.74,102.39.24.48,4.31,2.76ZM193.28,123.94l3.84-43.41-20.62,24.83,16.78,18.58ZM193.52,80.77l-25.08,14.15.12.61,6.01,7.67.59-.14c6.2-7.36,12.52-14.64,18.36-22.29ZM209.32,120.79l-10.28-37.86-3.6,42.45,13.88-4.59ZM46.02,121.06l-25.66-34.29,2.51,43.89,23.15-9.6ZM23.72,87.01l24.34,32.37,7.93-10.55-32.27-21.82ZM18.44,89.65l-11.99,42.69,14.15-.72-2.16-41.97ZM160.9,141.93l12.22-36.12-.26-.9-6.08-7.83-1.25,2.58-10.36,28.01-.49,10.9c.13.17,2.4-2.2,3.84-1.32.55.33,1.49,3.54,1.89,4.34.13.25-.12.45.5.34ZM174.57,174.78l18.15-47.61-17.78-19.54-12.83,37.32c4,9.65,7.7,19.49,11.95,29.03.12.27.18.83.51.8ZM57.53,111.23c-.32-.24-1.2,1.05-1.43,1.33-1.88,2.28-4.65,5.75-6.2,8.18-.33.52-.71.88-.47,1.57l30.29,82.93,15.95,9.83-38.13-103.84ZM76.21,203.28c.18-.29-1.61-5.07-1.88-5.84-8.76-24.82-18.24-49.4-26.99-74.22-.19-.34-.33-.21-.6-.14-.9.22-2.61,1.07-3.59,1.46-6.61,2.68-13.03,5.88-19.66,8.52-.22.31,1.78,4.47,2.1,5.18,11.04,24.34,22.46,48.66,33.89,72.83,1.27,2.69,4.02,9.43,5.61,11.42.09.11.25.33.35.25l9.08-17.43c.41-.49.61-1.17,1-1.65.18-.23.64-.3.69-.38ZM209.11,123.46c-3.01.79-6.04,1.66-9,2.63-1.05.35-4.91,1.42-5.34,2.09-5.56,15.25-12.36,30.39-17.56,45.75-.87,2.57-.75,4.44-1.37,6.55-2.06,7.04-5.3,14.04-7.26,21.16,6.4-7.65,12.06-15.95,18.72-23.37l1.9-1.03,19.9-53.78ZM21.04,133.81l-14.59,1.04,24.41,53.29c11.15,12.26,21.72,25.03,32.9,37.24l-42.73-91.57ZM153.46,143.36l-28.19,21.83c-.27.44.06.82.24,1.2l8.16,13.66,19.78-36.69ZM156.58,188.45l-.36-44.85-20.51,38.01,20.87,6.84ZM158.74,144.8v43.17l14.4-9.01-14.4-34.16ZM113.9,236.9l.49-.59,17.91-53.29-8.69-14.71-16.84,53.89,7.13,14.7ZM214.62,173.58l-24.69,6.48,6.35,20.13,18.35-26.61ZM215.1,202.36l1.2-26.62-18.22,25.78c-.06.49.02.31.35.36,1.22.16,3.46.2,4.79.25,3.95.14,7.96-.3,11.88.23ZM152.27,249.37l42.09-46.52-6.6-20.87-22.11,27.89-13.38,39.5ZM172.17,182.46l-13.52,8.91-.45.51-26.8,69.72,13.99-6.27,2.27-1.33,24.51-71.54ZM128.27,262.79l27.6-71.35-.41-.54-20.8-6.74-19.1,56.23,1.33,19.3,11.38,3.11ZM28.51,190.61l-23.98-2.4,20.75,23.26,3.24-20.86ZM8.13,218.67l15.58-5.16-20.38-22.9,4.8,28.06ZM30.68,192.29l-3.37,20.76.14.82,29.26,28.78.41-.55c1.18-4.14,4.09-8.84,5.06-12.93.09-.39.3-.74.04-1.14l-31.53-35.75ZM213.42,204.52c-3.56-.06-7.12.07-10.68,0-1.53-.03-5.5-.72-6.72-.02-14.56,16.4-29.83,32.19-44,48.93,4.65-.57,9.37-.69,14.03-1.2.92-.1,2.55-.18,3.23-.61l44.14-47.11ZM78.64,207.88l7.15,24.87,10.36,16.51,16.09-9.12.12-.38-8.17-16.06-25.54-15.83ZM76.24,208.6l-10.3,18.83,17.02,3.95-6.72-22.78ZM51.54,256.8l4.2-11.76c-9.9-9.92-19.88-19.77-30.09-29.35l-15.6,4.9,41.49,36.21ZM82.48,233.78l-16.55-3.6,7.8,21.34,8.75-17.74ZM74.56,261.12l-10.79-29.02-9.84,25.9,20.62,3.12ZM84.87,235.7l-.76.55-9.02,17.85c-.11.37-.07.72,0,1.08.16.82,1.86,5.38,2.29,6.11.17.28.28.49.63.57l20.29,5.97-3.55-16.23-9.88-15.9ZM112.93,242.65l-15.55,9.03,3.32,16.15,13.55-7.42-1.32-17.76Z"/><path class="cls-1" d="M104.54,220.59l-4.31-2.76-.24-.48-5.74-102.39.51-1.17,34.85-48.37c1.13,1.38,9.39,6.84,9.45,8.01l-3.82,80.11-.46.74-12.77,10.01-17.46,56.29Z"/><path class="cls-1" d="M108.37,5.71l19.41,57.68c-.02.43-3.1,4.72-3.62,5.46-9.05,12.86-18.31,25.68-27.58,38.37-.46.63-3.01,4.34-3.43,4.24l-15.12-37.17-.11-1.06L107.69,6.58l.69-.87Z"/><path class="cls-1" d="M97.34,211.23l-32.32-86.99c-1.18-19.77-2.45-39.53-3.17-59.3l13.77,9.85,16.15,39.97c1.65,32.12,3.85,64.28,5.57,96.47Z"/><path class="cls-1" d="M76.21,203.28c-.05.09-.51.16-.69.38-.38.48-.59,1.16-1,1.65l-9.08,17.43c-.1.08-.26-.14-.35-.25-1.59-1.99-4.34-8.72-5.61-11.42-11.44-24.17-22.85-48.49-33.89-72.83-.32-.71-2.32-4.87-2.1-5.18,6.63-2.64,13.04-5.84,19.66-8.52.98-.4,2.68-1.25,3.59-1.46.27-.07.41-.2.6.14,8.75,24.82,18.23,49.4,26.99,74.22.27.77,2.06,5.55,1.88,5.84Z"/><polygon class="cls-1" points="128.27 262.79 116.89 259.68 115.56 240.38 134.66 184.16 155.46 190.89 155.87 191.44 128.27 262.79"/><path class="cls-1" d="M57.53,111.23l38.13,103.84-15.95-9.83-30.29-82.93c-.23-.69.14-1.06.47-1.57,1.56-2.43,4.33-5.91,6.2-8.18.23-.28,1.11-1.57,1.43-1.33Z"/><path class="cls-1" d="M21.04,133.81l42.73,91.57c-11.18-12.21-21.76-24.99-32.9-37.24l-24.41-53.29,14.59-1.04Z"/><path class="cls-1" d="M137.64,151.76l3.6-78.54,13.9-14.27-.49,12.82c-.87,22.97-1.49,45.9-2.63,68.84l-.25.47-14.14,10.67Z"/><path class="cls-1" d="M174.57,174.78c-.34.03-.39-.53-.51-.8-4.25-9.54-7.95-19.38-11.95-29.03l12.83-37.32,17.78,19.54-18.15,47.61Z"/><path class="cls-1" d="M111.73,6.91l42.91,49.08-14.37,14.6c-.3.13-2.53-1.7-3-2.05-2.49-1.93-5.12-4.14-7.37-6.3L111.26,7.02l.47-.11Z"/><polygon class="cls-1" points="172.17 182.46 147.66 254 145.4 255.33 131.4 261.6 158.21 191.87 158.66 191.36 172.17 182.46"/><polygon class="cls-1" points="152.27 249.37 165.65 209.87 187.76 181.98 194.35 202.85 152.27 249.37"/><path class="cls-1" d="M213.42,204.52l-44.14,47.11c-.68.42-2.3.51-3.23.61-4.66.51-9.38.62-14.03,1.2,14.16-16.75,29.43-32.53,44-48.93,1.22-.7,5.19,0,6.72.02,3.56.07,7.13-.07,10.68,0Z"/><path class="cls-1" d="M209.11,123.46l-19.9,53.78-1.9,1.03c-6.66,7.41-12.32,15.72-18.72,23.37,1.96-7.12,5.2-14.11,7.26-21.16.61-2.11.5-3.97,1.37-6.55,5.2-15.36,12-30.5,17.56-45.75.43-.67,4.29-1.75,5.34-2.09,2.96-.97,5.99-1.84,9-2.63Z"/><path class="cls-1" d="M30.68,192.29l31.53,35.75c.26.4.05.75-.04,1.14-.98,4.08-3.88,8.78-5.06,12.93l-.41.55-29.26-28.78-.14-.82,3.37-20.76Z"/><polygon class="cls-1" points="113.9 236.9 106.77 222.19 123.61 168.31 132.3 183.01 114.39 236.31 113.9 236.9"/><polygon class="cls-1" points="78.64 207.88 104.18 223.7 112.36 239.76 112.24 240.14 96.14 249.26 85.79 232.75 78.64 207.88"/><path class="cls-1" d="M51.54,256.8l-41.49-36.21,15.6-4.9c10.21,9.58,20.19,19.43,30.09,29.35l-4.2,11.76Z"/><polygon class="cls-1" points="76 71.66 62.6 62.22 103.82 9.3 76 71.66"/><polygon class="cls-1" points="46.02 121.06 22.87 130.66 20.36 86.77 46.02 121.06"/><polygon class="cls-1" points="156.58 188.45 135.72 181.61 156.22 143.6 156.58 188.45"/><polygon class="cls-1" points="193.28 123.94 176.49 105.36 197.11 80.53 193.28 123.94"/><path class="cls-1" d="M84.87,235.7l9.88,15.9,3.55,16.23-20.29-5.97c-.35-.08-.47-.28-.63-.57-.43-.73-2.13-5.29-2.29-6.11-.07-.37-.12-.72,0-1.08l9.02-17.85.76-.55Z"/><path class="cls-1" d="M160.9,141.93c-.62.11-.37-.09-.5-.34-.4-.79-1.35-4.01-1.89-4.34-1.44-.88-3.71,1.49-3.84,1.32l.49-10.9,10.36-28.01,1.25-2.58,6.08,7.83.26.9-12.22,36.12Z"/><polygon class="cls-1" points="158.74 144.8 173.14 178.96 158.74 187.97 158.74 144.8"/><path class="cls-1" d="M153.46,143.36l-19.78,36.69-8.16-13.66c-.18-.38-.51-.76-.24-1.2l28.19-21.83Z"/><polygon class="cls-1" points="18.44 89.65 20.6 131.61 6.45 132.33 18.44 89.65"/><polygon class="cls-1" points="209.32 120.79 195.44 125.38 199.03 82.93 209.32 120.79"/><polygon class="cls-1" points="74.56 261.12 53.94 258 63.77 232.1 74.56 261.12"/><polygon class="cls-1" points="214.62 173.58 196.27 200.2 189.93 180.07 214.62 173.58"/><polygon class="cls-1" points="112.93 242.65 114.25 260.41 100.7 267.83 97.38 251.69 112.93 242.65"/><polygon class="cls-1" points="23.72 87.01 55.99 108.83 48.06 119.38 23.72 87.01"/><polygon class="cls-1" points="28.51 190.61 25.28 211.47 4.53 188.21 28.51 190.61"/><polygon class="cls-1" points="8.13 218.67 3.34 190.61 23.71 213.51 8.13 218.67"/><path class="cls-1" d="M215.1,202.36c-3.92-.53-7.93-.09-11.88-.23-1.33-.05-3.57-.09-4.79-.25-.33-.04-.42.13-.35-.36l18.22-25.78-1.2,26.62Z"/><polygon class="cls-1" points="76.24 208.6 82.96 231.38 65.93 227.42 76.24 208.6"/><polygon class="cls-1" points="82.48 233.78 73.72 251.52 65.93 230.18 82.48 233.78"/><path class="cls-1" d="M193.52,80.77c-5.83,7.65-12.16,14.93-18.36,22.29l-.59.14-6.01-7.67-.12-.61,25.08-14.15Z"/></g></svg>