<?xml version="1.0" encoding="UTF-8"?><svg id="Layer_2" xmlns="http://www.w3.org/2000/svg" viewBox="0 0 178.26 370.09"><defs><style>.cls-1{fill:#fff;}</style></defs><g id="Layer_1-2"><path d="M29.26,312.59c-12.45-3.92-24.84-12.27-28.26-25.59-2.52-9.83.37-21.19,1.42-31.17,4.04-38.26,7.62-76.71,12.51-114.86.35-2.75,1.42-6.82,1.43-9.39,0-.56-.1-.85-.39-1.31-.91-1.44-3.76-3.69-5.03-5.28-4.71-5.93-3.97-12.97,3.01-16.47-.04-5.54.78-11.12,2.52-16.38,2.53-7.67,7.61-14.01,10.77-21.36s4.27-15.61,6.38-23.6c4.86-18.37,13.01-30.12,31.27-36.84,3.62-1.33,11.27-2.77,13.91-4.8C82.31,2.83,83.44.24,88.63.02c7.43-.32,7.75,4.4,12.68,6.53,3.03,1.31,7.12,1.95,10.36,3.07,18.7,6.42,27.46,17.38,32.71,36.13,2.1,7.51,3.06,15.42,5.83,22.71,3.43,9.02,9.71,16.36,12.34,25.79,1.27,4.56,1.8,9.31,1.78,14.05,3.92,2.17,6.29,5.49,5.97,10.12-.38,5.49-5.17,8.49-8.28,12.36.14,3.21.87,6.5,1.29,9.73,3.4,26.61,5.76,53.38,8.7,80.05,1.88,17.09,4.38,34.25,5.96,51.36,1.38,14.86-2,25.14-14.41,33.79-4.49,3.13-9.51,5.11-14.54,7.21,1.39,7.23.28,14.76.64,22.09.07,1.3.14,3.48.84,4.43,1.83,2.46,4.25,3.53,5.76,6.71,4.33,9.15-.28,12.18-8.04,15.46-8.41,3.55-19.36,5.54-28.44,6.58-20.75,2.37-42.29,2.72-63.01,0-8.38-1.1-27.16-5.11-33.6-10.29-4.73-3.8-2.63-11.21.95-15.11,1.32-1.44,4.05-2.97,4.38-4.97.4-8.4-.63-16.92.76-25.22ZM162.14,103.16c-.28-13.05-9.51-22.7-13.85-34.24-7.06-18.77-4.65-37.3-23.35-50.52-8.18-5.79-14.54-6.45-23.42-9.67-4.56-1.65-6.34-6.12-10.95-6.55-7.54-.71-7.26,3.62-12.27,5.97-3.46,1.62-8.01,2.34-11.72,3.63-16.69,5.82-25.3,16.07-30.26,32.81-2.41,8.13-3.32,16.67-6.3,24.64-3.3,8.85-9.54,16.07-12.17,25.25-.8,2.8-1.26,5.69-1.75,8.56l2.64.12c.04-3.45.74-6.99,1.86-10.26,2.39-7.01,7.35-12.92,10.25-19.73,6.42-15.08,5.44-31.48,15.52-45.16,5.01-6.8,11.91-11.11,19.74-14.08,4.27-1.62,9.5-2.46,13.48-4.27,3.54-1.61,5.04-5.58,9.55-5.58,3.98,0,5.31,2.56,7.92,4.57,2.84,2.19,11.4,3.78,15.35,5.28,10.02,3.81,17.57,9.48,22.78,18.95,6.84,12.42,6.74,26.85,12.23,39.81,3.37,7.94,9.28,14.74,11.27,23.27.55,2.37.83,4.79,1.08,7.2.81-.46,1.56-.21,2.39,0ZM123.17,79.42c-1.43.12-2.99-.09-4.44,0,0,3.87.23,7.73-.72,11.51,1.85.07,5.02.25,6.37,1.67,1.55,1.63,1.26,4.87,1.34,6.93.72.25,1.47.44,2.11.89.46.32,1.28,1.52,1.38,1.55.64.17,2.01-.08,2.83,0,4.76.47,9.14,2.24,13.32,4.43,1.41.74,3.79,2.66,5.2,2.95,2.39.5,5.29-1.1,7.74-1.15-.57-6.01-.91-11.59-3.32-17.19-2.75-6.39-7.24-11.93-9.82-18.48-5.19-13.21-5.22-28.15-12.67-40.34-4.82-7.89-11.7-12.86-20.25-16.21-4.82-1.89-13.2-3.14-16.9-6.13-1.08-.87-1.75-1.96-3.02-2.73-5.68-3.46-7.38,2.35-11.57,4.22-6.79,3.04-13.89,3.68-20.95,7.59-23.88,13.23-18.24,38.25-29.05,58.97-2.62,5.02-6.27,9.7-8.2,15.07-1.72,4.78-2.16,10.2-2.29,15.25,2.19.3,5.24,1.48,7.39,1.12,1.6-.27,4.55-2.57,6.17-3.42,3.22-1.7,6.7-3,10.31-3.6,1.14-.19,4.52-.29,5.1-.6.28-.15.39-.64.82-.92.77-.51,1.57-.96,2.45-1.27.12-2.04-.02-5.46,1.5-7.02,1.2-1.23,4.54-1.39,6.22-1.58-.97-3.86-.7-7.81-.72-11.75-2.18.35-7.04.35-8.96-.76-2.55-1.48-1.97-5.4.4-6.97,2.59-1.71,9.21-4.23,12.34-5.41,4.98-1.88,10.11-3.25,15.41-3.9-2.38-3.28-3.56-7.72-4.54-11.65-1.18-4.78-2.66-11.13-.06-15.61,5.21-8.97,22.63-9.36,29.05-1.63,4.48,5.39,1.92,14.82.07,20.93-.83,2.76-1.69,5.63-3.42,7.97,9.95,1.1,19.07,5.39,28.04,9.49,2.22,1.49,2.21,5.8-.22,6.94-.56.26-3.69.78-4.44.84ZM98.83,60.23c2.46-5.91,5.39-14.28,4.8-20.74-1.2-12.98-27.61-12.99-28.98.03-.39,3.72.99,9.39,2.01,13.04.73,2.63,1.55,5.88,3.36,7.91.19-.28.56-.92.49-1.22-.12-.53-1.15-2.26-1.44-3.11-1.59-4.67-3.82-13.64-2.24-18.29,2.91-8.51,20.94-8.77,24.35-.71,2.11,4.99-.12,13.48-1.75,18.52-.41,1.28-2.38,4.14-.59,4.57ZM87.75,33.19c-8.62.79-10.4,4.6-9.23,12.69.22,1.51,2.55,11.69,3.43,11.92,4.69-1.09,9.91-.93,14.59,0,.39-.1,1.5-3.85,1.7-4.53,1.26-4.32,2.99-11.15,1.27-15.42-1.53-3.8-8.13-4.99-11.75-4.66ZM95.95,61.91c-.09-1-.24-2.1-1.37-2.35-2.17-.48-8.82-.54-10.93,0-1.16.3-1.2,1.32-1.13,2.35h13.43ZM120.41,71.27c-2.83-.92-5.47-2.36-8.27-3.37-14.78-5.32-32.76-5-47.43.54l-7.37,3.3c8.68-.61,17.32-.71,26.03-.71,3.24,0,6.5-.35,9.76.3.42.08,1.45.21,1.62.65-10,1.06-20.08.57-30.11.95-3.46.13-7.34.21-10.78.49-2.01.17-3,.38-1.95,2.66.72.57,6.15-.21,7.45-.27,20.07-.94,41.57-1.2,61.65,0,1.71.1,6.5,1.79,5.87-1.31-.12-.57-1.07-.88-1.62-1.02-3.44-.87-10.07-1.03-13.84-1.27l-7.56-.47c.28-.63,1.2-.67,1.79-.73,3.97-.35,9.14.24,13.19.5.32.02,1.5.18,1.57-.25ZM94.99,77.98h-12.23c.27.44.73.27,1.21.83.86,1.01.86,3.53.71,4.8-.4,3.55-3.36,4.04-6.35,4.21-2.55.14-7.57.02-10.08-.25-4.39-.47-5.26-5.87-3.24-9.11l-3.12.24c.63,3.99-.56,8.31,1.36,12.01,5.41-.61,10.85-.39,16.28-.49,9.92-.18,19.81-.29,29.74-.02l5.76.41c.33-.05.49-.72.59-.99.21-.56.71-2.63.71-3.13v-7.8l-3.12-.24c1.95,3.3,1.34,8.62-3.24,9.11-2.69.29-10.1.43-12.65-.06-1.57-.3-2.66-.92-3.34-2.42-.62-1.38-.76-5.18.16-6.4.3-.39.8-.33.84-.72ZM102.14,79.97c-.85.01-5.8.24-6.08.63-.39,2.42-.08,4.33,2.65,4.58,2.47.23,7.62.23,10.08-.01,2.19-.22,3.16-1.18,3.02-3.47-.1-1.59-1.66-1.49-3-1.57-2.08-.14-4.56-.19-6.65-.16ZM66.75,80.67c-.5.49-.14,2.62.12,3.24.36.83,1.54,1.13,2.36,1.23,2.22.26,8.33.3,10.5,0,2.29-.31,2.93-2.06,2.54-4.18-.14-.74-2.01-.8-2.75-.85-2.83-.19-7.01-.18-9.85,0-.52.03-2.69.3-2.93.55ZM132.88,135.79c-2.6-1.48-6.79-3.64-7.38-6.9-.74-4.12-.11-9.09-.57-13.35-.23-2.15-1.69-3.5-1.89-5.31-.49-4.33.38-9.51,0-13.92-.21-2.56-.99-2.38-3.28-2.72-9.06-1.36-20.2-.96-29.48-.98-9.84-.02-21.64-.34-31.38.98-2.65.36-3.53.21-3.76,3.2-.33,4.31.52,9.52.01,13.69-.14,1.12-1.04,2.11-1.38,3.18-1.58,4.99.93,14.64-2.7,18.41-1.46,1.52-4.03,2.6-5.77,3.83,3.39.29,6.8.84,10.2,1.08,2.71.19,5.45.14,8.16.23,22.37.79,45.04.58,67.38-.95l1.8-.47ZM52.55,102.21c-.17-.19-2.33,1.41-2.4,2.04-.06.54.44,1.61.49,2.39.32,5.05-.06,10.4-1,15.36l1.11,1.32c.33-3.06-.06-6.45.9-9.41.31-.93,1.02-1.69,1.14-2.7.34-2.75-.64-6.14-.25-9ZM128.5,122.29c-.14-3.06-.77-6.1-.9-9.17-.12-2.75.4-6.57,0-9.11-.14-.87-1.01-1.74-1.9-1.81.41,2.83-.61,6.26-.22,8.97.15,1.08.98,1.81,1.3,2.78.83,2.53.61,6.42.84,9.11l.89-.78ZM49.19,104.13c-3.89.56-7.8,1.3-11.43,2.83-2.59,1.09-5,2.88-7.5,4.01-3.49,1.56-6.69.68-10.21-.33-.5.08-.44,2.68-.34,3.19.12.63.9,1.41,1.08,2.28,1.36,6.49-8.27,6.81-7.81.62.09-1.21,1.05-2.11,1.14-2.68s-.41-1.97-.17-2.72c-3.5,2.21-4.3,6.35-2.44,10,.58,1.14,2.01,2.86,2.91,3.8.63.67,3.54,2.86,3.79,3.29.18.32.42,2.13.78,2.7-5.45,39.7-9.03,79.63-13.44,119.46-.95,8.6-2.85,17.5-3.13,26.14-.25,7.82,2.27,16.1,7.8,21.72.19.04.14-.22.12-.36-.35-2.42-2.23-6.21-2.83-8.93-.05-.24-.24-.84.18-.78l3.34,10.21-.46.22,4.08,3.48c-.95-2.44-1.9-5.16-2.48-7.71-.05-.22-.78-3.27.08-2.36l3.43,10.97,3.53,2.23c.34-.41-4.08-8.48-3.24-10.07l4.67,10.86c.18.31,2.52,1.38,2.41,1.01-1.37-2.43-2.5-5.06-3.3-7.73-.14-.46.03-.98-.18-1.5-.16-.38-2.65-2.36-3.24-3-12.16-13.1-4.21-32.92-3.35-48.7,4.46-34.2,6.99-68.66,11.55-102.87,1.14-8.55,1.61-16.56,7.63-23.31,4.3-4.82,10.18-7.13,16.54-7.8l.49-8.14ZM158.54,110.6c-2.79.52-5.55,1.63-8.45,1.14-2.06-.35-5.75-3.15-7.84-4.15-3.92-1.88-8.66-3.16-12.96-3.34l.47,8.16c6.14.42,12.09,2.93,16.21,7.54,6.08,6.81,6.56,14.76,7.76,23.42,2.96,21.42,4.32,43.02,6.75,64.49,1.94,17.13,4.55,34.23,6.44,51.36,1.59,14.34,5.07,29.06-8.47,38.96l-3.13,9.1,2.38-1.21,3.61-10.06c.6-.1.35.43.3.78-.41,2.81-1.91,5.8-2.58,8.58l3.46-2.17,3.38-10.54c.73-.37.1,1.97.05,2.21-.54,2.49-1.46,4.92-2.08,7.39,8.84-6.28,12.45-15.81,12-26.51-.35-8.44-2.19-17.24-3.13-25.66-3.66-32.92-6.78-65.89-10.58-98.79-.72-6.21-2.35-13.36-2.62-19.45-.06-1.35.11-2.64.25-3.97l.71.72c.75-1.4,2.54-2.35,3.61-3.46,3.03-3.16,5.22-7.17,2.73-11.38-.22-.37-2.14-2.81-2.5-2.42.09.86-.14,1.92,0,2.75.13.69.83,1.14.95,2.16.75,6.05-7.27,6.59-7.69,1.46-.2-2.48,1.01-2.78,1.14-3.88.09-.75-.42-2.29-.18-3.21ZM17.75,104.87c-.97-.65-1.57,1.03-1.66,1.78-.21,1.85-.17,5.79,0,7.67.04.49.47,2.91,1.22,1.9.28-1.41,1.05-10.93.44-11.35ZM160.48,104.87c-.6.4-.04,2.61-.02,3.22.05,1.57-.05,6.55.46,7.69.8,1.8,1.38-1.14,1.46-1.94.14-1.54.26-7.68-.7-8.65-.27-.27-.88-.53-1.19-.32ZM48.71,114.2l-3.33.75-.51,7.16.81-.03.35-.37c.05-.87,1.06-7.02,1.6-7.03.46.31.36.58.34,1.04-.08,1.98-.72,4.16-.94,6.15h1.2s.48-7.67.48-7.67ZM130.69,114.47l-.67-.17-.49.25c.24,1.24.38,2.59.47,3.84.12,1.68-.79,3.97,1.68,3.47l-.99-7.4ZM133.36,114.93l-1.91-.25c-.28.3,1.33,6.28,1.19,7.27l1.2.4-.49-7.43ZM44.63,115.16l-2.17.62-.22,7.53c.53-.31,1.37-.29,1.62-.89l.77-7.26ZM136.24,123.55v-6.84c0-.07.25-.24.21-.45l-.2-.27-2.17-.6.76,7.28,1.4.88ZM41.75,116.12l-2.41,1.12.25,7.99c2.38-1.14,1.52-2.54,1.68-4.67.11-1.46.26-2.99.48-4.44ZM137.2,116.36v7.8c0,.12,1.8,1.46,1.92,1.32.04-.91-.06-1.84,0-2.75.08-1.17.88-4.67.13-5.41-.2-.2-1.93-1.08-2.05-.95ZM14.9,117.32c.4,1.4,1.48,2.42,2.97,1.64.58-.3,1.37-1.37.63-1.88-.27.95-1.02,1.61-2.03,1.44s-.74-1.22-1.57-1.2ZM163.34,117.32c-1.48,1.89-2.49,1.47-3.83-.24-.07,2.77,3.65,2.98,3.83.24ZM38.64,126.31v-8.75c-1.4.89-2.72,1.93-3.76,3.23l1.6,8.04,2.16-2.52ZM141.52,128.59l1.21-8.5c.05-.42-2.31-2.18-2.4-2.05l-.5,8.04,1.69,2.51ZM150.09,133.33c.2-.39-.43-2.45-.6-3.01-1.1-3.65-3.51-7.33-6.3-9.89l-.97,9.48.73,2.27c.64.06.39,0,.47-.36.64-2.75.9-5.63,1.92-8.28l.43.38-2.09,10.31.7,3.93,3.34-9.73.73-.58-3.58,12.37.46,4.17,4.32-10.86c.06-.14.39-.15.42-.22ZM35.04,132.91c-.02-1,.75-1.74.73-2.74-.02-1.07-.56-2.53-.7-3.64-.22-1.78-.37-3.59-.63-5.36l-2.52,3.11c.18-.02.38,0,.47.18,1.05,2.09,1.35,5.61,2.18,7.85.09.26.1.58.46.61ZM48.66,171c.49-.76.09-4,.9-5.45,1.26-2.27,7.66-4.74,8.2-7.39.36-1.79.09-5.83.06-7.87,0-.57-.25-1.09-.26-1.66-.03-2.89.07-5.73.22-8.61l-.57-.39c-3.62-.24-7.65-.34-11.2-1.03-2.1-.41-4.69-1.43-2.83-3.89s6.72-3.35,7.17-6.98c.72-5.81-6.84-2.49-9.2-.33-4.58,4.18-5.35,13.82-6.12,19.79-1.23,9.62-1.83,19.37-2.88,29.02-3.03,27.79-6.33,55.54-9.11,83.36,5.84.2,10.85,1.11,13.31,6.96.96,2.29,1.18,5.73,3.67,6.89,1.68.79,4.74.95,6.64,1.03,2.27.11,4.57-.1,6.84-.01l-3.95-2.16c-1.42-1.54-1.92-3.37-1.02-5.33.28-.61,1.25-1.42,1.11-1.93-15.92-18.07-15.01-44.42-10.51-66.7-4.66-2.35-3.4-6.34,1.62-6.67,1.18-4.56,2.53-9.16,4.8-13.31.22-.41,1.44-1.99,1.44-2.12,0-.32-1.57-1.14-.69-3.37.52-1.33,2.2-1.57,2.37-1.83ZM120.41,139.62v18.59c0,1.52,7.43,5.45,8.36,7.47.76,1.65.17,3.73.81,4.95s2.23.62,2.53,2.75c.19,1.34-.75,2.39-.63,3,.07.35,1.38,2.07,1.68,2.66,1.11,2.15,2.12,4.64,2.9,6.93.3.9,1.24,5.24,1.77,5.42,1.31.45,2.85,0,3.78,1.74,1.19,2.24-1.18,3.52-2.44,4.93,2.78,14.6,4.19,29.64.83,44.27-1.93,8.39-5.7,16.44-11.42,22.89,2.02,2.37,2.26,4.88.1,7.28l-2.76,1.68c2.96-.34,6.22-.21,9.12-.82,5.41-1.15,4.85-5.39,7.14-9.17,2.69-4.46,8.38-4.38,12.99-4.87-1.18-12.27-2.47-24.55-3.84-36.81-2.7-24.34-4.96-48.83-7.94-73.13-.95-7.74-1.41-21.43-10.15-24.39-5.03-1.7-7.36,2.06-3.97,5.41,1.49,1.48,9.93,5.38,4.86,7.73-1.86.86-8.99,1.3-11.45,1.5-.75.06-1.52-.03-2.28,0ZM31.92,124.75c-.55-.14-.39.11-.55.3-.4.51-1.88,3.34-1.85,3.88l4.07,11.17c-.15-1.54.88-3.78.85-5.16s-1.68-6.06-2.12-7.84c-.19-.77-.35-1.56-.4-2.36ZM32.64,146.34l.42-4.86-4.02-11.93-1.2,5.38,4.79,11.41ZM129.05,295.78l10.68,7.68c13.62-2.27,28.01-11.21,27.22-26.76-.4-7.76-1.75-15.35-2.62-23.05-2.95-26.05-5.74-52.11-8.67-78.16-1.57-13.97-3.04-27.98-5.28-41.86l-4.32,11.15-.48,2.15.72,5.17c1.34-3.36,2.67-6.89,4.8-9.83.05.42,0,.8-.11,1.2-.87,3.28-3.66,7.09-4.64,10.49l.68,6.05,4.74-9.53.77-.54-5.16,11.51.12,4.8c.06.08.27-.13.36-.24,1.43-1.84,2.75-6.6,4.15-8.8.19-.3.39-.69.76-.79-.99,3.95-3.1,7.8-4.97,11.43l.53,4.88,4.39-9.28.76-.79c-.94,4.29-3.74,7.99-5.04,12.1l.73,3.97c1.28-2.52,2.35-5.48,3.72-7.92.07-.13.75-1.6,1.08-1.19.2.24-1.38,3.67-1.64,4.24-.65,1.47-3.19,6-3.18,7.15.02,1.29.32,3.68.52,5.02.04.25.1.9.45.86,1.06-2.53,2.28-6.07,3.79-8.32.21-.31.27-.65.76-.55.41.46-4.31,9.49-4.72,10.86l.89,7.61,3.07-6.4.76-.55c.13.14-.98,2.63-1.16,3.04-.49,1.14-2.41,4.49-2.55,5.33-.32,1.9.99,5.39.83,7.46l3.79-7.84.76-.79c-.85,3.68-2.95,6.95-4.31,10.45l.71,5.86,2.87-5.52c-.39,2.47-1.66,4.71-2.74,6.93l.83,8.18c1.56-1.98,1.82-5.02,3.59-6.96l-3.32,8.98c1.52,9.44,1.83,19.03,2.88,28.53.88,8.02,4.28,21.72,1.66,29.06-1.62,4.55-5.1,7.82-9.49,9.7-.66,5.29-2.33,9.98-8.63,9.36-3.81-.38-5.29-2.77-6.12-6.24l-5.27.72ZM31.92,153.77c-.22-1.72.75-4.48.43-6.06-.34-1.68-2.49-5.84-3.24-7.79-.49-1.26-1.02-2.55-1.26-3.9-.34-.06-.35.43-.41.67-.7,2.9-1.08,6.78-1.47,9.8-2.22,17.06-3.65,34.21-5.55,51.3-1.45,13-3.35,25.95-4.55,38.98l8.1-10.48.77-5.95-.47-.11-6.24,8.76c-.28.26-.6.18-.48-.24.19-.63,1.93-3.07,2.44-3.8,1.52-2.2,3.29-4.25,4.86-6.41l.85-6.95c-2.28,2.25-3.95,5.38-6.11,7.68-.26.28-1.33,1.56-1.32.6,2.32-3.24,4.67-6.49,7.55-9.24l3.48-31.52c-.65-1.32-5.34-10.06-4.79-10.69.49-.1.56.24.76.55,1.58,2.34,2.5,6.12,4.15,8.56-.11-1.84,1.01-5.07.47-6.7-.31-.94-1.49-2.69-1.99-3.76-.37-.79-3.14-6.28-2.91-6.56.38-.46.51.36.59.48,1.81,2.74,3.04,6.14,4.45,9.11l.74-4.92-5.3-12.23.48-.25c2.06,3.23,3.44,6.86,4.8,10.44l.97-7.31c-.96-3.94-3.74-8.32-4.7-12.11-.12-.49-.16-.94-.11-1.44l1.24,2,3.79,9.52ZM61.66,139.86h-1.44c-.23,5.55.58,11.13.25,16.68-.05.79-.17,2.29-.36,3-.58,2.14-6.08,4.91-7.67,6.72s-.5,4.93-1.59,6.09c-.54.57-3.15,1.39-1.6,2.12.91.43,4.8.77,6.06.9,20.92,2.2,47.12,2,68.1,0,.82-.08,5.97-.58,6.12-1.08.26-.92-1.82-1.38-2.23-2.1-.69-1.21-.25-2.76-.47-4.07-.4-2.37-4.85-4.65-6.66-6.29-2.29-2.08-2.24-2.63-2.41-5.75-.23-4.38.04-8.89.25-13.21.05-1-.03-2,0-3h-1.68c.65,1.55.03,3.37-.01,4.91-.1,3.65.19,7.42,0,11.05-.02.37.23.94-.36.84-.16-.06-.35-1.48-.37-1.79-.26-3.99-.14-9.16,0-13.21.02-.61.29-1.17.25-1.79-.7-.09-1.34.22-2.03.25-14.37.52-28.76-.02-43.19.24l-8.26-.49c-.39,5.24.62,10.77.25,15.96-.07.95-.63,2.73-.73.71-.27-5.55-.29-11.11-.24-16.67ZM87.08,208.34c.14-1.28-.1-2.77,0-4.08l.6-.37.71.5,5.68,11.11.53.36,41.44-19.52c-1.44-6.72-3.25-13.54-7.14-19.29-2.53.37-5.09.71-7.64.93-21.32,1.84-43.45,1.96-64.75,0-2.38-.22-4.78-.65-7.15-.97-4.15,5.98-5.52,13.24-7.36,20.16l42.33,19.43c.44-.03,2.66-7.41,2.76-8.27ZM136.72,199.11c-13.71,6.52-27.92,12-41.23,19.33-.07.31,2.24,5.55,2.45,5.78.75.84,4.4,2.88,5.66,3.82,11.32,8.45,21.17,20.21,24.01,34.39,14.34-17.52,13.32-42.28,9.11-63.32ZM83.48,218.78l-41.97-19.19c-4.15,20.79-5.07,45.27,8.99,62.6.57.11.29-.25.36-.59,2.85-13.33,12.91-25.85,23.66-33.91,1.44-1.08,6.13-3.73,6.9-4.61.25-.28,2.2-4.11,2.06-4.3ZM92.8,216.82c.16-.27-1.19-3.12-1.44-3.65-.75-1.57-1.89-3.93-2.8-5.36-.13-.21-.22-.53-.52-.55-.01,3.51-1.5,6.73-2.38,10.05l3.22,1.49,3.93-1.98ZM94.27,219.02l-2.63,1.32,4.07,2.52-1.44-3.84ZM83.72,221.66l2.39-1.32-1.67-.84-.72,2.16ZM109.86,268.91h-4.32c-.09,0,.08,1.07-1.27.67s-1.36-4.01-1.68-5.28c-.75-2.99-2.81-6.44-5.92-7.38.35.9,1.03,1.61,1.44,2.51,2,4.4-.06,7.14-3.96,3.48-2.73-2.56-4.42-4.99-8.66-5.49-7.61-.89-10.65,5.92-10.65,12.45h3.72c.14,0,1.03.64,1.08,0-1.25-.3-2.66-.12-3.72-.96l.25-.48c2.69.49,5.95,1.7,8.62,1.93,3.36.28,8.08.11,11.53,0,9.06-.29,18.16-1.4,27.03-3.12l1.97-2.61c-2.04-15.24-13.36-27.68-25.42-36.25-.29.09-.07.51,0,.72.85,2.61,1.81,4.98,2.03,7.8.5,6.31-2.31,13.29-8.87,14.99-.09-.42.22-.59.48-.84,1.02-.99,2.43-1.64,3.48-2.75,4.06-4.3,4.12-10.62,2.58-16.02-.32-1.12-1.48-4.53-2.11-5.32s-4.57-3.02-5.7-3.65c-.68-.38-2.26-1.44-2.9-1.4-.47.03-1.92.88-2.46,1.16-.9.47-4.92,2.77-5.36,3.34-1.09,1.38-3.47,6.69-3.95,8.46-1.81,6.7.81,13.2,7.31,15.83-.72-1.49-1.49-2.76-1.65-4.47-.45-4.96,2.12-5.71,3.94-9.19.66-1.27,1.32-4.79,1.91-5.53,1.43-1.8,2.04,4.35,2.15,4.8.89,3.85,1.42,2.84,3.24,5.39.96,1.35,1.12,3.18.96,4.79-.06.62-.36,2.55-1.2,2.16.41-1.59.65-3.33.13-4.92-.6-1.85-2.52-2.47-3.37-4.06-.95-1.77-.69-3.97-1.43-5.77-1.28,6-7.11,8.1-4.38,14.93.42,1.06,1.07,1.75,1.62,2.69-2.18,1.33-5.64-1.08-7.2-2.62-5.76-5.68-4.75-14.41-.47-20.64.05-.16-.21-.17-.35-.12-1.33.55-5.01,3.68-6.25,4.79-7.32,6.58-15.27,16.28-18.03,25.86-.31,1.07-1.39,5.25-1.17,6.05.04.16,1.66,2.12,1.84,2.26.71.57,8.9,1.6,10.45,1.78,2.58.31,5.18.46,7.76.75-.61-1.74.23-3.5.24-5.27-5.43.26-10.9.64-16.19,1.92-.52.13-.46-.43-.25-.73,1.06-1.54,14.3-2.65,16.69-2.5,1.9-5.85,7.8-9.67,13.89-7.8-.09-1.15.61-6.35,1.44-6.84.25-.14.78-.19,1.05-.13,1.08.25-.84,6.44-.29,7.53,2.3,1.49,4.72,2.89,6.32,5.19.17-1.79-4.14-5.21-1.79-6.58,1.3-.76,3.38,0,4.63.62,3.06,1.53,5.61,4.99,6.16,8.35,5.32.25,10.99.44,16.06,2.17-.1.42-.42.47-.8.47-2.96-.07-6.58-.93-9.63-1.19-1.71-.15-3.44-.27-5.16-.24l.51,3.56c.54.32,3.53-.19,4.04.75ZM22.57,235.33l-6.13,9.58-.58-.11,7.24-11.46.54-5.45-8.22,10.96c-1.13,11.76-2.91,23.41-3.65,35.21-.21,3.43-.65,4.68.12,8.28,2.74,12.75,14.7,18.96,26.6,21.11l10.45-7.32c-.23-.36-.46-.33-.83-.37-6.28-.74-13.34-1.29-19.16-3.86-8.41-3.72-11.39-12.59-9.99-21.31l-3.94,5.3c.01.33-.43.69-.62.45-.57-.7,4.3-6.67,4.93-7.66l1.06-7.93-6.37,9.1c-.44.56-.42.05-.3-.3.49-1.4,2.05-3.7,2.92-5,.79-1.18,3.53-4.32,3.86-5.26.6-1.68.33-4.42.85-6.23l-7.91,11.03c-.01-.26-.02-.53.05-.79.29-1.09,3.01-4.82,3.83-6s3.55-4.31,3.9-5.21c.43-1.12.66-5.49.61-6.83,0-.24.13-.81-.24-.48l-6.59,9.24c-.29-.55.35-1.45.65-1.99,1.52-2.73,6.21-7.9,6.64-10.39.24-1.39.39-3.55.5-5.01.02-.28.2-1.31-.23-1.31ZM155.67,262.91c0-.84.26-1.7-.83-1.69-2.06.02-7.06.95-8.84,1.98-3.19,1.84-3.33,6.69-5.69,9.42-3.84,4.46-16.79,2.88-22.39,3.51-1.51.17-3.39.69-5.06.94-.33.05-.73.09-.36.47,1.28.6,2.51.02,3.71,0,5.82-.11,16.66.52,21.85-1.18,6.54-2.14,4.91-9.9,9.7-12.12,2.25-1.04,5.46-1.18,7.91-1.32ZM65.98,277.07c-6.67-1.18-13.52-.61-20.27-.95-3.36-.17-6.74-.23-8.75-3.24-2.8-4.19-1.27-8.43-7.32-10.43-.94-.31-6.42-1.43-6.85-.83l-.21,1.54c3.77-.07,8.15.47,10.17,4.11.73,1.32.91,2.9,1.47,4.29,1.45,3.57,3.42,5.64,7.43,6,5.99.53,12.64.34,18.71.47,1.53.03,5.43,1.22,5.62-.95ZM155.9,264.6c-1.5.29-3.06.29-4.56.58-5.41,1.06-4.31,2.78-6.26,6.93-2.49,5.31-6.44,6.75-12.08,7.11l-18.58.24c.28.93.95,1.46,1.27,2.44s.39,2.03.44,3.04l18.05,1.49c.86-2.79,2.41-6.54,5.64-7.11,1.26-.22,3.78-.08,4.99.32,2.15.7,3.79,4.59,4.11,6.68.09.58-.19,2.37.39,2.49.34.07,2.67-1.56,3.11-1.93,6.56-5.51,4.64-14.87,3.47-22.29ZM63.58,280.18l-21.91-.75c-4.62-.6-7.39-2.58-9.14-6.93-1.2-2.98-.83-5.53-4.45-6.83-.85-.3-5.24-1.12-5.77-.74-1.28,7.06-2.66,15.07,2.53,21.01,5.66,6.48,19.37,6.34,27.25,8.03,3.02-2.1,6.43-3.4,9.93-4.43.38-2.36-.28-4.91.47-7.2.13-.39,1.21-2.04,1.08-2.16ZM50.87,267.95c-1.21,2.94,3.94,4.08,6.03,4.63,12.42,3.31,27.56,3.53,40.36,3.03,6.37-.25,24.76-1.25,29.51-5.03.93-.74,1.54-1.68.48-2.63-.99,1.03-2.13,1.26-3.43,1.6-18.51,4.8-44.1,4.14-62.96,1.23-3.3-.51-7.35-.77-9.99-2.84ZM110.1,277.55c-7.86.85-15.7,1.5-23.63,1.19-6.09.64-12.33-.17-18.33-1.19.3,1.61-.92,2.63-1.68,3.84,2.45.35,4.88.89,7.34,1.17,8.87,1.03,20.34,1.29,29.22.51,3.03-.27,6.01-.94,8.99-1.44-.53-1.44-2.19-2.34-1.92-4.08ZM144.55,297.85c2.56-2.37,3.05-13.38-.08-15.47-1.4-.93-1.9-.25-2.82.94-2.59,3.38-2.92,12.8,1.19,15.34.46.05,1.36-.49,1.71-.81ZM140.32,282.1c-2.72-.08-3.7,4.24-3.83,6.37-.06,1.07-.02.87.72,1.54h-.96c.56,1.44.13,5.09,1.07,6.01.21.21,1.38.86,1.22.23-1.22-4.62-1.4-10.27,1.79-14.15ZM113.46,284.98l-.24-2.64c-3.74,1.89-8.2,2.25-12.35,2.64-9.44.88-20.82.92-30.14-.79-2.02-.37-4.02-.89-5.95-1.6.26,2.68-.72,6.15-.24,8.75.14.78,1.46,1.02,2.16,1.08.36-.92-.89-8.13.36-8.15.44.29.34.63.37,1.06.17,2.31.14,4.84.22,7.17l7.82,1.5c6.49-4.59,17.98-5.22,25.06-1.71,2.92,1.45,1.83,1.77,5.59,1.29,2.56-.32,5.07-1.04,7.56-1.67l.03-1.18c-3.4.5-5.59-.83-4.63-4.51.82-3.14,2.17-1.21,4.39-1.24ZM134.08,288.58l-22.4-1.64c-.78.44-.65,1.48.22,1.64l22.18,1.44v-1.44ZM134.08,292.42l-12.23-.96,4.43,2.54c2.29-.68,4.84-.67,7.14-1.16.23-.05.72-.08.66-.41ZM62.58,292.45l-2.11.57-3.24,1.56c1.66.97,3.54,1.76,5.4,2.28,1.13.31,6.66,1.15,6.96,1.44.28.27.28.47.24.84-.36.09-.62.19-1.01.18-2.55-.06-7.12-1.23-9.47-2.29-.88-.4-2.65-1.72-3.19-1.86-.74-.2-4.72,2.43-5.65,3.02-2.94,1.85-5.97,4.02-8.72,6.15-3.34,2.58-10.15,7.44-10.57,11.73-.69,6.9,1.07,16.16-.3,22.73-.69,3.31-4.18,4.53-5.9,7.3-.41.67-1.71,3.22-1.27,3.8.62.81,4.66,2.62,5.79,3.1,23.67,10.12,59.09,9.95,84.52,8.28,4.42-.29,8.89-1.15,13.31-1.08-4.57,1.72-10.08,2.08-14.99,2.52-21.28,1.89-44.47,1.7-65.39-2.71-8.13-1.71-16.57-4.01-23.58-8.56-.65,2.55.39,3.77,2.4,5.03.21-.63-.11-1.33-.13-2.03,0-.27-.15-.91.25-.85l.36,3.12,2.76,1.44-.36-3.36c.73.9,1.2,2.5.85,3.58l2.63.97c.17-.17-.9-2.81.24-2.64l.87,3.14c10.59,3.63,21.67,5.65,32.83,6.69,18.35,1.71,36.86,1.16,55.13-1.23,9.18-1.2,22.07-3.68,30.13-8.24,2.58-1.46,4.28-2.47,3.47-5.88-2.84,2.25-6.29,3.9-9.65,5.22-3.94,1.54-8.32,2.91-12.54,3.17l.15-.98c7.59-2.27,15.26-4.63,21.93-8.99-.61-1.99-1.5-3.71-2.88-5.26-1.66-1.87-4.07-2.85-4.5-5.57-1.14-7.24.33-15.66-.29-22.97-.06-.72-.21-1.47-.51-2.12-1.05-2.25-6.81-6.8-8.97-8.54-4.72-3.79-9.73-7.27-15.11-10.08-3.71,2.9-8.66,3.87-13.3,3.83-.03-.39-.08-.55.25-.83.49-.41,4.02-.73,5.03-.97,2.36-.54,4.59-1.37,6.71-2.52l-4.94-2.16-.3.04c-2.08,3.05-7.42,3.21-10.83,3.57,1.85,3.88,1.72,9.3-.62,12.93-.26.41-.89.74-1.01,1.15-.28.95.08,2.65-.07,3.77-.72,5.27-10.67,7.1-14.96,6.85-3.42-.2-10.96-2.11-12.53-5.46-.86-1.83-.36-3.77-.83-5.4-.11-.4-1.71-1.76-2.15-2.64-.87-1.74-1.14-7.4-.55-9.28.16-.52.56-1.08.83-1.56-.02-.37-3.93-.76-4.6-.91-2.02-.44-5-1.02-5.99-3.01ZM86.55,292.97c-3.11.25-9.21,1.6-10.94,4.4-3.04,4.91,3.48,7.84,7.24,8.75,5.36,1.29,14.1,1.06,18.5-2.66,5.26-4.44.31-8.41-4.44-9.72-3.18-.88-7.06-1.04-10.36-.77ZM23.22,300.16l-3.04-1.75c.71,1.99,1.46,4,2.35,5.92.28.6,1.53,3.36,1.79,3.61.13.13,2.7,1.37,2.81,1.26l-3.91-9.04ZM153.93,307.95l3.65-9.3c-3.03,1.04-3.35,4.03-4.44,6.71-.38.93-1.31,2.46-1.55,3.25s2.22-.54,2.33-.66ZM26.34,301.83l-2.09-.9,4.3,8.83,1.45.4-3.66-8.33ZM147.51,310.4c.23.17,2.62-.75,2.89-1.06l3.58-8.53-2.41,1.13-4.06,8.47ZM31.2,310.4l.93-1.74c-1.48-2.1-1.38-6.04-4.52-6.17l3.59,7.91ZM150.39,302.49c-.1-.09-2.34.81-2.52.95-.27.21-2.44,3.74-2.58,4.16-.38,1.12,1.15,1.24,1.27,2.32l3.83-7.43ZM32.59,304.23c-.25-.29-1.41-.32-1.74-.78-.18-.04-.15.23-.11.35.39,1.22,1.34,2.84,1.89,4.11.1.23-.14.42.38.33l1.09-.84c-.63-.59-1.16-2.78-1.5-3.17ZM146.55,303.93l-4.65,1.2c-.71.28.31.57.45.71.63.58,1.28,1.12,1.92,1.68l2.28-3.59ZM36.48,305.61c.23-.34-2.76-1.09-3.12-1.19l1.32,2.39,1.8-1.2ZM77.49,308.49c.4-2.09-1.32-2.52-2.63-3.6.28,1.48,1.38,2.82,2.63,3.6ZM101.47,308.25c.52.56,2.42-2.72,2.15-3.36-1.47.76-2.13,1.66-2.15,3.36ZM100.51,307.05l-1.56.71-.35,1.92c1.79-.14,2.16-.94,1.92-2.63ZM80.85,309.92c-.5-1.6-.52-2.34-2.4-2.63.17,1.59.72,2.46,2.4,2.63ZM97.85,310.14l.02-2.14c-4.34,1.44-8.93,1.55-13.43.96l.71,2.04c4.26.73,8.56.22,12.69-.87ZM83.43,308.77l-2.11-.53.53,2.11,2.11.53-.53-2.11ZM100.99,311.6c-6.78,2.94-14.5,3.14-21.47.72-1.17-.4-1.99-1.55-1.79.35.23,2.18,1.58,2.79,3.37,3.59,5.05,2.28,11.79,2.48,16.83.06,2.4-1.15,3.02-1.96,3.07-4.73Z"/><path class="cls-1" d="M62.58,292.45c.99,1.99,3.96,2.57,5.99,3.01.67.15,4.58.54,4.6.91-.27.48-.67,1.05-.83,1.56-.58,1.88-.32,7.54.55,9.28.44.88,2.04,2.24,2.15,2.64.47,1.64-.02,3.57.83,5.4,1.57,3.35,9.11,5.26,12.53,5.46,4.3.25,14.25-1.59,14.96-6.85.15-1.11-.21-2.82.07-3.77.12-.41.75-.74,1.01-1.15,2.34-3.64,2.48-9.05.62-12.93,3.41-.36,8.75-.52,10.83-3.57l.3-.04,4.94,2.16c-2.12,1.16-4.36,1.98-6.71,2.52-1.01.23-4.54.55-5.03.97-.33.28-.27.44-.25.83,4.64.03,9.59-.93,13.3-3.83,5.38,2.81,10.38,6.29,15.11,10.08,2.16,1.73,7.93,6.29,8.97,8.54.3.65.45,1.41.51,2.12.63,7.31-.84,15.73.29,22.97.43,2.72,2.84,3.71,4.5,5.57,1.38,1.56,2.27,3.27,2.88,5.26-6.67,4.36-14.34,6.72-21.93,8.99l-.15.98c4.22-.27,8.6-1.63,12.54-3.17,3.36-1.32,6.81-2.97,9.65-5.22.81,3.41-.89,4.42-3.47,5.88-8.06,4.56-20.95,7.04-30.13,8.24-18.27,2.39-36.78,2.94-55.13,1.23-11.16-1.04-22.24-3.06-32.83-6.69l-.87-3.14c-1.14-.17-.07,2.46-.24,2.64l-2.63-.97c.35-1.08-.12-2.69-.85-3.58l.36,3.36-2.76-1.44-.36-3.12c-.4-.06-.26.58-.25.85.02.7.34,1.4.13,2.03-2.01-1.27-3.05-2.49-2.4-5.03,7,4.55,15.44,6.85,23.58,8.56,20.93,4.41,44.11,4.6,65.39,2.71,4.91-.44,10.42-.8,14.99-2.52-4.42-.07-8.89.79-13.31,1.08-25.43,1.67-60.85,1.84-84.52-8.28-1.13-.48-5.17-2.3-5.79-3.1-.45-.58.85-3.14,1.27-3.8,1.71-2.76,5.21-3.99,5.9-7.3,1.37-6.57-.39-15.83.3-22.73.43-4.29,7.24-9.15,10.57-11.73,2.75-2.13,5.79-4.29,8.72-6.15.92-.58,4.91-3.22,5.65-3.02.54.15,2.31,1.47,3.19,1.86,2.35,1.07,6.92,2.24,9.47,2.29.39,0,.65-.09,1.01-.18.04-.36.04-.57-.24-.84-.29-.29-5.83-1.12-6.96-1.44-1.86-.52-3.74-1.3-5.4-2.28l3.24-1.56,2.11-.57ZM54.7,299.13c-4.41,2.06-9.01,5.08-12.58,8.4-1.49,1.39-3.27,3.27-3.72,5.27,3.37-3.65,7.2-6.84,11.19-9.79,1.39-1.03,3.4-2.07,4.62-3.06.28-.23.58-.39.49-.82ZM50.39,306.57c-.97-.1-5.9,4.42-5.52,4.79l3.12-2.27,2.39-2.52ZM125.72,320.7c.3.49,4.28-.13,5.09-.26,2.71-.4,13.28-2.9,14.56-5.1.31-.53.46-1.44-.41-1.14-1.04.37-2.14,1.18-3.2,1.6-5.01,1.99-10.38,2.78-15.66,3.77-.49.15-.48.68-.38,1.13ZM115.62,321.68c-2.08-.3-4.25-.33-6.36-.25-23.86.82-48.41,2.07-71.52-5.2-1.07-.34-2.87-1.33-3.83-1.46-2.13-.29-.36,1.18.5,1.67,5.2,3.01,14.7,4.58,20.7,5.44,19.12,2.75,39.29,3.36,58.41.69l2.1-.89ZM35.04,341.47v-22.55s-.39-.43-.48-.36c-1.53,7.51-.14,15.2-.24,22.79l-3-1.17c-1.45,1.06,1.12,2.27,2.04,2.74,16.67,8.67,48.37,9.11,67.02,8.5,12.44-.41,31.6-2.3,42.9-7.46,1.47-.67,3.47-1.56,3.99-3.2-.06-.39-.35-.29-.64-.17-.92.38-1.83,1.01-2.9,1.42-23.92,9.12-59.15,8.84-84.32,5.54-6.92-.91-13.91-2.03-20.5-4.32-.35-5.12.34-10.61-.02-15.69-.02-.33-.04-1.44-.61-1.31-.63,5.55-.47,11.23.12,16.79l-3.36-1.56ZM143.67,318.56c-.35-.34-.43.02-.48.35-.3,2.38-.02,6.1,0,8.65.02,3.94-.21,8.82.32,12.64.04.28.07,1.04.53.9.44-7.5.7-15.11-.36-22.55ZM140.08,336.55c.3-.05.53-.44.61-.71.32-1.11.2-5.47.11-6.84-.03-.41-.28-2.76-.6-2.76-.44.29-.34.63-.37,1.06-.23,3.07.18,6.19.25,9.25Z"/><path class="cls-1" d="M132.88,135.79l-1.8.47c-22.33,1.53-45,1.74-67.38.95-2.71-.1-5.45-.04-8.16-.23-3.39-.24-6.81-.78-10.2-1.08,1.73-1.22,4.31-2.31,5.77-3.83,3.62-3.77,1.11-13.42,2.7-18.41.34-1.07,1.24-2.06,1.38-3.18.51-4.17-.34-9.38-.01-13.69.23-2.99,1.11-2.84,3.76-3.2,9.74-1.32,21.54-1,31.38-.98,9.28.02,20.42-.38,29.48.98,2.28.34,3.06.16,3.28,2.72.37,4.41-.5,9.6,0,13.92.2,1.81,1.66,3.16,1.89,5.31.45,4.26-.18,9.23.57,13.35.59,3.25,4.77,5.42,7.38,6.9ZM61.18,107.48c.06-2.52-.07-5.05,0-7.57.03-1.25.76-3.04-.11-4.18-1.06,0-.81,10.59-.6,11.75h.72ZM121.37,112.28l-.11-.97c-3.11-.67-6.42-.36-9.62-.45-12.93-.4-25.9-.2-38.83,0-4.72.07-10.8-.53-15.3.3-1.23.22-.76.65.21.86,5.5,1.2,13.47.28,19.15.26,12.55-.04,25.11.16,37.65.26,2.31.02,4.55-.18,6.85-.25ZM58.3,128.59l.37-12.94-.49-.49c-.71-.02-.68,11.12-.61,12.13.03.47.03,1.5.73,1.31ZM62.14,125.83c.19-2.48,0-5.38,0-7.92,0-.14-.56-.5-.72-.36-.46,3.47-.3,7.08,0,10.55.83.2.4-1.01.47-1.57.04-.31.24-.6.25-.71ZM124.01,129.31c-2.88.48-5.91.25-8.75.48-1.43.11-2.9.66-4.31.73-2.75.14-6.33-.25-9.35-.24-14.52.05-28.95-.38-43.43-.72-.6-.01-4.14-.71-4.18.11.31.57.49.83,1.13,1.02,1.93.57,6.38.68,8.56.79,15.39.74,31.16.36,46.52-.26,4.2-.17,8.34.48,12.66-.53.82-.19,1.36-.45,1.14-1.38Z"/><path class="cls-1" d="M87.08,208.34c-.1.86-2.32,8.24-2.76,8.27l-42.33-19.43c1.84-6.92,3.2-14.18,7.36-20.16,2.37.33,4.77.75,7.15.97,21.3,1.96,43.43,1.84,64.75,0,2.55-.22,5.11-.57,7.64-.93,3.89,5.75,5.7,12.56,7.14,19.29l-41.44,19.52-.53-.36-5.68-11.11-.71-.5-.6.37c-.1,1.31.14,2.8,0,4.08ZM52.79,182.56c-.49-.1-.56.25-.76.55-.45.66-1.02,2.18-1.34,2.98-1.06,2.71-1.73,5.59-2.21,8.46.53.09.56-.23.71-.6,1.42-3.53,2.35-7.75,3.6-11.39ZM128.33,189.75c-.46-.02-.49-.11-.48.36,0,1.03,1.05,4.68,1.5,5.7.15.34.24.8.66.9-.03-2.41-1.07-4.66-1.68-6.96Z"/><path class="cls-1" d="M109.86,268.91c-.51-.94-3.51-.43-4.04-.75l-.51-3.56c1.72-.03,3.45.09,5.16.24,3.05.26,6.66,1.12,9.63,1.19.38,0,.7-.04.8-.47-5.06-1.73-10.73-1.92-16.06-2.17-.55-3.36-3.1-6.83-6.16-8.35-1.25-.62-3.33-1.38-4.63-.62-2.36,1.37,1.96,4.79,1.79,6.58-1.6-2.3-4.01-3.71-6.32-5.19-.55-1.09,1.36-7.28.29-7.53-.27-.06-.8-.01-1.05.13-.82.49-1.53,5.69-1.44,6.84-6.1-1.86-12,1.95-13.89,7.8-2.39-.14-15.63.97-16.69,2.5-.21.3-.28.86.25.73,5.29-1.28,10.76-1.66,16.19-1.92,0,1.77-.85,3.53-.24,5.27-2.58-.29-5.19-.44-7.76-.75-1.55-.19-9.74-1.22-10.45-1.78-.18-.14-1.79-2.1-1.84-2.26-.22-.81.86-4.99,1.17-6.05,2.76-9.58,10.71-19.28,18.03-25.86,1.23-1.11,4.91-4.23,6.25-4.79.14-.06.41-.04.35.12-4.28,6.22-5.29,14.96.47,20.64,1.57,1.55,5.02,3.95,7.2,2.62-.55-.94-1.2-1.64-1.62-2.69-2.74-6.83,3.1-8.93,4.38-14.93.74,1.8.48,4,1.43,5.77.86,1.6,2.77,2.21,3.37,4.06.52,1.59.28,3.33-.13,4.92.84.39,1.14-1.54,1.2-2.16.16-1.62,0-3.45-.96-4.79-1.83-2.55-2.35-1.54-3.24-5.39-.11-.45-.72-6.6-2.15-4.8-.58.74-1.25,4.26-1.91,5.53-1.82,3.49-4.39,4.24-3.94,9.19.15,1.71.93,2.98,1.65,4.47-6.51-2.63-9.13-9.14-7.31-15.83.48-1.77,2.86-7.08,3.95-8.46.44-.56,4.46-2.87,5.36-3.34.53-.28,1.99-1.13,2.46-1.16.64-.04,2.22,1.02,2.9,1.4,1.14.63,5.06,2.84,5.7,3.65s1.79,4.2,2.11,5.32c1.54,5.4,1.48,11.72-2.58,16.02-1.05,1.11-2.47,1.76-3.48,2.75-.26.25-.56.42-.48.84,6.56-1.69,9.37-8.68,8.87-14.99-.22-2.82-1.18-5.19-2.03-7.8-.07-.21-.29-.62,0-.72,12.06,8.57,23.38,21.02,25.42,36.25l-1.97,2.61c-8.87,1.72-17.97,2.84-27.03,3.12-3.45.11-8.17.28-11.53,0-2.67-.23-5.93-1.44-8.62-1.93l-.25.48c1.06.84,2.47.67,3.72.96-.05.63-.94,0-1.08,0h-3.72c0-6.53,3.03-13.34,10.65-12.45,4.24.5,5.93,2.93,8.66,5.49,3.9,3.66,5.96.92,3.96-3.48-.41-.91-1.09-1.62-1.44-2.51,3.12.94,5.18,4.39,5.92,7.38.32,1.27.36,4.9,1.68,5.28s1.18-.67,1.27-.67h4.32Z"/><path class="cls-1" d="M61.66,139.86c-.05,5.57-.03,11.12.24,16.67.1,2.02.66.24.73-.71.37-5.19-.64-10.72-.25-15.96l8.26.49c14.43-.26,28.82.28,43.19-.24.68-.02,1.33-.34,2.03-.25.05.62-.23,1.18-.25,1.79-.14,4.05-.26,9.22,0,13.21.02.31.21,1.73.37,1.79.58.1.34-.47.36-.84.18-3.63-.11-7.4,0-11.05.04-1.54.66-3.36.01-4.9h1.68c-.03.99.04,2,0,2.99-.21,4.31-.48,8.83-.25,13.21.16,3.12.11,3.67,2.41,5.75,1.81,1.64,6.27,3.92,6.66,6.29.22,1.31-.22,2.86.47,4.07.41.73,2.48,1.19,2.23,2.1-.14.5-5.29,1-6.12,1.08-20.98,2-47.18,2.2-68.1,0-1.26-.13-5.14-.47-6.06-.9-1.54-.73,1.06-1.54,1.6-2.12,1.09-1.16,0-4.28,1.59-6.09s7.09-4.58,7.67-6.72c.19-.71.32-2.2.36-3,.32-5.55-.49-11.13-.25-16.68h1.44ZM65.91,145.2c-3.22.66-2.86,8.62,1.37,7.85,3.05-.56,2.87-8.71-1.37-7.85ZM113.38,145.7c-.64-.61-1.54-.71-2.39-.51-2.96.68-3.12,9.19,1.52,7.75,2.16-.67,2.45-5.73.86-7.24ZM87.73,145.91c-1.2.27-2.25,2.01-2.34,3.18-.46,5.77,7.07,5.88,7.43.7.2-2.91-2.39-4.49-5.09-3.87ZM116.58,159.29c-3.84-.43-7.37,1.16-11.15.96-10.74-.59-21.59.19-32.39-.23-3.3-.13-7.71-1.09-10.78-.99-.44.01-.79-.03-1.07.38.75.91,2.18,1.06,3.3,1.25,8.39,1.44,17.15,1.12,25.58,1.02,7.52-.09,15.08-.1,22.55-.71.37-.03,5-.67,3.96-1.67ZM102.91,168.17c-8.58-.65-17.17.25-25.79,0-3.22-.09-6.58-.29-9.82-.49-3.92-.25-8.43-1.15-12.26-1.17-1.3,0-2.77.83-.83,1.31,1.18.29,2.95.43,4.21.58,12.63,1.53,29.58,2.07,42.17.69.26-.03,3.01-.37,2.31-.93ZM121.32,167.04c-3.61.14-9.37.28-12.77.9-.43.08-.81.23-1.09.58,1.16.94,2.56.39,3.71.36,3.1-.08,6.52-.17,9.59-.48.52-.05,3.72-.4,3.71-.84-.7-.98-2.11-.57-3.16-.53ZM52.46,171.8c-.17.05-.27.21-.39.33,0,.66,4.88,1.24,5.63,1.32,11.8,1.24,24.32.91,36.2.97,9.23.05,19.14-.23,28.31-1.21.6-.06,3.61-.38,3.72-.84.2-.88-3.09-.63-3.73-.61-4.92.18-10.12.94-15.09,1.22-11.02.61-21.61.78-32.63.24-6.27-.31-12.74-1.2-18.94-1.45-.71-.03-2.53-.14-3.08.03Z"/><path class="cls-1" d="M158.54,110.6c-.24.92.26,2.46.18,3.21-.13,1.1-1.34,1.4-1.14,3.88.42,5.14,8.44,4.59,7.69-1.46-.13-1.02-.83-1.48-.95-2.16-.15-.82.08-1.89,0-2.75.35-.4,2.28,2.05,2.5,2.42,2.49,4.21.3,8.23-2.73,11.38-1.07,1.12-2.86,2.07-3.61,3.46l-.71-.72c-.15,1.33-.31,2.62-.25,3.97.27,6.09,1.9,13.24,2.62,19.45,3.8,32.9,6.92,65.88,10.58,98.79.94,8.42,2.77,17.22,3.13,25.66.45,10.7-3.16,20.24-12,26.51.62-2.47,1.55-4.9,2.08-7.39.05-.24.68-2.58-.05-2.21l-3.38,10.54-3.46,2.17c.67-2.77,2.17-5.76,2.58-8.58.05-.34.3-.88-.3-.78l-3.61,10.06-2.38,1.21,3.13-9.1c13.54-9.91,10.05-24.62,8.47-38.96-1.89-17.13-4.5-34.23-6.44-51.36-2.43-21.47-3.79-43.06-6.75-64.49-1.2-8.66-1.68-16.62-7.76-23.42-4.11-4.6-10.07-7.12-16.21-7.54l-.47-8.16c4.31.17,9.04,1.45,12.96,3.34,2.09,1.01,5.78,3.8,7.84,4.15,2.9.49,5.67-.62,8.45-1.14ZM158.54,123.79c-.8-2.59-2.17-5.59-4.11-7.52-.21-.21-.62-.7-.92-.4-.33.33,1.58,2.79,1.87,3.28.68,1.16,1.54,3.33,2.24,4.24.31.4.39.47.93.39ZM173.89,275.87c-.6-.04-.41-.06-.47.36-.53,3.55-1.1,7.06-1.93,10.55.24.38.3-.18.37-.34.41-.9.97-2.15,1.24-3.08.22-.78.79-3.09.79-3.77v-3.72ZM170.05,290.02c-.65-.18-.77.96-.89,1.39-.49,1.8-.82,3.95-.79,5.81.35.06.32-.42.41-.67.65-2,1.17-4.42,1.27-6.53Z"/><path class="cls-1" d="M49.19,104.13l-.49,8.14c-6.36.67-12.24,2.98-16.54,7.8-6.03,6.75-6.49,14.76-7.63,23.31-4.56,34.21-7.08,68.67-11.55,102.87-.85,15.78-8.81,35.6,3.35,48.7.59.64,3.08,2.62,3.24,3,.22.51.05,1.04.18,1.5.79,2.67,1.93,5.31,3.3,7.73.12.37-2.22-.7-2.41-1.01l-4.67-10.86c-.84,1.59,3.58,9.66,3.24,10.07l-3.53-2.23-3.43-10.97c-.85-.92-.12,2.14-.08,2.36.57,2.55,1.53,5.28,2.48,7.71l-4.08-3.48.46-.22-3.34-10.21c-.42-.06-.23.54-.18.78.59,2.73,2.47,6.51,2.83,8.93.02.14.06.39-.12.36-5.54-5.62-8.05-13.89-7.8-21.72.28-8.64,2.17-17.54,3.13-26.14,4.41-39.83,7.99-79.76,13.44-119.46-.36-.57-.6-2.38-.78-2.7-.24-.42-3.15-2.62-3.79-3.29-.9-.95-2.33-2.66-2.91-3.8-1.86-3.65-1.06-7.79,2.44-10-.24.76.27,2.16.17,2.72s-1.05,1.47-1.14,2.68c-.45,6.19,9.17,5.87,7.81-.62-.18-.87-.96-1.65-1.08-2.28-.09-.51-.16-3.1.34-3.19,3.51,1,6.72,1.89,10.21.33,2.51-1.12,4.91-2.91,7.5-4.01,3.63-1.53,7.54-2.27,11.43-2.83ZM24.73,116.12c-.33-.04-.64.11-.88.32-1.23,1.05-3.99,5.78-4.29,7.34-.09.47-.22.64.26.97l4.91-8.63ZM20.89,135.31c-.29-.38-.44,0-.48.35-.24,2.05-.26,4.16-.51,6.21-1.19,9.87-2.96,19.69-3.33,29.65.63.05.4.03.47-.36.09-.46.14-.99.21-1.47,1.11-7.36,2.11-15.38,2.88-22.78.4-3.86.66-7.72.75-11.6Z"/><path class="cls-1" d="M136.72,199.11c4.21,21.05,5.23,45.8-9.11,63.32-2.84-14.19-12.69-25.95-24.01-34.39-1.26-.94-4.91-2.98-5.66-3.82-.21-.23-2.52-5.47-2.45-5.78,13.31-7.34,27.52-12.81,41.23-19.33ZM131.2,241.32c.69-1.83,1.07-3.74,1.4-5.67,1.4-8.09,1.55-16.98.24-25.11-.11-.67-.09-1.57-.56-2.08-.58-.11-.34.46-.36.83-.26,5.55,1.24,11.71.97,17.52-.21,4.54-1.56,9.05-1.92,13.43-.02.26-.19,1.12.23,1.07ZM127.13,252.84c.77.79,2.41-4.13,2.48-4.6.25-1.72-.7-.73-1.16.29-.22.49-1.48,4.15-1.32,4.31Z"/><path class="cls-1" d="M83.48,218.78c.15.19-1.81,4.01-2.06,4.3-.77.89-5.46,3.54-6.9,4.61-10.74,8.06-20.8,20.58-23.66,33.91-.07.33.2.69-.36.59-14.06-17.33-13.15-41.82-8.99-62.6l41.97,19.19ZM45.83,209.9c-.52-.65-.84,1.63-.89,1.87-1.78,9.24-1.68,26.57,3.17,34.84.18.31-.04.6.6.47-.59-2.65-1.48-5.21-2.08-7.87-1.35-5.96-2.03-12.28-1.76-18.4.16-3.64.99-7.26.97-10.9Z"/><path class="cls-1" d="M129.05,295.78l5.27-.72c.83,3.47,2.31,5.86,6.12,6.24,6.3.63,7.96-4.06,8.63-9.36,4.39-1.88,7.86-5.15,9.49-9.7,2.62-7.34-.78-21.04-1.66-29.06-1.05-9.5-1.35-19.08-2.88-28.53l3.32-8.98c-1.77,1.93-2.03,4.98-3.59,6.96l-.83-8.18c1.09-2.21,2.35-4.46,2.74-6.93l-2.87,5.52-.71-5.86c1.36-3.5,3.46-6.77,4.31-10.45l-.76.79-3.79,7.84c.16-2.08-1.15-5.56-.83-7.46.14-.84,2.06-4.18,2.55-5.33.17-.41,1.28-2.9,1.16-3.04l-.76.55-3.07,6.4-.89-7.61c.41-1.37,5.13-10.4,4.72-10.86-.49-.1-.56.24-.76.55-1.52,2.25-2.73,5.79-3.79,8.32-.36.04-.42-.61-.45-.86-.2-1.33-.51-3.72-.52-5.02-.01-1.15,2.53-5.68,3.18-7.15.25-.57,1.83-4,1.64-4.24-.33-.41-1.01,1.07-1.08,1.19-1.36,2.44-2.44,5.4-3.72,7.92l-.73-3.97c1.3-4.11,4.11-7.81,5.04-12.1l-.76.79-4.39,9.28-.53-4.88c1.87-3.63,3.98-7.48,4.97-11.43-.37.1-.57.49-.76.79-1.4,2.2-2.72,6.96-4.15,8.8-.09.11-.3.32-.36.24l-.12-4.8,5.16-11.51-.77.54-4.74,9.53-.68-6.05c.97-3.4,3.77-7.22,4.64-10.49.11-.41.16-.78.11-1.2-2.13,2.94-3.46,6.47-4.8,9.83l-.72-5.17.48-2.15,4.32-11.15c2.24,13.87,3.71,27.88,5.28,41.86,2.92,26.05,5.72,52.11,8.67,78.16.87,7.7,2.22,15.29,2.62,23.05.8,15.55-13.6,24.49-27.22,26.76l-10.68-7.68Z"/><path class="cls-1" d="M22.57,235.33c.43,0,.26,1.03.23,1.31-.11,1.46-.26,3.62-.5,5.01-.43,2.49-5.12,7.66-6.64,10.39-.3.54-.94,1.44-.65,1.99l6.59-9.24c.37-.33.23.24.24.48.05,1.34-.18,5.71-.61,6.83-.35.91-3.1,4.05-3.9,5.21s-3.54,4.91-3.83,6c-.07.26-.06.53-.05.79l7.91-11.03c-.52,1.8-.25,4.54-.85,6.23-.33.93-3.07,4.07-3.86,5.26-.87,1.31-2.43,3.6-2.92,5-.12.35-.14.86.3.3l6.37-9.1-1.06,7.93c-.63.99-5.5,6.95-4.93,7.66.19.23.63-.12.62-.45l3.94-5.3c-1.4,8.72,1.57,17.59,9.99,21.31,5.82,2.58,12.88,3.12,19.16,3.86.36.04.59,0,.83.37l-10.45,7.32c-11.9-2.14-23.86-8.35-26.6-21.11-.77-3.6-.33-4.85-.12-8.28.74-11.79,2.52-23.44,3.65-35.21l8.22-10.96-.54,5.45-7.24,11.46.58.11,6.13-9.58Z"/><path class="cls-1" d="M31.92,153.77l-3.79-9.52-1.24-2c-.05.5,0,.95.11,1.44.96,3.79,3.73,8.17,4.7,12.11l-.97,7.31c-1.36-3.57-2.74-7.2-4.8-10.44l-.48.25,5.3,12.23-.74,4.92c-1.4-2.97-2.63-6.37-4.45-9.11-.08-.12-.21-.94-.59-.48-.23.28,2.54,5.77,2.91,6.56.5,1.08,1.68,2.82,1.99,3.76.55,1.63-.57,4.86-.47,6.7-1.65-2.44-2.58-6.22-4.15-8.56-.21-.31-.27-.65-.76-.55-.54.63,4.14,9.37,4.79,10.69l-3.48,31.52c-2.88,2.75-5.23,6.01-7.55,9.24-.01.96,1.06-.32,1.32-.6,2.16-2.3,3.83-5.43,6.11-7.68l-.85,6.95c-1.57,2.16-3.34,4.21-4.86,6.41-.5.73-2.25,3.16-2.44,3.8-.12.42.2.5.48.24l6.24-8.76.47.11-.77,5.95-8.1,10.48c1.2-13.03,3.1-25.98,4.55-38.98,1.9-17.08,3.33-34.24,5.55-51.3.39-3.02.77-6.91,1.47-9.8.06-.24.07-.72.41-.67.24,1.34.77,2.63,1.26,3.9.76,1.96,2.9,6.11,3.24,7.79.32,1.58-.65,4.34-.43,6.06ZM27.12,187.6c-.51-2.2-1.8-5.48-3.07-7.36-.21-.31-.27-.65-.76-.55-.22.25,2.33,5.39,2.67,6.08.29.6.58,1.47,1.16,1.83Z"/><path class="cls-1" d="M162.14,103.16c-.83-.21-1.58-.45-2.39,0-.25-2.41-.53-4.83-1.08-7.2-1.98-8.53-7.9-15.33-11.27-23.27-5.49-12.96-5.4-27.4-12.23-39.81-5.21-9.47-12.77-15.13-22.78-18.95-3.94-1.5-12.51-3.09-15.35-5.28-2.61-2.01-3.94-4.57-7.92-4.57-4.51,0-6.01,3.97-9.55,5.58-3.97,1.81-9.21,2.65-13.48,4.27-7.83,2.97-14.72,7.28-19.74,14.08-10.08,13.68-9.1,30.09-15.52,45.16-2.9,6.81-7.86,12.72-10.25,19.73-1.11,3.27-1.81,6.81-1.86,10.26l-2.64-.12c.49-2.87.95-5.76,1.75-8.56,2.62-9.18,8.86-16.4,12.17-25.25,2.98-7.97,3.89-16.51,6.3-24.64,4.96-16.75,13.57-27,30.26-32.81,3.71-1.29,8.26-2,11.72-3.63,5.01-2.35,4.74-6.68,12.27-5.97,4.61.43,6.4,4.91,10.95,6.55,8.89,3.22,15.24,3.89,23.42,9.67,18.7,13.22,16.29,31.75,23.35,50.52,4.34,11.54,13.57,21.19,13.85,34.24Z"/><path class="cls-1" d="M120.41,71.27c-.07.42-1.25.27-1.57.25-4.05-.26-9.22-.85-13.19-.5-.59.05-1.51.1-1.79.73l7.56.47c3.77.24,10.4.4,13.84,1.27.55.14,1.51.45,1.62,1.02.63,3.1-4.16,1.41-5.87,1.31-20.08-1.2-41.58-.94-61.65,0-1.3.06-6.73.84-7.45.27-1.06-2.28-.07-2.49,1.95-2.66,3.44-.28,7.32-.36,10.78-.49,10.02-.38,20.11.11,30.11-.95-.17-.44-1.2-.57-1.62-.65-3.25-.64-6.52-.3-9.76-.3-8.71,0-17.35.1-26.03.71l7.37-3.3c14.67-5.55,32.64-5.87,47.43-.54,2.8,1.01,5.44,2.44,8.27,3.37ZM78.93,65.75c-3.2.65-7.2,1.44-10.08,2.99-.34.18-.59-.02-.47.6,3.12-.83,6.34-1.61,9.35-2.76.44-.17,1.37-.19,1.2-.84Z"/><path class="cls-1" d="M113.46,284.98c-2.22.03-3.57-1.9-4.39,1.24-.96,3.69,1.23,5.01,4.63,4.51l-.03,1.18c-2.49.63-5,1.35-7.56,1.67-3.76.47-2.68.16-5.59-1.29-7.08-3.52-18.56-2.88-25.06,1.71l-7.82-1.5c-.07-2.33-.05-4.86-.22-7.17-.03-.43.07-.78-.37-1.06-1.25.02,0,7.23-.36,8.15-.7-.06-2.01-.3-2.16-1.08-.48-2.6.5-6.07.24-8.75,1.93.71,3.93,1.23,5.95,1.6,9.32,1.72,20.7,1.68,30.14.79,4.15-.39,8.61-.75,12.35-2.64l.24,2.64ZM68.85,287.02c-.2.71,0,3.55,0,4.56,0,.15.24,1.38.72,1.08.24-1.99.45-4.02,0-6-.26-.08-.66.16-.72.36Z"/><path class="cls-1" d="M86.55,292.97c3.29-.27,7.18-.11,10.36.77,4.76,1.31,9.7,5.28,4.44,9.72-4.41,3.72-13.14,3.96-18.5,2.66-3.77-.91-10.29-3.83-7.24-8.75,1.73-2.8,7.84-4.15,10.94-4.4ZM99.31,298.41c-.58-2.86-4.3-4.21-6.95-4.08-.11.62.11.43.48.59,2.29,1.03,4.71,1.3,6.48,3.49ZM86.6,294.82c-3.07-.47-9.44,1.85-8.53,5.77.71,3.05,7.73,4.72,10.45,3.82-.07-.4-.47-.43-.77-.54-2-.76-8.3-1.27-8.73-4-.26-1.67,2.82-3.13,4.06-3.65,1.16-.48,2.66-.57,3.52-1.39ZM94.04,303.93c2.75.08,6.18-1.33,5.99-4.56-.8,1.05-1.3,1.74-2.47,2.45-.36.22-4.15,1.57-3.52,2.11Z"/><path class="cls-1" d="M94.99,77.98c-.04.39-.54.33-.84.72-.93,1.22-.79,5.02-.16,6.4.68,1.5,1.77,2.11,3.34,2.42,2.55.49,9.96.35,12.65.06,4.57-.49,5.19-5.81,3.24-9.11l3.12.24v7.8c0,.5-.5,2.57-.71,3.13-.11.28-.27.94-.59.99l-5.76-.41c-9.93-.27-19.82-.16-29.74.02-5.43.1-10.87-.12-16.28.49-1.91-3.71-.72-8.03-1.36-12.01l3.12-.24c-2.03,3.24-1.15,8.64,3.24,9.11,2.52.27,7.54.39,10.08.25,2.99-.17,5.94-.66,6.35-4.21.14-1.28.14-3.8-.71-4.8-.48-.56-.93-.39-1.21-.83h12.23ZM88.52,79.3c-.29,1.96,0,5.3,0,7.44,0,.13.52.5.72.36.51-1.07.4-8.01,0-8.39-.32-.31-.69.42-.72.6Z"/><path class="cls-1" d="M50.87,267.95c2.64,2.07,6.69,2.33,9.99,2.84,18.86,2.9,44.44,3.56,62.96-1.23,1.31-.34,2.45-.57,3.43-1.6,1.06.95.45,1.9-.48,2.63-4.75,3.78-23.14,4.78-29.51,5.03-12.79.5-27.93.28-40.36-3.03-2.09-.56-7.24-1.7-6.03-4.63Z"/><path class="cls-1" d="M110.1,277.55c-.28,1.73,1.39,2.64,1.92,4.08-2.99.5-5.97,1.17-8.99,1.44-8.89.78-20.36.53-29.22-.51-2.46-.29-4.89-.82-7.34-1.17.76-1.21,1.98-2.23,1.68-3.84,6,1.02,12.25,1.83,18.33,1.19,7.93.31,15.77-.34,23.63-1.19ZM108.9,278.27c-3.12,1.15-6.64,1.52-9.95,1.92-1.6.19-4.26-.23-5.39.96,3.69.02,7.69-.13,11.33-.78,1.31-.24,3.68-.6,4.02-2.09ZM89.24,280.66c-6.8-.59-13.66-.67-20.38-1.92-.06.53-.06.64.4.91.67.4,3.6.89,4.51,1,3.27.4,7.73.7,11.02.73,1.28.01,2.82-.1,4.09-.25.44-.05.39.07.36-.48ZM87.32,282.34l-11.99-1.2c.17.44,1.2.57,1.62.65,2.74.54,5.56.41,8.32.8l2.05-.25Z"/><path class="cls-1" d="M98.83,60.23c-1.79-.43.18-3.28.59-4.57,1.63-5.04,3.86-13.53,1.75-18.52-3.41-8.06-21.44-7.8-24.35.71-1.59,4.64.65,13.61,2.24,18.29.29.85,1.33,2.58,1.44,3.11.07.3-.31.94-.49,1.22-1.81-2.03-2.62-5.28-3.36-7.91-1.02-3.65-2.4-9.32-2.01-13.04,1.37-13.02,27.79-13,28.98-.03.6,6.46-2.34,14.83-4.8,20.74Z"/><path class="cls-1" d="M65.98,277.07c-.2,2.16-4.09.98-5.62.95-6.07-.13-12.72.06-18.71-.47-4.01-.36-5.98-2.43-7.43-6-.56-1.38-.74-2.97-1.47-4.29-2.02-3.63-6.39-4.18-10.17-4.11l.21-1.54c.42-.6,5.9.52,6.85.83,6.05,2,4.53,6.23,7.32,10.43,2.01,3.01,5.39,3.07,8.75,3.24,6.76.34,13.6-.23,20.27.95Z"/><path class="cls-1" d="M155.67,262.91c-2.45.14-5.66.28-7.91,1.32-4.8,2.22-3.16,9.98-9.7,12.12-5.18,1.7-16.03,1.07-21.85,1.18-1.2.02-2.43.61-3.71,0-.36-.38.03-.42.36-.47,1.67-.25,3.55-.77,5.06-.94,5.6-.63,18.55.95,22.39-3.51,2.36-2.73,2.5-7.58,5.69-9.42,1.77-1.03,6.78-1.95,8.84-1.98,1.09-.01.82.85.83,1.69Z"/><path class="cls-1" d="M144.55,297.85c-.35.32-1.24.86-1.71.81-4.11-2.54-3.78-11.96-1.19-15.34.92-1.19,1.42-1.87,2.82-.94,3.12,2.08,2.63,13.1.08,15.47ZM142.96,285.7c0,1.19.78,2.03.93,3.26.24,1.99.07,4.67-1.89,5.73,2.59,1.74,3.37-2.51,3.37-4.32,0-1.55-.5-4.58-2.42-4.68Z"/><path class="cls-1" d="M102.14,79.97c2.09-.03,4.57.02,6.65.16,1.34.09,2.9-.02,3,1.57.14,2.29-.82,3.25-3.02,3.47-2.46.25-7.61.24-10.08.01-2.72-.26-3.04-2.17-2.65-4.58.28-.39,5.24-.62,6.08-.63Z"/><path class="cls-1" d="M66.75,80.67c.24-.24,2.41-.51,2.93-.55,2.84-.18,7.02-.19,9.85,0,.74.05,2.61.11,2.75.85.39,2.11-.25,3.87-2.54,4.18s-8.29.26-10.5,0c-.83-.1-2.01-.4-2.36-1.23-.27-.62-.62-2.75-.12-3.24Z"/><path class="cls-1" d="M100.99,311.6c-.05,2.77-.67,3.58-3.07,4.73-5.04,2.42-11.78,2.22-16.83-.06-1.78-.81-3.14-1.41-3.37-3.59-.2-1.9.63-.76,1.79-.35,6.96,2.41,14.69,2.21,21.47-.72ZM91.4,316.4c-3.01.02-6.14-.47-9-1.43-1.26-.42-2.4-1.23-3.71-1.45,2.08,2.6,9.16,4.21,12.15,3.39.41-.11.67.17.55-.51Z"/><path class="cls-1" d="M150.09,133.33c-.03.07-.36.08-.42.22l-4.32,10.86-.46-4.17,3.58-12.37-.73.58-3.34,9.73-.7-3.93,2.09-10.31-.43-.38c-1.03,2.65-1.29,5.52-1.92,8.28-.09.37.16.42-.47.36l-.73-2.27.97-9.48c2.78,2.56,5.2,6.24,6.3,9.89.17.56.8,2.62.6,3.01Z"/><path class="cls-1" d="M92.8,216.82l-3.93,1.98-3.22-1.49c.88-3.32,2.37-6.54,2.38-10.05.3.02.39.34.52.55.9,1.43,2.05,3.79,2.8,5.36.25.53,1.6,3.37,1.44,3.65Z"/><path class="cls-1" d="M134.08,288.58v1.44s-22.18-1.44-22.18-1.44c-.87-.16-.99-1.2-.22-1.64l22.4,1.64Z"/><path class="cls-1" d="M31.92,124.75c.05.79.21,1.59.4,2.36.45,1.77,2.1,6.44,2.12,7.84s-1,3.62-.85,5.16l-4.07-11.17c-.04-.54,1.44-3.37,1.85-3.88.15-.2,0-.44.55-.3Z"/><polygon class="cls-1" points="32.64 146.34 27.85 134.93 29.05 129.55 33.06 141.48 32.64 146.34"/><path class="cls-1" d="M95.95,61.91h-13.43c-.07-1.02-.02-2.04,1.13-2.34,2.11-.55,8.75-.48,10.93,0,1.13.25,1.28,1.35,1.37,2.35Z"/><path class="cls-1" d="M52.55,102.21c-.4,2.86.58,6.25.25,9-.12,1.01-.83,1.77-1.14,2.7-.97,2.96-.57,6.35-.9,9.41l-1.11-1.32c.93-4.96,1.31-10.31,1-15.36-.05-.78-.54-1.84-.49-2.39.06-.63,2.23-2.24,2.4-2.04Z"/><path class="cls-1" d="M128.5,122.29l-.89.78c-.23-2.69-.02-6.59-.84-9.11-.32-.97-1.14-1.7-1.3-2.78-.39-2.71.63-6.15.22-8.97.9.07,1.77.94,1.9,1.81.4,2.55-.12,6.36,0,9.11.14,3.06.76,6.11.9,9.17Z"/><path class="cls-1" d="M38.64,126.31l-2.16,2.52-1.6-8.04c1.04-1.3,2.36-2.34,3.76-3.23v8.75Z"/><path class="cls-1" d="M97.85,310.14c-4.13,1.08-8.43,1.6-12.69.87l-.71-2.04c4.49.59,9.09.48,13.43-.96l-.02,2.14Z"/><path class="cls-1" d="M23.22,300.16l3.91,9.04c-.11.11-2.69-1.14-2.81-1.26-.26-.26-1.51-3.01-1.79-3.61-.89-1.92-1.64-3.93-2.35-5.92l3.04,1.75Z"/><path class="cls-1" d="M160.48,104.87c.31-.21.93.05,1.19.32.96.97.84,7.1.7,8.65-.07.8-.66,3.74-1.46,1.94-.51-1.14-.41-6.12-.46-7.69-.02-.61-.58-2.82.02-3.22Z"/><path class="cls-1" d="M35.04,132.91c-.36-.04-.37-.36-.46-.61-.83-2.24-1.13-5.76-2.18-7.85-.09-.18-.29-.2-.47-.18l2.52-3.11c.26,1.77.41,3.58.63,5.36.14,1.12.68,2.58.7,3.64.02,1-.75,1.74-.73,2.74Z"/><path class="cls-1" d="M147.51,310.4l4.06-8.47,2.41-1.13-3.58,8.53c-.27.31-2.66,1.24-2.89,1.06Z"/><path class="cls-1" d="M141.52,128.59l-1.69-2.51.5-8.04c.1-.13,2.45,1.63,2.4,2.05l-1.21,8.5Z"/><path class="cls-1" d="M17.75,104.87c.61.42-.16,9.94-.44,11.35-.74,1.01-1.17-1.41-1.22-1.9-.17-1.89-.21-5.82,0-7.67.08-.75.69-2.43,1.66-1.78Z"/><path class="cls-1" d="M140.32,282.1c-3.19,3.88-3.01,9.53-1.79,14.15.17.63-1-.02-1.22-.23-.94-.92-.51-4.57-1.07-6.01h.96c-.73-.67-.78-.48-.72-1.55.13-2.13,1.11-6.44,3.83-6.37Z"/><path class="cls-1" d="M137.2,116.36c.12-.13,1.85.75,2.05.95.75.74-.05,4.25-.13,5.41-.06.91.04,1.84,0,2.75-.12.14-1.92-1.2-1.92-1.32v-7.8Z"/><path class="cls-1" d="M153.93,307.95c-.12.12-2.58,1.49-2.33.66s1.17-2.32,1.55-3.25c1.09-2.68,1.41-5.67,4.44-6.71l-3.65,9.3Z"/><path class="cls-1" d="M48.71,114.2l-.48,7.68h-1.2c.22-1.99.86-4.17.94-6.15.02-.46.12-.73-.34-1.04-.54.01-1.55,6.16-1.6,7.03l-.35.37-.81.03.51-7.16,3.33-.75Z"/><path class="cls-1" d="M41.75,116.12c-.22,1.45-.37,2.98-.48,4.44-.16,2.14.7,3.54-1.68,4.67l-.25-7.99,2.41-1.12Z"/><path class="cls-1" d="M150.39,302.49l-3.83,7.43c-.12-1.08-1.64-1.2-1.27-2.32.14-.42,2.31-3.95,2.58-4.16.18-.14,2.43-1.05,2.52-.95Z"/><path class="cls-1" d="M134.08,292.42c.06.33-.43.36-.66.41-2.3.5-4.85.49-7.14,1.16l-4.43-2.54,12.23.96Z"/><path class="cls-1" d="M44.63,115.16l-.77,7.26c-.25.6-1.1.58-1.62.89l.22-7.53,2.17-.62Z"/><path class="cls-1" d="M31.2,310.4l-3.59-7.91c3.14.13,3.05,4.08,4.52,6.17l-.93,1.74Z"/><path class="cls-1" d="M136.24,123.55l-1.4-.88-.76-7.28,2.17.6.2.27c.04.21-.21.38-.21.45v6.84Z"/><polygon class="cls-1" points="26.34 301.83 30 310.16 28.55 309.76 24.25 300.93 26.34 301.83"/><path class="cls-1" d="M133.36,114.93l.49,7.43-1.2-.4c.14-.99-1.47-6.97-1.19-7.27l1.91.25Z"/><path class="cls-1" d="M130.69,114.47l.99,7.4c-2.47.49-1.56-1.8-1.68-3.47-.09-1.25-.23-2.61-.47-3.84l.49-.25.67.17Z"/><path class="cls-1" d="M146.55,303.93l-2.28,3.59c-.65-.56-1.29-1.1-1.92-1.68-.15-.14-1.16-.43-.45-.71l4.65-1.2Z"/><polygon class="cls-1" points="94.27 219.02 95.71 222.86 91.64 220.34 94.27 219.02"/><path class="cls-1" d="M32.59,304.23c.34.39.87,2.59,1.5,3.17l-1.09.84c-.52.09-.28-.1-.38-.33-.56-1.26-1.5-2.89-1.89-4.11-.04-.12-.07-.39.11-.35.34.46,1.49.49,1.74.78Z"/><polygon class="cls-1" points="83.43 308.77 83.96 310.89 81.86 310.36 81.33 308.25 83.43 308.77"/><path class="cls-1" d="M77.49,308.49c-1.25-.77-2.36-2.12-2.63-3.6,1.31,1.08,3.03,1.51,2.63,3.6Z"/><path class="cls-1" d="M100.51,307.05c.24,1.7-.13,2.49-1.92,2.63l.35-1.92,1.56-.71Z"/><path class="cls-1" d="M80.85,309.92c-1.68-.17-2.22-1.04-2.4-2.63,1.88.29,1.9,1.03,2.4,2.63Z"/><path class="cls-1" d="M36.48,305.61l-1.8,1.2-1.32-2.39c.36.11,3.35.86,3.12,1.19Z"/><path class="cls-1" d="M101.47,308.25c.02-1.69.68-2.6,2.15-3.36.27.63-1.64,3.91-2.15,3.36Z"/><path class="cls-1" d="M163.34,117.32c-.18,2.74-3.9,2.53-3.83-.24,1.34,1.71,2.35,2.13,3.83.24Z"/><path class="cls-1" d="M14.9,117.32c.84-.02.58,1.03,1.57,1.2s1.75-.49,2.03-1.44c.73.51-.06,1.58-.63,1.88-1.49.77-2.57-.24-2.97-1.64Z"/><polygon class="cls-1" points="83.72 221.66 84.44 219.5 86.12 220.34 83.72 221.66"/><path d="M35.04,341.47l3.36,1.56c-.59-5.56-.75-11.24-.12-16.79.57-.13.58.97.61,1.31.36,5.08-.32,10.57.02,15.69,6.6,2.29,13.58,3.41,20.5,4.32,25.17,3.3,60.4,3.58,84.32-5.54,1.07-.41,1.98-1.04,2.9-1.42.29-.12.58-.22.64.17-.52,1.64-2.52,2.53-3.99,3.2-11.3,5.16-30.47,7.05-42.9,7.46-18.66.61-50.35.17-67.02-8.5-.91-.47-3.48-1.68-2.04-2.74l3,1.17c.1-7.59-1.28-15.27.24-22.79.09-.07.48.31.48.36v22.55Z"/><path d="M115.62,321.68l-2.1.89c-19.12,2.68-39.29,2.06-58.41-.69-6-.86-15.5-2.43-20.7-5.44-.86-.5-2.63-1.96-.5-1.67.96.13,2.76,1.13,3.83,1.46,23.12,7.27,47.67,6.02,71.52,5.2,2.12-.07,4.28-.05,6.36.25Z"/><path d="M125.72,320.7c-.1-.45-.11-.98.38-1.13,5.27-.99,10.65-1.78,15.66-3.77,1.07-.42,2.16-1.23,3.2-1.6.87-.31.72.61.41,1.14-1.28,2.2-11.85,4.7-14.56,5.1-.81.12-4.79.74-5.09.26Z"/><path d="M143.67,318.56c1.06,7.43.8,15.05.36,22.55-.46.14-.49-.62-.53-.9-.53-3.82-.3-8.7-.32-12.64-.01-2.55-.29-6.27,0-8.65.04-.33.13-.69.48-.35Z"/><path d="M54.7,299.13c.09.43-.21.6-.49.82-1.22.98-3.22,2.03-4.62,3.06-3.99,2.95-7.82,6.14-11.19,9.79.45-2,2.23-3.89,3.72-5.27,3.58-3.32,8.17-6.34,12.58-8.4Z"/><path d="M140.08,336.55c-.07-3.06-.48-6.18-.25-9.25.03-.43-.07-.78.37-1.06.31,0,.57,2.34.6,2.76.1,1.37.21,5.73-.11,6.84-.08.27-.3.65-.61.71Z"/><path d="M50.39,306.57l-2.39,2.52-3.12,2.27c-.38-.37,4.55-4.89,5.52-4.79Z"/><path d="M121.37,112.28c-2.3.07-4.54.27-6.85.25-12.55-.1-25.11-.3-37.65-.26-5.68.02-13.65.93-19.15-.26-.97-.21-1.44-.64-.21-.86,4.5-.82,10.58-.22,15.3-.3,12.93-.2,25.9-.4,38.83,0,3.2.1,6.51-.21,9.62.45l.11.97Z"/><path d="M124.01,129.31c.22.93-.32,1.19-1.14,1.38-4.32,1.01-8.46.36-12.66.53-15.37.62-31.13,1-46.52.26-2.19-.11-6.63-.22-8.56-.79-.64-.19-.82-.45-1.13-1.02.04-.82,3.58-.12,4.18-.11,14.48.34,28.9.77,43.43.72,3.02,0,6.6.37,9.35.24,1.41-.07,2.88-.61,4.31-.73,2.85-.23,5.88,0,8.75-.48Z"/><path d="M61.18,107.48h-.72c-.21-1.16-.46-11.74.6-11.75.87,1.14.14,2.94.11,4.18-.06,2.52.07,5.05,0,7.57Z"/><path d="M58.3,128.59c-.7.19-.7-.83-.73-1.31-.07-1.01-.1-12.14.61-12.13l.49.49-.37,12.94Z"/><path d="M62.14,125.83c0,.11-.21.4-.25.71-.07.56.36,1.77-.47,1.57-.3-3.48-.46-7.09,0-10.55.16-.14.72.22.72.36,0,2.53.19,5.44,0,7.92Z"/><path d="M52.79,182.56c-1.25,3.64-2.18,7.86-3.6,11.39-.15.37-.19.7-.71.6.48-2.87,1.15-5.75,2.21-8.46.31-.81.89-2.32,1.34-2.98.21-.31.27-.66.76-.55Z"/><path d="M128.33,189.75c.6,2.29,1.65,4.55,1.68,6.96-.42-.1-.51-.56-.66-.9-.45-1.02-1.5-4.67-1.5-5.7,0-.48.03-.38.48-.36Z"/><path d="M116.58,159.29c1.04,1-3.59,1.64-3.96,1.67-7.47.61-15.03.62-22.55.71-8.44.1-17.2.42-25.58-1.02-1.12-.19-2.55-.35-3.3-1.25.28-.41.64-.37,1.07-.38,3.07-.1,7.48.86,10.78.99,10.79.42,21.64-.37,32.39.23,3.78.21,7.31-1.38,11.15-.96Z"/><path d="M52.46,171.8c.55-.17,2.37-.06,3.08-.03,6.2.25,12.67,1.14,18.94,1.45,11.02.54,21.61.37,32.63-.24,4.97-.27,10.17-1.04,15.09-1.22.64-.02,3.93-.27,3.73.61-.11.47-3.12.78-3.72.84-9.17.98-19.08,1.26-28.31,1.21-11.88-.06-24.4.27-36.2-.97-.75-.08-5.63-.66-5.63-1.32.12-.12.22-.28.39-.33Z"/><path d="M102.91,168.17c.7.56-2.05.9-2.31.93-12.59,1.38-29.54.84-42.17-.69-1.27-.15-3.03-.29-4.21-.58-1.94-.48-.47-1.31.83-1.31,3.83.02,8.34.93,12.26,1.17,3.24.2,6.6.4,9.82.49,8.62.24,17.21-.66,25.79,0Z"/><path d="M87.73,145.91c2.69-.61,5.29.96,5.09,3.87-.36,5.18-7.89,5.07-7.43-.7.09-1.17,1.14-2.9,2.34-3.18ZM88.94,147.83c-1.88.17-2.21,2.94-.67,3.44,3.69,1.21,3.82-3.73.67-3.44Z"/><path d="M113.38,145.7c1.58,1.51,1.3,6.57-.86,7.24-4.64,1.44-4.48-7.07-1.52-7.75.85-.19,1.75-.1,2.39.51ZM112.01,147.31c-.8-.24-.83.36-.92,1.09-.05.43-.21,2.14.33,2.25,1.17,0,.91-3.15.58-3.35Z"/><path d="M65.91,145.2c4.24-.86,4.42,7.29,1.37,7.85-4.23.77-4.59-7.19-1.37-7.85ZM67.17,150.66c-.1-1.2.38-2.67-.6-3.59-.82,0-1.09,4,.6,3.59Z"/><path d="M121.32,167.04c1.06-.04,2.46-.45,3.16.53,0,.43-3.19.78-3.71.84-3.06.31-6.49.4-9.59.48-1.16.03-2.56.58-3.71-.36.28-.35.66-.51,1.09-.58,3.4-.62,9.16-.76,12.77-.9Z"/><path d="M158.54,123.79c-.54.08-.62.01-.93-.39-.69-.91-1.55-3.08-2.24-4.24-.29-.49-2.2-2.96-1.87-3.28.3-.3.71.19.92.4,1.95,1.93,3.31,4.93,4.11,7.52Z"/><path d="M173.89,275.87v3.72c0,.68-.56,2.99-.79,3.77-.27.93-.83,2.18-1.24,3.08-.08.17-.14.72-.37.34.83-3.49,1.4-7,1.93-10.55.06-.42-.13-.4.47-.36Z"/><path d="M170.05,290.02c-.1,2.1-.62,4.53-1.27,6.53-.08.25-.06.72-.41.67-.04-1.86.29-4.01.79-5.81.12-.43.24-1.57.89-1.39Z"/><path d="M20.89,135.31c-.09,3.88-.35,7.75-.75,11.6-.77,7.41-1.77,15.42-2.88,22.78-.07.48-.13,1.01-.21,1.47-.07.39.16.41-.47.36.36-9.96,2.13-19.78,3.33-29.65.25-2.06.27-4.16.51-6.21.04-.36.19-.73.48-.35Z"/><path d="M24.73,116.12l-4.91,8.63c-.48-.33-.35-.5-.26-.97.3-1.56,3.06-6.29,4.29-7.34.24-.21.55-.36.88-.32Z"/><path d="M131.2,241.32c-.43.04-.25-.81-.23-1.07.36-4.38,1.71-8.88,1.92-13.43.27-5.81-1.23-11.98-.97-17.52.02-.37-.23-.95.36-.83.47.5.45,1.4.56,2.08,1.31,8.12,1.16,17.02-.24,25.11-.33,1.93-.71,3.84-1.4,5.67Z"/><path d="M127.13,252.84c-.16-.16,1.11-3.82,1.32-4.31.46-1.02,1.41-2.01,1.16-.29-.07.47-1.71,5.39-2.48,4.6Z"/><path d="M45.83,209.9c.02,3.64-.81,7.27-.97,10.9-.27,6.12.41,12.45,1.76,18.4.6,2.66,1.49,5.22,2.08,7.87-.64.13-.41-.16-.6-.47-4.85-8.26-4.95-25.6-3.17-34.84.04-.23.36-2.52.89-1.87Z"/><path d="M27.12,187.6c-.58-.37-.87-1.23-1.16-1.83-.34-.69-2.89-5.83-2.67-6.08.49-.1.56.24.76.55,1.27,1.88,2.55,5.17,3.07,7.36Z"/><path d="M78.93,65.75c.17.65-.75.67-1.2.84-3.02,1.15-6.24,1.93-9.35,2.76-.12-.62.13-.42.47-.6,2.89-1.56,6.88-2.35,10.08-2.99Z"/><path d="M68.85,287.02c.06-.2.46-.44.72-.36.45,1.97.24,4.01,0,6-.48.3-.72-.93-.72-1.08,0-1-.2-3.85,0-4.56Z"/><path d="M86.6,294.82c-.86.82-2.36.91-3.52,1.39-1.24.52-4.32,1.98-4.06,3.65.43,2.73,6.72,3.24,8.73,4,.3.11.7.14.77.54-2.72.9-9.74-.76-10.45-3.82-.91-3.92,5.46-6.24,8.53-5.77Z"/><path d="M94.04,303.93c-.63-.55,3.16-1.89,3.52-2.11,1.17-.71,1.67-1.4,2.47-2.45.19,3.22-3.24,4.63-5.99,4.56Z"/><path d="M99.31,298.41c-1.76-2.19-4.18-2.45-6.48-3.49-.37-.17-.59.03-.48-.59,2.65-.14,6.37,1.22,6.95,4.08Z"/><path d="M88.52,79.3c.03-.18.39-.91.72-.6.4.39.51,7.32,0,8.39-.19.14-.72-.23-.72-.36,0-2.14-.29-5.47,0-7.44Z"/><path d="M89.24,280.66c.03.55.08.43-.36.48-1.27.15-2.81.26-4.09.25-3.28-.03-7.75-.33-11.02-.73-.92-.11-3.84-.6-4.51-1-.46-.27-.46-.39-.4-.91,6.72,1.25,13.58,1.33,20.38,1.92Z"/><path d="M108.9,278.27c-.35,1.49-2.71,1.86-4.02,2.09-3.64.65-7.64.8-11.33.78,1.13-1.19,3.79-.77,5.39-.96,3.31-.4,6.83-.76,9.95-1.92Z"/><path d="M87.32,282.34l-2.05.25c-2.76-.39-5.58-.26-8.32-.8-.42-.08-1.45-.21-1.62-.65l11.99,1.2Z"/><path d="M142.96,285.7c1.92.1,2.42,3.13,2.42,4.68,0,1.81-.79,6.06-3.37,4.32,1.96-1.06,2.13-3.74,1.89-5.73-.15-1.24-.94-2.08-.93-3.26Z"/><path d="M91.4,316.4c.11.68-.14.4-.55.51-3,.82-10.07-.79-12.15-3.39,1.3.22,2.45,1.02,3.71,1.45,2.86.96,5.99,1.45,9,1.43Z"/><path class="cls-1" d="M88.94,147.83c3.14-.29,3.02,4.65-.67,3.44-1.54-.51-1.2-3.27.67-3.44Z"/><path class="cls-1" d="M112.01,147.31c.33.2.59,3.34-.58,3.35-.54-.11-.38-1.82-.33-2.25.08-.74.12-1.34.92-1.09Z"/><path class="cls-1" d="M67.17,150.66c-1.69.4-1.42-3.6-.6-3.59.98.92.5,2.39.6,3.59Z"/></g></svg>