<?xml version="1.0" encoding="UTF-8"?><svg id="Layer_2" xmlns="http://www.w3.org/2000/svg" viewBox="0 0 278.57 251.47"><defs><style>.cls-1{fill:#fff;}</style></defs><g id="Layer_1-2"><path class="cls-1" d="M257.65,180.95c-6.67,3.32-11.98,4.31-18.79,6.62-11.9,4.04-19.64,13.23-32.58,13.93-12.49.68-15.72-3-29.02,2.64-13.04,5.53-19.83,10.43-35.28,9.83-15.43-.59-28.16-11.24-43.15-12.48-20.43-1.69-23.95.02-42.9-9.37-8.23-4.08-24.57-6.58-29.99-12.21-8.64-8.97,1.09-16.37,9.38-19.9,12.93-5.5,26.48-4.06,39.96-6.08,9.21-1.38,17.86-5.22,27.12-6.21,3.71-33.66,47.67-44.64,67.68-18.47,4.8-4.32,10.47-7.79,14.42-12.89,3.89-5.03,6.61-9.51,12.11-12.63-.06-.03-.14-.04-.18-.08-.25-1.38.82-2.07,1.69-2.86,3.1-2.81,7.73-4.8,10.8-7.9,2.94-2.98,4.95-7.33,7.66-10.56,9.16-10.91,23.83-13.53,31.07-27.91,14.48-28.78-18.71-36.02-38.27-24.37,2.99,1.23,6.14,2.2,8.79,4.16.67.5,4.05,3.29,3.2,4.23-2.07-.86-3.75-2.51-5.74-3.6-4.07-2.23-8.69-4.49-12.95-1.66.08.75.71.74,1.24.91,1.9.6,3.58.66,5.64,1.55,5.19,2.25,11.28,7.86,11.33,13.84-4.41-5.99-7.42-10.82-14.98-13.07-7.32-2.18-6.52-.62-12.73,1.42-2.8.92-6.11,1.6-9.04,1.99-10.84,1.42-22.44-1-31.82,6.3,14.96-3.21,35.57-4.18,46.99,7.67-3.52-.78-6.49-3.36-9.94-4.68-13.9-5.32-38.66-4.44-50,5.87-1,.91-1.88,1.96-2.87,2.89,5.9-.45,11.87-1.53,17.74,0,.55.14,1.56-.03,1.44.7-9.12.43-21.19-1.2-27.33,6.96,3-.18,5.93-1.26,8.93-1.62,10.6-1.26,23.65.31,32.47,6.73,2.67,1.94,5.36,4.4,6.55,7.59-10.35-11.17-23.83-13.63-38.59-12.46-12.43.98-14.7,5.34-23.59,11.89-6.99,5.15-15.82,9.98-24.01,12.91-3.29,1.18-9.58,2.21-12.09,3.74-2.53,1.54-7.69,6.94-9.85,9.33-3.19,3.52-5.72,7.67-9.11,11.03-.42-.87.68-2.42,1.12-3.2,3.26-5.87,8.54-11.31,13.51-15.74-10.51.13-17.57,10.94-22.73,18.98-4.16,6.49-8.43,13.89-9.88,21.54-.68.72-.87-.06-.95-.71-1.11-8.24,10.1-23.95,15.1-30.47.29-.38,1.29-.92.49-1.43-4.04,3.81-7.58,8.07-11.5,12-3.58,3.59-7.12,5.66-10.05,10.09-3.46,5.23-7.46,13.43-5.07,19.62-2.48.36-2.47-2.85-2.87-4.55l3.59-12.23c-4.01,4.48-14.17,11.79-12.02,18.73.23.73,5.81,5.83,1.57,5.18-2.9-.44-4.82-5.11-4.67-7.83.61-10.52,21-25.63,28.55-32.85,9.81-9.38,12.42-15.06,26.6-19.43,13.47-4.15,22.49-5.22,35.15-12.8,20.33-12.16,38.23-40.4,62.49-42.52,3.94-.35,7.98.2,11.92-.07,16.71-1.11,25.93-11.34,41-14.63,10.39-2.26,23.58-.71,30.69,7.92-2.55-13.59-23.17-15.43-33.95-13.1-8.06,1.74-14.97,6.99-23.41,7.76-13.39,1.23-19.18-2.15-32.96,3.97-21.65,9.62-33.39,27.58-50.17,42.38-16.29,14.37-28.83,11.51-47.12,18.58-19.13,7.39-24.88,20.67-36.82,35.11-4.7,5.69-16.52,15.25-17.61,22.19-.77,4.89.24,7.86,5.38,8.29,18.58,1.56,32.39-5.45,49.54-9.95,3.69-.97,13.88-3.76,17.12-3.53.71.05,1.51.16,1.68.99l-16.78,4.8,28.77-3.35c-2.64,2.18-7.52,2.96-10.94,3.68-9.23,1.94-18.04,1.75-27.05,3.16-7.03,1.1-14.32,4.36-21.46,5.87-8.25,1.74-13.47,1.11-20.58,6.75-3.56,2.82-6.17,5.56-4.58,10.26,3.54,10.46,25.57,16.93,34.92,21.18,9.83,4.47,21.63,14.09,32.18,14.82,11.36.79,19.34-2.61,31.53.59,17.67,4.64,28.5,15.52,48.91,9.32,10.37-3.15,19.54-13.27,30.35-14.24,11.61-1.04,18.58,6.1,31.39.7,6.77-2.85,11.27-9.31,17.58-12.15,4.45-2.01,9.65-2.48,14.33-3.9,8.44-2.56,17.2-7.39,20.85-15.83-1.47.45-2.54,1.36-4.06,1.92-4.54,1.69-6.13,2.23-10.48,4.39ZM241.48,39.68c-.65-2.43-2.75-3.99-2.61-6.02.53.59,1.45.6,2.02,1.11,6.08,5.44,2.62,20.76-4.64,24.31.49-3.13,3.16-5.3,4.4-8.31,1.49-3.62,1.86-7.28.85-11.09ZM233.59,44.69c1.86,1.28,1.68,4.62-.23,5.75l.23-5.75ZM203.62,58.11c.65-.08,1.29.21,1.76.63.66.59,3.01,5.15,1.35,5.11-.63-.02-3.84-4.53-3.11-5.74ZM198.34,83.28l11.03-8.86c1.62,1.88-9.59,10.55-11.98,10.55l.95-1.69ZM197.43,91.48l12.42-9.87c-.25,2.63-11.98,12.83-13.42,11.5l1-1.63ZM180.12,85.44c-1.21-.68-1.9-2.51-1.91-3.84,1.46.7,2.07,2.29,1.91,3.84ZM182.27,108.93c.7-.63,5.99-5.29,6.48-4.78.12,1.36-.9,2.39-1.67,3.36-1.57,1.96-10.67,11.12-12.44,12.02-.63.32-.82.84-1.47-.03-.66-1.14,7.8-9.39,9.1-10.56ZM163.58,97.44c1.6-.05-.84,5.4-1.12,6.07-.25.6-3.37,7.58-4.4,6.39-1.12-1.31,4.27-12.42,5.51-12.46ZM138.94,85.26c.05-.44.41-3.12,1.37-2.21.79.74,1.15,16.78.98,18.96-.05.58-.61,5.75-1.93,4.54-.64-3.59-1.02-7.16-.98-10.81.03-2.82.23-7.74.56-10.48ZM116.83,98.39c.82-.16,1.2.42,1.69.94,1.01,1.08,5.25,9.88,4.54,10.56-.84.13-1.06.03-1.66-.49-.96-.83-4.99-10.58-4.57-11.01ZM158.3,34.13c1.19-1,10.99-4.79,12.47-4.79h18.94c.22,1.37-.28.8-1.11,1.03-6.12,1.64-12.23.21-18.19,1.02-3.94.53-8.72,3.03-12.59,4.2-.74-.41.08-1.12.47-1.45ZM51.57,128.88l1.48-.28c-.23,1.9-.95,4.52-.39,6.38.49,1.6,3.3,1.47,3.26,3.2-5.8.28-6.08-5.03-4.36-9.31ZM96.46,107.49c2.2,1.93,5.55,5.23,7.41,7.46.63.75,3.62,4.22,2.89,5.02-1.12.09-1.87-.8-2.65-1.42-4.67-3.76-9.38-9.73-13.17-14.39,1.96-.19,4.04,2.03,5.53,3.34ZM85.48,130.94c-.8-.61-.93-.77-.78-1.85,1.98.09,12.9,3.34,12.94,5.03-.55.76-.71.69-1.55.61-1.74-.16-9.29-2.77-10.61-3.79ZM16.18,168.7c.53-.94,1.23-1.41,2.34-1.25-1.27,2.99-2.13,4.85-.49,7.92.92,1.73,3.07,2.81,2.89,5.02-4.17-1.92-7.19-7.31-4.73-11.69ZM93.35,206.53c-1.2.32-4.18.63-5.54.71-9.56.61-19.27-.61-26.61-7.18,6.53,1.9,11.35,4.8,18.44,5.29,4.94.34,9.81-.69,14.65-.02.17,1.05-.08.97-.94,1.2ZM206.02,205.08c4.95-.13,9.02-1.2,13.43-3.34,2.31-1.13,4.6-3.31,7.18-3.6-4.59,4.98-14.01,10.41-20.62,6.95Z"/><path class="cls-1" d="M259.26,147.53c-9.13-2.29-19.33-1.42-28.29-4.32-6.1-1.97-10.2-4.51-17.05-5.01-1.69-.12-18.9.13-18.93-1.68.17-.13.36-.24.57-.34-1.76-.18-3.47-.4-5.07-.58-3.67-.42-6.92-.89-10.55.03-1.82.46-3.56.94-5.35,1.26.63,1.25,1.26,2.49,2.01,3.63l33.44.61c15.85,6.39,32.95,6.16,49.31,9.63,2.03.43,3.47,2.62,5.4,3.28l1.47-2.9c-.61-1.39-5.41-3.21-6.96-3.6Z"/><path d="M196.43,103.66c-.25-1.38.82-2.07,1.69-2.86,3.1-2.81,7.73-4.8,10.8-7.9s4.95-7.33,7.66-10.56c9.16-10.91,23.83-13.53,31.07-27.91,14.48-28.78-18.71-36.02-38.27-24.37,2.99,1.23,6.14,2.2,8.79,4.16.67.5,4.05,3.29,3.2,4.23-2.07-.86-3.75-2.51-5.74-3.6-4.07-2.23-8.69-4.49-12.95-1.66.08.75.71.74,1.24.91,1.9.6,3.58.66,5.64,1.55,5.19,2.25,11.28,7.86,11.33,13.84-4.41-5.99-7.42-10.82-14.98-13.07s-6.52-.62-12.73,1.42c-2.8.92-6.11,1.6-9.04,1.99-10.84,1.42-22.44-1-31.82,6.3,14.96-3.21,35.57-4.18,46.99,7.67-3.52-.78-6.49-3.36-9.94-4.68-13.9-5.32-38.66-4.44-50,5.87-1,.91-1.88,1.96-2.87,2.89,5.9-.45,11.87-1.53,17.74,0,.55.14,1.56-.03,1.44.7-9.12.43-21.19-1.2-27.33,6.96,3-.18,5.93-1.26,8.93-1.62,10.6-1.26,23.65.31,32.47,6.73,2.67,1.94,5.36,4.4,6.55,7.59-10.35-11.17-23.83-13.63-38.59-12.46-12.43.98-14.7,5.34-23.59,11.89-6.99,5.15-15.82,9.98-24.01,12.91-3.29,1.18-9.58,2.21-12.09,3.74s-7.69,6.94-9.85,9.33c-3.19,3.52-5.72,7.67-9.11,11.03-.42-.87.68-2.42,1.12-3.2,3.26-5.87,8.54-11.31,13.51-15.74-10.51.13-17.57,10.94-22.73,18.98-4.16,6.49-8.43,13.89-9.88,21.54-.68.72-.87-.06-.95-.71-1.11-8.24,10.1-23.95,15.1-30.47.29-.38,1.29-.92.49-1.43-4.04,3.81-7.58,8.07-11.5,12-3.58,3.59-7.12,5.66-10.05,10.09-3.46,5.23-7.46,13.43-5.07,19.62-2.48.36-2.47-2.85-2.87-4.55l3.59-12.23c-4.01,4.48-14.17,11.79-12.02,18.73.23.73,5.81,5.83,1.57,5.18-2.9-.44-4.82-5.11-4.67-7.83.61-10.52,21-25.63,28.55-32.85,9.81-9.38,12.42-15.06,26.6-19.43,13.47-4.15,22.49-5.22,35.15-12.8,20.33-12.16,38.23-40.4,62.49-42.52,3.94-.35,7.98.2,11.92-.07,16.71-1.11,25.93-11.34,41-14.63,10.39-2.26,23.58-.71,30.69,7.92-2.55-13.59-23.17-15.43-33.95-13.1-8.06,1.74-14.97,6.99-23.41,7.76-13.39,1.23-19.18-2.15-32.96,3.97-21.65,9.62-33.39,27.58-50.17,42.38-16.29,14.37-28.83,11.51-47.12,18.58s-24.88,20.67-36.82,35.11c-4.7,5.69-16.52,15.25-17.61,22.19-.77,4.89.24,7.86,5.38,8.29,18.58,1.56,32.39-5.45,49.54-9.95,3.69-.97,13.88-3.76,17.12-3.53.71.05,1.51.16,1.68.99l-16.78,4.8,28.77-3.35c-2.64,2.18-7.52,2.96-10.94,3.68-9.23,1.94-18.04,1.75-27.05,3.16-7.03,1.1-14.32,4.36-21.46,5.87-8.25,1.74-13.47,1.11-20.58,6.75-3.56,2.82-6.17,5.56-4.58,10.26,3.54,10.46,25.57,16.93,34.92,21.18,9.83,4.47,21.63,14.09,32.18,14.82,11.36.79,19.34-2.61,31.53.59,17.67,4.64,28.5,15.52,48.91,9.32,10.37-3.15,19.54-13.27,30.35-14.24,11.61-1.04,18.58,6.1,31.39.7,6.77-2.85,11.27-9.31,17.58-12.15,4.45-2.01,9.65-2.48,14.33-3.9,8.44-2.56,17.2-7.39,20.85-15.83-1.47.45-2.54,1.36-4.06,1.92-4.54,1.69-6.13,2.23-10.48,4.39-6.67,3.32-11.98,4.31-18.79,6.62-11.9,4.04-19.64,13.23-32.58,13.93s-15.72-3-29.02,2.64c-13.04,5.53-19.83,10.43-35.28,9.83s-28.16-11.24-43.15-12.48c-20.43-1.69-23.95.02-42.9-9.37-8.23-4.08-24.57-6.58-29.99-12.21-8.64-8.97,1.09-16.37,9.38-19.9,12.93-5.5,26.48-4.06,39.96-6.08,9.21-1.38,17.86-5.22,27.12-6.21,3.82-34.59,50.14-45.24,69.29-16.22,1.91,2.9,3.09,6.21,4.91,8.99l33.44.61c15.85,6.39,32.95,6.16,49.31,9.63,2.03.43,3.47,2.62,5.4,3.28l1.47-2.9c-.61-1.39-5.41-3.21-6.96-3.6-9.13-2.29-19.33-1.42-28.29-4.32-6.1-1.97-10.2-4.51-17.05-5.01-1.69-.12-18.9.13-18.93-1.68,1.18-.9,3.55-1.12,5.01-1.22,7.4-.51,16.76,0,23.86,2.07,3.73,1.08,7.44,3.14,11.31,4.04,13.01,3.01,26.16.19,37.27,9.72,12.29,10.55,3.66,29.96-4.8,40.3-5.43,6.64-12.45,14.74-18.22,21.1-8.39,9.24-17.06,11.82-27.42,17.65-11.5,6.48-20.35,14.03-34.03,15.85-5.66.75-11.49.39-17.14,1.08-7.48.91-14.51,3.86-22.1,4.28-12.41.68-24.32-2.98-36.47-4.34-19.72-2.21-29.33-1.74-48.03-10.47-13.16-6.15-17.29-12.71-26.76-22.63-10.03-10.5-23.55-15.65-29.25-30.21-3.62-9.25-3.51-15.48,4.32-22.04l4.06-2.88c-7.69.02-14.32-2.23-16.19-10.43-3.15-13.83,12.61-35.32,18.52-47.91,4.96-10.56,7.94-21.38,13.89-31.66,10.99-18.99,29.47-40.28,49.63-49.63C95.61,13.08,126.85.82,140.54.06c8.77-.48,17.24,1.95,25.9,2.44,16.09.92,31.68-.6,47.84,2.51,8.92,1.72,30.89,9.27,36.25,16.5,11,14.82,2.47,35.87-9.98,46.92-5.1,4.52-11.12,7.05-16.27,11.06-6.18,4.81-8.18,11.36-13.46,16.27-1.68,1.57-12.81,9.42-14.39,7.91ZM221.12,13.51c2.83-.27,6,.2,8.87,0,.11-.7-.81-.63-1.32-.83-9.16-3.63-20.33-6.63-30.06-4.41-3.56.81-12.9,5.11-15.37,4.78-.62-.08-1.7-.71-.73-1.23l14.87-5.5c-2.66.41-5.38-.41-7.89-.5-7.58-.3-15.52.46-23.06.04-8.95-.5-17.77-3.08-26.83-2.41-6.97.51-14.99,3.42-21.59,5.74-24.07,8.45-44.64,15.27-62.34,34.53-1.09,1.19-6.07,6.57-6.46,7.45-.09.21-.12.79.23.71,4.03-3.35,8.56-6.88,13.18-9.36,2.43-1.3,5.94-3.38,8.64-2.87-5.61,4.58-12.44,7.54-18.18,12.03-6.89,5.39-12.74,11.2-17.21,18.76-4.82,8.14-8.02,17.12-11.12,26.04,10.47-11.67,23.27-20.46,38.82-23.75,6.37-1.35,12.58-1.21,18.82-2.28,3.7-.64,6.58-2.31,9.85-3.1.51-.12,1.73-.38,2.04.12-7.77,6.45-18.12,4.98-27.42,6.63-18.62,3.29-33.38,14.41-45.2,28.65l-8.42,16.27c4.6-4.45,10.15-8.39,14.39-13.17,3.88-4.38,6.04-9.55,11.79-12.19.53-.24,1.66-.94,2.1-.3-1.35,2.47-4.25,3.22-6.25,5.26-2.94,2.98-5.5,7.78-8.6,11.06-6.22,6.6-13.96,10.98-18.62,19.26-3.59,6.37-6.86,16.68-2.25,23.17l.29-4.51c.99-8.96,13.97-19,19.59-25.96,10.08-12.46,15.33-23.24,30.38-31.48,14.11-7.72,30.66-6.67,44.28-14.7,11.04-6.51,20.02-18.88,29.4-27.66,13.06-12.23,30.23-25.62,48.92-25.65.11-.7-.83-.64-1.34-.81-11.48-3.91-20.13-5.54-32.14-2.7-4.23,1-8.19,2.96-12.45,3.85-5.58,1.17-11.41.91-16.98,2.2-4.58,1.07-8.94,3.5-13.7,4.04-.94.11-3.42.8-2.98-.82,7.74-1.83,14.41-4.99,22.36-6.18s11.8-1.92,19.84-4.14c22.42-6.21,27.45,1.97,46.88,4.44,12.28,1.56,21.35-7.39,32.96-8.51ZM138.31,117.71c-34.82,1.18-45.54,47.64-16.82,65.46,7.57-1.77,14.58-2.76,22.37-1.76,3.69.47,8.03,2.11,11.64,2.3,4.81.25,12.07-7.88,14.45-11.8,14.84-24.43-3.09-55.16-31.65-54.19ZM203.62,149.71c-1.03-1.09-15.23-1.23-17.29-.75-.7.16-1.42.38-1.88.99,0,.56,2.2.96,2.76,1.07,4.26.84,9.87.58,14.2.07.44-.05,3.12-.41,2.21-1.37ZM271.54,172.07c4.24-4.19,4.98-10.14,2.01-15.33-1.54-2.68-6.93-7.62-6.64-1.54.27,5.6,3.91,6.72,1.48,14.44-.66,2.11-2.1,3.55-2.9,5.48.7.64,5.3-2.29,6.06-3.05ZM164.54,185.67c4.44.48,9.62-.35,14.15,0,.17,1.17-1.2,1.64-2.06,2.01-10.53,4.49-26.63-3-37.96-3.47-12.93-.53-25.74,6.03-38.62,2.89-.1-1.26-.05-.79.73-.94,5.16-.96,10.85-.61,16.05-1.94-4.3-5.74-12.04-7.27-18.7-8.63.43-1.28,2.05-1,3.1-.95,2.46.11,5.6,1.04,7.92,1.92l-4.07-7.68-.96-.48c-7.23,1.29-13.88,1.11-20.71,4.25-5.11,2.35-12.44,6.5-7.83,12.79,7.52,10.25,34.54,8.75,46.27,9.84,10.78,1,23.91,5.3,34.41,3.71,9.04-1.37,17.22-5.99,25.89-8.64,5.53-1.69,19.37-3.19,20.47-10.21,1.41-8.98-10.56-9.27-16.39-11.36-3.22-1.16-6.22-3.77-9.74-3.27l-.65.08c-1.2,4.96-4,9.49-7.24,13.37,5.6-1.44,11.14-3.89,17.06-2.4.8.2,1.4-.48,1.17.97-8.68.4-16.71,3.61-24.45,7.2-.14.49,1.96.93,2.15.95ZM233.83,200.05c-6.37,5.65-13.95,10.93-22.78,11.5-13.64.88-17.49-7.15-32.85.72-14.4,7.38-18.29,13.6-36.67,12.23-15.02-1.11-26.7-11.43-41.23-12.48-8.03-.58-16.07,1.62-24.01.99-10.74-.85-21.15-9.77-30.73-14.35-11.68-5.58-25.01-8.34-34.7-17.8,1.97,6.73,7.44,12.85,12.72,17.24,3.58,2.98,7.74,5.34,11.26,8.41,2.78,2.43,8.51,10.02,10.89,11.17,1.74.84,4.91.73,7.22,1.41,9.05,2.7,17.57,8.54,27.46,7.11,5.2-.75,11.19-4.85,16.11-5.02.87-.03,7.37,1.05,5.92,2.36-10.17-2.05-16.62,5.47-27.08,4.79-9.85-.64-19.09-7.27-28.54-9.58-.21.9.51,1.14.96,1.68,10.16,12.36,33.57,20.62,49.16,22.29,5.17.56,10.56.42,15.76,1.02,13.05,1.5,37.82,8.45,48.89.34,2.19-1.61,11-9.5,12.51-11.47,3.57-4.66,3.96-10.99,7.24-15.78.27,2.34-.77,4.93-1.44,7.19-.72,2.42-1.54,5.12-2.73,7.34-3,5.65-9.21,8.13-12.86,13.27,2.17-.25,5.18-.34,7.15-1.24,2.59-1.2,7.06-6.83,8.93-7.38,1.76-.52-.41,2.21-.74,2.62-1.4,1.75-3.36,2.87-4.78,4.56,7.72.01,16.05-.15,23.19-3.42,7.34-3.36,12.31-9.32,18.04-14.56,4.79-4.38,11.02-8.34,14-14.29,1.64-3.28,2.55-7.39,3.75-10.87ZM214.65,230.26l18.54-9.5c12.98-6.02,18.98-19.17,29.18-28.37l5.5-7.2c-7.4,7.2-17.57,7.88-26.73,10.9-6.85,2.26-5.54,6.17-7.91,12.23-4.18,10.68-11.25,13.94-18.58,21.94Z"/><path d="M94.29,205.33c.17,1.05-.08.97-.94,1.2-1.2.32-4.18.63-5.54.71-9.57.61-19.27-.61-26.61-7.18,6.53,1.9,11.35,4.8,18.44,5.29,4.94.34,9.81-.69,14.65-.02Z"/><path d="M189.71,29.34c.22,1.37-.28.8-1.11,1.03-6.12,1.64-12.23.21-18.19,1.02-3.94.53-8.72,3.03-12.59,4.2-.74-.41.08-1.12.47-1.45,1.19-1,10.99-4.79,12.47-4.79h18.94Z"/><path d="M140.32,83.05c.79.74,1.15,16.78.98,18.96-.05.58-.61,5.75-1.93,4.54-.64-3.59-1.02-7.16-.98-10.81.03-2.82.23-7.74.56-10.48.05-.44.41-3.12,1.37-2.21Z"/><path d="M240.88,34.76c6.08,5.44,2.62,20.76-4.64,24.31.49-3.13,3.16-5.3,4.4-8.31,1.49-3.62,1.86-7.28.85-11.09-.65-2.43-2.75-3.99-2.61-6.02.53.59,1.45.6,2.02,1.11Z"/><path d="M188.75,104.15c.12,1.36-.9,2.39-1.67,3.36-1.57,1.96-10.67,11.12-12.44,12.02-.63.32-.82.84-1.47-.03-.66-1.14,7.8-9.39,9.1-10.56.7-.63,5.99-5.29,6.48-4.78Z"/><path d="M106.75,119.97c-1.12.09-1.87-.8-2.65-1.42-4.67-3.76-9.38-9.73-13.17-14.39,1.96-.19,4.04,2.03,5.53,3.34,2.2,1.93,5.55,5.23,7.41,7.46.63.75,3.62,4.22,2.89,5.02Z"/><path d="M226.64,198.14c-4.59,4.98-14.01,10.41-20.62,6.95,4.95-.13,9.02-1.2,13.43-3.34,2.31-1.13,4.6-3.31,7.18-3.6Z"/><path d="M84.7,129.08c1.98.09,12.9,3.34,12.94,5.03-.55.76-.71.69-1.55.61-1.74-.16-9.29-2.77-10.61-3.79-.8-.61-.93-.77-.78-1.85Z"/><path d="M209.85,81.61c-.25,2.63-11.98,12.83-13.42,11.5l1-1.63,12.42-9.87Z"/><path d="M193.42,128.48c-.66.66-9.21,4.36-10.23,4.41-.57.03-1.63-.17-1.62-.7.02-1.16,9.46-5.21,10.88-5.42,1.53-.23,1.86.83.97,1.71Z"/><path d="M158.07,109.9c-1.12-1.31,4.27-12.42,5.51-12.46,1.6-.05-.84,5.4-1.12,6.07-.25.6-3.37,7.58-4.4,6.39Z"/><path d="M209.37,74.42c1.62,1.88-9.59,10.55-11.98,10.55l.95-1.69,11.03-8.86Z"/><path d="M18.52,167.45c-1.27,2.99-2.13,4.85-.49,7.92.92,1.73,3.07,2.81,2.89,5.02-4.17-1.92-7.19-7.31-4.73-11.69.53-.94,1.23-1.41,2.34-1.25Z"/><path d="M123.06,109.9c-.84.13-1.06.03-1.66-.49-.96-.83-4.99-10.58-4.57-11.01.82-.16,1.2.42,1.69.94,1.01,1.08,5.25,9.88,4.54,10.56Z"/><path d="M53.05,128.6c-.23,1.9-.95,4.52-.39,6.38.49,1.6,3.3,1.47,3.26,3.2-5.8.28-6.08-5.03-4.36-9.31l1.48-.28Z"/><path d="M205.39,58.74c.66.59,3.01,5.15,1.35,5.11-.63-.02-3.84-4.53-3.11-5.74.65-.08,1.29.21,1.76.63Z"/><path d="M233.36,50.44l.23-5.75c1.86,1.28,1.68,4.62-.23,5.75Z"/><path d="M180.12,85.44c-1.21-.68-1.9-2.51-1.91-3.84,1.46.7,2.07,2.29,1.91,3.84Z"/><path class="cls-1" d="M221.12,13.51c-11.61,1.12-20.68,10.07-32.96,8.51-19.44-2.47-24.46-10.65-46.88-4.44-8.04,2.23-11.53,2.9-19.84,4.14s-14.62,4.35-22.36,6.18c-.43,1.62,2.04.93,2.98.82,4.76-.54,9.12-2.97,13.7-4.04,5.57-1.3,11.39-1.03,16.98-2.2,4.26-.89,8.23-2.85,12.45-3.85,12.01-2.84,20.67-1.21,32.14,2.7.5.17,1.45.1,1.34.81-18.68.03-35.86,13.43-48.92,25.65-9.38,8.78-18.36,21.15-29.4,27.66-13.62,8.03-30.17,6.99-44.28,14.7-15.06,8.24-20.3,19.01-30.38,31.48-5.63,6.96-18.61,17-19.59,25.96l-.29,4.51c-4.61-6.49-1.34-16.8,2.25-23.17,4.66-8.28,12.4-12.67,18.62-19.26,3.1-3.29,5.66-8.09,8.6-11.06,2.01-2.03,4.91-2.78,6.25-5.26-.44-.64-1.57.06-2.1.3-5.75,2.63-7.91,7.81-11.79,12.19-4.25,4.79-9.79,8.72-14.39,13.17l8.42-16.27c11.81-14.24,26.57-25.36,45.2-28.65,9.3-1.64,19.65-.18,27.42-6.63-.31-.5-1.53-.25-2.04-.12-3.27.79-6.15,2.47-9.85,3.1-6.23,1.07-12.45.94-18.82,2.28-15.55,3.29-28.35,12.08-38.82,23.75,3.1-8.92,6.29-17.9,11.12-26.04,4.47-7.55,10.32-13.36,17.21-18.76,5.74-4.49,12.58-7.45,18.18-12.03-2.7-.51-6.21,1.57-8.64,2.87-4.62,2.48-9.15,6.01-13.18,9.36-.36.08-.33-.5-.23-.71.4-.87,5.37-6.25,6.46-7.45,17.7-19.26,38.27-26.08,62.34-34.53,6.6-2.32,14.62-5.23,21.59-5.74,9.05-.66,17.88,1.91,26.83,2.41,7.54.42,15.47-.34,23.06-.04,2.51.1,5.23.92,7.89.5l-14.87,5.5c-.97.52.12,1.15.73,1.23,2.47.33,11.81-3.97,15.37-4.78,9.73-2.22,20.89.78,30.06,4.41.51.2,1.43.14,1.32.83-2.87.2-6.04-.27-8.87,0ZM135.05,11.11c-1.62-2.01-6.39-.39-8.63.25-.63.18-9.66,3.21-8.15,4.55l16.78-4.8ZM207.46,13.03c-.31-3.36-8.5-.96-10.34-.03-.69.35-1.36.44-1.17,1.46l11.5-1.44ZM87.94,28.97c-1.71.15-5.63,2.04-6.84,3.24-.8.8-1.9,2.72.08,2.01,2.34-.83,5.75-3.65,8.3-4.65-.55-.77-.71-.68-1.54-.61ZM112.51,45.64c-.6-.59-5.93,4.06-7.2,4.55-3.5,1.35-7.62.73-11.35,2.56-.46.23-3.81,2.24-3.03,2.96,2.32-.3,4.26-1.77,6.59-2.28,5.82-1.28,12.41-.58,14.99-7.78ZM76.06,52.35c.01-2.6-5.42-.63-7.08-.12-2.84.88-4.68,1.56-6.56,3.99-.69.89-.92,2.37-1.72,3.07-1.54,1.34-8.54,2.28-7.66,6.72.44,2.21,2.99-2.65,3.66-3.05,1.55-.93,3.87-.61,5.25-1.47,1.18-.73,1.59-2.77,2.4-3.83,2.79-3.69,7.82-3.53,11.72-5.31Z"/><path class="cls-1" d="M233.83,200.05c-1.19,3.49-2.11,7.59-3.75,10.87-2.98,5.95-9.2,9.92-14,14.29-5.74,5.24-10.7,11.2-18.04,14.56-7.14,3.27-15.47,3.43-23.19,3.42,1.42-1.7,3.38-2.81,4.78-4.56.33-.41,2.5-3.14.74-2.62-1.87.55-6.33,6.18-8.93,7.38-1.96.91-4.98.99-7.15,1.24,3.65-5.14,9.85-7.63,12.86-13.27,1.18-2.23,2-4.92,2.73-7.34.67-2.26,1.71-4.85,1.44-7.19-3.28,4.79-3.67,11.12-7.24,15.78-1.51,1.97-10.32,9.86-12.51,11.47-11.07,8.11-35.84,1.16-48.89-.34-5.2-.6-10.59-.47-15.76-1.02-15.59-1.68-38.99-9.93-49.16-22.29-.44-.54-1.16-.77-.96-1.68,9.45,2.31,18.68,8.94,28.54,9.58,10.47.68,16.92-6.84,27.08-4.79,1.45-1.31-5.05-2.39-5.92-2.36-4.92.17-10.91,4.27-16.11,5.02-9.89,1.43-18.41-4.42-27.46-7.11-2.3-.69-5.48-.57-7.22-1.41-2.38-1.15-8.11-8.74-10.89-11.17-3.51-3.07-7.67-5.42-11.26-8.41-5.28-4.4-10.75-10.51-12.72-17.24,9.7,9.46,23.03,12.22,34.7,17.8,9.58,4.58,19.99,13.5,30.73,14.35,7.95.63,15.98-1.58,24.01-.99,14.53,1.05,26.21,11.37,41.23,12.48,18.38,1.36,22.27-4.85,36.67-12.23,15.36-7.87,19.21.16,32.85-.72,8.83-.57,16.41-5.85,22.78-11.5ZM51.13,211.55c-2.35-2.47-5.98-5.94-8.96-7.58-2.21-1.22-4.97-1.92-7.36-3.19-4.67-2.49-8.96-6.12-14.38-6.96.3.77,1.09,1.38,1.76,1.83,6.41,4.36,14.2,7.21,20.63,11.02,2.66,1.58,5.06,4.79,8.3,4.88ZM218.82,214.3c.56-.6.77-1.26-.09-1.77-5.51,2.88-11.2,5.14-17.51,5.5,3.72,3.11,14.76-.73,17.59-3.73ZM195.47,216.83c-.29-1-1.48-1.06-2.3-1.29-.53-.15-3.49-.98-3.44.09.07,1.55,4.64,1.24,5.74,1.19ZM202.18,224.03c-1.47-.42-2.2,1.22-2.39,2.39l2.39-2.39ZM124.5,228.35c-.98-.47-2.27,2.05-1.91,2.39h.71c.82-.64,1.39-1.28,1.2-2.39ZM156.15,228.83c-4.12-.41-7.9,1.5-11.87,2.27-1.66.32-3.4.04-5.17.59-.68.21-.84-.29-.7.97,3.08.9,5.62.41,8.64-.23,1.67-.36,7.01-1.66,8.27-2.28.65-.32.98-.52.83-1.32ZM198.35,230.75c-.98-.25-1.29.29-1.93.7-2.45,1.56-5.66,4.34-8.19,6.21-.54.4-1.19,0-.91,1.23,1.93,1.45,10.75-5.55,11.03-8.14ZM112.99,232.66c-2.63.53-5.27.96-7.91,1.45-.79.15-.83-.31-.72.94,2.84,0,6.87.38,8.63-2.39ZM117.3,235.06c-9.82,4.73-18.94,3.23-28.77-.48,6.19,4.8,15.33,6.5,22.91,4.45,2.01-.54,5.43-1.59,5.86-3.97ZM138.88,236.5c-5.07,2.63-8.79,1.24-13.76.09-.72-.17-1.28-.39-1.1.62,1.2,2.95,14.04,4.43,14.86-.71Z"/><path class="cls-1" d="M138.31,117.71c28.56-.96,46.49,29.76,31.65,54.19-2.38,3.92-9.64,12.06-14.45,11.8-3.61-.19-7.96-1.83-11.64-2.3-7.79-1-14.8,0-22.37,1.76-28.72-17.82-18-64.28,16.82-65.46ZM128.33,125.73c-5.97.45-12.32,6.86-14.47,12.14-.47,1.15-1.51,2.76-.16,3.67,2.94-3.95,5.37-7.72,9.13-11.01.6-.52,6.35-4.04,5.5-4.81ZM141.19,138.77c-3.68-2.13-4.8,7.38-6.42,8.49-2.05,1.05-8.08.07-8.77,2.78-.56,2.21,4.68,5.04,6.2,6.2-.24,2.28-3.19,8.74-.05,9.56,2.43.61,6.45-5.1,7.92-5.1,1.83.76,6.4,6,8.41,4.6,2.16-1.49-.82-7.31-.42-9.51.51-1.81,7.57-4.48,5.94-7.07-1.04-1.66-7.37-1.25-9.27-2.02l-3.56-7.94ZM111.55,152.58c.15-1.89,1.9-4.65.24-6.22-1.38.04-3.07,6.34-.24,6.22ZM167.65,163.61c-1.23-.28-.84.33-1.24.9-1.38,1.95-2.35,4.25-3.83,6.25-.5.68-5.53,5.78-4.99,6.27,5.59-1.26,9.73-8.02,10.06-13.42Z"/><path class="cls-1" d="M164.54,185.67c-.19-.02-2.3-.46-2.15-.95,7.74-3.59,15.77-6.8,24.45-7.2.23-1.45-.36-.77-1.17-.97-5.91-1.49-11.45.97-17.06,2.4,3.24-3.89,6.04-8.41,7.24-13.37l.65-.08c3.52-.51,6.51,2.11,9.74,3.27,5.83,2.09,17.8,2.38,16.39,11.36-1.1,7.02-14.94,8.52-20.47,10.21-8.67,2.65-16.85,7.26-25.89,8.64-10.49,1.59-23.62-2.71-34.41-3.71-11.73-1.09-38.75.41-46.27-9.84-4.61-6.29,2.71-10.44,7.83-12.79,6.83-3.14,13.48-2.96,20.71-4.25l.96.48,4.07,7.68c-2.32-.87-5.46-1.8-7.92-1.92-1.05-.05-2.67-.32-3.1.95,6.66,1.37,14.4,2.89,18.7,8.63-5.21,1.33-10.89.98-16.05,1.94-.78.14-.83-.33-.73.94,12.88,3.14,25.69-3.42,38.62-2.89,11.33.46,27.43,7.96,37.96,3.47.86-.37,2.24-.84,2.06-2.01-4.53-.35-9.71.48-14.15,0Z"/><path class="cls-1" d="M214.65,230.26c7.33-8,14.4-11.25,18.58-21.94,2.37-6.06,1.05-9.97,7.91-12.23,9.17-3.03,19.33-3.71,26.73-10.9l-5.5,7.2c-10.2,9.19-16.2,22.35-29.18,28.37l-18.54,9.5ZM250.13,199.57c-.35-.34-8.41,3.87-8.79,4.29-.48.53-.35.81-.32,1.46,1,1.02,9.19-3.33,9.11-5.75ZM240.06,211.56c-.58-.56-5.15,1.76-4.79,3.35.79.68,5.34-1.53,4.79-3.35Z"/><path class="cls-1" d="M271.54,172.07c-.76.75-5.36,3.68-6.06,3.05.81-1.94,2.24-3.38,2.9-5.48,2.43-7.72-1.21-8.83-1.48-14.44-.29-6.08,5.11-1.14,6.64,1.54,2.97,5.19,2.24,11.14-2.01,15.33Z"/><path class="cls-1" d="M203.62,149.71c.91.97-1.77,1.32-2.21,1.37-4.34.5-9.94.77-14.2-.07-.56-.11-2.76-.51-2.76-1.07.46-.61,1.18-.82,1.88-.99,2.06-.48,16.26-.34,17.29.75Z"/><path d="M76.06,52.35c-3.9,1.78-8.93,1.63-11.72,5.31-.81,1.07-1.22,3.1-2.4,3.83-1.37.86-3.7.54-5.25,1.47-.67.4-3.22,5.26-3.66,3.05-.88-4.44,6.12-5.38,7.66-6.72.81-.7,1.03-2.18,1.72-3.07,1.88-2.43,3.72-3.11,6.56-3.99,1.66-.51,7.09-2.48,7.08.12Z"/><path d="M112.51,45.64c-2.58,7.21-9.16,6.51-14.99,7.78-2.32.51-4.27,1.98-6.59,2.28-.78-.72,2.57-2.73,3.03-2.96,3.73-1.83,7.85-1.21,11.35-2.56,1.27-.49,6.6-5.13,7.2-4.55Z"/><path d="M135.05,11.11l-16.78,4.8c-1.51-1.34,7.52-4.37,8.15-4.55,2.24-.64,7.01-2.26,8.63-.25Z"/><path d="M207.46,13.03l-11.5,1.44c-.2-1.02.48-1.12,1.17-1.46,1.84-.93,10.03-3.34,10.34.03Z"/><path d="M87.94,28.97c.83-.07,1-.16,1.54.61-2.55.99-5.96,3.81-8.3,4.65-1.98.71-.89-1.22-.08-2.01,1.21-1.2,5.14-3.1,6.84-3.24Z"/><path d="M51.13,211.55c-3.24-.1-5.64-3.31-8.3-4.88-6.43-3.81-14.22-6.66-20.63-11.02-.67-.45-1.45-1.07-1.76-1.83,5.42.84,9.71,4.46,14.38,6.96,2.39,1.27,5.15,1.97,7.36,3.19,2.98,1.64,6.61,5.11,8.96,7.58Z"/><path d="M117.3,235.06c-.42,2.37-3.85,3.42-5.86,3.97-7.59,2.05-16.72.35-22.91-4.45,9.83,3.7,18.95,5.21,28.77.48Z"/><path d="M218.82,214.3c-2.83,3-13.88,6.84-17.59,3.73,6.31-.36,11.99-2.62,17.51-5.5.86.51.65,1.17.09,1.77Z"/><path d="M156.15,228.83c.15.8-.18,1.01-.83,1.32-1.27.61-6.6,1.92-8.27,2.28-3.02.64-5.56,1.13-8.64.23-.14-1.25.02-.76.7-.97,1.77-.55,3.51-.26,5.17-.59,3.97-.77,7.75-2.69,11.87-2.27Z"/><path d="M138.88,236.5c-.82,5.14-13.66,3.66-14.86.71-.19-1.01.38-.78,1.1-.62,4.97,1.15,8.7,2.54,13.76-.09Z"/><path d="M198.35,230.75c-.28,2.59-9.1,9.6-11.03,8.14-.29-1.24.37-.84.91-1.23,2.53-1.87,5.74-4.65,8.19-6.21.64-.41.95-.95,1.93-.7Z"/><path d="M112.99,232.66c-1.76,2.77-5.79,2.38-8.63,2.39-.11-1.25-.07-.8.72-.94,2.64-.49,5.28-.92,7.91-1.45Z"/><path d="M195.47,216.83c-1.1.04-5.68.36-5.74-1.19-.05-1.07,2.91-.24,3.44-.09.82.23,2.02.29,2.3,1.29Z"/><path d="M202.18,224.03l-2.39,2.39c.19-1.17.93-2.82,2.39-2.39Z"/><path d="M124.5,228.35c.19,1.11-.38,1.76-1.2,2.39h-.71c-.36-.34.93-2.86,1.91-2.39Z"/><path d="M141.19,138.77l3.56,7.94c1.89.77,8.23.37,9.27,2.02,1.63,2.59-5.43,5.26-5.94,7.07-.4,2.2,2.58,8.02.42,9.51-2.01,1.39-6.58-3.84-8.41-4.6-1.47,0-5.49,5.71-7.92,5.1-3.15-.82-.19-7.29.05-9.56-1.52-1.17-6.76-3.99-6.2-6.2.68-2.71,6.72-1.73,8.77-2.78,1.62-1.11,2.74-10.63,6.42-8.49ZM150.87,150.19l-7.67-1.21-3.12-7.43-3.59,7.92-7.68,1.43,5.68,4.42c.44,1.48-.91,4.7-1.18,6.32-.12.71-.6,1.16.53,1.01l6.24-4.78,6.47,4.31-.88-7.83,5.19-4.15Z"/><path d="M128.33,125.73c.85.77-4.9,4.28-5.5,4.81-3.75,3.29-6.18,7.06-9.13,11.01-1.35-.91-.31-2.51.16-3.67,2.14-5.28,8.49-11.7,14.47-12.14Z"/><path d="M167.65,163.61c-.34,5.4-4.48,12.16-10.06,13.42-.54-.5,4.49-5.59,4.99-6.27,1.49-2,2.46-4.3,3.83-6.25.4-.57.01-1.18,1.24-.9Z"/><path d="M111.55,152.58c-2.82.11-1.14-6.18.24-6.22,1.65,1.57-.1,4.34-.24,6.22Z"/><path d="M250.13,199.57c.09,2.41-8.1,6.77-9.11,5.75-.03-.65-.16-.93.32-1.46.38-.42,8.44-4.63,8.79-4.29Z"/><path d="M240.06,211.56c.55,1.83-4,4.04-4.79,3.35-.36-1.59,4.21-3.91,4.79-3.35Z"/><path class="cls-1" d="M150.87,150.19l-5.19,4.15.88,7.83-6.47-4.31-6.24,4.78c-1.13.16-.65-.3-.53-1.01.27-1.62,1.62-4.84,1.18-6.32l-5.68-4.42,7.68-1.43,3.59-7.92,3.12,7.43,7.67,1.21Z"/></g></svg>