<?xml version="1.0" encoding="UTF-8"?><svg id="Layer_2" xmlns="http://www.w3.org/2000/svg" viewBox="0 0 2151.49 564.97"><defs><style>.cls-1{fill:#fff;}</style></defs><g id="OBJECTS"><path class="cls-1" d="M2151.35,209.06c-14.92,10.41-29.85,20.82-44.77,31.24-.49.88-.99,1.77-1.47,2.67-4.02,7.45-7.38,14.82-10.19,22.03,4.21,7.8,9.17,15.08,8.29,24.41,19.07-7.13,42.48,6.21,43.21,26.45.14,3.88-.53,9.96-4.69,11.47-3.28-2.45-.43-6.2-.43-9.45.02-10.73-10.15-22.89-21.23-24.38-8.88-1.19-13.84,1.98-21.89,2.8-.62-7.39.29-12.95-3.32-20.24-7.92-15.97-28.13-20.17-44.05-13.09-4.58,2.03-10.35,9.74-14.39,5.97-.63-2.98,8.46-9.07,10.95-10.31,13.18-6.54,30.12-5.81,42.15,2.71,4.48.44,9.85-16.55,10.49-20.45,5.52-33.33-14.83-65.67-51.81-65.33-2.74.03-5.79,2.18-7.75-.36-1.88-2.43-.58-7.64-1.07-10.95-6.12-41.8-48.59-66.47-89.55-52.32-29.56,10.22-49.43,43.63-44.82,73.56,10.5-1.18,22.46,5.09,24.31,15.82.89,5.17-.86,11.15-3.99,3.88-6.24-14.45-13.92-17.47-29.01-10.66-3.74-3.69-3.33-8.03-7.3-11.97-10.15-10.07-27.5-9.05-37.58.5-2.81,2.66-3.99,6.87-7.67,8.5-5.36-.46,3.38-12.36,5.15-13.95,11.78-10.61,33.15-10.51,44.21.96,1.98,2.05,2.87,4.62,4.34,6.72.63.9-.16,1.84,2.29,1.3-4.55-28.24,8.15-50.92,28.76-69.4,4.41-3.95,9.01-4.61,10.83-11.44,3.87-14.58-12.52-31.34-27.5-30.72-5.27.22-15.04,7.1-15.26.24-.18-5.71,1.71-12.01.99-18.86-4.39-42.13-62.75-68.66-95.48-37.11-5.53,5.33-8.32,12.68-12.93,18.38-5.24-1.85-8.59-6.67-13.85-9.24-36.05-17.6-76.01,10.83-83.83,46.11-.63,2.84-1.07,13.65-2.9,14.18-5.31-.75-7.22-7.1-12.78-8.51-26.19-6.64-45.52,23.13-33.44,44.33,12.24-5.52,26.63-5.21,38.76.42,4.15,1.93,7.07,5,11.08,6.69,2.04-26.02,33.22-39.61,54.49-23.48,3.09,2.35,11.2,9.98,6.65,13.48-9.33-9.84-17.04-16.61-31.85-14.96-11.6,1.3-21.52,12.19-23.68,22.92-.7,3.51.7,10.95-3.23,11.92-2.85.7-6.34-5.36-8.65-7.24-20.07-16.33-56.11-7.45-63.9,17.53-2.56,8.19-1.09,13.89-.88,22.11l-.8,1.21-3.13.44c-4.28-12.19-2.05-27.4,5.72-37.85,1.83-2.46,11.87-10.21,11.66-11.43-28.91-27.81-76.82-5.2-83.07,30.9-1.25,7.22.71,13.98-.03,19.94-.95,7.66-6.77.41-9.99-1.37-36.91-20.38-78.42,12.44-77.89,50.76-7.64,3.93-14.04,6.25-18.18,14.28-2.86,5.55-6.11,21.32-3.42,26.64,1.18,2.33,7.54,2.22,10.79,3.49,5.03,1.96,13.03,9.26,14.4,14.47,6.85-7.14,12.07-13.97,22.38-16.68,23.14-6.09,45.79,6.24,49.54,29.67,12.85-5.04,28.71-1.28,35.11,11.3,1.9,3.72,4.8,10.1.33,12.64-5.11-12.32-12.1-22.9-27.65-20.85-3.87.51-9.5,5.22-11.98,3.48-.64-.45-2.27-10.34-3.24-12.83-9.85-25.47-44.87-25.78-59.39-3.25-2.22,3.44-1.69,9.11-7.03,7.39-3.17-26.2-38.77-30.59-46.87-4.87-10.56-8.06,8.95-21.54,17.88-22.05-2.95-18.35,2.25-37.82,20.63-46.33-12.02-22.82-48.97-27.17-63.52-4.83-2.02,3.11-3.69,12.6-5.98,13.21-2.19.59-8.38-2.45-11.23-2.8-29.52-3.71-52.76,22.89-50.81,50.37.24,3.35,4.04,14.71,3.22,15.96-3.06,4.65-8.46-.79-14.53,3.93-6.18,4.81-1.45,13.56-5.76,14.38-1.39.27-8.04-4.5-10.65-5.34-8.94-2.88-18.32-.56-25.59,5.07-5.39,4.18-11.67,13.67-9.33,20.39,46.4-7.08,73.01,48.96,54.83,85.73-1.07,2.17-5.07,6.8-5.37,7.84-.71,2.49,4.74,8.93,6.06,12.72,1.4,4.03,2.39,8.23,2.02,12.52,21.03-8.04,47.06,9.58,42.68,32.01-.52,2.66-1.42,5.02-4.16,5.91-3.28-2.45-.43-6.2-.43-9.45.02-10.73-10.15-22.89-21.23-24.38-8.88-1.19-13.84,1.98-21.89,2.8-.62-7.39.29-12.95-3.32-20.24-7.92-15.97-28.13-20.17-44.05-13.1-4.58,2.03-10.35,9.74-14.39,5.97-.63-2.98,8.46-9.07,10.95-10.31,13.18-6.54,30.12-5.81,42.15,2.71,4.48.44,9.85-16.55,10.49-20.45,5.52-33.33-14.83-65.67-51.81-65.33-2.74.03-5.79,2.18-7.75-.36-1.88-2.43-.58-7.64-1.07-10.95-6.12-41.8-48.59-66.47-89.55-52.32-29.56,10.22-49.43,43.63-44.82,73.56,10.5-1.18,22.46,5.09,24.31,15.82.89,5.17-.86,11.15-3.99,3.88-6.24-14.45-13.92-17.47-29.01-10.66-3.74-3.69-3.33-8.03-7.3-11.97-10.15-10.07-27.49-9.05-37.58.5-2.09,1.98-3.65,5.66-5.4,7.21-3.6,3.19-4.31-.93-3.02-4.41,4.26-11.51,21.47-17.73,33.17-15.79,11.25,1.86,15.42,6.88,21.28,15.22.63.9-.16,1.84,2.29,1.3-3.94-21.32,5.09-46.21,20.15-61.79,6.42-6.65,18.93-11.94,19.96-21.55,1.46-13.57-13.42-28.41-27.27-28.26-3.82.04-14.03,4.91-15.45,2.83.37-11.06,1.55-20.35-1.79-31.21-11.31-36.8-63.61-55.86-93.26-27.29-5.53,5.33-8.32,12.68-12.93,18.38-5.24-1.85-8.59-6.67-13.85-9.24-36.07-17.61-76.02,10.86-83.83,46.11-.63,2.84-1.07,13.65-2.9,14.18-5.31-.75-7.22-7.1-12.78-8.51-26.19-6.63-45.52,23.13-33.44,44.33,12.24-5.52,26.63-5.21,38.76.42,4.15,1.93,7.07,5,11.08,6.69,1.95-25.08,31.27-38.96,52.75-24.79,3.48,2.29,13.16,10.87,8.39,14.79-9.33-9.84-17.04-16.61-31.85-14.96-11.6,1.3-21.52,12.19-23.68,22.92-.7,3.51.7,10.95-3.23,11.92-2.85.7-6.34-5.36-8.65-7.24-20.07-16.33-56.11-7.45-63.9,17.53-2.56,8.19-1.09,13.89-.88,22.11l-.8,1.21-3.13.44c-4.28-12.19-2.05-27.4,5.72-37.85,1.83-2.46,11.87-10.21,11.66-11.43-15.34-15.49-38.94-15.53-57.38-5.04-16.21,9.21-26.39,27.77-26.8,45.85-.05,2.43,3.12,12.43-.57,13.47-1.63.46-12.26-7.26-15.9-8.45-36.61-11.93-70.37,19.26-70.34,54.4-13.07,5-20.18,13.22-22.12,26.94l-4.99-3.68c2.07-12.06,9.22-21.31,20.39-26.76-12.02-22.82-48.97-27.17-63.52-4.83-2.02,3.11-3.69,12.6-5.98,13.21-2.19.59-8.38-2.45-11.23-2.8-22.45-2.82-43.66,13-48.73,33.86-8.45-3.2,0-15.24,3.69-19.88,12.34-15.56,34.22-25.05,53.85-17.05,5.04-26.62,42.56-35.41,63.2-19.97l10.78,10.98c.11-9.06,8.52-19.65,9.31-27.4,3.19-31.16-33.75-52.39-62.05-41.59-4.45-6.55-5.26-12.78-12.66-17.7-17.93-11.93-44.73-7.3-56.83,10.32,11.41,5.32,20.73,14.41,20.53,27.46l-5.04-.1c-1.62-12.8-9.84-20.98-22.57-23.99.2-35.28-38.47-57.69-71.58-46.83-5.38,1.76-9.05,5.49-14.29,7.02-3.75-2.92-.49-8.09-.57-11.47-.91-39.25-53.79-60.59-84.25-35.93,3.3,4.19,8.19,6.19,11.83,10.46,5.81,6.82,8.55,15.62,7.68,24.46-.2,2.07-1.35,8.04-3.59,8.49-4.61.93-1.37-10.91-1.51-13.44-1.61-29.06-44.98-37.51-66.29-22.5-2.2,1.55-5.09,6.6-8.02,5.89-4.15-1.75-2.16-5.91-3.01-9.15-5.1-19.47-27.05-26.72-44.65-16.9-2.24,1.25-11.13,9.64-12.64,8.17-.25-4.31,4.52-8.48,7.88-10.8,19.56-13.51,51.05-4.77,54.8,19.79,3.98-1.34,7.38-3.94,11.31-5.47,12.38-4.83,25.82-4.86,38.4-.64,13.94-21.23-13.58-46.89-36.03-36.99-4.4,1.94-6.7,6.81-11.63,6.17.68-40.14-46.45-66.56-83.49-52.68-6,2.25-9.9,6.11-15.52,8.61-4.96-6.01-8.7-12.4-15.02-17.35-28.11-21.98-79.29-7.87-91.22,25.2-3.41,9.45-2.34,17.5-1.26,27.23-6.18.13-11.3-3.2-17.66-2.77-9.88.68-22.85,8.79-25.03,18.68-2.9,13.13,8.17,15.24,16.47,22.05,16.06,13.19,27.61,35.12,23.15,55.88,1.32,1.55,4.97-5.45,6.12-6.52,5.4-5.01,16.7-8.78,24.14-8.46,10.43.44,26.93,7.36,27.27,18.98-4.53.69-5.83-4.36-8.31-6.39-10.81-8.84-28.5-10.9-39.17-.6-3.24,3.13-3.17,7.56-6.65,9.9-9.21-4.14-19.33-5.14-26,3.59-1.49,1.95-3.53,8.91-5.64,8.47-3.77-3.06.06-10.8,2.54-13.49,4.53-4.92,13.88-6.95,20.46-6.58,2.56-9.42-.3-19.47-4.15-28.21-16.9-38.33-65.49-48.29-101.57-29.6v352.44h2151.49c-.05-118.64-.09-237.27-.14-355.91Z"/><path d="M2151.35,206.54c-5.96,2.32-12.84,5.56-20.07,10.11-11.53,7.25-19.96,15.33-25.76,21.88.6-8.5.39-23.44-7.28-39.3-1.68-3.48-4.11-8.38-8.43-13.13-10-10.99-29.2-19.04-44.14-15.51-2.22-50.41-53.66-81.23-101.73-62.91,6.19-22.99-18.27-42.9-41.1-36.93,7.11-49.09-50.81-88.72-95.47-62.31-7.59,4.49-15.81,13.03-18.59,21.38-4.92-1.68-8.47-5.42-13.36-7.47-39.51-16.55-87.77,15.8-89.38,56.39-3.08.22-4.82-2.14-7.65-3.04-17.69-5.61-34.84,2.95-41.85,19.34-.56,1.32-2.9,7.43-2.9,8.17v14.48c-40.73-26.39-92.44,8.45-88.37,53.91-36.98-20.73-81.04,5.46-86.31,44.92l-10.78-10.98c-20.57-15.38-58.09-6.75-63.2,19.97-39.42-14.24-75.89,29.82-62.67,65.89-10.15-.89-14.68,4.56-18.08,12.95-15.89-7.13-35.8-1.4-43.58,14.01l-4.23-11.35c-15.93-36.27-58.25-50.31-95.42-36.58,6.19-22.99-18.27-42.9-41.1-36.93,7.04-48.79-50.07-88.33-94.84-62.7-7.88,4.51-16.33,13.17-19.23,21.76-5.18-1.92-8.82-5.64-14.1-7.75-39.56-15.79-86.9,16.22-88.63,56.66-3.08.22-4.82-2.14-7.65-3.04-17.69-5.61-34.84,2.95-41.85,19.34-.56,1.32-2.9,7.43-2.9,8.17v14.48c-40.73-26.38-92.43,8.43-88.37,53.91-22.89-13.99-55.05-6.54-71.9,12.98-.06-31.06-35.3-51.08-64.61-43.05-11.13-28.46-54.72-30.08-73.59-7.89-2.77-3.91-2.98-8.57-5.1-13-13.41-28.14-54.14-39.28-81.71-24.92,2.86-38.26-40.48-63.17-75.81-52.2-4.41,1.37-8.05,4.23-12.55,5.27,4.69-26.95-27.31-47.78-50.87-32.96-2.49-1.72-1.14-4.73-1.78-7.23-10.26-39.69-67.71-59.19-101.93-35.62-11.91-21.56-38.73-28.81-62.45-24.75-29.92,5.12-56.95,29.35-52.17,60.63-19.97-5.96-47.6,9.65-41.1,31.95-22.18-8.33-45.32-5.81-66.78,3v5.99c36.08-18.69,84.68-8.74,101.57,29.6,3.85,8.74,6.71,18.79,4.15,28.21-6.58-.37-15.93,1.66-20.46,6.58-2.47,2.69-6.31,10.43-2.54,13.49,2.11.43,4.16-6.52,5.64-8.47,6.67-8.73,16.78-7.73,26-3.59,3.48-2.34,3.41-6.77,6.65-9.9,10.67-10.3,28.36-8.24,39.17.6,2.48,2.03,3.78,7.08,8.31,6.39-.34-11.62-16.84-18.54-27.27-18.98-7.43-.31-18.74,3.45-24.14,8.46-1.15,1.07-4.81,8.07-6.12,6.52,4.46-20.76-7.1-42.68-23.15-55.88-8.29-6.82-19.37-8.93-16.47-22.05,2.19-9.88,15.15-18,25.03-18.68,6.36-.44,11.48,2.9,17.66,2.77-1.08-9.73-2.15-17.78,1.26-27.23,11.94-33.07,63.11-47.17,91.22-25.2,6.33,4.95,10.06,11.34,15.02,17.35,5.62-2.5,9.52-6.36,15.52-8.61,37.05-13.88,84.18,12.54,83.49,52.68,4.93.64,7.23-4.23,11.63-6.17,22.45-9.9,49.97,15.76,36.03,36.99-12.59-4.22-26.03-4.19-38.4.64-3.93,1.54-7.33,4.13-11.31,5.47-3.75-24.56-35.24-33.3-54.8-19.79-3.36,2.32-8.13,6.49-7.88,10.8,1.51,1.47,10.4-6.92,12.64-8.17,17.6-9.82,39.55-2.58,44.65,16.9.85,3.24-1.14,7.4,3.01,9.15,2.93.71,5.83-4.34,8.02-5.89,21.31-15.01,64.68-6.56,66.29,22.5.14,2.52-3.1,14.37,1.51,13.44,2.25-.45,3.39-6.42,3.59-8.49.87-8.84-1.87-17.64-7.68-24.46-3.63-4.27-8.53-6.27-11.83-10.46,30.46-24.66,83.33-3.32,84.25,35.93.08,3.38-3.18,8.55.57,11.47,5.24-1.53,8.92-5.25,14.29-7.02,33.11-10.86,71.78,11.55,71.58,46.83,12.73,3.01,20.95,11.2,22.57,23.99l5.04.1c.2-13.05-9.12-22.14-20.53-27.46,12.11-17.61,38.9-22.25,56.83-10.32,7.39,4.92,8.2,11.15,12.66,17.7,28.3-10.79,65.25,10.43,62.05,41.59-.79,7.75-9.2,18.34-9.31,27.4l-10.78-10.98c-20.64-15.44-58.16-6.65-63.2,19.97-19.62-8-41.5,1.49-53.85,17.05-3.69,4.65-12.14,16.69-3.69,19.88,5.07-20.86,26.28-36.68,48.73-33.86,2.85.36,9.04,3.39,11.23,2.8,2.28-.61,3.95-10.1,5.98-13.21,14.55-22.34,51.49-17.99,63.52,4.83-11.18,5.46-18.32,14.7-20.39,26.76l4.99,3.68c1.94-13.72,9.05-21.94,22.12-26.94-.03-35.14,33.72-66.34,70.34-54.4,3.64,1.19,14.27,8.91,15.9,8.45,3.69-1.04.51-11.04.57-13.47.41-18.08,10.59-36.63,26.8-45.85,18.44-10.48,42.04-10.44,57.38,5.04.21,1.22-9.83,8.98-11.66,11.43-7.77,10.46-10.01,25.66-5.72,37.85l3.13-.44.8-1.21c-.21-8.22-1.67-13.92.88-22.11,7.79-24.97,43.83-33.86,63.9-17.53,2.31,1.88,5.8,7.94,8.65,7.24,3.93-.97,2.52-8.42,3.23-11.92,2.16-10.73,12.08-21.62,23.68-22.92,14.81-1.66,22.52,5.12,31.85,14.96,4.77-3.93-4.91-12.5-8.39-14.79-21.48-14.17-50.8-.29-52.75,24.79-4.02-1.7-6.93-4.77-11.08-6.69-12.13-5.63-26.52-5.94-38.76-.42-12.08-21.2,7.25-50.96,33.44-44.33,5.57,1.41,7.47,7.76,12.78,8.51,1.83-.53,2.27-11.34,2.9-14.18,7.81-35.25,47.76-63.72,83.83-46.11,5.26,2.57,8.61,7.39,13.85,9.24,4.61-5.7,7.4-13.05,12.93-18.38,29.64-28.57,81.94-9.51,93.26,27.29,3.34,10.86,2.16,20.15,1.79,31.21,1.42,2.09,11.63-2.79,15.45-2.83,13.85-.15,28.73,14.69,27.27,28.26-1.03,9.61-13.54,14.91-19.96,21.55-15.06,15.59-24.09,40.48-20.15,61.79-2.45.55-1.66-.4-2.29-1.3-5.86-8.34-10.03-13.36-21.28-15.22-11.7-1.94-28.92,4.29-33.17,15.79-1.29,3.48-.58,7.6,3.02,4.41,1.75-1.55,3.31-5.23,5.4-7.21,10.09-9.55,27.43-10.57,37.58-.5,3.96,3.93,3.56,8.27,7.3,11.97,15.09-6.81,22.77-3.79,29.01,10.66,3.14,7.27,4.88,1.29,3.99-3.88-1.85-10.72-13.81-16.99-24.31-15.82-4.61-29.93,15.26-63.34,44.82-73.56,40.96-14.15,83.43,10.52,89.55,52.32.48,3.31-.81,8.52,1.07,10.95,1.96,2.54,5.01.39,7.75.36,36.97-.35,57.32,32,51.81,65.33-.64,3.9-6.01,20.89-10.49,20.45-12.03-8.52-28.97-9.25-42.15-2.71-2.49,1.24-11.58,7.33-10.95,10.31,4.04,3.77,9.81-3.93,14.39-5.97,15.92-7.07,36.14-2.87,44.05,13.1,3.61,7.29,2.7,12.84,3.32,20.24,8.04-.82,13.01-3.99,21.89-2.8,11.08,1.49,21.25,13.65,21.23,24.38,0,3.25-2.85,7,.43,9.45,2.74-.89,3.64-3.25,4.16-5.91,4.38-22.43-21.65-40.05-42.68-32.01.37-4.29-.62-8.48-2.02-12.52-1.31-3.79-6.77-10.23-6.06-12.72.3-1.04,4.3-5.66,5.37-7.84,18.18-36.77-8.43-92.8-54.83-85.73-2.35-6.72,3.94-16.21,9.33-20.39,7.26-5.63,16.64-7.95,25.59-5.07,2.61.84,9.25,5.61,10.65,5.34,4.3-.82-.43-9.57,5.76-14.38,6.07-4.72,11.47.71,14.53-3.93.82-1.25-2.98-12.6-3.22-15.96-1.95-27.48,21.29-54.08,50.81-50.37,2.85.36,9.04,3.39,11.23,2.8,2.28-.61,3.95-10.1,5.98-13.21,14.55-22.34,51.5-17.98,63.52,4.83-18.38,8.51-23.58,27.98-20.63,46.33-8.93.51-28.43,13.99-17.88,22.05,8.1-25.73,43.7-21.33,46.87,4.87,5.35,1.72,4.81-3.94,7.03-7.39,14.53-22.53,49.54-22.22,59.39,3.25.96,2.49,2.59,12.38,3.24,12.83,2.48,1.75,8.11-2.97,11.98-3.48,15.55-2.05,22.54,8.53,27.65,20.85,4.47-2.54,1.57-8.91-.33-12.64-6.4-12.58-22.26-16.34-35.11-11.3-3.75-23.42-26.4-35.75-49.54-29.67-10.31,2.71-15.52,9.54-22.38,16.68-1.37-5.21-9.37-12.51-14.4-14.47-3.25-1.27-9.61-1.16-10.79-3.49-2.69-5.32.56-21.09,3.42-26.64,4.14-8.03,10.54-10.36,18.18-14.28-.53-38.31,40.98-71.14,77.89-50.76,3.22,1.78,9.04,9.03,9.99,1.37.74-5.96-1.21-12.72.03-19.94,6.25-36.1,54.16-58.71,83.07-30.9.21,1.22-9.83,8.97-11.66,11.43-7.77,10.46-10.01,25.66-5.72,37.85l3.13-.44.8-1.21c-.21-8.22-1.67-13.92.88-22.11,7.79-24.97,43.83-33.86,63.9-17.53,2.31,1.88,5.8,7.94,8.65,7.24,3.93-.97,2.52-8.42,3.23-11.92,2.16-10.73,12.08-21.62,23.68-22.92,14.81-1.66,22.52,5.12,31.85,14.96,4.55-3.5-3.56-11.14-6.65-13.48-21.27-16.13-52.44-2.54-54.49,23.48-4.02-1.7-6.93-4.77-11.08-6.69-12.13-5.63-26.52-5.94-38.76-.42-12.08-21.2,7.25-50.96,33.44-44.33,5.57,1.41,7.47,7.76,12.78,8.51,1.83-.53,2.27-11.34,2.9-14.18,7.82-35.28,47.78-63.71,83.83-46.11,5.26,2.57,8.61,7.39,13.85,9.24,4.61-5.7,7.4-13.05,12.93-18.38,32.73-31.55,91.08-5.02,95.48,37.11.71,6.85-1.17,13.15-.99,18.86.21,6.86,9.99-.03,15.26-.24,14.98-.62,31.37,16.14,27.5,30.72-1.81,6.83-6.42,7.48-10.83,11.44-20.61,18.47-33.31,41.16-28.76,69.4-2.45.55-1.66-.4-2.29-1.3-1.47-2.1-2.37-4.67-4.34-6.72-11.06-11.46-32.43-11.56-44.21-.96-1.77,1.59-10.51,13.49-5.15,13.95,3.68-1.63,4.86-5.84,7.67-8.5,10.09-9.55,27.43-10.57,37.58-.5,3.96,3.93,3.56,8.27,7.3,11.97,15.09-6.81,22.77-3.79,29.01,10.66,3.14,7.27,4.88,1.29,3.99-3.88-1.85-10.72-13.81-16.99-24.31-15.82-4.61-29.93,15.26-63.34,44.82-73.56,40.96-14.16,83.43,10.52,89.55,52.32.48,3.31-.81,8.52,1.07,10.95,1.96,2.54,5.01.39,7.75.36,36.97-.35,57.32,32,51.81,65.33-.64,3.9-6.01,20.89-10.49,20.45-12.03-8.52-28.97-9.25-42.15-2.71-2.49,1.24-11.58,7.33-10.95,10.31,4.04,3.77,9.81-3.93,14.39-5.97,15.92-7.07,36.14-2.87,44.05,13.09,3.61,7.29,2.7,12.84,3.32,20.24,8.04-.82,13.01-3.99,21.89-2.8,11.08,1.49,21.25,13.65,21.23,24.38,0,3.25-2.85,7,.43,9.45,4.16-1.51,4.83-7.58,4.69-11.47-.73-20.24-24.14-33.58-43.21-26.45.88-9.33-4.08-16.61-8.29-24.41,2.18-2.92,4.45-6.52,6.43-10.82.71-1.56,1.33-3.07,1.85-4.52,4.37-6.07,11.05-13.98,20.67-21.53,10.29-8.07,20.24-12.8,27.48-15.59v-5.99Z"/></g></svg>