<?xml version="1.0" encoding="UTF-8"?><svg id="Layer_2" xmlns="http://www.w3.org/2000/svg" viewBox="0 0 312.02 399.84"><defs><style>.cls-1{fill:#fdfcfa;stroke:#111;stroke-miterlimit:10;stroke-width:3px;}</style></defs><g id="Layer_1-2"><path class="cls-1" d="M3.23,2.12c13.53-.64,37.5-.43,50.88,0s45.49.25,56.98,0c11.5-.25,27.8.52,50.88,0s35.12,1.55,44.77,0,35.5.34,47.82,0,39.02,2.38,53.93,0c.72,20.95.77,38.33,0,49.41-.77,11.07,1.26,33.33,0,53.36-1.26,20.02-.25,30.46,0,41.5.25,11.03-2.03,40.27,0,53.36,2.03,13.08,1.62,34.84,0,45.45-1.62,10.61-1.34,31.09,0,53.36,1.34,22.26,3.85,73.63,0,98.81-19.06,1.83-30.95.64-56.98,0s-24.58-.56-41.72,0-29.75,1.54-56.98,0c-27.23-1.54-22.76-.36-44.77,0-22.01.36-36.83.72-50.87,0-14.05-.72-30.63,1.76-53.93,0-.34-10.22,1.04-29.48,0-45.45s-1.62-23.32,0-41.5c1.62-18.19-2.62-36.72,0-57.32,2.62-20.59-1.76-29.5,0-41.5s-1.12-20.72,0-37.55c1.12-16.82-1.77-29.07,0-37.54,1.77-8.48-.83-22.82,0-45.46C4.05,68.41-1.04,29.49,3.23,2.12Z"/></g></svg>