<?xml version="1.0" encoding="UTF-8"?><svg id="Layer_2" xmlns="http://www.w3.org/2000/svg" viewBox="0 0 276.08 269.7"><defs><style>.cls-1{fill:#fdfcfa;stroke:#111;stroke-miterlimit:10;stroke-width:3px;}</style></defs><g id="Layer_1-2"><path class="cls-1" d="M2.91,3.15c18.8-.71,32.95.25,54.15,0,21.2-.24,47.46.76,59.57,0,12.1-.75,32.85-2.45,54.14,0,21.3,2.46,37.46,2.14,48.74,0,11.28-2.13,39.53-2.27,54.15,0,1.74,17.04.28,26.15,0,44.88-.28,18.74,2.2,35.31,0,50.16-2.2,14.86.14,31.75,0,55.44-.14,23.7.93,25.51,0,47.52-.93,22.02,1.83,42.16,0,66-13.91-.97-38.12.16-51.44,0-13.33-.15-37.23.39-56.86,0-19.63-.38-30.66,1.08-48.74,0-18.07-1.07-36.81-2.09-48.73,0-11.92,2.1-48.37.47-64.98,0-2.74-18.71-.77-43.27,0-58.08.77-14.81.47-35.17,0-52.8-.47-17.62-1.03-39.38,0-55.44,1.03-16.05-1.25-51.28,0-97.68Z"/></g></svg>