<?xml version="1.0" encoding="UTF-8"?>
<svg id="Layer_2" xmlns="http://www.w3.org/2000/svg" version="1.1" viewBox="0 0 2123 247.7">
  <!-- Generator: Adobe Illustrator 29.2.0, SVG Export Plug-In . SVG Version: 2.1.0 Build 108)  -->
  <defs>
    <style>
      .st0 {
        fill: #bcf4ae;
      }

      .st1 {
        fill: #e3dcd5;
      }

      .st2 {
        fill: #e8cca7;
      }
    </style>
  </defs>
  <g id="OBJECTS">
    <rect class="st2" y="77.1" width="2122.9" height="170.6"/>
    <path class="st0" d="M9.6,86.5c-1.5-18.2-2.1-37.1-1.8-56.8,0-2.7.1-5.4.2-8.1l-5.1,11.6c-1,3.5-2,7-3.1,10.5.4,15.3.7,30.5,1.1,45.8,2.9-1,5.8-1.9,8.6-2.9Z"/>
    <path d="M2122.9,86.2c-5.2.8-10.5-.8-15.4-1-10-.4-20.1.6-30,0-13.2-.8-25.7-4.5-39-4-19.7.8-36.4,9.4-56.9,8-7.5-.5-15.3-3.4-23-3.4-13.7,0-29.1,3.2-43.1,3.1-12.7,0-25-3.5-37.9-2.7-14.2.9-23.9.9-37.9,1-6.6,0-14,2.7-21,2.1-7.5-.6-13.9-6.1-20.9-6.1s-20.8,5-30,5.1c-6.2,0-11-3-16.2-3.8-11-1.8-31,5.1-43.7,5.8-18.7,1-36.8-4.5-54.1-4.1-27.8.6-45.6,8.7-75.6,1.8-4.6-1.1-12.3-5.5-16.1-5.4-5.4,0-13.9,4.7-20.4,5.4-4.9.6-10-.3-14.6.4-3.7.5-6.8,2.7-11.1,3-7.8.5-11.6-4-18-4.1-5.8,0-12,3.4-17.9,3.1-6.5-.3-15.3-5-21.9-4.9-9.5.2-22.4,7.2-32,7.9-7.9.6-13.2-3-20-3.1-4.1,0-8,1.7-12,2.1-13.3,1.1-25.9-5-38.8-3.8-7.8.7-13.4,3.7-22.1,2.9-6.6-.6-14.8-5.3-21-5-8.4.4-19.8,10-30.1,10.9-9.8.9-17.9-3.9-25.9-3.9s-12,4.2-17.9,4c-9-.2-22.8-8.9-30-8.8-7.9,0-19.3,7-28,6.9-7.6,0-10.7-4.2-16.5-6.6-7.3-3-45-5.3-53.5-4.5-5.9.6-11.4,3.4-17.8,3.7-20.4.8-42.4-7.6-63-5.5-8.5.9-17.7,5.8-26.1,5.9s-19.8-2.7-29-3.1c-10-.5-20.1.6-30,0-12.8-.7-25.1-4.4-38-4-20,.6-37.2,9.4-57.9,8-7.5-.5-15.3-3.4-23-3.4-13.7,0-29.1,3.2-43.1,3.1-12.7,0-25-3.5-37.9-2.7-14.2.9-23.9.9-37.9,1-6.6,0-14,2.7-21,2.1-7.2-.5-13.6-5.9-20-6.1-9-.2-21.5,5-30.9,5.1-6.2,0-11-3-16.2-3.8-11-1.8-31,5.1-43.7,5.8-18.7,1-36.8-4.5-54.1-4.1-27.8.6-45.6,8.7-75.6,1.8-4.6-1.1-12.3-5.5-16.1-5.4-5.4,0-13.9,4.7-20.4,5.4-4.9.6-10-.3-14.6.4-3.7.5-6.8,2.7-11,3-7.8.5-11.6-4-18-4.1-5.8,0-12,3.4-17.9,3.1-6.5-.3-15.3-5-21.9-4.9-9.5.2-22.4,7.2-32,7.9-7.9.6-13.2-3-20-3.1-4.1,0-8,1.7-12,2.1-13.3,1.1-25.9-5-38.8-3.8-7.8.7-13.4,3.7-22.1,2.9-6.6-.6-14.8-5.3-21-5-8.4.4-19.8,10-30.1,10.9-9.8.9-17.9-3.9-25.9-3.9s-12,4.2-17.9,4c-9-.2-22.8-8.9-30-8.8-7.6,0-18.8,6.7-27,6.9-9.8.2-14.5-6.9-22.1-8-8.5-1.2-17.1,1.5-25.4,2.9v-6l1.5,2.1,5.4-1.1c-1.9-19.6-2.3-39.2-1-58.9l-3.5,8L0,48.3v-17.5C0,28.9,7.3,10.9,8.8,7.5c.5-1.2-.4-2.7,1.8-2.2l10.5,41.9c.9-6.6,3.1-13.5,5.8-19.6,1.4-3.1,10.1-19.5,12.7-19.2,8.2,15.8,10.1,34.4,12.5,51.9,1.5.2,1.2-1.9,1.5-3,1.9-7.6,2.9-15.1,5.2-22.7,5-16.1,6.7-20.4,12.5-1,1.8,6.1,3.1,12.4,3.7,18.7l6.1-30.9h2.9l9.1,31.9c.5-4.2,4.1-30.9,7.5-30.9,3.3,4.7.7,12,1.5,17.4l2,10.5c.9-9.6,2.8-19.8,5.3-29.2.7-2.7,4.2-17.5,7.2-16.8,1.7.4,9.3,29.7,10.5,33.9l6.5-28c1-1.3,1-1.1,2,0,1.8,2.1,5.2,12.5,6.2,15.7,2.4,7.7,3.5,15.8,5.3,23.7.4,1.5-.7,1.7,2,1.5l4.1-14.9h2.9l1,12.9,1.5-1c5-13.8,8.3-32.4,16.2-44.7.5-.8.6-2.7,2.2-1.3,1.7,1.5,3.6,39.9,4,45.5l2,1.5c1.5-10,4.8-20.5,8.5-29.9,1.6-4.1,5.2-13.2,7.6-16.3.9-1.1,1.1-2,2.8-1.6l5.5,43,1.5,1c1.1-6.2,3.1-13,5.8-18.6.6-1.2,3.2-7.8,5.1-6.3,5.2,11.6,6.5,24.4,7,36.9l8.8-21.6c.6-.7,4.2-8,5.7-5.3,1.7,7.5-.3,15.1-.6,22.5,0,1.1-.7,4.7,1,4.5,4.6-12.6,10.2-25.3,18.5-35.9l1.9,2,6.5,24,6-32.9,2.7,2.8,7.2,27.2c1.8-15.2,5.5-30.8,13.5-43.9,1.9-.5,2.8,2.5,3.2,3.8,4.1,10.5,4.9,25.4,6.3,36.7.2,1.8-.4,1.6,2,1.5.1-14.4,5.1-28.1,9.9-41.3,0-1,2.1-.8,2.5-.6,4,1.8,10,35,9.5,40.9,4.2-2.7,1.5-12.7,8-12,0,2.8-.2,5.6.1,8.4.1,1.2.4,5.5,1.9,5.6l8.9-29.4,3.1-.6,2,34.9,14.5-34,2.6.6c2.4,7.8,1.6,15.9,1.9,23.9,0,1.2-.8,3.7,1,3.5,2.2-8.6,5.2-18.3,9.3-26.2.7-1.4,4.6-9.3,6.7-7.8,3.7,13.5,4.5,27.5,5,41.4,0,1.2-.7,3.7,1,3.5,4.2-15,12.5-30.2,21.7-42.7.8-1.1.8-2.1,2.8-1.2,3.5,1.5.5,14.9.5,18.4-.1,6.9.8,13.6,1.1,20.5,1.4.2,1.4-1.8,1.7-2.8,1.1-4.1,1.4-7.8,3.1-11.9.5-1.2,3.2-7.7,5.2-6.3l4,21.9c2.2-7.2,3.8-14.7,6.8-21.6,1-2.3,7.6-14.8,9.7-14.3,7.9,11.7,9.3,22.9,11.8,36.2.2.9.4,3,1.7,2.7,2.9-14.7,9-29.3,18.5-40.9l2.4,3.6,5.1,36.4c2.1-9.1,6-18,10.1-26.3,2.3-4.7,6.7-13.4,9.7-17.3.7-.9.9-2.6,2.7-2.3,2.9.7,6.8,32.3,7.5,36.9l5.9-16.5c3.3-6.4,4.4,1.6,4.9,5.2l2.1,18.3,8.1-30.9h2.8l8.1,33.9c1.5,1.6,1.8-.2,2-1.5,2.3-15.3,6.8-30.8,17.5-42.4,1.5.9,1.4,1.9,1.5,3.4,1,9.2,0,20.6,1,30l2,9.5c1.5-9.1,3.8-18.6,7.2-27.2.9-2.3,6.6-15.3,9.2-14.7,2.6,5.4,3.4,12.6,4.3,18.6,1.5,9.5,1.6,19.3,3.2,28.8.2,1.5,0,3.1,2,3.5-.5-5.8,5-34.1,9.5-35.9,1.8-.7,1.6,1.1,1.9,2,3.3,8.8,4.7,20.6,7.1,29.9.3,1.1,0,3.2,1.5,3-2-6.8,12.1-46.5,18.5-44.9,9,11.5,14,25.4,15,39.9,2.8-5.7,3.3-12.6,5.5-18.5.4-1.1,4.7-11.8,5.9-6.8l2.1,14.3c2.5-13.4,10.6-24.7,16-36.9,2.9-.4,3.6,3.4,3.9,5.6,1.8,11.7.6,24.5,2.1,36.4l8.5-24.9c1.3,0,2.2,8.1,2.4,9.6.7,5.7,0,11.7,1.6,17.3l7.8-28.2c2.9-5.6,3.8-14.1,9.2-17.7,3.3.8,8.2,41.9,7.5,47.9l14.5-34.9,2.9-2.1,7.5,41.9,4-15.5c1.2-2.7,2.4-8.1,6-6,.2,5.2.4,10.9,1,16,.2,1.5.7,3,2,1.5,1-6.9,3.2-14.2,5.8-20.6,1.3-3.2,8.3-18,10.1-19.6,1-.9,1.2-.8,2.6-.7,2.2.7,8.4,36.8,8.5,41.9l9-28,3,.4,5.9,27.5c2.3-9.8,6.9-20.6,12.2-29.2,2.1-3.4,3.6-7.2,7.2-2.6,7.2,9,8.5,23.5,10.6,34.4.3,1.6-.7,1.7,2,1.5-.8-4.8,6-32.1,9.5-33,1.7-.4,2.5,1.9,3,3,2.4,5.5,3,15.8,4.8,22.2.3,1,.2,3,1.7,2.8,3-14.9,7.5-30,15.5-42.9,2-.5,9.4,12.8,10.7,15.3,2.5,4.9,3.7,9.6,5.8,14.2.5,1,.6,2.3,2,2.5l3.1-26.9h2.9l9,25.9,4.2-31.3,2.8-1.7,7,34.9c1.7-13.7,4.2-27.4,8.9-40.3.2-.9,2-.8,2.6-.6,2.6.8,8.1,37.7,7.5,43l9.5-21,5-6,7.5,37.9,8.1-24.3c2.4-4.6,12.5-26.6,17.3-26.6s4.3,10.8,4.5,13.5c.8,10,.3,21.3,1,31.4l7.1-19.3,3.4-3.6c2.7.6,2.9,26.8,6,30.9,6.1-16,10.6-33.1,26-42.9,1.4.3,2.3,7.8,2.5,9.5.9,9.6.6,19.4,1,29,0,1.2-.8,3.7,1,3.5,3.2-11.1,7.8-23.2,12.8-33.6,2-4.2,2.9-10.4,7.6-5.2,5.4,5.9,8.8,19,9.6,26.9l4.2-15.2,2.8-1.7,4.5,30c2.8-13.2,5.2-26.8,12.5-38.5,3.2-2,8.6,13.7,9.8,16.4.7,1.4-.6,2.7,2.3,2.2l2-28,2.8,1.7,11.2,35.2c1.9-12.2,3.8-24.5,8.5-35.9.7-1.6,2.1-6.1,4-6.1l3.4,1.7,8.2,40.3,6.2-18.2c1.7-4.1,8.2-16.7,11.1-19.4.7-.7,2.5-1.8,3.2-.3,7,16.2,8.8,33.8,12,51,2.4-8.5,3.6-17.3,6.2-25.7,4.9-16.1,6.7-20.4,12.5-1,1.8,6.1,3.1,12.4,3.7,18.7l6.1-30.9h2.9c3.7,10.4,7.5,20.8,8.1,31.9l6-27.4,2.5-3.5c2.7,0,1,15.1,1.5,17.4l2,10.5c-.2-6,7.9-45.1,11.5-45.9,1.6-.4,2.1,1.3,2.6,2.4,3.9,8.6,5.5,22.3,8.9,31.5l6.5-28c1-1.3,1-1.1,2,0,1.8,2.1,5.2,12.5,6.2,15.7,2.3,7.7,3.5,15.8,5.3,23.7.3,1.5-.7,1.7,2,1.5l4.1-14.9h2.9l1,12.9,1.5-1c5-13.8,8.3-32.4,16.2-44.7.5-.8.6-2.7,2.2-1.3,1.7,1.5,3.6,39.9,4,45.5l2,1.5c3-14,8-33.6,15.8-45.6.8-1.2.9-2.3,2.7-2.3s5.1,26.8,5.4,29.6c0,1.2-.3,16.9,2.1,14.4,1.1-6.2,3.1-13,5.8-18.6.6-1.2,3.2-7.8,5.2-6.3,5.2,11.6,6.5,24.4,7,36.9l8.8-21.6c.6-.7,4.2-8,5.7-5.3v27c5.6-12.3,10.4-25.3,19-36l1.9,2,6.5,24,6-32.9,2.7,2.8,7.2,27.2c1.8-15.2,5.5-30.8,13.5-43.9,1.9-.5,2.8,2.5,3.2,3.8,4.1,10.5,4.8,25.4,6.3,36.7.2,1.8-.4,1.6,2,1.5.5-13.1,4.1-28,9.6-39.9,1.6-3.6,2.8-2.8,4.5.4,5.4,10,6.7,27.2,7.9,38.5,4.2-2.7,1.5-12.7,8-12,0,2.8-.2,5.6,0,8.4,0,1.2.4,5.5,1.9,5.6l8.9-29.4,3.1-.6,2,34.9,14.1-33.8c2.9-.7,3.1,0,3.6,2.6,1.4,7.6,1,14.2,1.3,21.7,0,1.2-.8,3.7,1,3.5,2.2-8.6,5.2-18.3,9.3-26.2.7-1.4,4.6-9.3,6.7-7.8,4,14.6,4.7,29.8,5,44.9l12.5-27,11.1-17,3,1c.8,12.6-1.6,25.3.5,38,1.4.2,1.4-1.8,1.7-2.8,1.1-4.1,1.4-7.8,3.1-11.9.5-1.2,3.2-7.7,5.2-6.3l4,21.9c2.2-7.2,3.8-14.7,6.8-21.6,1-2.3,7.6-14.8,9.7-14.3,2.9,5.8,6.6,12.2,8.5,18.4,2.2,6.9,2.3,13.8,4.5,20.5,4-14.5,9.1-29.3,19-40.9l2.4,3.6,5.1,36.4c-.2-6.1,19-45.3,21.5-45.9s3.5,7.1,4,9c2.3,9.2,3.1,18.6,4.5,28l5.9-16.5c3.3-6.4,4.4,1.6,4.9,5.2l2.1,18.3,8.1-30.9h2.8l8.1,33.9c1.5,1.6,1.8-.2,2-1.5,2.3-15.3,6.8-30.8,17.5-42.4,1.4.9,1.4,1.9,1.6,3.4,1,9.2,0,20.6,1,30l2,9.5c1.4-9.1,3.8-18.6,7.2-27.2.9-2.3,6.6-15.3,9.2-14.7,2.6,5.4,3.4,12.6,4.3,18.6,1.5,9.5,1.6,19.3,3.2,28.8.2,1.5,0,3.1,2,3.5-.5-5.8,5-34.1,9.5-35.9,1.8-.7,1.6,1.1,1.9,2,3.3,8.8,4.7,20.6,7.1,29.9.3,1.1,0,3.2,1.5,3-2-6.8,12.1-46.5,18.5-44.9,9,11.5,13.9,25.4,15,39.9,2.8-5.7,3.3-12.6,5.5-18.5.4-1.1,4.7-11.8,5.9-6.8l2.1,14.3c2.6-13.4,10.6-24.7,16-36.9,2.9-.4,3.6,3.4,3.9,5.6,1.8,11.7.6,24.5,2.1,36.4l8.5-24.9c1.3,0,2.2,8.1,2.4,9.6.7,5.7,0,11.7,1.6,17.3l7.8-28.2c2.9-5.6,3.8-14.1,9.2-17.7,3.3.8,8.2,41.9,7.5,47.9l14.5-34.9,2.9-2.1,7.5,41.9,3.9-15.5c1.2-2.7,2.4-8.1,6-6,.2,5.2.4,10.9,1,16,.2,1.5.7,3,2,1.5,1-6.9,3.2-14.2,5.8-20.6,1.3-3.2,8.3-18,10.1-19.6,1-.9,1.2-.8,2.6-.7,2.2.7,8.4,36.8,8.5,41.9l9-28,3.1.4,5.9,27.5c2.3-9.8,6.9-20.6,12.2-29.2,7.2-11.7,9.2,3.4,13.3,9.3l6,24c.2-4.7,6.2-32,10-33,1.7-.4,2.5,1.9,3,3,2.4,5.5,3,15.8,4.8,22.2.3,1,.2,3,1.7,2.8,3-14.9,7.5-30,15.5-42.9,2-.5,9.4,12.8,10.7,15.3,2.5,4.9,3.7,9.6,5.8,14.2.5,1,.6,2.3,2,2.5l3.1-26.9h2.9l9,25.9,4.2-31.3,2.8-1.7,7,34.9c0-5.1,6.8-40.1,9.5-41,.6-.2,2.4-.3,2.6.6,4.1,13.8,6.3,28,6.9,42.3l9.5-21,5-6c1.6.9,1.2,2.2,1.5,3.5,2.3,8.8,2,19.4,4.3,28.7.4,1.5,1,5.3,2.7,5.8,3.1-15.8,9.1-32.2,19-44.9v5c-12.4,17.1-8.5,42.7-12,62.9l-2-2.5,4-41.4c-1.5.5-2,4.4-2.5,6-1.2,4-6.5,21.9-6.5,24.5v16.5l19,1v3h-.2l.4-.9h.1ZM323.8,82.2l1-65.4-2.5-10.5c-3.6,25.1-4.4,50.6-2.5,75.9h4ZM1457.2,82.2l1-65.4-2.5-10.5c-3.6,25.1-4.4,50.6-2.5,75.9h4ZM299.9,88.2l-1.5-80.9c-1.9,0-2.3,28.5-2.5,31.5-.1,1.7-.9,3.3-1,5-.8,14.9-.8,29.9-1,44.9l6-.5h0ZM1433.3,88.2l-1.5-80.9c-1.9,0-2.3,28.5-2.5,31.5,0,1.7-.9,3.3-1,5-.8,14.9-.8,29.9-1,44.9l6-.5ZM937.5,13.8v67.4h5c-.5-15.4,3-30,2-45.5-.3-4.7-2.8-22.9-4.5-26.4-.2-.5-1.3-1.3-1.5-1,.8,2.1-.9,4.2-1,5.5h0ZM2070.9,13.8v67.4h5c-.5-15.4,3-30,2-45.5-.3-4.7-2.8-22.9-4.5-26.4-.2-.5-1.3-1.3-1.5-1,.8,2.1-.9,4.2-1,5.5ZM163.9,87.2c2.4,0,5.6-.7,6-3.5l5-73.4-5.7,14.8c-4.2,20.4-5.9,41.3-5.3,62.1h0ZM194.9,86.2l5-75.9c-2.7,1.9-3.1,7.5-3.7,10.8-3.8,20.8-5.7,42.4-6.3,63.5l5,1.7h0ZM1142.4,10.3c-2.6-.5-1.7.6-2.5,1.9-1.4,2.6-2.1,5.4-2.8,8.2-5.1,19.5-6.1,40-5.7,60.1,2.5,2.6,6.1,1.6,9,.7-3-23.4-2.4-47.6,2-70.9h0ZM1297.3,87.2c2.4,0,5.6-.7,6-3.5l5-73.4-5.7,14.8c-4.2,20.4-5.9,41.3-5.3,62.1h0ZM1328.3,86.2l5-75.9c-2.7,1.9-3.1,7.5-3.7,10.8-3.8,20.8-5.7,42.4-6.3,63.5l5,1.7h0ZM317.7,83.1c-.4-13.1-1.5-26.2-.9-39.4.4-10.7,2.7-21.7,2.5-32.4-8.5,23.1-10,48.4-9.5,72.9l7.9-1.1h0ZM511.7,84.2l4-72.8c-3.7,2.8-4.2,10.1-4.9,14.6-2.4,17.2-3.6,36.5-4.1,53.8,0,1.4-.7,2.7-1,4l6,.5h0ZM721.6,85.2l2-73.9c-8.3,10.7-5.5,28.3-6,41.5,0,2.4-1,4.5-1.1,6.9-.2,7.9,0,15.9.2,23.9l4.8,1.6h0ZM970.5,65.7c-.6,5.1.5,11.2,0,16.5l21,1c.9-24,3.6-47.9,3-71.9-2.4,1.2-2.5,6-2.9,8.6-1.7,10.7-2.3,23.9-3.1,34.8-.7,8.7-.8,17.7-1,26.4l-2-1.5,5-64.4c-1.6.4-2.4,2-3.2,3.3-9.4,14.8-6.6,43.4-9.8,60.6l-2-2.5,4-41.4c-1.5.5-2,4.4-2.5,6-1.8,6.3-5.8,18.6-6.5,24.5h0ZM1451.1,83.1c-.4-13.1-1.5-26.2-.9-39.4.4-10.7,2.7-21.7,2.5-32.4-8.5,23.1-10,48.4-9.5,72.9l7.9-1.1ZM1645.1,84.2l4-72.8c-3.7,2.8-4.2,10.1-4.9,14.6-2.4,17.2-3.6,36.5-4.1,53.8,0,1.4-.7,2.7-1,4l6,.5h0ZM1855,85.2l2-73.9c-8.3,10.7-5.5,28.3-5.9,41.5,0,2.4-1,4.5-1.1,6.9-.2,7.9,0,15.9.2,23.9l4.8,1.6h0ZM687.7,13.3c-5.6,13.2-8.9,28.3-10.9,42.6-.5,3.9-2.7,24.5-1.6,26.4l6,2.9,6.5-71.8h0ZM1821.1,13.3c-5.6,13.2-8.9,28.3-10.9,42.6-.5,3.9-2.7,24.5-1.6,26.4l6,2.9,6.5-71.8h0ZM42,90.2c-1.3-20.9,1.5-43.5,0-64.4-.2-2.7-.9-5.8-1.6-8.4-.3-1.1,0-3.2-1.5-3l-4.8,72.3,7.8,3.6h0ZM1175.4,90.2c-1.3-20.9,1.5-43.5,0-64.4-.2-2.7-.9-5.8-1.6-8.4-.3-1.1,0-3.2-1.5-3l-4.8,72.3,7.8,3.6h0ZM291.8,90.2l3-74.9-4.1,11.4c-5.5,20.2-1,41.5-3.8,62l4.9,1.6h0ZM300.9,87.2c10.2-1.2,7.2-1.5,7-8.5s1.7-17.6,1.1-23c-.3-2.5-2.3-5.8-2.8-9.2-.5-3.1-2.9-31.2-4.8-31.2l-.5,71.9h0ZM383.7,87.1l7.1-71.8c-1.7.3-1.8,2-2.1,3.3-1.4,4.8-2.5,11.4-3.5,16.4-3.6,17.5-6.2,35.2-5.3,53.1l3.9-1.1h-.1ZM407.8,84.2c.8-23.4,7.8-46,12-68.9l-7.5,11c-4.6,8.9-8.5,33-9.5,43.5-.4,4.2.6,10,0,14.4h5ZM594.7,83.2l1-67.9c-2.3,1-2.6,6.3-2.9,8.6-.6,6.5-1,15.3-1.2,21.8-.3,11.5-.3,24.6,1,36,.2,1.5.8,3,2,1.5h.1ZM1425.2,90.2l3-74.9-4.1,11.4c-5.5,20.2-1,41.5-3.8,62l4.9,1.6h0ZM1434.3,87.2c10.2-1.2,7.2-1.5,7-8.5s1.7-17.6,1.1-23c-.3-2.5-2.3-5.8-2.8-9.2-.5-3.1-2.9-31.2-4.8-31.2l-.5,71.9h0ZM1517.1,87.1l7.1-71.8c-1.7.3-1.8,2-2.1,3.3-1.4,4.8-2.5,11.4-3.5,16.4-3.6,17.5-6.2,35.2-5.3,53.1l3.8-1.1h0ZM1541.2,84.2c.8-23.4,7.8-46,12-68.9l-7.5,11c-4.6,8.9-8.5,33-9.5,43.5-.4,4.2.6,10,0,14.4h5ZM1728.1,83.2l1-67.9c-2.3,1-2.6,6.3-2.9,8.6-.6,6.5-1,15.3-1.2,21.8-.3,11.5-.3,24.6,1,36,.2,1.5.8,3,2,1.5h0ZM33,86.2l4-69.9c-1.4.5-3,3.7-3.5,5-1,2.5-1.6,5.2-2.2,7.8-1.4,6.1-6,52.9-4.2,55,0,0,5.9,2.1,5.9,2.1ZM105.9,93.2l8.7-2.4c-4-24.7.2-49.6-.7-74.4l-2.7,7.8c-5.3,22.9-8,45.6-5.3,69.1h0ZM132.9,91.2c-1.1-22.8-6-45.1-12.5-66.9-.7-2.3-1.5-6.6-3.5-8l5.9,72.2,10,2.7s.1,0,.1,0ZM565.7,87.2c2.4.3,3.5,0,4-2.5l4-68.4c-2.6,1-3.4,3.8-4.3,6.2-4.4,12.5-2.8,26.3-4.8,39.2l1,25.5h0ZM1166.4,86.2l4-69.9c-1.4.5-3,3.7-3.5,5-1,2.5-1.6,5.2-2.2,7.8-1.4,6.1-6,52.9-4.2,55l5.9,2.1h0ZM1239.3,93.2l8.7-2.4c-4-24.7.2-49.6-.7-74.4l-2.7,7.8c-5.3,22.9-8,45.6-5.3,69.1h0ZM1266.3,91.2c-1.1-22.8-6-45.1-12.5-66.9-.7-2.3-1.5-6.6-3.5-8l5.9,72.2,10,2.7h0ZM1699.1,87.2c2.4.3,3.6,0,4-2.5l4-68.4c-2.6,1-3.4,3.8-4.3,6.2-4.4,12.5-2.8,26.3-4.8,39.2l1.1,25.5h0ZM136.9,92.2l-3-74.9c-1.9,10-4.4,22.3-4.1,32.5.3,7.7,3.2,17,4,24.9.5,5.2.9,12.6,0,17.5h3.1ZM479.6,87.1l6.1-69.8c-1.6.5-2.5,4-3,5.5-3.4,9.8-6,25.6-7,36-.5,5-1.4,19.5-.9,23.8.1,1.3.9,4.4,1.9,5.2l2.9-.7h0ZM880.5,81.2l9-1.5c1.1-.8.9-1.9,1-3,1.2-9.8.2-28.8-1.2-38.9-.9-6.9-2.2-14.9-6.4-20.6l-2.5,63.9h.1ZM1270.3,92.2l-3-74.9c-1.9,10-4.4,22.3-4.1,32.5.3,7.7,3.2,17,4,24.9.5,5.2.9,12.6,0,17.5h3.1ZM1613.1,87.1l6.1-69.8c-1.6.5-2.5,4-3,5.5-3.4,9.8-6,25.6-6.9,36-.4,5-1.4,19.5-.9,23.8.2,1.3.9,4.4,1.9,5.2l2.9-.7h0ZM2013.9,81.2l9-1.5c1.1-.8.9-1.9,1-3,1.2-9.8.2-28.8-1.2-38.9-.9-6.9-2.2-14.9-6.4-20.6l-2.5,63.9h0ZM691.5,85.1c-1.2-7.8,2.2-17.3,1.8-24.6,0-1.6-1.7-2.7-1.8-4.7-.3-12.5,1.1-25.2-1.4-37.5-2.3,21.4-5.5,42.9-5.5,64.5l1.7,3.4,5.3-1h0ZM729.6,85.2c0-15.8.4-31.7-1-47.4-.5-4.9-1.1-12-2.3-16.7-.2-1-.3-3-1.7-2.8l-1,66.9h6ZM787.6,84.2c-2.2-.6-1.9-2.7-2-4.4-1.6-19.7.9-41.7,1-61.5l-4.9,9.5-3.1,57.3c3-.6,13.8,1.5,14.9-1.6-.2-9,1.7-17.8,1.1-26.8-.7-10.3-4.3-21.1-5-31.5-1.1-.4-2,3.3-2,3.5v55.4h0ZM873.5,83.2l4.1-.4,2.9-64.5c-1.6.6-2.9,4.6-3.3,6.2-2.3,8.6-3.3,25-3.7,34.2-.4,8.1.3,16.4,0,24.5h0ZM998.4,84.1c.5-2.1,1-4.2,1.2-6.3,1.2-17.2-3.7-33.7-2-51l-2-8.5c.7,22.1-.9,43.9-2,65.9h4.9-.1ZM1824.9,85.1c-1.2-7.8,2.2-17.3,1.8-24.6,0-1.6-1.7-2.7-1.8-4.7-.3-12.5,1.1-25.2-1.4-37.5-2.3,21.4-5.5,42.9-5.5,64.5l1.7,3.4,5.3-1h0ZM1863,85.2c0-15.8.4-31.7-1-47.4-.4-4.9-1.1-12-2.3-16.7-.2-1-.3-3-1.7-2.8l-1,66.9h6ZM1921,84.2c-2.2-.6-1.9-2.7-2.1-4.4-1.6-19.7.9-41.7,1-61.5l-4.9,9.5-3.1,57.3c3.1-.6,13.8,1.5,14.9-1.6-.2-9,1.7-17.8,1.1-26.8-.7-10.3-4.3-21.1-5-31.5-1.1-.4-2,3.3-2,3.5v55.4h0ZM2007,83.2l4.1-.4,2.9-64.5c-1.6.6-2.9,4.6-3.3,6.2-2.3,8.6-3.3,25-3.7,34.2-.4,8.1.3,16.4,0,24.5h0ZM203.9,88.2c.1-19.9,3-41.4-.3-61.1-.3-2.1-.7-6.9-2.7-7.8l-3.4,68s6.4.9,6.4.9ZM935.5,80.2V19.3l-2.9,11.6c-.2,12.5-4.1,25.5-4.2,37.8,0,3.4,2,6.6.5,10.5l6.6,1h0ZM1337.3,88.2c0-19.9,3-41.4-.3-61.1-.3-2.1-.7-6.9-2.7-7.8l-3.4,68s6.4.9,6.4.9ZM2068.9,80.2V19.3l-2.9,11.6c-.2,12.5-4.1,25.5-4.2,37.8,0,3.4,2,6.6.5,10.5l6.6,1h0ZM449.8,85.2l3-64.9c-1.5-.2-1.2,1.9-1.5,3-.5,2.3-1,5.2-1.4,7.6-1.5,10.7-2.8,24.1-3.2,34.8-.1,4.3-.6,13.2,0,17,.3,1.7,1.1,2.8,3,2.5h.1ZM646.7,83.2c-.7-19.3,1.4-39.1-1.1-58.3,0-1.1-.4-4.7-1.9-4.6l-3,62.9h6ZM1583.2,85.2l3-64.9c-1.5-.2-1.2,1.9-1.5,3-.5,2.3-1,5.2-1.4,7.6-1.4,10.7-2.8,24.1-3.2,34.8-.2,4.3-.7,13.2,0,17,.3,1.7,1.1,2.8,3,2.5h0ZM1780.1,83.2c-.7-19.3,1.4-39.1-1.1-58.3,0-1.1-.4-4.7-1.9-4.6l-3,62.9h6ZM516.7,83.2c1.9-20.8,6.7-41.1,1.5-61.9l-4.5,61.4,3,.5h0ZM639.7,84.2l-1-16.5,3-46.4c-3.5,2.3-4.3,7.7-4.9,11.6-1.4,9.5-.8,20.2-1.1,29.8-.3,6.8-1.8,14.3-1,21.5h5ZM1037.4,77.2c-1.8-.4-2-1.8-1.9-3.3.3-13.5,4.9-30.2,5.9-44.1.2-2.8,0-5.7,0-8.5-1.5,0-1.9,3-2.2,4.2-1.9,5.9-11.6,50.8-9.7,52.7l14,1c-.5-4,2.1-9.7,1.7-13.4-.2-1.5-1.7-2.8-1.7-5.1-.2-8.1.2-16.4,0-24.5-1.5,0-1.7,2.5-1.9,3.6-2.2,11.9-1.7,25.3-4.1,37.3h-.1ZM1066.4,81.2c0-15.8,4.2-31.5,3-47.5-.3-3.7-.7-10.5-4-12.4l-4,59.3,5,.6h0ZM1650.1,83.2c1.9-20.8,6.7-41.1,1.5-61.9l-4.5,61.4,3,.5h0ZM1773.1,84.2l-1-16.5,3-46.4c-3.5,2.3-4.3,7.7-4.9,11.6-1.4,9.5-.8,20.2-1.1,29.8-.3,6.8-1.8,14.3-1,21.5h5ZM187.9,84.2c-.9-20.8,4.1-41.2,6-61.9l-5.5,14c-4.4,15-7.4,29.6-7.5,45.3l7,2.7h0ZM354.7,85.1l1.1-26.3-5-36.5v61.4l1.5,2.5,2.4-1.1h0ZM356.8,55.2c-.8,1.2,0,24.9,0,29h4l9-61.4-5,9c-3.2,8.1-4,17-8,23.5h0ZM509.7,22.3c-2.7-.5-1.7.6-2.4,2-8.8,18-7.5,41.3-9.5,60.9,2.1,0,6,.8,6.9-1.6l5.1-61.3h-.1ZM927.5,79.2c.4-17.6-1.1-37-5.3-54.1-.2-1-.3-3-1.7-2.8l2,27.4.9,29.1,4.1.4ZM1124.4,81.2v-9.5l-8-49.4c-2.6,19.4.7,38.5,1,57.9l7,1ZM1321.3,84.2c-.9-20.8,4.1-41.2,6-61.9l-5.5,14c-4.4,15-7.3,29.6-7.5,45.3l7,2.7h0ZM1488.1,85.1l1.1-26.3-5-36.5v61.4l1.5,2.5,2.4-1.1h0ZM1490.2,55.2c-.8,1.2,0,24.9,0,29h4l9-61.4-5,9c-3.2,8.1-4,17-8,23.5h0ZM1643.1,22.3c-2.7-.5-1.7.6-2.4,2-8.8,18-7.5,41.3-9.6,60.9,2.2,0,6,.8,6.9-1.6l5.1-61.3h0ZM2060.9,79.2c.4-17.6-1.1-37-5.3-54.1-.2-1-.3-3-1.7-2.8l2,27.4.9,29.1,4.1.4ZM377.8,87.2c-1-21.7,3.3-42.9,8-63.9l-4,8.5c-6.1,17.1-9.8,35.2-10.8,53.3l6.8,2.2h0ZM409.8,83.2l8.9-2.6,2-57.3-2.5,8c-.9,6.5-10.9,49.5-8.5,51.9h.1ZM451.9,85.1c2.5,1.2,5.4,2.2,5.8-1.4l-2-60.4-3.8,61.8h0ZM591.7,23.3c-2.8-.5-1.6.7-2.2,2.2-.9,2.1-1.6,4.6-2.2,6.8-5.1,16.8-7,35.5-5.5,52.9l10-1c-3.8-18.6-1.4-37.7-1.1-56.5,0-1.7.4-2.9,1.1-4.4h0ZM1511.2,87.2c-1-21.7,3.3-42.9,8-63.9l-4,8.5c-6.1,17.1-9.8,35.2-10.8,53.3l6.8,2.2h0ZM1543.2,83.2l8.9-2.6,2.1-57.3-2.5,8c-.9,6.5-10.9,49.5-8.5,51.9h0ZM1585.3,85.1c2.5,1.2,5.3,2.2,5.8-1.4l-2-60.4-3.8,61.8h0ZM1725.1,23.3c-2.8-.5-1.6.7-2.2,2.2-.9,2.1-1.6,4.6-2.2,6.8-5.1,16.8-7.1,35.5-5.5,52.9l10-1c-3.8-18.6-1.4-37.7-1.1-56.5,0-1.7.4-2.9,1.1-4.4h-.1ZM178.8,82.1l1.5-22-2.4-27.3-2-8.5-4,59.9,6.9-2.1ZM333.8,83.2l-1-24.5-6-34.5-1,55.4,1,2,7,1.5h0ZM368.8,84.2c0-9.3,4-20.4,4.1-29.5,0-2.8-1.1-5.3-1.1-7.9,0-7.5.1-15,0-22.5l-9,54.4v4.5c.1,0,6,1.1,6,1.1h0ZM385.8,86.2c2.6.2,6.4-.3,7-3.5.5-2.7.9-8.8,1-11.9.9-15-.1-31.5-1-46.5l-7,61.9h0ZM748.6,82.2c-2.5-6.9-1.6-14.3-2-21.5,0-2-1-3.8-1-6-.3-10.2.4-20.4.5-30.5-8.5,17.4-4.8,38.5-4.4,57.3l1.9,1.2,5-.6h0ZM905.5,24.3c-2.5-.2-1.7-.2-2,1.5-1,6.7-2.7,17.7-2.9,24.1,0,2,1,3.8.9,5.8,0,5.4-.9,15.2,0,20,.7,3.6,4.1,2.4,7,2.5l-3-53.9h0ZM1037.4,24.3c-1.8-.6-3.9,3-4.4,4.1-2.6,4.9-11.1,49.7-9.6,51.9l4.1-1.6,9.9-54.3h0ZM1129.4,81.2v-27s-1.5.3-2-.7c-3.1-7.1-4.8-19.2-6.7-27-.2-.8,0-3.3-1.3-1.7,2.4,18.8,6.9,37.4,7,56.4h3ZM1312.2,82.1l1.5-22-2.4-27.3-2-8.5-4,59.9,6.9-2.1h0ZM1467.2,83.2l-1-24.5-6-34.5-1,55.4,1,2,7,1.5h0ZM1502.2,84.2c0-9.3,4-20.4,4.1-29.5,0-2.8-1.1-5.3-1.1-7.9v-22.5l-9,54.4v4.5l6,1.1h0ZM1519.2,86.2c2.6.2,6.4-.3,7-3.5.5-2.7.8-8.8,1-11.9.9-15,0-31.5-1.1-46.5l-7,61.9h0ZM1882,82.2c-2.5-6.9-1.6-14.3-2-21.5,0-2-1-3.8-1-6-.3-10.2.4-20.4.6-30.5-8.5,17.4-4.8,38.5-4.4,57.3l1.9,1.2,4.9-.6h0ZM2038.9,24.3c-2.5-.2-1.7-.2-2,1.5-1,6.7-2.7,17.7-2.9,24.1,0,2,1,3.8.9,5.8,0,5.4-.9,15.2,0,20,.7,3.6,4.1,2.4,7,2.5l-3-53.9h0ZM143.9,93.2c-2.4-19-3.1-38.2-5-57.4l-2-10.5c-.4,22.7.4,45.3,2,67.9h5ZM544.7,85.2V31.8c0-.8,2.9-5.9,0-6.5-2.8,9.5-4.4,19.3-6.5,29-.5,2.6-2.2,3.7-2.6,7.4-.7,6.9.6,15.3.2,22.4l8.9,1.1h0ZM654.5,81.1c0-15.5,0-32.5-3.5-47.6-.5-2.3-1.3-6.8-3.3-8.1l1,56.9,5.8-1.2h0ZM960.5,82.2c-4.1-18.7-.6-38,0-56.9-2.1.7-2.6,3.7-2.9,5.6-1.6,9.1-2.7,23.4-3.1,32.8-.3,6.1.3,12.4,0,18.5h6ZM1102.4,25.3c-2.1-.3-1.6,0-2.2,1.3-5.7,12.4,2,39,.2,53.2l1.6,2.4,5.5-1.4-5.1-55.3h0v-.2ZM1277.3,93.2c-2.4-19-3.2-38.2-5-57.4l-2-10.5c-.4,22.7.4,45.3,2,67.9h5ZM1678.1,85.2V31.8c0-.8,2.9-5.9,0-6.5-2.8,9.5-4.4,19.3-6.4,29-.6,2.6-2.2,3.7-2.6,7.4-.7,6.9.6,15.3.2,22.4l8.9,1.1h0ZM1787.9,81.1c0-15.5,0-32.5-3.5-47.6-.5-2.3-1.3-6.8-3.3-8.1l1,56.9,5.8-1.2h0ZM2093.9,82.2c-4.1-18.7-.6-38,0-56.9-2.1.7-2.6,3.7-2.9,5.6-1.6,9.1-2.7,23.4-3.1,32.8-.3,6.1.3,12.4,0,18.5h6ZM13,84.2c-1.2-17.4-1.2-35-3.1-52.3-.1-1.2-.4-5.5-1.9-5.6-.9,19.4-.8,38.6,1,57.9h4ZM13,26.3l-2,.5,4,56.4h5c-.8-7.6,1-17.2,0-24.5-.2-1.8-1.9-1.3-2-2.1l-5-30.3ZM65.9,26.3l-2,1.5-3,59.4,7-1.7c-1.1-11.6-1.2-23.2-1.1-34.8,0-8,2.7-16.1-1-24.4h0ZM212.9,86.2l3.1-.4,2.9-59.5c-2.8,1.6-3.2,6.8-3.7,9.8-2.7,16.5-2.3,33.5-2.3,50.2h0ZM447.8,26.3c-6.7,17.1-10.2,35-10,53.4l5.5,4.5s4.5-57.9,4.5-57.9ZM488.7,26.3c-2.4-.1-1.8-.3-2,1.5-2.5,19.7-3.9,39.6-5,59.4,2.7,0,6.6,1.1,7-2.5-.8-7.9,2.6-17.5,2.4-25,0-2.7-1.4-5.4-1.4-8-.3-8.5.1-17-1-25.4h0ZM758.6,83.2v-20l-4,1-5-37.9c-.3-.4-1.3-.8-1.7.9-1.2,5.5-.6,18.3-.3,24.6.4,10,2.2,20.3,2,30.4l9,1h0ZM826.6,82.2l4-55.9c-3.4,3.1-3.8,10.2-4.7,14.8-2.5,13.6-3.4,27.4-4.3,41.1h5ZM835.6,83.2c1.9-15.7,1-31.6,0-47.3l-2.9-9.6-3.4,56,6.4.9h0ZM1146.4,83.2c-1.3-17-1.2-34.3-3.1-51.3,0-1.2-.4-5.5-1.9-5.6-.8,19-.9,38,1.1,56.8h3.9ZM1146.4,26.3l-2,.5,4,56.4h5c-.8-7.6,1-17.2,0-24.5-.2-1.8-1.8-1.3-2.1-2.1l-5-30.3h0ZM1199.4,26.3l-2,1.5-3,59.4,7-1.7c-1.1-11.6-1.2-23.2-1.1-34.8,0-8,2.7-16.1-1-24.4h0ZM1346.3,86.2l3.1-.4,2.9-59.5c-2.8,1.6-3.2,6.8-3.7,9.8-2.7,16.5-2.3,33.5-2.3,50.2h0ZM1581.2,26.3c-6.7,17.1-10.2,35-10,53.4l5.5,4.5s4.5-57.9,4.5-57.9ZM1622.2,26.3c-2.4-.1-1.8-.3-2,1.5-2.5,19.7-3.9,39.6-5,59.4,2.7,0,6.6,1.1,7-2.5-.8-7.9,2.6-17.5,2.4-25,0-2.7-1.3-5.4-1.4-8-.3-8.5,0-17-1-25.4h0ZM1892,83.2v-20l-4,1-5-37.9c-.3-.4-1.3-.8-1.7.9-1.2,5.5-.6,18.3-.3,24.6.4,10,2.2,20.3,2,30.4l9,1h0ZM1960,82.2l4-55.9c-3.4,3.1-3.8,10.2-4.7,14.8-2.5,13.6-3.4,27.4-4.3,41.1h5ZM1969,83.2c1.9-15.7,1.1-31.6,0-47.3l-2.9-9.6-3.4,56,6.4.9h0ZM87.9,88.2l3-28.4-8-32.5.9,60.5,4.1.4ZM546.7,27.3v57.4l6,1.5c-1.2-17.6.5-35.5-3.7-52.8-.4-1.6-.7-5.6-2.3-6.2h0ZM1059.4,80.2l3-52.9-5.5,13c-2.4,12.9-6,25.7-6.4,38.9l8.9,1.1h0ZM1221.4,88.2l3-28.4-8-32.5.9,60.5,4.1.4h0ZM1680.1,27.3v57.4l6,1.5c-1.2-17.6.4-35.5-3.7-52.8-.4-1.6-.7-5.6-2.3-6.2h0ZM260.9,28.3c-3.1-.5-1.6.8-2,2.5-2.9,13.9-5.4,30.9-6.9,45.1-.2,2.3-1.4,11.4-.7,12.4l5.6.9,4-60.9h0ZM278.9,87.2l-1.5-58.9c-2.9,0-2.5,53.7-2.5,58.3l4,.6h0ZM466.8,87.2c8.6.7,6,1.8,5.9-4.4,0-7.3.4-16.8,1.1-24,.9-9.4,4.5-20.3,5-29,.1-2.6-.1-2.7-1.1-.1-1.4,3.6-3,7.2-4.1,10.8s-6.7,21.9-6.7,24.2v22.5h0ZM596.7,32.8c-1.3,16.2,1,34,0,50.4l6-1.5-4-53.4c-1.3-.2-1.9,3.8-2,4.5h0ZM913.7,50.1l-7.1-21.8c2.2,16,4.8,32,4.1,48.3l1.5,1.5h8.4l-1-47.8c-1.4.6-1.7,5.1-1.9,6.6-.6,4.2-.7,9-1.1,13.4-.9,0-2.2.3-2.9,0h0v-.2ZM1394.3,28.3c-3.1-.5-1.6.8-2,2.5-2.9,13.9-5.4,30.9-6.9,45.1-.2,2.3-1.4,11.4-.7,12.4l5.6.9,4-60.9h0ZM1412.3,87.2l-1.5-58.9c-2.9,0-2.5,53.7-2.5,58.3l4,.6h0ZM1600.2,87.2c8.6.7,6,1.8,5.9-4.4,0-7.3.4-16.8,1.1-24,.9-9.4,4.5-20.3,5-29,.2-2.6-.2-2.7-1.2-.1-1.4,3.6-3,7.2-4.2,10.8s-6.7,21.9-6.7,24.2v22.5h0ZM1730.1,32.8c-1.3,16.2,1,34,0,50.4l6-1.5-4-53.4c-1.3-.2-1.9,3.8-2,4.5ZM2047.1,50.1l-7.1-21.8c2.2,16,4.8,32,4.1,48.3l1.5,1.5h8.4l-1-47.8c-1.4.6-1.7,5.1-1.9,6.6-.6,4.2-.7,9-1.1,13.4-.9,0-2.2.3-2.9,0h0v-.2ZM464.8,87.2c-.9-7.4,1-16.1.7-23.2s-2.5-15.6-3-23l-3.7-11.8,1.9,57.5,4.1.4h0ZM1598.2,87.2c-.9-7.4,1-16.1.7-23.2-.2-7.2-2.5-15.6-3-23l-3.7-11.8,1.9,57.5,4.1.4h0ZM51,91.2c1.2-16.7-2.2-32.7-4.3-49.1l-2.7-11.8-1,60.9h8ZM578.1,56.9c-2.3-5.5-2.8-11.1-2.4-17.1l-2-9.5-2,55.9h8c-.8-8.7,1.1-19.1,0-27.5-.2-1.9-1.6-1.5-1.7-1.8h.1ZM714.6,84.2l.5-53.9c-4.2,17.6-8.3,35.7-7.5,53.9h7ZM899.5,78.2l-.2-21.1-8.7-26.7c2.2,16.2,2.2,32.5,2,48.9,0,0,6.9-1.1,6.9-1.1ZM1106.4,30.3l-2,.5,5,49.5h6c-.9-10,0-22.7-2-32.4-.4-2.1-2.3-3-3-5-1.5-4.1-3-8.3-3.9-12.5h0ZM1184.4,91.2c1.2-16.7-2.2-32.7-4.3-49.1l-2.7-11.8-1,60.9h8ZM1711.5,56.9c-2.3-5.5-2.8-11.1-2.4-17.1l-2-9.5-2,55.9h8c-.8-8.7,1.1-19.1,0-27.5-.2-1.9-1.6-1.5-1.7-1.8h0ZM1848,84.2l.5-53.9c-4.2,17.6-8.3,35.7-7.5,53.9h7ZM2032.9,78.2l-.2-21.1-8.7-26.7c2.2,16.2,2.2,32.5,2,48.9l6.9-1.1h0ZM25,83.2l4-51.9c-1.4-.2-1.4,1.7-1.7,2.7-5.7,15.8-5.5,32.6-5.2,49.2h3,0ZM857.5,85.2c1.8-.2,8.3.9,8.7-1.5l-9.2-52.5c-1.8,18,.9,35.9.5,53.9h0ZM1158.4,83.2l4-51.9c-1.4-.2-1.4,1.7-1.7,2.7-5.7,15.8-5.5,32.6-5.2,49.2h3-.1ZM1991,85.2c1.8-.2,8.3.9,8.7-1.5l-9.2-52.5c-1.8,18,.9,35.9.5,53.9h0ZM120.9,90.2l-2-36.4-3-21.5c-1.5,19.3-1,38.6,0,57.9h5ZM224.7,84.1c-.8-5.7,1.3-12,1.2-17.3-.1-6.6-3.5-14.6-2.2-21.9l-2.9-12.6-2,52.9,5.9-1.2h0ZM248.9,88.2l8-55.9c-2.3,1.8-3.9,5.7-5.2,8.3-6.8,14.3-10.8,29.4-12.9,45l10.1,2.6h0ZM264.9,88.2c.2-4.1-.3-8.3,0-12.5.9-14.1,2.9-23-.5-37.5-.4-1.6-.7-5.5-2.5-6l-3,55.9h6ZM348.8,86.2c.1-5.8-.1-11.7,0-17.5.1-8.8.2-17.8,0-26.9l-2-9.5c-.6,7.7-4.1,16.1-4.9,23.6-1,10.2,1.2,20.2.9,30.3h6ZM616.7,80.2l-3-47.9c-4.8,15.5-6.1,30.8-3.6,47l6.6.9ZM704.6,84.1l3-25.5c-4.7-6.8-3.2-15.1-4-22.8,0-1-.4-3.8-1.9-3.6l-1,51.9s3.9,0,3.9,0ZM968.5,82.2c-1.5-8.4,3.3-17.8-1.8-24.7l-5.2-25.2c.5,16.8-1.7,33.2,0,49.9h7ZM1074.4,83.2c-1.2-14.8,3.7-28.7-.3-43.2l-2.7-7.8-3.8,48.5,6.7,2.4h.1ZM1254.3,90.2l-2-36.4-3-21.5c-1.5,19.3-1,38.6,0,57.9h5ZM1358.2,84.1c-.8-5.7,1.3-12,1.2-17.3-.2-6.6-3.5-14.6-2.2-21.9l-2.9-12.6-2,52.9,5.8-1.2h0ZM1382.3,88.2l8-55.9c-2.3,1.8-3.9,5.7-5.2,8.3-6.8,14.3-10.8,29.4-12.9,45l10.1,2.6h0ZM1398.3,88.2c.2-4.1-.3-8.3,0-12.5.9-14.1,2.9-23-.5-37.5-.4-1.6-.7-5.5-2.5-6l-3,55.9h6ZM1482.2,86.2v-17.5c0-8.8.2-17.8,0-26.9l-2-9.5c-.6,7.7-4.2,16.1-4.9,23.6-1,10.2,1.2,20.2.9,30.3h6ZM1750.1,80.2l-3-47.9c-4.8,15.5-6.1,30.8-3.6,47l6.6.9h0ZM1838,84.1l3-25.5c-4.7-6.8-3.2-15.1-4-22.8,0-1-.4-3.8-1.9-3.6l-1,51.9s3.9,0,3.9,0ZM2101.9,82.2c-1.5-8.4,3.3-17.8-1.8-24.7l-5.2-25.2c.5,16.8-1.7,33.2,0,49.9h7ZM563.7,87.2l.5-53.9-5.6,25.9h-2.9l-2.1-4.4,1,31.4,9,1h0ZM795.6,84.2h14.5c1-.6,1.3-1.4,1.5-2.5.7-4,2.1-15.3,2-19,0-2.3-2.2-7-2.7-10.2-.3-2.3-1.9-18.9-2.8-19.2-2.4-.7-1.4,2.2-1.5,3.5-1.2,15.4-2.3,30.9-3,46.4-1.8-.4-1.8-2-2-3.4-.8-6.7,1.8-16.9,2.1-24v-9c0-2.9.8-3.7-1-3.5-.6,5.1-2.2,10-3.5,15-.5,2.1-2,3.6-2.5,5.5-.5,2.3-1.8,19.7-1,20.4h0ZM943.5,81.2l6.5,1,2.3-1.7,3.1-47.3-5.5,15c-7.3,9-3.9,22.2-6.5,32.9h.1ZM1697.1,87.2l.5-53.9-5.6,25.9h-2.9l-2.1-4.4,1,31.4,9,1h0ZM1929,84.2h14.5c1-.6,1.3-1.4,1.5-2.5.7-4,2.1-15.3,2-19,0-2.3-2.2-7-2.7-10.2-.3-2.3-1.9-18.9-2.8-19.2-2.4-.7-1.4,2.2-1.5,3.5-1.2,15.4-2.3,30.9-3,46.4-1.8-.4-1.8-2-2-3.4-.8-6.7,1.8-16.9,2.1-24v-9c0-2.9.8-3.7-1-3.5-.6,5.1-2.2,10-3.5,15-.5,2.1-2.1,3.6-2.5,5.5-.5,2.3-1.8,19.7-1.1,20.4h0ZM2076.9,81.2l6.5,1,2.3-1.7,3.1-47.3-5.5,15c-7.3,9-3.9,22.2-6.5,32.9h0ZM624.7,82.2v-15.5c0-.2-1.7-2.5-2-4-1.7-8.8-3.3-17.8-5.5-26.4-.2-.7-.5-3-1.5-1.5l3,45.7,6,1.7ZM632.7,84.2l2-49.9-4.5,13.9c-1.8,11.4-4.6,22.7-3.3,34.3.8,2.3,3.9,1.6,5.9,1.6h-.1ZM668.7,50.3v23.5c0,.8,1.9,9.9,4,7.5l6-46.4c-1-1.6-1.2.8-1.5,1.5-2,5.2-3.2,10.6-4.5,16-5.7-2.6-3.8-8.3-4-13.5,0-1.2.8-3.7-1-3.5l-2,26c-1.7.2-1.1-3.4-1-4.5.2-4.2,1.6-8.2,1-12.4-1.4-.2-1.4,1.8-1.7,2.8-2.6,9.2-4,21.2-2.3,30.7.6,3.3,3.3,2.5,6,2.5l-1-19.5,2-10.4h0v-.3ZM776.6,85.2l2-50.9-4.5,11c-4,12.6-5.5,25-4.4,38.3.8,2.5,4.7,1.5,6.9,1.6h0ZM1010.5,34.3c-2.8-.5-1.6.7-2.2,2.2-2.1,5.2-6,17-6.7,22.3-1.1,8.1,1.5,17.5-1.1,25.4h6c.3-16.7.2-33.7,4-49.9h0ZM1758.1,82.2v-15.5c0-.2-1.7-2.5-2-4-1.7-8.8-3.3-17.8-5.6-26.4-.2-.7-.5-3-1.5-1.5l3,45.7,6,1.7h0ZM1766.1,84.2l2-49.9-4.5,13.9c-1.8,11.4-4.6,22.7-3.3,34.3.8,2.3,3.9,1.6,5.9,1.6h0ZM1802.1,50.3v23.5c0,.8,1.9,9.9,4,7.5l6-46.4c-1-1.6-1.2.8-1.5,1.5-2,5.2-3.2,10.6-4.5,16-5.7-2.6-3.8-8.3-4-13.5,0-1.2.8-3.7-1-3.5l-2,26c-1.7.2-1.1-3.4-1-4.5.2-4.2,1.6-8.2,1-12.4-1.4-.2-1.4,1.8-1.7,2.8-2.6,9.2-4,21.2-2.3,30.7.6,3.3,3.3,2.5,6,2.5l-1-19.5,2-10.4h0v-.3ZM1910,85.2l2-50.9-4.5,11c-4,12.6-5.4,25-4.4,38.3.8,2.5,4.7,1.5,6.9,1.6h0ZM97.9,37.8c-1.8,13.1,0,34.8,0,48.9s1.6,4,1.5,5.5l4.5,1c-1-9-.2-18.5-1-27.4-.4-4.9-2.5-10.7-3-16-.4-4.7.3-9.7,0-14.5-1-.4-1.9,2.1-2,2.5ZM148.9,59.2l-2.8-1.7-5.2-22.2,5.7,58h4.3v-41l-2,7h0ZM524.7,83.2l5-47.9-4.9,15.4-3.2,1.1-2.9,29.8c.6,2.1,4.1,1.7,5.9,1.6h.1ZM819.6,83.2l5-47.9-5.2,12.2c-3.4,11.6-5.8,23.5-5.7,35.7h6,0ZM871.5,84.2l2-48.9c-1.5.5-2,4.4-2.5,6-1.2,4.3-5.3,17.2-5.4,20.5-.3,6.6,3.2,15.3,1.9,22.4h4ZM1231.4,37.8c-1.8,13.1,0,34.8,0,48.9s1.6,4,1.5,5.5l4.5,1c-1-9-.2-18.5-1-27.4-.4-4.9-2.5-10.7-3-16-.4-4.7.3-9.7,0-14.5-1-.4-1.9,2.1-2,2.5ZM1282.3,59.2l-2.8-1.7-5.2-22.2,5.7,58h4.3v-41l-2,7h0ZM1658.1,83.2l5-47.9-4.9,15.4-3.2,1.1-2.9,29.8c.6,2.1,4.1,1.7,5.9,1.6h0ZM1953,83.2l5-47.9-5.2,12.2c-3.4,11.6-5.8,23.5-5.7,35.7h6-.1ZM2004.9,84.2l2-48.9c-1.5.5-2,4.4-2.5,6-1.2,4.3-5.3,17.2-5.4,20.5-.3,6.6,3.2,15.3,1.9,22.4h4ZM340.8,85.2l-1-31.4-3-17.5-3.1,16.5,2,30.9,5,1.6h.1ZM427.8,46.8c-1.1,10.2.8,22.1,0,32.5h3c-.4-14.4.4-28.7,1-42.9-1.3-1.7-3.9,9.5-4,10.5h0ZM533.7,84.2c-.3-10.1.5-20.3,0-30.4-.2-4.1-.5-10.1-1-14-.2-1.5-.2-3.1-2-3.5l-4,46.4,7,1.6h0ZM1474.2,85.2l-1-31.4-3-17.5-3.1,16.5,2,30.9,5.1,1.6h0ZM1561.2,46.8c-1.1,10.2.8,22.1,0,32.5h3c-.4-14.4.4-28.7,1-42.9-1.3-1.7-3.9,9.5-4,10.5h0ZM1667.1,84.2c-.3-10.1.5-20.3,0-30.4-.2-4.1-.5-10.1-.9-14-.2-1.5-.2-3.1-2-3.5l-4.1,46.4,7,1.6h0ZM161.8,89.1c-.1-17.3.5-34.6,3.1-51.8l-5.7,19.7c-.1,9.9-3.2,21-3.3,30.7,0,1.6.1,2.4,1.5,3.4l4.3-2.1h0ZM236.9,86.2c-.2-5.6,4.5-16.9,4-21.5-.2-2-2.6-2.6-3.1-5.9-.9-6.5,2.4-14.7,1-21.5l-2.7,7.7-5.2,40.2,6,1ZM841.5,85.2c3.1-14.7,1.2-28.8-2.2-43.3-.3-1.3-.2-4.6-1.8-4.7v46.4l4,1.6h0ZM854.5,37.3c-1.8.3-1.7,2.1-2.1,3.4-4,11.7-3.7,29.9-1.9,42.1.7,5.1,4.5,4.9,5.1,0,1.7-14.2-2.8-30.9-1.1-45.5ZM1295.2,89.1c0-17.3.5-34.6,3.2-51.8l-5.7,19.7c0,9.9-3.2,21-3.3,30.7,0,1.6.2,2.4,1.5,3.4l4.3-2.1h0ZM1370.3,86.2c-.2-5.6,4.5-16.9,4-21.5-.2-2-2.6-2.6-3.1-5.9-.9-6.5,2.3-14.7,1-21.5l-2.7,7.7-5.2,40.2,6,1h0ZM1975,85.2c3.1-14.7,1.2-28.8-2.2-43.3-.3-1.3-.2-4.6-1.8-4.7v46.4l4,1.6ZM1987.9,37.3c-1.8.3-1.7,2.1-2.1,3.4-4,11.7-3.7,29.9-1.9,42.1.7,5.1,4.5,4.9,5.1,0,1.7-14.2-2.8-30.9-1.1-45.5ZM58.9,89.2l2-50.9c-1.4-.2-1.4,1.8-1.7,2.8-2,7.2-5.5,22.5-6.3,29.6-.7,6,.6,13.3,0,19.5l5.9-1.1h0ZM1192.3,89.2l2.1-50.9c-1.4-.2-1.4,1.8-1.7,2.8-2,7.2-5.5,22.5-6.3,29.6-.7,6,.6,13.3,0,19.5l5.9-1.1h0ZM80.9,86.2c-.8-14.1,2.6-29.5,1-43.5-.2-1.5-.2-3.1-2-3.5l-2.8,22.5c1.5,7.3.9,15.7,1.8,23,.2,1.5.8,3.1,2,1.5h0ZM400.8,84.2l5-44.9-7.9,22.3-3.1,1.2v21.4h6.1-.1ZM1017.5,81.2l3-.4,6.9-41.5c-1.8.8-2.4,4.7-3,6.5-3.7,11.5-7.3,23.2-7,35.5h0ZM1099.4,83.2l-4-43.9c-2.1,15-7.5,29.8-2.9,44.8,0,0,6.9-.9,6.9-.9ZM1214.4,86.2c-.8-14.1,2.6-29.5,1-43.5-.2-1.5-.2-3.1-2-3.5l-2.8,22.5c1.5,7.3.9,15.7,1.8,23,.2,1.5.8,3.1,2,1.5h0ZM1534.2,84.2l5-44.9-7.9,22.3-3.1,1.2v21.4h6.1,0ZM272.9,85.7v-39.9c0-.7,2.8-5.1,0-5.5-3.5,15.5-6.3,30.9-6,46.9l6-1.5ZM285.9,50.3c-4.1-.5-4.2-6.7-5-10-1.7-.3-1.1,2.4-1,3.5.1,2.8,1,5.3,1.1,7.9.4,11.9-.4,23.9,0,35.8l5,1.7v-38.9s-.1,0-.1,0ZM739.5,83.1l-.4-42.8c-1.4,0-4.4,15-5,17-.4,1.5-2.1,2.5-2.5,4.5-.5,2.5,0,21.5,1,22.4l6.9-1.1h0ZM1406.3,85.7v-39.9c0-.7,2.8-5.1,0-5.5-3.5,15.5-6.3,30.9-6,46.9l6-1.5ZM1419.3,50.3c-4.1-.5-4.2-6.7-5-10-1.7-.3-1.1,2.4-1,3.5,0,2.8,1,5.3,1.1,7.9.4,11.9-.4,23.9,0,35.8l5,1.7v-38.9h0ZM1872.9,83.1l-.4-42.8c-1.4,0-4.4,15-5,17-.4,1.5-2.1,2.5-2.5,4.5-.5,2.5,0,21.5,1,22.4l6.9-1.1h0ZM70,85.2c4.1,0,6.5,1.2,7-3.4.3-2.1-.7-16.6-1.1-19-.4-2.5-2.7-7.1-3.5-10.5s-1.3-7.5-1.5-11c-1.8.4-1.9,2-2,3.5-.5,4.4-.4,39,1.1,40.5h0ZM766.5,84.2c.4-1.5.9-2.9,1-4.5.6-6.8,1.2-16.3-1.8-22.2l-2.2-16.2c-3.9,13.5-2.9,27.4-3.1,41.3l6,1.6h0ZM1203.4,85.2c4.1,0,6.5,1.2,7-3.4.3-2.1-.7-16.6-1.1-19-.4-2.5-2.7-7.1-3.5-10.5s-1.3-7.5-1.5-11c-1.8.4-1.9,2-2,3.5-.5,4.4-.4,39,1.1,40.5h0ZM1900,84.2c.4-1.5.9-2.9,1.1-4.5.6-6.8,1.2-16.3-1.8-22.2l-2.2-16.2c-3.9,13.5-2.9,27.4-3.1,41.3l6,1.6h0ZM698.6,85.2c-.5-14.3,2.4-28.6.5-43-3.5,14.1-6.5,28.3-5.5,43h5ZM1008.5,83.2c1.8.2,5.6-.3,6.5-2,.4-.7,2.3-14.5,2.2-15.7s-3.3-6.4-4.1-9.4c-1.1-4.2-1.7-9.4-1.7-13.8-1.6.2-1.9,4.3-2,5.5-1,11.5-.8,23.9-1,35.4h0ZM1082.4,82.7v-40.4l-4.9,15.6-1.2,24.8c0,.7,5.6,2.1,6.1,0ZM1832.1,85.2c-.5-14.3,2.4-28.6.5-43-3.5,14.1-6.6,28.3-5.5,43h5ZM210.9,87.2l.5-44c-4,14.3-6,29-5.5,44h5ZM432.8,43.3v37h3l1.1-19.5-4.1-17.4h0ZM1344.3,87.2l.5-44c-4,14.3-6,29-5.5,44h5ZM1566.2,43.3v37h3l1.1-19.5-4.1-17.4h0ZM152.9,92.2c3.5-1.2.9-4.1,1.1-6.4.5-7.5,3.2-18.2,3-25.1-.2-4.9-3.6-10.4-3.6-15.5-1.2,0-.4,22.1-.5,24.5s-1.1,4.6-1.1,6.9c0,4.9,2,10.3,1.1,15.5h0ZM1286.3,92.2c3.5-1.2.9-4.1,1.1-6.4.5-7.5,3.2-18.2,3-25.1-.2-4.9-3.6-10.4-3.6-15.5-1.2,0-.4,22.1-.5,24.5s-1.1,4.6-1.1,6.9c0,4.9,2,10.3,1.1,15.5h0ZM495.8,86.2l3-39.9-5.5,14c-1.7,8.5-2.7,17.3-2.5,26h5ZM1629.2,86.2l3-39.9-5.5,14c-1.7,8.5-2.7,17.3-2.5,26h5ZM228.9,84.2l5-36c-1.4-.2-1.4,1.7-1.7,2.8-2.9,9-6.5,22.3-5.3,31.7.2,1.4.7,3.1,2,1.5h0ZM1362.3,84.2l5-36c-1.4-.2-1.3,1.7-1.7,2.8-2.9,9-6.5,22.3-5.3,31.7.2,1.4.7,3.1,2,1.5h0ZM422.8,56.3l-2-7-1,31,6-1.7v-23.3l-3,1h0ZM1556.2,56.3l-2-7-1,31,6-1.7v-23.3l-3,1h0ZM660.7,80.2c-1.9-5.6-2.2-11.5-2.1-17.4l-2.9-11.5,1,30,4-1h0ZM1794.1,80.2c-1.9-5.6-2.2-11.5-2.1-17.4l-2.9-11.5,1,30,4-1h0ZM1084.4,52.3v32h6l-2.1-17.4-3.9-14.5h0ZM96.9,91.2c-1.8-11.1-.5-22.3-1-33.5,0-1.2.8-3.7-1-3.5,0,2.8.2,5.9-.8,8.6-.5,1.4-1.9,1.3-2.1,2.1-1,3.4-2.8,21.5-2.1,24.6l7,1.7h0ZM1048.4,79.2l3-25-4.5,11.9c-.3,4.4-1.3,8.7-1.4,13h3,0ZM1230.3,91.2c-1.8-11.1-.5-22.3-1-33.5,0-1.2.8-3.7-1-3.5,0,2.8.2,5.9-.8,8.6-.5,1.4-1.9,1.3-2.1,2.1-1,3.4-2.8,21.5-2.1,24.6l7,1.7h0ZM607.7,79.7v-14.5l-3.8,2.2-.3,1.3,1.1,12.5c1.1.3,2.8-.7,3-1.5h0ZM1741.1,79.7v-14.5l-3.8,2.2-.3,1.3,1.1,12.5c1.1.3,2.8-.7,3-1.5h0ZM847.5,68.2c-3-.5-1.6.8-2,2.4-1.2,4.7-.7,9.3-2,14l3.6,1.3c3.3-.5-.9-14.7.5-17.7h0ZM1981,68.2c-3-.5-1.6.8-2,2.4-1.2,4.7-.7,9.3-2,14l3.6,1.3c3.3-.5-.9-14.7.5-17.7h0Z"/>
    <path class="st0" d="M2122.9,28.3c-1.1,3.9-1.7,9.4-2,13.5-.8,9.9-1.6,20-2.1,29.9-.1,2.3-.2,5.8,0,8.1.2,1.5.8,3.1,2,1.5.1-8.8.5-17.7,1-26.5,0-1.3,1-2.3,1-2.4v31l-19-1v-16.5c0-2.5,5.3-20.4,6.5-24.5.5-1.6,1-5.4,2.5-6l-4,41.4,2,2.5c3.5-20.2-.4-45.8,12-62.9v12h.1Z"/>
    <path d="M2120.9,187.1v2c-8.8,3.3-19.4,1.1-28.3,3.2-4.7,1.2-9.9,6.6-14.4,7.5-5,1-9.9-.6-15.3,1.7-5.9,2.5-5.5,8.3-10,12-7.4,6.1-26.2,5-35.6,5.4-2.1,0-11.9,2.4-12.5.5-.7-2.4,2.2-1.3,3.5-1.5,9.5-1,36.7-.5,43-6,2.6-2.2,4.3-7.5,6.9-10.1,6.4-6.4,12.3-2.7,19.6-4.4,4-.9,7.1-4.8,10.7-6.3,9.4-3.9,22.1-1.3,32.2-4.2h0l.2.2h0Z"/>
    <path class="st0" d="M2122.9,52.3s-1,1.1-1,2.4c-.4,8.8-.8,17.7-1,26.5-1.2,1.6-1.8,0-2-1.5-.3-2.2-.1-5.7,0-8.1.4-9.9,1.3-20,2.1-29.9.3-4.1.9-9.6,2-13.5-.2,7.9.3,16,0,24h-.1Z"/>
    <path d="M1332.8,148.6c8.8-9.3,25.3-15.9,38-16.4,9.1-.3,41.6,4.7,49.2,8.8,8.7,4.7,27.1,26.4,28.9,36.1,1.6,8.5-11.8,23.5-17.6,29.5-8.7,9-19.1,18.6-32.4,17.3-12.4-1.1-33.4-7.6-44.3-13.7-7-3.9-30.7-21.8-33.7-28.2-4.5-9.7,5-26.1,11.8-33.4h0ZM1414.3,142.2c-23.4-3.3-52.7-14-72,5,11,2.4,28.6,12.9,39.5,12,3.2-.3,19.8-5.1,22.4-6.6,3.2-1.9,7.3-7.6,10.1-10.4ZM1421.4,183.9c1.4.9,20.2-1,22.1-2,4.7-2.5-1.3-11.1-3.3-14.3-3-4.9-18.3-23.6-23.5-23.4l-10.5,9.4,15.2,30.4h0ZM1399.2,220l1.8-7.2-23.2-38.8c-2.6-4.2.6-7.7,0-11.9-12.2-5.2-25.8-7.3-37.1-14.6-8.7,3.2-19.7,23.6-17.3,31.9,1.8,6.1,31.5,27.3,38.4,30.6,11.7,5.6,24.9,6.9,37.3,10.1h0ZM1403.2,211.1l16.7-26.4-16.2-29.3-22.8,6.8-2.2,8.6,24.6,40.4h0ZM1443.2,184.1l-21.6,2.9c-2.5,3.3-22.4,31.2-20.4,33,12.6.6,26.2-14.4,33.9-23.5,1.3-1.5,9.2-11.2,8-12.4h0Z"/>
    <path d="M199.3,148.6c8.8-9.3,25.3-15.9,38-16.4,9.1-.3,41.6,4.7,49.2,8.8,8.7,4.7,27.1,26.4,28.9,36.1,1.6,8.5-11.8,23.5-17.6,29.5-8.7,9-19.1,18.6-32.4,17.3-12.4-1.1-33.4-7.6-44.3-13.7-7-3.9-30.7-21.8-33.7-28.2-4.5-9.7,5-26.1,11.8-33.4h.1ZM280.9,142.2c-23.4-3.3-52.6-14-72,5,11,2.4,28.6,12.9,39.5,12,3.2-.3,19.8-5.1,22.4-6.6,3.2-1.9,7.3-7.6,10.1-10.4ZM288,183.9c1.4.9,20.2-1,22.1-2,4.7-2.5-1.3-11.1-3.3-14.3-3-4.9-18.3-23.6-23.5-23.4l-10.5,9.4,15.2,30.4h0ZM265.8,220l1.8-7.2-23.2-38.8c-2.6-4.2.6-7.7,0-11.9-12.2-5.2-25.8-7.3-37.1-14.6-8.7,3.2-19.7,23.6-17.3,31.9,1.8,6.1,31.5,27.3,38.4,30.6,11.7,5.6,24.9,6.9,37.3,10.1h.1ZM269.9,211.1l16.6-26.4-16.2-29.3-22.8,6.8-2.2,8.6,24.6,40.4h0ZM309.8,184.1l-21.5,2.9c-2.5,3.3-22.4,31.2-20.4,33,12.5.6,26.2-14.4,34-23.5,1.3-1.5,9.2-11.2,8-12.4h-.1Z"/>
    <path d="M533.1,172.5c2.9-3.1,31-22.2,34.9-23.6,10.3-3.7,30.4,7.2,39.4,13,12.3,8.1,27,27.9,16.7,42-13.4,18.4-34.2,19.9-55.4,15.6-15.7-3.2-26.3-7.5-33.8-22.1-4.1-8.1-8.9-17.4-1.8-25h0ZM575.7,151.1c0,2.6.8,5.2,2,7.5,3.4,7.3,12.4,20.7,17.2,27.7,2.2,3.1,4.5,6.2,6.8,9.3,1.1.9,1.7-.1,2.5-.5,1.4-.6,15.6-11.2,16-12.1l.3-1.3c-8.5-17.1-28.2-23.9-44.8-30.6h0ZM573.7,152.1c-3.5-.4-6.4,1.6-9.3,3.2-4.7,2.5-29.6,19.5-31.2,22.8-2.7,5.8,8,25.4,13.6,29.4,9.2,6.6,26.4,8.7,37.5,10.4l1.5-2.3c-3.7-4.7-21.1-19.3-22-24-2.9-15.1,9.8-25.4,10-39.4h0ZM574.7,159.1c-2.8,10.8-11,20.5-8.8,32.2l21.3,22.6,13.1-16-25.5-38.9h0ZM622.7,186.1c-1.2-1-17.7,11.2-19.5,12.9-2.5,2.4-11.7,12.8-13.5,15.5-.8,1.2-1.2,2-.9,3.5,9-1.8,19.4-2.5,26.5-9,1.3-1.2,7.9-9.4,8.3-10.7,1-4.1-.2-8.3-.8-12.2h0Z"/>
    <path d="M1618.9,160.8c2.9-3.1,31.1-22.2,34.9-23.6,10.3-3.7,30.4,7.2,39.4,13,12.3,8.1,27,27.9,16.7,42-13.4,18.4-34.2,19.9-55.4,15.6-15.7-3.2-26.3-7.5-33.8-22.1-4.1-8.1-8.9-17.4-1.8-25h0ZM1661.5,139.4c0,2.6.8,5.2,1.9,7.5,3.4,7.3,12.4,20.7,17.2,27.7,2.2,3.1,4.6,6.2,6.8,9.3,1.1.9,1.7-.1,2.6-.5,1.4-.6,15.6-11.2,16-12.1l.3-1.3c-8.5-17.1-28.2-23.9-44.8-30.6h0ZM1659.5,140.4c-3.5-.4-6.4,1.6-9.3,3.2-4.7,2.5-29.6,19.5-31.2,22.8-2.7,5.8,8,25.4,13.6,29.4,9.2,6.6,26.4,8.7,37.4,10.4l1.5-2.3c-3.7-4.7-21.1-19.3-22-24-2.9-15.1,9.8-25.4,10-39.4h0ZM1660.5,147.4c-2.8,10.8-11,20.5-8.8,32.2l21.3,22.6,13.1-16-25.6-38.9h0ZM1708.5,174.4c-1.2-1-17.7,11.2-19.5,12.9-2.5,2.4-11.7,12.8-13.5,15.5-.8,1.2-1.2,2-.9,3.5,9-1.8,19.4-2.5,26.5-9,1.3-1.2,7.9-9.4,8.3-10.7,1.1-4.1-.2-8.3-.8-12.2h0Z"/>
    <path d="M2022.6,188.7c-11.2,13-46.5,21.4-63,19.2-7.9-1.1-20.1-8.7-20.6-17.4-1.2-18.2,10.3-39.4,24.6-50.4,9.3-7.2,18-4.5,28.6-.7,12.3,4.4,19.8,14.6,26.6,25.3,4.9,7.7,10.9,15.7,3.8,23.9h0ZM2002.6,149.5c-5.1-4.7-21.4-10.2-28.2-10.4s-13.7,8.9-18,13.5l4.6,24.5,33.9-1.5,15.8-14.9c-2.7-3.2-5.2-8.4-8.2-11.1h0ZM1944,196.1c1.9.5,1.9-.8,2.8-1.7,2-2,11.7-13.9,12-16l-3.8-23.2c-9.5,11-14.8,26.4-11,40.9h0ZM1991,201.1c7.6-1.8,32.6-12.3,31.8-21.2-.2-2.6-7.5-15.1-9.8-16.3-1.4-.7-1.5-.2-2.5.5-1.2.8-14.4,13.2-14.9,14.1-1.1,2.1-5.4,22.1-4.6,22.9h0ZM1992.9,178.1c-10.6,1.8-21.2.8-31.8.2l-14.1,19.3c1.1,2.9,12.6,7.1,15.8,7.2,2.8.1,22.3-1.7,24-2.5,1-.5,1.6-.9,2-2,2.1-5.6,1.8-16.1,4.2-22.3h0Z"/>
    <path d="M889.2,188.7c-11.2,13-46.5,21.4-63,19.2-8-1.1-20.1-8.7-20.6-17.4-1.2-18.2,10.3-39.4,24.6-50.4,9.3-7.2,18-4.5,28.6-.7,12.3,4.4,19.8,14.6,26.6,25.3,4.9,7.7,10.9,15.7,3.8,23.9h0ZM869.2,149.5c-5-4.7-21.4-10.2-28.2-10.4s-13.7,8.9-18,13.5l4.6,24.5,34-1.5,15.8-14.9c-2.7-3.2-5.2-8.4-8.2-11.1h0ZM810.6,196.1c2,.5,1.9-.8,2.8-1.7,2-2,11.7-13.9,12-16l-3.8-23.2c-9.5,11-14.8,26.4-11,40.9h0ZM857.6,201.1c7.6-1.8,32.6-12.3,31.8-21.2-.2-2.6-7.5-15.1-9.8-16.3-1.4-.7-1.5-.2-2.5.5-1.2.8-14.4,13.2-14.9,14.1-1.1,2.1-5.4,22.1-4.6,22.9h0ZM859.5,178.1c-10.6,1.8-21.2.8-31.8.2l-14.1,19.3c1.1,2.9,12.6,7.1,15.8,7.2,2.8.1,22.3-1.7,24-2.5,1-.5,1.6-.9,2-2,2.1-5.6,1.8-16.1,4.2-22.3h-.1Z"/>
    <path d="M1842.4,146.5c1.2-1.2,3.8-2.4,5.4-3.1,6.8-3,35.2-14,41.2-14.8s18.3.2,21.4.7c9.2,1.4,13.9,22.4,13.3,30.1-.3,4.2-5.9,20.4-9.4,22.6-2.7,1.7-14.2,3.8-17.9,4.1-14.6,1.2-34.2-3.4-48.4-7.5-2.9-.9-9.5-2.5-11.1-4.9-2.9-4.5,1.2-23,5.4-27.2h0ZM1910,133.2c-6.4-.8-14-1.8-20.4-.9-2.6.4-18,6-20.6,7.4-1.1.6-2.4.7-2.8,2.2l-.2,8.3c12.4.6,24.4-.5,36.3-4.2l7.7-12.8ZM1920,158.1c.6-.6-2.3-13.6-2.9-15.5-.5-1.4-3.9-10-6-8.4l-5.6,12c1.3,8.6,5.3,12.7,14.6,12h0ZM1864,142.2c-6.2,2.2-17.4,3.8-21,9.5-3.1,4.9-2.8,14.7-3,20.5,1.8.3,2.2,0,3.4-1,3.4-3,8.2-9.3,12-13,5.5-5.4,10.5-5.7,8.5-15.9h0ZM1903.9,148.2c-12.9,3.3-24.8,4.7-38.2,4.1l-21.7,20.3c.8,1.3,2,1.3,3.2,1.8,5.1,2,29.9,8,35.4,8.6,4.7.5,9.1-1.4,13.8-1.1l11.2-23.8-3.6-10h-.1ZM1919,160.1l-9.8-.8-9.2,21.8c14.5.7,17.1-8.7,19-21h0Z"/>
    <path d="M709,146.5c1.2-1.2,3.8-2.4,5.4-3.1,6.8-3,35.2-14,41.2-14.8s18.3.2,21.5.7c9.2,1.4,13.9,22.4,13.3,30.1-.3,4.2-5.9,20.4-9.4,22.6-2.7,1.7-14.2,3.8-17.9,4.1-14.6,1.2-34.2-3.4-48.5-7.5-2.9-.9-9.5-2.5-11.1-4.9-2.9-4.5,1.2-23,5.4-27.2h0ZM776.6,133.2c-6.4-.8-14-1.8-20.4-.9-2.6.4-18,6-20.6,7.4-1.1.6-2.4.7-2.8,2.2l-.2,8.3c12.4.6,24.4-.5,36.3-4.2l7.7-12.8ZM786.6,158.1c.6-.6-2.3-13.6-2.9-15.5-.5-1.4-3.9-10-6-8.4l-5.6,12c1.3,8.6,5.3,12.7,14.6,12h0ZM730.6,142.2c-6.2,2.2-17.4,3.8-21,9.5-3.1,4.9-2.8,14.7-3,20.5,1.8.3,2.2,0,3.5-1,3.4-3,8.2-9.3,12-13,5.5-5.4,10.5-5.7,8.5-15.9h0ZM770.5,148.2c-12.9,3.3-24.8,4.7-38.2,4.1l-21.7,20.3c.8,1.3,2,1.3,3.2,1.8,5.1,2,29.9,8,35.4,8.6,4.7.5,9.1-1.4,13.8-1.1l11.2-23.8-3.6-10h-.1ZM785.6,160.1l-9.8-.8-9.2,21.8c14.5.7,17.1-8.7,19-21h0Z"/>
    <path d="M1028.3,139.4c11-1,46-.2,55.2,4.2,12,5.7,7,21.8-1.1,28.9-15.7,13.8-54,12.3-70.8,2-10.9-6.7-10.9-12.9-4.9-23.7,5.3-9.4,11.5-10.5,21.6-11.4ZM1030.2,143.4c-3.5.2-14.9.5-16.3,3.6.8,3.7,1,13,5,14,9.2,2.3,20.1,1.6,29.6,2.5l37.8-11.9c-1.1-2.1-2.3-3.4-4.4-4.5-7.5-4-42-4.3-51.7-3.7h0ZM1012.5,150.1c-2.3-.5-1.6.3-2.2,1.3-2.1,3.2-6.8,15.7-1.2,16.6,1.4.2,6-5.8,6-6.4.2-2.2-4-8.2-2.7-11.5h.1ZM1087.4,154.1c-12.6,3.7-25.7,6.1-37.5,12l-32.8-2.9-4.6,7.2c7.6,6.4,18.2,6,27.4,7.6l17-10,1.5,3c-4.3,1.5-9.7,2.6-12,7,16.6,4,39.7-5,41-23.9h0Z"/>
    <path d="M375.6,155.4c4.5-.4,18.5-1.2,22,.4,11,14.1,27.8,40.5,3.5,50.9-12.4,5.3-26.4,1.7-38.2-3.2-16-6.6-22.7-11-21-30,1.3-14.5,21.9-17.1,33.8-18.1h0ZM391.8,158.1c-5.5-.7-42.7,3.7-43,8.5l21.5,5.4c5.2-6.4,15.4-8.2,21.4-13.9h.1ZM400.6,185.9l5.2-10.2-9.6-16.5-24.5,13.6,4.2,15.2,24.7-2.1h0ZM370.8,202.1c-.3-4.6,3.2-7.9,3-12.5,0-1.6-3.9-14.7-4.5-15.5l-23.4-4.9c-2.8,1.9-.1,19.9,2.4,22.9,1.5,1.7,21.3,11.2,22.5,10h0ZM402.8,201.1c1.6,1.9,7.5-8.1,7.8-9.7.6-3.7-1.9-8.7-2.8-12.2l-5.8,8.7.8,13.2h0ZM400.6,202.9c-.8-3.7.6-14.3-3.4-14.9-1.9-.3-4,1-6,1-4.8.2-9.6-.2-14.4.1l-5,13.4c.4,3.5,25.2,3.6,28.7.3h0Z"/>
    <path d="M1509,155.4c4.5-.4,18.5-1.2,21.9.4,11,14.1,27.8,40.5,3.5,50.9-12.4,5.3-26.4,1.7-38.2-3.2-16-6.6-22.7-11-21-30,1.3-14.5,21.9-17.1,33.8-18.1h0ZM1525.2,158.1c-5.6-.7-42.7,3.7-43,8.5l21.5,5.4c5.2-6.4,15.4-8.2,21.4-13.9h0ZM1534,185.9l5.2-10.2-9.6-16.5-24.4,13.6,4.2,15.2,24.7-2.1h0ZM1504.2,202.1c-.3-4.6,3.2-7.9,3.1-12.5,0-1.6-3.9-14.7-4.6-15.5l-23.4-4.9c-2.8,1.9,0,19.9,2.4,22.9,1.5,1.7,21.3,11.2,22.4,10h0ZM1536.2,201.1c1.7,1.9,7.6-8.1,7.8-9.7.6-3.7-1.9-8.7-2.8-12.2l-5.8,8.7.8,13.2h0ZM1534,202.9c-.8-3.7.6-14.3-3.4-14.9-1.9-.3-4,1-6,1-4.8.2-9.6-.2-14.3.1l-5,13.4c.3,3.5,25.2,3.6,28.7.3h0Z"/>
    <path d="M1191.7,170.8c-4.1-4.1-11.2-19.5-11.4-25.1-.5-13.9,16.8-18.6,27.6-19.4,11.8-.9,21.5-.9,31.8,5.2,14.7,8.8,17.9,15.8,8.8,31.4-9.9,17.1-42.4,22-56.8,8h0ZM1199.5,151l28,4.6c5.3-4.5,12.9-7.6,18.2-11.6.8-.6,2-.9,1.7-2.3-5-3.3-12.7-10.5-18.6-11.4-10.5-1.6-24.9.4-35.4,1.9l6.1,18.9h0ZM1190.9,134.2c-11,7.5-5.4,19.7,0,28.9,2.2-2.6,6.5-8.2,6.5-11.4s-3.8-14.9-4.2-15.8c-.5-1-1-2-2.3-1.7h0ZM1228.4,173.1c10.3-3.5,17.3-8.1,20.5-19,.5-1.7,2.8-9.9,0-9.9-2.7,2.5-20.5,11.9-20.5,14.5v14.5h0ZM1226.3,174.1l.9-15.4c-.2-.9-.9-1.1-1.6-1.4-1.7-.7-24.3-4.6-25.6-4.3l-7.4,12.6c7.5,10.1,22.3,10.6,33.7,8.4h0Z"/>
    <path d="M58.3,170.8c-4.1-4.1-11.2-19.5-11.4-25.1-.5-13.9,16.8-18.6,27.6-19.4,11.8-.9,21.5-.9,31.8,5.2,14.7,8.8,17.9,15.8,8.8,31.4-9.9,17.1-42.4,22-56.8,8h0ZM66.1,151l28,4.6c5.3-4.5,12.9-7.6,18.2-11.6.8-.6,2-.9,1.7-2.3-5-3.3-12.7-10.5-18.5-11.4-10.5-1.6-24.9.4-35.4,1.9l6.1,18.9h0ZM57.5,134.2c-11,7.5-5.4,19.7,0,28.9,2.2-2.6,6.5-8.2,6.5-11.4s-3.8-14.9-4.2-15.8c-.5-1-1-2-2.3-1.7h0ZM94.9,173.1c10.3-3.5,17.3-8.1,20.5-19,.5-1.7,2.8-9.9,0-9.9-2.7,2.5-20.5,11.9-20.5,14.5v14.5h0ZM92.9,174.1l.9-15.4c-.2-.9-.9-1.1-1.6-1.4-1.7-.7-24.3-4.6-25.6-4.3l-7.4,12.6c7.5,10.1,22.3,10.6,33.7,8.4h0Z"/>
    <path d="M459.5,165.3c5.7-.8,23.3-1.2,27.7,1.7,4.9,3.2,15.8,18.6,15.6,24.5-.2,3.7-3.2,7.1-6.5,8.6-8.3,3.7-35.2,3.3-43-1.1-11.1-6.2-8.9-31.4,6.2-33.7h0ZM483.7,169.1c-5.1-.9-10.2-1.3-15.5-1-2.5.1-12.1.8-11.5,3.4l8,10c3.1.4,16.9,1.8,17.9-1.1l1.1-11.3h0ZM454.2,171.1c-3.5-.1-7.8,26.8,3.9,25.9l5.2-13.4-9.1-12.5h0ZM485.7,171.1c.7,3.8-2.3,8.9-1.8,12.3.3,1.9,5.7,12.6,7.3,13.8l1.6.5c15.3-3.6-.8-21-7-26.5h0ZM488.7,198c-3.7-3.8-4.1-13.4-9.4-14-2.1-.3-12.2-.2-13.6.5l-5,13c9.3.3,18.8,3,28,.5h0Z"/>
    <path d="M1760,148.9c5.7-.8,23.3-1.2,27.7,1.7,4.9,3.2,15.8,18.6,15.6,24.5-.2,3.7-3.2,7.1-6.5,8.6-8.3,3.7-35.2,3.3-43-1.1-11.1-6.2-8.9-31.4,6.2-33.7h0ZM1784.2,152.7c-5.2-.9-10.2-1.3-15.5-1-2.5.1-12.1.8-11.5,3.4l8,10c3.1.4,16.9,1.8,17.8-1.1l1.1-11.3h0ZM1754.8,154.7c-3.5-.1-7.8,26.8,3.9,25.9l5.2-13.4-9.1-12.5h0ZM1786.3,154.7c.7,3.8-2.3,8.9-1.8,12.3.3,1.9,5.7,12.6,7.3,13.8l1.6.5c15.3-3.6-.8-21-7.1-26.5h0ZM1789.2,181.6c-3.7-3.8-4.1-13.4-9.4-14-2.1-.3-12.2-.2-13.6.5l-5,13c9.3.3,18.8,3,28,.5h0Z"/>
    <path d="M2073.6,105.4c6.8-1.4,19,2.8,22.5,9.1s6.4,19.4,2.2,25.6c-6,9.1-32.2,7.6-39.8.9-4.5-4-8.2-15.2-5.1-20.7,2.2-3.9,15.7-13.9,20.1-14.8h.1ZM2086.7,126c.5-.4,4.4-11,4.1-12.1-1-3.2-13-5.1-16.3-4.6-3.6.6-16.2,9.3-17.6,12.4-.8,1.8,1.2,1.5,2,1.9,2.9,1.3,12,5.3,14.6,5.5,1.2,0,12.7-2.7,13.2-3.1h0ZM2093.9,117.2c-6.6,6-5.9,13.3-5,21.5.1,1.5.1,2.5,1.6,3.4,11.1-5,5.5-15.9,3.5-24.9,0,0-.1,0-.1,0ZM2072.8,131.3l-16.9-6.1c.4,10,5.3,17.2,16,17l.9-10.9h0ZM2086.9,142.1l-1-14-10.1,3.4-1.9,10.6h13Z"/>
    <path d="M938.2,123.4c6.8-1.4,19,2.8,22.5,9.1s6.4,19.4,2.2,25.6c-6,9.1-32.2,7.6-39.8.9-4.5-4-8.2-15.2-5.1-20.7,2.2-3.9,15.7-13.9,20.1-14.8h0ZM951.3,144c.5-.4,4.4-11,4.1-12.1-1-3.2-13-5.1-16.3-4.6-3.6.6-16.2,9.3-17.5,12.4-.8,1.8,1.2,1.5,2,1.9,3,1.3,12,5.3,14.6,5.5,1.2,0,12.7-2.7,13.2-3.1h0ZM958.5,135.2c-6.6,6-5.9,13.3-5,21.5.2,1.5,0,2.5,1.5,3.4,11.1-5,5.5-15.9,3.5-24.9ZM937.4,149.3l-16.8-6.1c.5,10,5.3,17.2,16,17l.9-10.9h-.1ZM951.5,160.1l-1-14-10.1,3.4-1.9,10.6h13Z"/>
    <path d="M1576.9,121.4c5.6-1.4,10.8-.2,15.3,3.2,10.9,8.4,10.6,20.1-2.3,25.7-8.1,3.5-32,2.3-29.5-10.4.9-4.6,12.2-17.4,16.6-18.5h0ZM1581.2,141.2c2.6-7.7,1.1-10.4-4.5-15.9-5.3,3.9-11.8,9-12.5,15.9h17ZM1594.2,132.2c-2.1-5.8-8.1-7.7-14-7,2.3,7.6,6.9,7.6,14,7ZM1583.3,142l7.8,3.7c8.7-8.5,8.3-13.3-5.4-11.4l-2.5,7.7h0ZM1581.7,143.2c-4.6-1-12.5.8-17.5,0,0,3.8,6.6,4.7,9.5,5,1.3.1,15.3.6,13.5-2-2,.2-4.2-2.7-5.5-3h0Z"/>
    <path d="M443.5,121.4c5.6-1.4,10.8-.2,15.3,3.2,10.9,8.4,10.6,20.1-2.3,25.7-8.1,3.5-32,2.3-29.5-10.4.9-4.6,12.2-17.4,16.5-18.5ZM447.8,141.2c2.6-7.7,1.1-10.4-4.5-15.9-5.3,3.9-11.8,9-12.5,15.9h17ZM460.8,132.2c-2.1-5.8-8.1-7.7-14-7,2.3,7.6,6.9,7.6,14,7ZM449.9,142l7.8,3.7c8.7-8.5,8.4-13.3-5.4-11.4l-2.5,7.7s.1,0,.1,0ZM448.3,143.2c-4.6-1-12.5.8-17.5,0,0,3.8,6.6,4.7,9.5,5,1.3.1,15.3.6,13.5-2-2,.2-4.1-2.7-5.5-3h0Z"/>
    <path d="M1007.5,191.1l-.5,2c-2.3-.5-4.1-2.1-6.4-2.6-8.1-1.8-33-.2-41.3,1.8-4.7,1.2-9.9,6.6-14.4,7.5-5.4,1.1-11.1-.8-16.6,2.4-4,2.3-4.5,7.1-7.6,10.4-8.5,8.9-37.1,5.4-49,7.4-1.6-1.2,0-1.8,1.5-2,10.2-1.2,38.3,0,45-6,2.4-2.1,4.2-7,6.5-9.5,6.6-7.1,12.3-3.1,20-4.9,4.6-1.1,8.2-5.7,13.7-7.3s28.7-3.7,34.7-3.3c5.1.3,9.9,1.9,14.4,4h0Z"/>
    <path d="M1545.2,135.2c-.4,1.8-2,1.8-3.5,2-6.5.7-14.3-.5-21,0-2.8.2-5.4,1.6-8.1,1.9-11.4,1.2-20.5-7.3-31.9-6.9-5.1.2-12.8,4.3-15.7,3.9-5-.8-8.5-9.9-11.7-11.3-2.8-1.2-6.9-.7-10.8-2.3-1.5-.6-2.7.6-2.2-2.2,4.1,1.9,10,1.2,13.7,2.7,4.3,1.7,7.4,9.9,11.1,10.7,3.1.7,7.7-2.7,10.9-3.2,14.4-2.5,21,6,31.8,6.8,5.8.4,18.3-1.8,26-2,3.9,0,7.3-2.2,11.4,0h0Z"/>
    <path d="M411.8,135.2c-.4,1.8-2,1.8-3.5,2-6.5.7-14.3-.5-21,0-2.8.2-5.4,1.6-8.1,1.9-11.4,1.2-20.5-7.3-31.9-6.9-5.1.2-12.8,4.3-15.7,3.9-5-.8-8.5-9.9-11.7-11.3-2.8-1.2-6.9-.7-10.8-2.3-1.5-.6-2.7.6-2.2-2.2,4.1,1.9,10,1.2,13.7,2.7,4.3,1.7,7.4,9.9,11.1,10.7,3.1.7,7.7-2.7,10.9-3.2,14.4-2.5,21,6,31.8,6.8,5.8.4,18.4-1.8,26-2,3.9,0,7.3-2.2,11.5,0h0Z"/>
    <path d="M1781.1,143.1c-3.8-1-5.4-4.5-8.9-6.5-2.8-1.6-18-7.8-20.8-8.2-5.8-.8-14.2,2.4-21.8,1.8-3.6-.3-6.7-1.8-10-2-6.7-.4-14.6.8-21,0-1.5-.2-3.1-.8-1.5-2,7.8.3,15.7-.5,23.5,0,3.6.2,6.8,1.8,11,2,6.4.3,10.6-1.7,16.1-2,6.9-.4,27,8.1,31.5,13.5.9,1.1,2.4,1.6,2,3.5h0Z"/>
    <path d="M647.7,143.1c-3.8-1-5.4-4.5-8.9-6.5-2.8-1.6-18-7.8-20.8-8.2-5.8-.8-14.2,2.4-21.8,1.8-3.6-.3-6.7-1.8-10-2-6.7-.4-14.6.8-21,0-1.5-.2-3.1-.8-1.5-2,7.8.3,15.7-.5,23.5,0,3.6.2,6.8,1.8,11,2,6.4.3,10.6-1.7,16.1-2,6.9-.4,27,8.1,31.5,13.5.9,1.1,2.4,1.6,2,3.5h0Z"/>
    <path d="M791.6,232c-.5,2.1-1.5,1.6-3,1.6-11.2-.2-18.5-4.3-28.4-8.7-12.8-5.8-12.3-6.4-27.1-8.8-1.5-.2-3.1,0-3.5-2,5.7,0,12.5-.2,18,1.5,3.8,1.2,6.8,4.4,10.1,5.9,11.1,5.2,21.3,9.8,33.9,10.6h0Z"/>
    <path d="M1925,232c-.5,2.1-1.5,1.6-3,1.6-11.2-.2-18.6-4.3-28.4-8.7-12.8-5.8-12.3-6.4-27.1-8.8-1.5-.2-3.1,0-3.5-2,5.7,0,12.5-.2,18,1.5,3.8,1.2,6.8,4.4,10.1,5.9,11.1,5.2,21.3,9.8,33.9,10.6h0Z"/>
    <path d="M684.7,123.2l1,8.5c1.8,9.8-16.8,14.5-17.9,21.1-.9,5.6,8.3,10.9,10.8,14.8,1,1.5.3,2.5-.5,2.5s-9.1-8.8-9.9-10c-9.7-14.5,13-15.3,15.2-26.6.7-3.3-.2-7,1.2-10.2h.1Z"/>
    <path d="M1818.1,123.2l1,8.5c1.8,9.8-16.8,14.5-17.9,21.1-.9,5.6,8.3,10.9,10.8,14.8,1,1.5.3,2.5-.5,2.5s-9.1-8.8-9.9-10c-9.7-14.5,12.9-15.3,15.2-26.6.7-3.3-.2-7,1.2-10.2h.1Z"/>
    <path d="M1317.3,199.1c-4-.3-7.8-4-11.7-4.8s-7.8.5-11.3-.7c-2.1-.7-3.1-3.1-5.5-3.5-2.7-.5-6.1.3-9,0-5.7-.7-16.8-1.6-18.5-8,8.1,6.9,18.3,4.6,27.4,6,3.1.5,4.7,3.2,7.3,3.7,6.8,1.5,16.7-.9,21.3,7.2h0Z"/>
    <path d="M183.9,199.1c-4-.3-7.8-4-11.7-4.8-3.7-.7-7.8.5-11.3-.7-2.1-.7-3.1-3.1-5.5-3.5-2.7-.5-6.1.3-9,0-5.7-.7-16.8-1.6-18.5-8,8.1,6.9,18.4,4.6,27.4,6,3.1.5,4.7,3.2,7.3,3.7,6.8,1.5,16.7-.9,21.3,7.2h0Z"/>
    <path d="M1129.4,117.2c0,1.7.6,2.1-1.4,1.9-4.7-.5-11.5-3.4-16-2.9-4.8.6-10.9,7.4-17.1,8-2.5.3-14.2-1.7-15.5-3-.6-.6-.7-2.2,1.3-1.8,5.2,1,9.2,3.5,14.9,2.6,5.8-.9,10.8-7.2,16.2-7.8s12,1.9,17.5,3.1h0Z"/>
    <path d="M510.9,133.3c-1.3,2.3,1.9,5.6,1.9,8.3,0,8.8-23.9,11.7-29.1,17.5-.2-1.6.9-3.5,2.1-4.4,4.6-3.5,25.6-6.8,25-14-.2-2.2-3.7-4.3-3-6.9l5.4-3.6c2,2.1-2,2.6-2.3,3.2h0Z"/>
    <path d="M1645.8,122.5c-1.3,2.3,1.9,5.6,1.9,8.3,0,8.8-23.9,11.7-29.1,17.5-.2-1.6.8-3.5,2.1-4.4,4.6-3.5,25.6-6.8,24.9-14-.2-2.2-3.7-4.3-2.9-6.9l5.4-3.6c2,2.1-2,2.6-2.3,3.2h0Z"/>
    <path d="M79.9,209.1c-4-.3-7.6-2.2-11.6-2.9-5.9-1-12,2.4-14-6-1.5-6.3,1-11-5.4-16,10.2.8,4.5,15.6,9.4,19,2.7,1.9,7.5.5,11,1,1,.1,13.3,2.5,10.6,4.9h0Z"/>
    <path d="M1213.4,209.1c-4-.3-7.6-2.2-11.6-2.9-5.9-1-12,2.4-14-6-1.5-6.3,1.1-11-5.4-16,10.2.8,4.5,15.6,9.4,19,2.7,1.9,7.5.5,11,1,1,.1,13.3,2.5,10.6,4.9h0Z"/>
    <path d="M483,133.9c-3.8-3.8,2.5-12.1,7.2-6.7,3.9,4.4-3.4,10.5-7.2,6.7Z"/>
    <path d="M1616.4,133.9c-3.8-3.8,2.4-12.1,7.2-6.7,3.9,4.4-3.4,10.5-7.2,6.7Z"/>
    <path d="M1032.6,221.9c-4.6-10.4,12.8-13.2,6.4-.8l-6.4.8Z"/>
    <path d="M814.3,226.2c8.1-2.4,10.5,8.4,1.8,7.9-5.5-.3-5.9-6.7-1.8-7.9Z"/>
    <path d="M1947.7,226.2c8.1-2.4,10.5,8.4,1.8,7.9-5.5-.3-5.9-6.7-1.8-7.9Z"/>
    <path d="M148.7,168.8c-7.9,7.1-13.2-12.2-.5-10.5,4.2,1.2,2.7,8.5.5,10.5ZM145.6,160.3c-4.7,1.2-2.9,11.8,1.9,5.9,1.3-1.6,2.2-3,1-5.1-.9-1.1-1.6-1.2-2.9-.8h0Z"/>
    <path d="M1282.1,168.8c-7.9,7.1-13.2-12.2-.5-10.5,4.2,1.2,2.7,8.5.5,10.5ZM1279,160.3c-4.7,1.2-2.9,11.8,1.9,5.9,1.3-1.6,2.2-3,1-5.1-.8-1.1-1.6-1.2-2.9-.8h0Z"/>
    <path d="M876.5,123.2c.7-2.1,1.1-1.7,2.8-1.3,2.1.4,10.7,4.2,12.6,5.5,4.1,2.6,5.6,6.9,8.6,10.3-2.2,3.4-4.5-3.2-6-5-4.7-5.2-11.7-6.9-18-9.5h0Z"/>
    <path d="M2009.9,123.2c.7-2.1,1.1-1.7,2.8-1.3,2.1.4,10.7,4.2,12.6,5.5,4.1,2.6,5.6,6.9,8.6,10.3-2.2,3.4-4.5-3.2-6-5-4.7-5.2-11.7-6.9-18-9.5Z"/>
    <path d="M1295.3,129.2l-2.3,3.2-20.7,13.8c-.4-2,1-2.4,2.1-3.4,2.1-2,19.4-15,20.9-13.6h0Z"/>
    <path d="M161.9,129.2l-2.3,3.2-20.7,13.8c-.4-2,1-2.4,2.1-3.4,2.1-2,19.4-15,20.9-13.6h0Z"/>
    <path d="M1501.3,235.9c-2.3-14,14.8-5.1,6.2,0-1.9,1.1-4.2.5-6.2,0Z"/>
    <path d="M367.9,235.9c-2.4-14,14.8-5.1,6.2,0-1.9,1.1-4.2.5-6.2,0Z"/>
    <path d="M1948.1,121.1c-3.7-4.2,6.9-10.4,9.5-4.9,1.6,3.4-7.4,7.3-9.5,4.9Z"/>
    <path d="M814.7,121.1c-3.7-4.2,6.9-10.4,9.5-4.9,1.6,3.4-7.4,7.3-9.5,4.9Z"/>
    <path d="M1803.8,189.2c6.8-1.7,7.3,10.2-1,7.7-4.4-1.3-1.8-7,1-7.7Z"/>
    <path d="M670.3,189.2c6.8-1.7,7.3,10.2-1,7.7-4.4-1.3-1.8-7,1-7.7Z"/>
    <path d="M1319.2,116.3c2.7,4.2-4.7,10.2-7.4,4.9-2.9-5.7,6-7.1,7.4-4.9Z"/>
    <path d="M185.8,116.3c2.7,4.2-4.7,10.2-7.4,4.9-2.9-5.7,6-7.1,7.4-4.9Z"/>
    <path d="M1298.3,222c5.5,0,5.1,9,.5,9-5.1-1.3-1.1-6.1-.5-9Z"/>
    <path d="M164.9,222c5.5,0,5.1,9,.5,9-5.1-1.3-1.1-6.1-.5-9Z"/>
    <path d="M1103.3,190.2c.8,2.2-.6,7.3-3.3,6.8l-2.5-5.3c1.3-2.4,3.5-2.7,5.8-1.6h0Z"/>
    <path d="M1057.4,122.2c-.5,3.5-15.8.6-13-2l13,2Z"/>
    <path class="st0" d="M970.5,65.7c.7-5.8,4.7-18.2,6.5-24.5.5-1.6,1-5.4,2.5-6l-4,41.4,2,2.5c3.2-17.2.4-45.8,9.8-60.6.8-1.2,1.6-2.9,3.2-3.3l-5,64.4,2,1.5c.2-8.8.4-17.7,1-26.4.8-11,1.5-24.1,3.1-34.8.4-2.6.4-7.4,2.9-8.6.6,24-2.1,47.9-3,71.9l-21-1c.5-5.2-.6-11.4,0-16.5h0Z"/>
    <path class="st0" d="M1921,84.2V28.8c0-.2.9-3.9,2-3.5.7,10.4,4.3,21.2,5,31.5.6,9-1.3,17.8-1.1,26.8-1.1,3.2-11.8,1-14.9,1.6l3.1-57.3,4.9-9.5c-.2,19.8-2.6,41.8-1,61.5,0,1.8-.2,3.9,2.1,4.4h0Z"/>
    <path class="st0" d="M787.6,84.2V28.8c0-.2.9-3.9,2-3.5.7,10.4,4.3,21.2,5,31.5.6,9-1.3,17.8-1.1,26.8-1,3.2-11.8,1-14.9,1.6l3.1-57.3,4.9-9.5c-.2,19.8-2.6,41.8-1,61.5,0,1.8-.2,3.9,2,4.4h0Z"/>
    <path class="st0" d="M795.6,84.2c-.7-.7.5-18.1,1-20.4.4-1.9,2-3.4,2.5-5.5,1.2-5,2.9-9.9,3.5-15,1.7-.2.9,2.3,1,3.5,0,2.9.2,6.1,0,9-.3,7.1-2.9,17.2-2.1,24,.2,1.5.2,3.1,2,3.4.7-15.5,1.8-31,3-46.4,0-1.3-.9-4.2,1.5-3.5.9.3,2.5,16.8,2.8,19.2.5,3.3,2.7,8,2.7,10.2,0,3.7-1.3,15-2,19-.2,1.1-.5,1.9-1.5,2.5h-14.5,0Z"/>
    <path class="st0" d="M1929,84.2c-.7-.7.5-18.1,1.1-20.4.4-1.9,1.9-3.4,2.5-5.5,1.2-5,2.9-9.9,3.5-15,1.7-.2.9,2.3,1,3.5,0,2.9.2,6.1,0,9-.3,7.1-2.9,17.2-2.1,24,.2,1.5.2,3.1,2,3.4.7-15.5,1.8-31,3-46.4,0-1.3-.9-4.2,1.5-3.5.9.3,2.4,16.8,2.8,19.2.5,3.3,2.7,8,2.7,10.2,0,3.7-1.3,15-2,19-.2,1.1-.5,1.9-1.5,2.5h-14.5Z"/>
    <path class="st0" d="M1266.3,91.2l-10-2.7-5.9-72.2c2,1.4,2.8,5.7,3.5,8,6.5,21.8,11.4,44.1,12.5,66.9h0Z"/>
    <path class="st0" d="M132.9,91.2l-10-2.7-5.9-72.2c2,1.4,2.8,5.7,3.5,8,6.5,21.8,11.4,44.1,12.5,66.9,0,0-.1,0-.1,0Z"/>
    <path class="st0" d="M880.5,81.2l2.5-63.9c4.2,5.7,5.5,13.7,6.4,20.6,1.3,10.1,2.4,29,1.2,38.9,0,1.1,0,2.2-1,3l-9,1.5h-.1Z"/>
    <path class="st0" d="M2013.9,81.2l2.5-63.9c4.2,5.7,5.5,13.7,6.4,20.6,1.3,10.1,2.4,29,1.2,38.9,0,1.1,0,2.2-1,3l-9,1.5h0Z"/>
    <path class="st0" d="M1239.3,93.2c-2.7-23.5,0-46.2,5.3-69.1l2.7-7.8c.9,24.8-3.3,49.8.7,74.4l-8.7,2.4h0Z"/>
    <path class="st0" d="M105.9,93.2c-2.7-23.5,0-46.2,5.3-69.1l2.7-7.8c.9,24.8-3.3,49.8.7,74.4l-8.7,2.4h0Z"/>
    <path class="st0" d="M1037.4,77.2c2.4-12.1,2-25.4,4.1-37.3.2-1.1.3-3.7,1.9-3.6.2,8.1-.2,16.3,0,24.5,0,2.2,1.6,3.6,1.7,5.1.4,3.6-2.2,9.4-1.7,13.4l-14-1c-1.9-1.9,7.8-46.8,9.7-52.7.4-1.2.8-4.2,2.2-4.2,0,2.8.2,5.7,0,8.5-1,13.9-5.7,30.6-5.9,44.1,0,1.6.2,2.9,1.9,3.3h.1Z"/>
    <path class="st0" d="M1821.1,13.3l-6.5,71.8-6-2.9c-1.1-1.8,1.1-22.5,1.6-26.3,1.9-14.3,5.3-29.3,10.9-42.6Z"/>
    <path class="st0" d="M687.7,13.3l-6.5,71.8-6-2.9c-1.1-1.8,1.1-22.5,1.6-26.3,2-14.3,5.3-29.3,10.9-42.6Z"/>
    <path class="st0" d="M1142.4,10.3c-4.4,23.3-5,47.4-2,70.9-2.9.9-6.6,1.9-9-.7-.4-20.1.7-40.6,5.7-60.1.7-2.8,1.4-5.6,2.8-8.2.8-1.4,0-2.5,2.5-1.9h0Z"/>
    <path class="st0" d="M2070.9,13.8c.1-1.3,1.8-3.4,1-5.5.2-.3,1.3.5,1.5,1,1.7,3.5,4.2,21.7,4.5,26.4,1,15.5-2.6,30.1-2,45.5h-5V13.8Z"/>
    <path class="st0" d="M937.5,13.8c0-1.3,1.8-3.4,1-5.5.2-.3,1.3.5,1.5,1,1.7,3.5,4.2,21.7,4.5,26.4,1,15.5-2.5,30.1-2,45.5h-5V13.8h0Z"/>
    <path class="st0" d="M591.7,23.3c-.7,1.5-1,2.7-1.1,4.4-.3,18.8-2.7,37.9,1.1,56.5l-10,1c-1.5-17.4.4-36.1,5.5-52.9.7-2.2,1.4-4.7,2.2-6.8.6-1.5-.6-2.7,2.2-2.2h0Z"/>
    <path class="st0" d="M1725.1,23.3c-.7,1.5-1,2.7-1.1,4.4-.3,18.8-2.7,37.9,1.1,56.5l-10,1c-1.6-17.4.4-36.1,5.5-52.9.7-2.2,1.4-4.7,2.2-6.8.6-1.5-.6-2.7,2.2-2.2h.1Z"/>
    <path class="st0" d="M1297.3,87.2c-.6-20.8,1.1-41.7,5.3-62.1l5.7-14.8-5,73.4c-.4,2.8-3.6,3.6-6,3.5h0Z"/>
    <path class="st0" d="M163.9,87.2c-.6-20.8,1.1-41.7,5.3-62.1l5.7-14.8-5,73.4c-.4,2.8-3.6,3.6-6,3.5h0Z"/>
    <path class="st0" d="M1166.4,86.2l-5.9-2.1c-1.8-2.1,2.8-48.9,4.2-55,.6-2.6,1.2-5.3,2.2-7.8.5-1.3,2.1-4.5,3.5-5l-4,69.9h0Z"/>
    <path class="st0" d="M33,86.2l-5.9-2.1c-1.8-2.1,2.8-48.9,4.2-55,.6-2.6,1.2-5.3,2.2-7.8.5-1.3,2.1-4.5,3.5-5l-4,69.9Z"/>
    <path class="st0" d="M248.9,88.2l-10.1-2.6c2.1-15.6,6.1-30.7,12.9-45,1.3-2.7,2.9-6.5,5.2-8.3l-8,55.9h0Z"/>
    <path class="st0" d="M1382.3,88.2l-10.1-2.6c2.1-15.6,6.1-30.7,12.9-45,1.3-2.7,2.9-6.5,5.2-8.3l-8,55.9h0Z"/>
    <path class="st0" d="M1451.1,83.1l-7.9,1.1c-.6-24.5,1-49.8,9.5-72.9.2,10.8-2.1,21.7-2.5,32.4-.5,13.1.5,26.3.9,39.4Z"/>
    <path class="st0" d="M317.7,83.1l-7.9,1.1c-.5-24.5,1-49.8,9.5-72.9.2,10.8-2.1,21.7-2.5,32.4-.5,13.1.5,26.3.9,39.4h0Z"/>
    <path class="st0" d="M913.7,50.1c.7.4,2,0,2.9,0,.4-4.3.5-9.1,1.1-13.4.2-1.5.5-6,1.9-6.6l1,47.9h-8.4l-1.5-1.6c.7-16.3-1.9-32.2-4.1-48.3l7.1,21.8h0v.2Z"/>
    <path class="st0" d="M2047.1,50.1c.7.4,1.9,0,2.9,0,.4-4.3.6-9.1,1.1-13.4.2-1.5.5-6,1.9-6.6l1,47.9h-8.4l-1.5-1.6c.7-16.3-1.9-32.2-4.1-48.3l7.1,21.8h0v.2Z"/>
    <path class="st0" d="M1541.2,84.2h-5c.6-4.4-.4-10.3,0-14.4,1-10.5,4.9-34.6,9.5-43.5l7.5-11c-4.2,22.9-11.1,45.5-12,68.9h0Z"/>
    <path class="st0" d="M407.8,84.2h-5c.6-4.4-.4-10.3,0-14.4,1-10.5,4.9-34.6,9.5-43.5l7.5-11c-4.2,22.9-11.1,45.5-12,68.9h0Z"/>
    <path class="st0" d="M511.7,84.2l-6-.5c.3-1.3,1-2.6,1-4,.5-17.3,1.7-36.6,4.1-53.8.6-4.5,1.2-11.8,4.9-14.6l-4,72.8h0Z"/>
    <path class="st0" d="M1645.1,84.2l-6-.5c.3-1.3,1-2.6,1-4,.5-17.3,1.7-36.6,4.1-53.8.6-4.5,1.2-11.8,4.9-14.6l-4,72.8h0Z"/>
    <path class="st0" d="M1678.1,85.2l-8.9-1.1c.4-7.1-.9-15.5-.2-22.4.4-3.6,2.1-4.7,2.6-7.4,2.1-9.7,3.7-19.5,6.4-29,2.8.6,0,5.7,0,6.5v53.4h0Z"/>
    <path class="st0" d="M544.7,85.2l-8.9-1.1c.4-7.1-.9-15.5-.2-22.4.4-3.6,2.1-4.7,2.6-7.4,2-9.7,3.7-19.5,6.5-29,2.8.6,0,5.7,0,6.5v53.4h0Z"/>
    <path class="st0" d="M1337.3,88.2l-6.4-.9,3.4-68c2,.9,2.4,5.7,2.7,7.8,3.2,19.8.4,41.3.3,61.1Z"/>
    <path class="st0" d="M203.9,88.2l-6.4-.9,3.4-68c2,.9,2.4,5.7,2.7,7.8,3.2,19.8.4,41.3.3,61.1Z"/>
    <path class="st0" d="M1802.1,50.3l-2,10.4,1,19.5c-2.7,0-5.4.8-6-2.5-1.7-9.4-.3-21.4,2.3-30.7.3-1,.2-3,1.7-2.8.6,4.3-.8,8.3-1,12.4,0,1.1-.7,4.7,1,4.5l2-26c1.7-.2.9,2.3,1,3.5.2,5.2-1.7,10.9,4,13.5,1.3-5.4,2.5-10.8,4.5-16,.3-.7.5-3.1,1.5-1.5l-6,46.4c-2.1,2.4-4-6.6-4-7.5v-23.5h0v.3Z"/>
    <path class="st0" d="M668.7,50.3l-2,10.4,1,19.5c-2.7,0-5.4.8-6-2.5-1.7-9.4-.3-21.4,2.3-30.7.3-1,.2-3,1.7-2.8.6,4.3-.8,8.3-1,12.4,0,1.1-.7,4.7,1,4.5l2-26c1.7-.2,1,2.3,1,3.5.2,5.2-1.7,10.9,4,13.5,1.3-5.4,2.5-10.8,4.5-16,.3-.7.5-3.1,1.5-1.5l-6,46.4c-2.1,2.4-4-6.6-4-7.5v-23.5h0v.3Z"/>
    <path class="st0" d="M42,90.2l-7.8-3.6,4.8-72.3c1.5-.2,1.2,1.9,1.5,3,.7,2.6,1.4,5.7,1.6,8.4,1.5,20.9-1.3,43.5,0,64.4h0Z"/>
    <path class="st0" d="M1175.4,90.2l-7.8-3.6,4.8-72.3c1.5-.2,1.2,1.9,1.5,3,.7,2.6,1.4,5.7,1.6,8.4,1.4,20.9-1.3,43.5,0,64.4h0Z"/>
    <path class="st0" d="M721.6,85.2l-4.8-1.6c0-7.9-.4-15.9-.2-23.9,0-2.4,1-4.5,1.1-6.9.4-13.2-2.4-30.8,6-41.5l-2,73.9h0Z"/>
    <path class="st0" d="M1855,85.2l-4.8-1.6c0-7.9-.4-15.9-.2-23.9,0-2.4,1-4.5,1.1-6.9.4-13.2-2.4-30.8,5.9-41.5l-2,73.9h0Z"/>
    <path class="st0" d="M509.7,22.3l-5.1,61.3c-.8,2.5-4.7,1.5-6.9,1.6,2-19.7.7-42.9,9.5-60.9.7-1.4-.2-2.5,2.4-2,0,0,.1,0,.1,0Z"/>
    <path class="st0" d="M1643.1,22.3l-5.1,61.3c-.8,2.5-4.7,1.5-6.9,1.6,2-19.7.7-42.9,9.6-60.9.7-1.4-.2-2.5,2.4-2h0Z"/>
    <path class="st0" d="M299.9,88.2l-6,.5c.2-14.9.3-30,1-44.9,0-1.7.9-3.3,1-5,.2-2.9.6-31.5,2.5-31.5l1.5,80.9h0Z"/>
    <path class="st0" d="M1433.3,88.2l-6,.5c.2-14.9.3-30,1-44.9,0-1.7.9-3.3,1-5,.2-2.9.6-31.5,2.5-31.5l1.5,80.9Z"/>
    <path class="st0" d="M1824.9,85.1l-5.3,1-1.7-3.4c0-21.6,3.2-43.1,5.5-64.5,2.6,12.3,1.1,25,1.4,37.5,0,2,1.7,3.2,1.8,4.7.3,7.3-3.1,16.7-1.8,24.6h0Z"/>
    <path class="st0" d="M1622.2,26.3c1.1,8.5.7,16.9,1,25.4,0,2.6,1.4,5.3,1.4,8,0,7.5-3.3,17-2.4,25-.4,3.5-4.3,2.4-7,2.5,1.1-19.8,2.5-39.7,5-59.4.2-1.8-.4-1.6,2-1.5h0Z"/>
    <path class="st0" d="M691.5,85.1l-5.3,1-1.7-3.4c0-21.6,3.2-43.1,5.5-64.5,2.5,12.3,1.1,25,1.4,37.5,0,2,1.7,3.2,1.8,4.7.3,7.3-3.1,16.7-1.8,24.6h0Z"/>
    <path class="st0" d="M488.7,26.3c1.1,8.5.7,16.9,1,25.4,0,2.6,1.4,5.3,1.4,8,.1,7.5-3.3,17-2.4,25-.4,3.5-4.3,2.4-7,2.5,1.1-19.8,2.5-39.7,5-59.4.2-1.8-.4-1.6,2-1.5h0Z"/>
    <path class="st0" d="M300.9,87.2l.5-71.9c1.9,0,4.3,28.1,4.8,31.2.5,3.5,2.5,6.7,2.8,9.2.6,5.4-1.3,16.1-1.1,23s3.2,7.3-7,8.5h0Z"/>
    <path class="st0" d="M1434.3,87.2l.5-71.9c1.9,0,4.3,28.1,4.8,31.2.5,3.5,2.5,6.7,2.8,9.2.6,5.4-1.3,16.1-1.1,23s3.2,7.3-7,8.5h0Z"/>
    <path class="st0" d="M1102.4,25.3l5.1,55.3-5.5,1.4-1.6-2.4c1.8-14.1-5.9-40.7-.2-53.2.6-1.4,0-1.6,2.2-1.3h0v.2Z"/>
    <path class="st0" d="M323.8,82.2h-4c-1.9-25.3-1.1-50.8,2.5-75.9l2.5,10.5-1,65.4h0Z"/>
    <path class="st0" d="M1457.2,82.2h-4c-1.9-25.3-1.1-50.8,2.5-75.9l2.5,10.5-1,65.4h0Z"/>
    <path class="st0" d="M1892,83.2l-9-1c.2-10.1-1.7-20.4-2-30.4-.2-6.2-.8-19,.3-24.6.4-1.8,1.3-1.4,1.7-.9l5,37.9,4-1v20h0Z"/>
    <path class="st0" d="M758.6,83.2l-9-1c.2-10.1-1.7-20.4-2-30.4-.2-6.2-.8-19,.3-24.6.4-1.8,1.3-1.4,1.7-.9l5,37.9,4-1v20h0Z"/>
    <path class="st0" d="M479.6,87.1l-2.9.7c-1-.7-1.7-3.8-1.9-5.2-.5-4.3.5-18.9.9-23.8.9-10.4,3.6-26.2,7-36,.5-1.5,1.5-5,3-5.5l-6.1,69.8h0Z"/>
    <path class="st0" d="M1328.3,86.2l-5-1.7c.6-21.1,2.5-42.7,6.3-63.5.6-3.2,1-8.8,3.7-10.8l-5,75.9h0Z"/>
    <polygon class="st0" points="1697.1 87.2 1688.1 86.2 1687.1 54.8 1689.2 59.2 1692.1 59.2 1697.6 33.3 1697.1 87.2"/>
    <path class="st0" d="M194.9,86.2l-5-1.7c.6-21.1,2.5-42.7,6.3-63.5.6-3.2,1-8.8,3.7-10.8l-5,75.9h0Z"/>
    <path class="st0" d="M1613.1,87.1l-2.9.7c-1-.7-1.7-3.8-1.9-5.2-.5-4.3.5-18.9.9-23.8.9-10.4,3.6-26.2,6.9-36,.5-1.5,1.5-5,3-5.5l-6.1,69.8h0Z"/>
    <polygon class="st0" points="563.7 87.2 554.7 86.2 553.7 54.8 555.8 59.2 558.6 59.2 564.2 33.3 563.7 87.2"/>
    <path class="st0" d="M1517.1,87.1l-3.8,1.1c-.9-17.9,1.7-35.6,5.3-53.1,1.1-5.1,2.2-11.6,3.5-16.4.4-1.4.4-3,2.1-3.3l-7.1,71.8h0Z"/>
    <path class="st0" d="M383.7,87.1l-3.9,1.1c-.9-17.9,1.7-35.6,5.3-53.1,1-5.1,2.2-11.6,3.5-16.4.4-1.4.4-3,2.1-3.3l-7.1,71.8h.1Z"/>
    <path class="st0" d="M565.7,87.2l-1-25.5c1.9-12.9.3-26.7,4.8-39.2.8-2.4,1.6-5.2,4.3-6.2l-4,68.4c-.4,2.5-1.6,2.8-4,2.5h0Z"/>
    <path class="st0" d="M1699.1,87.2l-1.1-25.5c1.9-12.9.3-26.7,4.8-39.2.8-2.4,1.6-5.2,4.3-6.2l-4,68.4c-.4,2.5-1.6,2.8-4,2.5h0Z"/>
    <path class="st0" d="M1066.4,81.2l-5-.6,4-59.3c3.3,1.9,3.8,8.8,4,12.4,1.2,16-3.1,31.6-3,47.5h0Z"/>
    <polygon class="st0" points="1312.2 82.1 1305.3 84.2 1309.3 24.3 1311.3 32.8 1313.8 60.1 1312.2 82.1"/>
    <path class="st0" d="M1425.2,90.2l-4.9-1.6c2.8-20.5-1.8-41.7,3.8-62l4.1-11.4-3,74.9h0Z"/>
    <path class="st0" d="M291.8,90.2l-4.9-1.6c2.8-20.5-1.8-41.7,3.8-62l4.1-11.4-3,74.9h0Z"/>
    <polygon class="st0" points="178.8 82.1 171.9 84.2 175.9 24.3 177.9 32.8 180.4 60.1 178.8 82.1"/>
    <path class="st0" d="M1059.4,80.2l-8.9-1.1c.4-13.1,4-26,6.4-38.9l5.5-13-3,52.9h0Z"/>
    <path class="st0" d="M1321.3,84.2l-7-2.7c.2-15.7,3.2-30.3,7.5-45.3l5.5-14c-1.8,20.6-6.8,41.1-6,61.9h0Z"/>
    <path class="st0" d="M187.9,84.2l-7-2.7c.2-15.7,3.2-30.3,7.5-45.3l5.5-14c-1.9,20.6-6.9,41.1-6,61.9h0Z"/>
    <path class="st0" d="M65.9,26.3c3.6,8.3,1.1,16.4,1,24.4,0,11.7,0,23.2,1.1,34.8l-7,1.7,3-59.4,2-1.5h0Z"/>
    <polygon class="st0" points="1467.2 83.2 1460.2 81.7 1459.2 79.7 1460.2 24.3 1466.2 58.8 1467.2 83.2"/>
    <path class="st0" d="M1124.4,81.2l-7-1c-.3-19.4-3.6-38.5-1-57.9l8,49.4v9.5Z"/>
    <path class="st0" d="M51,91.2h-8l1-60.9,2.7,11.8c2.1,16.4,5.5,32.5,4.3,49.1Z"/>
    <path class="st0" d="M1184.4,91.2h-8l1-60.9,2.7,11.8c2.1,16.4,5.5,32.5,4.3,49.1Z"/>
    <polygon class="st0" points="333.8 83.2 326.8 81.7 325.8 79.7 326.8 24.3 332.8 58.8 333.8 83.2"/>
    <path class="st0" d="M578.1,56.9c0,.3,1.5,0,1.7,1.8,1,8.4-.9,18.9,0,27.5h-8l2-55.9,2,9.5c-.4,6,.2,11.6,2.4,17.1h-.1Z"/>
    <path class="st0" d="M1711.5,56.9c0,.3,1.4,0,1.7,1.8,1,8.4-.9,18.9,0,27.5h-8l2-55.9,2,9.5c-.4,6,.2,11.6,2.4,17.1h0Z"/>
    <path class="st0" d="M1543.2,83.2c-2.4-2.4,7.6-45.4,8.5-51.9l2.5-8-2.1,57.3-8.9,2.6h0Z"/>
    <path class="st0" d="M409.8,83.2c-2.4-2.4,7.5-45.4,8.5-51.9l2.5-8-2,57.3-8.9,2.6s-.1,0-.1,0Z"/>
    <path class="st0" d="M1581.2,26.3l-4.5,57.9-5.5-4.5c-.2-18.4,3.3-36.4,10-53.4Z"/>
    <path class="st0" d="M447.8,26.3l-4.5,57.9-5.5-4.5c-.1-18.4,3.3-36.4,10-53.4Z"/>
    <path class="st0" d="M1482.2,86.2h-6c.3-10.2-1.9-20.2-.9-30.3.8-7.5,4.3-15.9,4.9-23.6l2,9.5c.2,9.1,0,18.1,0,26.9s.2,11.7,0,17.5h0Z"/>
    <path class="st0" d="M348.8,86.2h-6c.3-10.2-1.9-20.2-.9-30.3.8-7.5,4.4-15.9,4.9-23.6l2,9.5c.2,9.1,0,18.1,0,26.9s.1,11.7,0,17.5h0Z"/>
    <polygon class="st0" points="1221.4 88.2 1217.3 87.8 1216.4 27.3 1224.4 59.8 1221.4 88.2"/>
    <polygon class="st0" points="87.9 88.2 83.9 87.8 83 27.3 91 59.8 87.9 88.2"/>
    <path class="st0" d="M2007,83.2c.3-8.1-.4-16.4,0-24.5.4-9.3,1.4-25.7,3.7-34.2.4-1.5,1.7-5.5,3.3-6.2l-2.9,64.5-4.1.4h0Z"/>
    <path class="st0" d="M1502.2,84.2l-5.9-1.1v-4.5l8.9-54.4v22.5c0,2.6,1.2,5.1,1.1,7.9,0,9-4.1,20.1-4.1,29.5h0Z"/>
    <path class="st0" d="M368.8,84.2l-5.9-1.1v-4.5c-.1,0,8.9-54.4,8.9-54.4v22.5c0,2.6,1.1,5.1,1.1,7.9,0,9-4.1,20.1-4.1,29.5h0Z"/>
    <path class="st0" d="M873.5,83.2c.3-8.1-.4-16.4,0-24.5.4-9.3,1.4-25.7,3.7-34.2.4-1.5,1.7-5.5,3.3-6.2l-2.9,64.5-4.1.4h0Z"/>
    <path class="st0" d="M729.6,85.2h-6l1-66.9c1.4-.2,1.5,1.8,1.7,2.8,1.2,4.7,1.8,11.8,2.3,16.7,1.4,15.7.9,31.6,1,47.4h0Z"/>
    <path class="st0" d="M835.6,83.2l-6.4-.9,3.4-56,2.9,9.6c1.2,15.7,2,31.6,0,47.3h0Z"/>
    <path class="st0" d="M1863,85.2h-6l1-66.9c1.4-.2,1.4,1.8,1.7,2.8,1.2,4.7,1.8,11.8,2.3,16.7,1.4,15.7.9,31.6,1,47.4Z"/>
    <path class="st0" d="M1969,83.2l-6.4-.9,3.4-56,2.9,9.6c1.2,15.7,2,31.6,0,47.3h0Z"/>
    <path class="st0" d="M857.5,85.2c.4-18-2.3-35.9-.5-53.9l9.2,52.5c-.4,2.4-6.9,1.2-8.7,1.5h0Z"/>
    <path class="st0" d="M1991,85.2c.4-18-2.3-35.9-.5-53.9l9.2,52.5c-.4,2.4-6.9,1.2-8.7,1.5h0Z"/>
    <path class="st0" d="M905.5,24.3l3,53.9c-2.9,0-6.3,1.1-7-2.5-.9-4.8,0-14.6,0-20s-1-3.9-.9-5.8c.2-6.3,1.9-17.4,2.9-24.1.3-1.7-.5-1.7,2-1.5h0Z"/>
    <path class="st0" d="M2038.9,24.3l3,53.9c-2.9,0-6.3,1.1-7-2.5-.9-4.8,0-14.6,0-20s-1-3.9-.9-5.8c.2-6.3,1.9-17.4,2.9-24.1.3-1.7-.5-1.7,2-1.5h0Z"/>
    <path class="st0" d="M776.6,85.2c-2.2,0-6,.8-6.9-1.6-1.1-13.3.4-25.7,4.4-38.3l4.5-11-2,50.9h0Z"/>
    <path class="st0" d="M1910,85.2c-2.2,0-6,.8-6.9-1.6-1.1-13.3.4-25.7,4.4-38.3l4.5-11-2,50.9h0Z"/>
    <polygon class="st0" points="1282.3 59.2 1284.3 52.3 1284.3 93.2 1280 93.2 1274.3 35.3 1279.6 57.5 1282.3 59.2"/>
    <polygon class="st0" points="148.9 59.2 150.9 52.3 150.9 93.2 146.6 93.2 140.9 35.3 146.2 57.5 148.9 59.2"/>
    <path class="st0" d="M2076.9,81.2c2.6-10.7-.8-23.9,6.5-32.9l5.5-15-3.1,47.3-2.3,1.7-6.5-1h0Z"/>
    <path class="st0" d="M943.5,81.2c2.6-10.7-.8-23.9,6.5-32.9l5.5-15-3.1,47.3-2.3,1.7-6.5-1h-.1Z"/>
    <path class="st0" d="M356.8,55.2c4-6.5,4.8-15.4,8-23.5l5-8.9-9,61.4h-4c0-4-.8-27.7,0-29Z"/>
    <path class="st0" d="M1490.2,55.2c4-6.5,4.8-15.4,8-23.5l5-8.9-9,61.4h-4c0-4-.8-27.7,0-29Z"/>
    <path class="st0" d="M935.5,80.2l-6.6-1c1.5-3.9-.5-7.1-.5-10.5,0-12.3,4-25.4,4.2-37.8l2.9-11.6v60.9h0Z"/>
    <path class="st0" d="M2068.9,80.2l-6.6-1c1.5-3.9-.6-7.1-.5-10.5.1-12.3,4-25.4,4.2-37.8l2.9-11.6v60.9h0Z"/>
    <path class="st0" d="M466.8,87.2v-22.5c0-2.3,5.5-20.6,6.7-24.2s2.8-7.3,4.1-10.8c1-2.5,1.3-2.5,1.1.1-.5,8.7-4.1,19.5-5,29-.7,7.2-1.1,16.7-1.1,24s2.7,5.1-5.9,4.4h0Z"/>
    <path class="st0" d="M1600.2,87.2v-22.5c0-2.3,5.5-20.6,6.7-24.2s2.8-7.3,4.2-10.8c1-2.5,1.3-2.5,1.2.1-.5,8.7-4.1,19.5-5,29-.7,7.2-1.1,16.7-1.1,24s2.7,5.1-5.9,4.4h0Z"/>
    <path class="st0" d="M646.7,83.2h-6l3-62.9c1.5,0,1.7,3.5,1.9,4.6,2.5,19.2.4,39,1.1,58.3h0Z"/>
    <path class="st0" d="M1780.1,83.2h-6l3-62.9c1.5,0,1.7,3.5,1.9,4.6,2.5,19.2.4,39,1.1,58.3h0Z"/>
    <path class="st0" d="M377.8,87.2l-6.8-2.2c1.1-18.1,4.7-36.2,10.8-53.3l4-8.5c-4.7,21-9,42.2-8,63.9h0Z"/>
    <path class="st0" d="M1511.2,87.2l-6.8-2.2c1.1-18.1,4.7-36.2,10.8-53.3l4-8.5c-4.7,21-9,42.2-8,63.9h0Z"/>
    <path class="st0" d="M1882,82.2l-4.9.6-1.9-1.2c-.4-18.8-4.2-39.8,4.4-57.3,0,10.1-.9,20.3-.6,30.5,0,2.1.9,4,1,6,.4,7.2-.4,14.5,2,21.5h0Z"/>
    <path class="st0" d="M748.6,82.2l-5,.6-1.9-1.2c-.4-18.8-4.2-39.8,4.4-57.3,0,10.1-.9,20.3-.5,30.5,0,2.1.9,4,1,6,.4,7.2-.5,14.5,2,21.5h0Z"/>
    <path class="st0" d="M1848,84.2h-7c-.8-18.3,3.3-36.3,7.5-53.9l-.5,53.9Z"/>
    <path class="st0" d="M546.7,27.3c1.6.5,1.9,4.6,2.3,6.2,4.1,17.2,2.5,35.2,3.7,52.8l-6-1.5V27.3Z"/>
    <path class="st0" d="M1680.1,27.3c1.6.5,1.9,4.6,2.3,6.2,4.1,17.2,2.5,35.2,3.7,52.8l-6-1.5V27.3Z"/>
    <path class="st0" d="M714.6,84.2h-7c-.8-18.3,3.3-36.3,7.5-53.9l-.5,53.9Z"/>
    <path class="st0" d="M385.8,86.2l7-61.9c.9,15,1.9,31.4,1,46.5-.2,3.1-.6,9.2-1,11.9-.6,3.2-4.4,3.7-7,3.5h0Z"/>
    <path class="st0" d="M1519.2,86.2l7-61.9c.9,15,1.9,31.4,1.1,46.5-.2,3.1-.6,9.2-1,11.9-.6,3.2-4.4,3.7-7,3.5h0Z"/>
    <path class="st0" d="M264.9,88.2h-6l3-55.9c1.8.5,2.1,4.4,2.5,6,3.4,14.5,1.4,23.3.5,37.5-.3,4.1.2,8.3,0,12.5h0Z"/>
    <path class="st0" d="M1398.3,88.2h-6l3-55.9c1.8.5,2.1,4.4,2.5,6,3.4,14.5,1.4,23.3.5,37.5-.3,4.1.2,8.3,0,12.5h0Z"/>
    <path class="st0" d="M1787.9,81.1l-5.8,1.2-1-56.9c2.1,1.3,2.8,5.9,3.3,8.1,3.4,15.1,3.6,32.1,3.5,47.6h0Z"/>
    <path class="st0" d="M654.5,81.1l-5.8,1.2-1-56.9c2,1.3,2.8,5.9,3.3,8.1,3.4,15.1,3.6,32.1,3.5,47.6h0Z"/>
    <path class="st0" d="M616.7,80.2l-6.6-.9c-2.6-16.1-1.2-31.5,3.6-47l3,47.9Z"/>
    <path class="st0" d="M1750.1,80.2l-6.6-.9c-2.6-16.1-1.2-31.5,3.6-47l3,47.9h0Z"/>
    <path class="st0" d="M968.5,82.2h-7c-1.7-16.7.5-33.2,0-49.9l5.2,25.2c5,7,.3,16.3,1.8,24.7Z"/>
    <path class="st0" d="M2101.9,82.2h-7c-1.7-16.7.5-33.2,0-49.9l5.2,25.2c5,7,.3,16.3,1.8,24.7Z"/>
    <path class="st0" d="M2032.9,78.2l-6.9,1.1c.2-16.4.2-32.7-2-48.9l8.7,26.7.2,21.1h0Z"/>
    <path class="st0" d="M899.5,78.2l-6.9,1.1c.2-16.4.2-32.7-2-48.9l8.7,26.7.2,21.1Z"/>
    <path class="st0" d="M1106.4,30.3c1,4.2,2.5,8.5,3.9,12.5.7,2,2.6,2.8,3,5,2,9.7,1.1,22.4,2,32.4h-6l-5-49.5,2-.5h0Z"/>
    <path class="st0" d="M224.7,84.1l-5.9,1.2,2-52.9,2.9,12.6c-1.3,7.3,2,15.3,2.2,21.9.1,5.2-1.9,11.6-1.2,17.3h0Z"/>
    <path class="st0" d="M1358.2,84.1l-5.8,1.2,2-52.9,2.9,12.6c-1.3,7.3,2,15.3,2.2,21.9,0,5.2-1.9,11.6-1.2,17.3h0Z"/>
    <path class="st0" d="M260.9,28.3l-4,60.9-5.6-.9c-.7-1,.4-10.2.7-12.4,1.5-14.1,4-31.2,6.9-45.1.4-1.7-1.1-3,2-2.5h0Z"/>
    <path class="st0" d="M1394.3,28.3l-4,60.9-5.6-.9c-.7-1,.4-10.2.7-12.4,1.5-14.1,4-31.2,6.9-45.1.4-1.7-1.1-3,2-2.5h0Z"/>
    <path class="st0" d="M1585.3,85.1l3.8-61.8,2,60.4c-.5,3.5-3.4,2.5-5.8,1.4h0Z"/>
    <path class="st0" d="M451.9,85.1l3.8-61.8,2,60.4c-.5,3.5-3.4,2.5-5.8,1.4h0Z"/>
    <path class="st0" d="M13,26.3l5,30.3c.2.8,1.8.3,2,2.1,1,7.4-.9,16.9,0,24.5h-5l-4-56.4s2-.5,2-.5Z"/>
    <path class="st0" d="M1146.4,26.3l5,30.3c.2.8,1.8.3,2.1,2.1,1,7.4-.9,16.9,0,24.5h-5l-4-56.4,2-.5h0Z"/>
    <path class="st0" d="M639.7,84.2h-5c-.8-7.2.7-14.6,1-21.5.4-9.6-.3-20.3,1.1-29.8.6-3.9,1.3-9.3,4.9-11.6l-3,46.4,1,16.5h0Z"/>
    <path class="st0" d="M1773.1,84.2h-5c-.8-7.2.7-14.6,1-21.5.4-9.6-.3-20.3,1.1-29.8.6-3.9,1.3-9.3,4.9-11.6l-3,46.4,1,16.5h0Z"/>
    <path class="st0" d="M464.8,87.2l-4.1-.4-1.9-57.5,3.7,11.8c.5,7.3,2.8,15.8,3,23s-1.7,15.8-.7,23.2h0Z"/>
    <path class="st0" d="M1598.2,87.2l-4.1-.4-1.9-57.5,3.7,11.8c.5,7.3,2.8,15.8,3,23,.2,7.1-1.7,15.8-.7,23.2h0Z"/>
    <path class="st0" d="M1203.4,85.2c-1.4-1.4-1.5-36.1-1.1-40.5.2-1.5.2-3.1,2-3.5.2,3.6.7,7.5,1.5,11s3,8,3.5,10.5c.4,2.3,1.4,16.8,1.1,19-.6,4.7-3,3.4-7,3.4h0Z"/>
    <path class="st0" d="M70,85.2c-1.4-1.4-1.5-36.1-1.1-40.5.2-1.5.2-3.1,2-3.5.2,3.6.7,7.5,1.5,11s3,8,3.5,10.5c.4,2.3,1.4,16.8,1.1,19-.6,4.7-3,3.4-7,3.4h0Z"/>
    <path class="st0" d="M1099.4,83.2l-6.9.9c-4.6-15,.8-29.9,2.9-44.8l4,43.9Z"/>
    <path class="st0" d="M58.9,89.2l-5.9,1.1c.5-6.2-.8-13.5,0-19.5.9-7.2,4.3-22.4,6.3-29.6.3-1,.2-3,1.7-2.8l-2,50.9h0Z"/>
    <path class="st0" d="M1192.3,89.2l-5.9,1.1c.6-6.2-.8-13.5,0-19.5.9-7.2,4.3-22.4,6.3-29.6.3-1,.2-3,1.7-2.8l-2.1,50.9h0Z"/>
    <path class="st0" d="M1199.4,26.3l-2,1.5-3,59.4,7-1.7c-1.1-11.6-1.2-23.2-1.1-34.8,0-8,2.7-16.1-1-24.4h0Z"/>
    <path class="st0" d="M826.6,82.2h-5c1-13.7,1.8-27.6,4.3-41.1.8-4.6,1.3-11.7,4.7-14.8l-4,55.9Z"/>
    <path class="st0" d="M1960,82.2h-5c.9-13.7,1.8-27.6,4.3-41.1.8-4.6,1.3-11.7,4.7-14.8l-4,55.9Z"/>
    <path class="st0" d="M1270.3,92.2h-3c.8-4.8.5-12.3,0-17.5-.8-8-3.7-17.2-4-24.9-.4-10.2,2.2-22.5,4.1-32.5l3,74.9h0Z"/>
    <path class="st0" d="M136.9,92.2h-3c.9-4.8.5-12.3,0-17.5-.8-8-3.7-17.2-4-24.9-.4-10.2,2.2-22.5,4.1-32.5l3,74.9h-.1Z"/>
    <path class="st0" d="M739.5,83.1l-6.9,1.1c-1-.9-1.4-19.9-1-22.4.4-2,2.1-3,2.5-4.5.5-2,3.5-17,5-17l.4,42.8h0Z"/>
    <path class="st0" d="M1872.9,83.1l-6.9,1.1c-.9-.9-1.4-19.9-1-22.4.4-2,2.1-3,2.5-4.5.5-2,3.6-17,5-17l.4,42.8h0Z"/>
    <path class="st0" d="M766.5,84.2l-6-1.6c0-13.9-.8-27.8,3.1-41.3l2.2,16.2c2.9,5.9,2.4,15.4,1.8,22.2-.2,1.6-.7,3-1,4.5h0Z"/>
    <path class="st0" d="M1900,84.2l-6-1.6c0-13.9-.8-27.8,3.1-41.3l2.2,16.2c2.9,5.9,2.4,15.4,1.8,22.2-.2,1.6-.7,3-1.1,4.5h0Z"/>
    <path class="st0" d="M1987.9,37.3c-1.7,14.5,2.7,31.3,1.1,45.5-.6,4.9-4.3,5.1-5.1,0-1.8-12.2-2.1-30.4,1.9-42.1.4-1.3.3-3,2.1-3.4Z"/>
    <path class="st0" d="M854.5,37.3c-1.7,14.5,2.7,31.3,1.1,45.5-.6,4.9-4.3,5.1-5.1,0-1.8-12.2-2.1-30.4,1.9-42.1.5-1.3.3-3,2.1-3.4Z"/>
    <path class="st0" d="M1766.1,84.2c-1.9,0-5.1.7-5.9-1.6-1.2-11.7,1.6-22.9,3.3-34.3l4.5-13.9-2,49.9h0Z"/>
    <path class="st0" d="M632.7,84.2c-1.9,0-5.1.7-5.9-1.6-1.2-11.7,1.6-22.9,3.3-34.3l4.5-13.9-2,49.9h.1Z"/>
    <path class="st0" d="M1074.4,83.2l-6.7-2.4,3.8-48.5,2.7,7.8c4,14.5-1,28.4.3,43.2h-.1Z"/>
    <path class="st0" d="M143.9,93.2h-5c-1.6-22.6-2.4-45.2-2-67.9l2,10.5c1.9,19.2,2.6,38.4,5,57.4Z"/>
    <path class="st0" d="M1277.3,93.2h-5c-1.6-22.6-2.4-45.2-2-67.9l2,10.5c1.8,19.2,2.6,38.4,5,57.4Z"/>
    <path class="st0" d="M97.9,37.8c0-.4,1-2.9,2-2.5.3,4.7-.4,9.8,0,14.5.5,5.3,2.5,11.1,3,16,.8,8.9,0,18.4,1,27.4l-4.5-1c0-1.6-1.5-4.6-1.5-5.5,0-14.1-1.8-35.9,0-48.9Z"/>
    <path class="st0" d="M1231.4,37.8c0-.4,1-2.9,2-2.5.3,4.7-.4,9.8,0,14.5.5,5.3,2.5,11.1,3,16,.8,8.9,0,18.4,1,27.4l-4.5-1c0-1.6-1.5-4.6-1.5-5.5,0-14.1-1.8-35.9,0-48.9Z"/>
    <path class="st0" d="M998.4,84.1h-4.9c1.1-21.9,2.7-43.7,2-65.8l2,8.5c-1.6,17.3,3.2,33.8,2,51-.2,2.2-.7,4.2-1.2,6.3h.1Z"/>
    <path class="st0" d="M533.7,84.2l-7-1.6,4-46.4c1.8.4,1.9,2,2,3.5.4,4,.8,9.9,1,14,.5,10.1-.3,20.3,0,30.4h0Z"/>
    <path class="st0" d="M1370.3,86.2l-6-1,5.2-40.2,2.7-7.7c1.3,6.9-1.9,15.1-1,21.5.5,3.3,2.8,3.9,3.1,5.9.5,4.6-4.2,15.9-4,21.5h0Z"/>
    <path class="st0" d="M236.9,86.2l-6-1,5.2-40.2,2.7-7.7c1.3,6.9-1.9,15.1-1,21.5.5,3.3,2.9,3.9,3.1,5.9.5,4.6-4.2,15.9-4,21.5Z"/>
    <path class="st0" d="M1667.1,84.2l-7-1.6,4.1-46.4c1.8.4,1.9,2,2,3.5.4,4,.8,9.9.9,14,.5,10.1-.3,20.3,0,30.4h0Z"/>
    <path class="st0" d="M1346.3,86.2c0-16.7-.4-33.6,2.3-50.2.5-3,1-8.2,3.7-9.8l-2.9,59.5-3.1.4h0Z"/>
    <polygon class="st0" points="1534.2 84.2 1528.2 84.2 1528.1 62.8 1531.2 61.6 1539.2 39.3 1534.2 84.2"/>
    <polygon class="st0" points="400.8 84.2 394.8 84.2 394.7 62.8 397.8 61.6 405.8 39.3 400.8 84.2"/>
    <path class="st0" d="M212.9,86.2c0-16.7-.4-33.6,2.3-50.2.5-3,1-8.2,3.7-9.8l-2.9,59.5-3.1.4h0Z"/>
    <path class="st0" d="M596.7,32.8c0-.7.7-4.7,2-4.5l4,53.4-6,1.5c1-16.4-1.3-34.2,0-50.4h0Z"/>
    <path class="st0" d="M1953,83.2h-6c0-12.2,2.3-24.1,5.7-35.7l5.2-12.2-5,47.9h.1Z"/>
    <path class="st0" d="M819.6,83.2h-6c0-12.2,2.3-24.1,5.7-35.7l5.2-12.2-5,47.9h0Z"/>
    <path class="st0" d="M1730.1,32.8c0-.7.7-4.7,2-4.5l4,53.4-6,1.5c1-16.4-1.3-34.2,0-50.4Z"/>
    <path class="st0" d="M1008.5,83.2c.2-11.6,0-23.9,1-35.4,0-1.2.4-5.3,2-5.5,0,4.4.5,9.6,1.7,13.8.8,3,4,8.2,4.1,9.4s-1.8,15-2.2,15.7c-1,1.6-4.7,2.2-6.5,2h0Z"/>
    <polygon class="st0" points="1474.2 85.2 1469.2 83.6 1467.2 52.8 1470.2 36.3 1473.2 53.8 1474.2 85.2"/>
    <polygon class="st0" points="340.8 85.2 335.8 83.6 333.8 52.8 336.8 36.3 339.8 53.8 340.8 85.2"/>
    <path class="st0" d="M1010.5,34.3c-3.8,16.3-3.7,33.2-4,49.9h-6c2.6-7.9,0-17.3,1.1-25.4.7-5.3,4.6-17.1,6.7-22.3.6-1.5-.6-2.7,2.2-2.2h0Z"/>
    <path class="st0" d="M285.9,50.3v38.9l-5-1.7c-.3-11.9.5-23.9,0-35.8-.1-2.6-1-5.1-1.1-7.9,0-1.1-.6-3.8,1-3.5.8,3.3.9,9.5,5,10h.1Z"/>
    <path class="st0" d="M1419.3,50.3v38.9l-5-1.7c-.3-11.9.5-23.9,0-35.8,0-2.6-1-5.1-1.1-7.9,0-1.1-.6-3.8,1-3.5.8,3.3.9,9.5,5,10h0Z"/>
    <path class="st0" d="M704.6,84.1h-3.9l1-51.8c1.5-.2,1.8,2.6,1.9,3.6.8,7.7-.7,16,4,22.8l-3,25.4h0Z"/>
    <path class="st0" d="M1838,84.1h-3.9l1-51.8c1.5-.2,1.8,2.6,1.9,3.6.8,7.7-.7,16,4,22.8l-3,25.4h0Z"/>
    <path class="st0" d="M2060.9,79.2l-4.1-.4-.9-29.1-2-27.4c1.4-.2,1.4,1.8,1.7,2.8,4.2,17.1,5.7,36.6,5.3,54.1Z"/>
    <path class="st0" d="M927.5,79.2l-4.1-.4-.9-29.1-2-27.4c1.4-.2,1.5,1.8,1.7,2.8,4.2,17.1,5.7,36.6,5.3,54.1Z"/>
    <path class="st0" d="M120.9,90.2h-5c-1-19.3-1.5-38.6,0-57.9l3,21.5,2,36.4Z"/>
    <path class="st0" d="M1254.3,90.2h-5c-1-19.3-1.5-38.6,0-57.9l3,21.5,2,36.4Z"/>
    <path class="st0" d="M1658.1,83.2c-1.8,0-5.3.5-5.9-1.6l2.9-29.8,3.2-1.1,4.9-15.4-5,47.9h0Z"/>
    <path class="st0" d="M449.8,85.2c-1.9.3-2.7-.8-3-2.5-.7-3.8-.2-12.7,0-17,.4-10.7,1.7-24.1,3.2-34.8.3-2.4.8-5.3,1.4-7.6.2-1.1,0-3.2,1.5-3l-3,64.9h-.1Z"/>
    <path class="st0" d="M1583.2,85.2c-1.9.3-2.7-.8-3-2.5-.7-3.8-.2-12.7,0-17,.4-10.7,1.7-24.1,3.2-34.8.3-2.4.8-5.3,1.4-7.6.2-1.1,0-3.2,1.5-3l-3,64.9h0Z"/>
    <path class="st0" d="M624.7,82.2l-6-1.7-3-45.7c1-1.6,1.3.8,1.5,1.5,2.3,8.6,3.8,17.7,5.5,26.4.3,1.6,2,3.8,2,4v15.5Z"/>
    <path class="st0" d="M524.7,83.2c-1.8,0-5.3.5-5.9-1.6l2.9-29.8,3.2-1.1,4.9-15.4-5,47.9h-.1Z"/>
    <path class="st0" d="M1758.1,82.2l-6-1.7-3-45.7c1-1.6,1.3.8,1.5,1.5,2.3,8.6,3.8,17.7,5.6,26.4.3,1.6,2,3.8,2,4v15.5h0Z"/>
    <path class="st0" d="M1037.4,24.3l-9.9,54.3-4.1,1.6c-1.6-2.1,7-47,9.6-51.9.6-1,2.7-4.7,4.4-4.1h0Z"/>
    <path class="st0" d="M13,84.2h-4c-1.8-19.3-1.9-38.6-1-57.9,1.4.1,1.7,4.4,1.9,5.6,1.9,17.3,1.9,34.9,3.1,52.3h0Z"/>
    <polygon class="st0" points="1488.1 85.1 1485.7 86.2 1484.2 83.7 1484.2 22.3 1489.3 58.8 1488.1 85.1"/>
    <polygon class="st0" points="354.7 85.1 352.3 86.2 350.8 83.7 350.8 22.3 355.9 58.8 354.7 85.1"/>
    <path class="st0" d="M1650.1,83.2l-3-.5,4.5-61.4c5.2,20.8.4,41.1-1.5,61.9h0Z"/>
    <path class="st0" d="M516.7,83.2l-3-.5,4.5-61.4c5.2,20.8.4,41.1-1.5,61.9h0Z"/>
    <path class="st0" d="M278.9,87.2l-4-.6c0-4.7-.4-58.4,2.5-58.3l1.5,58.9h0Z"/>
    <path class="st0" d="M1146.4,83.2h-3.9c-2-18.9-1.9-37.9-1.1-56.9,1.4.1,1.7,4.4,1.9,5.6,1.9,17,1.8,34.3,3.1,51.3h0Z"/>
    <path class="st0" d="M1412.3,87.2l-4-.6c0-4.7-.4-58.4,2.5-58.3l1.5,58.9h0Z"/>
    <path class="st0" d="M960.5,82.2h-6c.3-6.1-.3-12.4,0-18.5.5-9.4,1.5-23.7,3.1-32.8.3-1.9.8-4.9,2.9-5.6-.6,18.9-4.1,38.2,0,56.9h0Z"/>
    <path class="st0" d="M2093.9,82.2h-6c.3-6.1-.4-12.4,0-18.5.5-9.4,1.5-23.7,3.1-32.8.3-1.9.8-4.9,2.9-5.6-.6,18.9-4.1,38.2,0,56.9h0Z"/>
    <path class="st0" d="M2004.9,84.2h-4c1.3-7.1-2.2-15.8-1.9-22.4.2-3.4,4.2-16.3,5.4-20.5.5-1.6,1-5.4,2.5-6l-2,48.9h0Z"/>
    <path class="st0" d="M871.5,84.2h-4c1.3-7.1-2.2-15.8-1.9-22.4.2-3.4,4.2-16.3,5.4-20.5.5-1.6,1-5.4,2.5-6l-2,48.9h0Z"/>
    <path class="st0" d="M161.8,89.1l-4.3,2.1c-1.4-1-1.6-1.8-1.5-3.4,0-9.7,3.2-20.8,3.3-30.8l5.7-19.7c-2.7,17.1-3.3,34.4-3.1,51.8h0Z"/>
    <path class="st0" d="M1295.2,89.1l-4.3,2.1c-1.4-1-1.6-1.8-1.5-3.4,0-9.7,3.2-20.8,3.3-30.8l5.7-19.7c-2.7,17.1-3.3,34.4-3.2,51.8Z"/>
    <path class="st0" d="M1082.4,82.7c-.5,2-5.9.6-6.1,0l1.2-24.8,4.9-15.6v40.4Z"/>
    <path class="st0" d="M1406.3,85.7l-6,1.5c-.2-16,2.5-31.5,6-46.9,2.8.4,0,4.8,0,5.5v39.9Z"/>
    <path class="st0" d="M272.9,85.7l-6,1.5c-.2-16,2.5-31.5,6-46.9,2.8.4,0,4.8,0,5.5v39.9Z"/>
    <path class="st0" d="M1728.1,83.2c-1.2,1.6-1.8,0-2-1.5-1.3-11.4-1.3-24.5-1-36,.2-6.5.6-15.3,1.2-21.8.2-2.3.6-7.6,2.9-8.6l-1,67.9h0Z"/>
    <path class="st0" d="M594.7,83.2c-1.2,1.6-1.8,0-2-1.5-1.3-11.4-1.3-24.5-1-36,.2-6.5.6-15.3,1.2-21.8.2-2.3.6-7.6,2.9-8.6l-1,67.9h-.1Z"/>
    <path class="st0" d="M1832.1,85.2h-5c-1.1-14.7,2-28.9,5.5-43,1.9,14.4-1,28.6-.5,43Z"/>
    <path class="st0" d="M698.6,85.2h-5c-1-14.7,2-28.9,5.5-43,1.9,14.4-1,28.6-.5,43Z"/>
    <path class="st0" d="M1129.4,81.2h-3c0-19-4.6-37.6-7-56.4,1.2-1.6,1.1.9,1.3,1.7,1.9,7.9,3.6,20,6.7,27.1.5,1.1,2,.6,2,.7v27h0Z"/>
    <path class="st0" d="M1629.2,86.2h-5c-.2-8.7.8-17.4,2.5-26l5.5-14-3,39.9h0Z"/>
    <path class="st0" d="M495.8,86.2h-5c-.2-8.7.8-17.4,2.5-26l5.5-14-3,39.9h0Z"/>
    <path class="st0" d="M841.5,85.2l-4.1-1.6v-46.4c1.7,0,1.6,3.3,1.9,4.7,3.4,14.4,5.3,28.6,2.2,43.3h0Z"/>
    <path class="st0" d="M1975,85.2l-4.1-1.6v-46.4c1.7,0,1.6,3.3,1.9,4.7,3.4,14.4,5.3,28.6,2.2,43.3Z"/>
    <path class="st0" d="M210.9,87.2h-5c-.5-15,1.5-29.6,5.5-44l-.5,44Z"/>
    <path class="st0" d="M1344.3,87.2h-5c-.5-15,1.5-29.6,5.5-44l-.5,44Z"/>
    <path class="st0" d="M1230.3,91.2l-7-1.7c-.7-3,1.1-21.1,2.1-24.6.2-.8,1.6-.7,2.1-2.1,1-2.7.9-5.8.8-8.6,1.7-.2.9,2.3,1,3.5.5,11.2-.8,22.4,1,33.5h0Z"/>
    <path class="st0" d="M96.9,91.2l-7-1.7c-.7-3,1.1-21.1,2.1-24.6.2-.8,1.6-.7,2.1-2.1,1-2.7.9-5.8.8-8.6,1.7-.2.9,2.3,1,3.5.5,11.2-.8,22.4,1,33.5h0Z"/>
    <path class="st0" d="M25,83.2h-3c-.2-16.6-.5-33.5,5.2-49.2.4-1,.4-3,1.7-2.7l-4,51.9h0Z"/>
    <path class="st0" d="M1158.4,83.2h-3c-.2-16.6-.5-33.5,5.2-49.2.4-1,.3-3,1.7-2.7l-4,51.9h.1Z"/>
    <polygon class="st0" points="1556.2 56.3 1559.2 55.2 1559.2 78.6 1553.2 80.2 1554.2 49.3 1556.2 56.3"/>
    <polygon class="st0" points="422.8 56.3 425.8 55.2 425.8 78.6 419.8 80.2 420.8 49.3 422.8 56.3"/>
    <path class="st0" d="M1214.4,86.2c-1.2,1.6-1.8,0-2-1.5-.9-7.3-.3-15.6-1.8-23l2.8-22.5c1.8.4,1.9,2,2,3.5,1.6,13.9-1.9,29.4-1,43.5h0Z"/>
    <path class="st0" d="M80.9,86.2c-1.2,1.6-1.8,0-2-1.5-.9-7.3-.3-15.6-1.8-23l2.8-22.5c1.8.4,1.9,2,2,3.5,1.6,13.9-1.9,29.4-1,43.5h0Z"/>
    <path class="st0" d="M1017.5,81.2c-.4-12.2,3.2-24,7-35.5.6-1.8,1.2-5.7,3-6.5l-6.9,41.5-3,.4h0Z"/>
    <path class="st0" d="M1561.2,46.8c0-1,2.7-12.2,4-10.5-.6,14.3-1.4,28.5-1,42.9h-3c.8-10.4-1.1-22.3,0-32.5h0Z"/>
    <path class="st0" d="M427.8,46.8c.1-1,2.7-12.2,4-10.5-.6,14.3-1.4,28.5-1,42.9h-3c.8-10.4-1.1-22.3,0-32.5h0Z"/>
    <path class="st0" d="M152.9,92.2c.9-5.2-1.1-10.6-1.1-15.5s1.1-4.6,1.1-6.9-.8-24.5.5-24.5c0,5.1,3.4,10.6,3.6,15.5.2,6.9-2.5,17.5-3,25.1-.1,2.2,2.4,5.2-1.1,6.4h0Z"/>
    <path class="st0" d="M1286.3,92.2c.9-5.2-1.1-10.6-1.1-15.5s1.1-4.6,1.1-6.9-.8-24.5.5-24.5c0,5.1,3.4,10.6,3.6,15.5.2,6.9-2.5,17.5-3,25.1-.2,2.2,2.4,5.2-1.1,6.4h0Z"/>
    <polygon class="st0" points="1084.4 52.3 1088.4 66.8 1090.4 84.2 1084.4 84.2 1084.4 52.3"/>
    <polygon class="st0" points="1566.2 43.3 1570.2 60.7 1569.2 80.2 1566.2 80.2 1566.2 43.3"/>
    <polygon class="st0" points="432.8 43.3 436.8 60.7 435.8 80.2 432.8 80.2 432.8 43.3"/>
    <path class="st0" d="M228.9,84.2c-1.3,1.6-1.8,0-2-1.5-1.2-9.4,2.4-22.7,5.3-31.7.3-1,.2-3,1.7-2.8l-5,36h0Z"/>
    <path class="st0" d="M1362.3,84.2c-1.3,1.6-1.8,0-2-1.5-1.2-9.4,2.4-22.7,5.3-31.7.3-1,.2-3,1.7-2.8l-5,36h0Z"/>
    <path class="st0" d="M1794.1,80.2l-4,1-1-30,2.9,11.5c0,5.9.2,11.8,2.1,17.4h0Z"/>
    <path class="st0" d="M660.7,80.2l-4,1-1-30,2.9,11.5c0,5.9.2,11.8,2.1,17.4h0Z"/>
    <path class="st0" d="M1048.4,79.2h-3c.2-4.3,1.1-8.7,1.4-13l4.5-11.9-3,25h0Z"/>
    <path class="st0" d="M847.5,68.2c-1.3,3,2.8,17.2-.5,17.7l-3.6-1.3c1.3-4.6.8-9.3,2-14,.4-1.7-1-2.9,2-2.4h0Z"/>
    <path class="st1" d="M1981,68.2c-1.3,3,2.8,17.2-.5,17.7l-3.6-1.3c1.3-4.6.8-9.3,2-14,.4-1.7-1-2.9,2-2.4h0Z"/>
    <path class="st0" d="M607.7,79.7c-.2.8-1.9,1.8-3,1.5l-1.1-12.5.3-1.3,3.8-2.2v14.5Z"/>
    <path class="st0" d="M1741.1,79.7c-.2.8-1.9,1.8-3,1.5l-1.1-12.5.3-1.3,3.8-2.2v14.5h0Z"/>
    <path class="st1" d="M1399.2,220c-12.4-3.2-25.7-4.6-37.3-10.1-6.9-3.3-36.6-24.4-38.4-30.6-2.4-8.3,8.6-28.7,17.3-31.9,11.3,7.3,24.9,9.4,37.1,14.6.7,4.2-2.6,7.8,0,11.9l23.2,38.8-1.8,7.2h0ZM1355,183.3c-5-5.1-7.8,4.2-4.8,8.3l4.9.3c1.2-2.3,1.8-6.7,0-8.6h0Z"/>
    <polygon class="st1" points="1403.2 211.1 1378.7 170.6 1380.9 162 1403.7 155.3 1419.9 184.6 1403.2 211.1"/>
    <path class="st1" d="M1414.3,142.2c-2.7,2.8-6.9,8.5-10.1,10.4-2.6,1.5-19.2,6.3-22.4,6.6-10.8.9-28.4-9.7-39.5-12,19.3-19,48.5-8.2,72-5Z"/>
    <path class="st1" d="M1421.4,183.9l-15.2-30.4,10.5-9.4c5.2,0,20.5,18.6,23.5,23.4,2,3.2,8,11.8,3.3,14.3-1.9,1.1-20.7,2.9-22.1,2h0Z"/>
    <path class="st1" d="M1443.2,184.1c1.2,1.2-6.8,11-8,12.4-7.8,9.1-21.4,24.1-33.9,23.5-2-1.8,17.9-29.7,20.4-33l21.6-2.9h0Z"/>
    <path class="st1" d="M265.8,220c-12.4-3.2-25.7-4.6-37.3-10.1-6.9-3.3-36.6-24.4-38.4-30.6-2.4-8.3,8.6-28.7,17.3-31.9,11.3,7.3,24.9,9.4,37.1,14.6.6,4.2-2.6,7.8,0,11.9l23.2,38.8-1.8,7.2h-.1ZM221.6,183.3c-5-5.1-7.8,4.2-4.8,8.3l4.9.3c1.2-2.3,1.8-6.7-.1-8.6h0Z"/>
    <polygon class="st1" points="269.9 211.1 245.3 170.6 247.5 162 270.3 155.3 286.5 184.6 269.9 211.1"/>
    <path class="st1" d="M280.9,142.2c-2.7,2.8-6.9,8.5-10.1,10.4-2.6,1.5-19.2,6.3-22.4,6.6-10.9.9-28.4-9.7-39.5-12,19.3-19,48.5-8.2,72-5Z"/>
    <path class="st1" d="M288,183.9l-15.2-30.4,10.5-9.4c5.2,0,20.5,18.6,23.5,23.4,2,3.2,8,11.8,3.3,14.3-2,1.1-20.7,2.9-22.1,2h0Z"/>
    <path class="st1" d="M309.8,184.1c1.2,1.2-6.8,11-8,12.4-7.8,9.1-21.4,24.1-34,23.5-2-1.8,17.9-29.7,20.4-33l21.5-2.9h.1Z"/>
    <path class="st1" d="M573.7,152.1c-.2,14-12.8,24.3-10,39.4.9,4.7,18.3,19.3,22,24l-1.5,2.3c-11-1.7-28.3-3.8-37.5-10.4-5.5-3.9-16.2-23.6-13.6-29.4,1.5-3.3,26.5-20.3,31.2-22.8,2.9-1.6,5.8-3.6,9.3-3.2h0ZM545.8,194l4-.3c2.1-1.5,1.5-9.6-2.6-9.6-3.3-.5-2.7,8.2-1.4,9.9h0Z"/>
    <path class="st1" d="M574.7,159.1l25.5,38.9-13.1,16-21.3-22.6c-2.2-11.8,6-21.4,8.8-32.2h0Z"/>
    <path class="st1" d="M575.7,151.1c16.6,6.7,36.4,13.5,44.8,30.6l-.3,1.3c-.4.9-14.6,11.4-16,12.1s-1.4,1.4-2.5.5c-2.2-3.1-4.7-6.1-6.8-9.3-4.8-7-13.8-20.5-17.2-27.7-1.1-2.4-1.9-4.9-2-7.5h0Z"/>
    <path class="st1" d="M622.7,186.1c.6,4,1.8,8.2.8,12.2-.3,1.4-6.9,9.5-8.3,10.7-7.1,6.5-17.5,7.2-26.5,9-.3-1.5.2-2.3.9-3.5,1.8-2.7,11-13.1,13.5-15.5,1.8-1.7,18.4-14,19.5-12.9h0Z"/>
    <path class="st1" d="M1659.5,140.4c-.2,14-12.8,24.3-10,39.4.9,4.7,18.3,19.3,22,24l-1.5,2.3c-11-1.7-28.3-3.8-37.4-10.4-5.5-3.9-16.2-23.6-13.6-29.4,1.5-3.3,26.5-20.3,31.2-22.8,2.9-1.6,5.8-3.6,9.3-3.2h0ZM1631.6,182.3l4-.3c2.1-1.5,1.4-9.6-2.6-9.6-3.3-.5-2.7,8.2-1.4,9.9h0Z"/>
    <path class="st1" d="M1660.5,147.4l25.6,38.9-13.1,16-21.3-22.6c-2.2-11.8,6-21.4,8.8-32.2h0Z"/>
    <path class="st1" d="M1661.5,139.4c16.6,6.7,36.4,13.5,44.8,30.6l-.3,1.3c-.4.9-14.6,11.4-16,12.1-.8.4-1.4,1.4-2.6.5-2.2-3.1-4.7-6.1-6.8-9.3-4.8-7-13.8-20.5-17.2-27.7-1.1-2.4-1.9-4.9-1.9-7.5h0Z"/>
    <path class="st1" d="M1708.5,174.4c.6,4,1.8,8.2.8,12.2-.3,1.4-6.9,9.5-8.3,10.7-7.1,6.5-17.5,7.2-26.5,9-.3-1.5.2-2.3.9-3.5,1.8-2.7,10.9-13.1,13.5-15.5,1.8-1.7,18.4-14,19.5-12.9h0Z"/>
    <path class="st1" d="M2002.6,149.5c3,2.8,5.4,7.9,8.2,11.1l-15.8,14.9-33.9,1.5-4.6-24.5c4.4-4.6,11.2-13.6,18-13.5s23.1,5.7,28.2,10.4h0Z"/>
    <path class="st1" d="M1992.9,178.1c-2.3,6.2-2.1,16.6-4.2,22.3-.4,1.1-1,1.5-2,2-1.7.8-21.2,2.6-24,2.5-3.2-.1-14.7-4.4-15.8-7.2l14.1-19.3c10.6.6,21.3,1.6,31.8-.2h0Z"/>
    <path class="st1" d="M1991,201.1c-.8-.8,3.4-20.8,4.6-22.9.5-.9,13.7-13.3,14.9-14.1,1.1-.7,1.1-1.2,2.5-.5,2.3,1.1,9.6,13.6,9.8,16.3.8,8.9-24.2,19.4-31.8,21.2h0Z"/>
    <path class="st1" d="M1944,196.1c-3.8-14.5,1.5-30,11-40.9l3.8,23.2c-.4,2.1-10,14-12,16-.9.9-.9,2.2-2.8,1.7h0Z"/>
    <path class="st1" d="M869.2,149.5c3,2.8,5.4,7.9,8.2,11.1l-15.8,14.9-34,1.5-4.6-24.5c4.4-4.6,11.2-13.6,18-13.5s23.1,5.7,28.2,10.4h0Z"/>
    <path class="st1" d="M859.5,178.1c-2.3,6.2-2.1,16.6-4.2,22.3-.4,1.1-1,1.5-2,2-1.7.8-21.2,2.6-24,2.5-3.2-.1-14.7-4.4-15.8-7.2l14.1-19.3c10.6.6,21.3,1.6,31.8-.2h.1Z"/>
    <path class="st1" d="M857.6,201.1c-.8-.8,3.4-20.8,4.6-22.9.5-.9,13.7-13.3,14.9-14.1,1-.7,1.1-1.2,2.5-.5,2.3,1.1,9.6,13.6,9.8,16.3.8,8.9-24.2,19.4-31.8,21.2h0Z"/>
    <path class="st1" d="M810.6,196.1c-3.8-14.5,1.5-30,11-40.9l3.8,23.2c-.4,2.1-10,14-12,16-.9.9-.9,2.2-2.8,1.7h0Z"/>
    <path class="st1" d="M1903.9,148.2l3.6,10-11.2,23.8c-4.7-.3-9.1,1.6-13.8,1.1-5.4-.6-30.2-6.6-35.4-8.6-1.2-.5-2.4-.5-3.2-1.8l21.7-20.3c13.4.5,25.3-.9,38.2-4.1h.1Z"/>
    <path class="st1" d="M1910,133.2l-7.7,12.8c-11.9,3.7-23.8,4.8-36.3,4.2l.2-8.3c.4-1.4,1.7-1.6,2.8-2.2,2.6-1.4,18-7,20.6-7.4,6.4-.9,14,0,20.4.9Z"/>
    <path class="st1" d="M1864,142.2c2,10.3-3,10.5-8.5,16-3.8,3.7-8.6,10-12,13-1.3,1.1-1.7,1.3-3.4,1,.2-5.8,0-15.6,3-20.5,3.6-5.7,14.8-7.3,21-9.5h0Z"/>
    <path class="st1" d="M1919,160.1c-1.9,12.2-4.5,21.6-19,21l9.2-21.8,9.8.8h0Z"/>
    <path class="st1" d="M1920,158.1c-9.3.7-13.3-3.3-14.6-12l5.6-12c2.1-1.6,5.6,7.1,6,8.4.7,1.9,3.5,15,2.9,15.5h0Z"/>
    <path class="st1" d="M770.5,148.2l3.6,10-11.2,23.8c-4.7-.3-9.1,1.6-13.8,1.1-5.4-.6-30.2-6.6-35.4-8.6-1.2-.5-2.4-.5-3.2-1.8l21.7-20.3c13.5.5,25.3-.9,38.2-4.1h.1Z"/>
    <path class="st1" d="M776.6,133.2l-7.7,12.8c-11.9,3.7-23.8,4.8-36.3,4.2l.2-8.3c.4-1.4,1.7-1.6,2.8-2.2,2.6-1.4,18-7,20.6-7.4,6.4-.9,14,0,20.4.9Z"/>
    <path class="st1" d="M730.6,142.2c2,10.3-3,10.5-8.5,16-3.8,3.7-8.6,10-12,13-1.3,1.1-1.7,1.3-3.5,1,.2-5.8,0-15.6,3-20.5,3.6-5.7,14.8-7.3,21-9.5h0Z"/>
    <path class="st1" d="M785.6,160.1c-1.9,12.2-4.5,21.6-19,21l9.2-21.8,9.8.8h0Z"/>
    <path class="st1" d="M786.6,158.1c-9.3.7-13.3-3.3-14.6-12l5.6-12c2.1-1.6,5.6,7.1,6,8.4.7,1.9,3.5,15,2.9,15.5h0Z"/>
    <path class="st1" d="M1030.2,143.4c9.7-.7,44.2-.3,51.7,3.7,2.1,1.1,3.3,2.5,4.4,4.5l-37.8,11.9c-9.4-.9-20.3-.2-29.6-2.5-4-1-4.3-10.3-5-14,1.4-3.1,12.8-3.4,16.3-3.6h0ZM1028.5,151.1c-2.5,3.8,7.4,7.5,10,3.5,0-4.1-8.6-5.6-10-3.5Z"/>
    <path class="st1" d="M1087.4,154.1c-1.2,19-24.4,27.9-41,23.9,2.3-4.4,7.7-5.5,12-7l-1.5-3-17,10c-9.3-1.6-19.8-1.3-27.4-7.6l4.6-7.2,32.8,2.9c11.8-5.9,25-8.3,37.5-12h0Z"/>
    <path class="st1" d="M1012.5,150.1c-1.3,3.4,2.9,9.3,2.7,11.5,0,.7-4.6,6.7-6,6.4-5.7-.9-.9-13.5,1.2-16.6.6-1,0-1.8,2.2-1.3h-.1Z"/>
    <path class="st1" d="M370.8,202.1c-1.1,1.2-20.9-8.3-22.5-10-2.5-2.9-5.2-20.9-2.4-22.9l23.4,4.9c.7.8,4.5,13.9,4.5,15.5.2,4.6-3.4,7.9-3,12.5h0Z"/>
    <polygon class="st1" points="400.6 185.9 375.9 188 371.7 172.8 396.2 159.2 405.8 175.7 400.6 185.9"/>
    <path class="st1" d="M400.6,202.9c-3.5,3.2-28.3,3.2-28.7-.3l5-13.4c4.8-.4,9.6,0,14.4-.1,1.9,0,4.1-1.3,6-1,4,.6,2.6,11.2,3.4,14.9h0Z"/>
    <path class="st1" d="M391.8,158.1c-6.1,5.7-16.2,7.5-21.4,13.9l-21.5-5.4c.2-4.8,37.4-9.2,43-8.5h-.1Z"/>
    <path class="st1" d="M402.8,201.1l-.8-13.2,5.8-8.7c1,3.5,3.4,8.6,2.8,12.2-.3,1.7-6.2,11.6-7.8,9.7h0Z"/>
    <path class="st1" d="M1504.2,202.1c-1.1,1.2-20.9-8.3-22.4-10-2.5-2.9-5.2-20.9-2.4-22.9l23.4,4.9c.7.8,4.5,13.9,4.6,15.5.2,4.6-3.4,7.9-3.1,12.5h0Z"/>
    <polygon class="st1" points="1534 185.9 1509.3 188 1505.2 172.8 1529.6 159.2 1539.2 175.7 1534 185.9"/>
    <path class="st1" d="M1534,202.9c-3.5,3.2-28.3,3.2-28.7-.3l5-13.4c4.8-.4,9.6,0,14.3-.1,1.9,0,4.1-1.3,6-1,3.9.6,2.6,11.2,3.4,14.9h0Z"/>
    <path class="st1" d="M1525.2,158.1c-6.1,5.7-16.2,7.5-21.4,13.9l-21.5-5.4c.2-4.8,37.4-9.2,43-8.5h0Z"/>
    <path class="st1" d="M1536.2,201.1l-.8-13.2,5.8-8.7c1,3.5,3.4,8.6,2.8,12.2-.3,1.7-6.2,11.6-7.8,9.7h0Z"/>
    <path class="st1" d="M1199.5,151l-6.1-18.9c10.5-1.5,24.9-3.6,35.4-1.9,5.8.9,13.6,8.2,18.6,11.4.3,1.4-.8,1.7-1.7,2.3-5.3,4-12.9,7.1-18.2,11.6l-28-4.6h0Z"/>
    <path class="st1" d="M1226.3,174.1c-11.4,2.2-26.2,1.7-33.7-8.4l7.4-12.6c1.3-.3,24,3.6,25.6,4.3.7.3,1.4.5,1.6,1.4l-.9,15.4h0Z"/>
    <path class="st1" d="M1228.4,173.1v-14.5c0-2.6,17.8-11.9,20.5-14.5,2.7,0,.5,8.2,0,9.9-3.2,10.9-10.2,15.5-20.5,19h0Z"/>
    <path class="st1" d="M1190.9,134.2c1.3-.3,1.8.7,2.3,1.7.4.9,4.3,15,4.2,15.8,0,3.3-4.3,8.8-6.5,11.4-5.4-9.2-11-21.4,0-28.9h0Z"/>
    <path class="st1" d="M66.1,151l-6.1-18.9c10.5-1.5,24.9-3.6,35.4-1.9,5.8.9,13.6,8.2,18.6,11.4.3,1.4-.8,1.7-1.7,2.3-5.3,4-12.9,7.1-18.2,11.6l-28-4.6h0Z"/>
    <path class="st1" d="M92.9,174.1c-11.4,2.2-26.2,1.7-33.7-8.4l7.4-12.6c1.3-.3,24,3.6,25.6,4.3.7.3,1.4.5,1.6,1.4l-.9,15.4h0Z"/>
    <path class="st1" d="M94.9,173.1v-14.5c0-2.6,17.8-11.9,20.5-14.5,2.7,0,.5,8.2,0,9.9-3.2,10.9-10.2,15.5-20.5,19h0Z"/>
    <path class="st1" d="M57.5,134.2c1.3-.3,1.8.7,2.3,1.7.4.9,4.3,15,4.2,15.8,0,3.3-4.3,8.8-6.5,11.4-5.4-9.2-11-21.4,0-28.9h0Z"/>
    <path class="st1" d="M488.7,198c-9.2,2.5-18.7-.2-28-.5l5-13c1.3-.8,11.4-.8,13.6-.5,5.4.6,5.7,10.2,9.4,14h0Z"/>
    <path class="st1" d="M483.7,169.1l-1.1,11.3c-.9,3-14.8,1.6-17.9,1.1l-8-10c-.6-2.7,9-3.3,11.5-3.4,5.3-.3,10.3.1,15.5,1h0Z"/>
    <path class="st1" d="M485.7,171.1c6.2,5.6,22.4,22.9,7,26.5l-1.6-.5c-1.5-1.2-7-11.9-7.3-13.8-.5-3.3,2.5-8.5,1.8-12.3h0Z"/>
    <path class="st1" d="M454.2,171.1l9.1,12.5-5.2,13.4c-11.7.9-7.4-26-3.9-25.9h0Z"/>
    <path class="st1" d="M1789.2,181.6c-9.2,2.5-18.7-.2-28-.5l5-13c1.3-.8,11.4-.8,13.6-.5,5.4.6,5.7,10.2,9.4,14h0Z"/>
    <path class="st1" d="M1784.2,152.7l-1.1,11.3c-.9,3-14.8,1.6-17.8,1.1l-8-10c-.6-2.7,9-3.3,11.5-3.4,5.3-.3,10.3.1,15.5,1h0Z"/>
    <path class="st1" d="M1786.3,154.7c6.2,5.6,22.4,22.9,7.1,26.5l-1.6-.5c-1.5-1.2-7-11.9-7.3-13.8-.5-3.3,2.6-8.5,1.8-12.3h0Z"/>
    <path class="st1" d="M1754.8,154.7l9.1,12.5-5.2,13.4c-11.7.9-7.4-26-3.9-25.9h0Z"/>
    <path class="st1" d="M2086.7,126c-.5.4-12,3.2-13.2,3.1-2.6-.2-11.6-4.2-14.6-5.5-.8-.4-2.8,0-2-1.9,1.3-3.1,14-11.9,17.6-12.4,3.3-.5,15.3,1.3,16.3,4.6.4,1.1-3.6,11.7-4.1,12.1h0Z"/>
    <path class="st1" d="M2072.8,131.3l-.9,10.9c-10.6.2-15.5-7-16-17l16.9,6.1Z"/>
    <path class="st1" d="M2093.9,117.2c2,9,7.6,19.9-3.5,24.9-1.4-.9-1.4-1.9-1.6-3.4-.8-8.2-1.6-15.6,5-21.5h.1Z"/>
    <polygon class="st1" points="2086.9 142.1 2073.9 142.1 2075.8 131.5 2085.9 128.1 2086.9 142.1"/>
    <path class="st1" d="M951.3,144c-.5.4-12,3.2-13.2,3.1-2.6-.2-11.7-4.2-14.6-5.5-.8-.4-2.8,0-2-1.9,1.3-3.1,14-11.9,17.5-12.4,3.3-.5,15.3,1.3,16.3,4.6.3,1.1-3.6,11.7-4.1,12.1h0Z"/>
    <path class="st1" d="M937.4,149.3l-.9,10.9c-10.7.2-15.5-7-16-17l16.8,6.1h.1Z"/>
    <path class="st1" d="M958.5,135.2c2,9,7.6,19.9-3.5,24.9-1.4-.9-1.4-1.9-1.5-3.4-.8-8.2-1.5-15.6,5-21.5Z"/>
    <polygon class="st1" points="951.5 160.1 938.5 160.1 940.4 149.5 950.5 146.1 951.5 160.1"/>
    <path class="st1" d="M1581.2,141.2h-17c.7-6.9,7.2-12,12.5-15.9,5.6,5.5,7.1,8.2,4.5,15.9Z"/>
    <path class="st1" d="M1583.3,142l2.5-7.7c13.7-2,14.1,2.9,5.4,11.4l-7.8-3.7h0Z"/>
    <path class="st1" d="M1581.7,143.2c1.3.3,3.4,3.2,5.5,3,1.8,2.6-12.2,2.1-13.5,2-2.9-.3-9.5-1.2-9.5-5,5,.8,12.9-1,17.5,0h0Z"/>
    <path class="st1" d="M1594.2,132.2c-7.1.6-11.7.7-14-7,5.9-.7,11.9,1.1,14,7Z"/>
    <path class="st1" d="M447.8,141.2h-17c.7-6.9,7.2-12,12.5-15.9,5.6,5.5,7.1,8.2,4.5,15.9Z"/>
    <path class="st1" d="M449.9,142l2.5-7.7c13.7-2,14,2.9,5.4,11.4l-7.8-3.7s-.1,0-.1,0Z"/>
    <path class="st1" d="M448.3,143.2c1.3.3,3.5,3.2,5.5,3,1.8,2.6-12.2,2.1-13.5,2-3-.3-9.5-1.2-9.5-5,5,.8,12.9-1,17.5,0h0Z"/>
    <path class="st1" d="M460.8,132.2c-7.1.6-11.7.7-14-7,5.9-.7,11.9,1.1,14,7Z"/>
    <path class="st1" d="M145.6,160.3c1.3-.3,2-.3,2.9.8,1.2,2.1.4,3.4-1,5.1-4.8,5.9-6.6-4.7-1.9-5.9h0Z"/>
    <path class="st1" d="M1279,160.3c1.3-.3,2-.3,2.9.8,1.2,2.1.3,3.4-1,5.1-4.8,5.9-6.6-4.7-1.9-5.9h0Z"/>
    <path d="M1355,183.3c1.9,1.9,1.3,6.3,0,8.6l-4.9-.3c-3-4.1-.2-13.4,4.8-8.3h0Z"/>
    <path d="M221.6,183.3c1.9,1.9,1.3,6.3.1,8.6l-4.9-.3c-3-4.1-.2-13.4,4.8-8.3h0Z"/>
    <path d="M545.8,194c-1.3-1.7-1.9-10.4,1.4-9.9,4,0,4.7,8.1,2.6,9.6l-4,.3h0Z"/>
    <path d="M1631.6,182.3c-1.3-1.7-1.9-10.4,1.4-9.9,4,0,4.7,8.1,2.6,9.6l-4,.3h0Z"/>
    <path d="M1028.5,151.1c1.4-2.1,9.9-.6,10,3.5-2.6,4.1-12.5.3-10-3.5Z"/>
  </g>
</svg>