<?xml version="1.0" encoding="UTF-8"?><svg id="Layer_2" xmlns="http://www.w3.org/2000/svg" viewBox="0 0 766.96 946.32"><defs><style>.cls-1{fill:#030302;}.cls-2{fill:#f0f0ec;}.cls-3{fill:#f5f5f1;}.cls-4{fill:#565656;}</style></defs><g id="OBJECTS"><path class="cls-1" d="M332.46,24c12.52-3.48,25.62-7.32,36.29-15.16,3.06-2.25,7.86-9.03,11.06-8.83,6.33.39,14.07,9.73,14.59,15.99,2.09-.94.53-5.06,1.19-7.28.34-1.16,1.33-2.1,2.43-2.57,3.39-.62,13.93,10.6,15.84,13.84-.89-13.65,9.08-5.89,15.79-1.8,8.11,4.94,19.94,13.18,27.66,18.8,11.96,8.7,22.28,18.73,27.48,32.98,2.55.35,1.43-1.66,1.02-3.03-3.82-12.65-15.24-25.29-27.5-29.95-.59-2.87,1.6-2.18,3.46-2,22.18,2.17,29.92,28.47,37.31,44.64s21.05,24.85,32.66,37.27c39.28,42.04,39.27,107.26,33.44,161.37-.29,2.68-3.66,16.72-2.98,17.49,25.61-7.63,33.16,22.85,31.83,42.34-1.54,22.66-14.8,65.92-38.1,74.79-1.94.74-5.51.58-5.72.78-.71.67.3,15.14-1.06,19.42-.75,2.34-2.53,3.09-2.92,5.07-1.11,5.63.96,14.04-.07,19.91-.47,2.66-3.46,6.1-2.95,9.55l-2.98-1.99c-.97,3.35-.58,17.34-2.26,18.8-.61.53-2.61-.32-2.82.73-.55,2.75.49,14.4-2.55,15.25-.69.19-2.16-.9-2.33-.79-.71.46-1.26,8.28-2.05,9.96l-3.97-1.99c.1,2.42-1.46,13.55-3.53,14-1.53.33-2.82-3.19-3.99-1.03-.61,3.16-2.73,15.18-6.98,15.03-.42-.01-.67-3.67-2.48-2.02-1.27,1.16-6.56,20.01-10.49,18.98-1.46-.38-.93-3.97-2.51-2.51-.93,3.79-7.92,9.7-6.89,12.84.32.99,13.38,8.21,15.8,10.24,12.09,10.16,21.83,32.17,30.76,45.43,38.41,17.19,78.76,32.81,115.83,52.73,34.94,18.78,57.12,33.14,75.1,69.76,21.67,44.13,31.05,95.36,41.92,143.02.39,1.26.04,1.82-.81,2.71-3.25,3.44-22.47,9.8-27.99,11.5-16.23,5-35.54,9.71-50.94,12.99-.59.13-1.37-.1-2,0-1.03.17-2.5-.4-3,1-.44-.07-1.93-.08-2,0l-2,1c-.33-.05-.67.03-1,0l-16.98,3c-.33,0-.67,0-1,0-3.37.04-6.56,1.45-9.98,1-2.86-28.55-2.34-57.57-6.5-85.92l-3.48-1,2.98,88.92c-.98-.07-2.01,0-3,0-6.29.03-15.43,2.89-21.98,4-.63.11-1.37-.1-2,0-5.31.85-10.8,1.51-15.98,3-.33,0-.67,0-1,0-8.69,0-20.44,2.91-28.97,4-.33.04-.67-.04-1,0-2.18.28-4.25.77-5.99,1-18.33,2.4-36.76,4.59-54.94,7.99-1.21-.18-2.7.06-4,0-1.96-.1-4.03-.08-5.99,0-1.33.06-3.28.81-4.99,1-1.57.17-6.44-.35-6.99,0-1.82-.7-2.92.66-4,1-1.3.41-2.68.66-4,1-.77-1.48-3.46-1.13-4.99-1-7.03.58-13.9,1.53-20.98,2-2.27.15-5.05.83-7.99,1-1.66.09-3.34-.08-4.99,0-20.59,1.03-41.33.55-61.94,2,.06-19.82-.05-39.67-.04-59.5.02-29.89-2.01-65.33,3.33-94.59,1.48-8.09,4.71-15.59,5.7-23.77l-5.18,6.3c-10.86,28.45-10.05,60.94-9.85,91.16.16,23.35,3.76,54.23,1.09,76.94-.71,6.05-5.36,2.53-9.5,2.41-60.56-1.84-121.56-5.81-181.7-13.09-20.63-2.5-41.03-6.9-61.58-9.86l2.04-23.43c-1.33-19.89,2.4-40.35,1.82-60.04-.1-3.47-3.5-6.72-4.94-2.04-2.74,27.96-2.16,56.4-3.91,84.51-24.75-3.27-48.8-9.51-72.93-15.55-1.78-.45-3.65.23-5.55-.27-4.32-1.12-34.24-9.74-35.21-11.32,1.92-35.89,9.81-72.23,20.54-106.51,16.81-53.74,28.43-71.86,76.51-101.32,17.23-10.56,35.55-20.21,53.59-29.32,21.8-11.02,45.76-19.67,65.8-33.09,1.99-8.72,14.49-20.06,15.13-28.33,2.15.47,2.16-1.16,2.99-2.45,6.55-10.15,9.85-16.75,21.07-22.93,2.12-1.17,8.25-2.06,8.72-4.18l-2.83-11.4c-1.68-.46-.52,1.86-1.48,2.02-4.22.72-8.2-11.53-9.51-15.01-1.96-.33-.54,2.54-.99,3-4.02,4.08-8.35-14.35-9.14-14.84-1.4-.87-4.49.97-6.29-2.19-1.03-1.8-1.49-8.26-2.54-8.95l-.5-.99-1.49.99c-5.88-2.03-3.75-9.4-5.87-12.4-.84-1.18-3.72-.12-4.68-1.51s-.37-7.12-1.61-9.39c-1.06-1.95-2.71-1.22-3.52-1.96-3.5-3.19-4.1-19.64-6.33-25.15-1.01-2.51-3.24-3.95-3.75-6.24-1.27-5.65.07-16.8-1.18-21.58-.27-1.03-2.29-.88-2.84-2.34-1.93-5.15.42-15.27-.65-17.35-.62-1.2-10.78-4.83-13.45-6.55-25.34-16.29-42.1-74.39-28.22-101.03,3.89-7.47,9.66-12.03,18.16-13.31.62-.09,1.34.04,2,0,.98-.06,2.11.15,3,0-.06,1.3,1.9,1.54,1.99.49l-.99-.49c-5.98-50.32-14.9-108.19,12.56-153.79,9.3-15.45,22.55-28.13,34.63-41.3.94-6.2-.8-12.37-.13-19.1,1.07-10.8,7.25-26.24,17.85-30.59-3.48,9.24-10.54,17.08-11.02,27.44l1.02,8.52c6-32.57,38.96-59.9,69.73-68.64,6.79-1.93,20.25-5.16,25.18.71-8.96-.09-17.59,2.21-25.97,5.01-.25.32.57,1.3.99,1.51,1.3.65,20.3-3.01,23.28-3.77,1.51-.39,2.45-1.68,2.7-1.75ZM199.7,302.67c3.8-.24,9.33,3.88,12.35,3.97,3.93.12,12.77-3.74,17.3-4.6,31.44-5.97,78.94-8.3,109.75.58,5.43,1.57,14.94,8.9,17.79,9,3.46.12,10.39-1.88,14.98-1.88,5.68,0,12.81,1.7,17.81.78,4.37-.8,7.18-4.4,10.83-6.15,29.39-14.06,87.06-13.16,118.94-7.29,9.92,1.83,19.02,8.02,27.62.09-2.93-17.76-.68-36.07-1.84-53.86-.81-12.49-4.09-32.3-7.7-44.25-10.91-36.1-63.75-98.8-105.58-93.05-7.4,1.02-13.07,7.81-20.57,7.9l.53-1.97c-17.78,10.88-35.3,12.63-55.67,9.68-25.62-3.71-41.25-17.25-68.5-8.99s-65.01,52.17-76.99,78.86c-13.57,30.24-14.17,68.19-12.17,100.82.21,3.44,1.5,6.8,1.14,10.36ZM404.68,312.06c-8.07,7.35-.32,35.91,3.84,45.02,3.04,6.65,6.69,12.33,13.56,15.41,18.58,8.34,62.41,8.02,81.47,1,14.71-5.42,18.74-23.35,20.57-37.37,1.28-9.8,4.18-25.24-6.59-30.12-14.84-6.73-61.56-5.3-78.67-3.21-7.7.94-28.84,4.42-34.18,9.28ZM550.22,406.68c.41.46,4.69-1.36,5.65-1.83,23.76-11.55,39.77-76.06,24.74-97.02-5.96-8.3-16.71-8-23.46-.62-4.71,5.15-1.95,11.83-2.04,17.15-.07,3.8-1.74,8.21-.89,12.38,2.37-1.56,3.18-5.24,4.98-7.49,4-4.96,9.51-9.96,16.47-8.5,2.21,4.01-4.58,4.98-7.14,7.35-.99.92-6.12,8.37-6.21,9.32-.18,1.97,3.12,2.96,4.54,5.14,4.32,6.63,4.76,17.94.16,24.5-.96,1.37-1.83,3-3.83,2.65.22-8.55,3.98-18.46-3.5-24.95-1.32-.02-7.29,20.66-7.53,23.42-.81,9.33,1.33,21.17.09,30.06-.41,2.96-2.97,5.04-2.04,8.44ZM343.11,314.1c-5.83-5.83-32.31-8.9-41.07-9.37-17.59-.95-55.41-.89-71.16,5.84-11.95,5.11-7.94,24.07-5.98,34.35,2.72,14.29,6.02,26.49,20.68,32.27,17.81,7.02,64.61,6.66,81.89-1.96,8.71-4.35,12.32-15.35,14.89-24.07,2.85-9.68,8.59-29.19.74-37.05ZM193.61,343.73c-.36-6.28-2.56-13.48-2.89-19.59-.16-2.98,2.1-5.98.4-9.39-.34-.68-5.71-4.61-6.79-5.19-25.11-13.49-25.84,29.4-23.23,44.22,3.62,20.53,15.18,52.07,37.51,57.89-3.69-7.23-1.32-15.7-1.99-23.48-.46-5.33-2.49-12.06-2.91-18.08-.13-1.87,1.15-3.54.76-5.66-.12-.66-5.53-11.42-5.99-12.09-.59-.85-1.71-2.47-2.85-1.63-.65.48-3.01,8.81-3.08,10.48-.12,2.8,2.57,13,2.06,13.5s-3.54.02-4.51-.97c-4.54-4.62-3.76-18.27-.88-23.9,1.24-2.43,5.4-5.23,5.3-6.43-.09-1.01-5.27-8.43-6.39-9.67-2.15-2.39-12.86-8.04-5.97-9.03,6.2-.9,13.56,7.68,16.69,12.3,1.63,2.4,1.91,7.01,4.75,6.73ZM243.56,457.64c.57-3.61.02-8.75,4.99-7.99v15.99c4.84-.02,2.67-9.24,7.99-8.99l2.01,21.97c1.85-.47.73-4.02,1.44-6.04.23-.67,3.22-7.02,3.45-7.35.84-1.19,1.96-.45,3.08-.6.65.63-.89,15.75,3.99,16.99.09-2.15-.09-4.34.01-6.5.07-1.54-.94-3.95,1.48-3.48l3.5,8.98c0-1.17.52-5.52,1.02-5.99,1.94-1.8,2.15,4.04,3.98,2,.45-.5,1.81-9.04,3.81-12.68,7.24-13.2,9.04-11.68,21.1-16.87,2.88-1.24,7.36-7.19,8.56-2.43l6-4.99-1.01,5.98c2.04-1.35,10.15-12.56,11.4-7.4.24.98-2.42,2.81.59,2.41,2.05-2.61,6.46-8.98,9.88-8,.81.23.29,2.68,2.11,2,1.63-.61,2.8-4.6,6-4.04.54.09.44,2.22.99,2.06,1.66-.5,3.69-3,6.51-2l-.98,6.99c2.63-1.89,7.38-10.15,6.99-1,4.72-6.35,8.36-1.93,6.99,4.99,1.61.12,1.29-2.25,2.09-3.4,2.67-3.88,6.47.79,5.91,4.39,2.04-1.22.23-3.12,3.02-5.46,3.86-3.23,3.4-.83,5.95,1.46-.31-7.91,4.72-3.63,5-3.99.2-.26-.4-1.98.22-2.73.24-.29,5.46-2.38,6.23-2.32,3.54.26,3.86,5.38,7.04,6.06.52-1.15-2.22-6.91.99-5.99,3.54,1.02,5.13,5.88,8.03,7.97l.49-4.98c2.08-2.08,9.61,7.66,11.49,8.97-4.79-11.96,5.2-3.75,8.99,1.01l.49-4.49c.47-3.84,10.95,8.54,12.5,8.47.31-.78-2-7.19.97-5.97,1.84.67,7.17,8.61,7.72,8.78,1.08.34,2.11-.67,3.13-.51,4.14.66,15.47,17.38,14.68,21.08-.14.67-2.07.61-2.1,1.17-.14,2.51,5.32,12.71,6.04,7.77.45-3.07.91-6.23,1.02-9.33h2.99c.36.35-1.01,12.69,2,9,.42-6.47,2.94-12.6,1.01-18.98,2.91-.67,1.95,1.99,2.74,3.72,2.96,6.45,3.75-9.25,4.25-9.73,3.49-3.29,5.38,9.08,5.86,10.67s-.8,2.82,2.12,2.32l-.99-15.98c3.69-1.04,1.51,4.48,3.98,4.99l-.98-10.98c4.01.13,4.22,5.73,4.98,8.54.44,1.62-1.07,2.94,2.01,2.45v-15.99c4.6.16,1.88,7.63,2.04,10.37.05.82.69,4.47,2.44,3.61,3.22-1.58.43-6.23.51-8.48.11-3.22,1.82-6.88,1.01-10.49l5.02,1.53c2.2-1.93,2.01-6.76,2.98-9.52l2,3.99c3.54-1.89,1.42-7.44,2.21-11.27.12-.59,2.82-8.06,3.07-8.44,2.42-3.72,6.23-15.13,7.88-20.57,1.51-4.96-.16-10.36.79-13.97.3-1.13,2.62-1.06,2.89-2.25.11-.51.88-8.34,1.05-10.02.4-4.1-.12-8.3.09-12.4,4.69-.63,1.58,9.44,5.98,8.98-.54-8.44-5.69-16.4-3.56-25.05.48-1.95,2.49-3.98,2.53-5.42.04-1.56-1.7-3.19-1.91-5.05-.34-3.12.13-6.32-.06-9.44-.44-.59-11.64,8.06-12.03,8.69-2.21,3.58-2.97,17.12-4.24,22.48-4.09,17.25-10.46,29.43-28.46,34.48-24.52,6.88-82.72,9.35-97.13-16.17-6.15-10.88-7.43-28.5-12.95-37.01-6.07-9.35-28.25-9.04-34.42.56-3.96,6.15-6.45,23.64-9.77,32.19-1.78,4.58-4.6,8.79-6.76,12.73-.42.76-.67,1.38-1,2-4.53,3.04-8.78,6.58-14.01,8.47-18.17,6.57-67.29,6.84-84.87-1-12.1-5.39-18.48-17.82-21.94-30.01-1.6-5.65-2.73-20.1-5.16-23.82-.61-.93-4.69-4.09-5.95-5.04-.76-.57-7.57-4.96-7.92-4.56-1.03,6.6,2.41,12.04,2.98,18.5.48,5.44-1.11,15.42,0,19.77.28,1.1,2.57.68,3.04,3.16.71,3.74-.61,9.19-.1,13.09.24,1.85,1.86,1.31,2.05,2.12.77,3.27-.68,8.51-.05,11.75.23,1.2,2.89-.1,3.13,1.09.54,2.64-1.41,10.04-1.04,10.41.32.32,3.12-.42,3.85,1.65.57,1.6-.26,7.03.11,7.38s3.67-.35,4.01-.01c.6.59.15,17.77,2.98,15.99l2-1.99c-.16,1.77.43,11.33,1.01,11.99,1.53,1.73,3.8-5.34,5.98-3,1.72,1.85-6.57,16.96-2.98,20.97,4.03,2.96,2.82-11.25,2.98-12.5.18-1.38.55-2.93,1.99-1.48s3.62,16.08,3.02,18.98c1.26,1.66,1.82-.13,2-1.48.56-4.18-3.94-16.42,3-13.92l.99,16.4c1.22.38,2.28-.88,2.99-1-.54,3.42-1.44,9.27-1,12.51.19,1.36.56,2.98,1.99,1.48.8-.84,1.48-13.4,1-13.99-.64.05-1.38-.1-1.99,0ZM546.21,389.69c-.14-1.85.83-10.94-1.49-10.97-2.48-.03-1.13,10.19,1.49,10.97ZM205.59,393.69c-4.01-.11-2.97,4.35-2.99,6.98,4.01.11,2.97-4.35,2.99-6.98ZM543.2,396.69c-.28-.23-2.15.13-2.97,0-.44.42.56,11.59,1,12,.21.2,2.18-.13,2.99,0,.52-.49-.42-11.51-1.02-11.99ZM209.59,409.68c-2.52-.49-1.77.47-2.51,1.94-1.76,3.48-1.72,6.17-1.48,10.04,2.79.49,1.67-.6,2.25-2.19,1.09-3.01,1.86-6.56,1.74-9.79ZM536.22,438.66c.32-3.51,2.45-10.02-2.98-10.99-.05,3.12.28,6.47,1.01,9.49.37,1.51-.7,1.75,1.97,1.5ZM216.58,428.67c-4.87.06-2.59,5.78-.49,7.98l.49-7.98ZM529.23,437.65c-1.66-1.79-1.7.4-1.98,1.51-1.03,4.08,0,7.45,0,11.48,2.63.22,1.65.12,1.96-1.51.43-2.25,1.36-10.05.03-11.49ZM340.44,439.66c-1.26-1.32-7.77,5.38-5.98,7.98,1.41,1.64,6.84-7.09,5.98-7.98ZM521.24,439.65c-3.69-3.97-.57,8.9-.24,9.8.57,1.59-.54,2.68,2.25,2.19.19-1.66-1.59-11.54-2-11.99ZM347.44,442.65c-1.41-1.49-6.61,6.81-6.99,7.98,3.41,1.77,7.77-7.15,6.99-7.98ZM399.37,442.65c-3.4-3.25-1.7,10.43,3.01,8.98.33-.34-2.67-8.66-3.01-8.98ZM363.42,444.65c-2.78-.71-5.65,7.23-4.98,7.98,3.37-.07,4.93-5.27,4.98-7.98ZM214.58,445.65c-2.85-.47-1.66.6-2.13,2.31-.79,2.87-1.09,5.7-.86,8.67,5.07-.28,2.39-7.65,2.99-10.98ZM356.43,446.65c-3.1-.85-6.94,7.92-5.98,8.98,1.74,1.93,6.61-8.33,5.98-8.98ZM389.38,446.65c-3.12-2.84-1,4.61-.43,5.98.65,1.57-.15,2.46,2.43,2,.42-1.36-1.48-7.51-2.01-7.98ZM423.34,446.65c-3.85-3.39.2,8.48,3.01,7.99.42-1.35-2.55-7.59-3.01-7.99ZM438.33,455.63c.9-.94-3.82-8.69-5.98-8.99-1.44,2.31,4.39,10.64,5.98,8.99ZM534.22,449.65c-2.69-2.7-2.18,7.36-1.98,8.48.31,1.72,1.07,2.81,2.98,2.5,1.27-1-.23-10.21-1.01-10.98ZM319.45,461.63c.47-.4,5.11-9.31,5-10.98-3.61-.36-9.63,14.89-5,10.98ZM449.32,462.63c.53-.48-5.07-13.04-6.98-10.98-.38.4,3.59,9.66,3.97,10.31.79,1.35,1.79.53,3.01.67ZM222.57,453.64c-1.59-1.47-1.7.33-2.09,1.39-1.02,2.74-.99,5.73-.88,8.6,3.66.73,4.08-8.96,2.98-9.98ZM300.49,453.64c-1.63-1.72-7.91,8.03-6.98,8.98,1.42,1.46,8.3-7.59,6.98-8.98ZM384.41,456.64c-.24,1.29,2.03,5.54-.52,5.99-3.14.55-2.78-6.29-5.47-6.99l-1.02,4.99c-3.61,1.27-.79-6.68-3.96-3.99-1.28,1.09-2.21,7.24-6.5,8-3.81.68,1.51-5.15.48-7.01-2.94,1.27-3.11,6.3-6.47,7.01s.98-4.73-1.02-6.02c-3.92,1.56-7.84,11.84-8.98,2.01-.94,1.12-4.96,5.48-6.49,3.99-.82-.8,2-4.86.5-5.98-1.61.78-5.58,8.01-6.08,8.07-1.81.21-2.81-1.48-4.09-1.79-.94-.22-2.09.76-2.73.7-.84-.08-.15-2.66-2.07-1.99-2.54,2.75-8.07,8.82-7.51,1.99-2.47-.47-3.74,2.4-5.73,2.79-4.18.83-3.71-1.97-8.25,3.71-3.62,4.52-3.05,6.8-4.47,11.52-.96,3.21-5.42,5.85.49,6.48.29,2.38-3.41,9.17-3.01,9.47.99.75,4.78-2.4,5.97.57l-1.98,5.42h4s-1,6-1,6l4.98-.99c.7,2.15-1.93,8.74-.99,9.98,1.68,2.22,3.21-5.71,5.51-2,.67,1.08-2.03,9.11.98,8.98,1.03-.04,1.93-4.8,4.49-3.97l1.02,9.98c1.6-.26,2.23-6.65,4.98-4,.38.37-.27,7.42,0,8.99,3.52.18,2.5-5.23,6.98-3.99v5.99s6.49-5,6.49-5l1,5c1.17-1.68,3.7-1.86,5.01-2.98,2.07-1.76,2.65-5.08,5.47-5.01,2.3,4.86-.71,8.33-.94,11.54-.36,5.04-.98,13.12,1.45,17.43.01-7.16,1.21-13.63,2.37-20.6.19-1.17-.73-2.62-.58-3.75.37-2.77,6.68-12.05,4.69-14.62-4.17,2.25-4.26-1.28-3.99-4.99-2.44-1.08-2.19,4.59-4.53,1.02s2.11-8.06,4.53-10.01c-2.53.04-15.08-4.33-10-7.56,1.02-.65,12.89,2.99,15.63,3.42,9.36,1.46,18.08,1.55,27.38-.31,6.88-1.38,13.07-5.34,19.92-5.54,1.73,6.32-17.63,10.12-18.03,11.56-.23.83.23,2.36.06,3.42,3.46,1.21.73-4.04,3.48-2.98s4.14,7.78,3.39,10.36c-.64,2.19-2.78.47-2.87.62-2.59,4.71,1.44,11.72,2.55,15.92.57,2.13.03,5.9.87,7.13.64.94,5.54,2.03,5.55-.06-2.43.08-3.68-3.99-4.47-6.03-.35-.91-3.65-10.05-1.02-9.95,1.91.08,3.71,8.1,4.51,9.96,2.64-.39-.57-5.52,0-5.98,2.66-2.16,3.59,2.8,4.53,3.94,1.51,1.82,3.33,3.34,4.97,5.03l-1.5-7.97c4.98-1.31,3.91,5.95,7.98,5.98.58-1.52-1.57-6.4-.99-6.98,2.3-2.29,4.43,4.77,5.98,2.99.35-1.24-2.08-6.77-.49-6.99,4.48-.64,2.96,6.34,5.47,4,1.57-1.46-.04-8.89,2.52-9.98,3.57-1.52,2.48,4.24,5.48,4.99.6-3.65-2.14-14.65,3.42-9.89.64.55.1,2.28,1.57,1.89.45-5.18-3.4-13.3,4.98-11.47l-.97-7.5,3.98,1.99c1.77-2.77-2.69-13.22-1.98-13.98.29-.31,2.7.27,2.99-.02.99-.97-1.86-4.96-1.97-6.54s.98-3.05.78-4.74c-.43-3.59-8.79-15.08-12.3-16.7-.54-.25-1.28,3.59-3.12,3.92-1.59.28-4.51-3.59-6.85-3.94-3.1-.46.09,3.46-3.02,3.03-3.96-.55-11.13-15.94-6.49-.02-3.77.62-5.4-2.87-8.47-4.01-3.42-.5,1.83,4.74-2.02,4.03-3.51-.64-4.64-5.82-8.47-6.01-1,3.33,1.64,7.63-3.32,6.01-1.05-.34-1.56-3.22-3.19-4.01-2.31-1.12-1.19,2.73-1.49,2.99-2.54,2.3-5.83-5.37-7.98-6ZM458.31,466.62c1.39-2.24-4.06-11.95-5.98-9.98l5.98,9.98ZM526.24,470.62c-.87-4.05,2.49-13.39-2.99-13.98.87,4.05-2.49,13.39,2.99,13.98ZM519.24,459.64c-3.25-.82-3.34,5.52-2.99,7.44.2,1.09,1.75,3.5,2.49,3.52,2.74.09-.41-9.44.49-10.97ZM227.56,471.62c.88-.89,3.82-10.15-.98-8.99-.52.79-2.19,12.19.98,8.99ZM252.56,463.63c-1.12,2.17-2.05,14.97.49,14.97,1.88,0,2.95-13.85-.49-14.97ZM509.25,477.62c1.02-1.23,1.74-13.68-2.99-12.99.07,3.83-.49,7.92.88,11.6.37,1,.68,3.1,2.1,1.39ZM494.26,467.63c-2.76-2.67-2.09,7.36-1.99,8.5.16,1.85.37,5.27,3,4.48.46-.58,0-12.01-1.01-12.98ZM239.56,470.62c-1.29-1.6-1.82.11-1.99,1.49-.42,3.3-.71,9.87,1.51,12.5,1.23-4.69,1.53-9.25.49-13.99ZM284.5,481.61l4-10.98c-2.79,1.27-4.14,4.91-4.75,7.73-.22,1-1.01,3.51.76,3.25ZM221.58,471.63c-4.73-.01-2.41,7.12-1.98,9.99,3.49-1.72,1.55-6.9,1.98-9.99ZM531.23,471.63c-2.51-.74-2.47,2.16-2.7,3.75-.39,2.76-.38,5.46-.28,8.23,1.52-.33,2.54-4.48,2.75-5.73.35-2.08.3-4.16.23-6.25ZM261.54,484.61c6-.65.91-8.19,1.98-11.98-3.75,2.2-1.37,8.37-1.98,11.98ZM516.24,475.63c-1.91-1.8-2.55,2.79-2.69,3.76-.66,4.37-.03,8.88-1.28,13.22,2.19.37,2.39-.91,2.94-2.54.76-2.24,2.52-13.03,1.04-14.43ZM230.57,476.62c-.27-.26-2.46-.26-3.08.59-2.25,3.07,0,16.67,2.34,11.16.73-1.71,1.21-11.3.74-11.75ZM247.55,489.6c2.41-11.74-5.75-15.22-2.13-2.31.47,1.69-.74,2.78,2.13,2.31ZM489.28,478.61c-2.68-.26-1.6,0-1.98,1.51-1.17,4.65-.1,8.5,2.48,12.48,3.78-3.9-1.07-9.37-.5-13.99ZM500.27,478.62c-2.49-.18-1.71-.24-1.97,1.5-.92,6.2-1.64,12.37-3.02,18.48,2.65,3.05,4.88-11.45,4.97-12.5.22-2.47-.08-5,.01-7.47ZM253.55,484.61h-2v19.98h2v-19.98ZM289.5,486.62c-2.6-.52-1.74.58-2.5,1.95-1.85,3.36-2.9,7.15-2.49,11.03,2.61.49,1.75-.51,2.45-1.99,1.52-3.22,2.73-7.42,2.53-10.99ZM267.53,487.62c-2.42-1.01-2.72,3.53-2.76,4.8-.13,3.5,2.12,9.81,2.77,4.71.38-2.96-.27-6.46,0-9.5ZM468.3,501.6c.06-3.96-1.2-11.85-5.98-12.98-.04,3.53,1.97,7.77,3.54,10.98.7,1.44-.21,2.5,2.44,2ZM481.29,488.61v14.99c3.29.26,4.11-5.08,4.08-7.51-.01-1.33-2.11-9.97-4.08-7.48ZM276.51,501.59c1.28-3.38,1.22-9.48-1.98-11.98.41,3.54-1.4,9.61,1.98,11.98ZM240.55,491.61c-3.03-2.9-2.75,9.76,1,9.99.06-1.98.18-8.86-1-9.99ZM295.49,493.61c-2.6-.52-1.74.58-2.5,1.95-1.85,3.36-2.9,7.15-2.48,11.04,3.48-2.6,4.65-8.8,4.98-12.98ZM507.26,493.61c-.11-.1-2.88-.11-2.99,0-.47.45-2.21,11.32-1.99,12.99,2.95-.65,5.8-12.2,4.98-12.98ZM259.46,497.67c-3.96-2.45-3.22,5.46-2.92,8.43.1,1.04,2,9.98,4,7.48-.17-2.68.63-14.86-1.07-15.92ZM462.3,511.59c-.3-3.56-.59-9-3.98-10.99-.38,3.91.41,8.64,3.98,10.99ZM513.25,502.59h-2.99s-1,10.99-1,10.99c2.6.48,1.76-.48,2.45-1.99,1.33-2.9,1.83-5.81,1.53-9ZM477.31,518.58c3.4-3.39,4.36-11.66.48-14.98-2.8,4.55-1.32,10.12-.48,14.98ZM273.51,504.6c-1.48-1.42-1.8.09-1.98,1.47-.46,3.46.06,7.18,1.01,10.51,3.4-.69,1.93-11.06.97-11.98ZM299.49,509.6c-4.22.08-3.38,7.11-3.98,9.98,3.74.23,3.55-7.54,3.98-9.98ZM469.3,510.59c-.11-.1-2.88-.1-2.98,0-.45.43.29,11.9,3.98,10.99.2-1.54-.6-10.61-1-10.99ZM362.41,545.56c.13-.14.21-2.49.8-3.67,4.9-9.77,7.42-17,5.19-28.3-2.21.55-1.37,1.42-1.35,2.75.05,3.63,1.03,7.12-.46,10.85-.71,1.79-2.29,1.73-2.98,3.06-2.07,3.96-2.37,9.89-2.88,14.34-.22,1.91,1.32,1.34,1.66.98ZM265.53,525.58c-.53-3.35,1.65-9.04-1.98-10.98,1.53,2.75-2.49,11.32,1.98,10.98ZM292.5,515.58c-.2-.19-2.18.12-2.99,0,.23,2.95-1.04,6.74,1.5,8.99,1.08-1.22,2.06-8.45,1.49-8.99ZM282.51,527.57l.99-10.98c-1.69.97-4.01,7.11-3.96,8.55.06,1.69,1.28,2.72,2.97,2.43ZM450.31,518.59c-3.51-3.33-.34,9.75-.98,9.98,5.15.72,2.17-8.85.98-9.98ZM458.32,530.57c4.81.66,2.76-10.3-1-9.98l1,9.98ZM499.27,522.59c-4.81.94-4.01,10.14-4.98,13.98,2.4.69,2.9-2.45,3.44-4.02,1.11-3.23,1.83-6.51,1.54-9.95ZM301.48,523.58c-3.97.46-5.46,12.89-2.49,12.97,1.74.05,2.29-11.08,2.49-12.97ZM390.38,525.58c-2.34-2.57-2.17,4.16-1.93,5.44.48,2.52,2.29,4.21,2.72,6.27.84,4.07-1.34,9.78,3.2,12.27.81-2.61,1.16-4.56.93-7.36-.14-1.65-4.34-15.98-4.92-16.62ZM260.53,526.58c-3.78-2.7-3.64,9.29,1,9.99.18-1.74-.02-9.29-1-9.99ZM275.52,527.58c-3.34-.72-3.2,5.35-3.02,7.48.1,1.2,2.78,12.05,5.02,9.5.56-.64-2.5-14.47-2-16.98ZM378.27,535.39c.4-.68-1.73-5.99-.88-7.81-2.03.12-1.52,5.55-2,5.99-2.06,1.9-1.9-1.84-2.04-1.94-1.58-1.08-2.49,1.65-3.34,2.58-.51.56-1.55.31-1.6.38-.13.2,1.8,2.35,2.06,4.43.44,3.66-1.03,6.97-1.06,10.53,2,.3,2.63-.78,2.97-2.54.55-2.85,1.67-7.13,3.19-9.8.77-1.36,2.51-1.51,2.69-1.82ZM384.39,528.58c-1.87-2.34-2.82,4.39-2.68,5.34.07.45,3.03,7.59,3.45,8.38,2.84,5.32,2.83-6.89,2.26-9.01-.25-.93-1.7-.94-1.93-1.32-.98-1.6-.99-3.24-1.1-3.38ZM310.48,529.58c-2.4-2.76-5.42,8.55-3.98,9.99,2.14-.41,4.45-9.45,3.98-9.99ZM289.5,531.58c-5.89.25-4.87,14.38-1.48,15.97,3.07,1.44.47-6.54.49-7.48.06-2.65,1.67-5.55.99-8.49ZM467.3,532.57c-1.42-1.72-1.73.4-2.1,1.39-.45,1.19-2.3,12.11-1.88,12.59,2.11,2.42,4.75-7.22,4.79-8.48.02-.64-.63-5.29-.81-5.51ZM438.33,533.58c-3.13-3-2.14,8.84,1,8.99.11-1.78.02-8-1-8.99ZM455.31,534.58c-.92-.69-2.94.65-2.85,2.3.05.88,1.62,6.8,3.85,5.69.25-1.42-.33-7.48-1-7.98ZM320.47,536.58c-2.67-.56-1.71.71-2.47,1.97-2.19,3.64-3.05,6.66-2.51,11.01,2.61.49,1.75-.51,2.45-1.99,1.52-3.22,2.73-7.42,2.53-10.99ZM481.28,548.56c.11-1.27,3.56-10.04.51-9.97-.93.02-4.99,10.69-.51,9.97ZM429.34,539.57c-3.52-3.53-.79,10.47-.98,10.98,4.94,1.48,1.51-10.45.98-10.98ZM382.39,553.56c-.41-3.54,1.4-9.61-1.98-11.98.61,3.62-1.77,9.78,1.98,11.98ZM327.46,543.57c-4.78.45-4.05,6.6-3.98,9.98,3.21,1.05,4.35-9.55,3.98-9.98ZM449.32,557.56c.4-4.35,3.07-12.48-2.99-13.99-.46.55.76,10.7,1.02,12.48.2,1.34.56,3.26,1.97,1.51ZM403.37,559.55c.17-4.52.71-9.59-3.98-11.98.38,3.25-.58,11.58,3.98,11.98ZM422.35,557.55c.54-11.18-9.84-14.22-2.48-1.97.76,1.27-.2,2.53,2.48,1.97ZM474.29,549.56c-.11-.1-2.88-.11-2.98,0-.44.42-1.64,10.32-2,11.99,4.08.93,5.61-11.39,4.98-11.99ZM307.48,550.56c-3.28-.26-4.12,5.03-4.03,7.45.07,1.99,1.91,8.85,5.03,8.52l-1-15.98ZM367.42,550.56c-2.64-.22-1.65-.11-1.96,1.5-.78,4.05-.78,7.94,0,11.98.31,1.62-.68,1.72,1.96,1.5v-14.99ZM284.51,561.55c.37-.43-.52-11.04-3.98-9.98,0,3.14-.4,9.65,3.98,9.98ZM293.5,552.55c-1.95-2.32-2.85,4.17-2.75,5.25.26,2.88,2.08,8.17,4.75,9.74-.22-2.09-1.51-14.41-1.99-14.99ZM317.47,554.56c-4.89-.63-3.31,11.96-1.49,11.96,2.39,0,1.29-10.02,1.49-11.96ZM433.35,571.54c3.49-2.51,5.7-13.98,2-16.5-.92-.62-2,.78-2,1.01v15.49ZM335.45,556.56c-2.62-.8-2.83,2.63-2.99,4.48-.23,2.66-.67,6.55,1.5,8.5,2.51-3.82,1.22-8.7,1.49-12.98ZM455.32,557.56c-2.79-.49-1.67.6-2.25,2.19-1.96,5.42-1.57,11.38-3.74,16.78,2.58.52,1.74-.55,2.5-1.95,2.81-5.18,4.03-11.15,3.48-17.03ZM387.39,558.56c-2.63-.23-1.65-.12-1.96,1.5-.28,1.47-.93,4.91-.94,6.1-.02,3.02,2.29,8.71,2.9,3.91.45-3.57-.32-7.84,0-11.5ZM365.42,582.53c.71-.87-5.14-18.54-4.49-21.97-3.54,5.42-.89,14.72,1.99,20.02.34.62,1,3.76,2.5,1.95ZM326.45,577.54c0-1.5-.99-17.42-3.98-13.98.03,4.72-1,11.17,3.98,13.98ZM372.42,575.53c5.25-.4,2.28-8.47,2.98-11.98-1.51.32-2.55,4.49-2.75,5.73-.34,2.08-.31,4.16-.23,6.25ZM415.36,564.54c-6.13-1.27-1.28,6.94-1.99,11,1.24,1.66,1.82-.11,2-1.48.38-2.96-.26-6.47,0-9.52ZM462.31,564.55c-1.2.15-2.25-.69-3.01.66-1.03,1.83-1.29,7.85-1.97,10.32,2.4-.52,5.75-10.26,4.98-10.99ZM382.38,760.38c.38-.27,3.29-6.88,4.2-8.3,29.44-45.76,77.94-72.27,94.72-126.07,4.11-13.2-1.03-22.73-2.01-35.99-.61-8.26-.13-16.2-.01-24.47-5.12,2.2-5.18,12.16-9.95,13.55-1.29.38-2.7-.63-3.99-.07-2.88,1.25-5.69,7.58-8.54,9.49l-3.47-3.98c-.67,3.62-6,12.59-9.56,13.02-2.2.26-4.51-1.61-6.43-.6-2.93,1.55-4.14,9.88-10,8.56l-.5-4c-1.99.98-8.32,8.72-9.17,8.92-1.95.46-3.03-1.58-3.83-1.61-1.86-.06-4.59,6.02-6.98-.32-2.35,4.3-8.57,7.99-10.99,2-1.71,2.28-2.82,4.61-5.99,5.01l-.51-4.01c-2.5-.31-3.2,2.39-5.06,3.41-5.04,2.76-8.21.73-9.93-4.41-2.2-.16.17,2.34-.07,3.42-1.01,4.6-7.33-1.86-8.42-3.4.14,1.54,3.74,6.18,0,6.01-5.48-.25-6.31-4.89-8.99-6.02-1.91-.81-.88,2.12-2.93,2.09-3.78-.06-7.23-4.14-9.04-4.1-1.54.03-2.5,2.21-4.77,1.89-2.56-.36-8.45-5.6-10.73-6.41-1.11-.39-2.28,1.4-3.55,1.56-3.96.52-8.42-8.25-11.46-9.57-2.29-.99-3.81.8-5.31.62-.79-.09-1.56-3.2-3.06-4.15-1.98-1.26-4.36-.57-6.15-1.84s-3.64-7.6-5.42-8.64c-1.39-.82-3.26,1.16-4.97.12-1.22-.74-3.57-5.98-4.22-6.34-1.28-.69-3.73.16-5.78-.72-3.02-1.3-5.13-11.3-7.99-8.48-.66.65.98,6.85,1.03,8.45.22,6.3.32,13.81,0,20.07s-3.33,17.99-3,22.89c.43,6.47,14.16,27.36,18.54,33.41,16.38,22.65,31.76,33.32,51.35,51.55,13.56,12.61,23.58,27.86,33.36,43.56,1.91,3.07,5.4,11.01,7.12,12.87.64.69,1.49,1.69,2.44,1.03ZM344.44,566.54h-2.99c-.85.81.88,11.87,2.01,12.99.49.49,2.13.75,1.76-1.26-.75-4.05-1.08-7.61-.78-11.73ZM400.37,584.53c1.52-1.52,3.6-14.17,3-16.98-2.37,2.4-4.18,8.43-4.72,11.75-.16.97-.89,7.84,1.72,5.23ZM425.35,567.54c-2.63-.21-1.66-.12-1.96,1.52-.69,3.71-1.1,7.69-1.02,11.48,5.37-2.97,3.23-8.22,2.98-12.99ZM388.4,584.52c6.08-1.7,4.92-11.05,4.98-15.98-1.5,0-1.87,3.02-2.25,4.23-1.2,3.83-1.83,7.85-2.73,11.75ZM353.43,581.53c-.32-2.98,1.64-8.91-2.99-8.98.24,2.13-.74,9.34,2.99,8.98ZM441.35,585.53c2.56-.65,6.49-9.68,3.47-10.98-1.96-.85-1.6,1.91-1.94,3.02-.78,2.58-1.66,5.22-1.53,7.96ZM334.45,577.53c-1.26-1.68-1.82.14-2,1.49-.53,3.94.08,8.6,3.99,10.5l-1.99-11.99ZM410.37,578.54c-3.93-.73-1.26,6.7-1.98,8.98,2.37-.19,2.32-8.54,1.98-8.98ZM434.34,579.54c-2.35-.64-3.19,3.06-3.85,4.63-.99,2.34-1.78,4.84-2.13,7.35,1.99,2.12,7.51-9.88,5.98-11.98ZM359.42,590.52c.34-.37-1.74-8.81-3.98-8.99,0,2.89-.08,8.84,3.98,8.99ZM325.46,582.53c-.11-.1-2.88-.09-2.99.01-1.03.97,3.87,13.27,5.98,10.98-1.13-1.68-2.59-10.6-3-10.99ZM349.44,602.51c-1.03-9.25-10.66-15.99-2.48-1.96.76,1.3-.17,2.51,2.48,1.96ZM549.08,747.25c1.63-1.03,1.26-15.51,1.18-18.38-.85-28.41-3.87-64.89-10.52-92.39-.8-3.3-1.37-10.08-5-10.99-1.22-.31-3.02-.5-2.45,1.43,7.67,37.01,9.93,74.78,11.93,112.48-.76.82-9.19-4.01-10.66-4.82-13.48-7.44-46.4-30.96-59.81-31.17-9.75-.15-35.83,18.13-44.29,24.62-1.78,1.36-16.98,14.47-6.39,9.59,13.78-6.34,29.15-19.91,43.52-26.41,5.5-1.65,11.19-1.13,16.38,1.04,19.19,8.03,39.58,26.52,58.85,34.05,1.83.71,5.64,1.97,7.26.96ZM218.58,632.5c-3.42-.47-4.78,1.91-5.72,4.76-2.9,8.77-4.77,35.5-5.25,45.7-.88,18.57-1.61,47.94,1.05,65.87.59,3.95,2.78,5.83,6.65,3.78,21.59-11.13,43.14-34.6,64.98-43.91,8.75-3.73,16.28,1.04,24.58,4.84,11.95,5.48,22.67,13.35,34.58,18.86.44-2.02-.45-2.67-1.45-4.04-5.35-7.29-37.34-24.76-46.44-26.48-11.12-2.1-16.87,3.2-25.94,8.12l-51.02,35.39c.89-4.27-.87-8.69-1.05-12.53-1.2-25.85-.29-53.82,2.04-79.88.61-6.81,1.83-13.75,2.99-20.48ZM404.12,802.09c6.74-6.33-2.28-18.89-10.26-11.75-8.29,7.42,3.76,17.85,10.26,11.75ZM398.1,896.45c-7.36,1.16-8.82,12.26-1.69,15.28,12.77,5.41,13.56-17.15,1.69-15.28Z"/><path class="cls-2" d="M382.38,760.38c-.95.66-1.8-.35-2.44-1.03-1.72-1.86-5.2-9.79-7.12-12.87-9.78-15.7-19.81-30.95-33.36-43.56-19.59-18.22-34.98-28.9-51.35-51.55-4.38-6.05-18.11-26.94-18.54-33.41-.33-4.91,2.68-16.73,3-22.89s.22-13.77,0-20.07c-.06-1.6-1.69-7.8-1.03-8.45,2.86-2.82,4.97,7.18,7.99,8.48,2.06.89,4.5.03,5.78.72.65.35,2.99,5.59,4.22,6.34,1.71,1.04,3.58-.94,4.97-.12,1.78,1.04,3.64,7.38,5.42,8.64s4.18.58,6.15,1.84c1.5.96,2.27,4.06,3.06,4.15,1.5.18,3.02-1.62,5.31-.62,3.05,1.32,7.51,10.09,11.46,9.57,1.26-.17,2.44-1.95,3.55-1.56,2.28.81,8.17,6.04,10.73,6.41,2.26.32,3.22-1.86,4.77-1.89,1.81-.04,5.26,4.04,9.04,4.1,2.05.03,1.02-2.9,2.93-2.09,2.68,1.13,3.51,5.77,8.99,6.02,3.74.17.14-4.47,0-6.01,1.08,1.54,7.41,8.01,8.42,3.4.24-1.08-2.13-3.58.07-3.42,1.72,5.13,4.89,7.16,9.93,4.41,1.86-1.02,2.56-3.72,5.06-3.41l.51,4.01c3.17-.39,4.28-2.73,5.99-5.01,2.41,5.99,8.64,2.3,10.99-2,2.39,6.33,5.12.26,6.98.32.8.03,1.88,2.07,3.83,1.61.85-.2,7.18-7.93,9.17-8.92l.5,4c5.86,1.32,7.07-7.01,10-8.56,1.92-1.01,4.23.86,6.43.6,3.56-.43,8.88-9.41,9.56-13.02l3.47,3.98c2.86-1.91,5.66-8.24,8.54-9.49,1.29-.56,2.7.44,3.99.07,4.76-1.39,4.83-11.35,9.95-13.55-.11,8.27-.59,16.21.01,24.47.97,13.26,6.12,22.79,2.01,35.99-16.77,53.8-65.27,80.31-94.72,126.07-.91,1.42-3.82,8.03-4.2,8.3Z"/><path class="cls-3" d="M404.68,312.06c5.34-4.86,26.48-8.34,34.18-9.28,17.11-2.09,63.83-3.52,78.67,3.21,10.77,4.88,7.87,20.32,6.59,30.12-1.83,14.02-5.86,31.95-20.57,37.37-19.05,7.02-62.88,7.34-81.47-1-6.87-3.08-10.52-8.75-13.56-15.41-4.16-9.1-11.91-37.67-3.84-45.02ZM456.05,318.94c-11.02,2.4-11.88,26.23.26,29.34,18.34,4.69,18.93-33.52-.26-29.34Z"/><path class="cls-2" d="M343.11,314.1c7.86,7.86,2.12,27.36-.74,37.05-2.57,8.72-6.19,19.72-14.89,24.07-17.29,8.63-64.08,8.98-81.89,1.96-14.67-5.78-17.97-17.97-20.68-32.27-1.96-10.28-5.97-29.24,5.98-34.35,15.74-6.73,53.57-6.79,71.16-5.84,8.76.47,35.24,3.55,41.07,9.37ZM287.26,320.94c-18.2,1.57-11.85,38.62,5.61,29.66,11.6-5.96,6.24-30.68-5.61-29.66Z"/><path class="cls-2" d="M193.61,343.73c-2.85.28-3.12-4.33-4.75-6.73-3.13-4.62-10.49-13.2-16.69-12.3-6.89,1,3.82,6.64,5.97,9.03,1.12,1.24,6.3,8.67,6.39,9.67.11,1.2-4.06,4-5.3,6.43-2.88,5.64-3.66,19.28.88,23.9.97.99,4.02,1.45,4.51.97s-2.18-10.7-2.06-13.5c.07-1.67,2.43-9.99,3.08-10.48,1.13-.84,2.26.78,2.85,1.63.46.67,5.87,11.42,5.99,12.09.38,2.12-.9,3.79-.76,5.66.42,6.02,2.46,12.75,2.91,18.08.67,7.77-1.7,16.25,1.99,23.48-22.32-5.82-33.89-37.36-37.51-57.89-2.61-14.82-1.88-57.71,23.23-44.22,1.08.58,6.45,4.51,6.79,5.19,1.7,3.41-.56,6.41-.4,9.39.33,6.11,2.53,13.31,2.89,19.59Z"/><path class="cls-2" d="M550.22,406.68c-.93-3.4,1.63-5.48,2.04-8.44,1.25-8.89-.89-20.73-.09-30.06.24-2.76,6.21-23.44,7.53-23.42,7.48,6.49,3.72,16.4,3.5,24.95,2,.34,2.87-1.28,3.83-2.65,4.6-6.56,4.16-17.88-.16-24.5-1.42-2.18-4.73-3.17-4.54-5.14.09-.94,5.22-8.4,6.21-9.32,2.56-2.37,9.35-3.34,7.14-7.35-6.96-1.46-12.48,3.54-16.47,8.5-1.81,2.25-2.61,5.93-4.98,7.49-.85-4.17.82-8.57.89-12.38.1-5.31-2.67-11.99,2.04-17.15,6.75-7.38,17.5-7.69,23.46.62,15.03,20.96-.98,85.47-24.74,97.02-.96.47-5.25,2.29-5.65,1.83Z"/><path class="cls-2" d="M549.08,747.25c-1.62,1.02-5.43-.24-7.26-.96-19.27-7.53-39.66-26.01-58.85-34.05-5.19-2.17-10.88-2.69-16.38-1.04-14.37,6.5-29.74,20.07-43.52,26.41-10.59,4.87,4.61-8.23,6.39-9.59,8.46-6.49,34.54-24.77,44.29-24.62,13.41.21,46.33,23.74,59.81,31.17,1.47.81,9.89,5.64,10.66,4.82-2-37.7-4.26-75.47-11.93-112.48-.57-1.93,1.22-1.74,2.45-1.43,3.63.91,4.2,7.69,5,10.99,6.65,27.51,9.66,63.98,10.52,92.39.09,2.88.45,17.36-1.18,18.38Z"/><path class="cls-2" d="M218.58,632.5c-1.16,6.73-2.38,13.67-2.99,20.48-2.34,26.07-3.24,54.04-2.04,79.88.18,3.84,1.93,8.26,1.05,12.53l51.02-35.39c9.07-4.92,14.82-10.21,25.94-8.12,9.1,1.72,41.1,19.19,46.44,26.48,1,1.37,1.88,2.02,1.45,4.04-11.9-5.51-22.62-13.38-34.58-18.86-8.3-3.81-15.83-8.57-24.58-4.84-21.84,9.31-43.39,32.78-64.98,43.91-3.87,2.05-6.06.17-6.65-3.78-2.66-17.93-1.93-47.3-1.05-65.87.48-10.2,2.35-36.93,5.25-45.7.94-2.85,2.3-5.23,5.72-4.76Z"/><path class="cls-2" d="M398.1,896.45c11.87-1.87,11.07,20.7-1.69,15.28-7.12-3.02-5.67-14.13,1.69-15.28Z"/><path class="cls-2" d="M404.12,802.09c-6.5,6.1-18.55-4.33-10.26-11.75,7.98-7.14,17,5.42,10.26,11.75Z"/><path class="cls-4" d="M362.41,545.56c-.34.35-1.88.93-1.66-.98.51-4.45.81-10.38,2.88-14.34.69-1.32,2.26-1.27,2.98-3.06,1.49-3.73.51-7.22.46-10.85-.02-1.32-.86-2.2,1.35-2.75,2.23,11.3-.29,18.53-5.19,28.3-.59,1.18-.67,3.54-.8,3.67Z"/><path class="cls-4" d="M378.27,535.39c-.18.31-1.92.45-2.69,1.82-1.52,2.68-2.64,6.96-3.19,9.8-.34,1.76-.97,2.84-2.97,2.54.03-3.57,1.5-6.88,1.06-10.53-.25-2.08-2.19-4.23-2.06-4.43.04-.07,1.08.19,1.6-.38.85-.93,1.76-3.66,3.34-2.58.14.09-.02,3.84,2.04,1.94.48-.44-.03-5.87,2-5.99-.85,1.82,1.28,7.13.88,7.81Z"/><path class="cls-4" d="M390.38,525.58c.58.64,4.79,14.97,4.92,16.62.23,2.8-.12,4.75-.93,7.36-4.54-2.49-2.36-8.2-3.2-12.27-.42-2.06-2.24-3.76-2.72-6.27-.24-1.28-.42-8.01,1.93-5.44Z"/><path class="cls-4" d="M259.46,497.67c1.71,1.05.9,13.24,1.07,15.92-1.99,2.49-3.89-6.44-4-7.48-.29-2.97-1.04-10.88,2.92-8.43Z"/><path class="cls-4" d="M365.42,582.53c-1.5,1.82-2.16-1.32-2.5-1.95-2.88-5.31-5.53-14.61-1.99-20.02-.65,3.44,5.2,21.1,4.49,21.97Z"/><path class="cls-4" d="M275.52,527.58c-.5,2.51,2.56,16.34,2,16.98-2.24,2.54-4.92-8.31-5.02-9.5-.18-2.13-.31-8.2,3.02-7.48Z"/><path class="cls-4" d="M307.48,550.56l1,15.98c-3.12.32-4.96-6.53-5.03-8.52-.08-2.43.75-7.72,4.03-7.45Z"/><path class="cls-4" d="M384.39,528.58c.11.14.12,1.78,1.1,3.38.23.38,1.68.39,1.93,1.32.57,2.12.59,14.34-2.26,9.01-.42-.79-3.38-7.93-3.45-8.38-.14-.95.81-7.68,2.68-5.34Z"/><path class="cls-4" d="M289.5,531.58c.68,2.93-.94,5.84-.99,8.49-.02.94,2.58,8.93-.49,7.48-3.39-1.59-4.41-15.72,1.48-15.97Z"/><path class="cls-4" d="M455.32,557.56c.55,5.88-.68,11.85-3.48,17.03-.76,1.39.08,2.46-2.5,1.95,2.17-5.4,1.78-11.36,3.74-16.78.57-1.59-.54-2.68,2.25-2.19Z"/><path class="cls-4" d="M433.35,571.54v-15.49c0-.24,1.09-1.64,2-1.01,3.7,2.52,1.48,13.99-2,16.5Z"/><path class="cls-4" d="M481.29,488.61c1.98-2.48,4.07,6.16,4.08,7.48.03,2.43-.8,7.77-4.08,7.51v-14.99Z"/><path class="cls-4" d="M500.27,478.62c-.09,2.47.21,5-.01,7.47-.09,1.05-2.32,15.55-4.97,12.5,1.38-6.11,2.1-12.27,3.02-18.48.26-1.74-.52-1.68,1.97-1.5Z"/><path class="cls-4" d="M516.24,475.63c1.48,1.4-.28,12.2-1.04,14.43-.55,1.63-.75,2.91-2.94,2.54,1.26-4.34.62-8.86,1.28-13.22.15-.97.78-5.56,2.69-3.76Z"/><path class="cls-4" d="M400.37,584.53c-2.61,2.61-1.88-4.26-1.72-5.23.54-3.32,2.35-9.36,4.72-11.75.6,2.82-1.48,15.46-3,16.98Z"/><path class="cls-4" d="M477.31,518.58c-.83-4.86-2.32-10.43.48-14.98,3.88,3.32,2.92,11.59-.48,14.98Z"/><path class="cls-4" d="M230.57,476.62c.47.45,0,10.04-.74,11.75-2.35,5.51-4.6-8.1-2.34-11.16.62-.85,2.81-.85,3.08-.59Z"/><path class="cls-4" d="M543.2,396.69c.6.49,1.53,11.5,1.02,11.99-.81-.13-2.78.2-2.99,0-.44-.41-1.44-11.58-1-12,.82.14,2.69-.22,2.97,0Z"/><path class="cls-4" d="M499.27,522.59c.29,3.44-.43,6.73-1.54,9.95-.54,1.57-1.04,4.71-3.44,4.02.97-3.84.18-13.03,4.98-13.98Z"/><path class="cls-4" d="M449.32,557.56c-1.41,1.75-1.77-.17-1.97-1.51-.26-1.78-1.47-11.93-1.02-12.48,6.05,1.5,3.38,9.64,2.99,13.99Z"/><path class="cls-4" d="M252.56,463.63c3.44,1.12,2.37,14.97.49,14.97-2.53,0-1.61-12.8-.49-14.97Z"/><rect class="cls-4" x="251.55" y="484.61" width="2" height="19.98"/><path class="cls-4" d="M388.4,584.52c.9-3.9,1.53-7.91,2.73-11.75.38-1.21.75-4.23,2.25-4.23-.06,4.92,1.1,14.27-4.98,15.98Z"/><path class="cls-4" d="M526.24,470.62c-5.48-.59-2.11-9.93-2.99-13.98,5.48.59,2.11,9.93,2.99,13.98Z"/><path class="cls-4" d="M293.5,552.55c.49.58,1.77,12.9,1.99,14.99-2.67-1.58-4.49-6.86-4.75-9.74-.1-1.07.8-7.57,2.75-5.25Z"/><path class="cls-4" d="M489.28,478.61c-.57,4.62,4.28,10.08.5,13.99-2.59-3.98-3.65-7.83-2.48-12.48.38-1.5-.7-1.77,1.98-1.51Z"/><path class="cls-4" d="M467.3,532.57c.18.21.83,4.87.81,5.51-.04,1.26-2.68,10.89-4.79,8.48-.42-.48,1.44-11.4,1.88-12.59.37-.99.68-3.11,2.1-1.39Z"/><path class="cls-4" d="M509.25,477.62c-1.42,1.71-1.73-.4-2.1-1.39-1.38-3.68-.81-7.76-.88-11.6,4.72-.69,4.01,11.76,2.99,12.99Z"/><path class="cls-4" d="M326.45,577.54c-4.98-2.81-3.95-9.26-3.98-13.98,2.99-3.43,3.98,12.48,3.98,13.98Z"/><path class="cls-4" d="M468.3,501.6c-2.65.5-1.74-.56-2.44-2-1.57-3.21-3.58-7.45-3.54-10.98,4.78,1.13,6.04,9.02,5.98,12.98Z"/><path class="cls-4" d="M320.47,536.58c.2,3.57-1.01,7.77-2.53,10.99-.7,1.48.16,2.48-2.45,1.99-.54-4.35.32-7.36,2.51-11.01.76-1.26-.2-2.53,2.47-1.97Z"/><path class="cls-4" d="M289.5,486.62c.2,3.57-1.02,7.77-2.53,10.99-.7,1.48.16,2.48-2.45,1.99-.42-3.88.63-7.67,2.49-11.03.76-1.37-.1-2.47,2.5-1.95Z"/><path class="cls-4" d="M474.29,549.56c.63.6-.91,12.92-4.98,11.99.36-1.67,1.56-11.57,2-11.99.11-.1,2.88-.1,2.98,0Z"/><path class="cls-4" d="M507.26,493.61c.82.79-2.03,12.34-4.98,12.98-.21-1.67,1.52-12.54,1.99-12.99.11-.1,2.88-.09,2.99,0Z"/><path class="cls-4" d="M494.26,467.63c1,.97,1.47,12.41,1.01,12.98-2.62.79-2.83-2.63-3-4.48-.1-1.14-.78-11.17,1.99-8.5Z"/><path class="cls-4" d="M335.45,556.56c-.26,4.28,1.02,9.16-1.49,12.98-2.17-1.95-1.73-5.84-1.5-8.5.16-1.85.37-5.27,2.99-4.48Z"/><path class="cls-4" d="M301.48,523.58c-.2,1.89-.75,13.01-2.49,12.97-2.97-.08-1.48-12.51,2.49-12.97Z"/><path class="cls-4" d="M344.44,566.54c-.3,4.12.04,7.68.78,11.73.37,2-1.28,1.74-1.76,1.26-1.13-1.12-2.85-12.18-2.01-12.99h2.99Z"/><path class="cls-4" d="M434.34,579.54c1.53,2.1-3.99,14.1-5.98,11.98.35-2.51,1.15-5.02,2.13-7.35.66-1.57,1.51-5.27,3.85-4.63Z"/><path class="cls-4" d="M403.37,559.55c-4.56-.41-3.6-8.74-3.98-11.98,4.69,2.39,4.15,7.47,3.98,11.98Z"/><path class="cls-4" d="M367.42,550.56v14.99c-2.64.22-1.65.11-1.96-1.5-.78-4.05-.78-7.94,0-11.98.31-1.62-.68-1.72,1.96-1.5Z"/><path class="cls-4" d="M317.47,554.56c-.2,1.95.9,11.96-1.49,11.96-1.81,0-3.39-12.59,1.49-11.96Z"/><path class="cls-4" d="M425.35,567.54c.25,4.77,2.39,10.03-2.98,12.99-.07-3.78.33-7.77,1.02-11.48.3-1.63-.67-1.72,1.96-1.52Z"/><path class="cls-4" d="M469.3,510.59c.4.38,1.2,9.45,1,10.99-3.69.91-4.43-10.55-3.98-10.99.11-.1,2.88-.11,2.98,0Z"/><path class="cls-4" d="M295.49,493.61c-.33,4.19-1.5,10.38-4.98,12.98-.42-3.89.63-7.67,2.48-11.04.76-1.37-.1-2.47,2.5-1.95Z"/><path class="cls-4" d="M529.23,437.65c1.34,1.44.4,9.23-.03,11.49-.31,1.62.67,1.72-1.96,1.51.01-4.03-1.02-7.4,0-11.48.28-1.11.32-3.29,1.98-1.51Z"/><path class="cls-4" d="M209.59,409.68c.13,3.23-.65,6.78-1.74,9.79-.57,1.59.54,2.68-2.25,2.19-.25-3.87-.28-6.56,1.48-10.04.74-1.47-.02-2.42,2.51-1.94Z"/><path class="cls-4" d="M534.22,449.65c.77.77,2.28,9.98,1.01,10.98-1.91.31-2.67-.78-2.98-2.5-.21-1.13-.72-11.18,1.98-8.48Z"/><path class="cls-4" d="M519.24,459.64c-.91,1.52,2.24,11.06-.49,10.97-.74-.03-2.29-2.43-2.49-3.52-.36-1.93-.26-8.27,2.99-7.44Z"/><path class="cls-4" d="M239.56,470.62c1.04,4.74.74,9.3-.49,13.99-2.21-2.64-1.92-9.2-1.51-12.5.17-1.37.7-3.09,1.99-1.49Z"/><path class="cls-4" d="M273.51,504.6c.96.92,2.42,11.3-.97,11.98-.95-3.34-1.47-7.05-1.01-10.51.19-1.38.5-2.89,1.98-1.47Z"/><path class="cls-4" d="M325.46,582.53c.41.4,1.87,9.31,3,10.99-2.11,2.29-7.02-10.01-5.98-10.98.11-.1,2.88-.11,2.99-.01Z"/><path class="cls-4" d="M536.22,438.66c-2.68.25-1.61.01-1.97-1.5-.73-3.02-1.06-6.37-1.01-9.49,5.44.97,3.3,7.49,2.98,10.99Z"/><path class="cls-4" d="M387.39,558.56c-.32,3.67.46,7.94,0,11.5-.61,4.81-2.93-.88-2.9-3.91,0-1.19.66-4.63.94-6.1.31-1.62-.67-1.73,1.96-1.5Z"/><path class="cls-4" d="M513.25,502.59c.3,3.19-.2,6.1-1.53,9-.69,1.5.15,2.47-2.45,1.99l1-10.99h2.99Z"/><path class="cls-4" d="M429.34,539.57c.53.53,3.96,12.46-.98,10.98.18-.51-2.54-14.51.98-10.98Z"/><path class="cls-4" d="M260.53,526.58c.98.7,1.18,8.24,1,9.99-4.64-.69-4.78-12.69-1-9.99Z"/><path class="cls-4" d="M449.32,462.63c-1.22-.14-2.22.68-3.01-.67-.38-.65-4.35-9.91-3.97-10.31,1.92-2.06,7.51,10.5,6.98,10.98Z"/><path class="cls-4" d="M284.51,561.55c-4.38-.33-3.99-6.85-3.98-9.98,3.47-1.06,4.36,9.55,3.98,9.98Z"/><path class="cls-4" d="M521.24,439.65c.41.44,2.19,10.33,2,11.99-2.79.49-1.67-.6-2.25-2.19-.32-.9-3.45-13.76.24-9.8Z"/><path class="cls-4" d="M422.35,557.55c-2.67.56-1.71-.7-2.48-1.97-7.36-12.25,3.02-9.2,2.48,1.97Z"/><path class="cls-4" d="M441.35,585.53c-.12-2.75.75-5.38,1.53-7.96.34-1.11-.02-3.86,1.94-3.02,3.02,1.31-.91,10.33-3.47,10.98Z"/><path class="cls-4" d="M458.32,530.57l-1-9.98c3.76-.32,5.81,10.64,1,9.98Z"/><path class="cls-4" d="M327.46,543.57c.36.43-.78,11.03-3.98,9.98-.07-3.39-.79-9.53,3.98-9.98Z"/><path class="cls-4" d="M415.36,564.54c-.25,3.04.38,6.56,0,9.52-.18,1.38-.76,3.14-2,1.48.7-4.06-4.14-12.27,1.99-11Z"/><path class="cls-4" d="M214.58,445.65c-.6,3.33,2.09,10.7-2.99,10.98-.24-2.97.07-5.8.86-8.67.47-1.71-.72-2.78,2.13-2.31Z"/><path class="cls-4" d="M261.54,484.61c.62-3.62-1.77-9.78,1.98-11.98-1.08,3.79,4.02,11.33-1.98,11.98Z"/><path class="cls-4" d="M372.42,575.53c-.07-2.09-.11-4.17.23-6.25.2-1.23,1.24-5.41,2.75-5.73-.7,3.51,2.26,11.58-2.98,11.98Z"/><path class="cls-4" d="M334.45,577.53l1.99,11.99c-3.91-1.91-4.52-6.56-3.99-10.5.18-1.35.74-3.17,2-1.49Z"/><path class="cls-4" d="M222.57,453.64c1.1,1.02.68,10.72-2.98,9.98-.1-2.87-.14-5.86.88-8.6.39-1.05.51-2.86,2.09-1.39Z"/><path class="cls-4" d="M319.45,461.63c-4.62,3.91,1.4-11.35,5-10.98.1,1.67-4.53,10.59-5,10.98Z"/><path class="cls-4" d="M462.31,564.55c.77.72-2.58,10.46-4.98,10.99.68-2.47.94-8.49,1.97-10.32.76-1.35,1.81-.51,3.01-.66Z"/><path class="cls-4" d="M247.55,489.6c-2.86.48-1.65-.62-2.13-2.31-3.62-12.92,4.54-9.44,2.13,2.31Z"/><path class="cls-4" d="M450.31,518.59c1.19,1.13,4.17,10.7-.98,9.98.64-.24-2.53-13.31.98-9.98Z"/><path class="cls-4" d="M282.51,527.57c-1.69.29-2.91-.74-2.97-2.43-.05-1.44,2.28-7.58,3.96-8.55l-.99,10.98Z"/><path class="cls-4" d="M267.53,487.62c-.26,3.04.38,6.55,0,9.5-.65,5.11-2.9-1.21-2.77-4.71.05-1.27.34-5.81,2.76-4.8Z"/><path class="cls-4" d="M531.23,471.63c.07,2.09.12,4.17-.23,6.25-.21,1.25-1.23,5.4-2.75,5.73-.1-2.76-.11-5.47.28-8.23.23-1.59.19-4.5,2.7-3.75Z"/><path class="cls-4" d="M300.49,453.64c1.32,1.39-5.56,10.45-6.98,8.98-.93-.95,5.35-10.7,6.98-8.98Z"/><path class="cls-4" d="M356.43,446.65c.62.65-4.24,10.92-5.98,8.98-.96-1.06,2.89-9.84,5.98-8.98Z"/><path class="cls-4" d="M227.56,471.62c-3.16,3.2-1.5-8.2-.98-8.99,4.8-1.16,1.86,8.1.98,8.99Z"/><path class="cls-4" d="M481.28,548.56c-4.47.73-.42-9.95.51-9.97,3.05-.07-.4,8.7-.51,9.97Z"/><path class="cls-4" d="M276.51,501.59c-3.37-2.38-1.56-8.44-1.98-11.98,3.2,2.51,3.26,8.61,1.98,11.98Z"/><path class="cls-4" d="M299.49,509.6c-.43,2.44-.24,10.21-3.98,9.98.61-2.87-.24-9.91,3.98-9.98Z"/><path class="cls-4" d="M399.37,442.65c.34.33,3.33,8.64,3.01,8.98-4.71,1.45-6.41-12.23-3.01-8.98Z"/><path class="cls-4" d="M546.21,389.69c-2.61-.78-3.97-11-1.49-10.97,2.32.03,1.35,9.12,1.49,10.97Z"/><path class="cls-4" d="M340.44,439.66c.85.89-4.58,9.62-5.98,7.98-1.79-2.6,4.72-9.3,5.98-7.98Z"/><path class="cls-4" d="M310.48,529.58c.47.54-1.84,9.58-3.98,9.99-1.44-1.44,1.58-12.75,3.98-9.99Z"/><path class="cls-4" d="M221.58,471.63c-.43,3.09,1.51,8.27-1.98,9.99-.43-2.86-2.75-10,1.98-9.99Z"/><path class="cls-4" d="M438.33,455.63c-1.58,1.65-7.42-6.68-5.98-8.99,2.15.3,6.88,8.05,5.98,8.99Z"/><path class="cls-4" d="M240.55,491.61c1.18,1.13,1.06,8.01,1,9.99-3.76-.23-4.03-12.89-1-9.99Z"/><path class="cls-4" d="M462.3,511.59c-3.57-2.35-4.36-7.08-3.98-10.99,3.39,1.99,3.68,7.43,3.98,10.99Z"/><path class="cls-4" d="M458.31,466.62l-5.98-9.98c1.92-1.97,7.37,7.74,5.98,9.98Z"/><path class="cls-4" d="M347.44,442.65c.78.83-3.57,9.75-6.99,7.98.37-1.16,5.58-9.47,6.99-7.98Z"/><path class="cls-4" d="M353.43,581.53c-3.72.36-2.74-6.85-2.99-8.98,4.63.07,2.66,6.01,2.99,8.98Z"/><path class="cls-4" d="M292.5,515.58c.57.54-.41,7.77-1.49,8.99-2.54-2.26-1.27-6.04-1.5-8.99.81.13,2.78-.19,2.99,0Z"/><path class="cls-4" d="M349.44,602.51c-2.65.55-1.72-.66-2.48-1.96-8.18-14.02,1.45-7.28,2.48,1.96Z"/><path class="cls-4" d="M455.31,534.58c.68.51,1.26,6.57,1,7.98-2.23,1.11-3.8-4.8-3.85-5.69-.09-1.65,1.93-2.98,2.85-2.3Z"/><path class="cls-4" d="M284.5,481.61c-1.76.26-.97-2.25-.76-3.25.61-2.82,1.96-6.46,4.75-7.73l-4,10.98Z"/><path class="cls-4" d="M363.42,444.65c-.05,2.71-1.61,7.92-4.98,7.98-.67-.75,2.21-8.69,4.98-7.98Z"/><path class="cls-4" d="M382.39,553.56c-3.75-2.2-1.37-8.37-1.98-11.98,3.38,2.37,1.56,8.45,1.98,11.98Z"/><path class="cls-4" d="M359.42,590.52c-4.06-.14-3.99-6.09-3.98-8.99,2.25.17,4.32,8.62,3.98,8.99Z"/><path class="cls-4" d="M438.33,533.58c1.03.98,1.12,7.21,1,8.99-3.15-.15-4.13-11.99-1-8.99Z"/><path class="cls-4" d="M265.53,525.58c-4.48.34-.45-8.23-1.98-10.98,3.64,1.95,1.45,7.64,1.98,10.98Z"/><path class="cls-4" d="M205.59,393.69c-.02,2.64,1.02,7.1-2.99,6.98.02-2.64-1.02-7.1,2.99-6.98Z"/><path class="cls-4" d="M389.38,446.65c.53.48,2.42,6.63,2.01,7.98-2.59.46-1.78-.43-2.43-2-.57-1.37-2.69-8.82.43-5.98Z"/><path class="cls-4" d="M216.58,428.67l-.49,7.98c-2.1-2.2-4.38-7.92.49-7.98Z"/><path class="cls-4" d="M423.34,446.65c.45.4,3.42,6.64,3.01,7.99-2.8.5-6.86-11.38-3.01-7.99Z"/><path class="cls-4" d="M410.37,578.54c.34.45.39,8.79-1.98,8.98.72-2.28-1.95-9.71,1.98-8.98Z"/><path class="cls-3" d="M199.7,302.67c.37-3.56-.93-6.91-1.14-10.36-2-32.62-1.4-70.57,12.17-100.82,11.98-26.69,48.42-70.2,76.99-78.86s42.87,5.28,68.5,8.99c20.37,2.95,37.9,1.2,55.67-9.68l-.53,1.97c7.5-.09,13.17-6.88,20.57-7.9,41.83-5.74,94.67,56.96,105.58,93.05,3.61,11.95,6.89,31.77,7.7,44.25,1.16,17.78-1.09,36.1,1.84,53.86-8.6,7.93-17.7,1.73-27.62-.09-31.88-5.88-89.56-6.77-118.94,7.29-3.65,1.75-6.46,5.35-10.83,6.15-5,.92-12.13-.79-17.81-.78-4.59,0-11.51,2-14.98,1.88-2.85-.1-12.35-7.43-17.79-9-30.81-8.88-78.31-6.54-109.75-.58-4.52.86-13.36,4.72-17.3,4.6-3.02-.09-8.56-4.21-12.35-3.97ZM514.26,287.78c.94-6.58-3.86-9.74-8.69-12.79-12.64-7.99-26.84-10.23-41.63-9.06-7.1.56-34.04,5.77-38.52,10.43s-3.45,14.14,3.42,14.51c6.91.38,22.41-6.16,30.28-7.78,8.56-1.76,18.87-3.21,27.56-2.19,9.18,1.08,18.08,7.71,27.58,6.89ZM267.31,269.07c-9.35,1.05-33.44,10.26-35.57,20.43-1.95,9.28,13.96-.65,18.03-2.01,25.77-8.59,38.02,1.9,61.21,4.29,17.07,1.76,15.62-12.34,3.31-17.29-11.51-4.62-34.68-6.8-46.97-5.42Z"/><path class="cls-2" d="M384.41,456.64c2.15.63,5.44,8.3,7.98,6,.29-.26-.83-4.11,1.49-2.99,1.63.79,2.15,3.66,3.19,4.01,4.96,1.62,2.32-2.68,3.32-6.01,3.83.19,4.97,5.36,8.47,6.01,3.86.71-1.39-4.53,2.02-4.03,3.08,1.14,4.7,4.63,8.47,4.01-4.64-15.92,2.53-.53,6.49.02,3.11.43-.08-3.49,3.02-3.03,2.34.35,5.27,4.22,6.85,3.94,1.84-.33,2.58-4.16,3.12-3.92,3.51,1.62,11.87,13.1,12.3,16.7.2,1.69-.88,3.2-.78,4.74s2.96,5.56,1.97,6.54c-.29.29-2.69-.3-2.99.02-.71.76,3.75,11.2,1.98,13.98l-3.98-1.99.97,7.5c-8.39-1.82-4.53,6.29-4.98,11.47-1.47.39-.93-1.34-1.57-1.89-5.56-4.76-2.82,6.24-3.42,9.89-3-.75-1.9-6.51-5.48-4.99-2.56,1.09-.95,8.52-2.52,9.98-2.51,2.34-1-4.63-5.47-4-1.59.23.84,5.76.49,6.99-1.55,1.78-3.69-5.28-5.98-2.99-.59.58,1.57,5.46.99,6.98-4.07-.03-3-7.29-7.98-5.98l1.5,7.97c-1.64-1.69-3.46-3.21-4.97-5.03-.94-1.13-1.87-6.1-4.53-3.94-.57.46,2.65,5.59,0,5.98-.8-1.87-2.59-9.89-4.51-9.96-2.63-.11.67,9.03,1.02,9.95.79,2.04,2.04,6.11,4.47,6.03-.01,2.08-4.92,1-5.55.06-.83-1.23-.3-5-.87-7.13-1.12-4.2-5.15-11.22-2.55-15.92.08-.15,2.23,1.57,2.87-.62.75-2.57-.71-9.33-3.39-10.36s-.01,4.19-3.48,2.98c.17-1.06-.3-2.59-.06-3.42.4-1.44,19.76-5.24,18.03-11.56-6.85.2-13.05,4.16-19.92,5.54-9.3,1.87-18.03,1.77-27.38.31-2.74-.43-14.6-4.07-15.63-3.42-5.08,3.23,7.47,7.61,10,7.56-2.42,1.94-6.78,6.59-4.53,10.01s2.09-2.1,4.53-1.02c-.26,3.7-.18,7.23,3.99,4.99,1.99,2.57-4.32,11.85-4.69,14.62-.15,1.13.77,2.58.58,3.75-1.15,6.97-2.36,13.44-2.37,20.6-2.43-4.31-1.82-12.39-1.45-17.43.23-3.21,3.25-6.68.94-11.54-2.83-.08-3.4,3.25-5.47,5.01-1.31,1.11-3.84,1.29-5.01,2.98l-1-5-6.48,5v-5.99c-4.49-1.24-3.48,4.17-6.99,3.99-.28-1.57.37-8.62,0-8.99-2.75-2.65-3.38,3.74-4.98,4l-1.02-9.98c-2.56-.82-3.46,3.93-4.49,3.97-3.02.13-.32-7.9-.98-8.98-2.3-3.71-3.83,4.22-5.51,2-.94-1.24,1.69-7.83.99-9.98l-4.98.99,1-5.99h-4s1.98-5.44,1.98-5.44c-1.19-2.97-4.98.18-5.97-.57-.4-.3,3.3-7.09,3.01-9.47-5.91-.63-1.45-3.27-.49-6.48,1.41-4.72.85-7,4.47-11.52,4.54-5.67,4.07-2.88,8.25-3.71,1.99-.39,3.26-3.26,5.73-2.79-.56,6.83,4.97.76,7.51-1.99,1.92-.67,1.23,1.91,2.07,1.99.63.06,1.78-.93,2.73-.7,1.29.31,2.28,2,4.09,1.79.5-.06,4.47-7.29,6.08-8.07,1.5,1.12-1.32,5.19-.5,5.98,1.54,1.49,5.55-2.86,6.49-3.99,1.14,9.83,5.05-.45,8.98-2.01,2,1.29-2.44,6.74,1.02,6.02s3.53-5.74,6.47-7.01c1.04,1.86-4.29,7.69-.48,7.01,4.29-.76,5.22-6.91,6.5-8,3.17-2.7.35,5.25,3.96,3.99l1.02-4.99c2.69.7,2.33,7.54,5.47,6.99,2.55-.45.29-4.7.52-5.99ZM314.48,473.63c-1.52,5.67,9.54,8.29,13.98,9.49,29.01,7.89,79.28,7.55,105.56-8.33,2.21-1.34,5.67-2.57,5.4-5.64-.56-6.24-8.81.57-11.37,1.67-29.02,12.4-61.84,13.36-92.62,7.34-7.02-1.37-13.69-4.82-20.94-4.53ZM404.37,517.58c.84-.86-.36-9.67-3.48-8.98-3.87.86.53,12.01,3.48,8.98Z"/><path class="cls-1" d="M267.31,269.07c12.29-1.38,35.46.8,46.97,5.42,12.31,4.94,13.76,19.04-3.31,17.29-23.18-2.39-35.44-12.87-61.21-4.29-4.07,1.36-19.98,11.29-18.03,2.01,2.13-10.16,26.23-19.38,35.57-20.43Z"/><path class="cls-1" d="M514.26,287.78c-9.5.83-18.4-5.81-27.58-6.89-8.69-1.02-19.01.43-27.56,2.19-7.86,1.62-23.37,8.16-30.28,7.78-6.87-.37-7.79-9.97-3.42-14.51s31.42-9.87,38.52-10.43c14.79-1.16,28.98,1.07,41.63,9.06,4.83,3.05,9.63,6.21,8.69,12.79Z"/><path class="cls-1" d="M334.75,394.99c1.47-1.25,5.26-2.02,5.71.22.24,1.22-8.07,11.72-2.48,19.44,3.87,5.35,6.32,1.6,10.04,1.05,9.51-1.4,16.03,10.22,29.94,9.01,8.92-.78,12.79-9.22,19.42-10.62,1.93-.41,5.49,1.09,5,3.06-.25,1.01-15.19,11.63-16.65,12.33-6.7,3.23-14.84,2.7-21.6-.04-4.19-1.7-10.1-7.42-14.3-7.79s-4.89,3.35-11.22,1.34c-10.5-3.34-11.35-21.61-3.86-28Z"/><path class="cls-1" d="M408.38,390.7c3.31-3.33,10.41,8.41,10.92,11.55,1.01,6.33-.3,12.35-5.39,16.47-2.54,2.06-7.55,5.13-8.53.47,6.35-3.8,9.33-9.23,7.76-16.77-.53-2.54-6.4-10.06-4.76-11.71Z"/><path class="cls-3" d="M242.56,470.14c.19,1.36.56,2.98,1.99,1.48.8-.84,1.48-13.4,1-13.99-.64.05-1.38-.1-1.99,0-.54,3.42-1.44,9.27-1,12.51Z"/><path class="cls-3" d="M545.65,335.66c.48-1.95,2.49-3.98,2.53-5.42.04-1.56-1.7-3.18-1.91-5.05-.34-3.12.13-6.32-.06-9.44-.44-.59-11.64,8.06-12.03,8.69-2.21,3.58-2.97,17.12-4.24,22.48-4.09,17.25-10.46,29.43-28.46,34.48-24.52,6.88-82.72,9.35-97.13-16.17-6.15-10.88-7.43-28.5-12.95-37.01-6.07-9.35-28.25-9.04-34.42.56-3.96,6.15-6.45,23.64-9.77,32.19-1.78,4.58-4.6,8.79-6.76,12.73-.42.76-.67,1.38-1,2-4.53,3.04-8.78,6.58-14.01,8.47-18.17,6.57-67.29,6.84-84.87-1-12.1-5.39-18.48-17.82-21.94-30.01-1.6-5.65-2.73-20.1-5.16-23.82-.61-.93-4.69-4.09-5.95-5.04-.76-.57-7.57-4.96-7.92-4.56-1.03,6.6,2.41,12.04,2.98,18.5.48,5.44-1.11,15.42,0,19.77.28,1.1,2.57.68,3.04,3.16.71,3.74-.61,9.19-.1,13.09.24,1.85,1.86,1.31,2.05,2.12.77,3.27-.68,8.51-.05,11.75.23,1.2,2.89-.1,3.13,1.09.54,2.64-1.41,10.04-1.04,10.41.32.32,3.12-.42,3.85,1.65.57,1.6-.26,7.03.11,7.38.36.34,3.67-.35,4.01-.01.6.59.15,17.77,2.98,15.99l2-1.99c-.16,1.77.43,11.33,1.01,11.99,1.53,1.73,3.8-5.34,5.98-3,1.72,1.85-6.57,16.96-2.98,20.97,4.03,2.96,2.82-11.25,2.98-12.5.18-1.38.55-2.93,1.99-1.48,1.44,1.46,3.62,16.08,3.02,18.98,1.26,1.66,1.82-.13,2-1.48.56-4.18-3.94-16.42,3-13.92l.99,16.4c1.22.38,2.28-.88,2.99-1,.57-3.61.02-8.75,4.99-7.99v15.99c4.84-.02,2.67-9.24,7.99-8.99l2.01,21.97c1.85-.47.73-4.02,1.44-6.04.23-.67,3.22-7.02,3.45-7.35.84-1.19,1.96-.45,3.08-.6.65.63-.89,15.75,3.99,16.99.09-2.15-.09-4.34.01-6.5.07-1.54-.94-3.95,1.48-3.48l3.5,8.98c0-1.17.52-5.52,1.02-5.99,1.94-1.8,2.15,4.04,3.98,2,.45-.5,1.81-9.04,3.81-12.68,7.24-13.2,9.04-11.68,21.1-16.87,2.88-1.24,7.36-7.19,8.56-2.43l6-4.99-1.01,5.98c2.04-1.35,10.15-12.56,11.4-7.4.24.98-2.42,2.81.59,2.41,2.05-2.61,6.46-8.98,9.88-8,.81.23.29,2.68,2.11,2,1.63-.61,2.8-4.6,6-4.04.54.09.44,2.22.99,2.06,1.66-.5,3.69-3,6.51-2l-.98,6.99c2.63-1.89,7.38-10.15,6.99-1,4.72-6.35,8.36-1.93,6.99,4.99,1.61.12,1.29-2.25,2.09-3.4,2.67-3.88,6.47.79,5.91,4.39,2.04-1.22.23-3.12,3.02-5.46,3.86-3.23,3.4-.83,5.95,1.46-.31-7.91,4.72-3.63,5-3.99.2-.26-.4-1.98.22-2.73.24-.29,5.46-2.38,6.23-2.32,3.54.26,3.86,5.38,7.04,6.06.52-1.15-2.22-6.91.99-5.99,3.54,1.02,5.13,5.88,8.03,7.97l.49-4.98c2.08-2.08,9.61,7.66,11.49,8.97-4.79-11.96,5.2-3.75,8.99,1.01l.49-4.49c.47-3.84,10.95,8.54,12.5,8.47.31-.78-2-7.19.97-5.97,1.84.67,7.17,8.61,7.72,8.78,1.08.34,2.11-.67,3.13-.51,4.14.66,15.47,17.38,14.68,21.08-.14.67-2.07.61-2.1,1.17-.14,2.51,5.32,12.71,6.04,7.77.45-3.07.91-6.23,1.02-9.33h2.99c.36.35-1.01,12.69,2,9,.42-6.47,2.94-12.6,1.01-18.98,2.91-.67,1.95,1.99,2.74,3.72,2.96,6.45,3.75-9.25,4.25-9.73,3.49-3.29,5.38,9.08,5.86,10.67.49,1.64-.8,2.82,2.12,2.32l-.99-15.98c3.69-1.04,1.51,4.48,3.98,4.99l-.98-10.98c4.01.13,4.22,5.73,4.98,8.54.44,1.62-1.07,2.94,2.01,2.45v-15.99c4.6.16,1.88,7.63,2.04,10.37.05.82.69,4.47,2.44,3.61,3.22-1.58.43-6.23.51-8.48.11-3.22,1.82-6.88,1.01-10.49l5.02,1.53c2.2-1.93,2.01-6.76,2.98-9.52l2,3.99c3.54-1.89,1.42-7.44,2.21-11.27.12-.59,2.82-8.06,3.07-8.44,2.42-3.72,6.23-15.13,7.88-20.57,1.51-4.96-.16-10.36.79-13.97.3-1.13,2.62-1.06,2.89-2.25.11-.51.88-8.34,1.05-10.02.4-4.1-.12-8.3.09-12.4,4.69-.63,1.58,9.44,5.98,8.98-.54-8.44-5.69-16.4-3.56-25.05ZM402.38,417.16c-.25,1.01-15.19,11.63-16.65,12.33-6.7,3.23-14.84,2.7-21.6-.04-4.19-1.7-10.1-7.42-14.3-7.79-4.04-.36-4.89,3.35-11.22,1.34-10.5-3.34-11.35-21.61-3.86-28,1.47-1.25,5.26-2.02,5.71.22.24,1.22-8.07,11.72-2.48,19.44,3.87,5.35,6.32,1.6,10.04,1.05,9.51-1.4,16.03,10.22,29.94,9.01,8.92-.78,12.79-9.22,19.42-10.62,1.93-.41,5.49,1.09,5,3.06ZM413.91,418.71c-2.54,2.06-7.55,5.13-8.53.47,6.35-3.8,9.33-9.23,7.76-16.77-.53-2.54-6.4-10.06-4.76-11.71,3.31-3.33,10.41,8.41,10.92,11.55,1.01,6.33-.3,12.35-5.39,16.47Z"/><path class="cls-1" d="M456.05,318.94c19.19-4.19,18.6,34.03.26,29.34-12.14-3.11-11.28-26.93-.26-29.34Z"/><path class="cls-1" d="M287.26,320.94c11.85-1.02,17.21,23.7,5.61,29.66-17.46,8.96-23.82-28.09-5.61-29.66Z"/><path class="cls-1" d="M314.48,473.63c7.25-.3,13.93,3.16,20.94,4.53,30.77,6.01,63.59,5.06,92.62-7.34,2.57-1.1,10.81-7.9,11.37-1.67.28,3.07-3.19,4.31-5.4,5.64-26.28,15.88-76.55,16.23-105.56,8.33-4.44-1.21-15.49-3.83-13.98-9.49Z"/><path class="cls-1" d="M404.37,517.58c-2.95,3.03-7.35-8.12-3.48-8.98,3.12-.69,4.32,8.12,3.48,8.98Z"/></g></svg>