<?xml version="1.0" encoding="UTF-8"?><svg id="Layer_2" xmlns="http://www.w3.org/2000/svg" viewBox="0 0 680.25 888.84"><defs><style>.cls-1{fill:#020202;}.cls-2{fill:#565656;}.cls-3{fill:#fefefe;}.cls-4{fill:#fdfdfd;}</style></defs><g id="OBJECTS"><path class="cls-4" d="M412.63,235.84c-2.75-.02-5.38.76-7.98,1.52-4.22,1.23-17.46,5.07-15.84,10.78s10.63-.24,14.3-1.33c5.12-1.51,16.93-4.84,21.79-3.76,3.14.7,15.37,9.07,19.68,11.3,8.6,4.46,17.84,9.35,26.62,13.33,9.52,4.32,19.85,7.23,28.89,12.14-1.2,42.29-6.35,87.36-20.5,127.43-22.37,63.31-95.85,135.37-168.37,111.41-50.71-16.75-89.96-60.49-108.1-109.68-17.68-47.94-18.71-80-10.91-130.36,10.06-64.97,40.8-121.52,93.06-161.68,17.11,40.58,52.17,79.18,91.36,99.46,12.12,6.27,25.97,9.6,36,19.43ZM209.88,253.83c8.11-.07,13.79-6.31,21.76-8.71,10.59-3.18,22.58-2.92,33.4-1.01,5.06.89,24.68,10.41,23.79,1.28-.58-5.94-19.48-9.83-24.53-10.53-13.96-1.91-30.05-1.41-42.75,5.16-4.9,2.54-12.82,7.44-11.66,13.81ZM431.3,277.13c-13.2-12.03-26.79,17.1-12.71,27.2,15.87,11.4,23.62-17.26,12.71-27.2ZM250.16,304.46c13.04,13.16,25.23-11.19,15.65-24.15-12.01-16.25-28.5,11.18-15.65,24.15ZM322.74,295.81c-.19,11.53-.45,23.46-3.97,34.5-4.23,13.26-16.08,25.16-2.05,37.96,9.44,8.61,27.16,11.4,37.91,3.91,2.35-1.64,11.77-11.64,6.45-13.34-4.42-1.42-3.82,2.55-5.39,4.41-12.33,14.62-43.7,6.45-39.51-13.55,2.1-10.01,9.38-18.68,10.52-31.43.16-1.75.74-27.83-3.97-22.46ZM403.63,408.72c-.8,4.39,5.48,8.94,6.92,4.35,1.81-5.76-12.42-19.79-15.89-16.34-1.95,1.94,3.13,6.17,2.93,7.36-.61,3.56-18.56,14.61-22.55,16.48-21.87,10.24-50.71,10.64-72.95,1.32-3.17-1.33-19.36-12.58-19.34-5.67.01,4.9,22.21,13.64,27.02,14.97,33.32,9.25,68.9,1.46,93.87-22.47ZM324.74,449.69c-2.35,2.3,4.09,5.2,5.71,5.76,8.83,3.08,19.09,2.83,27.61-.9,2.25-.99,8.45-4.39,7.62-7.35-1.14-4.05-10.26,2.47-12.71,3.25-4.82,1.55-10.67,1.66-15.74,1.22-2.38-.21-11.28-3.17-12.49-1.98Z"/><path class="cls-4" d="M307.74,656.52c-3.11,13.32,13.09,23.31,22.44,12.93,1.61-1.78.67-4.68,3.54-3.93-2.27,3.48,4.21,11.45,4,12.43-.18.84-9.91,5.65-12.5,11.53-9.48,21.51,11.28,41.67,32.52,31.53,18.18-8.68,16.22-36.79-3.03-42.52,1.96-4.42,5.87-8.08,5-13.97,2.8.11,3.82,2.9,6.29,4.19,5.32,2.78,10.91,2.07,15.23-2.15,4.88-4.77,2.1-9.38,4.37-12.61,1.48-2.1,16.35-11.65,20.06-14.9,17.87-15.65,32.24-35.58,41.45-57.47,18.94,13.8,42.02,20,63.08,29.8,2.06.96,15.21,6.94,15.38,7.78.23,1.11-.22,2.3-.62,3.33-1.76,4.51-11.11,17.56-14.41,22.56-34.57,52.38-94.11,110.32-145.92,145.79-2.24,1.53-18.37,11.42-19.49,11.58-1.37.19-2.14-.1-3.37-.55-2.77-1.03-13.94-9.29-17.34-11.64-53.48-37.01-114.36-93.11-147.3-149.4-3.02-5.17-10.69-17.91-12.04-22.96-.51-1.91.2-1.04,1.13-1.56,24.61-11.73,51.48-19.27,74.14-34.71,10.38,24.79,27.6,44.79,47.96,61.96-3.5,13.2,8.59,20.06,19.44,12.96Z"/><path class="cls-4" d="M499.53,356.75c1.01-12.9,3.57-25.61,4.98-38.47.92-8.37-.04-22.52,2.22-29.76.47-1.51,3.51-4.03,4.87-5.12,16.52-13.26,32.08-1.97,33.74,17.02,2.19,24.96-20.66,53.64-45.81,56.33ZM532.48,293.81c-13.31-1.92-24.4,19.48-24.06,30.48.1,3.13,3.28,4.88,5.03,3.44.92-.75,1.06-13.49,5.05-15.51,2.7-1.38,15.26,10.84,11.76.28-1.45-4.38-10.01-5.67-9.77-6.2,2.08-1.84,3.82-4.28,6.05-5.93,3.28-2.43,7.15-1.33,5.93-6.56Z"/><path class="cls-4" d="M342.45,681.75c28.5-4.92,30.79,35.88,5.61,37.66-23.5,1.66-28.24-33.75-5.61-37.66ZM348.7,696.48c2.14-2.07,2.21-7.58-.51-8.98-2.11-1.08-1.65,3.04-2.7,3.79-1.26.9-8.29.53-8.77,2.71-.8,3.66,5.43,1.71,6.98,1.49.65,3.93-6.57,1.64-5.98,5.99,8.35-1.37,3.34,3.04,5.51,7.98,2.57,5.85,13.19,3.2,13.49-4.46.23-5.8-5.62,2.81-6,3.02-5.12,2.78-4.43-7.15-4.03-7.53s4.94.92,5.99-1.51c1.68-3.89-3.19-1.94-3.99-2.5Z"/><path class="cls-3" d="M547.47,659.51c.58-3.91-.55-3.04-4-3l.99-4.98c-2.56-.83-3.47,3.94-4.49,3.97-.66.02-2.47-3.76-4.49-2.97l.99,4.98h-4s4,2.01,4,2.01l-1.99,5.99c2.69.99,2.88-3.96,4.49-3.97.95,0,4.13,7.21,6.49,4.97,1.23-1.17-4.08-6.04-2.99-6.98h4.99Z"/><path class="cls-2" d="M534.54,574.15c.75-1.06,1.5-3.93.93-4.56-.89-.98-8.09,5.87-15.38,2.89-1.96-.8-6.83-6.27-6.62-2.38.45,8.12,16.72,10.17,21.07,4.04Z"/><path class="cls-3" d="M535.99,750.46c-2.01.56-2.01,4.41,0,4.98,4.59,1.29,4.59-6.27,0-4.98Z"/><path class="cls-3" d="M537.47,841.37c2.08-2.9-4.73-2.8-4.99-3-.19-.14,1.49-2.85,1-3.98l-4.98,2.99-1.52-5.99c-3.17-.39-.69,6.09-1.49,6.98-1.59.43-4.76-3.27-5.98-1.99-1.99,2.08,2.64,3.34,1.99,3.97-.58.56-3.72.26-2.99,3.01h5.98c.94,1.85-2.85,6.18-1.99,6.99,2.5,2.36,5.02-4.59,5-5.99l5.98,3.99-2.99-5.98c1.24.2,6.63-.52,6.99-1.02Z"/><path class="cls-2" d="M320.67,44.43c-4.12.97-11.88,6.64-10.91,11.55,3.16-.41,4.51-3.56,7.28-5.2,6.73-3.98,10.45-1.96,17.68-1.8.74-6.09-9.98-5.51-14.05-4.56Z"/><path class="cls-2" d="M308.89,68.62c-2.42,4.2-1.31,6,2.91,2.91,3.15-2.3,3.76-4.49,8.68-5.3,3.02-.5,12.71,1.25,13.24.75.92-.87-.21-2.93-1.68-3.8-6.45-3.82-19.35-1.13-23.15,5.44Z"/><path class="cls-2" d="M306.93,38.74c-.54,2.14,1.54,4.17,2.8,3.26.14-.1.23-1.95,1.47-3,1.89-1.6,5.92-4.08,8.26-4.76,1.69-.5,7.95.58,7.26-2.71-.99-4.7-18.01.12-19.79,7.21Z"/><path class="cls-3" d="M192.2,278.63c-7.8,50.36-6.76,82.42,10.91,130.36,18.14,49.19,57.39,92.93,108.1,109.68,72.52,23.96,146-48.1,168.37-111.41,14.16-40.07,19.3-85.14,20.5-127.43-9.04-4.91-19.37-7.83-28.89-12.14-8.78-3.98-18.02-8.87-26.62-13.33-4.31-2.23-16.54-10.61-19.68-11.3-4.86-1.08-16.68,2.25-21.79,3.76-3.67,1.09-12.62,7.28-14.3,1.33-1.62-5.71,11.62-9.55,15.84-10.78,2.6-.76,5.24-1.54,7.98-1.52-10.03-9.82-23.88-13.16-36-19.43-39.19-20.29-74.25-58.89-91.36-99.46-52.26,40.16-83,96.71-93.06,161.68Z"/><path class="cls-2" d="M577.42,591.09c-3.02-3.97-4.62.89-7.5,1.46-3.89.78-7.66-.95-11.47-.98.73,9.34,16.42,7.53,18.97-.49Z"/><path class="cls-3" d="M504.51,318.28c-1.41,12.86-3.97,25.57-4.98,38.47,25.15-2.7,48-31.37,45.81-56.33-1.66-18.99-17.22-30.28-33.74-17.02-1.36,1.09-4.4,3.62-4.87,5.12-2.25,7.24-1.3,21.38-2.22,29.76Z"/><path class="cls-2" d="M570.44,571.11c-.68-3.45-4.88.6-5.99.98-6.74,2.33-7.43.53-13.99-.5-.19,10.81,21.38,6.63,19.97-.48Z"/><path class="cls-2" d="M554.12,542.76c-1.51.41-2.96,3.28-4.91,4.09-9.1,3.77-11.16-5.14-17.18-4.27-3.88.56-3.64,7.41-11.02,7.1-6.13-.26-6.65-7.16-12.96-6.07-3.13.54-6.18,6.71-11.11,6.99-4.82.27-7.31-4.91-11.4-5.98.89,12.21,13.54,12.46,21.62,5.62.69-.59,1.14-2.45,1.86-2.63,2.02-.5,8.15,10.88,17.84,5.87,2.25-1.17,4.86-5.91,7.12-5.9,2.45.01,5.56,6.21,13.91,4.97,7.89-1.17,12.76-11.57,6.23-9.78Z"/><path class="cls-2" d="M538.44,225.47c-2.64-.86-4.14-4.79-7.95-3.61-.78,6.42-.4,16.67-9.76,12.26-.55-.26-6.77-8.38-7.23-4.75-.82,6.47,12.07,15.71,18.44,6.45,1.25-1.81,2.26-6.74,2.56-6.96.74-.56,8.68,4.37,12.83-2.63.89-1.5.98-4.2,1.14-4.35,1.19-1.09,7.64,4.37,12.66-.32,2.9-2.7,5.71-15.51-.18-13.67-2.85.89-.03,8.79-3.76,10.33-5.93,2.44-7.07-5.51-12.72-4.35.61,4.08-.14,13.53-6.03,11.6Z"/><path class="cls-2" d="M514.23,530.85c2.7-.89,6.33-5.2,6.76-5.2.39,0,3.84,3.8,6.46,4.5,7.67,2.03,18.53-1.2,18-10.51-3.91-.56-5.8,4.34-9.03,5.44-9.65,3.3-12-5.19-16.29-5.24-3.7-.04-6.2,12.46-16.96,5.62-1.78-1.13-4.09-4.41-5.36-4.72-4.1-1-9.22,11.13-17.67,5.78-.66-.42-6.93-9.65-6.63-4.37.25,4.44,3.44,8.1,7.48,9.52,9.77,3.42,13.13-5.09,16.03-5.08,3.18.01,6.3,7.86,17.21,4.27Z"/><path class="cls-3" d="M312.23,148.93c-1.75-2-8.96-12.39-9.65-12.78-.87-.5-1.89-.16-2.82-.21,17.16,29.01,42.85,54.78,71.9,71.93.38-1.78-.91-2.45-1.97-3.51-4.69-4.72-11.87-9.32-17.01-13.96-13.94-12.59-28.06-27.31-40.45-41.47Z"/><path class="cls-3" d="M115.86,858.23c20.22-71.99,18.64-148.18,8.11-221.7-1.45-1.51-20.11,10.97-22.69,12.77-54.59,38.07-82.08,103.76-92.85,167.91-.48,2.87-2.47,9.88-.31,11.68,2.11,1.76,20.15,7.45,24.2,8.75,22.05,7.11,55.96,17,78.43,20.45,1.69.26,3.42.61,5.1.13Z"/><path class="cls-2" d="M431.62,139.41c1.78.91,3.64,11.86,6.97,8.5.85-.86-1.2-8.02-1.95-9.53-3.85-7.8-8.05-2.97-14.5-3.42-2.24-.16-7.74-3.37-8.51-.52-1.92,7.18,15.94,3.92,17.99,4.97Z"/><path class="cls-2" d="M465.57,93.96c9.28,3.04,14.48-4.21,10.98-12.99,2.59.29,7.94-.35,9.72-2.26,5.43-5.8-5.37-21.04-8.72-17.73-.55,5.88,6.44,8.63,4.99,14.98-3.79,2.18-10.72-3.48-12.44-2.99-5.46,1.54,5.38,11.1,2.01,16.04-2.9,4.26-15.07-7.94-14.4-.73.35,3.7,8.77,13.73-3.63,13.75-2.58,0-10.39-3.92-9.49.4,1.59,7.61,25.68,5.23,20.98-8.48Z"/><path class="cls-2" d="M175.95,127.4c-6.53-5.64,3.33-16.09,1.96-17.44-2.54-2.5-7.51,6.01-7.92,8.55-2.08,13.14,6.38,16.84,17.9,13.42.19,10.3,7.89,14.49,16.98,10-.52,9.37,4.77,15.42,14.43,13.92,2.19-.34,8.87-3.58,6.55-5.92-1.89-1.91-10.6,5.2-15.02-1.46-3.12-4.7-.99-7.24-.35-11.51,1.23-8.15-10.12,4.74-15.61,1.49-4.7-2.79.76-14.81-2.51-15.5-4.92,2.22-10.96,9.18-16.42,4.46Z"/><path class="cls-2" d="M399.9,159.15c-5.85-2.37-5.77-9.84-6.26-10.23-.39-.32-2.31-.01-3.02.47-3,2.05,2.58,10.94,5.29,12.75,8.61,5.74,13.82-.43,18.04.87,2.07.64,2.34,4.61,3.66,6.4,4.59,6.22,12.73,9.66,20.43,8.42,3.59-.58,7.33-4.12,1.77-4.71-4.71-.51-9.05.99-14.12-1.8-5.5-3.03-7.1-13.58-10.71-14.25-2.38-.44-7.8,5.03-15.08,2.08Z"/><path class="cls-2" d="M549.49,253.43c3.45-1.03,5.23-6.11,6.55-6.42.92-.22,3.82,1.03,5.89.91,7.38-.43,9.71-9.5,4.18-7.92-1.13.32-1.81,1.95-2.69,2.32-4.77,2.03-7.56-1.67-9.33-1.34-2.77.51-2.81,6.28-4.61,7.39-4.09,2.51-8.02-2.82-9.49-2.53-5.24,1.04,2.52,9.67,9.49,7.59Z"/><path class="cls-3" d="M568.94,642.52c-9.08,48-12.12,97.62-7.49,146.39.78,8.2,1.79,16.71,3.15,24.83,2.24,13.41,6.83,26.28,8.83,39.63,2.1,2.15,46.28-11.82,52.45-13.97,5.55-1.93,44.64-16.87,45.94-18.99.47-.77.61-1.6.58-2.49-12.68-68.73-40.44-138.74-103.46-175.39Z"/><path class="cls-3" d="M484.04,750.47c1.11,0,.84,4.08,3.49,2.97l-.99-4.98h6s0-3,0-3h-5s2.99-5,2.99-5l-4.98,1.99-.02-4.99c-3.85-1.03-1.13,4.77-2,5.99l-5.98-2.99,2.99,4.98c-1.84.55-4.72.27-3.99,3l4.99.02-1.99,5.98c2.54.83,3.48-3.97,4.49-3.97Z"/><path class="cls-3" d="M460.08,824.4c-2.65.79-2.02,7.18,1.98,5.98,2.65-.79,2.02-7.18-1.98-5.98Z"/><path class="cls-3" d="M393.64,861.85c-2.82-3.74-3.49-2.08-2-7.47-3.16-.65-2.9,3.4-4.98,3.99l-.02-4.99c-3.85-1.03-1.13,4.78-2,5.99l-4.98-1.99,2.99,4.98c-3.45-.04-4.59-.9-3.99,3l4.97-.51c-4.43,6.98-.17,9.94,2.03,1.51,1.58-1.13,4.7,4.36,5.97,2.99,1.56-1.68-3.4-5.68-2.99-5.98l4.99-1.52Z"/><path class="cls-3" d="M405.24,788.51c-3.84,1.23-.89,8.51,3.45,5.46,2.45-1.72.87-6.84-3.45-5.46Z"/><path class="cls-3" d="M384.94,649.38c15.75-10.93,30.25-23.92,41.49-39.51,3.25-4.5,18.37-28.31,16.7-32.26-.46-1.09-3.4-3.12-4.5-4.55-17.12-22.25-17.97-47.21-17.01-74.41l-21.66,14.79c-31.84,20.04-72.8,22.04-106.39,4.9l-27.75-15.69c2.64,24.33-.53,50.69-16.02,70.41-1.36,1.73-4.82,4.15-5.52,5.55-.95,1.92,8.27,17.92,10.12,20.88,4.36,6.97,10.44,14.92,15.89,21.08,2.92,3.3,16.53,17.35,19.56,18.49,2.95,1.11,3.59-.97,5.65-1.29,10.5-1.63,16.3,5.6,13.75,15.75,8.26-11.64,25.42-4.9,23.49,9.01,2.38.55,1.61-.4,2.22-1.3,5.22-7.7,8.84-9.62,18.11-5.55l6.62,5.85c-1.5-11.75,7.12-20.59,18.69-15.19,2.29,1.07,3.48,4.19,6.56,3.06Z"/><path class="cls-2" d="M175.19,153.64c-2.43-1.95-1.95-8.4-2.27-8.73-.12-.13-2.37-.37-3.08.59-2.32,3.15.12,9.71,3.1,11.88,3.78,2.76,10.9.78,11.86,1.63.72.64.71,6.79,6.05,8.43,3.65,1.12,16.65.21,11.45-3.64-4.05-3-15.52,2.89-13.4-10.91-4.45-.78-9.57,4.06-13.71.73Z"/><path class="cls-3" d="M297.48,640.71c-8.4,1.33-8.52,17.28,3.56,14.61,8.2-1.81,5.17-15.99-3.56-14.61Z"/><path class="cls-3" d="M164.93,680.51l3.99,3-1.99,2.98c5.14-.61,4.06.41,4,5.01h2.99s.01-5,.01-5c8.43,5.14,3.29-.4,3.3-1.5,0-1.01,2.36-1.77,1.69-3.49-4.53.41-2.69-.48-2-3.99l-3.5,1.99-.5-3c-3.71-1.02-1.24,4.09-2,5l-5.98-.99Z"/><path class="cls-3" d="M317.46,651.74c-7.64,1.72-7.84,15.07-.77,17.32,15.84,5.05,17.18-21.01.77-17.32Z"/><path class="cls-3" d="M342.45,681.75c-22.63,3.91-17.89,39.32,5.61,37.66,25.18-1.78,22.89-42.58-5.61-37.66Z"/><path class="cls-3" d="M159.93,812.41l2.99,3.98c-7.6.77-6.74,3.95,1,3.02-2.95,8.9,1.88,7.44,3.01,0,7.87,6.8,10.51,3.16,1.99-2.5l3.99-3.49c-6.76,1.82-2.85.2-3-5l-3.49,2.99-.5-3c-3.61-.21-1.05,5.04-5.99,4.01Z"/><path class="cls-3" d="M371.33,647.82c-11.95.62-9.6,23.55,4.09,17.93,9.83-4.03,5.85-18.45-4.09-17.93Z"/><path class="cls-3" d="M344.33,656.8c-9.1,1.05-10.24,21.85,4.66,18.5,11.14-2.51,6.65-19.81-4.66-18.5Z"/><path class="cls-3" d="M345.12,802.43c1.12-.15,17.25-10.04,19.49-11.58,51.8-35.47,111.35-93.41,145.92-145.79,3.3-5,12.65-18.05,14.41-22.56.4-1.04.86-2.22.62-3.33-.18-.84-13.33-6.83-15.38-7.78-21.06-9.81-44.14-16-63.08-29.8-9.21,21.89-23.58,41.81-41.45,57.47-3.71,3.25-18.58,12.8-20.06,14.9-2.27,3.23.51,7.84-4.37,12.61-4.32,4.22-9.91,4.93-15.23,2.15-2.47-1.29-3.49-4.08-6.29-4.19.87,5.89-3.03,9.55-5,13.97,19.25,5.73,21.21,33.84,3.03,42.52-21.23,10.14-42-10.01-32.52-31.53,2.59-5.89,12.32-10.69,12.5-11.53.21-.98-6.27-8.95-4-12.43-2.87-.75-1.93,2.15-3.54,3.93-9.34,10.38-25.54.39-22.44-12.93-10.85,7.1-22.94.24-19.44-12.96-20.36-17.17-37.58-37.17-47.96-61.96-22.66,15.44-49.54,22.98-74.14,34.71-.93.52-1.64-.35-1.13,1.56,1.36,5.04,9.02,17.79,12.04,22.96,32.94,56.29,93.83,112.39,147.3,149.4,3.4,2.35,14.57,10.62,17.34,11.64,1.22.45,1.99.74,3.37.55Z"/><path class="cls-3" d="M232.24,859.28c2.96-.98,2.44-8.55-2.79-6.82-2.96.98-2.44,8.55,2.79,6.82Z"/><path class="cls-2" d="M114.03,576.04c8.23,5.74,14.02-.58,19.44-6.44,4.16,4.67,8.78,7.56,15.06,5.05,1.93-.77,9.28-7.26,7.41-9.06-2.05-1.97-6.18,2.9-7.65,3.82-10.05,6.31-10.29-5.79-15.83-5.91-1.98-.04-3.88,6.76-6.46,7.6-8.52,6.4-8.38.34-12.99-2.04-4.21-2.17-3.06,4.12,1.02,6.97Z"/><path class="cls-3" d="M311.24,835.38c3.08-.63,3.52-7.33-.97-5.98-2.53.76-1.9,6.57.97,5.98Z"/><path class="cls-3" d="M239.85,767.45l-.5-3.01c-4.51,1.44-2.88,4.98-3.51,5.99-.16.26-4.38-1.94-5.98-.99-.76,3.01,3.32,2.26,4.99,3l-2.99,5.98,4.49-2.99.5,4,2-4.01c1.84-.92,6.16,2.85,6.98,2,2.83-2.95-4.75-4.7-4.99-5.01-.73-.97,5.71-8.22-.99-4.97Z"/><path class="cls-2" d="M119.72,543.4c6.46.62,10.1-6.41,11.88-6.72,1.85-.32,7.11,8.2,15.72,3.8,2.3-1.17,6.63-6.74,4.62-8.86-1.84-1.94-5.81,3.92-7,4.47-7.57,3.49-10.25-7.65-14.33-6.41-2.42.73-3.52,9.06-10.14,9.01-4.49-.03-5.05-5.66-6.98-6.07-5.23-1.11-.99,10.09,6.24,10.78Z"/><path class="cls-3" d="M158.02,742.03c2.35-3.06.6-6.56-3.37-5.41-5.55,1.6-.3,10.18,3.37,5.41Z"/><path class="cls-2" d="M114.55,600.51c4.08.64,8.49-.51,11.47-3.4,1.81-1.75,3.84-5.49-.51-4.51-4.32.98-7.99,6.64-13.53,2.45-1.26-.95-1.91-3.08-2.19-3.25-5.28-3.12-2.52,7.57,4.75,8.71Z"/><path class="cls-4" d="M302.58,136.15c.7.4,7.9,10.78,9.65,12.78,12.39,14.16,26.51,28.88,40.45,41.47,5.13,4.64,12.32,9.24,17.01,13.96,1.06,1.06,2.35,1.73,1.97,3.51-29.05-17.16-54.74-42.93-71.9-71.93.93.06,1.95-.28,2.82.21Z"/><path class="cls-4" d="M344.33,656.8c11.31-1.31,15.8,16,4.66,18.5-14.9,3.35-13.76-17.45-4.66-18.5Z"/><path class="cls-4" d="M317.46,651.74c16.4-3.68,15.07,22.37-.77,17.32-7.07-2.25-6.87-15.61.77-17.32Z"/><path class="cls-4" d="M371.33,647.82c9.94-.52,13.92,13.9,4.09,17.93-13.69,5.62-16.04-17.31-4.09-17.93Z"/><path class="cls-4" d="M297.48,640.71c8.73-1.38,11.76,12.8,3.56,14.61-12.08,2.67-11.96-13.29-3.56-14.61Z"/><path class="cls-4" d="M528.49,837.38l4.98-2.99c.49,1.13-1.19,3.84-1,3.98.26.2,7.08.1,4.99,3-.36.5-5.74,1.22-6.99,1.02l2.99,5.98-5.98-3.99c.02,1.4-2.5,8.35-5,5.99-.86-.81,2.93-5.15,1.99-6.98h-5.98c-.74-2.76,2.41-2.46,2.99-3.02.65-.63-3.98-1.89-1.99-3.97,1.22-1.28,4.39,2.42,5.98,1.99.8-.89-1.68-7.37,1.49-6.98l1.52,5.99Z"/><path class="cls-4" d="M386.65,853.37l.02,4.99c2.08-.58,1.82-4.64,4.98-3.99-1.49,5.4-.82,3.74,2,7.47l-4.99,1.52c-.41.3,4.56,4.3,2.99,5.98-1.28,1.37-4.39-4.12-5.97-2.99-2.21,8.43-6.46,5.46-2.03-1.51l-4.97.51c-.6-3.9.54-3.04,3.99-3l-2.99-4.98,4.98,1.99c.87-1.21-1.85-7.02,2-5.99Z"/><path class="cls-4" d="M165.93,808.39l.5,3,3.49-2.99c.15,5.2-3.76,6.82,3,5l-3.99,3.49c8.52,5.66,5.88,9.31-1.99,2.5-1.13,7.45-5.96,8.91-3.01,0-7.74.94-8.6-2.25-1-3.02l-2.99-3.98c4.94,1.03,2.38-4.22,5.99-4.01Z"/><path class="cls-4" d="M485.53,737.46l.02,4.99,4.98-1.99-2.99,4.98h5s0,3,0,3h-6s.99,5,.99,5c-2.65,1.1-2.38-2.98-3.49-2.97-1.01,0-1.95,4.81-4.49,3.97l1.99-5.98-4.99-.02c-.73-2.74,2.15-2.46,3.99-3l-2.99-4.98,5.98,2.99c.87-1.22-1.85-7.02,2-5.99Z"/><path class="cls-4" d="M544.46,651.53l-.99,4.98c3.45-.04,4.58-.91,4,3h-4.99c-1.09.95,4.22,5.82,2.99,6.99-2.36,2.24-5.54-4.98-6.49-4.97-1.61.02-1.8,4.97-4.49,3.97l1.99-5.99-4-2h4s-.99-5-.99-5c2.02-.79,3.83,3,4.49,2.97,1.02-.03,1.93-4.8,4.49-3.97Z"/><path class="cls-4" d="M239.85,767.45c6.7-3.26.26,4,.99,4.97.23.31,7.81,2.06,4.99,5.01-.82.85-5.14-2.92-6.98-2l-2,4.01-.5-4-4.49,2.99,2.99-5.98c-1.67-.75-5.75,0-4.99-3,1.6-.95,5.82,1.25,5.98.99.63-1.01-1-4.55,3.51-5.99l.5,3.01Z"/><path class="cls-4" d="M172.92,676.5l.5,3,3.5-1.99c-.69,3.52-2.52,4.41,2,3.99.67,1.72-1.69,2.49-1.69,3.49,0,1.1,5.14,6.64-3.3,1.5v5s-3,0-3,0c.06-4.6,1.14-5.62-4-5.01l2-2.98-3.99-3,5.98.99c.76-.91-1.71-6.02,2-5Z"/><path class="cls-4" d="M154.65,736.62c3.97-1.15,5.72,2.36,3.37,5.41-3.67,4.77-8.92-3.81-3.37-5.41Z"/><path class="cls-4" d="M229.46,852.46c5.23-1.73,5.75,5.84,2.79,6.82-5.23,1.73-5.75-5.84-2.79-6.82Z"/><path class="cls-4" d="M405.24,788.51c4.32-1.38,5.9,3.74,3.45,5.46-4.34,3.04-7.29-4.24-3.45-5.46Z"/><path class="cls-4" d="M460.08,824.4c4-1.2,4.63,5.18,1.98,5.98-4,1.2-4.63-5.18-1.98-5.98Z"/><path class="cls-4" d="M310.27,829.4c4.49-1.35,4.05,5.35.97,5.98-2.87.59-3.5-5.21-.97-5.98Z"/><path class="cls-4" d="M535.99,750.46c4.59-1.29,4.59,6.27,0,4.98-2.01-.56-2.01-4.41,0-4.98Z"/><path class="cls-4" d="M421.61,498.65c-.96,27.19-.11,52.16,17.01,74.41,1.1,1.43,4.04,3.47,4.5,4.55,1.67,3.95-13.45,27.76-16.7,32.26-11.24,15.59-25.74,28.57-41.49,39.51-3.08,1.14-4.27-1.99-6.56-3.06-11.57-5.4-20.18,3.44-18.69,15.19l-6.62-5.85c-9.27-4.07-12.89-2.15-18.11,5.55-.61.9.16,1.85-2.22,1.3,1.94-13.91-15.23-20.65-23.49-9.01,2.55-10.15-3.25-17.38-13.75-15.75-2.05.32-2.7,2.4-5.65,1.29s-16.64-15.19-19.56-18.49c-5.45-6.16-11.53-14.1-15.89-21.08-1.85-2.96-11.07-18.96-10.12-20.88.69-1.4,4.16-3.82,5.52-5.55,15.49-19.72,18.65-46.08,16.02-70.41l27.75,15.69c33.59,17.14,74.55,15.14,106.39-4.9l21.66-14.79Z"/><path class="cls-1" d="M403.63,408.72c-24.97,23.94-60.55,31.73-93.87,22.47-4.8-1.33-27.01-10.07-27.02-14.97-.02-6.91,16.17,4.34,19.34,5.67,22.24,9.32,51.08,8.92,72.95-1.32,4-1.87,21.94-12.91,22.55-16.48.2-1.19-4.88-5.42-2.93-7.36,3.47-3.45,17.7,10.58,15.89,16.34-1.44,4.59-7.72.04-6.92-4.35Z"/><path class="cls-1" d="M209.88,253.83c-1.15-6.36,6.76-11.27,11.66-13.81,12.7-6.58,28.79-7.07,42.75-5.16,5.05.69,23.95,4.59,24.53,10.53.89,9.13-18.73-.39-23.79-1.28-10.83-1.91-22.82-2.17-33.4,1.01-7.96,2.4-13.65,8.64-21.76,8.71Z"/><path class="cls-1" d="M322.74,295.81c4.71-5.37,4.13,20.72,3.97,22.46-1.14,12.75-8.43,21.42-10.52,31.43-4.19,20,27.18,28.18,39.51,13.55,1.57-1.86.97-5.83,5.39-4.41,5.31,1.71-4.1,11.7-6.45,13.34-10.75,7.49-28.47,4.7-37.91-3.91-14.03-12.8-2.17-24.7,2.05-37.96,3.52-11.04,3.77-22.97,3.97-34.5Z"/><path class="cls-1" d="M431.3,277.13c10.91,9.94,3.16,38.6-12.71,27.2-14.08-10.11-.49-39.23,12.71-27.2Z"/><path class="cls-1" d="M250.16,304.46c-12.85-12.97,3.64-40.39,15.65-24.15,9.58,12.96-2.61,37.31-15.65,24.15Z"/><path class="cls-1" d="M324.74,449.69c1.21-1.18,10.11,1.78,12.49,1.98,5.08.45,10.92.33,15.74-1.22,2.45-.79,11.57-7.31,12.71-3.25.83,2.96-5.37,6.36-7.62,7.35-8.52,3.73-18.78,3.98-27.61.9-1.63-.57-8.06-3.46-5.71-5.76Z"/><path class="cls-1" d="M532.48,293.81c1.21,5.23-2.66,4.13-5.93,6.56-2.23,1.65-3.97,4.09-6.05,5.93-.24.54,8.32,1.82,9.77,6.2,3.5,10.56-9.06-1.66-11.76-.28-3.99,2.03-4.13,14.76-5.05,15.51-1.75,1.44-4.93-.31-5.03-3.44-.34-11,10.75-32.4,24.06-30.48Z"/><path class="cls-1" d="M348.7,696.48c.8.56,5.67-1.39,3.99,2.5-1.05,2.43-5.59,1.14-5.99,1.51s-1.09,10.31,4.03,7.53c.38-.21,6.22-8.82,6-3.02-.3,7.66-10.92,10.31-13.49,4.46-2.17-4.93,2.84-9.35-5.51-7.98-.59-4.35,6.63-2.06,5.98-5.99-1.55.22-7.78,2.17-6.98-1.49.48-2.18,7.51-1.81,8.77-2.71,1.04-.75.59-4.87,2.7-3.79,2.72,1.4,2.65,6.9.51,8.98Z"/><path class="cls-1" d="M609.38,599.55c.28.4,4.58,1.26,6.56,4.94,2.89,5.38-.07,7.44.59,10.36.35,1.56,3.21,2.81,3.78,6.25,1,6.09-2.96,11.11-2.84,11.8.21,1.18,3.72,3.2,4.46,5.58.87,2.81.83,8.25-.1,11-.67,1.97-4.56,4.8-4.32,6.36.26,1.69,5.26,7.18,5.8,12.28.45,4.26-2.26,8.7-1.78,10.67.35,1.46,7.97,9.94,9.65,12.39,18.33,26.72,30.07,55.89,38.85,87.03,2.89,10.24,9.64,32.25,10.2,41.84.1,1.71-.06,4.39-1.61,5.41-61.91,28.66-128.42,42.86-195.75,52.72-139.29,20.4-284.12,11.22-420.03-25.1-8.01-2.14-59.8-16.66-62.22-20.68-1.01-1.68-.51-4.45-.35-6.39.89-11.23,5.09-27.81,7.93-39.03,11.13-43.9,29.71-87.55,61.78-120.11-4.85-6.11-7.42-10.16-5.49-18.42.72-3.09,4.46-6.51,4.52-8.41.07-2.22-3.51-6.25-3.97-9.98-1.17-9.41,3.87-12.7,3.98-16,.09-2.66-3.65-6.16-2.95-13.01.78-7.71,7.82-11.23,7.89-11.97.1-1.13-4.31-6.64-2.68-13.8.98-4.3,6.73-7.84,6.85-8.38,1.02-4.74-6.13-7.81-.28-18.02,1.09-1.91,4.94-5.03,5.09-5.92.17-1.02-2.06-3.52-2.48-5.3-1.91-8.04,5.18-11.88,5.31-13.53.06-.71-2.15-4.35-2.48-6.25-1.63-9.31,3.56-9.74,4.61-14.99.64-3.18-2.46-5.92-1.8-10.67.52-3.81,4.66-7.13,4.84-8.22.09-.55-2.62-5.86-1.82-10.79.52-3.19,3.44-5.67,3.72-7.23.37-2.09-4.68-7.14-2.35-14.37.69-2.12,3.38-3.37,3.59-5.48.26-2.63-3.17-6.8-2.82-10.72.39-4.32,4.02-9.15,7.75-11.22-6.08-5.72-7.39-11.19-3.87-18.88,3.16-6.91,5.12-6.55,5.87-16.11,2.04-25.85-.1-54.77.97-80.97,3-73.72,18.75-151.71,62.15-212.61,20.87-29.29,57.49-64.29,95.21-67.62,4.99-.44,13.63,1,17.76-.22,1.76-.52,3.9-3.88,5.78-5.21,45.68-32.22,112.36-26.47,161.39-4.75,76.33,33.8,113.86,101.89,133.88,179.82,22.85,88.96,10.84,182.93,8.23,273.56.71,5.17,7.68,6.64,6.97,15.79-.17,2.16-1.96,5.22-1.67,6.99.34,2.04,4.26,5.01,4.68,9.26.39,4.01-2.02,6.69-1.91,8.92.1,2.02,3.32,3.56,3.89,7s-1.19,9.16-.78,10.74,2.99,2.89,3.45,6.68c.92,7.62-1.55,3.39,2.81,11.08,3.79,6.68-1.09,10.02-.27,13.21.6,2.33,5.16,3.68,5.78,9.31.45,4.13-1.97,7.95-1.69,9.71.24,1.51,3.27,4.1,3.97,5.94,2.92,7.61-2.63,13.1-2.22,13.7ZM309.73,42c.14-.1.23-1.95,1.47-3,1.89-1.6,5.92-4.08,8.26-4.76,1.69-.5,7.95.58,7.26-2.71-.99-4.7-18.01.12-19.79,7.21-.54,2.14,1.54,4.17,2.8,3.26ZM334.72,48.99c.74-6.09-9.98-5.51-14.05-4.56s-11.88,6.64-10.91,11.55c3.16-.41,4.51-3.56,7.28-5.2,6.73-3.98,10.45-1.96,17.68-1.8ZM333.72,66.98c.92-.87-.21-2.93-1.68-3.8-6.45-3.82-19.35-1.13-23.15,5.44-2.42,4.2-1.31,6,2.91,2.91,3.15-2.3,3.76-4.49,8.68-5.3,3.02-.5,12.71,1.25,13.24.75ZM486.27,78.72c5.43-5.8-5.37-21.04-8.72-17.73-.55,5.88,6.44,8.63,4.99,14.98-3.79,2.18-10.72-3.48-12.44-2.99-5.46,1.54,5.37,11.1,2.01,16.04-2.9,4.26-15.07-7.94-14.4-.73.35,3.7,8.77,13.73-3.63,13.75-2.58,0-10.39-3.92-9.49.4,1.59,7.61,25.68,5.23,20.98-8.48,9.28,3.04,14.48-4.21,10.98-12.99,2.59.29,7.94-.35,9.72-2.26ZM177.91,109.95c-2.54-2.5-7.51,6.01-7.92,8.55-2.08,13.14,6.38,16.84,17.9,13.42.19,10.3,7.89,14.49,16.98,10-.52,9.37,4.77,15.42,14.43,13.92,2.19-.34,8.87-3.58,6.55-5.92-1.89-1.91-10.6,5.2-15.02-1.46-3.12-4.7-.99-7.24-.35-11.51,1.23-8.15-10.12,4.74-15.61,1.49-4.7-2.79.76-14.81-2.51-15.5-4.92,2.22-10.97,9.18-16.42,4.46-6.53-5.64,3.33-16.09,1.96-17.44ZM412.63,235.84c-10.03-9.82-23.88-13.16-36-19.43-39.19-20.29-74.25-58.89-91.36-99.46-52.26,40.16-83,96.71-93.06,161.68-7.8,50.36-6.76,82.42,10.91,130.36,18.14,49.19,57.39,92.93,108.1,109.68,72.52,23.96,146-48.1,168.37-111.41,14.16-40.07,19.3-85.14,20.5-127.43-9.04-4.91-19.37-7.83-28.89-12.14-8.78-3.98-18.02-8.87-26.62-13.33-4.31-2.23-16.54-10.61-19.68-11.3-4.86-1.08-16.68,2.25-21.79,3.76-3.67,1.09-12.62,7.28-14.3,1.33s11.62-9.55,15.84-10.78c2.6-.76,5.24-1.54,7.98-1.52ZM438.59,147.91c.85-.86-1.2-8.02-1.95-9.53-3.85-7.8-8.05-2.97-14.5-3.42-2.24-.16-7.74-3.37-8.51-.52-1.92,7.18,15.94,3.92,17.99,4.97,1.78.91,3.64,11.86,6.97,8.5ZM302.58,136.15c-.87-.5-1.89-.16-2.82-.21,17.16,29.01,42.85,54.78,71.9,71.93.38-1.78-.91-2.45-1.97-3.51-4.69-4.72-11.87-9.32-17.01-13.96-13.94-12.59-28.06-27.31-40.45-41.47-1.75-2-8.96-12.39-9.65-12.78ZM172.92,144.91c-.12-.13-2.37-.37-3.08.59-2.32,3.15.12,9.71,3.1,11.88,3.78,2.76,10.9.78,11.86,1.63.72.64.71,6.79,6.05,8.43,3.65,1.12,16.65.21,11.45-3.64-4.05-3-15.52,2.89-13.4-10.91-4.45-.78-9.57,4.06-13.71.73-2.43-1.95-1.95-8.4-2.27-8.73ZM393.64,148.92c-.39-.32-2.31-.01-3.02.47-3,2.05,2.58,10.94,5.29,12.75,8.61,5.74,13.82-.43,18.04.87,2.07.64,2.34,4.61,3.66,6.4,4.59,6.22,12.73,9.66,20.43,8.42,3.59-.58,7.33-4.12,1.77-4.71-4.71-.51-9.05.99-14.12-1.8-5.5-3.03-7.1-13.58-10.71-14.25-2.38-.44-7.8,5.03-15.08,2.08-5.85-2.37-5.77-9.84-6.26-10.23ZM561.14,221.55c2.9-2.7,5.71-15.51-.18-13.67-2.85.89-.03,8.79-3.76,10.33-5.93,2.44-7.07-5.51-12.72-4.35.61,4.08-.14,13.53-6.03,11.6-2.64-.86-4.14-4.79-7.95-3.61-.78,6.42-.4,16.67-9.76,12.26-.55-.26-6.77-8.38-7.23-4.75-.82,6.47,12.07,15.71,18.44,6.45,1.25-1.81,2.26-6.74,2.56-6.96.74-.56,8.68,4.37,12.83-2.63.89-1.5.98-4.2,1.14-4.35,1.19-1.09,7.64,4.37,12.66-.32ZM566.1,240c-1.13.32-1.81,1.95-2.69,2.32-4.77,2.03-7.56-1.67-9.33-1.34-2.77.51-2.81,6.28-4.61,7.39-4.09,2.51-8.02-2.82-9.49-2.53-5.24,1.04,2.52,9.67,9.49,7.59,3.45-1.03,5.23-6.11,6.55-6.42.92-.22,3.82,1.03,5.89.91,7.38-.43,9.71-9.5,4.18-7.92ZM499.53,356.75c25.15-2.7,48-31.37,45.81-56.33-1.66-18.99-17.22-30.28-33.74-17.02-1.36,1.09-4.4,3.62-4.87,5.12-2.25,7.24-1.3,21.38-2.22,29.76-1.41,12.86-3.97,25.57-4.98,38.47ZM101,417.7l-.49-11.98c-2.99,2.46-4.58,11.7.49,11.98ZM100,429.7c-1.61-1.99-3.97,4.33-4.08,5.48-.44,4.58,3.62,11.35,4.08,5.02.25-3.47-.17-7.04,0-10.5ZM99.01,449.69c-5.98.32-5.9,11.16-1.48,12.98,2.05.84,1.4-1.37,1.48-2.47.25-3.47-.17-7.04,0-10.5ZM98.01,469.66c-5.45-.64-6.52,9.05-2.48,11.99,2.04.6,2.02-3.51,2.19-4.77.33-2.42.43-4.79.29-7.21ZM587.4,491.64c.97-3.42,2.44-9.46-.98-11.98.05,2.82-.12,5.67-.01,8.5.05,1.21-.75,3.72.99,3.48ZM96.01,486.66c-1.41-1.62-7.42,5.69-4.88,10.32,2.2,4.01,4.15,3.68,4.79-.92.42-3.09-.07-6.3.09-9.4ZM589.39,511.63c3.06-2.62,3.43-13.91-2.97-13.98-.16,4.15.04,8.44,1.01,12.49.29,1.21.17,3.01,1.96,1.49ZM421.61,498.65l-21.66,14.79c-31.84,20.04-72.8,22.04-106.39,4.9l-27.75-15.69c2.64,24.33-.53,50.69-16.02,70.41-1.36,1.73-4.82,4.15-5.52,5.55-.95,1.92,8.27,17.92,10.12,20.88,4.36,6.97,10.43,14.92,15.89,21.08,2.92,3.3,16.53,17.35,19.56,18.49s3.59-.97,5.65-1.29c10.5-1.63,16.3,5.6,13.75,15.75,8.26-11.64,25.42-4.9,23.49,9.01,2.38.55,1.61-.4,2.22-1.3,5.22-7.7,8.84-9.62,18.11-5.55l6.62,5.85c-1.5-11.75,7.12-20.59,18.69-15.19,2.29,1.07,3.48,4.19,6.56,3.06,15.75-10.93,30.25-23.92,41.49-39.51,3.25-4.5,18.37-28.31,16.7-32.26-.46-1.09-3.4-3.12-4.5-4.55-17.12-22.25-17.97-47.21-17.01-74.41ZM94.01,505.64c-7.22.67-8.01,14.68-2.48,16.97,2.1.87,1.35-1.46,1.45-2.5.5-4.81,1.3-9.61,1.02-14.47ZM589.41,528.62c6.08-1.6,6.44-12.31-1-11.98l1,11.98ZM545.46,519.63c-3.91-.56-5.8,4.34-9.03,5.44-9.65,3.3-12-5.19-16.29-5.24-3.7-.04-6.2,12.46-16.96,5.62-1.78-1.13-4.09-4.41-5.36-4.72-4.1-1-9.22,11.13-17.67,5.78-.66-.42-6.93-9.65-6.63-4.37.25,4.44,3.44,8.1,7.48,9.52,9.77,3.42,13.13-5.09,16.03-5.08,3.18.01,6.3,7.86,17.21,4.27,2.7-.89,6.33-5.2,6.76-5.2.39,0,3.84,3.8,6.46,4.5,7.67,2.03,18.53-1.2,18-10.51ZM91.02,527.63c-7.54-.79-8.32,14.42-.99,12.45l.99-12.45ZM151.94,531.62c-1.84-1.94-5.81,3.92-7,4.47-7.57,3.49-10.25-7.65-14.33-6.41-2.42.73-3.52,9.06-10.14,9.01-4.49-.03-5.05-5.66-6.98-6.07-5.23-1.11-.99,10.09,6.24,10.78,6.46.62,10.1-6.41,11.88-6.72s7.11,8.2,15.72,3.8c2.3-1.17,6.63-6.74,4.62-8.86ZM591.41,542.62c2.83,2.7,8.74-7.71,1.47-8.98-.63-.11-2.36-.12-2.47,0-.32.32.67,8.68,1,8.99ZM507.16,550.24c.69-.59,1.14-2.45,1.86-2.63,2.02-.5,8.15,10.88,17.84,5.87,2.25-1.17,4.86-5.91,7.12-5.9,2.45.01,5.56,6.21,13.91,4.97,7.89-1.17,12.76-11.57,6.23-9.78-1.51.41-2.96,3.28-4.91,4.09-9.1,3.77-11.16-5.14-17.18-4.27-3.88.56-3.64,7.41-11.02,7.1-6.13-.26-6.65-7.16-12.96-6.07-3.13.54-6.18,6.71-11.11,6.99s-7.31-4.91-11.4-5.98c.89,12.21,13.54,12.46,21.62,5.62ZM88.02,546.61c-7.51-.33-11.01,14.24-4.48,16.97,1.69.71,1.59-.96,1.95-1.99.61-1.8,3.06-14.44,2.53-14.98ZM598.11,559.31c4.77-4.63,1.93-14.12-5.7-12.69l2,13.99c.48.48,3.05-.66,3.71-1.29ZM155.94,565.6c-2.05-1.97-6.18,2.9-7.65,3.82-10.05,6.31-10.29-5.79-15.83-5.91-1.98-.04-3.88,6.76-6.46,7.6-8.52,6.4-8.38.34-12.99-2.04-4.21-2.17-3.06,4.12,1.02,6.97,8.23,5.74,14.02-.58,19.44-6.44,4.16,4.67,8.78,7.56,15.06,5.05,1.93-.77,9.28-7.26,7.41-9.06ZM596.41,564.6c-1.15,4.64,3.85,22.74,7.53,11.04,1.96-6.24-1.14-10.72-7.53-11.04ZM535.47,569.59c-.89-.98-8.09,5.87-15.38,2.89-1.96-.8-6.83-6.27-6.62-2.38.45,8.12,16.72,10.17,21.07,4.04.75-1.06,1.5-3.93.93-4.56ZM84.03,569.6c-1.55-1.39-6.16,3.2-6.99,4.48-5.71,8.78,3.53,15.14,3.99,11.91l3-16.4ZM550.46,571.59c-.19,10.81,21.38,6.63,19.97-.48-.68-3.45-4.88.6-5.99.98-6.74,2.33-7.43.53-13.99-.5ZM307.74,656.52c-10.85,7.1-22.94.24-19.44-12.96-20.36-17.17-37.58-37.17-47.96-61.96-22.66,15.44-49.54,22.98-74.14,34.71-.93.52-1.64-.35-1.13,1.56,1.36,5.04,9.02,17.79,12.04,22.96,32.94,56.29,93.83,112.39,147.3,149.4,3.4,2.35,14.57,10.62,17.34,11.64,1.22.45,1.99.74,3.37.55,1.12-.15,17.25-10.04,19.49-11.58,51.8-35.47,111.35-93.41,145.92-145.79,3.3-5,12.65-18.05,14.41-22.56.4-1.04.86-2.22.62-3.33-.18-.84-13.33-6.83-15.38-7.78-21.06-9.81-44.14-16-63.08-29.8-9.21,21.89-23.58,41.81-41.45,57.47-3.71,3.25-18.58,12.8-20.06,14.9-2.27,3.23.51,7.84-4.37,12.61-4.32,4.22-9.91,4.93-15.23,2.15-2.47-1.29-3.49-4.08-6.29-4.19.87,5.89-3.03,9.55-5,13.97,19.25,5.73,21.21,33.84,3.03,42.52-21.23,10.14-42-10.01-32.52-31.53,2.59-5.89,12.32-10.69,12.5-11.53.21-.98-6.27-8.95-4-12.43-2.87-.75-1.93,2.15-3.54,3.93-9.34,10.38-25.54.39-22.44-12.93ZM605.37,597.56c.25-.21,2.5-5.33,2.61-5.93.78-4.34-3.13-8.43-7.58-8.04-.46.46,2.09,11.26,2.76,12.72.49,1.07.77,2.46,2.21,1.25ZM558.45,591.58c.73,9.34,16.42,7.53,18.97-.49-3.02-3.97-4.62.89-7.5,1.47-3.89.78-7.66-.95-11.47-.98ZM109.8,591.8c-5.28-3.12-2.52,7.57,4.75,8.71,4.08.64,8.49-.51,11.47-3.4,1.81-1.75,3.84-5.49-.51-4.51s-7.99,6.64-13.53,2.45c-1.26-.95-1.91-3.08-2.19-3.25ZM79.03,592.58c-3.86.05-8.25,5.35-8.81,8.74s2.48,11.99,6.83,9.73l1.98-18.47ZM607.39,614.55c8.02-1.89,5.89-11.75-2-10.98l2,10.98ZM75.03,617.56c-8.14,2.24-7.17,12.68-2.48,17.97l2.36-7.61.12-10.36ZM610.39,629.55c8.28-.53,7.47-11.26-1-10.99l1,10.99ZM123.98,636.53c-1.45-1.51-20.11,10.97-22.69,12.77-54.59,38.07-82.08,103.76-92.85,167.91-.48,2.87-2.47,9.88-.31,11.68s20.15,7.45,24.2,8.75c22.05,7.11,55.96,17,78.43,20.45,1.69.26,3.42.61,5.1.13,20.22-71.99,18.64-148.18,8.11-221.7ZM613.39,650.52c7.17-1.78,6.06-12.62-1-13.98l1,13.98ZM297.48,640.71c-8.4,1.33-8.52,17.28,3.56,14.61,8.2-1.81,5.17-15.99-3.56-14.61ZM573.43,853.37c2.1,2.15,46.28-11.82,52.45-13.97,5.55-1.93,44.64-16.87,45.94-18.99.47-.77.61-1.6.58-2.49-12.68-68.73-40.44-138.74-103.46-175.39-9.08,48-12.12,97.62-7.49,146.39.78,8.2,1.79,16.71,3.15,24.83,2.24,13.41,6.83,26.28,8.83,39.63ZM74.04,644.54c-5.56,1.5-7.11,8.31-4.76,13.26,1.04,2.19,4.98,6.53,4.75,1.24-.2-4.82-2.06-9.18,0-14.5ZM371.33,647.82c-11.95.62-9.6,23.55,4.09,17.93,9.83-4.03,5.85-18.45-4.09-17.93ZM317.46,651.74c-7.64,1.72-7.84,15.07-.77,17.32,15.84,5.04,17.18-21.01.77-17.32ZM544.46,651.53c-2.56-.83-3.47,3.94-4.49,3.97-.66.02-2.47-3.76-4.49-2.97l.99,4.98h-4s4,2.01,4,2.01l-1.99,5.99c2.69.99,2.88-3.96,4.49-3.97.95,0,4.13,7.21,6.49,4.97,1.23-1.17-4.08-6.04-2.99-6.98h4.99c.58-3.92-.55-3.05-4-3.01l.99-4.98ZM344.33,656.8c-9.1,1.05-10.24,21.85,4.66,18.5,11.14-2.51,6.65-19.81-4.66-18.5ZM618.37,673.5c1.12-1.27-.46-13.57-4.98-12.98.06,5.08-1.59,11.83,4.98,12.98ZM172.92,676.5c-3.71-1.02-1.24,4.09-2,5l-5.98-.99,3.99,3-2,2.98c5.14-.61,4.06.41,4,5.01h2.99s.01-5,.01-5c8.43,5.14,3.29-.4,3.3-1.5,0-1.01,2.37-1.77,1.69-3.49-4.53.41-2.69-.48-2-3.99l-3.5,1.99-.5-3ZM342.45,681.75c-22.63,3.91-17.89,39.32,5.61,37.66,25.18-1.78,22.89-42.58-5.61-37.66ZM154.65,736.62c-5.55,1.6-.3,10.18,3.37,5.41,2.35-3.06.6-6.56-3.37-5.41ZM485.53,737.46c-3.85-1.03-1.13,4.77-2,5.99l-5.98-2.99,2.99,4.98c-1.84.55-4.72.27-3.99,3l4.99.02-1.99,5.98c2.54.83,3.48-3.97,4.49-3.97,1.11,0,.84,4.08,3.49,2.97l-.99-4.98h6s0-3,0-3h-5s2.99-5,2.99-5l-4.98,1.99-.02-4.99ZM535.99,750.46c-2.01.56-2.01,4.41,0,4.98,4.59,1.29,4.59-6.27,0-4.98ZM239.85,767.45l-.5-3.01c-4.51,1.44-2.88,4.98-3.51,5.99-.16.26-4.38-1.94-5.98-.99-.76,3.01,3.32,2.26,4.99,3l-2.99,5.98,4.49-2.99.5,4,2-4.01c1.84-.92,6.16,2.85,6.98,2,2.83-2.95-4.75-4.7-4.99-5.01-.73-.97,5.71-8.22-.99-4.97ZM405.24,788.51c-3.84,1.23-.89,8.51,3.45,5.46,2.45-1.72.87-6.84-3.45-5.46ZM165.93,808.39c-3.61-.21-1.05,5.04-5.99,4.01l2.99,3.98c-7.6.77-6.74,3.95,1,3.02-2.95,8.9,1.88,7.44,3.01,0,7.87,6.8,10.51,3.16,1.99-2.5l3.99-3.49c-6.76,1.82-2.85.2-3-5l-3.49,2.99-.5-3ZM460.08,824.4c-2.65.79-2.02,7.18,1.98,5.98,2.65-.79,2.02-7.18-1.98-5.98ZM310.27,829.4c-2.53.76-1.9,6.57.97,5.98,3.08-.63,3.52-7.33-.97-5.98ZM528.49,837.38l-1.52-5.99c-3.17-.39-.69,6.09-1.49,6.98-1.59.43-4.76-3.27-5.98-1.99-1.99,2.08,2.64,3.34,1.99,3.97-.58.56-3.72.26-2.99,3.01h5.98c.94,1.85-2.85,6.18-1.99,6.99,2.5,2.36,5.02-4.59,5-5.99l5.98,3.99-2.99-5.98c1.24.2,6.63-.52,6.99-1.02,2.08-2.9-4.73-2.8-4.99-3-.19-.14,1.49-2.85,1-3.98l-4.98,2.99ZM229.46,852.46c-2.96.98-2.44,8.55,2.79,6.82,2.96-.98,2.44-8.55-2.79-6.82ZM386.65,853.37c-3.85-1.03-1.13,4.78-2,5.99l-4.98-1.99,2.99,4.98c-3.45-.04-4.59-.9-3.99,3l4.97-.51c-4.43,6.98-.17,9.94,2.03,1.51,1.58-1.13,4.7,4.36,5.97,2.99,1.56-1.68-3.4-5.68-2.99-5.98l4.99-1.52c-2.82-3.74-3.49-2.08-2-7.47-3.16-.65-2.9,3.4-4.98,3.99l-.02-4.99Z"/></g></svg>