<?xml version="1.0" encoding="UTF-8"?><svg id="Layer_2" xmlns="http://www.w3.org/2000/svg" viewBox="0 0 684.25 938.38"><defs><style>.cls-1{fill:#030303;}.cls-2{fill:#f5f5f5;}.cls-3{fill:#565656;}.cls-4{fill:#fefefe;}</style></defs><g id="OBJECTS"><path class="cls-1" d="M683.31,864.11c-6.13-39.76-21.82-80.36-41.48-115.18,11.88-21.48,17.18-45.27,12.89-69.73-2.44-13.94-8.94-26.48-12.54-39.7-7.02-25.81,7.78-50.79,6.23-77.77-2.62-45.65-37.99-75.51-40.92-119.21-1.46-21.74,3.74-44.19,4.58-65.93,2.33-60.74-9.57-116.79-35.36-171.31-3.11-6.57-8.63-13.37-10.94-19.72-6.76-18.55-8.71-39.41-16.74-59.35-68.99-171.34-337.65-165.91-407.68,2.27-6.95,16.7-9.11,33-14.8,48.79-3.72,10.33-12.38,22.13-16.97,33-24.01,56.81-16.18,93.65-19.86,151.62-3.12,49.05-43.38,79.45-43.31,131.69.05,38.83,28.13,69.89,9.79,108.49-9.84,20.72-26.6,35.42-23.02,61.57,1.23,9,7.89,18.16,8.79,26.41,1.93,17.66-11.29,29.98-4.22,51.93.81,2.52,4.08,6.76,4.01,8.07-.09,1.68-13.45,25.31-15.53,29.89-6.56,14.49-12.73,31.2-17.11,46.49-2.38,8.32-11.37,42.05-8.59,48.16,2.81,6.18,31.94,17.11,32.39,18.94,0,0,0,0,0,.01.6.2,1.18.46,1.73.79,1.73,1.02,3.4,2.03,5.04,3.09,0-.04,0-.08,0-.12l89.88,27.66c.09,0,.17,0,.26,0,2.76.12,5.51.32,8.25.57l4.92-63.97c-2.12-6.06-6.67-4.67-7.6,1.37-1.96,12.77-2.63,28.59-3.71,41.76-.29,3.57.17,7.22-.02,10.78-42.43-9.34-84.9-21.91-122.66-43.71-1.81-1.42-1.03-3.5-.85-5.36,6.35-64.71,54.04-148.44,107.25-185.81,3.63-2.55,17.04-11.7,20.25-12.69,1.7-.52,1.88.12,1.68,1.66-.52,4-3.31,9.31-4.2,13.99-3.65,19.19-4.04,33.33,5.15,50.96,5.25,10.07,14.1,18.97,18.98,28.72,15.76,31.43-14.78,66.42,4.85,103.04,12.24,22.83,43.08,29.49,51.63,55.12,1.16,3.48,1.93,7.07,2.44,10.71,2.61.17,5.22.33,7.83.53,11.63.87,23.26,1.58,34.89,2.17,8.68-16.2,13.03-35.07,12.46-53.4,9.3,14.07,14.04-2.49,17.57-11.38,6.69-16.8,10.51-34.4,7.09-52.48-6.46-34.12-24.01-39.86-9.94-79.84,8.84-25.11,23.45-48.12,20.48-76.62,19.51,7.35,39.62,11.31,60.42,7.61,8.96-1.59,16.11-5.67,24.75-7.62,2.02,36.45,35.22,59.59,23.53,97.92-8.08,26.48-22.39,41.23-18.87,72.89,3.45,31,32.52,37.31,38.16,61.78,3.39,14.71-3.27,30-5.79,44.68,16.1-.1,32.19-.6,48.24-1.98,14.01-1.21,27.94-3.36,41.8-5.95,24.51-31.44.93-64.13,19.41-93.91,5.7-9.19,14.05-17.34,19.53-27.03,22.2-39.25-4.86-53.51-1.32-89.9.76-7.86,4.81-17.47,8.48-24.45,2.33-4.42,5.4-13.12,10.29-10.25,5.45,3.2,12.35,11.23,17.55,15.39-9.49,1.64-7.84,8.43-2.27,14.18-16.93,2.79-14.47,16.97,3.41,13.65-5.36,6.21-4.43,17.34,5.65,13.02,3.05-1.3,4.67-8.45,6.91-5.52,2.17,2.83,2.97,9.64,8.49,10.66,8.51,1.57,5.95-5.53,6.21-11.35,6.45,2.56,4.53,10.27,6.21,13.66.97,1.96,4.57,2.16,6.33,3.89,1.18,1.16,3.48,5.85,4.68,7.81,20.24,32.87,30.01,71.61,37.34,109.19-.38,2.53-6.54,5.42-9.12,6.87-34.47,19.43-74.68,29.6-112.87,39.25-1.25-.24-1.76-3.97-1.87-5.19-1.45-16.55-1.71-33.24-3.63-49.76-1.6-3.61-5.17-4.46-6.89-.5l4.44,64.85c4.62-.98,9.24-1.97,13.85-2.95,1.02-.22,1.99-.28,2.92-.22l81.3-24.49c0,.2,0,.41.02.61,1.46-1.46,3.35-2.5,5.37-2.89.44-.38.92-.71,1.42-1.01-.01-.16-.02-.33-.03-.49.44-1.81,28.22-12.79,32.64-18.14,1.89-2.29.51-8.17.03-11.28ZM530.31,129.59c.93-.81,11.85,6.1,12.34,7.59.58,1.74-1.14,12.54-2.73,12.86-1.63-1.65-11.42-5.27-11.77-5.82-1-1.57,2.31-11.84,2.15-14.63ZM508.73,97.79c2.42-.62,14.76,3.45,14.76,5.11v16.47l-14.76-4.54v-17.04ZM531.85,153.6c4.79,2.55,17.65,11.13,20.81,14.96,3.68,4.45,3.73,15.45,4.9,21.22-11.15,1.74-9.86-13.93-18.11-16.54-6.1-1.92-7.76,2.5-12.05,2.88-6.37.56-6.92-7.51-10.19-11.28-4.78-5.52-12.13-5.45-18.69-3.46l4.58-18.14c1.7-1.23,25.23,8.48,28.75,10.36ZM489.99,56.91c1.45.37,11.24,9.4,11.7,11.02.58,2.03,1.24,10.54,1.41,13.35,1.34,22.02-2.8,57.69-12.02,77.85-.54,1.19-.05,2.95-2.21,2.27-.74-.23-8.76-11.83-9.05-12.54-1.81-4.43.77-13.29,2.59-17.76,4.4-10.81,13.34-13.12,11.45-26.97l-20.34-47.22c4.6.77,12.39-1.05,16.47,0ZM470.98,90.68c-4.88-12.71-11.18-22.16-26.32-20.04-2.6.36-8.16,3.43-9.07,3.21-.55-.13-7.36-7.9-7.48-8.45-.35-1.57.86-1.98,1.92-2.59,4.36-2.54,31.67-7.76,35.31-5.65,1.32.76,6.21,10.43,7.25,12.61,2.81,5.9,14.17,30.79,14.58,35.41.96,11.08-7.43,14.5-11.22,23.99-1.1,2.77-2.07,10.23-2.43,10.64-1.76,2.01-2.89-2.13-3.09-3.11-3.56-17.99,8.35-25.73.55-46.03ZM465.56,133c-12.21-7.16-9.52-21.42-13.58-33.54-.78-2.34-1.93-4.98-3.02-7.2-.96-1.98-8.86-13.12-8.37-13.76,13.66-7.05,21.02,4.81,25.18,16.26,4.88,13.43-2.07,24.31-.21,38.24ZM255.36,75.66c.04,9.03,11.17,8.83,11.29,3.22.12-5.23-8.91,1.96-4.93-6.07,1.91-3.85,8.74-3.19,9.44,1.96,1.01,7.44-13.66,14.74-14.51,24.88-.2,2.39,1.31,6.15.62,7.25-.47.75-12.44,7.53-13.14,6.81-2.62-14.8-.07-30.9,4.24-45.16.73-2.43,6.43-18.78,7.22-19.46,1.83-1.58,35.03,12.02,36.16,13.6.93,1.3-7.12,16.31-8.41,19.25-1.63,3.72-3.81,13.14-5.23,15.21-.78,1.14-13.23,6.49-14.08,6.34-2.59-.47-1.11-3.73-.62-5.14,2.56-7.39,11.67-11.25,13.4-19.54,3.57-17.09-21.51-19.16-21.44-3.14ZM298.16,67.04c2.15-.36,18.32,8.48,19.29,10.3.65,1.22-4.52,10.24-5.51,11.04-3.31,2.66-20.64,3.91-25.8,6-1.98-2.1,9.69-23.86,12.02-27.34ZM303.25,60.77c-.52-2.22,13.61-16.85,15.49-17.34,2.09-.54,17.96,9.22,18.43,10.79,1.05,3.46-12.51,13.3-14.28,17.39-1.96.58-16.79-8.9-19.64-10.84ZM331.55,85.32c-.53,2.91-11.99,2.67-12.48,2.25,3.25-10.28,5.61-5.87,12.48-2.25ZM328.16,76.19c-1.3-1.91,13.35-14.61,15.48-16.93.95-.16,14.83,11.07,15.11,11.99.86,2.85-3.84,5.65-5.59,7.83-1.89,2.37-3.39,6.85-6.29,7.4-6.6,1.25-12.46-8.58-18.71-10.28ZM400.83,86.97c.66,3.26,7.69-.71,10.66-.5,7.95.58,15.13,10.41,14.32,18.13-14-8.05-29.79-10.29-44.9-14.73-1.65-.48-1.98.62-1.64-2.29,13.42-7.78,26.5-16.24,41.28-21.42,13.97,14.67,28.73,31.72,29.11,53.2-3.12-2.76-15.53-9.23-17.1-11.84-2.3-3.83-1.62-11.32-5.38-17.33-7.25-11.59-28-11.37-26.34-3.22ZM400.86,67.81c-2.64.52-10.27-8.35-8.6-10.94.67-1.03,20.46-10.89,21.93-11.14,5.1-.87,9.67,6.47,11.64,10.58l-24.97,11.5ZM385.67,52.18c-.87-.17-12.25-10.57-13.25-11.71-.66-.75-1.81-1.82-1.1-2.85.73-1.05,21.81-11.36,23.08-11.14,1.67.29,16.65,11.76,16.64,12.83-3.33,2.06-23.41,13.25-25.37,12.88ZM379.18,56.18c-.27,1.61-13.56,10.88-15.06,10.75-.93-.08-14.16-10.87-14.38-11.77-.51-2.08,12.29-11.43,14.46-11.75,3.23-.48,13.41,9.11,14.98,12.77ZM372.44,87.56c-4.69-.17-9.87.69-14.34-1-.87-.33-2.31.2-1.53-1.8.55-1.41,5.53-7.62,7.21-7.32.91.16,9.91,9.03,8.67,10.13ZM353.17,144.89c2.45,1.57,2.87,16.09,10.76,22.18,9.46,7.3,16.87-.52,25.01,4.52,8.18,5.06,4.68,21.21,11.25,25.09,6.73,3.97,15.32-3.15,22.81,2.18,6.32,4.49,2.57,14.68,7.88,20.51,5.26,5.78,10.3,1.55,17.16,2.15,9.25.81,12.85,10.21,14.12,18.24-7.16,1.27-6.39-4.92-9.05-8.54-4.68-6.36-11.77-1.94-18.8-2.79-14.33-1.73-11.66-22.12-15.26-24.48-4.72-3.1-14.62,4.57-23.34-2.79-7.08-5.98-5.51-16.9-9.59-24.48-16.22-.29-26.87.44-33.53-16.44-.94-2.38-5.86-19.48.59-15.35ZM459.31,194.34c-2.13-2.57-1.72-10.59-6.5-12.81-7.31-3.39-18.9,3.61-23.29-6.24-2.37-5.32-.56-13.91-7.74-14.93-8.15-1.17-17.57.65-17.54-11.45,4.26-.8,5.55,4.1,9.01,5.17,5.03,1.56,10.77-.57,15.94,3.37,5.13,3.91,4.1,15.1,7.96,17.02,5.22,2.61,11.85-3.65,19.92,2.8,2.84,2.27,9.13,16.46,7.35,18.19-.49.48-4.08.14-5.12-1.12ZM456.17,34.5c3.5.16,21.05,11.94,24.16,15.59h-26.69c-3.83,0-17.89,5.1-20.27,4.42-.91-.26-9.81-12.18-8.7-13.49,9.45-1.82,21.89-6.96,31.49-6.52ZM418.26,18.62c7.45.36,20.01,8.69,28,9.91l-27.77,7.98c-.89-.09-12.11-9.49-13.94-11.07-.58-.5-3.13-.81-1.44-2.59.54-.57,14.07-4.29,15.15-4.24ZM403.1,14.9l-8.46,3.39-8.57-5.66c5.9-.6,11.44.59,17.02,2.27ZM387.2,20.58c1.66,1.78-.56,1.94-1.46,2.53-2.06,1.33-19.72,10.8-20.9,10.9-1,.09-14.09-10.16-16.25-11.75,5.37-2.74,15.09-9.74,21.02-9.69,1.23.01,16.92,7.3,17.58,8.01ZM325.29,8.07c4.7-.59,9.94.74,14.79-1.12l19.87,1.13c-.28,1.75-2.11,2.14-3.42,2.81-2.01,1.03-14.65,7.07-15.5,7.15-.95.08-16.75-7.03-17.41-7.71-1.6-1.64.09-2.06,1.68-2.26ZM321.37,15.42c1.84.5,14.03,6.28,12.45,8.53-4.31.11-12.62,10.16-15.29,10.22-1.23.03-18.73-8.58-18.75-9.63,5.85-4.38,13.98-11.19,21.59-9.12ZM312.21,37.66c.49.71-.04,2.45-.52,3.35-.51.96-13.97,15.46-15.02,15.74-5.08,1.36-18.04-8.6-24.16-8.94-.46-1.72.45-1.88,1.12-2.84,2.03-2.92,15.78-14.9,18.85-15.32,1.88-.26,19.13,7.13,19.73,8.01ZM273.65,21.06c1.96-1.22,13.14,3.81,11.34,6.3-.23.32-4.96,2.36-6.82,3.98-2.74,2.4-10.16,11.82-11.36,12.56-1.28.8-5.29-.21-5.62-.68-1.12-1.59,10.72-21.07,12.46-22.16ZM248.08,30.77c.79-1.3,14.58-7.52,15.33-6.79l-9.27,15.69c-5.45,1.87-8.59-4.74-6.06-8.89ZM249.79,46.69c-.74,5.77-8.43,19.23-13.06,9.05-3.2-7.04,8.21-9,13.06-9.05ZM236.17,101.79c-.16,1.3.43,2.29-1.69,1.66-8.53-2.52-5.9-12.99,2.81-12.47-1.54,3.62-.71,7.33-1.13,10.81ZM230.47,86.42c-.14.19-4.29,1.4-4.53,1.14v-6.8c2.67-.72,5.69,4.04,4.53,5.66ZM230.48,109.14c-.17.23-5.32,1.51-5.67,1.14v-5.67c1.75-.54,6.99,2.68,5.67,4.53ZM237.29,111.42c2.78,4.91-4.37,13.26-8.49,12.49-5.06-.94,3.99-14.31,8.49-12.49ZM240.7,68.27c-.1,1.75-1.79,12.08-2.28,12.49-4.61,3.9-13.04-13.88,2.28-12.49ZM182.16,78.42c1.19-3.84,18.68-19.35,22.81-22.62,2.63-2.08,27.64-19.51,28.92-18.2-10.2,22.15-17.52,46.19-15.88,70.96.32,4.81,4.07,19.48,3.21,22.47-1.04,3.63-19.19,18.41-21.43,24.07-4.43-.16-12.51,4.82-16.18,3.84-8.27-2.21-6.12-20.85.3-24.81,1.98,9.98,12.84,11.2,20.4,6.19,7.74-5.13,9.45-18.6,9.15-27.19-7.35-1.89-6.22,11.28-8.51,16.47-3.5,7.91-15.34,10.64-16.44,1.58-.88-7.25,10.88-18.1,14.99-24.62,5.54-8.8,9.14-16.57,7.59-27.41-2.4-16.76-24.03-9.51-21.46,4.4,1.38,7.49,13.05,6.9,11.35-1.65h-5.68c-.47-6.33,8.4-7.99,9.98-2.62,2.9,9.88-6.82,26.08-14.52,32.14-1.61-11.46-12.44-20.57-8.59-32.99ZM146.74,136.12c.48-1.2.33-3.38,1.96-3.12-1.35,5.96,5.55,20.97,4.39,25.3-.54,2.01-10.95,11.13-12.32,9.9-2.93-10.26,2.14-22.4,5.97-32.08ZM154.96,165.95c1.29,0,5.46,12.96,5.14,15.25-.23,1.67-10.1,13.16-11.38,11.99.1-3.9-5.17-13.14-4.39-16.24.62-2.42,8.81-8.33,10.62-11ZM102.2,561.62c5.77,6.1,8.28,14.72,2.29,21.74-3.85,4.51-12.22,4.86-10.3,11.05.73,2.38,10.61,4.88,9.95,14.73-1.03,15.46-25.16,14.63-22.19,29.54.62,3.11,9.25,12.26,2.6,12.24-5.67-.02-9.25-13.77-8.44-18.71,1.59-9.81,20.43-15.14,21.52-21.7,1.68-10.11-11.19-9.77-10.23-19.14.82-7.95,12.56-8.79,14.31-14.25,2.83-8.9-10.03-13.33-9.53-18.61.6-6.38,16.56-8.64,9.84-21.61-1.17-2.25-11.33-9.75-8.93-12.06,2.96-2.85,12.14,6.73,13.65,9.62,4.94,9.38,2.63,15.08-4.55,21.68-1.23,1.13-3.3,1.51-3.42,1.66-1.67,2.18,2.23,2.57,3.45,3.86ZM114.96,433.69c-4,.88-8.88.63-4.83-3.69,3.3-3.52,13.74-5.47,14.74-12.6,1.28-9.1-12.09-7.55-12.6-15.8-.49-7.95,8.7-10.17,10.09-16.15,2.07-8.94-3.5-8.02-5.71-13.11-3.61-8.3,4.88-10.34,6.56-16.72,1.18-4.48-.59-5.78-.56-8.67.08-5.98,7.29-.94,6.72,6.81-.42,5.82-7.52,13-7.53,14.9-.01,4.87,13.81,9.6,4.65,23.2-2.03,3.01-5.31,4.22-6.94,6.1-4.46,5.14,4.27,6.44,7.51,9.38,10.19,9.25-1.6,24.03-12.11,26.36ZM135.07,278.36c-1.63.34-1.19-1.28-1.48-2.45-2.39-9.65-3.72-24.34-4.23-34.4-.43-8.49-.98-23.85.04-31.87.2-1.56.79-3.51,2.27-1.69,1.87,15.53,12.64,27.86,19.24,41.45-4.74,9.96-13.68,17.71-15.84,28.95ZM147.57,326.06c-2.66-1.28-3.14-5.38-3.96-7.96-1.84-5.8-6.6-21.33-6.31-26.65.49-8.95,9.81-25.64,15.94-32.4-3.46,22.16-6.51,44.43-5.68,67ZM148.15,229.51c-1.21-.04-6.15-10.17-6.26-12.01-.06-1.12,4.14-9.24,4.57-9.54,2.29-1.6,7.85,10.06,7.95,12.03.16,3.07-4.33,7.04-6.27,9.52ZM164.87,218.99c-.56,1.01-.72,2.96-2.51,1.44-.87-.74-9.3-18.31-9.14-19.83.17-1.69,9.55-13.37,11.38-11.96.24,4.44,7.05,10.09,6.85,14.09-.05.88-5.75,14.77-6.57,16.26ZM163.44,168.81c-2.83-8.59-11.35-41.94-9.35-49.07,3.1-11.03,15.33-24.5,21.32-34.43-.84,9.03,9.73,20.09,9.56,27.7-.17,7.44-8.79,18.58-11.31,26.2-4.95,15.02-.49,27.54,17.07,25.6l-15.32,29.52c-2.51-1.23-10.69-21.62-11.97-25.51ZM219.12,837.11c-13.93-3.08-1.41-21.45-.26-29.23,2.35-16.03-16.41-14.74-17.86-24.79-1.24-8.57,7.16-13.29,5.41-21.24-1.85-8.36-15.32-7.75-16.74-16.21-2.15-12.78,9.42-19.41,6.5-29.24-2.18-7.31-17.28-7.65-17.93-10.47,2.43-6.7,18.01.86,21.18,4.38,11.46,12.75-6.82,24.62-3.94,34.02,1.41,4.62,15.1,5.36,16.76,16.2,1.5,9.84-6.53,17.26-5.44,21.25,1.42,5.21,16.23,7.74,17.93,18.49,2.09,13.24-8.77,23.03-5.61,36.84ZM259.82,681.9c-2.14,3.05-8.11,6.91-7.62,1.5.13-1.44,5.41-8.78,6.18-13.18,2.62-14.96-12.06-14.77-11.71-22,.26-5.28,9.23-12.12,8.57-19.23-.84-8.97-13.71-7.89-14.56-13.96-1.1-7.82,20.13-20.21,2.68-28.71-4.22-2.05-13.75-1.5-11.16-7.01,13.73-.82,26.58,6.27,23.03,21.92-.89,3.9-9.3,10.85-7.66,13.24.32.46,7.27,2.95,9.66,5.68,10.94,12.46-3.58,21.49-2.93,27.84.32,3.15,7.78,7.4,9.38,12.27,2.32,7.06.31,15.7-3.87,21.64ZM390.07,650.89c-25.11,16.67-57.06,12.97-83.2.83-1.57-1.66-2.46-14.04-3.32-17.7-3.37-14.31-9.08-28.21-12.31-42.2-3.36-14.55-3.28-29.41-3.96-44.3,38.59,17.52,82.95,16.89,120.36-3.41-3.8,35.96-15.72,70.51-17.57,106.77ZM455.4,603.69c13.59,14.56-10.48,20.78-10.37,30.74.08,6.73,11.77,8.65,12.6,13.65,1.77,10.62-18.31,15.22-6.8,29.44,3,3.71,10.31,5.95,8.48,10.83-6.82,1.1-15.86-8.58-17.49-14.34-3.87-13.67,9.12-18.44,8.99-23.76-.06-2.49-7.21-4.93-9.61-8.53-9.9-14.82,11.98-22.84,11.99-30.04,0-5.5-8.58-7.19-11.96-12.01-10.99-15.64,16.69-42.6,20.92-38.53,1.81,1.74-9.99,13.18-11.82,15.99-2.17,3.34-6.15,10.39-6.3,14.21-.27,6.56,7.63,8.32,11.37,12.33ZM448.57,500.42c-88.75,99.39-218.31,42.27-253.59-72.41-15.93-51.8-22.15-127.57,1.24-177.67,19.94-42.72,60.49-62.88,86.96-99.3,3.48-4.8,5.86-10.35,9.76-14.64,15.97,33.87,45,64.25,73.3,88.55,15,12.88,32.04,25.82,49.36,35.25l-19.7,5.82c-2.59.89-4.52,5.46-1.92,7.29,3.2,2.25,28.18-7.18,34.44-3.79,24.82,13.22,49.25,27.99,76.77,35.1-1.01,71.27-7.39,140.66-56.61,195.78ZM525.67,793.31c-3.16,3.23-13.7,5.52-14.56,8.24-1.57,4.95,7.99,15.08,4.8,25.18-3.91,12.4-25.33,9.11-23,27.9.62,5.01,4.8,10.29,5.51,14.94,1.63,10.61-1.68,19.56-10.12,26.08-2.75,2.12-12.89,6.82-9.71.52,1.18-2.33,8.86-6.45,11.33-10.25,11.41-17.54-15.75-31.84,4.02-49.36,4.22-3.74,13.68-6.76,15.79-10.36,3.99-6.85-6.85-17.4-3.91-26.6,3.42-10.68,27.31-4.34,14.03-28.68-2.47-4.52-7.4-7.58-6.59-13.27,11.96,3.23,21.47,26.42,12.4,35.68ZM543.98,595.75c-.41,7.47-16.05,26.86-20.49,22.18-2.84-3,8.09-10.12,10.21-13.06,3.43-4.77,6.16-10.61,2.3-15.92-2.7-3.72-10.43-5.33-11.2-10.45-.77-5.13,8.03-11.02,7.72-16.84-.26-4.92-10.38-4.21-8.86-12.16.95-4.94,9.34-8.04,9.03-15.03-.32-7.39-10.38-3.05-10.36-7.95.03-5.84,15.75-.88,16.81,7.06,1.08,8.09-10.51,15.19-8.69,18.34.19.33,4.42,2.17,6.03,4.74,6.62,10.58-5.83,17.22-5.15,21.98.17,1.19,13.31,4.9,12.63,17.1ZM527.47,362.4v-1.14c.74.38.74.76,0,1.14ZM548.55,314.13c-.45,6.28-12.81,35.27-16.64,41.36-1.01,1.6-2.02,3.96-3.86,4.64,1.41-7.79,3.52-15.52,4.39-23.43,1.94-17.6-.33-35.04-.43-52.66,5.29,6.68,17.15,21.68,16.55,30.08ZM553.01,301.08c-2.72.62-1.84-.48-2.53-1.48-1.73-2.51-3.1-6.12-4.95-8.63-3.8-5.16-12.75-13.2-14.98-17.96-3.54-7.57-4.12-24.49-7.06-33.25l20.45,14.18c2.4,2.23,12.7,13.89,13.36,16.15,2.47,8.44-4.54,22.09-4.3,30.99ZM538.26,227.26c1.12-1.26,11.83,9.53,12.28,11.03.66,2.2-.57,10.37-2.62,10.52-.65.05-10-7.36-10.3-7.94-1.09-2.04,1.84-10.38.65-13.61ZM559.85,239.74c-10.02-18.3-29.51-28.71-48.23-36.38-1.15-4.82-16.58-32.1-15.3-33.93,16.71-9.91,14.91,5.2,23.37,11.09,9.12,6.35,12.92-2.42,17.81-.85,2.53.81,5.2,10.78,8.12,13.54,3.41,3.23,8.61,3.79,13.09,3.38.63,13.4,2.96,26.9,2.27,40.34-.07,1.28.74,3.12-1.12,2.81ZM580.27,416.9c-.3.44-7.15,4.41-8.67,6.1-14.58,16.22,8.59,18.14,8.59,28.56,0,6.29-10.62,11.77-11.03,16.07-.49,5.24,7.45,6.78,8.91,9.13,4.77,7.72-8.73,13.75-9.14,20.3-.37,5.95,7.59,9.71,7.82,12.58.58,7.33-11.35-2.1-12.98-7.5-3.91-12.96,9.34-17.54,8.64-22.11-8.34-5.18-12.35-10.77-6.25-19.88,2.04-3.04,7.77-5.98,7.39-9.71-.32-3.12-12.95-8.27-12.52-18.1.26-5.89,10.31-19.39,16.37-18.91,1.67.13,3.82,2.07,2.86,3.46ZM590.5,705.39c3.48-1.62,13.53,7.94,11.35,10.21-1.76,1.83-12.49-6.42-11.35-10.21ZM583.69,722.97c-.95-4.58,12.89-5.99,14.76-1.7-2.51.31-14.01,5.29-14.76,1.7ZM595.04,737.17c-1.63-1.63,6.11-14.13,9.07-11.34.9.85-5.85,14.57-9.07,11.34ZM603.04,634.33c-1.43-8.94,5.76-12.68,5.38-16.8-.37-3.96-8.33-7.44-7.72-13.69.52-5.44,13.89-15.32,6.77-20.5-.61-.44-13.39-3.87-6.01-6.17,4.26-1.33,11.97,2.76,12.85,7.27,2.18,11.1-8.01,16.79-7.72,20.23.3,3.61,7.07,6.52,7.73,11.64.9,7.02-5.76,11.33-5.78,15.8-.01,3.42,4.96,6.62,5.72,11.42.32,2.01.77,8.82-1.64,9.57-5.32,1.67-3.53-6.63-4.23-9.38-.73-2.86-4.7-5.34-5.36-9.42ZM617.75,741.72c-4.18,4.01-10.84-14.11-9.07-15.89,3.96-4,10.04,14.96,9.07,15.89Z"/><path class="cls-1" d="M349.4,734.12c3.46,2.83,2.58,9.26,2.61,13.27,17.99-5.96,22.39,10.1,5.7,16.46,8.57,9.62,2.73,24.36-9.7,14.23-1.95-1.59-2.05-3.98-3.94-4.56-.51,9.45-16.53,11.45-17.15,1.71-.31-4.88,3.28-7.5,3.51-11.94-19.03-2.26-12.08-23.49,5.67-14.77-2.4-7.31,5.58-20.74,13.31-14.41ZM346.31,738.32c-5.47-3.69-5.67,11.14-4.52,13.63,5.67,2.23,6.58-12.24,4.52-13.63ZM350.86,757.62c2.61,1.07,13.4-.96,12.49-5.09-1.03-4.67-15.79,1.72-12.49,5.09ZM324.75,751.95c-2.26,6.26,12.52,8.73,12.46,5.1-3.28-4.23-7.07-5.84-12.46-5.1ZM356.54,775.79c2.14-2.26-4.75-12.92-9.07-11.35-1.44,1.41,4.55,13.24,9.07,11.35ZM340.64,765.58c-5.76-.25-8.7,6.28-7.94,11.35,5.76.25,8.7-6.28,7.94-11.35Z"/><path class="cls-1" d="M128.28,776.93c18.64-6.02,21.57,11.94,4.54,15.91,12.49,13.38-2.22,26.79-11.92,10.21-9.87,17.49-25.7,5.55-13.07-9.08-18.92-1.61-16.57-23.1,3.4-15.91-.83-19.58,17.87-22.21,17.05-1.13ZM118.06,782.6c5.79.6,5.74-14.13,2.81-14.75-4.87-1.03-4.22,11.86-2.81,14.75ZM112.13,785.09c-2.76-4.76-17.96-4.77-10.04,1.55,3.28,2.62,12.77,3.16,10.04-1.55ZM138.49,781.48c-2.69-1.32-13.26,1.57-12.48,5.09.76,3.45,14.71.14,12.48-5.09ZM116.91,793.97c-1.7-2.05-13,11-7.36,12.48,4.64,1.22,8.36-8.99,7.36-12.48ZM132.81,805.31c1.89-1.81-5.42-13.6-10.21-11.34-.78,3.81,6.7,14.7,10.21,11.34Z"/><path class="cls-1" d="M597.32,792.83c15.14-15.64,26.31,7.95,6.8,12.51,13.79,14.32,3.76,31.63-11.34,13.62-8.28,21.97-22.32,4.82-10.23-10.21-19.35.87-20.19-22.3.58-13.66-4.65-20.46,14.19-24.19,14.19-2.25ZM590.48,782.61c-2.36-2.32-3.35,5.01-3.29,6.13.16,2.89,1.39,7.54,4.42,8.63,2.08-1.54.46-13.19-1.14-14.76ZM598.45,801.91c3.5.38,12.19-3.17,11.35-7.35-1.17-5.81-12.4,2.89-11.35,7.35ZM585.95,804.18c.51-4.81-11.89-6.97-13.62-5.67-.61,2.84.65,2,2.12,2.94,3.67,2.35,7.08,3.17,11.5,2.72ZM605.25,821.21c.91-5.53-3.16-12.41-9.07-12.48-1.79,1.84,4.29,14.41,9.07,12.48ZM589.35,811c-4.1-.56-8.03,11.11-6.8,12.48,5.13-.71,7.25-7.99,6.8-12.48Z"/><path class="cls-1" d="M58.73,809c3.05,3.06,2.45,10.88.27,14.48,18.69-2.44,20.03,17.31,1.14,15.92,11.24,17.14-6.62,25.36-12.51,6.81-14.43,14.52-27.37,2.85-11.35-11.35-19.05-7.35-8.21-23.69,7.94-11.37-3.02-7.63,7.55-21.48,14.51-14.49ZM48.78,826.89c3.98,4.07,10-13.69,5.09-14.75-3.91-.85-6.31,13.51-5.09,14.75ZM43.09,831.43c2.07-1.82-9.66-9.58-11.35-7.94-2.99,2.92,8.37,9.57,11.35,7.94ZM68.08,829.18c-2.83-2.49-16.03,1.13-13.62,4.52,1.41,1.98,15.95,2.61,13.62-4.52ZM44.23,838.26c-3.88-1.51-12.83,7.31-10.21,10.21,1.31,1.45,12.43-5.74,10.21-10.21ZM58.99,851.88c1.62-1.64-3.69-13.17-7.94-12.48-.71,2.79,4.68,15.78,7.94,12.48Z"/><path class="cls-1" d="M647.29,838.25c1.71,1.49,5.71-6.5,11.31-3.98,6.13,2.75,2.85,11.29-2.21,13.64-.02,1.26,8.98,3.15,6.57,11.12-2.15,7.13-13.48-.28-14.54.79-.51,14.68-17.24,13.71-11.37-2.26-16.95,2.42-15.54-10.88-1.13-12.51-5.71-14.17,7.58-23.32,11.36-6.81ZM643.87,845.06c.07-3.85.9-10.83-4.53-11.35-.07,3.85-.9,10.83,4.53,11.35ZM657.5,838.26c-2.08-1.95-10.43,6.72-9.07,7.94,4.6.31,8.76-3.37,9.07-7.94ZM639.33,849.62c-2.55.16-9.64-.94-9.08,3.39,3.22.21,7.5.05,9.08-3.39ZM658.46,854.32c-.48-.77-8.08-3.17-8.9-2.43-.35,5.64,12.39,8.11,8.9,2.43ZM645,855.3c-3.63-.48-7.27,8.79-3.95,10.2,2.56,1.09,4.28-8.85,3.95-10.2Z"/><path class="cls-1" d="M332.7,843.93c3.14.35,3.15-3.31,5.61-5.17,8.94-6.73,2.29,6.38-1.08,9.7,2.07.29,16.62-2.84,12.49,3.4-.72,1.08-9.4,1.36-11.35,1.16-2.47,2.17,11.96,9.33,6.21,12.49l-10.75-7.95c-.13,3.49.36,7.03-.32,10.5-.25,1.27-.57,3.88-2.51,3.11-3.87-1.52-2.83-7.94-2.87-11.35-1.69.38-9.09,10.6-10.21,5.09-.32-1.61,7.35-9.23,6.81-9.62-2.71-.39-9.32,1.02-10.85-1.08-3.68-5.03,7.27-3.48,10.85-4.62-2.01-4.02-8.68-4.64-7.94-10.2,5.24-1.11,6.88,4.31,11.34,5.67-1.92-14.62,5.84-18.15,4.56-1.14Z"/><path class="cls-1" d="M168,927.39c-.32.47-.75.98-1.24,1.51,3.6.4,7.2.74,10.82.97,1.97.12,3.94.23,5.92.35-1.56-1.12-2.9-2.41-2.97-4.52,3.26.11,10.84.58,12.48-2.86,1.09-2.29-1.85-1.62-2.81-1.69-3.19-.23-6.48.17-9.67,0-1.49-1.28,9.42-10.21,3.95-11.35-2.77-.58-6.17,6.93-8.49,7.94.13-2.01.05-10.49-1.24-11.28-5.33-3.26-2.8,8.99-3.33,12.42-10.64-10.14-17.59-7.96-4.53,3.4-3.47,1.38-13.37-.37-9.72,4.62,1.72,2.34,8.11.65,10.83.49Z"/><path class="cls-1" d="M382.68,698.57c7.41-7.34,11.23-5.64,4.53,3.4,10.62-1.61,13.13,5.46,1.14,4.56-.52,2.7,2.4,3.42,3.46,5.05,4.27,6.58-3.58,3.76-6.86.62,1.24,12.8-5.57,11.19-5.7,0-2.53,1.17-2.91,6.12-6.8,5.67-.64-3.83,1.44-6.2,3.4-9.07-10.53,1.23-10.69-5.76,0-4.57-.55-2.28-6.13-5.14-5.67-7.35,1.11-5.43,7.57,4.32,9.08,2.81-1.36-2.87-2.31-6.77.59-9.07,3.42-.72,3.01,5.9,2.83,7.94Z"/><path class="cls-1" d="M106.71,716.74c7.69-8.79,8.23-4.26,4.54,4.54,10.69-3.52,12.88,3.32,1.14,4.56.58,2.07,4.02,2.28,5.13,4.51,2.58,5.19-6.51,2.96-8.53.02l1.12,7.94c-5.77,1.22-4.89-2.12-5.69-6.81-6.31,8.08-9.36,4.96-4.53-3.4-14.72-.61-1.17-5.54-1.16-6.26l-4.51-6.24c3.82-.64,6.2,1.43,9.07,3.4.98-1.35-1.99-9.26,1.7-9.07l1.73,6.8Z"/><path class="cls-1" d="M585.95,868.92c1.93,2.02-3.93,6.24-4.54,7.93,9.57-.9,9.36,6.3,0,5.7,6.4,8.21,2.02,10.41-4.53,3.4.54,10.68-6.25,11.63-4.57,0-8.21,6.39-10.41,2.02-3.4-4.53-8.74.04-7.79-6.4,1.14-4.57l-3.4-7.93c3.02-.55,4.45,1.43,6.24,3.38,2.52-7.86,7.03-10.18,5.67,0,1.04-1.03,6.31-4.51,7.39-3.38Z"/><path class="cls-1" d="M354.93,937.57c5.78.09,11.56.17,17.35.25.53-1.27-.05-2.11-3.25-1.91,3.31-4.4,3.85-7.4-2.26-4.52v-3.42c-3.65-.62-4.57,1.14-4.56,4.54l-5.66-3.4c1.93,5.4-4.31,4.48-2.88,8,.5.17.91.32,1.25.46Z"/><path class="cls-1" d="M383.53,802.19c5.35,5.36-1.66,17.52-9.91,10.47-7.13-6.09,3.98-16.4,9.91-10.47Z"/><path class="cls-1" d="M115.51,886.82c-6.08,6.07-17.31-4.02-9.9-10.47s15.05,5.33,9.9,10.47Z"/><path class="cls-1" d="M306.31,920.29c5.68,5.68-3.1,16.99-9.66,10.79-7.47-7.06,3.57-16.88,9.66-10.79Z"/><path class="cls-1" d="M606.12,852.74c-6.04,6-14.35-4.17-8.35-8.92,6.51-5.14,13,4.3,8.35,8.92Z"/><path class="cls-1" d="M633.93,806.18c-4.65-4.62,1.84-14.06,8.35-8.92,6,4.74-2.31,14.91-8.35,8.92Z"/><path class="cls-1" d="M66.09,757.9c4.25-4.25,13.39,1.6,8.18,7.62s-13.06-2.74-8.18-7.62Z"/><path class="cls-1" d="M311.92,718.1c8.54-2.57,11.27,7.45,3.76,9.54-7.51,2.09-9.31-7.87-3.76-9.54Z"/><path class="cls-1" d="M395.97,890.69c9.02-2.67,9.96,11.31.97,10.06-5.27-.73-5.52-8.71-.97-10.06Z"/><path class="cls-1" d="M571.99,745.33c8.53-2.55,10.07,11.31.97,10.05-5.25-.73-5.53-8.69-.97-10.05Z"/><path class="cls-1" d="M95.17,836.15c1.47.9,2.72,9.17-3.72,7.76-8.04-1.76-2.57-11.65,3.72-7.76Z"/><path class="cls-1" d="M394.74,744.13c6.41-2.14,7.95,5.26,5.03,7.32-5.94,4.18-9.85-5.71-5.03-7.32Z"/><path class="cls-1" d="M560.81,840.36c-6.99,4.45-10.17-10.09-1.77-7.61,3.4,1.01,3.66,6.4,1.77,7.61Z"/><path class="cls-1" d="M611.1,885.79c-4.45-6.99,10.09-10.17,7.61-1.77-1.01,3.4-6.4,3.66-7.61,1.77Z"/><path class="cls-1" d="M613.94,758.9c5.65-1.85,8.22,3.93,5.01,6.16-5.41,3.77-9.97-4.54-5.01-6.16Z"/><path class="cls-1" d="M567.92,718.87c-2.44-1.53-.23-9.53,4.38-7.3,5.62,2.71.58,10.41-4.38,7.3Z"/><path class="cls-1" d="M133.81,835.84c-2.5,3.99-10.99-2.31-5.62-6.19,4.11-2.97,7.63,2.98,5.62,6.19Z"/><path class="cls-1" d="M334.82,685.92c-2.06,3.3-9.29-1.21-6.16-5.59,2.88-4.03,8.78,1.39,6.16,5.59Z"/><path class="cls-1" d="M311.12,799.64c-1.79-.04-5.2.53-6.33-1.05-4.16-5.83,8.53-9.94,6.33,1.05Z"/><path class="cls-1" d="M63.1,875.83c4.91-1.57,6.71,4.25,3.92,6.21-4.93,3.46-8.28-4.81-3.92-6.21Z"/><path class="cls-4" d="M415.59,260.21l-19.7,5.82c-2.59.89-4.52,5.46-1.92,7.29,3.2,2.25,28.18-7.18,34.44-3.79,24.82,13.22,49.25,27.99,76.77,35.1-1.01,71.27-7.39,140.66-56.61,195.78-88.75,99.39-218.31,42.27-253.59-72.41-15.93-51.8-22.15-127.57,1.23-177.67,19.94-42.72,60.49-62.88,86.96-99.3,3.48-4.8,5.86-10.35,9.76-14.64,15.97,33.87,45,64.25,73.3,88.55,15,12.88,32.04,25.82,49.36,35.25ZM213.59,282.77c3.91,2.47,11.12-4.53,14.58-6.16,16.19-7.62,31.85-7.37,48.89-3.37,3.7.87,7.37,4.54,10.87,1.81,7.9-6.18-13.68-11.63-17.41-12.3-14.2-2.56-34.33-.08-47.21,6.72-2.94,1.55-15.35,9.74-9.71,13.3ZM265.31,306c-17.27-17.22-31.3,23.78-12.18,29.77,16.49,5.16,21.12-20.85,12.18-29.77ZM433.39,306.01c-9.32-9.4-20.06,1.36-21.13,11.66-.56,5.37,2.26,16.21,7.91,17.96,17.38,5.38,23.47-19.28,13.21-29.62ZM326.46,318.12c-4.87,4.78-2.25,12.51-2.87,18.72-1.35,13.67-8.78,43.06-5.59,54.46,4.82,17.24,36.11,18.77,37.35,11.3.91-5.5-11.71-2.44-15.27-2.74-10.2-.85-16.79-5.56-16.51-16.39.44-16.94,6.18-36.66,6.9-54.53.08-2.08.02-11.77-4.01-10.82ZM402.82,437.65c-4.71-4.73-9.66,4.91-12.81,7.63-22.19,19.19-52.8,23.72-80.01,13.07-5.11-2-17.01-10.72-20.87-9.5-6.26,1.99,7.56,10.96,10.03,12.39,25.65,14.88,60.47,13.1,85.68-1.82,4.47-2.64,23.88-15.85,17.97-21.77Z"/><path class="cls-4" d="M306.87,651.72c-1.57-1.66-2.46-14.04-3.32-17.7-3.37-14.31-9.08-28.21-12.31-42.2-3.36-14.55-3.28-29.41-3.96-44.3,38.59,17.52,82.95,16.89,120.36-3.41-3.8,35.96-15.72,70.51-17.57,106.77-25.11,16.67-57.06,12.97-83.2.83Z"/><path class="cls-2" d="M233.89,37.61c-10.2,22.15-17.52,46.19-15.88,70.96.32,4.81,4.07,19.48,3.21,22.47-1.04,3.63-19.19,18.41-21.43,24.07-4.43-.16-12.51,4.82-16.18,3.84-8.27-2.21-6.12-20.85.3-24.81,1.98,9.98,12.84,11.2,20.4,6.19,7.74-5.13,9.45-18.6,9.15-27.19-7.35-1.89-6.22,11.28-8.51,16.47-3.5,7.91-15.34,10.64-16.44,1.58-.88-7.25,10.88-18.1,14.99-24.62,5.54-8.8,9.14-16.57,7.59-27.41-2.4-16.76-24.03-9.51-21.46,4.4,1.38,7.49,13.05,6.9,11.35-1.65h-5.68c-.47-6.33,8.4-7.99,9.98-2.62,2.9,9.88-6.82,26.08-14.52,32.14-1.61-11.46-12.44-20.57-8.59-32.99,1.19-3.84,18.68-19.35,22.81-22.62,2.63-2.08,27.64-19.51,28.92-18.2Z"/><path class="cls-2" d="M190.73,164.8l-15.32,29.52c-2.51-1.23-10.69-21.62-11.97-25.51-2.83-8.59-11.35-41.94-9.35-49.07,3.1-11.03,15.33-24.5,21.32-34.43-.84,9.03,9.73,20.09,9.56,27.7-.17,7.44-8.8,18.58-11.31,26.2-4.95,15.02-.49,27.54,17.07,25.6ZM165.34,111.56c-3.9,1.32-1.78,10.03,3.03,8.83s4.76-11.46-3.03-8.83Z"/><path class="cls-2" d="M558.7,196.59c.63,13.4,2.96,26.9,2.27,40.34-.07,1.28.74,3.12-1.12,2.81-10.02-18.3-29.51-28.71-48.23-36.38-1.15-4.82-16.58-32.1-15.3-33.93,16.71-9.91,14.91,5.2,23.37,11.09,9.12,6.35,12.92-2.42,17.81-.85,2.53.81,5.2,10.78,8.12,13.54,3.41,3.23,8.61,3.79,13.09,3.38ZM512.94,185.45c-4.17,1.25-4.11,7.44,0,8.67,8.59,2.56,8.59-11.23,0-8.67ZM539.1,198.02c-5.48-5.48-11.33,5.34-5.37,8.29,5,2.47,8.9-4.76,5.37-8.29ZM550.92,213.8c-3.84,6.05,6.56,13.63,7.81,4.87.88-6.17-6.09-7.57-7.81-4.87Z"/><path class="cls-2" d="M291.73,62.68c.93,1.3-7.12,16.31-8.41,19.25-1.63,3.72-3.81,13.14-5.23,15.21-.78,1.14-13.23,6.49-14.08,6.34-2.59-.47-1.11-3.73-.62-5.14,2.56-7.39,11.67-11.25,13.4-19.54,3.57-17.09-21.51-19.16-21.44-3.14.04,9.03,11.17,8.83,11.29,3.22.12-5.23-8.91,1.96-4.93-6.07,1.91-3.85,8.74-3.19,9.44,1.96,1.01,7.44-13.66,14.74-14.51,24.88-.2,2.39,1.31,6.15.62,7.25-.47.75-12.44,7.54-13.14,6.81-2.62-14.8-.07-30.9,4.24-45.16.73-2.43,6.43-18.78,7.22-19.46,1.83-1.58,35.03,12.02,36.16,13.6Z"/><path class="cls-2" d="M489.99,56.91c1.45.37,11.24,9.4,11.7,11.02.58,2.03,1.24,10.54,1.41,13.35,1.34,22.02-2.8,57.69-12.02,77.85-.54,1.19-.05,2.95-2.21,2.27-.74-.23-8.76-11.83-9.05-12.54-1.81-4.43.77-13.29,2.59-17.76,4.4-10.81,13.34-13.12,11.45-26.97l-20.34-47.22c4.6.77,12.39-1.05,16.47,0ZM488.45,70.7c-1.89,1.2-1.63,6.6,1.77,7.61,8.4,2.49,5.22-12.05-1.77-7.61ZM486.18,140.78c4.87,3.08,9.99-4.37,4.38-7.27-5.05-2.61-7.04,5.59-4.38,7.27Z"/><path class="cls-2" d="M449.66,119.37c-3.12-2.76-15.53-9.23-17.1-11.84-2.3-3.83-1.62-11.32-5.38-17.33-7.25-11.59-28-11.37-26.34-3.22.66,3.26,7.69-.71,10.66-.5,7.95.58,15.13,10.41,14.32,18.13-14-8.05-29.79-10.29-44.9-14.73-1.65-.48-1.98.62-1.64-2.29,13.42-7.78,26.5-16.24,41.28-21.42,13.97,14.67,28.73,31.72,29.11,53.2Z"/><path class="cls-2" d="M465.33,57.16c1.32.76,6.21,10.43,7.25,12.61,2.81,5.9,14.17,30.79,14.58,35.41.96,11.08-7.43,14.5-11.22,23.99-1.1,2.77-2.07,10.23-2.43,10.64-1.76,2.01-2.89-2.13-3.09-3.11-3.56-17.99,8.35-25.73.55-46.03-4.88-12.71-11.18-22.16-26.32-20.04-2.6.36-8.16,3.43-9.07,3.21-.55-.13-7.36-7.9-7.48-8.45-.35-1.57.86-1.98,1.92-2.59,4.36-2.54,31.67-7.76,35.31-5.65Z"/><path class="cls-2" d="M552.66,168.56c3.68,4.45,3.73,15.45,4.9,21.22-11.15,1.74-9.86-13.93-18.11-16.54-6.1-1.92-7.76,2.5-12.05,2.88-6.37.56-6.92-7.51-10.19-11.28-4.78-5.52-12.13-5.45-18.69-3.46l4.58-18.14c1.7-1.23,25.23,8.48,28.75,10.36,4.79,2.55,17.65,11.13,20.81,14.96Z"/><path class="cls-3" d="M462.16,239.75c-7.16,1.27-6.39-4.92-9.05-8.54-4.68-6.36-11.77-1.94-18.8-2.79-14.33-1.74-11.66-22.12-15.26-24.48-4.72-3.1-14.62,4.57-23.34-2.79-7.08-5.98-5.51-16.9-9.59-24.48-16.22-.29-26.87.44-33.53-16.44-.94-2.38-5.86-19.48.59-15.35,2.45,1.57,2.87,16.09,10.76,22.18,9.46,7.3,16.87-.52,25.01,4.52s4.68,21.21,11.25,25.09,15.32-3.15,22.81,2.17c6.32,4.49,2.57,14.68,7.88,20.51s10.3,1.55,17.16,2.15c9.25.81,12.85,10.21,14.12,18.24Z"/><path class="cls-3" d="M513.28,757.63c11.96,3.23,21.47,26.42,12.4,35.68-3.16,3.23-13.7,5.52-14.56,8.24-1.57,4.95,7.99,15.08,4.8,25.18-3.91,12.4-25.33,9.11-23,27.9.62,5.01,4.8,10.29,5.51,14.94,1.63,10.61-1.68,19.56-10.12,26.08-2.75,2.12-12.89,6.82-9.71.52,1.18-2.33,8.86-6.45,11.33-10.25,11.41-17.54-15.75-31.84,4.02-49.36,4.22-3.74,13.68-6.76,15.79-10.36,3.99-6.85-6.85-17.4-3.91-26.6,3.42-10.68,27.31-4.34,14.03-28.68-2.47-4.52-7.4-7.58-6.59-13.27Z"/><path class="cls-3" d="M199.43,710.31c11.46,12.75-6.82,24.62-3.94,34.02,1.41,4.62,15.1,5.36,16.76,16.2,1.5,9.84-6.53,17.26-5.44,21.25,1.42,5.21,16.23,7.74,17.93,18.49,2.09,13.24-8.77,23.03-5.61,36.83-13.93-3.08-1.41-21.45-.26-29.23,2.35-16.03-16.41-14.74-17.86-24.79-1.24-8.57,7.16-13.29,5.41-21.24-1.85-8.36-15.32-7.75-16.74-16.21-2.15-12.78,9.42-19.41,6.5-29.24-2.18-7.31-17.28-7.65-17.93-10.47,2.43-6.7,18.01.86,21.18,4.38Z"/><path class="cls-3" d="M462.16,561.15c1.81,1.74-9.99,13.18-11.82,15.99-2.17,3.34-6.15,10.39-6.3,14.21-.27,6.56,7.63,8.32,11.37,12.33,13.59,14.56-10.48,20.78-10.37,30.74.08,6.73,11.77,8.65,12.6,13.65,1.77,10.62-18.31,15.22-6.8,29.44,3,3.71,10.31,5.95,8.48,10.83-6.82,1.1-15.86-8.58-17.49-14.34-3.87-13.67,9.12-18.44,8.99-23.76-.06-2.49-7.21-4.93-9.61-8.53-9.9-14.82,11.98-22.84,11.99-30.04,0-5.5-8.58-7.19-11.96-12.01-10.99-15.64,16.69-42.6,20.92-38.53Z"/><path class="cls-3" d="M98.75,557.76c-1.67,2.18,2.23,2.57,3.45,3.86,5.77,6.11,8.28,14.72,2.29,21.74-3.85,4.51-12.22,4.86-10.3,11.05.73,2.38,10.61,4.88,9.95,14.73-1.03,15.46-25.16,14.63-22.19,29.54.62,3.11,9.25,12.26,2.6,12.24-5.67-.02-9.24-13.77-8.44-18.71,1.59-9.81,20.43-15.14,21.52-21.7,1.68-10.11-11.19-9.77-10.23-19.14.82-7.95,12.56-8.79,14.31-14.25,2.83-8.9-10.03-13.33-9.53-18.61.6-6.38,16.56-8.64,9.84-21.61-1.17-2.25-11.33-9.75-8.93-12.06,2.96-2.85,12.14,6.73,13.65,9.62,4.94,9.38,2.63,15.08-4.55,21.68-1.23,1.13-3.3,1.51-3.42,1.66Z"/><path class="cls-2" d="M553.01,301.08c-2.72.62-1.84-.48-2.53-1.48-1.73-2.51-3.1-6.12-4.95-8.63-3.8-5.16-12.75-13.2-14.98-17.96-3.54-7.57-4.12-24.49-7.06-33.25l20.45,14.18c2.4,2.23,12.7,13.89,13.36,16.15,2.47,8.44-4.54,22.09-4.3,30.99ZM547.18,277.07c2.3-1.44,1.61-10.1-3.6-8.8-6.08,1.52-2.71,12.76,3.6,8.8Z"/><path class="cls-3" d="M247.57,614.47c.32.46,7.27,2.95,9.66,5.68,10.94,12.46-3.58,21.49-2.93,27.84.33,3.15,7.78,7.4,9.38,12.27,2.32,7.06.31,15.7-3.87,21.64-2.14,3.05-8.11,6.91-7.62,1.5.13-1.44,5.41-8.78,6.18-13.18,2.62-14.96-12.06-14.76-11.71-22,.26-5.28,9.23-12.12,8.57-19.23-.84-8.97-13.71-7.89-14.56-13.96-1.1-7.82,20.13-20.21,2.68-28.71-4.22-2.05-13.75-1.5-11.16-7.01,13.73-.82,26.58,6.27,23.03,21.92-.89,3.9-9.3,10.85-7.66,13.24Z"/><path class="cls-3" d="M580.27,416.9c-.3.44-7.15,4.41-8.67,6.1-14.58,16.22,8.59,18.14,8.59,28.56,0,6.29-10.63,11.77-11.03,16.08-.49,5.24,7.45,6.78,8.91,9.13,4.77,7.72-8.73,13.75-9.14,20.3-.37,5.95,7.59,9.71,7.82,12.58.58,7.33-11.35-2.1-12.98-7.5-3.91-12.96,9.34-17.54,8.64-22.11-8.34-5.18-12.35-10.77-6.25-19.88,2.04-3.04,7.77-5.98,7.39-9.71-.32-3.12-12.95-8.27-12.52-18.1.26-5.89,10.31-19.39,16.37-18.91,1.67.13,3.82,2.07,2.86,3.46Z"/><path class="cls-3" d="M530.46,551.92c.19.33,4.42,2.17,6.03,4.75,6.62,10.58-5.83,17.22-5.15,21.98.17,1.19,13.31,4.9,12.63,17.1-.41,7.47-16.05,26.86-20.49,22.18-2.84-3,8.09-10.12,10.21-13.06,3.43-4.77,6.16-10.61,2.3-15.92-2.7-3.72-10.43-5.33-11.2-10.45-.77-5.13,8.03-11.02,7.72-16.84-.26-4.92-10.38-4.21-8.86-12.16.95-4.94,9.34-8.04,9.03-15.03-.32-7.39-10.38-3.05-10.36-7.95.03-5.84,15.75-.88,16.81,7.06,1.08,8.09-10.51,15.19-8.69,18.34Z"/><path class="cls-2" d="M465.56,133c-12.21-7.16-9.52-21.42-13.58-33.54-.78-2.34-1.93-4.98-3.02-7.2-.96-1.98-8.86-13.12-8.37-13.76,13.66-7.05,21.02,4.81,25.18,16.26,4.88,13.43-2.07,24.31-.21,38.24Z"/><path class="cls-2" d="M528.04,360.13c1.41-7.79,3.52-15.52,4.39-23.43,1.94-17.6-.33-35.04-.43-52.66,5.29,6.68,17.15,21.68,16.55,30.08-.45,6.28-12.81,35.27-16.64,41.36-1.01,1.6-2.02,3.96-3.86,4.64Z"/><path class="cls-2" d="M131.67,207.95c1.87,15.53,12.64,27.86,19.24,41.45-4.74,9.96-13.68,17.71-15.84,28.95-1.63.34-1.19-1.28-1.48-2.45-2.39-9.65-3.73-24.34-4.23-34.4-.43-8.49-.98-23.85.04-31.87.2-1.56.79-3.51,2.27-1.69ZM140.61,243.31c-3.82-2.43-10.84,3.03-6.37,7.51,5.6,5.6,9.79-5.32,6.37-7.51Z"/><path class="cls-3" d="M119.56,397.95c-4.46,5.14,4.27,6.44,7.51,9.38,10.19,9.25-1.6,24.03-12.11,26.36-4,.88-8.88.63-4.83-3.69,3.3-3.52,13.74-5.47,14.74-12.6,1.28-9.1-12.09-7.55-12.6-15.8s8.7-10.17,10.09-16.15c2.07-8.94-3.5-8.02-5.71-13.11-3.61-8.3,4.88-10.34,6.56-16.72,1.18-4.48-.59-5.78-.56-8.67.08-5.98,7.29-.94,6.72,6.81-.42,5.82-7.52,13-7.53,14.9-.01,4.87,13.81,9.6,4.65,23.2-2.03,3.01-5.31,4.22-6.94,6.1Z"/><path class="cls-2" d="M480.33,50.09h-26.69c-3.83,0-17.89,5.1-20.27,4.42-.91-.26-9.81-12.18-8.7-13.49,9.45-1.82,21.89-6.96,31.49-6.52,3.5.16,21.05,11.94,24.16,15.59Z"/><path class="cls-2" d="M312.21,37.66c.49.71-.04,2.45-.52,3.35-.51.96-13.97,15.46-15.02,15.74-5.08,1.36-18.04-8.6-24.16-8.94-.46-1.72.45-1.88,1.12-2.84,2.03-2.92,15.78-14.9,18.85-15.32,1.88-.26,19.13,7.13,19.73,8.01Z"/><path class="cls-2" d="M371.32,37.62c.73-1.05,21.81-11.36,23.08-11.14,1.67.29,16.65,11.76,16.64,12.83-3.33,2.06-23.41,13.25-25.37,12.88-.87-.17-12.25-10.57-13.25-11.71-.66-.75-1.81-1.82-1.1-2.85Z"/><path class="cls-2" d="M318.74,43.43c2.09-.54,17.96,9.22,18.43,10.79,1.05,3.46-12.51,13.3-14.28,17.39-1.96.58-16.79-8.9-19.64-10.84-.52-2.22,13.61-16.85,15.49-17.34Z"/><path class="cls-2" d="M311.94,88.38c-3.31,2.66-20.64,3.91-25.8,6-1.98-2.1,9.69-23.86,12.02-27.34,2.15-.36,18.32,8.48,19.29,10.3.65,1.22-4.52,10.24-5.51,11.04Z"/><path class="cls-3" d="M601.46,577.18c4.26-1.33,11.97,2.76,12.85,7.27,2.18,11.1-8.01,16.79-7.72,20.23s7.07,6.52,7.73,11.64c.9,7.02-5.76,11.33-5.78,15.8-.01,3.42,4.96,6.62,5.72,11.42.32,2.01.77,8.82-1.64,9.57-5.32,1.67-3.53-6.63-4.23-9.38s-4.7-5.34-5.36-9.42c-1.43-8.94,5.76-12.68,5.38-16.8s-8.33-7.44-7.72-13.69c.53-5.44,13.89-15.32,6.77-20.5-.61-.44-13.39-3.87-6.01-6.17Z"/><path class="cls-3" d="M464.43,195.45c-.49.48-4.08.14-5.12-1.12-2.13-2.57-1.72-10.59-6.5-12.81-7.31-3.39-18.9,3.61-23.29-6.24-2.37-5.32-.56-13.91-7.74-14.93-8.15-1.17-17.57.65-17.54-11.45,4.26-.8,5.55,4.1,9.01,5.17,5.03,1.56,10.77-.57,15.94,3.37s4.1,15.1,7.96,17.02c5.22,2.61,11.85-3.65,19.92,2.8,2.84,2.27,9.13,16.46,7.35,18.19Z"/><path class="cls-2" d="M328.16,76.19c-1.3-1.91,13.35-14.61,15.48-16.93.95-.16,14.83,11.07,15.11,11.99.86,2.85-3.84,5.65-5.59,7.83-1.89,2.37-3.39,6.85-6.29,7.4-6.6,1.25-12.46-8.58-18.71-10.28Z"/><path class="cls-2" d="M147.57,326.06c-2.66-1.28-3.14-5.38-3.96-7.96-1.84-5.8-6.6-21.33-6.31-26.65.49-8.95,9.81-25.64,15.94-32.4-3.46,22.16-6.51,44.43-5.68,67Z"/><path class="cls-2" d="M387.2,20.58c1.66,1.78-.56,1.94-1.46,2.53-2.06,1.33-19.72,10.8-20.9,10.9-1,.09-14.09-10.16-16.25-11.75,5.37-2.74,15.09-9.74,21.02-9.69,1.23.01,16.92,7.3,17.58,8.01Z"/><path class="cls-2" d="M414.19,45.73c5.1-.87,9.66,6.47,11.64,10.58l-24.97,11.5c-2.64.52-10.27-8.35-8.6-10.94.67-1.03,20.46-10.89,21.93-11.14Z"/><path class="cls-2" d="M364.19,43.42c3.23-.48,13.41,9.11,14.98,12.77-.27,1.61-13.56,10.88-15.06,10.75-.93-.08-14.16-10.87-14.38-11.77-.51-2.08,12.29-11.43,14.46-11.75Z"/><path class="cls-2" d="M446.26,28.53l-27.77,7.98c-.89-.09-12.11-9.49-13.94-11.07-.58-.5-3.13-.81-1.44-2.59.54-.57,14.07-4.29,15.15-4.24,7.45.36,20.01,8.69,28,9.91Z"/><path class="cls-2" d="M333.83,23.95c-4.31.11-12.62,10.16-15.29,10.22-1.23.03-18.73-8.58-18.75-9.63,5.85-4.38,13.98-11.19,21.59-9.12,1.84.5,14.03,6.28,12.45,8.53Z"/><path class="cls-2" d="M164.6,188.65c.24,4.44,7.05,10.09,6.85,14.09-.05.88-5.75,14.77-6.57,16.26-.56,1.01-.72,2.96-2.51,1.44-.87-.74-9.3-18.31-9.14-19.83.17-1.69,9.55-13.37,11.38-11.96Z"/><path class="cls-2" d="M140.77,168.2c-2.93-10.26,2.14-22.4,5.97-32.08.48-1.2.33-3.38,1.96-3.12-1.35,5.96,5.55,20.97,4.39,25.3-.54,2.01-10.95,11.13-12.32,9.9Z"/><path class="cls-2" d="M523.49,119.37l-14.76-4.54v-17.04c2.42-.62,14.76,3.45,14.76,5.11v16.47Z"/><path class="cls-2" d="M148.73,193.19c.1-3.9-5.17-13.14-4.39-16.24.62-2.42,8.81-8.33,10.62-11,1.29,0,5.46,12.96,5.14,15.25-.23,1.67-10.1,13.16-11.38,11.99Z"/><path class="cls-2" d="M284.99,27.36c-.23.32-4.96,2.36-6.82,3.98-2.74,2.4-10.16,11.82-11.36,12.56-1.28.8-5.29-.21-5.62-.68-1.12-1.59,10.72-21.07,12.46-22.16,1.96-1.22,13.14,3.81,11.34,6.3Z"/><path class="cls-2" d="M359.95,8.08c-.28,1.75-2.11,2.14-3.42,2.81-2.01,1.03-14.65,7.07-15.5,7.15-.95.08-16.75-7.03-17.41-7.71-1.6-1.64.09-2.06,1.68-2.26,4.7-.59,9.94.74,14.79-1.12l19.87,1.13Z"/><path class="cls-2" d="M528.16,144.22c-1-1.57,2.31-11.84,2.15-14.63.93-.81,11.85,6.1,12.34,7.59.58,1.74-1.14,12.54-2.73,12.86-1.63-1.65-11.42-5.27-11.77-5.82Z"/><path class="cls-2" d="M538.26,227.26c1.12-1.26,11.83,9.53,12.28,11.03.66,2.2-.57,10.37-2.62,10.52-.65.05-10-7.36-10.3-7.94-1.09-2.04,1.84-10.38.65-13.61Z"/><path class="cls-2" d="M146.46,207.96c2.29-1.6,7.85,10.06,7.95,12.03.16,3.07-4.33,7.04-6.27,9.52-1.21-.04-6.15-10.17-6.26-12.01-.06-1.12,4.14-9.24,4.57-9.54Z"/><path class="cls-2" d="M263.41,23.98l-9.27,15.69c-5.45,1.87-8.59-4.74-6.06-8.89.79-1.3,14.58-7.52,15.33-6.79Z"/><path class="cls-2" d="M249.79,46.69c-.74,5.77-8.43,19.23-13.06,9.05-3.2-7.04,8.21-9,13.06-9.05Z"/><path class="cls-2" d="M372.44,87.56c-4.69-.17-9.87.69-14.34-1-.87-.33-2.31.2-1.53-1.8.55-1.41,5.53-7.62,7.21-7.32.91.16,9.91,9.03,8.67,10.13Z"/><path class="cls-2" d="M240.7,68.27c-.1,1.75-1.79,12.08-2.28,12.49-4.61,3.9-13.04-13.88,2.28-12.49Z"/><path class="cls-2" d="M617.75,741.72c-4.18,4.01-10.84-14.11-9.07-15.89,3.96-4,10.04,14.96,9.07,15.89Z"/><path class="cls-2" d="M237.29,111.42c2.78,4.91-4.37,13.26-8.49,12.49-5.06-.94,3.99-14.31,8.49-12.49Z"/><path class="cls-2" d="M237.3,90.99c-1.54,3.62-.71,7.33-1.13,10.81-.16,1.3.43,2.29-1.69,1.66-8.53-2.52-5.9-12.99,2.81-12.47Z"/><path class="cls-2" d="M403.1,14.9l-8.46,3.39-8.57-5.66c5.9-.6,11.44.59,17.02,2.27Z"/><path class="cls-2" d="M601.85,715.6c-1.76,1.83-12.49-6.42-11.35-10.21,3.48-1.62,13.53,7.94,11.35,10.21Z"/><path class="cls-2" d="M598.44,721.27c-2.51.31-14.01,5.29-14.76,1.7-.95-4.58,12.89-5.99,14.76-1.7Z"/><path class="cls-2" d="M331.55,85.32c-.53,2.91-11.99,2.67-12.48,2.25,3.25-10.28,5.61-5.87,12.48-2.25Z"/><path class="cls-2" d="M604.12,725.83c.9.85-5.85,14.57-9.07,11.34-1.63-1.63,6.11-14.13,9.07-11.34Z"/><path class="cls-2" d="M230.47,86.42c-.14.19-4.29,1.4-4.53,1.14v-6.8c2.67-.72,5.69,4.04,4.53,5.66Z"/><path class="cls-2" d="M230.48,109.14c-.17.23-5.32,1.51-5.67,1.14v-5.67c1.75-.54,6.99,2.68,5.67,4.53Z"/><path class="cls-2" d="M527.47,361.27c.74.38.74.76,0,1.14v-1.14Z"/><path class="cls-2" d="M346.31,738.32c2.06,1.39,1.16,15.86-4.52,13.63-1.15-2.49-.95-17.32,4.52-13.63Z"/><path class="cls-2" d="M340.64,765.58c.76,5.07-2.18,11.6-7.94,11.35-.76-5.07,2.18-11.6,7.94-11.35Z"/><path class="cls-2" d="M350.86,757.62c-3.3-3.36,11.46-9.76,12.49-5.09.91,4.13-9.88,6.16-12.49,5.09Z"/><path class="cls-2" d="M356.54,775.79c-4.52,1.9-10.51-9.94-9.07-11.35,4.33-1.58,11.21,9.09,9.07,11.35Z"/><path class="cls-2" d="M324.75,751.95c5.39-.74,9.18.87,12.46,5.1.06,3.62-14.72,1.15-12.46-5.1Z"/><path class="cls-2" d="M118.06,782.6c-1.4-2.89-2.06-15.79,2.81-14.75,2.92.62,2.98,15.35-2.81,14.75Z"/><path class="cls-2" d="M132.81,805.31c-3.51,3.36-10.99-7.53-10.21-11.34,4.79-2.26,12.1,9.54,10.21,11.34Z"/><path class="cls-2" d="M116.91,793.97c1,3.49-2.71,13.71-7.36,12.48-5.64-1.48,5.66-14.53,7.36-12.48Z"/><path class="cls-2" d="M112.13,785.09c2.74,4.72-6.76,4.17-10.04,1.55-7.93-6.33,7.27-6.32,10.04-1.55Z"/><path class="cls-2" d="M138.49,781.48c2.23,5.22-11.72,8.54-12.48,5.09-.78-3.52,9.79-6.4,12.48-5.09Z"/><path class="cls-2" d="M605.25,821.21c-4.78,1.93-10.86-10.65-9.07-12.48,5.92.07,9.98,6.95,9.07,12.48Z"/><path class="cls-2" d="M598.45,801.91c-1.04-4.46,10.19-13.16,11.35-7.35.84,4.17-7.85,7.72-11.35,7.35Z"/><path class="cls-2" d="M590.48,782.61c1.6,1.57,3.22,13.22,1.14,14.76-3.03-1.09-4.27-5.74-4.42-8.63-.06-1.12.93-8.45,3.29-6.13Z"/><path class="cls-2" d="M585.95,804.18c-4.41.44-7.82-.38-11.5-2.72-1.47-.94-2.73-.11-2.12-2.94,1.72-1.3,14.13.86,13.62,5.67Z"/><path class="cls-2" d="M589.35,811c.45,4.49-1.67,11.77-6.8,12.48-1.23-1.37,2.7-13.04,6.8-12.48Z"/><path class="cls-2" d="M48.78,826.89c-1.22-1.25,1.18-15.6,5.09-14.75,4.91,1.06-1.11,18.82-5.09,14.75Z"/><path class="cls-2" d="M68.08,829.18c2.33,7.13-12.22,6.5-13.62,4.52-2.41-3.39,10.79-7.01,13.62-4.52Z"/><path class="cls-2" d="M44.23,838.26c2.23,4.47-8.9,11.66-10.21,10.21-2.62-2.9,6.33-11.72,10.21-10.21Z"/><path class="cls-2" d="M58.99,851.88c-3.26,3.3-8.65-9.69-7.94-12.48,4.25-.69,9.56,10.84,7.94,12.48Z"/><path class="cls-2" d="M43.09,831.43c-2.98,1.63-14.33-5.02-11.35-7.94,1.69-1.65,13.42,6.12,11.35,7.94Z"/><path class="cls-2" d="M643.87,845.06c-5.43-.51-4.6-7.5-4.53-11.35,5.43.51,4.6,7.5,4.53,11.35Z"/><path class="cls-2" d="M657.5,838.26c-.31,4.56-4.48,8.25-9.07,7.94-1.36-1.22,6.99-9.89,9.07-7.94Z"/><path class="cls-2" d="M645,855.3c.33,1.35-1.39,11.29-3.95,10.2-3.32-1.41.32-10.69,3.95-10.2Z"/><path class="cls-2" d="M658.46,854.32c3.49,5.68-9.26,3.21-8.9-2.43.83-.74,8.43,1.65,8.9,2.43Z"/><path class="cls-2" d="M639.33,849.62c-1.58,3.44-5.86,3.6-9.08,3.39-.56-4.33,6.53-3.23,9.08-3.39Z"/><path class="cls-4" d="M638.39,760.26c-1.2-1.96-3.5-6.65-4.68-7.81-1.76-1.73-5.36-1.93-6.33-3.89-1.68-3.38.25-11.1-6.21-13.66-.26,5.82,2.29,12.93-6.21,11.35-5.51-1.02-6.32-7.83-8.49-10.66-2.24-2.93-3.87,4.22-6.91,5.52-10.09,4.32-11.02-6.81-5.65-13.02-17.87,3.32-20.33-10.86-3.41-13.65-5.58-5.75-7.23-12.54,2.27-14.18-5.2-4.16-12.1-12.18-17.55-15.39-4.89-2.87-7.96,5.83-10.29,10.25-3.67,6.98-7.72,16.59-8.48,24.45-3.54,36.4,23.53,50.65,1.32,89.9-5.48,9.69-13.83,17.84-19.53,27.03-18.47,29.78,5.1,62.47-19.41,93.91,9.02-1.68,18.02-3.55,26.99-5.45l-4.44-64.85c1.72-3.97,5.29-3.11,6.89.5,1.92,16.52,2.18,33.2,3.63,49.76.11,1.21.62,4.94,1.87,5.19,38.18-9.64,78.39-19.81,112.87-39.25,2.57-1.45,8.73-4.34,9.12-6.87-7.33-37.59-17.1-76.32-37.34-109.19ZM572.96,755.38c-5.25-.73-5.53-8.69-.97-10.05,8.53-2.55,10.07,11.31.97,10.05ZM572.3,711.57c5.62,2.71.58,10.41-4.38,7.3-2.44-1.53-.23-9.53,4.38-7.3ZM560.81,840.36c-6.99,4.45-10.17-10.09-1.77-7.61,3.4,1.01,3.66,6.4,1.77,7.61ZM581.41,882.56c6.4,8.21,2.02,10.41-4.53,3.4.54,10.68-6.25,11.63-4.57,0-8.21,6.39-10.41,2.02-3.4-4.53-8.74.04-7.79-6.4,1.14-4.57l-3.4-7.93c3.02-.55,4.45,1.43,6.24,3.38,2.52-7.86,7.03-10.18,5.67,0,1.04-1.03,6.31-4.51,7.39-3.38,1.93,2.02-3.93,6.24-4.54,7.93,9.57-.9,9.36,6.3,0,5.7ZM606.12,852.74c-6.04,6-14.35-4.17-8.35-8.92,6.51-5.14,13,4.3,8.35,8.92ZM592.78,818.95c-8.28,21.97-22.32,4.82-10.23-10.21-19.35.87-20.19-22.3.58-13.66-4.65-20.46,14.19-24.19,14.19-2.25,15.14-15.64,26.31,7.95,6.8,12.51,13.79,14.32,3.76,31.63-11.34,13.62ZM618.71,884.02c-1.01,3.4-6.4,3.66-7.61,1.77-4.45-6.99,10.09-10.17,7.61-1.77ZM618.95,765.06c-5.41,3.77-9.97-4.54-5.01-6.16,5.65-1.85,8.22,3.93,5.01,6.16ZM642.28,797.26c6,4.74-2.31,14.91-8.35,8.92-4.65-4.62,1.84-14.06,8.35-8.92ZM662.96,859.03c-2.15,7.13-13.48-.28-14.54.79-.51,14.68-17.24,13.71-11.37-2.26-16.95,2.42-15.54-10.88-1.13-12.51-5.71-14.17,7.58-23.32,11.36-6.81,1.71,1.49,5.71-6.5,11.31-3.98,6.13,2.75,2.85,11.29-2.21,13.64-.02,1.26,8.98,3.15,6.57,11.12Z"/><path class="cls-4" d="M131.69,904.7c1.08-13.17,1.75-29,3.71-41.76.93-6.04,5.48-7.43,7.6-1.37l-4.92,63.97c9.58.86,19.1,2.32,28.67,3.38.49-.54.93-1.05,1.24-1.51-2.72.16-9.11,1.85-10.83-.49-3.66-4.99,6.25-3.24,9.72-4.62-13.06-11.36-6.11-13.53,4.53-3.4.52-3.42-2.01-15.68,3.33-12.42,1.29.79,1.37,9.27,1.24,11.28,2.32-1.02,5.72-8.52,8.49-7.94,5.46,1.14-5.44,10.06-3.95,11.35,3.19.17,6.47-.22,9.67,0,.96.07,3.9-.6,2.81,1.69-1.64,3.44-9.21,2.97-12.48,2.86.06,2.11,1.4,3.39,2.97,4.52,10.91.63,21.82,1.18,32.72,1.89-.5-3.64-1.27-7.22-2.44-10.71-8.56-25.63-39.39-32.29-51.63-55.12-19.63-36.61,10.9-71.6-4.85-103.04-4.88-9.74-13.73-18.64-18.98-28.72-9.18-17.63-8.8-31.77-5.15-50.96.89-4.67,3.68-9.98,4.2-13.99.2-1.55.02-2.19-1.68-1.66-3.21.99-16.62,10.13-20.25,12.69-53.22,37.37-100.9,121.1-107.25,185.81-.18,1.86-.97,3.94.85,5.36,37.76,21.8,80.23,34.37,122.66,43.71.19-3.56-.28-7.21.02-10.78ZM98.72,721.85l-4.51-6.24c3.82-.64,6.2,1.43,9.07,3.4.98-1.35-1.99-9.26,1.7-9.07l1.73,6.8c7.69-8.79,8.23-4.26,4.54,4.54,10.69-3.52,12.88,3.32,1.14,4.56.58,2.07,4.02,2.27,5.13,4.51,2.58,5.19-6.51,2.96-8.53.02l1.12,7.94c-5.77,1.22-4.89-2.12-5.69-6.81-6.31,8.08-9.36,4.96-4.53-3.4-14.72-.61-1.17-5.54-1.16-6.26ZM67.01,882.04c-4.93,3.46-8.28-4.81-3.92-6.21,4.91-1.57,6.71,4.25,3.92,6.21ZM60.13,839.4c11.24,17.14-6.62,25.36-12.51,6.81-14.43,14.52-27.37,2.85-11.35-11.35-19.05-7.35-8.21-23.69,7.94-11.37-3.02-7.63,7.55-21.48,14.51-14.49,3.05,3.06,2.45,10.88.27,14.48,18.69-2.44,20.02,17.31,1.14,15.92ZM74.27,765.52c-5.09,5.88-13.06-2.74-8.18-7.62,4.25-4.25,13.39,1.6,8.18,7.62ZM91.45,843.91c-8.04-1.76-2.57-11.65,3.72-7.76,1.47.9,2.72,9.17-3.72,7.76ZM115.51,886.82c-6.08,6.07-17.31-4.02-9.9-10.47,7.31-6.38,15.05,5.33,9.9,10.47ZM120.9,803.05c-9.87,17.49-25.7,5.55-13.07-9.08-18.92-1.61-16.57-23.1,3.4-15.91-.83-19.58,17.87-22.21,17.05-1.13,18.64-6.02,21.57,11.94,4.54,15.91,12.49,13.38-2.22,26.79-11.92,10.21ZM128.19,829.66c4.11-2.97,7.63,2.98,5.62,6.19-2.5,3.99-10.99-2.31-5.62-6.19Z"/><path class="cls-4" d="M258.93,934.81c31.99,1.61,63.98,2.28,96,2.76-.34-.14-.76-.29-1.25-.46-1.43-3.51,4.81-2.6,2.88-8l5.66,3.4c-.01-3.41.91-5.16,4.55-4.54v3.42c6.12-2.87,5.58.13,2.27,4.52,3.2-.19,3.78.64,3.25,1.91,7.47.1,14.95.2,22.42.31,11.35.16,22.72.29,34.08.22,2.52-14.68,9.18-29.97,5.79-44.68-5.64-24.47-34.7-30.78-38.16-61.78-3.52-31.66,10.79-46.41,18.87-72.89,11.69-38.33-21.51-61.47-23.53-97.92-8.64,1.95-15.78,6.02-24.75,7.62-20.8,3.7-40.91-.26-60.42-7.61,2.97,28.51-11.64,51.51-20.48,76.62-14.07,39.97,3.48,45.72,9.94,79.84,3.42,18.08-.4,35.68-7.09,52.48-3.54,8.88-8.28,25.45-17.57,11.38.58,18.33-3.78,37.2-12.46,53.4ZM349.73,851.87c-.72,1.08-9.4,1.36-11.35,1.16-2.47,2.17,11.96,9.33,6.21,12.49l-10.75-7.95c-.13,3.49.36,7.03-.32,10.5-.25,1.27-.57,3.88-2.51,3.11-3.87-1.52-2.83-7.94-2.87-11.35-1.69.38-9.09,10.6-10.21,5.09-.32-1.61,7.35-9.23,6.81-9.62-2.71-.39-9.32,1.02-10.85-1.08-3.68-5.03,7.27-3.48,10.85-4.62-2.01-4.02-8.68-4.64-7.94-10.2,5.24-1.11,6.88,4.31,11.34,5.67-1.92-14.62,5.84-18.15,4.56-1.14,3.14.35,3.16-3.31,5.61-5.17,8.94-6.73,2.29,6.38-1.08,9.7,2.07.29,16.62-2.84,12.49,3.4ZM373.63,812.66c-7.13-6.09,3.98-16.4,9.91-10.47,5.35,5.36-1.66,17.52-9.91,10.47ZM395.97,890.69c9.02-2.67,9.96,11.31.97,10.06-5.27-.73-5.52-8.71-.97-10.06ZM399.78,751.45c-5.94,4.18-9.85-5.71-5.03-7.32,6.41-2.14,7.95,5.26,5.03,7.32ZM375.85,704.23c-.55-2.28-6.13-5.14-5.67-7.35,1.11-5.43,7.57,4.32,9.08,2.81-1.36-2.87-2.31-6.77.59-9.07,3.42-.72,3.01,5.9,2.83,7.94,7.41-7.34,11.23-5.64,4.53,3.4,10.62-1.61,13.13,5.46,1.14,4.56-.52,2.7,2.4,3.42,3.46,5.05,4.27,6.58-3.58,3.76-6.86.62,1.24,12.8-5.57,11.19-5.7,0-2.53,1.17-2.91,6.12-6.8,5.67-.64-3.83,1.44-6.2,3.4-9.07-10.53,1.23-10.69-5.76,0-4.57ZM328.65,680.33c2.88-4.03,8.78,1.39,6.16,5.59-2.06,3.3-9.29-1.21-6.16-5.59ZM336.1,748.53c-2.4-7.31,5.58-20.74,13.31-14.41,3.46,2.83,2.58,9.26,2.61,13.27,17.99-5.96,22.39,10.1,5.7,16.46,8.57,9.62,2.73,24.36-9.7,14.23-1.95-1.59-2.05-3.98-3.94-4.56-.51,9.45-16.53,11.45-17.15,1.71-.31-4.88,3.28-7.5,3.51-11.94-19.03-2.26-12.08-23.49,5.67-14.77ZM311.92,718.1c8.54-2.57,11.27,7.45,3.76,9.54-7.51,2.09-9.31-7.87-3.76-9.54ZM311.12,799.64c-1.79-.04-5.2.53-6.33-1.05-4.16-5.83,8.53-9.94,6.33,1.05ZM306.31,920.29c5.68,5.68-3.1,16.99-9.66,10.79-7.47-7.06,3.57-16.88,9.66-10.79Z"/><path class="cls-1" d="M402.82,437.65c5.91,5.92-13.51,19.12-17.97,21.77-25.21,14.92-60.04,16.71-85.68,1.82-2.47-1.43-16.29-10.4-10.03-12.39,3.86-1.22,15.75,7.5,20.87,9.5,27.21,10.65,57.83,6.11,80.01-13.07,3.14-2.72,8.09-12.36,12.81-7.63Z"/><path class="cls-1" d="M326.46,318.12c4.04-.94,4.1,8.75,4.01,10.82-.73,17.87-6.47,37.59-6.9,54.53-.28,10.83,6.31,15.54,16.51,16.39,3.55.3,16.18-2.77,15.27,2.74-1.24,7.47-32.53,5.94-37.35-11.3-3.18-11.4,4.25-40.79,5.59-54.46.61-6.21-2-13.94,2.87-18.72Z"/><path class="cls-1" d="M433.39,306.01c10.25,10.34,4.16,35-13.21,29.62-5.66-1.75-8.47-12.59-7.91-17.96,1.07-10.3,11.8-21.06,21.13-11.66Z"/><path class="cls-1" d="M265.31,306c8.95,8.92,4.31,34.93-12.18,29.77-19.13-5.99-5.1-46.99,12.18-29.77Z"/><path class="cls-1" d="M213.59,282.77c-5.64-3.56,6.77-11.75,9.71-13.3,12.88-6.8,33.02-9.28,47.21-6.72,3.73.67,25.31,6.12,17.41,12.3-3.49,2.74-7.17-.94-10.87-1.81-17.04-4-32.7-4.25-48.89,3.37-3.45,1.63-10.67,8.63-14.58,6.16Z"/><path class="cls-1" d="M165.34,111.56c7.79-2.63,7.71,7.66,3.03,8.83s-6.94-7.51-3.03-8.83Z"/><path class="cls-1" d="M512.94,185.45c8.59-2.56,8.59,11.23,0,8.67-4.11-1.23-4.17-7.42,0-8.67Z"/><path class="cls-1" d="M539.1,198.02c3.52,3.52-.38,10.76-5.37,8.29-5.95-2.95-.11-13.77,5.37-8.29Z"/><path class="cls-1" d="M550.92,213.8c1.72-2.7,8.69-1.3,7.81,4.87-1.25,8.77-11.65,1.19-7.81-4.87Z"/><path class="cls-1" d="M488.45,70.7c6.99-4.45,10.17,10.09,1.77,7.61-3.4-1.01-3.66-6.4-1.77-7.61Z"/><path class="cls-1" d="M486.18,140.78c-2.66-1.68-.67-9.88,4.38-7.27,5.61,2.9.49,10.35-4.38,7.27Z"/><path class="cls-1" d="M547.18,277.07c-6.31,3.95-9.68-7.29-3.6-8.8,5.21-1.3,5.9,7.36,3.6,8.8Z"/><path class="cls-1" d="M140.61,243.31c3.43,2.18-.77,13.1-6.37,7.51-4.48-4.47,2.55-9.93,6.37-7.51Z"/></g></svg>