<?xml version="1.0" encoding="UTF-8"?><svg id="Layer_2" xmlns="http://www.w3.org/2000/svg" viewBox="0 0 260.48 252.53"><defs><style>.cls-1{fill:#fff;}</style></defs><g id="OBJECTS"><path d="M87.49,215.7c-3.49-1.93-7.53-.67-11.23-1.26C-5.4,201.45-21.56,100.54,28.18,43.71,84.85-21.03,209.43-13.97,249.02,65.66c42.14,84.74-38.79,192.02-131.82,157.01-6.94,11.03-15.46,21.87-27.89,27.03-22.5,9.34-7.64-6.6-4.39-16.38,1.09-3.28,4.11-15.16,2.57-17.62ZM113.8,217.75c8.7.22,16.6,4.34,25.42,5.66,67.9,10.16,123.91-57.1,115.11-122.1C238.75-13.8,63.51-27.32,15.99,71.49c-23.22,48.28-8.05,120.63,49.04,135.21,4.91,1.25,25.06,3.2,26.7,5.26,4.25,5.35-2.99,27.68-7.09,33.56,13.43-4.16,23.04-15.56,29.16-27.77Z"/><path class="cls-1" d="M113.8,217.75c-6.12,12.21-15.73,23.61-29.16,27.77,4.1-5.88,11.35-28.21,7.09-33.56-1.64-2.07-21.8-4.01-26.7-5.26C7.95,192.12-7.23,119.77,15.99,71.49,63.51-27.32,238.75-13.8,254.33,101.31c8.8,65.01-47.21,132.27-115.11,122.1-8.82-1.32-16.72-5.44-25.42-5.66ZM193.54,113.66c34.9,6.32,47.5-44.7,15.2-57.67l-79.46-14.15c-1.8.58-3.58,6.49-4.42,8.62-4.5,11.36-7.44,23.43-12.27,34.68-6.58,3.83-49.68,17.86-51.42,21.51l2.7,49.25,2.55,2.45,86.16,25.81c5.9-4.3,35.82-17.19,38.42-21.61,2.59-4.41,1.25-14.1,1.56-19.42.11-1.96.95-3.84,1.03-5.96.3-7.81-.31-15.71-.03-23.51ZM103.13,58.72c-2.8.59-.93,10.23.98,11.96,2.06,0,2.84-12.77-.98-11.96ZM85.14,62.73c-4.34,1.89,2.82,12.94,4,12.95,4.02.04-2.51-11.78-4-12.95ZM68.66,75.7c-.44,1.89,1.07,2.36,1.99,3.49.85,1.04,7.21,7.83,7.99,3.98.33-1.61-8.62-8.72-9.98-7.47ZM44.85,167.77c-4.67,13.46,26.84,8.21,16.77-.63-4.74-4.16-11.78-1.83-16.77.63ZM91.37,189.33c1.31-1.39,1.52-5.38,1.33-7.26-.92-9.01-22.29-6.96-18.35,4.33,2.01,5.78,13.32,6.88,17.02,2.93ZM103.87,178.84c-6.32,6.23,10.6,11.87,12.62,4.05,1.27-4.9-9.58-7.05-12.62-4.05Z"/><path d="M193.54,113.66c-.28,7.81.34,15.71.03,23.51-.08,2.13-.92,4.01-1.03,5.96-.31,5.32,1.03,15.02-1.56,19.42-2.6,4.42-32.52,17.31-38.42,21.61l-86.16-25.81-2.55-2.45-2.7-49.25c1.75-3.65,44.84-17.68,51.42-21.51,4.83-11.25,7.77-23.32,12.27-34.68.84-2.13,2.62-8.04,4.42-8.62l79.46,14.15c32.31,12.97,19.7,63.99-15.2,57.67ZM207.51,59.72l-70.92-12.99,5.74,9.98c20.78,3.82,41.34,9.6,62.1,12.9l3.08-9.89ZM133.3,49.04c-.78-.71-2.45-1.78-3.2-.33l-12.48,36.96c7.87.59,10.16,1.21,15.49-4.98,7.31-8.51,9.03-23.63.2-31.66ZM142.59,58.71l.12,8.36,1.56,1.44,53.84,13.14c2.31-.06,5.91-8.72,2.7-9.75l-58.23-13.19ZM194.53,110.66c27.31,1.51,39.22-32.36,17.48-48.93l-17.48,48.93ZM195.47,94.64l2.92-8.66-1.53-2.12-55.23-13.13-2.04,8.95,55.89,14.95ZM160.7,97.53c.51.43,4.14.03,5.92.58,2.92.9,4.61,4.65,7.01,5.98,1.5.83,14.14,4.73,15.41,4.62,3.91-1.14,3.11-7.42,5.42-10.56l-56.39-17.13-8.46,7.65c4.48-2.56,6.99,1.83,9.56,2.05,2.08.18,2.94-1.54,4.18-1.83,1.14-.26,13.91,3.54,15.2,4.31,2.24,1.32,1.7,3.94,2.16,4.33ZM137.54,92.79c-2.88-1.6-6.42-.58-9.22-1.34-1.71-.46-2.88-2.54-5.31-2.77-.69-.06-10.15.09-10.68.19-1.39.27-3.17,2.53-4.82,3.22-3.1,1.3-6.75.97-8.89,4.09-.33.74,6.68.7,4.82,6.79-2.14,7.01-20.12,3.59-10.82-4.8-4.87-1.28-5.18,4.57-6.5,6.49-1.13,1.65-6.73,1.37-5.48,5.99,17.76,4.19,35.53,8.58,53.16,13.28,5.41,1.44,16.11,6.46,21.01,5.53,2.76-.52,17.85-9.5,21.4-11.64,1.15-.69,4.87-2.11,4.29-3.61-2.25-5.78-8.34-5.41-10.43-7.56-2.25-2.31-1.92-6.4-7.96-6.04.45,4.36-16.95,12.43-18.52,11.62-3.67-5.05-6.95-13.06-6.04-19.45ZM100.55,99.75c-1.5-2.32-6.84-.18-7.9,2.42,1.89,2.64,4.89,1.37,7.39.59.99-.21.75-2.64.52-3.01ZM83.63,101.68l-14.97,5.97,8.9,1.94c.4-1.64.96-3.13,2.05-4.46,1.39-1.69,3.53-1.79,4.03-3.45ZM68.51,111.81l-4.86-.64,3.98,42.76,3.02,1.68-2.14-43.8ZM95.58,118.7l-24.92-6.04,1.12,7.86,22.38,5.96c2.13-.36,1.5-6.03,1.41-7.78ZM158.57,170.6v-37.96c-1.92-.29-2.68.78-2.99,2.5-.79,4.35.27,11.19.04,16.02-.44,8.99-2.22,18.31-.55,27.43l32.31-18.13,3.15-44.8c-.9-.11-1.28-.14-2.01.48-3.71,3.18-1.33,33.74-3.49,40.47l-26.47,13.99ZM184.54,118.66l-22.53,11.93c-1.85,1.48-1.52,3.9-1.44,6.04l22.96-12.49,1-5.48ZM114.61,123.65l-16.98-4c-.27,10.46-1.74,19.65,11.68,19.67,7.07.01,3.11-10.94,5.3-15.68ZM116.66,134.68c-.72,8.81-8.08,8.98-14.84,6.25-9.1-3.68-4.68-9.7-7.17-11.81l-22.99-6.47c-.04,3.3-.32,11.06,2.64,12.84l68.28,18.14.54-12.04-26.47-6.9ZM143.45,131.77l-26.84-7.12c.1,1.68-.37,3.76.16,5.33,1.13,3.38,22.21,6.09,26.33,8.64l.35-6.85ZM184.54,127.65l-22.56,10.94-1.41,8.03c4.07-2.01,21.66-8.68,22.74-11.71.67-1.88.33-5.1,1.22-7.26ZM149.57,179.59l2.03-43.46c-.28-2.66-3.71-3.64-6.02-3.49l-1.01,43.46c-.34,1.81,4.31,4.23,4.99,3.48ZM142.48,156.72l-69.82-19.08,1.07,11.9c23.24,4.8,45.73,13.34,68.85,18.07l-.1-10.89ZM183.54,139.64c-.83-.87-21.19,8.57-21.98,9.48-1.98,2.25-.65,6.58-.98,9.5l21.53-10.93,1.44-8.04ZM182.54,150.63c-3.86,1.88-20.88,8.75-21.78,11.68-.42,1.37-.19,2.89-.19,4.29.77.88,20.21-9.59,20.99-10.47,1.47-1.67,1-3.55.98-5.5ZM142.58,176.59c0-2.18.69-4.86-1.66-5.83l-67.26-19.14.45,4.03,68.47,20.93Z"/><path d="M91.37,189.33c-3.7,3.95-15.01,2.84-17.02-2.93-3.94-11.29,17.44-13.34,18.35-4.33.19,1.89-.02,5.87-1.33,7.26ZM89.63,182.58c-.92-3.99-11.36-3.52-12-1.49l.6,2.51,11.4-1.03Z"/><path d="M44.85,167.77c4.99-2.46,12.03-4.79,16.77-.63,10.07,8.84-21.44,14.09-16.77.63ZM59.66,171.59c.54-5.66-11.45-3.82-11.98-1.47-.88,3.9,9.77,2.51,11.98,1.47Z"/><path d="M103.87,178.84c3.05-3,13.89-.85,12.62,4.05-2.03,7.82-18.95,2.19-12.62-4.05ZM107.26,179.71c-5.43,1.65,3.69,6.85,6.33,2.38-1.56-2.14-3.67-3.19-6.33-2.38Z"/><path d="M85.14,62.73c1.49,1.17,8.01,12.98,4,12.95-1.18-.01-8.34-11.06-4-12.95Z"/><path d="M103.13,58.72c3.83-.81,3.05,11.96.98,11.96-1.92-1.73-3.79-11.37-.98-11.96Z"/><path d="M68.66,75.7c1.36-1.25,10.31,5.86,9.98,7.47-.78,3.85-7.14-2.94-7.99-3.98-.92-1.13-2.43-1.6-1.99-3.49Z"/><path class="cls-1" d="M137.54,92.79c-.91,6.38,2.38,14.39,6.04,19.45,1.58.81,18.97-7.26,18.52-11.62,6.04-.36,5.71,3.73,7.96,6.04,2.09,2.15,8.18,1.78,10.43,7.56.58,1.49-3.14,2.91-4.29,3.61-3.55,2.14-18.63,11.12-21.4,11.64-4.9.93-15.6-4.09-21.01-5.53-17.64-4.7-35.4-9.09-53.16-13.28-1.25-4.63,4.35-4.34,5.48-5.99,1.31-1.92,1.62-7.77,6.5-6.49-9.29,8.39,8.69,11.81,10.82,4.8,1.86-6.09-5.15-6.05-4.82-6.79,2.15-3.13,5.79-2.79,8.89-4.09,1.64-.69,3.42-2.95,4.82-3.22.53-.1,9.99-.26,10.68-.19,2.43.22,3.6,2.31,5.31,2.77,2.8.76,6.33-.26,9.22,1.34ZM111.86,99.43c2.34,2.31,12.65,3.12,10.55-4.04-2.32-7.92-16.16-1.51-10.55,4.04ZM132.58,113.66c2.18-5.14-1.78-9.43-7.26-7.79-2.62.79-5.79,5.35-1.73,6.79.18-2.73,2.74-4.85,5.4-3.93,2.88,1-.05,5.84,3.59,4.92ZM113.6,112.65c.99-8.25-9.98-8.24-8.98,0,2.34-1.48,1.61-4.23,5.38-2.88,1.87.67.7,3.72,3.59,2.88ZM169.55,115.65c2.38-2.36-5.44-8.34-7.98-2.48l1.49,2.47c2.44-4.85,4.61,1.88,6.49.01ZM145.83,116.9c-6.19,6.11,9.67,11.16,11.63,5.09,1.64-5.1-8.5-8.18-11.63-5.09Z"/><path class="cls-1" d="M142.48,156.72l.1,10.89c-23.12-4.72-45.61-13.27-68.85-18.07l-1.07-11.9,69.82,19.08Z"/><path class="cls-1" d="M116.66,134.68l26.47,6.9-.54,12.04-68.28-18.14c-2.96-1.78-2.68-9.54-2.64-12.84l22.99,6.47c2.49,2.11-1.93,8.14,7.17,11.81,6.76,2.73,14.12,2.56,14.84-6.25Z"/><polygon class="cls-1" points="195.47 94.64 139.58 79.69 141.62 70.73 196.85 83.86 198.38 85.98 195.47 94.64"/><path class="cls-1" d="M207.51,59.72l-3.08,9.89c-20.76-3.3-41.32-9.08-62.1-12.9l-5.74-9.98,70.92,12.99Z"/><path class="cls-1" d="M142.59,58.71l58.23,13.19c3.21,1.04-.39,9.69-2.7,9.75l-53.84-13.14-1.56-1.44-.12-8.36Z"/><path class="cls-1" d="M160.7,97.53c-.46-.39.08-3.01-2.16-4.33-1.29-.76-14.06-4.57-15.2-4.31-1.24.29-2.1,2-4.18,1.83-2.57-.22-5.08-4.61-9.56-2.05l8.46-7.65,56.39,17.13c-2.31,3.13-1.51,9.41-5.42,10.56-1.28.11-13.91-3.78-15.41-4.62-2.4-1.33-4.08-5.08-7.01-5.98-1.79-.55-5.41-.15-5.92-.58Z"/><path class="cls-1" d="M133.3,49.04c8.83,8.03,7.12,23.15-.2,31.66-5.33,6.2-7.62,5.57-15.49,4.98l12.48-36.96c.75-1.46,2.42-.38,3.2.33Z"/><path class="cls-1" d="M158.57,170.6l26.47-13.99c2.15-6.73-.22-37.29,3.49-40.47.73-.62,1.11-.59,2.01-.48l-3.15,44.8-32.31,18.13c-1.68-9.11.1-18.44.55-27.43.24-4.83-.83-11.67-.04-16.02.31-1.73,1.07-2.8,2.99-2.5v37.96Z"/><path class="cls-1" d="M194.53,110.66l17.48-48.93c21.74,16.56,9.83,50.43-17.48,48.93ZM199.53,106.66c17.8-.02,27.26-26.16,14.48-37.94-2.76-.01-12.49,33.15-14.48,37.94Z"/><path class="cls-1" d="M142.58,176.59l-68.47-20.93-.45-4.03,67.26,19.14c2.35.97,1.65,3.65,1.66,5.83Z"/><path class="cls-1" d="M149.57,179.59c-.68.75-5.34-1.67-4.99-3.48l1.01-43.46c2.31-.15,5.74.83,6.02,3.49l-2.03,43.46Z"/><path class="cls-1" d="M114.61,123.65c-2.19,4.73,1.77,15.69-5.3,15.68-13.42-.03-11.96-9.21-11.68-19.67l16.98,4ZM106.61,135.65c-1.29-3.8,3.46-6.67,1.08-9.57-5.62-6.85-5.01,6.34-4.07,9.57h2.99Z"/><path class="cls-1" d="M183.54,139.64l-1.44,8.04-21.53,10.93c.33-2.92-1-7.25.98-9.5.79-.9,21.15-10.34,21.98-9.48Z"/><path class="cls-1" d="M184.54,127.65c-.89,2.16-.55,5.38-1.22,7.26-1.09,3.03-18.67,9.7-22.74,11.71l1.41-8.03,22.56-10.94Z"/><path class="cls-1" d="M143.45,131.77l-.35,6.85c-4.12-2.55-25.19-5.26-26.33-8.64-.53-1.57-.06-3.65-.16-5.33l26.84,7.12Z"/><path class="cls-1" d="M95.58,118.7c.09,1.75.71,7.42-1.41,7.78l-22.38-5.96-1.12-7.86,24.92,6.04Z"/><polygon class="cls-1" points="68.51 111.81 70.64 155.62 67.62 153.94 63.64 111.18 68.51 111.81"/><path class="cls-1" d="M184.54,118.66l-1,5.48-22.96,12.49c-.08-2.14-.41-4.56,1.44-6.04l22.53-11.93Z"/><path class="cls-1" d="M182.54,150.63c.02,1.95.49,3.83-.98,5.5-.78.88-20.21,11.35-20.99,10.47,0-1.4-.23-2.93.19-4.29.9-2.93,17.91-9.8,21.78-11.68Z"/><path class="cls-1" d="M83.63,101.68c-.5,1.67-2.64,1.76-4.03,3.45-1.09,1.33-1.65,2.82-2.05,4.46l-8.9-1.94,14.97-5.97Z"/><path class="cls-1" d="M100.55,99.75c.24.37.47,2.79-.52,3.01-2.49.78-5.49,2.05-7.39-.59,1.06-2.6,6.41-4.74,7.9-2.42Z"/><path class="cls-1" d="M89.63,182.58l-11.4,1.03-.6-2.51c.64-2.03,11.08-2.5,12,1.49Z"/><path class="cls-1" d="M59.66,171.59c-2.21,1.04-12.85,2.43-11.98-1.47.53-2.35,12.52-4.19,11.98,1.47Z"/><path class="cls-1" d="M107.26,179.71c2.66-.81,4.77.24,6.33,2.38-2.64,4.47-11.76-.73-6.33-2.38Z"/><path d="M145.83,116.9c3.13-3.09,13.27,0,11.63,5.09-1.96,6.07-17.82,1.01-11.63-5.09Z"/><path d="M111.86,99.43c-5.61-5.54,8.23-11.95,10.55-4.04,2.1,7.16-8.21,6.35-10.55,4.04Z"/><path d="M132.58,113.66c-3.64.92-.71-3.93-3.59-4.92-2.67-.92-5.22,1.2-5.4,3.93-4.06-1.44-.89-6.01,1.73-6.79,5.48-1.64,9.45,2.65,7.26,7.79Z"/><path d="M113.6,112.65c-2.89.84-1.72-2.21-3.59-2.88-3.77-1.35-3.05,1.41-5.38,2.88-1-8.24,9.97-8.25,8.98,0Z"/><path d="M169.55,115.65c-1.88,1.86-4.05-4.86-6.49-.01l-1.49-2.47c2.54-5.86,10.36.11,7.98,2.48Z"/><path d="M199.53,106.66c1.99-4.79,11.72-37.95,14.48-37.94,12.78,11.77,3.32,37.92-14.48,37.94ZM203.53,103.67c11.54-4.2,18.59-20.73,10.47-30.96l-10.47,30.96Z"/><path d="M106.61,135.65h-2.99c-.94-3.23-1.55-16.42,4.07-9.57,2.38,2.9-2.37,5.77-1.08,9.57Z"/><path class="cls-1" d="M203.53,103.67l10.47-30.96c8.11,10.23,1.06,26.77-10.47,30.96Z"/></g></svg>