<?xml version="1.0" encoding="UTF-8"?><svg id="Layer_2" xmlns="http://www.w3.org/2000/svg" viewBox="0 0 349.98 345.57"><defs><style>.cls-1{fill:#fff;}</style></defs><g id="OBJECTS"><path d="M298.4,215.91c-3.92,50.33-65.02,69.56-101.62,37.81-20.46,27.79-58.69,35.85-88.14,16.99-12.47-7.99-18.63-18.5-23.96-32-46.6,22.16-94.13-28.85-66.61-73.39-38.37-33.27-11.21-98.97,40.11-92.64.13-39.78,48.7-63.57,81.91-44.42,1.67.96,6.07,5.12,7.07,4.42C164.37-4.55,215.78-9.61,245.69,15.65c8.7,7.35,12.69,15.58,16.95,25.9,41.2-14.23,77.91,29.45,59.6,68.48,47.01,27.3,31.08,101.52-23.85,105.88ZM258.27,47.59c-7.79-39.27-56.98-52.87-88.79-33.1-10.45,6.49-15.37,15.58-20.91,26.12-6.15-2.83-9.82-7.83-16.41-10.42-26.07-10.23-60.38,4.68-67.51,32.46-.95,3.69-1.18,13.67-2.92,15.14-5.27.57-10.59-.62-15.95-.02-33.46,3.75-52.05,46.39-32.84,73.62,2.31,3.27,10.92,10.36,11.27,12.83.5,3.57-3.41,6.77-4.92,10.06-15.21,33.39,13.9,68.23,49.27,64.27,7.25-.81,13.56-5.2,20.51-5.8,8.91,43.65,64.96,56.5,95.74,26.56,2.62-2.55,8.32-12.47,10.9-12.7s7.49,5.18,10.14,6.87c21.26,13.56,44.39,14.44,65.63,0,14.84-10.09,20.96-24.99,21.85-42.64,3.48-1.93,7.42-.73,11.08-1.43,47.25-9.04,55.08-77.79,10.68-96.38.97-6.13,4.96-10.75,5.82-17.12,3.25-23.96-9.8-45.33-33.73-50.75-11.32-2.57-18,.11-28.91,2.42Z"/><path d="M244.48,271.79c20.85-2.47,29.46,27.46,9.91,35.95-26.69,11.6-38.57-32.56-9.91-35.95ZM242.42,277.78c-3.52.73-6.63,3.69-8.12,6.87-6.94,14.83,12.5,26.07,22.41,14.42,8.82-10.37-.55-24.12-14.3-21.29Z"/><path d="M240.9,318.84c16.56-.51,18.91,26.31.84,26.73-18.04.42-18.28-26.2-.84-26.73ZM238.97,324.69c-9.06,1.98-7.1,16.96,3.5,15.63,10.71-1.34,8.32-18.21-3.5-15.63Z"/><path class="cls-1" d="M258.27,47.59c10.92-2.31,17.59-4.99,28.91-2.42,23.93,5.42,36.98,26.79,33.73,50.75-.86,6.37-4.85,10.99-5.82,17.12,44.4,18.6,36.58,87.34-10.68,96.38-3.66.7-7.6-.5-11.08,1.43-.9,17.65-7.01,32.55-21.85,42.64-21.24,14.44-44.37,13.56-65.63,0-2.65-1.69-7.65-7.1-10.14-6.87s-8.28,10.15-10.9,12.7c-30.78,29.95-86.83,17.1-95.74-26.56-6.96.6-13.26,4.99-20.51,5.8-35.37,3.96-64.48-30.88-49.27-64.27,1.5-3.3,5.42-6.49,4.92-10.06-.35-2.47-8.96-9.56-11.27-12.83-19.22-27.23-.62-69.88,32.84-73.62,5.36-.6,10.68.59,15.95.02,1.74-1.47,1.98-11.45,2.92-15.14,7.12-27.79,41.43-42.69,67.51-32.46,6.59,2.58,10.26,7.59,16.41,10.42,5.54-10.55,10.45-19.63,20.91-26.12,31.81-19.76,81-6.17,88.79,33.1ZM208.16,41.68c-2.31-.3-6.05.7-8.02-.48-2.09-1.26-1.23-6.99-4.97-6.52-.98,6.84-3.05,8.33-10.02,8-1.03,4.17,3.94,3.64,5.78,6.46l-1.76,7.53,7.67-3.84,6.8,3.84c2.66-.48-1.15-6.66-.52-9.3.26-1.12,5.89-2.75,5.04-5.7ZM230.31,61.81c-3.01,4.76,5.82,10.66,6.88,3.32.87-6.02-5.92-4.84-6.88-3.32ZM97.41,63.93c-2.92,3.31,1.59,9.73,6.3,5.75,3.7-3.13-2.17-10.42-6.3-5.75ZM278.16,104.68l-.55-10.99c19.21-10.88,1.36-7.81-1.55-11.41-3.94-4.87.75-20.93-11.55-.7l-10.35-.89c-1.77,4.67,5.91,7.3,5.98,10.47.06,2.56-4.49,6.8-2.98,10.52,4.37.9,6.53-3.04,10.35-3.85,3.49,2.4,5.69,7.27,10.64,6.85ZM166.16,77.68c-52.35-1.27-82.42,60.31-48.51,101.01,28.18,33.81,81,29.87,102.49-8.52-.2-3.8-10.91,1.51-12.97,2.01-50.94,12.4-84.84-46.08-48.66-85.16,1.1-1.19,10.01-7.04,7.65-9.34ZM221.16,94.68c-5.47-1.32-3.61,6.88-6.97,8.52-2.86,1.39-6.81-.9-9,1.98l6.87,6.15-1.89,9.34,9.5-5.03,9.49,5.03-1.85-9.29c.81-3.41,15.82-8.87-4.03-8.83l-2.12-7.88ZM69.31,105.54l-3.64-7.84-3.64,8.84-7.86.15c-1.25,4.11,5.2,4.68,5.76,7.62.48,2.51-3.43,6.33-.28,8.35l7.18-4.82,8.32,3.84-1.89-9.32c.68-2.08,6.17-2.66,4.89-6.67l-8.86-.14ZM276.3,127.54c4.76,3.01,10.66-5.82,3.32-6.88-6.02-.87-4.84,5.92-3.32,6.88ZM244.79,127.75c-4.11,1.34-.94,10.2,4.44,6.48,2.84-1.96-.21-7.85-4.44-6.48ZM39.8,139.79c-3.31,1.11-2.6,10.85,4.37,7.39,4.41-2.19,1.28-9.28-4.37-7.39ZM300.16,140.68c-3.5-.82-3.23,5.28-4.11,5.87-1.17.78-5.62-.99-6.87,1.64l4.88,4.14-.89,7.34c2.41.3,3.48-2.59,5.65-2.79,2.76-.26,5.32,4.37,7.35,1.27l-1.87-5.88,4.85-4.1c-4.76-2.96-8.53.27-8.99-7.5ZM80.84,144.82c-4.31,1.18-1.48,6.82,1.82,5.85,2.45-.72,2.31-6.97-1.82-5.85ZM261.42,161.43c5.62,5.42,11.58-5.67,4.2-6.77-4.5-.67-6.77,4.28-4.2,6.77ZM69.95,172.91c-1.1-.6-2.56-.12-3.78-.24,0,2.64-.15,8.65-1.99,10.52-3.61,3.67-19.92,1.04-1.5,10.47l.49,11.01c4.3,2.02,8.47-6.57,10.48-6.73,1.13-.09,10.67,6.58,11.52,2.21l-4.73-9.99c2.47-3.13,6.36-5.96,5.73-10.48l-10.29.85c-2.37-.61-4.89-7.07-5.92-7.63ZM268.16,198.68c-11.8,1.52-8.18-1.61-12.13-7.37-.82-1.19-1.17-1.98-2.85-1.63-2.39,8.43-.57,7.99-8.55,8.96-8.7,1.06,1.69,5.11,2.39,7.76.59,2.23-.9,5.69-1.81,7.79l2.31,1.36c8.51-7.7,8.12-2.35,16.64.11.43-3.09-2.71-6.29-1.86-9.29.79-2.8,7.08-3.32,5.86-7.7ZM131.16,216.68c-2.55-2.07-3.32,6.35-4.12,6.86l-5.87.14c-1.27,3.8,3.23,3.12,3.87,5.68l-.86,6.31c2.54.47,4.38-2.98,6.49-2.98s3.96,3.45,6.49,2.98l-1.67-6.52,4.65-4.98-6.53-1.38-2.46-6.12ZM170.43,239.43c3.33,3.4,9.92-2.13,5.33-5.84-4.05-3.27-8.84,2.26-5.33,5.84Z"/><path class="cls-1" d="M242.42,277.78c13.75-2.83,23.12,10.92,14.3,21.29-9.91,11.66-29.35.41-22.41-14.42,1.49-3.18,4.6-6.15,8.12-6.87Z"/><path class="cls-1" d="M238.97,324.69c11.82-2.58,14.21,14.28,3.5,15.63-10.6,1.33-12.56-13.65-3.5-15.63Z"/><path d="M166.16,77.68c2.36,2.31-6.55,8.16-7.65,9.34-36.18,39.08-2.28,97.55,48.66,85.16,2.06-.5,12.77-5.82,12.97-2.01-21.49,38.39-74.31,42.33-102.49,8.52-33.91-40.69-3.84-102.27,48.51-101.01ZM156.17,82.69c-35.19,5.24-56.61,41.88-45.04,75.53,9.03,26.27,37.07,42.69,64.43,38.36,13.4-2.12,27.31-10.21,35.6-20.89-28.09,8.79-58.42-5.04-68.74-32.77-8.03-21.57-2.22-44.12,13.74-60.23Z"/><path d="M69.95,172.91c1.03.56,3.55,7.02,5.92,7.63l10.29-.85c.63,4.52-3.26,7.34-5.73,10.48l4.73,9.99c-.85,4.37-10.39-2.3-11.52-2.21-2.01.16-6.19,8.75-10.48,6.73l-.49-11.01c-18.42-9.44-2.11-6.8,1.5-10.47,1.84-1.87,2-7.88,1.99-10.52,1.22.11,2.68-.36,3.78.24ZM72.41,183.42c-.99-.98-1-3.79-2.74-4.72l-1.96,7.02-6.54,1.97c4.51,3.99,7.31,3.52,6.01,10.99,4.11-3.97,6.62-5.68,11.98-2-2.59-6.14-3.05-8.19,2.01-12.99-.82-.64-6,2.46-8.76-.27Z"/><path d="M278.16,104.68c-4.96.42-7.15-4.45-10.64-6.85-3.82.8-5.98,4.75-10.35,3.85-1.51-3.73,3.03-7.97,2.98-10.52-.07-3.16-7.76-5.8-5.98-10.47l10.35.89c12.3-20.22,7.62-4.17,11.55.7,2.91,3.6,20.75.52,1.55,11.41l.55,10.99ZM280.17,86.69l-6.6-.91-3.38-7.1c-.85,6.01-4.67,6.59-10.01,6.01,4.77,4.71,4.59,5.96,2,11.98,2.63-.15,3.21-2.5,6.43-2.03,2.56.37,3.39,3.17,5.55,4.04-1.24-6.86,1.64-8.07,6.01-11.99Z"/><path d="M221.16,94.68l2.12,7.88c19.86-.05,4.84,5.41,4.03,8.83l1.85,9.29-9.49-5.03-9.5,5.03,1.89-9.34-6.87-6.15c2.19-2.88,6.13-.59,9-1.98,3.37-1.64,1.5-9.83,6.97-8.52Z"/><path d="M268.16,198.68c1.21,4.38-5.07,4.9-5.86,7.7-.85,3,2.29,6.2,1.86,9.29-8.52-2.46-8.14-7.81-16.64-.11l-2.31-1.36c.91-2.11,2.39-5.56,1.81-7.79-.69-2.65-11.09-6.7-2.39-7.76,7.98-.97,6.16-.53,8.55-8.96,1.68-.35,2.04.44,2.85,1.63,3.95,5.76.33,8.89,12.13,7.37Z"/><path d="M69.31,105.54l8.86.14c1.28,4.01-4.21,4.59-4.89,6.67l1.89,9.32-8.32-3.84-7.18,4.82c-3.15-2.02.76-5.84.28-8.35-.56-2.94-7.01-3.51-5.76-7.62l7.86-.15,3.64-8.84,3.64,7.84Z"/><path d="M208.16,41.68c.85,2.95-4.78,4.58-5.04,5.7-.62,2.64,3.18,8.81.52,9.3l-6.8-3.84-7.67,3.84,1.76-7.53c-1.83-2.82-6.81-2.29-5.78-6.46,6.97.33,9.04-1.17,10.02-8,3.73-.48,2.88,5.26,4.97,6.52,1.97,1.19,5.7.19,8.02.48Z"/><path d="M300.16,140.68c.46,7.77,4.23,4.54,8.99,7.5l-4.85,4.1,1.87,5.88c-2.03,3.1-4.59-1.53-7.35-1.27-2.16.2-3.24,3.08-5.65,2.79l.89-7.34-4.88-4.14c1.25-2.63,5.69-.85,6.87-1.64.89-.59.61-6.69,4.11-5.87Z"/><path d="M131.16,216.68l2.46,6.12,6.53,1.38-4.65,4.98,1.67,6.52c-2.54.47-4.38-2.98-6.49-2.98s-3.96,3.45-6.49,2.98l.86-6.31c-.64-2.56-5.14-1.88-3.87-5.68l5.87-.14c.8-.51,1.58-8.93,4.12-6.86Z"/><path d="M261.42,161.43c-2.58-2.49-.3-7.44,4.2-6.77,7.38,1.1,1.42,12.19-4.2,6.77Z"/><path d="M39.8,139.79c5.64-1.89,8.78,5.21,4.37,7.39-6.97,3.45-7.68-6.28-4.37-7.39Z"/><path d="M97.41,63.93c4.13-4.68,10,2.62,6.3,5.75-4.71,3.99-9.22-2.44-6.3-5.75Z"/><path d="M170.43,239.43c-3.51-3.58,1.28-9.11,5.33-5.84,4.6,3.71-2,9.24-5.33,5.84Z"/><path d="M230.31,61.81c.96-1.52,7.75-2.71,6.88,3.32-1.06,7.34-9.89,1.44-6.88-3.32Z"/><path d="M276.3,127.54c-1.52-.96-2.71-7.75,3.32-6.88,7.34,1.06,1.44,9.89-3.32,6.88Z"/><path d="M244.79,127.75c4.23-1.37,7.27,4.52,4.44,6.48-5.38,3.72-8.55-5.14-4.44-6.48Z"/><path d="M80.84,144.82c4.13-1.13,4.27,5.12,1.82,5.85-3.29.97-6.13-4.67-1.82-5.85Z"/><path class="cls-1" d="M156.17,82.69c-15.97,16.11-21.77,38.66-13.74,60.23,10.32,27.72,40.65,41.55,68.74,32.77-8.29,10.68-22.2,18.77-35.6,20.89-27.36,4.33-55.4-12.09-64.43-38.36-11.57-33.65,9.85-70.29,45.04-75.53Z"/><path class="cls-1" d="M72.41,183.42c2.76,2.73,7.93-.37,8.76.27-5.06,4.8-4.6,6.85-2.01,12.99-5.36-3.68-7.87-1.97-11.98,2,1.3-7.47-1.5-7-6.01-10.99l6.54-1.97,1.96-7.02c1.74.93,1.75,3.74,2.74,4.72Z"/><path class="cls-1" d="M280.17,86.69c-4.37,3.92-7.25,5.13-6.01,11.99-2.17-.87-2.99-3.67-5.55-4.04-3.22-.46-3.8,1.88-6.43,2.03,2.59-6.02,2.77-7.27-2-11.98,5.35.59,9.16,0,10.01-6.01l3.38,7.1,6.6.91Z"/></g></svg>