<?xml version="1.0" encoding="UTF-8"?><svg id="Layer_2" xmlns="http://www.w3.org/2000/svg" viewBox="0 0 290.73 308.07"><defs><style>.cls-1{fill:#fff;}</style></defs><g id="OBJECTS"><path d="M146.52.45c169.06-11.71,196.26,207.48,45.41,260.2-3.43,1.2-19.72,5.12-20.7,6.28-4.16,4.94,1,18.99,3.61,24.3,1.66,3.38,9.56,12.76,7.42,15.7-3.48,4.79-26.73-6.82-31.27-9.83-9.49-6.3-15.81-14.64-21.91-24.05C38,280.1-19.98,193.41,6.4,109.09,25.42,48.28,83.19,4.84,146.52.45ZM174.7,301.85c-6.27-9.95-11.38-21.33-9.99-33.46.31-2.69.95-6.21,3.74-7.25,93.88-16.39,155.33-128.39,92.14-209.51C198.86-27.62,67.48,1.61,22.67,84.4c-46.84,86.55,6.25,191.49,108.8,183.21,4.82,4.68,7.16,11.29,11.74,16.28,8.04,8.75,20,15.13,31.48,17.96Z"/><path class="cls-1" d="M174.7,301.85c-11.48-2.83-23.44-9.22-31.48-17.96-4.58-4.99-6.93-11.6-11.74-16.28C28.92,275.89-24.16,170.95,22.67,84.4,67.48,1.61,198.86-27.62,260.58,51.63c63.18,81.12,1.74,193.12-92.14,209.51-2.79,1.04-3.43,4.56-3.74,7.25-1.39,12.13,3.72,23.51,9.99,33.46ZM170.34,190.62c10.49-9.83,17.54-27.81,16.38-42.14-.26-3.2-3-10.44-2.79-11.79.17-1.09,5.77-8.81,6.92-10.98,9.45-17.76,18.86-44.83,16.8-65.1-1.06-10.46-3.34-11.47-12.78-8.8-17.46,4.94-37.65,18.77-50.18,31.74-2.81,2.91-14.14,18.65-15.2,19.26-1.86,1.06-8.38.86-10.99,1.5-13.06,3.22-24.93,14.07-31.24,25.7-1.29,2.38-7.05,12.08-2,12.67,8.68-2.66,18.39-6.25,27.39-3.57-1.69,4.71,2.87,5.57,3.09,6.41.5,1.83-13.38,8.66-4.01,12.5l.02,1.97c-9.82,1.57-32.97,31.09-8.99,22-6.04,8.36-19.92,43.72,2.48,25.94,4.59-3.64,9.99-9.66,12.53-14.96l1.98.5,1.08,7.4c10.73-.54,15.22-15.68,15.91-24.89l7.03.55,1.96-9.54c4.55,2.28,6.24,2.58,11.01.42,1.63,2.28,2.71,4.88,3.49,7.55,1.32,4.47,1.59,13.91,2.99,16.99.4.88,1.75,2.12,2.83,1.92,1.27-1.24,3.03-2.07,4.3-3.26ZM40.84,204.96c-1.28-7.11-7.82-12.14-15.04-10.57-.98.21-3.89,1.23-3.93,2.08-.12,2.25,10.01-.23,11.5,2.47,4.83,3.2,4.17,8.67,6.97,12.99,4.83-9.08,15.99-17.12,25.83-9.83,2.49,1.85,4.09,8.35,6.13,7.85l14.47-17.49c-.02-1.3-1.12-1.39-2.47-.5-2.16,1.42-11.14,11.98-11.99,11.98-8.88-11.08-23.27-10.21-31.46,1.01ZM116.75,222.94c-2.24-2.1,7.53-16.19.97-14.39-2.44,5.5-5.15,11.13-4.96,17.39,12.72-1.76,17.82,9.48,11.02,19.49,2.42,3.42,4.93-.35,7.89-1.08,12.19-2.99,16.28,3.39,17.07,14.07.11,1.48-.79,2.9,1.48,2.48,7.51-13.78-7.48-22.69-20.46-19.98,2.93-8.66-3.16-19-13-17.98Z"/><path d="M170.34,190.62c-1.26,1.18-3.03,2.01-4.3,3.26-1.08.2-2.43-1.04-2.83-1.92-1.4-3.07-1.67-12.52-2.99-16.99-.79-2.67-1.86-5.27-3.49-7.55-4.77,2.16-6.46,1.86-11.01-.42l-1.96,9.54-7.03-.55c-.69,9.21-5.18,24.35-15.91,24.89l-1.08-7.4-1.98-.5c-2.54,5.3-7.94,11.32-12.53,14.96-22.4,17.78-8.52-17.59-2.48-25.94-23.98,9.09-.84-20.43,8.99-22l-.02-1.97c-9.37-3.83,4.51-10.67,4.01-12.5-.23-.84-4.79-1.69-3.09-6.41-9-2.67-18.72.91-27.39,3.57-5.05-.59.71-10.3,2-12.67,6.31-11.63,18.18-22.49,31.24-25.7,2.61-.64,9.13-.44,10.99-1.5,1.07-.61,12.39-16.35,15.2-19.26,12.53-12.97,32.72-26.8,50.18-31.74,9.43-2.67,11.72-1.65,12.78,8.8,2.06,20.26-7.35,47.34-16.8,65.1-1.16,2.17-6.75,9.89-6.92,10.98-.21,1.34,2.53,8.59,2.79,11.79,1.16,14.33-5.89,32.31-16.38,42.14ZM201.57,55.19c-2.81-1.93-26.12,9.57-29.87,12.4,3.01,4.63,24.6,20.32,28.87,17.4,1.68-4.28,3.51-28.07,1-29.8ZM199.67,90.09c-11.67-2.94-23-9.63-29.97-19.56-2.26-1.45-12.85,8.07-15,10.04-12.74,11.64-25,28.04-32.13,43.8-1.27,2.81-6.79,15.53-5.64,17.47,6.53,4.58,12.69,9.76,19.49,13.98,2.56,1.59,11.26,7.14,13.28,7.79,1.32.42,1.67.39,2.94-.1,2.96-1.12,13.43-12.03,16.03-15.02,14.57-16.81,25.23-36.94,31-58.4ZM88.78,137.01c8.28-3.24,16.35-2.79,25.02-3.45l11.94-26.51c-16.55,3.18-30.29,14.58-36.95,29.96ZM181.69,159.5c.55-4.31,0-10.4,0-14.99,0-.15-1.2-2.62-1.49-2.49l-19.47,22.44c2.47,6.79,6.1,13.59,5.97,21l1.98.5c4.64-8.15,11.78-16.81,13.01-26.47ZM140.72,171.99l1.11-7.53-23.08-14.94-5.97,4.98c8.41,7.03,17.47,13.78,27.94,17.48ZM123.76,195.97c6.54-5.34,8.46-14.15,8.89-22.3l-17.94-11.22c-4.11.67-15.77,11.17-16.92,15.06-.39,1.33.13,1.87,1.46,1.46,2.94-.9,7.76-5,10.51-1.46-4.87,10.19-10.93,19.04-12.99,30.44,1.84,1.51,12.37-9.59,14.01-11.45,1.93-2.19,9.56-15.41,12.03-11.93l.94,11.4Z"/><path d="M116.75,222.94c9.84-1.03,15.93,9.32,13,17.98,12.98-2.71,27.97,6.19,20.46,19.98-2.27.42-1.37-1-1.48-2.48-.79-10.68-4.88-17.06-17.07-14.07-2.96.73-5.47,4.5-7.89,1.08,6.8-10.01,1.7-21.25-11.02-19.49-.18-6.26,2.53-11.88,4.96-17.39,6.56-1.81-3.21,12.29-.97,14.39Z"/><path d="M40.84,204.96c8.19-11.22,22.58-12.09,31.46-1.01.85,0,9.83-10.56,11.99-11.98,1.35-.89,2.45-.8,2.47.5l-14.47,17.49c-2.04.51-3.64-6-6.13-7.85-9.84-7.3-21,.74-25.83,9.83-2.79-4.32-2.13-9.79-6.97-12.99-1.48-2.71-11.62-.23-11.5-2.47.05-.85,2.95-1.87,3.93-2.08,7.22-1.57,13.76,3.46,15.04,10.57Z"/><path class="cls-1" d="M199.67,90.09c-5.77,21.47-16.43,41.59-31,58.4-2.59,2.99-13.07,13.9-16.03,15.02-1.28.48-1.62.52-2.94.1-2.02-.65-10.72-6.21-13.28-7.79-6.81-4.22-12.96-9.4-19.49-13.98-1.14-1.94,4.37-14.66,5.64-17.47,7.13-15.76,19.39-32.15,32.13-43.8,2.15-1.97,12.74-11.5,15-10.04,6.97,9.93,18.3,16.63,29.97,19.56ZM161.43,90.3c-15.14,3.13-16.99,28.38,2.24,31.31,23.65,3.61,23.95-36.73-2.24-31.31Z"/><path class="cls-1" d="M123.76,195.97l-.94-11.4c-2.47-3.49-10.1,9.73-12.03,11.93-1.64,1.86-12.18,12.96-14.01,11.45,2.06-11.4,8.12-20.25,12.99-30.44-2.75-3.54-7.57.56-10.51,1.46-1.33.41-1.86-.13-1.46-1.46,1.15-3.89,12.8-14.39,16.92-15.06l17.94,11.22c-.42,8.16-2.34,16.96-8.89,22.3Z"/><path class="cls-1" d="M201.57,55.19c2.51,1.72.68,25.52-1,29.8-4.27,2.92-25.86-12.77-28.87-17.4,3.75-2.83,27.06-14.32,29.87-12.4Z"/><path class="cls-1" d="M88.78,137.01c6.67-15.38,20.41-26.78,36.95-29.96l-11.94,26.51c-8.67.65-16.74.21-25.02,3.45Z"/><path class="cls-1" d="M181.69,159.5c-1.23,9.66-8.37,18.31-13.01,26.47l-1.98-.5c.13-7.42-3.5-14.21-5.97-21l19.47-22.44c.29-.13,1.49,2.35,1.49,2.49,0,4.59.55,10.68,0,14.99Z"/><path class="cls-1" d="M140.72,171.99c-10.47-3.7-19.54-10.45-27.94-17.48l5.97-4.98,23.08,14.94-1.11,7.53Z"/><path d="M161.43,90.3c26.18-5.42,25.89,34.92,2.24,31.31-19.23-2.93-17.37-28.18-2.24-31.31ZM166.22,94.59c-15.44-.31-16.69,21.16-2.01,22.49,15.69,1.42,17.44-22.19,2.01-22.49Z"/><path class="cls-1" d="M166.22,94.59c15.43.31,13.68,23.91-2.01,22.49-14.68-1.33-13.43-22.8,2.01-22.49Z"/></g></svg>