<?xml version="1.0" encoding="UTF-8"?><svg id="Layer_2" xmlns="http://www.w3.org/2000/svg" viewBox="0 0 380.13 559.22"><defs><style>.cls-1{fill:#fff;}</style></defs><g id="OBJECTS"><path d="M256.05,31.9c18.29-4.43,36.96-2.29,48.75,13.74,7.8,10.61,9.05,21.54,7.22,34.28,23.52,2.61,30.65,29.47,16.11,46.55,11.62,10.12,12.91,28.46-.99,37.08,1.47,5.12,1.24,10.04-1.31,14.76-.78,1.45-3.52,3.24-3.59,4.13-.04.49,3.08,6.61,3.48,9.28,2.98,20.13-14.46,38.24-34.79,33.66-7.11,32.77-28.55,62.41-60.83,73.7-1.2,7.36,2.15,14.08,6.9,19.45,13.04.63,27.55,6.03,39.65,11.26,36.14,15.62,61.32,39.06,81.13,72.87,2,3.41,9.67,16.26,10.01,19.05.68,5.53-6.07,5.55-5.84,9.66,11.1,29.77,30.96,90.25,6.54,116.61-20.11,21.72-48.55,4.79-64.03-13.01-2.51-2.88-9.59-14.47-12.01-14.99-2.33-.44-1.3,1.04-1.45,2.49-.98,9.32-1.7,16.44-12.62,18.4-34.65.6-69.3.63-103.95,1.05-21.98.27-44.91,2.6-67,1.09-15.91-1.09-18.19-8.15-18.95-23.04-5.41,3.94-8.54,10.85-12.99,16.01-18.2,21.06-51.09,36.91-68.68,5.65-16.38-29.1.62-78.93,11.2-108.24l-6.88-6.13c-.94-3.09,1.07-5.7,2.33-8.31,25.41-52.84,72.95-90.74,131.51-99.49,4.96-4.48,7.74-11.71,6.86-18.35-31.9-9.23-53.29-36.84-62.81-67.72-22.02,6.92-42.59-18.36-35.1-39.33-12.85-5.33-17.62-19.33-10.01-31.49-23.13-12.96-13.06-41.09,6.99-51.2-15.74-28.46,10.36-64.38,41.98-60.5,6.06-32.73,46.43-54.28,75.45-34,23.83-26.59,77.34-21.87,87.72,15.03ZM276.97,151.98c-12.96,1-20.09-6.85-24.5-17.98-10.04,11.48-26.17,8.41-35-3-1.45-.03-1.62,11.43-11.06,12.91-16.22,2.55-31.9-12.31-36.45-26.93-1.16-.87-4.26,8.32-4.96,9.53-8.44,14.55-25.75,21.9-41.02,12.47-1.42,13.41-11.12,27.41-26.01,26,2.12,8.4.66,20.09-4.17,27.33-1.64,2.46-5.31,4.54-5.82,7.2-.97,5.05,3.62,24.81,5.27,30.69,18.04,64.53,88.6,91.42,146.39,58.96,37.06-20.82,48.56-58.01,50.11-98.57-13.07-8.8-15.71-23.79-12.78-38.6ZM291.97,220.97c15.99,2.3,30.99-10.94,28.92-27.42-1.74-13.86-17.24-19.63-25.34-7.56l-3.58,34.97ZM68.7,187.2c-9.19,1.89-11.59,12.28-10.73,20.28,1.36,12.61,16.19,25.56,29.03,20.98l-4.47-34.55c-2.56-5.08-8.09-7.89-13.83-6.72ZM224.97,301.97c-22.14,6.76-45.61,6.66-67.99.99-.37,3.66-.89,7.87-2.21,11.3s-7.21,9-6.69,11.01,10.28,10.07,12.57,11.52c24.24,15.35,57.02,10.65,74.25-12.46-5.39-6.68-11.03-13.01-9.94-22.36ZM254.47,384.97c10.24.63,21.61,0,32,0,4.16,0,11.45,7.03,12.99,11.01,4.32,11.2-1.66,30.07.53,42.47l10.44,13.28,51.37-27.93c1.52-7.19-5.04-5.42-8.47-9.75l-6.38,4.44-1.98-1.03,1.71-7.04-5.71-5.43,7.88-1.13c.23-1.59,1.17-3.21.62-4.84-1.15-3.41-15.67-21.32-18.99-25.06-2.72-3.06-16.12-17.05-19.06-16.99-1.24.02-1.82.62-2.42,1.6l1.96,8.4c-3.46,1.12-4.94-4.03-7.49-4.03l-7.49,5.03.9-8.32c-.64-1.98-5.51-2.53-4.9-5.67,5.06-.09,8.97.11,8.91-5.87l-30.51-15.15-4.27,2.66,1.85,7.35c-3.25.37-5.42-1.83-7.49-3.94l-7.49,4.94.9-8.32c-.79-2.56-5.94-1.95-4.89-4.16,1.28-2.69,6.31-.3,7.97-3.02,0-.74-12.32-4.43-13.59-4.49-3.41-.17-7.66,8-10.86,11.02-26.52,25.01-71.96,19.89-91.11-11.06l-14.41,4.05,3,.99c1.27,3.63-3.34,3.76-3.92,5.65l1.9,8.34-8.35-3.84c-.68.13-8.71,9.33-7.22,1.8.36-1.84,3.32-5.81-.06-6.87-3.83-1.2-32.11,14.02-36.35,18.42,15.71,1.39,3.93,4,3.1,7.19l1.89,8.3-7.51-4.01-5.98,4.99c-2.85-2.02-1.26-5.37.48-7.49-1.04-1.28-1.54-1.82-3.31-1.34-2.97.8-20.67,21.52-23.64,25.37-1.83,2.37-12.9,17.69-13.04,19s.62,3.06,1.17,4.33l7.84.15c1.43,3.84-4.54,4.94-4.93,6.59-.27,1.15,3.26,5.89,1.93,8.4l-7.31-3.83-7.68,4.83-.99-4.99-1.96,5.91,41.4,22.07c6.37-7.55-1.8-5.63-3.44-10.98,9.88-.54,5.77-.13,9.2-6.3.73-1.31,1.07-2.04,2.78-1.71.48,8.51,5.2,4.23,10.01,7.51l-4.87,5.12,2.37,5.36,7.53-8.55c-.42-12.46-6.17-34.81,1.97-44.94,6.69-8.33,21.14-5.96,30.54-6.46,2.37-.13,4.55-1,6.92-1.08,20.91-.75,42,.11,62.93-.9l1.56-5.98c-12.44-5.15.47-4.32,1.92-5.21,1.27-.78,2.3-15,6.24-.98l7.89.12c.7,3.46-2.15,4.58-5,5.01l3.66,6.83,50.34.15.91-8.85-5.89-3.64c1.88-2.63,5.42-.63,7.59-2.39,1.59-1.3,1.78-5.13,2.41-7.1,2.05-2,3.54,5.71,4.98,6.57,1.22.73,6.16-1.73,8,.92l-5.93,5.11,1.44,7.41c-1.5,2.62-5-3.16-6.82-2.88-.5.08-4.36,2.84-4.69,3.38-.96,1.61,1.75,1.44,2.5,1.49ZM293.96,396.97c1.78-1.77-7.26-7.79-9.47-7.02-49.01-.07-98.13-.3-146.98,1.06-13.52.38-30.74-1.16-43.8,1.2-4.51.81-7.88,4.78-9.74,8.75,3.6-1.23,6.51-4.33,10.56-4.93,16.98-2.5,35.91.61,52.89-2.11,44.2,3.03,93.49-3.89,137.08,0,3.62.32,6.35,1.25,9.45,3.04ZM292.97,455.97l2.97-48.37c-3.41-14.99-20.63-9.72-31.41-9.58-46.71.63-93.41-.5-140.01.99-17.62.57-44.45-6.61-40.53,20.45l3.46,35.54c1.05,1.36,1.24.93,2.52.48,5.43-1.91,25.94-18.99,31.76-12.26,5.01,5.8-7.47,15.17-6.75,15.74,18.14-7.76,24.59,2.69,8,13.51,18.79-.64,10.39,11.84-1,15.51.08,1.72,2.85,1.11,4.39,2.08,3.31,2.08,2.13,6.22.08,8.89-4.29,5.59-31.21,15.02-32.96,18.95.7,8.2-.93,17.56,9.22,19.83,46.65,1.04,93.24-.67,139.72-1.8,10.58-.26,22.83,1.04,33.08.08,12.19-1.14,9.85-8.59,11.37-18.37-.84-2.68-23.21-12.37-27.23-14.85-4.1-2.54-9.44-6.33-7.2-11.84l5.52-2.48c-4.22-3.38-12.91-6.37-12.02-12.95s8.44-1.97,12.02-3.06c-18.11-11.67-11.99-21.56,8-13.51-2.46-3.42-12.37-11.2-7.75-15.75,7.38-7.26,33.48,14.19,34.75,12.75ZM357.96,432.97l-45.07,23.62c-.2.97,5.15,17.47,6.07,18.89,5.69,8.81,21.4,15.14,29.02,21.98,1.9,1.7,5.82,4.4,2.47,6.51-2.93.57-28.9-18.53-32-21.98-9.12-10.15-7.67-27.85-18.98-37.02-1.51,4.73-3.92,14.34,1.51,16.5l-1.59,2.45c-6.93-.16-32.35-20.68-37.41-16.95,1.91,3.88,5.71,7.64,8.99,10.5,2.35,2.05,14.22,9.67,14.78,10.7.6,1.08.12,2.57.23,3.78-2.19,2.3-28.19-13.09-33.99-11.99-1.15,1.07,3.64,5.16,4.52,5.97,3.77,3.4,24.03,14.52,24.46,16.55.22,1.01-.77,2.16-1.61,2.41-3.68,1.1-22.18-9.75-28.38-7.92,2.79,6.72,24.1,12.07,25.88,16.61.24.61.55,2.34-.38,2.38l-19.01-2.99c-1.1.29-.46,1.31,0,2,3.07,4.63,31.35,16.39,38.45,21.55,4.8,3.48,8.46,10.85,12.55,15.45,13.58,15.27,36.91,30.81,55.42,13.39,24.16-22.74,2.84-85.23-5.91-112.4ZM81.97,459.47c.99-3.14-.72-10.73,0-14.5-3.42,1.04-6.86,6.84-8.52,9.98-4.56,8.62-4.94,19.9-10.98,27.02-3.12,3.68-29.97,23.57-32.99,23-.68-.13-1.48-1.39-1.4-2.35.27-3.31,17.95-13.26,21.8-16.24,11.89-9.2,13.16-13.88,17.09-28.4l-44.99-23.01c-9.33,27.4-28.53,85.98-6.53,110.02,18.54,20.25,43.1,2.74,57.03-13.01,4.12-4.65,7.53-11.8,12.55-15.45,9.12-6.63,31.48-14.2,37.95-21.05.45-.48,1.1-.82.98-1.5-2.77-2-22.62,6.47-21-.49l25.99-15.03c1.41-2.82-7.05-.25-8,0-4.37,1.15-16.27,7.29-18.69,7.31-1.63.01-2.37-1.3-3.29-2.34-.36-1.6,1.4-1.97,2.25-2.7,6.04-5.08,18.27-9.77,23.97-15.74,1.1-1.15,1.98-2.31,1.75-4.02-2.93-2.74-24.73,10.38-29.21,11.33-1.5.32-2.37-.04-3.78-.34-.25-1.5.03-2.36.93-3.56,2.11-2.79,13.76-9.48,17.61-13.39.83-.85,6.3-7.32,5.45-8.04-2.09-.31-3.76.14-5.72.77-7.05,2.27-24.77,16.25-29.78,16.32-1.29.02-2.93-.36-3.49-1.61-.9-2,2.6-1.74,2.99-2.98ZM69.93,452.95l.6-3.96c-4.14-3.51-6.09-4.18-9.55.49l8.96,3.47Z"/><path class="cls-1" d="M276.97,151.98c-2.92,14.81-.28,29.8,12.78,38.6-1.55,40.56-13.06,77.75-50.11,98.57-57.78,32.46-128.34,5.58-146.39-58.96-1.64-5.88-6.24-25.63-5.27-30.69.51-2.66,4.18-4.74,5.82-7.2,4.83-7.24,6.29-18.92,4.17-27.33,14.89,1.41,24.59-12.59,26.01-26,15.27,9.43,32.58,2.08,41.02-12.47.7-1.21,3.8-10.4,4.96-9.53,4.55,14.62,20.24,29.48,36.45,26.93,9.44-1.49,9.62-12.94,11.06-12.91,8.83,11.41,24.96,14.48,35,3,4.42,11.14,11.54,18.99,24.5,17.98ZM256.65,174.27c-3.53-4.05-21.44-7.75-22.67-1.79-.8,3.85,10.57,2.16,13.27,2.71,3.7.76,7.33,6.51,10.71,2.21-.13-1.15-.54-2.27-1.3-3.14ZM130.73,171.24c-3.69.51-15.7,5.65-14.76,10.21.88,4.23,9.4-3.2,11.99-3.99,3.38-1.04,7.58-.76,11.03-1.97,2.69-5.12-4.73-4.74-8.26-4.25ZM197.97,217.98c-5.49,1.28-7.66,4.52-14.05,2.54-8.56-2.66-1.41-9.15-.4-12.5s.91-21.76-3.05-22.03c-2.01-.14-.71,2.92-.64,3.6.48,4.61,1.83,9.06,1.07,13.82-.95,5.97-7.59,8.39-4.18,16.31,3.02,6.99,21.82,8.21,21.24-1.75ZM239.21,204.73c11.86,6.71,11.16-18.53,1.79-14.26-4.33,1.97-3.68,10.53-1.79,14.26ZM131.7,192.12c-5.92,1.61-5.25,17.03,1.8,16.83s6.52-19.09-1.8-16.83ZM165.98,245.98c-.78,3.33,3.54,5.37,6,6.49,14,6.38,32.73,3.44,44.01-6.99,2.59-2.4,7.09-6.48,1.51-8.5-13.21,15.37-33.59,17.44-51.51,9Z"/><path class="cls-1" d="M292.97,455.97c-1.26,1.43-27.36-20.01-34.75-12.75-4.62,4.55,5.29,12.33,7.75,15.75-20-8.04-26.11,1.85-8,13.51-3.58,1.08-11.17-3.21-12.02,3.06-.9,6.58,7.8,9.56,12.02,12.95l-5.52,2.48c-2.24,5.51,3.1,9.3,7.2,11.84,4.02,2.48,26.38,12.17,27.23,14.85-1.52,9.77.82,17.23-11.37,18.37-10.25.96-22.5-.34-33.08-.08-46.48,1.14-93.07,2.84-139.72,1.8-10.15-2.26-8.52-11.63-9.22-19.83,1.75-3.93,28.68-13.36,32.96-18.95,2.05-2.67,3.23-6.81-.08-8.89-1.55-.97-4.31-.36-4.39-2.08,11.39-3.67,19.79-16.15,1-15.51,16.59-10.83,10.13-21.28-8-13.51-.72-.57,11.76-9.94,6.75-15.74-5.82-6.73-26.33,10.35-31.76,12.26-1.28.45-1.47.87-2.52-.48l-3.46-35.54c-3.92-27.06,22.91-19.88,40.53-20.45,46.6-1.5,93.3-.36,140.01-.99,10.79-.15,28.01-5.41,31.41,9.58l-2.97,48.37ZM275.21,408.21c-4.49,4.49,2.15,13.25,8.33,8.83,6.54-4.67-2.67-14.5-8.33-8.83Z"/><path class="cls-1" d="M254.47,384.97c-.74-.05-3.45.12-2.5-1.49.32-.54,4.18-3.3,4.69-3.38,1.82-.28,5.32,5.5,6.82,2.88l-1.44-7.41,5.93-5.11c-1.85-2.65-6.79-.19-8-.92-1.44-.86-2.93-8.58-4.98-6.57-.63,1.97-.81,5.81-2.41,7.1-2.17,1.77-5.7-.23-7.59,2.39l5.89,3.64-.91,8.85-50.34-.15-3.66-6.83c2.84-.43,5.69-1.55,5-5.01l-7.89-.12c-3.94-14.02-4.97.2-6.24.98-1.45.89-14.36.07-1.92,5.21l-1.56,5.98c-20.92,1.01-42.01.15-62.93.9-2.36.08-4.55.96-6.92,1.08-9.4.5-23.85-1.87-30.54,6.46-8.14,10.13-2.39,32.48-1.97,44.94l-7.53,8.55-2.37-5.36,4.87-5.12c-4.8-3.28-9.53,1-10.01-7.51-1.71-.34-2.05.4-2.78,1.71-3.43,6.17.67,5.76-9.2,6.3,1.65,5.35,9.82,3.43,3.44,10.98l-41.4-22.07,1.96-5.91.99,4.99,7.68-4.83,7.31,3.83c1.33-2.51-2.2-7.24-1.93-8.4.39-1.66,6.35-2.76,4.93-6.59l-7.84-.15c-.55-1.27-1.32-2.96-1.17-4.33s11.22-16.63,13.04-19c2.97-3.85,20.67-24.57,23.64-25.37,1.77-.48,2.27.06,3.31,1.34-1.73,2.11-3.33,5.46-.48,7.49l5.98-4.99,7.51,4.01-1.89-8.3c.82-3.18,12.61-5.79-3.1-7.19,4.25-4.4,32.52-19.62,36.35-18.42,3.38,1.06.43,5.03.06,6.87-1.49,7.53,6.54-1.67,7.22-1.8l8.35,3.84-1.9-8.34c.57-1.89,5.19-2.02,3.92-5.65l-3-.99,14.41-4.05c19.15,30.95,64.59,36.07,91.11,11.06,3.2-3.02,7.45-11.18,10.86-11.02,1.27.06,13.59,3.75,13.59,4.49-1.66,2.71-6.69.33-7.97,3.02-1.05,2.21,4.1,1.6,4.89,4.16l-.9,8.32,7.49-4.94c2.08,2.11,4.24,4.31,7.49,3.94l-1.85-7.35,4.27-2.66,30.51,15.15c.05,5.98-3.85,5.78-8.91,5.87-.62,3.14,4.26,3.69,4.9,5.67l-.9,8.32,7.49-5.03c2.56,0,4.04,5.15,7.49,4.03l-1.96-8.4c.6-.98,1.18-1.57,2.42-1.6,2.94-.06,16.35,13.93,19.06,16.99,3.32,3.74,17.84,21.65,18.99,25.06.55,1.63-.39,3.25-.62,4.84l-7.88,1.13,5.71,5.43-1.71,7.04,1.98,1.03,6.38-4.44c3.43,4.33,9.99,2.56,8.47,9.75l-51.37,27.93-10.44-13.28c-2.2-12.4,3.79-31.27-.53-42.47-1.54-3.98-8.82-11.01-12.99-11.01-10.39,0-21.76.63-32,0ZM224.96,344.97c-3.84-.77-3.37,6.27-4.11,6.88s-6.61-.31-7.86,2.62l4.88,4.18-.9,7.32c3.6.55,5.13-3.07,7.49-4.98,2.24,2.35,3.8,4.69,7.5,3.98l-2.07-8.39,5.07-4.09-8.01-1.99-1.99-5.52ZM159.97,355.98l-8.04-.46-3.46-6.52c-3.34,5.26-2.01,10.49-10.5,8.98l4.87,5.7-.87,7.29c3.64.61,4.98-3.14,7.49-4.82l7.5,3.82-1.87-7.36c.45-2.32,6.21-2.75,4.87-6.63ZM109.96,359.97c-4.13-.4-2.5,6.1-4.97,7.52-2.04,1.17-5.31-.55-7,1.98,7.13,5.37,4.94,2.97,4.17,9.23-.22,1.77-.2,2.14,1.3,3.25l6.17-4.8c2.5-.06,4.94,5.82,7.34,2.3l-1.88-6.87c7.72-5.16,5.51-7.83-3.08-5.63l-2.06-6.97ZM319.09,389.86l-3.62-6.87-3.45,7.53-7.03,1.95,4.88,4.18-.9,8.32,7.64-4.91c2.08-.37,4.15,5.2,7.35,3.91l-1.87-8.39c12.23-9.54-1.86-4.89-3-5.71ZM61.96,388.97c-3.93-.61-2.76,5.73-4.19,6.8-.99.74-6.13.92-7.79,1.2-.68,3.37,5.48,3.54,5.93,5.59l-1.93,7.4c3.66.64,4.91-3.17,7.48-4.75,2.33-.19,5.49,6.75,8.52,2.24l-2.94-5.88c1.98-2.32,5.7-2.65,4.93-6.59-6.6.35-8.72,1.12-10.01-6ZM322.1,426.84c-.75-.49-.83-6.5-3.62-5.87l-2.65,6.87-6.86.13c-.7,3.56,2.14,4.41,4.94,5.06.66,3.35-4.13,6.27-.43,8.93l6.12-4.92c2.08-.36,4.15,5.2,7.36,3.92,1.29-2.38-1.83-6.65-1.77-7.51.14-1.88,6.25-2.82,4.77-6.48l-7.86-.13Z"/><path class="cls-1" d="M357.96,432.97c8.76,27.18,30.07,89.67,5.91,112.4-18.51,17.42-41.84,1.88-55.42-13.39-4.09-4.6-7.75-11.97-12.55-15.45-7.1-5.15-35.39-16.92-38.45-21.55-.46-.7-1.1-1.71,0-2l19.01,2.99c.93-.04.62-1.77.38-2.38-1.78-4.55-23.08-9.9-25.88-16.61,6.2-1.83,24.7,9.02,28.38,7.92.85-.25,1.83-1.39,1.61-2.41-.44-2.03-20.69-13.15-24.46-16.55-.89-.8-5.67-4.9-4.52-5.97,5.8-1.1,31.8,14.29,33.99,11.99-.1-1.21.37-2.7-.23-3.78s-12.44-8.65-14.78-10.7c-3.28-2.86-7.08-6.62-8.99-10.5,5.06-3.73,30.48,16.79,37.41,16.95l1.59-2.45c-5.43-2.16-3.02-11.77-1.51-16.5,11.31,9.16,9.87,26.87,18.98,37.02,3.1,3.45,29.07,22.55,32,21.98,3.35-2.12-.57-4.81-2.47-6.51-7.63-6.84-23.33-13.17-29.02-21.98-.92-1.42-6.27-17.92-6.07-18.89l45.07-23.62Z"/><path class="cls-1" d="M81.97,459.47c-.39,1.24-3.89.98-2.99,2.98.56,1.25,2.2,1.63,3.49,1.61,5.01-.07,22.73-14.05,29.78-16.32,1.96-.63,3.63-1.08,5.72-.77.85.72-4.61,7.19-5.45,8.04-3.85,3.91-15.5,10.6-17.61,13.39-.91,1.2-1.18,2.05-.93,3.56,1.41.31,2.28.66,3.78.34,4.48-.95,26.28-14.07,29.21-11.33.23,1.71-.66,2.87-1.75,4.02-5.7,5.97-17.93,10.65-23.97,15.74-.86.72-2.61,1.1-2.25,2.7.93,1.04,1.66,2.35,3.29,2.34,2.42-.02,14.32-6.15,18.69-7.31.95-.25,9.41-2.83,8,0l-25.99,15.03c-1.62,6.96,18.23-1.51,21,.49.12.68-.53,1.03-.98,1.5-6.47,6.85-28.83,14.42-37.95,21.05-5.02,3.65-8.44,10.79-12.55,15.45-13.93,15.75-38.5,33.26-57.03,13.01-22-24.04-2.8-82.62,6.53-110.02l44.99,23.01c-3.93,14.52-5.2,19.2-17.09,28.4-3.85,2.98-21.53,12.92-21.8,16.24-.08.96.72,2.22,1.4,2.35,3.01.57,29.87-19.32,32.99-23,6.04-7.13,6.42-18.41,10.98-27.02,1.66-3.14,5.09-8.95,8.52-9.98-.72,3.77.99,11.36,0,14.5Z"/><path class="cls-1" d="M224.97,301.97c-1.1,9.35,4.55,15.68,9.94,22.36-17.24,23.1-50.02,27.8-74.25,12.46-2.29-1.45-12.05-9.54-12.57-11.52s5.38-7.62,6.69-11.01,1.84-7.64,2.21-11.3c22.38,5.67,45.84,5.76,67.99-.99Z"/><path class="cls-1" d="M293.96,396.97c-3.1-1.79-5.83-2.72-9.45-3.04-43.59-3.89-92.89,3.03-137.08,0-16.99,2.72-35.91-.4-52.89,2.11-4.06.6-6.96,3.69-10.56,4.93,1.85-3.98,5.22-7.94,9.74-8.75,13.07-2.36,30.28-.82,43.8-1.2,48.86-1.36,97.97-1.13,146.98-1.06,2.21-.77,11.25,5.25,9.47,7.02Z"/><path class="cls-1" d="M68.7,187.2c5.73-1.18,11.26,1.63,13.83,6.72l4.47,34.55c-12.84,4.58-27.68-8.37-29.03-20.98-.86-8,1.54-18.39,10.73-20.28ZM74.97,216.96c-.66-3.07-1.88-5.43.12-8.38,3.48-5.13,3.86,4.04,7.37,4.38,3.17-.61-1.46-9.07-2.49-10.49-4.27-5.83-13.33-9.14-15.99-.51,3.5-.65,8.13-2.56,10.99.52-3.36,4.23-7.61,12.57,0,14.48Z"/><path class="cls-1" d="M291.97,220.97l3.58-34.97c8.1-12.07,23.6-6.3,25.34,7.56,2.07,16.48-12.93,29.71-28.92,27.42ZM313.97,192.97c-1.36-5.78-7.96-3.54-11.5-1-5.17,3.7-7.13,9.84-6.49,16,3.84.83,4.39-7.56,5.01-7.99,6.13-1.16,3.29,6.6,7.97,6.99,1.66-4.09.7-5.54-1.95-8.58-1.3-1.48-3.81-.72-3.04-3.4l9.99-2.02Z"/><path class="cls-1" d="M69.93,452.95l-8.96-3.47c3.47-4.67,5.41-4,9.55-.49l-.6,3.96Z"/><path d="M165.98,245.98c17.92,8.45,38.31,6.37,51.51-9,5.58,2.02,1.09,6.1-1.51,8.5-11.28,10.43-30.01,13.36-44.01,6.99-2.46-1.12-6.77-3.16-6-6.49Z"/><path d="M197.97,217.98c.58,9.95-18.22,8.73-21.24,1.75-3.42-7.92,3.22-10.34,4.18-16.31.76-4.76-.59-9.21-1.07-13.82-.07-.68-1.37-3.73.64-3.6,3.96.27,4.04,18.74,3.05,22.03s-8.15,9.84.4,12.5c6.39,1.99,8.56-1.26,14.05-2.54Z"/><path d="M131.7,192.12c8.33-2.26,8.55,16.63,1.8,16.83s-7.72-15.22-1.8-16.83Z"/><path d="M239.21,204.73c-1.89-3.73-2.55-12.28,1.79-14.26,9.37-4.27,10.07,20.97-1.79,14.26Z"/><path d="M130.73,171.24c3.53-.49,10.95-.87,8.26,4.25-3.44,1.21-7.65.94-11.03,1.97-2.59.8-11.11,8.23-11.99,3.99-.94-4.56,11.07-9.7,14.76-10.21Z"/><path d="M256.65,174.27c.76.87,1.17,1.99,1.3,3.14-3.38,4.3-7.01-1.45-10.71-2.21-2.7-.56-14.07,1.14-13.27-2.71,1.24-5.97,19.15-2.26,22.67,1.79Z"/><path d="M275.21,408.21c5.67-5.66,14.87,4.16,8.33,8.83-6.18,4.42-12.82-4.35-8.33-8.83Z"/><path d="M159.97,355.98c1.34,3.88-4.42,4.31-4.87,6.63l1.87,7.36-7.5-3.82c-2.5,1.68-3.84,5.43-7.49,4.82l.87-7.29-4.87-5.7c8.48,1.5,7.15-3.73,10.5-8.98l3.46,6.52,8.04.46Z"/><path d="M319.09,389.86c1.15.82,15.23-3.83,3,5.71l1.87,8.39c-3.2,1.28-5.27-4.28-7.35-3.91l-7.64,4.91.9-8.32-4.88-4.18,7.03-1.95,3.45-7.53,3.62,6.87Z"/><path d="M224.96,344.97l1.99,5.52,8.01,1.99-5.07,4.09,2.07,8.39c-3.69.71-5.26-1.63-7.5-3.98-2.36,1.9-3.89,5.53-7.49,4.98l.9-7.32-4.88-4.18c1.24-2.93,7.1-2.01,7.86-2.62s.28-7.65,4.11-6.88Z"/><path d="M61.96,388.97c1.29,7.12,3.41,6.35,10.01,6,.77,3.94-2.95,4.28-4.93,6.59l2.94,5.88c-3.03,4.52-6.19-2.42-8.52-2.24-2.57,1.58-3.82,5.4-7.48,4.75l1.93-7.4c-.46-2.05-6.61-2.23-5.93-5.59,1.66-.28,6.8-.46,7.79-1.2,1.43-1.07.27-7.41,4.19-6.8Z"/><path d="M109.96,359.97l2.06,6.97c8.59-2.2,10.79.46,3.08,5.63l1.88,6.87c-2.4,3.51-4.84-2.36-7.34-2.3l-6.17,4.8c-1.51-1.11-1.52-1.48-1.3-3.25.77-6.26,2.95-3.86-4.17-9.23,1.7-2.53,4.96-.81,7-1.98,2.47-1.42.84-7.91,4.97-7.52Z"/><path d="M322.1,426.84l7.86.13c1.48,3.66-4.63,4.6-4.77,6.48-.07.86,3.06,5.13,1.77,7.51-3.2,1.28-5.28-4.28-7.36-3.92l-6.12,4.92c-3.7-2.66,1.09-5.57.43-8.93-2.8-.66-5.64-1.5-4.94-5.06l6.86-.13,2.65-6.87c2.79-.63,2.86,5.37,3.62,5.87Z"/><path d="M74.97,216.96c-7.61-1.91-3.36-10.24,0-14.48-2.86-3.08-7.49-1.17-10.99-.52,2.65-8.63,11.71-5.32,15.99.51,1.04,1.42,5.66,9.88,2.49,10.49-3.51-.35-3.89-9.51-7.37-4.38-2,2.95-.78,5.31-.12,8.38Z"/><path d="M313.97,192.97l-9.99,2.02c-.77,2.69,1.74,1.92,3.04,3.4,2.65,3.04,3.61,4.49,1.95,8.58-4.69-.39-1.85-8.14-7.97-6.99-.62.43-1.17,8.82-5.01,7.99-.64-6.16,1.32-12.3,6.49-16,3.55-2.54,10.14-4.78,11.5,1Z"/></g></svg>