<?xml version="1.0" encoding="UTF-8"?><svg id="Layer_2" xmlns="http://www.w3.org/2000/svg" viewBox="0 0 280.28 256.56"><defs><style>.cls-1{fill:#fff;}</style></defs><g id="OBJECTS"><path d="M20.85,87.75C6.99,41.19,61.93,1.14,102.3,26.85c20.83-39.09,82.56-34.31,98.35,6.57,8.68-.11,14.85-2.17,23.82.14,27.42,7.06,39.99,37.04,29.28,62.55,43.04,29.34,23.39,95.76-28.15,98.03-6.09,35.44-47.66,53.06-78.16,34.33-4.37-2.68-6.89-6.13-11.05-8.73-25.78,25.27-71.54,14.56-81.51-20.62-8.93.76-16.16,1.16-24.69-2.25-22.81-9.11-31.25-34.36-19.32-55.65-.04-1.86-4.78-5.53-6.22-7.72-10.67-16.2-1.97-39.8,16.21-45.77ZM221.81,188.85c50.74,2.58,70.49-65.65,25.92-90.7,3.09-8.96,5.72-16.02,4.9-25.8-1.72-20.52-21.48-37.69-42.16-35.19-3.46.42-9.45,3.48-11.78,2.25-1.17-.62-6.34-12.5-8.57-15.44C171.63-.44,131.58-2.15,111.76,21.36c-2.92,3.47-4.32,7.52-7.67,10.39-7.11-1.74-12.56-6.6-20.04-7.61-34.99-4.74-62.68,20.99-60.17,56.18.19,2.63,2.29,6.97,1.84,8.81-.57,2.34-7.2,4.41-9.76,6.27-15.62,11.37-14.1,33.68.75,45.01-2.52,6.15-6.14,11.02-6.7,17.97-1.36,16.8,11.98,33.67,28.61,36.08,6.67.97,12.75-.56,19.24-.27,2.43,4.18,3.22,9.17,5.59,13.41,11.28,20.22,38.77,26.58,59.01,16.28,5.47-2.78,9.27-7.84,14.66-10.02,27.99,32.1,79.25,17.57,84.7-25Z"/><path d="M248.94,236.14c-12.05,12.41-32.67-4.08-21.63-18.14,12.59-16.03,34.11,5.3,21.63,18.14ZM244.97,233.16c.63-.58,1.86-2.62,2.04-3.42,3.97-17.39-20.8-15.34-17.5-.97,1.52,6.62,10.58,8.85,15.46,4.39Z"/><path d="M269.34,237.7c12.33-1.5,15.6,17.21,2.64,18.77-12.73,1.53-14.22-17.37-2.64-18.77ZM269.3,242.66c-3.39.92-4.83,8.69.78,8.95,8.68.39,6.43-10.9-.78-8.95Z"/><path class="cls-1" d="M221.81,188.85c-5.45,42.57-56.7,57.1-84.7,25-5.39,2.17-9.19,7.24-14.66,10.02-20.25,10.3-47.73,3.94-59.01-16.28-2.36-4.24-3.16-9.23-5.59-13.41-6.49-.29-12.57,1.24-19.24.27-16.63-2.41-29.97-19.28-28.61-36.08.56-6.94,4.18-11.81,6.7-17.97-14.85-11.33-16.37-33.64-.75-45.01,2.55-1.86,9.19-3.93,9.76-6.27.45-1.84-1.65-6.18-1.84-8.81-2.51-35.19,25.18-60.91,60.17-56.18,7.49,1.01,12.93,5.87,20.04,7.61,3.34-2.87,4.74-6.93,7.67-10.39,19.82-23.51,59.87-21.8,78.36,2.61,2.23,2.94,7.4,14.82,8.57,15.44,2.33,1.23,8.32-1.84,11.78-2.25,20.68-2.49,40.44,14.68,42.16,35.19.82,9.78-1.81,16.84-4.9,25.8,44.57,25.06,24.81,93.28-25.92,90.7ZM152.74,56.85l-1.47-11.02c-1.76-1.82-12.54-1.15-13.37.17l-.28,10.21c-.77,2.36-4.77,1.77-6.75,1.52l-2.77-11.91-15.09,1.25c-2.35,1.7.73,9.91-.23,12.78l-6.52-.98-2.6-9.88c-2.95-.42-12.03.2-13.36,2.85-1.24,2.46,1.9,23.21,3,27,1.97,6.82,6.44,7.34,11.51,11.69l-1.95,102.58c-.27.98-14.38,3.37-15.05,7.59,5.77.1,11.12-2.73,16.75-3.72,25.2-4.4,63.29,4.36,83.12-2.82,4.81-1.74,6.97-6.05,1.74-5.25-4.13.64-9.36,4.43-14.71,2.81l-11.7-103.66c3.51-3.41,8.19-7.07,9.65-11.79,1.17-3.78,1.98-24.52.89-27.76s-10.65-3.35-13.18-2.52c-2.98.97-1.19,8.26-1.63,10.85h-6Z"/><path class="cls-1" d="M244.97,233.16c-4.88,4.46-13.93,2.24-15.46-4.39-3.3-14.37,21.47-16.42,17.5.97-.18.8-1.41,2.85-2.04,3.42Z"/><path class="cls-1" d="M269.3,242.66c7.22-1.95,9.46,9.34.78,8.95-5.62-.25-4.17-8.03-.78-8.95Z"/><path d="M152.74,56.85h6c.44-2.59-1.35-9.88,1.63-10.85,2.53-.83,12.11-.66,13.18,2.52s.28,23.97-.89,27.76c-1.46,4.72-6.14,8.38-9.65,11.79l11.7,103.66c5.35,1.62,10.58-2.17,14.71-2.81,5.22-.81,3.07,3.5-1.74,5.25-19.83,7.18-57.93-1.58-83.12,2.82-5.63.98-10.99,3.82-16.75,3.72.67-4.23,14.78-6.61,15.05-7.59l1.95-102.58c-5.07-4.34-9.54-4.87-11.51-11.69-1.1-3.79-4.23-24.54-3-27,1.33-2.65,10.42-3.27,13.36-2.85l2.6,9.88,6.52.98c.96-2.87-2.12-11.08.23-12.78l15.09-1.25,2.77,11.91c1.98.25,5.97.83,6.75-1.52l.28-10.21c.83-1.32,11.61-1.98,13.37-.17l1.47,11.02ZM169.73,73.33c1.12-6.83-.83-16.32,0-23.48h-7s-1.94,10.55-1.94,10.55l-10.06-.05c-2.95-3.09-1.83-7.63-1.98-11.51h-7.99c3.47,11.64-.73,13.21-11.53,12.06-3.49-.37-2.12-9.13-3.54-11.97l-9.91.92c2.22,11.84.65,14.53-11.86,13.85l-3.09-11.43-8.04,1.58,4.01,25.96c16.4-4.14,33.55-5.52,50.43-5.98l20.8,2.04c.61-.15,1.61-2.06,1.69-2.55ZM165.73,78.83c-19.76-1.68-39.61-.97-59.32,1.11-1.21.13-7.05.38-6.61,2.37,8,9.3,18.81,3.14,29.42,2.47,6.89-.43,15.05-.11,22.06,0,6.36.1,11.25,2.97,14.44-5.94ZM153.74,191.72h16.98l-5-40.96h-17.98c-1.11-3.84,5.18-1.18,6-1.99-.24-2.19,1.02-8.17-1.63-8.92l-6.37.92v-2.99s17.98,0,17.98,0l-2.99-29.98h-11.99c.29-4.39,4.19.91,2.72-6.26-.18-.89-.43-1.8-.87-2.59l-3.85-.14c1.14-3.47,11.31-1.3,11.99-1.98v-7c-16.64-1.29-33.8-1.7-50.02,2.62l-.93,48.34,4.94-1.04c.7-.69-1.37-7.24,2.03-7.95l1.01,8c3.69.28,7.92-2.87,10.98.5-6.59,2.82-8.58-.66-5.88,8.38,1.29,1.1,6.87-1.79,5.89,2.1-3.66,1.27-16.91.13-18.5,1.99-3.03,3.55-1.03,33.12-2.49,39.97l17.93-2.05c-.54-9.52.48-31.61,13.53-32,14.42-.44,14.41,23.14,16.49,33.05ZM159.74,98.8h-6l.93,6.57,4.62-.52.45-6.05ZM164.74,139.76h-9s.44,7.06.44,7.06c1.21,1.75,6.39.68,8.56.94v-8ZM117.72,148.71l-.91-6.52-9.03.57v7s9.94-1.06,9.94-1.06ZM127.77,175.23c-.72,4.61.52,10.68,0,15.48l21.98.99c-.43-6.62-3.31-30-12.51-29.57-4.69,1.23-8.8,8.76-9.47,13.09Z"/><path class="cls-1" d="M153.74,191.72c-2.08-9.91-2.07-33.49-16.49-33.05-13.05.4-14.07,22.49-13.53,32l-17.93,2.05c1.46-6.86-.54-36.43,2.49-39.97,1.58-1.86,14.84-.72,18.5-1.99.98-3.89-4.6-1-5.89-2.1-2.69-9.04-.71-5.56,5.88-8.38-3.07-3.37-7.29-.22-10.98-.5l-1.01-8c-3.4.71-1.34,7.26-2.03,7.95l-4.94,1.04.93-48.34c16.22-4.31,33.37-3.91,50.02-2.62v7c-.68.68-10.85-1.49-11.99,1.98l3.85.14c.44.79.68,1.7.87,2.59,1.47,7.18-2.43,1.87-2.72,6.26h11.99s2.99,29.98,2.99,29.98h-17.98v2.99s6.37-.92,6.37-.92c2.65.75,1.39,6.73,1.63,8.92-.82.82-7.11-1.85-6,1.99h17.98l5,40.96h-16.98ZM131.47,101.99c-5.66,1.71-5.6,18.78-4.26,23.86,1.04,1.55,14.55,1.96,16.05-1.06,1.19-2.41-1.12-14.73-2.29-17.7-1.64-4.13-4.91-6.49-9.5-5.1Z"/><path class="cls-1" d="M169.73,73.33c-.08.49-1.08,2.4-1.69,2.55l-20.8-2.04c-16.88.46-34.03,1.85-50.43,5.98l-4.01-25.96,8.04-1.58,3.09,11.43c12.51.68,14.08-2,11.86-13.85l9.91-.92c1.41,2.84.05,11.6,3.54,11.97,10.8,1.15,14.99-.42,11.53-12.05h7.99c.15,3.86-.97,8.4,1.98,11.49l10.06.05,1.94-10.55h7c-.83,7.16,1.12,16.65,0,23.48Z"/><path class="cls-1" d="M127.77,175.23c.67-4.33,4.78-11.86,9.47-13.09,9.19-.43,12.08,22.95,12.51,29.57l-21.98-.99c.52-4.81-.72-10.87,0-15.48Z"/><path class="cls-1" d="M165.73,78.83c-3.19,8.92-8.08,6.04-14.44,5.94-7.01-.11-15.17-.43-22.06,0-10.62.67-21.42,6.83-29.42-2.47-.44-1.99,5.4-2.24,6.61-2.37,19.7-2.08,39.55-2.79,59.32-1.11Z"/><path class="cls-1" d="M164.74,139.76v8c-2.17-.25-7.35.82-8.56-.94l-.44-7.06h9Z"/><polygon class="cls-1" points="117.72 148.71 107.78 149.76 107.78 142.76 116.81 142.19 117.72 148.71"/><polygon class="cls-1" points="159.74 98.8 159.29 104.85 154.67 105.37 153.74 98.8 159.74 98.8"/><path d="M131.47,101.99c4.59-1.39,7.86.97,9.5,5.1,1.18,2.97,3.48,15.29,2.29,17.7-1.49,3.02-15,2.61-16.05,1.06-1.34-5.08-1.4-22.15,4.26-23.86Z"/></g></svg>