<?xml version="1.0" encoding="UTF-8"?>
<svg id="Layer_1" xmlns="http://www.w3.org/2000/svg" version="1.1" viewBox="0 0 701.2 2059.2">
  <!-- Generator: Adobe Illustrator 29.2.0, SVG Export Plug-In . SVG Version: 2.1.0 Build 108)  -->
  <defs>
    <style>
      .st0 {
        fill: none;
        stroke: #000;
        stroke-linecap: round;
        stroke-miterlimit: 10;
        stroke-width: 150px;
      }
    </style>
  </defs>
  <path class="st0" d="M380.3,76.8c-79.2-10.5-203.7-14.5-340.6,35.3-80,29.1-185.2,67.4-256.2,175.8-10.6,16.2-63.3,99.3-63.5,218.1,0,23.6,3,223.3,169.4,338.8,122.6,85,268,79,364.2,42.4,25.4-9.7,51.9-20.1,79.1-44.5,94.5-84.9,136.3-286,24-381.2-79.5-67.3-215.5-64.1-290.8,4.2C11.8,514.9,1.9,586,0,616.8c-11.4,186.3,187.5,239.5,207.1,457.4,1.9,20.9,9.9,129.6-49.4,234.4-47.4,83.6-107.6,111.6-173.6,166.6-70.5,58.7-160.9,159.2-228.7,338.8"/>
</svg>