<?xml version="1.0" encoding="UTF-8"?>
<svg id="Layer_2" xmlns="http://www.w3.org/2000/svg" version="1.1" viewBox="0 0 1193.1 322.4">
  <!-- Generator: Adobe Illustrator 29.2.0, SVG Export Plug-In . SVG Version: 2.1.0 Build 108)  -->
  <defs>
    <style>
      .st0 {
        stroke: #000;
        stroke-miterlimit: 10;
        stroke-width: .8px;
      }

      .st1 {
        fill: #e3dcd5;
      }
    </style>
  </defs>
  <g id="Layer_1-2">
    <path class="st0" d="M1192.7,12.3v1c-2.5,0-5,.1-7.4,0-5.9-.3-12.3-1.6-18.2-1.9-15.6-.8-30.2,2.5-45.6,2-9.1-.3-18.2-2-27.3-2.4-15.9-.7-31.7,1.8-47.5,2.9-20.8,1.5-41.6,2.3-62.4.5-14.4-1.3-28-4.3-42.7-3.4-9.2.6-18.2,3.7-27.4,4.8-36.8,4.4-73.3,3-110.3,2.9-40.3,6-80.2-2.6-120.4-5.2-14.4-1-26.2,1.4-39.8,1.5-3.6,0-8.3-.9-12-1-14.2-.3-29.4,3.9-43.7,5.3-31.6,3.2-61.5,3.1-93.1-.5-12.9-1.4-25.9-5.1-38.9-4.8-3.8,0-8.7,1-12.4,1-6.5,0-13.7-1.6-20.1-2-14.1-.7-33.1,1.5-47.5,2.9-8.2.8-17,2.8-25,3.3-4.6.3-9.4-.3-13.9,0s-9.4,1.6-13.9,1.9c-11.8.8-24.1-1.3-36-1.9-39.5-1.9-78.3,1.8-117.9-3.9-7.9-1.1-15.5-3.8-23.6-4.3-14.6-.9-28.4,2.1-42.7,3.4-22,2-47,1.3-69.1-.5-7.8-.6-15.7-2.3-23.5-2.9-1.2,0-9.3.2-9.4-.2-.2-.9-.3-1.1.7-1.2,1.7,0,3.6,0,5.3,0,8.8.3,17.6,2.2,26.4,2.9,22.1,1.9,45.5,2.8,67.6,1,17.4-1.5,33-5.1,50.8-2.8,5.1.7,10.4,2.3,15.6,3.1,43.4,6.8,86.6,1.5,129.9,4.5,7.5.5,15,2.3,22.5,1.9,4.8-.2,10.1-1.6,14.9-1.9,6.2-.4,12.5.1,18.7-.5,22.9-2.3,48.5-6.9,71.5-5.8,4.3.2,9.1,1.3,13.4,1.5,8.8.4,17.6-1.1,26.4-.5,10,.7,21,3.6,31.2,4.8,34.1,3.8,66.2,3.8,100.2-.5,8.6-1.1,18-3.6,26.5-4.2,8.9-.6,17.9.9,26.9.5,4.2-.2,8.7-1.3,12.9-1.5,23.1-1.2,48.6,3.5,71.5,5.8,6.4.6,12.8,0,19.2.5,9.7.6,16.1,2.3,26.4,1.4,9.5-.8,17.7-1.6,27.4-1.9,37.5-1.2,76.1,2,113.5-4,5.2-.8,10.3-2.5,15.6-3.1,21.9-2.8,43.8,3,65.7,3.8,22.6.8,44.8-1.9,67.2-3.8,18.9-1.7,33.9.9,52.3,1.5,15,.5,29.3-2.7,44.2-2,4.2.2,8.7,1.1,12.9,1.5,4.9.4,9.8.2,14.6,1h0Z"/>
    <path class="st0" d="M1192.7,47.8v1c-5.9,0-11.7.6-17.5.5-16.2-.3-32.2-.8-48.4-.5-12.9.3-27.7,1.5-40.3,1-13.1-.6-23.8-2.5-37.4-2.4-11.2,0-22.4,0-33.5,0-2.1,4.4-4.3,9.6-7.1,13.6-3.7,5.4-7,8.7-13.2,10.7-11.7,3.9-25.7,1.1-37.9,5.8-1.8.7-3.3,2.2-5,2.7-2.2.7-4.8.7-7.2,1.4-3.5,1-6.8,2.7-10.3,3.6-.3-.7,2-1.7,2.5-1.9,6.2-2.9,12.9-4.4,19.4-7s18.8-3.9,26.2-4.1c2.3,0,3.8.4,6.6-.1,8.8-1.5,13-4.4,18-11.7l7.3-13.1c-13.4.2-26.8-1-40-2.9-22.5-1-44.2,6.5-66.7,6.3-21.9.6-43.9.5-65.8,1.4-1.9,0-3.9.9-6,.5.4-1,1.1-1.3,2.1-1.5,7.2-1,16.6.8,24,0,24.1-2.6,48.4-.7,72.4-3.9,13.2-1.8,24.7-5.1,38.5-4.2,5.9.3,11.9,1.9,17.8,2.4,24.2,2.1,48.8-.8,72.9.5,13.3.7,24.5,2.7,38.4,2.4,22.9-.5,43.7-1.1,66.7-.5,7.9.2,15.9-.2,23.8,0h0Z"/>
    <path class="st0" d="M1192.7,122.7v1c-10.1,1.2-20.8,1.9-31,1.5-17.3-.8-33.2-3.1-50.9-2.4-15.3.6-26,4.6-42.1,2.3-7.8-1.1-15.9-3.1-23.8-4,0-1.6,28.6,3.5,30.9,3.6,13.1.7,25.4-3.4,37.9-3.4,17.6,0,35.2,1,52.8,2.9l26.2-1.5h0Z"/>
    <path class="st0" d="M385.2,294.3l25.1,9.2c11.3,3.5,23.6,8.2,35.7,7.6,5-.3,9.8-2.1,14.6-2.2-1.5,1.1-3.5,1.5-5.3,1.9-22.3,5.1-43.1-6-63.6-13.2-3.6-1.3-7.5-1.7-11-3.4-7.8-3.7-13.6-14-22.1-14.8-4-.4-8.4.6-12.4,0-3.9-.6-8.2-3.3-12.1-3.7-2.2-.3-3.7.5-5.7.5-3.8,0-9.5-1.5-12.7-3.6,3.3,0,6.4,1.8,9.8,2.1,3.2.3,6.7-.3,9.9.1,3.9.6,7.9,3.2,12.2,3.6s9.6-.6,13.6.3c4.7,1,10.8,7.7,14.6,10.8.5.5.8,1.2,1.7,1-1.2-3.7-3.4-7.3-3.8-11.3-.4-3.7,0-11.9,1.5-15.3,1-2.1,7.6-10.2,9.6-12.5,4.2-5.1,10.5-10.5,14.1-15.6,4.2-5.9,7.3-20.1,15.4-21.1,6.3-.7,21.3,0,27.8,1,5.1.8,11.6,8.7,15.6,12.2s19.2,15.3,20.6,18.7,1.9,14.7,1.5,18.7c-.7,6.8-10.1,11.8-14.8,15.4-8.6,6.5-9.9,12.9-22.3,13.6-8.3.5-16.7-.5-25-.5-10.8,0-21.6.8-32.4.5h0ZM477.8,264.6v-8.9c0-1.3-.8-6.1-1.2-7.4-.7-2.1-3.3-4.4-5-6-8.6-8.1-18.6-15.5-27.2-23.6-3.3-1.7-10.5-1.3-14.3-1.5-5-.3-10.8-1.2-15.8-.4-5.9.9-9.4,12.6-12,17.2-3.5,6.1-9.2,10.7-13.7,16.1-4,4.7-7.2,9.9-11.5,14.4-2.6,7.1-2.6,24.9,6.4,27.5,7,2,16.2.1,23.5,0,11.9-.2,23.7.9,35.5.5,1.3,0,4.5-.3,5.7-.6,4-.8,10.8-9,14.5-11.9,5.2-4,12.9-7.4,14.6-14.4-3.8-1.3-7.8-1.5-11.2-3.9l-5.6-5.7c2.3.3,3.6,2.7,5.3,4,3.8,2.9,7.6,3,12,4.6h0Z"/>
    <path class="st0" d="M709,290.9c.3.3,2.7-1.5,3.1-1.9,4-3.3,9.3-9.6,14.5-10.4,3.9-.6,8.4.2,12.3-.1,4.6-.4,8.9-3.2,13-3.8,3.3-.4,7.1.3,10.5,0,3-.3,6.1-2.2,8.9-2.1-2.8,2-7.8,3.5-11.3,3.6-2.5.1-4.4-.7-7.1-.4-3.9.5-8.1,3-12.2,3.7s-8.3-.4-12.4,0c-7.2.7-12.1,8.3-17.5,12.2s-11.7,4.7-18,7c-19.2,7-39.9,17.2-60.8,12.3-.6-.1-5.9-1.8-5.2-2.3,4.8.7,9.7,2.1,14.6,2.4,8.6.5,16.9-2,25.1-4.2l35.6-12.6c-10.8.3-21.6-.5-32.4-.5-8.2,0-16.7,1-25,.5-12.2-.7-12.7-6-21.1-12.5-6-4.6-15.5-8.9-16.5-17.6-.4-3.3.4-14.9,1.8-17.8,1.7-3.7,14.5-13.3,18.3-16.7,4.5-3.9,12.4-13.2,18-14.1,6.6-1.1,20.8-1.7,27.3-1,7.3.7,10.5,11.8,13.4,17.3,3.6,6.7,10.2,12.1,15.1,18,2,2.4,9.9,12.1,10.8,14.1,1.1,2.7,1.9,11.1,1.7,14.1-.2,3.9-2.8,9.4-4.8,12.7h0ZM626.5,255.9c.2.9-.5,1.1-1,1.7-2.2,2.6-5.2,4.9-8.4,6-4.8,1.7-10,.2-5,6.4,3.9,4.9,8.7,6.6,13.2,10.3,3.6,2.9,9.2,10.3,13.7,11.3,1.7.4,5.2.7,7,.7,11.3.3,22.7-.7,34.1-.5,6.6.1,15.7,1.7,22,.5,3.6-.7,5.2-1.8,6.9-5,3-5.8,3.1-11.3,2.5-17.7-.5-5.8-1.9-5.4-4.8-9.1-2.2-2.9-4.2-6.1-6.5-8.9-4.5-5.4-11.2-11-14.7-16.9-2.7-4.4-6.4-16.8-11.8-18-4-.9-11.9.1-16.2.4-3.8.2-8,0-11.8.7-4.9.9-11.8,9-15.8,12.5-3.6,3.1-17.8,14.2-19,17.4s-1,7.5-1.1,10.9c0,2-1.1,3.8,0,6l9-2.8,7.8-5.8h0Z"/>
    <path class="st0" d="M175.5,203.4c5.1-.9,13.3,3.4,17.4,6.4,5.6,4,8.8,9.7,13.4,14.5,4.4,4.5,9.4,6.9,12.1,13.1,1.9,4.3,4.2,17.7,4.3,22.4,0,1.5-.5,3.4-1.3,4.7-1.3,2-8.7,7.9-11,9.4-9.6,6.1-25.7,4.5-36.7,5.7-9.6,1-13.4,3.8-22.7-1.7-5.2-3.1-10.5-6.3-15.7-9.4-5.3-3.1-7.4-5.5-6.3-12.1.7-4.7,6.8-20.5,9.5-24.5,3.5-5.2,8.7-6.4,13.3-10.3,5.6-4.7,16.4-17,23.7-18.3h0ZM207.9,264.8c-2.3,0-.5-3.8,0-4.9,1.7-3.3,9.1-9.1,9.7-11,.2-.6.6-5,.5-5.8-.2-7.9-8-12.4-12.8-17.2-5.3-5.3-8.9-12-15.5-16.1-4.5-2.8-12.3-6.8-17.3-3.5,1.7,1.1,3.5,2,5.2,3.2,2.5,1.8,6.7,5,8.8,7.1,1.9,2,3.9,6.2,5.6,7.6s5.6,2.5,7.8,3.7c4.1,2.4,8.6,6.8,9.3,11.6-1.1-1.2-1.7-3-2.6-4.4-4.1-5.9-7.6-6.1-13.2-9.2-3.4-1.8-3.9-4.3-6.1-7-2.7-3.3-9.4-8.6-13-10.9-.8-.5-1.7-1.4-2.6-1.2-3.7,2.5-7.5,5-10.9,7.9-2.8,2.4-5.2,5.6-8,8-5.7,4.8-10.7,5.1-14.6,12.5-1.9,3.5-7.6,19.3-7.9,22.8-.6,7.6,7.3,9.2,12.5,12.2s11.2,8.5,16.9,9.1c5.3.5,12-1.7,17.6-2,17.2-1,26.5,1,40.1-11.4,1.9-1.7,3.5-3.1,3.5-5.9l-2.3-13.1c.1,3.9-3.5,5.5-5.6,7.8-2.4,2.6-5.5,6.1-5.2,9.8h0Z"/>
    <path class="st0" d="M873,196.1c6.2-.7,10.4,2.8,15.1,6.2,6.7,4.7,10.7,9.6,16.4,14.8,6.6,5.9,13.5,6.9,18.4,15.2,2.6,4.4,10.4,25.4,10.7,30.1.6,10.1-12.6,13.7-19.8,18-3.1,1.8-5.8,4.5-9.1,6.2-10,5.1-15.5,1.9-25.5.9-16.2-1.6-33.1,1.1-47-9.1-2.9-2.1-10.5-8.1-11.2-11.4-.3-1.3-.2-3.3,0-4.7.4-6.4,2.6-19.9,5-25.6,2.5-5.9,6.2-7.6,10.3-11.8,10.3-10.3,21-27,36.8-28.9h0ZM880.3,199.4c-1-1.1-5.7-1.6-7.3-1.3-15.3,2.2-24.6,17.9-34.7,27.7-6.1,6-11.6,9.1-12.8,18.9l1,.5c-2.5,6.2,3,8.4,6.2,11.9,1.6,1.8,4.7,5.2,5.7,7.3,1.9,3.9,2.4,18.2,9.3,16.8.5,0,5.2-3.1,5.2-1.1,0,.5-3.2,1.4-3.8,1.9l-3.8.7c4.3.3,8.5,1.5,12.7,1.9,7.6.8,15.4.1,23,1,5.5.7,9.9,2.5,15.8,1.7,6.8-.9,12.3-6.5,18-9.9s16.9-6.3,16.8-14.6c0-4-6.8-22.8-8.9-27.1-4.8-9.9-9.3-9.4-16.8-15.3-4.3-3.4-8.2-8.5-12.8-12.2-1.6-1.3-10.4-7.9-11.6-8.1-1-.1-1.5.5-2.2,1-3.8,2.4-11.4,8.2-14.5,11.4-2.5,2.5-4.5,7.1-6.8,9.1-4.4,3.9-14.1,5-17.6,11.6l-3.6,6.2c.3-5.8,7.1-12,12-14.6,3.6-1.9,7.1-2.1,9.8-5.5,6.7-8.5,11.2-13.9,21.2-19.1.4-.2,1.5-.1.7-1h0ZM844.8,282.3c-6.2-4-5-12.3-7.6-17.6-2.3-4.8-7.3-7.5-10.2-11.4-1-1.4-1.1-3.1-2.4-4.1.4,5.5-3.8,14.6-.9,19.3,1.2,1.9,10.8,9.5,13.1,10.9s5.1,2.7,7.9,2.9h0Z"/>
    <path class="st0" d="M1090.4,208.1c2.8-.3,11.6.8,14.6,1.5,5.7,1.2,23.5,9.6,24.7,15.6.6,3.1-.9,5.2-.9,8,0,3.3,1.6,6.4,1.5,10.1-.4,10.1-16,35.6-25,40.3-7.6,4-14.3.4-21.8-.2-5.9-.5-7.7-.5-13.6-1.8-15.1-3.3-31.3-4.9-46.3-9.4-3.7-1.1-11.3-3.8-11.5-8.2-.2-3.9,6.3-14.4,8.9-17.5,10.8-12.7,35.6-11.4,49.9-23,4.9-4,13.1-14.6,19.3-15.2h0ZM1067.9,228.1l-10.8,4.8c-14.5,6.1-28.8,4.5-37.8,19.3-1.1,1.8-5.3,10-5.2,11.5.3,3.3,8.7,5.9,11.5,6.8,13.8,4,30.5,4.8,43.2,8.6,6.6,2,9.7,1.4,16,2.2,8.8,1.1,14.6,4.7,22.8-1.8,5.6-4.4,18.6-25.6,20.1-32.7,1.2-5.8-.4-7.4-.8-12.3-.6-6.9,3.8-8-3.1-13.6-7.1-5.8-19.2-10.2-28.3-10.6-5.3-.2-6.8-.3-11,2.9s-11.1,10.1-14.9,14.4c-5.9,6.6-5.5,13.2-12.9,19.2-4.2,3.4-9.7,3.2-12.7,6.4-1.9,2.1-3,4.8-3.8,7.4-1.1-.6.2-3.6.6-4.4,3.6-8.6,8.8-5.6,14.8-10.2,1.2-.9,3.3-3.2,4.2-4.4,3.5-4.5,3.9-9.8,8.2-13.6h0Z"/>
    <path class="st0" d="M23.2,148.4c1.1-1.1,1.3-3.2,2.3-4.6,3-4.2,16.9-9.4,22-9,7.6.6,7.3,5.3,12.4,8.7,9.7,6.4,26.4,8,35.4,16,2.9,2.6,3.6,7.3,3.8,11,1.1,15.4-10.5,14.1-21.5,17.4-9,2.7-16.9,8.2-26.8,7.3-6.3-.5-12.2-4.7-18-7-7.7-3.1-23.8-6.2-24.9-15.9-.6-5.1,3.8-17.5,8.1-20.5,2-1.4,5.6-1.9,7-3.3h0ZM53.1,179.7h-7.9c-6.2,0-13-5.2-18.5-7.4s-11.7-2-15.8-7c-4.5,14.8,11.6,16.4,21.6,20.4,5.7,2.3,13,6.9,19,7.4,8.9.7,17.4-4.9,25.8-7.3,9.4-2.7,20.9-1.8,20-15-.1-1.9-.6-5.7-1.9-7-3.4,7.6-13.6,9.7-21,11.4l-18.3,3c0-.7,1.4-1,1.9-1.2,10.5-3.8,23.1-1.8,32.8-9,2-1.5,3.1-3.7,5.1-4.9-.6-2.4-8.5-6.2-10.9-7.4-7.8-3.6-19-6.2-25.9-10.5-3-1.9-5.1-6.2-7.4-7.5-1-.6-4.3-1.2-5.5-1.2-3.7,0-17.3,5.5-19.2,8.7-.6,1-.6,2.2-1.1,3.2-1.7,3.1-5.8,3.2-8.4,5-3.5,2.4-4.4,7.5-6,11.2,4.1,4.3,10.1,4.3,15.2,6.2,6.1,2.3,10.3,6.6,17.6,7.4,2.6.3,5-.3,7.7.5.8.2,1.3-.4,1.1,1h0Z"/>
    <path class="st0" d="M1039,134.8c5.6-.6,14.3,3.1,19.1,6,5.2,3.1,3.4,5,5.9,7.5,2.2,2.2,6.2,1.8,9.1,5.3,1.7,2,4.3,8.6,5,11.3,4.8,16.8-11.2,18.1-22.8,22.8-5.9,2.4-13,6.9-19.4,7.4-9.3.8-16.5-4.2-24.8-6.9-9-2.9-23.8-2.4-23.4-15.5.1-3.7,1.2-10.8,3.9-13.4,8.2-7.7,26.6-9.9,35.8-16,4.5-3,4.7-7.8,11.6-8.6h0ZM1041.8,179.7c-2.4.2-5-.2-7.4,0-.2-1.2.2-.9,1-1.1,2.6-.7,5.2-.1,7.8-.4,6.7-.7,10.5-4.6,16.1-6.9s12.2-2.1,16.2-6.8c-1.3-3.6-2.4-9.1-5.8-11.3-2.2-1.4-4.9-1.5-7.1-3.5-1.9-1.8-1.6-4-3.4-5.7-3.9-3.8-16.9-8.4-22.2-6.9-3.3.9-5.6,6.2-9,8.2-8.3,4.9-20.1,7.2-28.9,11.9-2.7,1.4-5.5,3.1-7.5,5.5l3.3,4.3c9,7.7,21.4,6.3,31.9,9.4,1.3.4,3.4.6,4.1,1.9l-20.7-3.5c-7.1-1.7-15-4.1-18.9-10.9-1.1,4.9-3,10.7.2,15.1,3.6,4.8,14.3,5.5,20,7.3,13.4,4.2,17.7,10.2,32.7,4.2,7.5-3,16.6-6.4,23.8-9.7,7.5-3.4,10.1-6,8.3-14.9-1.8.6-2.9,2.2-4.8,3.1-3.7,1.7-8.6,2.1-12.5,3.8-6.3,2.8-9.8,6.1-17.5,6.9h0Z"/>
    <path class="st0" d="M448,61.7c.7-.4,5.3-6.7,4.8-7.2-23.2-2.8-46.5,1.9-69.8-1h-30.3s-12-1-12-1c-20.2-.4-40.3,2.5-60.5,1.5-11.5-.6-23-3.3-34.5-3.8-15-.7-30.1.8-45.1-1.5h-19.4s0-1.4,0-1.4l23.8.5,19.6,1.5c20.3-2,40.1,2.9,60,3.8,19.6.9,40.9-1.6,61-1.5,24.9.2,49.5,2,74.4,1,12.3-.5,23.6.5,35.5,1,13.3.5,26.1-2.8,39.3-3.4,15.8-.7,30.7,3.5,46.3,1.9.3,1.1-.5,1.2-1.3,1.3-9.5,1.8-19.7-1.2-29.2-1.8-5.9-.3-13.8-.3-19.7,0-11.9.7-23.9,4.5-35.9,3l-6.3,9v.9c.6,1.6,4.6,6.7,6.1,7.4,1,.5,6.8,3.3,7.2,3.4,1.3.3,2.7,0,3.9.5,1.2.5,2.2,3.1,3.7,4,2,1.3,3.6.7,5.6,1.1,2.8.6,5.5,4.2,5.1,7.1l-4.1-5.2c-1.9-1-4.5-.3-6.8-1.4-1.9-.9-2.9-3.7-4-4.2s-2.5-.1-3.9-.5c-1.8-.5-2.7-2.2-4-2.8-1-.4-2.2-.3-3.1-.7-1-.5-2.5-3-4-3.5.7,2.1,2.5,4,2.3,6.4s-2.8,4.6-3.3,6.8-.7,3.1-1.4,5.2c-.5,1.5-.6,2.9-1,4.3-.2.7.3.8-1,.7-1.8-5.4,3.1-10.8,4.8-15.6,1.5-4.1-.9-5.3-2.2-8.4-.3-.8,0-1.8-.3-2.5s-1.2-1.1-1.4-2c-.2-1.3.8-2,1-3.1-.5.3-.8.6-1.4.5.6-2.7.6-5,0-7.7,2.9.7,1.8,5.1,1.4,7.2h0Z"/>
    <path class="st0" d="M1186.4,191.7c0,.7-1.7.7-2.3.8-17.7,2.8-39.9,3.1-57.9,3-13.3,0-25.6.9-38.8,1.4-6.6.3-13.6-.5-20.2,0-19.7,1.4-39,9.6-59.3,6-9.2-1.6-18-5.3-27.6-6.5-25-3-51.6-3.1-76.8-5.8-5-.5-8.8-2-13.6-3.2-19.5,1.7-38.7,7-58.1,10.3-10.4,1.7-21,2.7-31.4,4.6s-19.6,5.1-29.5,6.5-20,.3-29.9,2.5c2.1-2.9,6.5-1.9,9.3-2.4,2.3-.4,2.2-1.7,6.2-1.4,16.4,1.5,24.6-2.6,40-5.7,18.2-3.6,37.3-5.6,55.8-9,10.8-2,28.7-7.8,39-6.4,2.9.4,6.2,2.5,8.8,2.8,26.7,3.1,55.5,2.7,82,6.3,8,1.1,15.4,3.9,23.2,5.5,22.5,4.6,41.9-4.2,63.7-5.6,13.8-.9,27.9.6,41.7-1.5,20,.7,39.6-.2,59.5-1.4,5.3-.3,10.7-1.4,16.1-.9ZM756,208c-.8-.4-3.5.6-2.9.9.7.3,3.5-.6,2.9-.9Z"/>
    <path class="st0" d="M842.4,126.5c0,.9-1,.4-1.5.3-2.2-.2-4.2-.2-6.4-.3-4.4-.3-9.1-1.2-13.4-1.4-18.5-.9-37.8,3.8-56.1,1.9-7.2-.8-14.4-2.6-21.7-3.3-14-1.3-28.1-.8-42,.5l5.3.9c-6.2.1-13.3,2.3-19.4,2.4-3.2,0-7.8-.9-11.1-1.4-24.4-4.2-48,1.6-72.9.5-19.1-.8-32.2-4.6-52.1-1.3-1.6.3-7.1,2.1-7.8,2.1-.5,0-3.1-1.3-4.5-1.6-26.6-4.9-50.9,2.2-77.6.8-19.8-1-30.7-3.8-51.1-.3-4.5.8-9.5,2.1-13.9.5-.2-1.3.8-.5,1.5-.5,3.5.2,6.2,0,9.6-.2l-.5-1.4,20.4-1.9c13.2-.2,26.2,2.4,39.3,2.9,24.1.9,45.1-5.2,69.5-1.3,2.1.3,6.2,2,7.3,2.1.6,0,6.2-1.8,7.8-2.1,24.3-4,45.8,2.3,69.9,1.3,10.7-.4,21.4-2.5,32.1-2.9,9.2-.4,18.5,1.2,27.6,1.9l-.5,1.4c6.6,1.3,12.6-.6,19.2-1l-1.4-.9c2.4-.2,4.7-1.1,7-1.4,10.5-1.4,23.9-1.3,34.5-.5,14.2,1.1,26.2,4.3,40.8,3.8,17.2-.6,31.8-3.2,49.4-1.4,4.2.4,8.5,1.4,12.7,1.9h0Z"/>
    <path class="st0" d="M290.5,149.7c6.5-.4,12-.1,18,2.8,2,1,6,4.6,7,5,3.3,1,9.3-.3,13.1.3,3.2.5,15.6,8.1,18.3,10.4,5.6,4.9,5.1,8.9,1.8,15.2-3.6,6.7-18.4,15.4-25.9,16.3-3.7.4-10.9,0-14.7-.4-16.8-1.2-22.3-3.6-33.6-15.8-6.7-7.2-12.7-13.7-7.1-23.9,5-9.1,13.6-9.5,23.1-10h0ZM303.6,165.8c.7-3.4,5.4-1.2,8.1-2.2,1.4-.5,3-2.8,3.4-4.2-5.4-4.4-10.8-7.4-18-7.9-4.8-.3-19.5,1.1-23.2,3.6-3.7,2.5-7,8.8-6.7,13.3.5,7.6,18.4,24.3,25.7,26.6,6.6,2.2,27,3.7,33.4,1.8,7.7-2.3,21.5-10.9,22.8-19.4.6-4-.6-5.4-3.5-7.8s-14.4-9.4-17.9-10-7.7.2-11.3-.1c-2.3,6.9-6.9,5.4-12.8,6.2Z"/>
    <path class="st0" d="M764.2,62.3c7.1-.7,23,.2,28.2,5.6,9.1,9.4,5.3,17.8-2.2,26.1-12,13.5-17.4,16.6-35.8,18-15,1.1-23.7-.1-35.3-10.3-4.6-4-10.5-12.1-6-18,3.1-4,17.2-12.9,22.1-13.4,3.4-.3,8.3.6,11.4-.1,1.4-.3,4.1-3,5.7-3.9,3.6-2.1,7.7-3.6,11.9-4h0ZM756.6,76.5c1.5,1.4-5,2.7-7.9-.5-.9-1-1.3-2.9-1.9-3.4-.8-.7-9.4-.7-11-.5-3.7.4-17.8,8.9-20.4,11.8-2.9,3.3-1.9,6.5,0,10.2,3.1,6.3,16.2,14.3,23,15.8,6.4,1.5,27.5-.4,33.7-3,6-2.5,22.6-18.6,23.5-25,1-7.6-4.4-14.9-11.8-16.4-8.2-1.6-19.2-2.6-27,.6-3.5,1.5-5.7,4.2-9.1,5.5,1.6,4.5,4.6,5.3,9.1,4.8h0Z"/>
    <path class="st0" d="M567,136.8c1.3-.2,3.3-.2,4.7-.1,7.5.7,21.2,13.6,24.1,20.5,1.1,2.6,1.1,5.2-.3,7.6-1.7,3.1-8.6,7.3-10.6,10.9-4.7,4.2-11.3,2.7-17,3.2-8.7.7-16.5,5.6-24.9,1.3-2.2-1.1-10.7-7.6-11.5-9.6-1.7-4.9,1.2-9.6,4.6-12.8,1.5-1.5,3.9-2.7,5.3-4.3,1.3-1.4,2.1-3.7,3.4-5.2,4.3-5.1,10.1-4.5,15.4-7.1s4.1-3.8,6.7-4.3h0ZM567.4,138.7c-2.1.4-4.7,3.5-7,4.6-4.3,2-10,1.9-13.6,5.6-1.6,1.6-2.1,3.7-3.3,5.3-2.8,3.6-7.5,4.9-9.5,9.6-1.7,3.9-1.4,5.9,1.9,8.6,3.1,2.6,14.3,4.5,18.5,4.1,8.8-.9,6.9-7.8,11.6-11.4,2.8-2.2,13.2-3.8,13.9-4.8,1.3-1.8-4.9-6.8-5.1-9.4s5.5-3.6,3.5-7.2-6.5-5.7-10.8-4.8h0ZM539.7,175.1c7.6,8.8,18.2,2.7,27.6,1.9,2.7-.2,5.5.2,8.1,0,8.5-.7,8.8-4.3,14.2-9.4,3.1-3,5.9-3,4.7-9-.4-1.7-5.4-7.9-6.8-9.5-2.5-2.6-5.5-4.6-8.4-6.7-.2.9.7,1.5.9,2.3.7,3.3-3.8,3.5-3.8,6.1,0,3.2,9.5,9,2.9,10.8,1.5,2.1.8,4.7,1,7.2-.8-.2-1.1-2.2-1.2-2.9-.2-1.3-.1-2.6-.5-3.9-3.4,1.2-8.9,1.8-11.8,4.1-2,1.6-3.2,5.8-5,7.9-3.2,3.8-9.3,4-13.9,3.3-2.9-.4-5.2-1.5-8-2.3h0Z"/>
    <path class="st0" d="M326.6,208.5l-.3,1.4c-12.8-.3-24.7-4.6-37.1-7.1-18.1-3.6-37-5.5-55.4-8.9-9.6-1.8-28.2-7.6-37-6.4-4.5.6-8.4,2.7-13.6,3.2-25,2.7-51.4,2.8-76.3,5.8-8.8,1.1-16.7,4.1-25.3,5.9-26.3,5.6-53.1-8.2-79.8-5.4l-1.2-1.4c5.6.2,11.5-.4,17,0,20.7,1.3,41,9.9,62.2,6,6.2-1.1,12.2-3.4,18.3-4.7,13.6-2.8,28.5-2.5,42.4-3.7,15.2-1.3,30.9-2.2,46.1-3.8,2.9-.3,6.3-2.5,9.6-2.8,10.5-1.2,30.1,4.9,41.4,7,17.5,3.3,35.7,5,53,8.4,11.9,2.4,23.5,7.1,35.9,6.6h0Z"/>
    <path class="st0" d="M146.7,44.4c.2,1.2-.2,1-1.2,1-5.2,0-12.1-2.5-17.8-2.9-12.2-.8-22.3,1.5-34.1,2.4-6.9.5-14.4,0-21.3.7,3.2,4.4,5.2,9.7,8.4,14.1,5,6.9,11.8,10.8,20.6,11,9.4.2,20.4,0,29.5,3.6,1.9.8,3.3,2.2,5.4,2.8,5.5,1.7,9.7,1.9,15.1,5,.2.1,1.5.7.9,1.1-5.3-2.8-11.6-3.3-17-5-1.7-.6-3.4-2-5-2.7-9.8-3.8-20.3-2.8-30.2-3.9-6.5-.7-13-3.2-17.3-8.1-4.8-5.3-7.7-12-11.1-18.2-11.2,0-22.3,0-33.5,0-3.4,0-6.9-.7-10.6-.5-8.4.3-16.8,2.4-25.2,2.7-.9,0-1.4.2-1.4-1,7.4-.5,14.9-2.2,22.3-2.7,21.8-1.2,43.9,1.4,65.8,0,12.3-.8,24.5-3.7,36.9-2.9,7,.4,14,2.2,20.9,3.4h0Z"/>
    <path class="st0" d="M656.2,197c-3-1-5.1-2.5-8.5-2.8-17.1-1.8-31.5,4.5-47.6,7.5-14.7,2.7-27.1.6-41.6,1.1-9.4.3-17.8.7-27.3.5-15.7-.3-30.9,1.1-46.4-2.1-13.8-2.8-35.6-10.5-49.2-6.2-1.6.5-2.8,2-4.4,1.8,1.2-2.6,5.4-3.2,7.9-3.6,20.8-2.9,41.1,8.3,61.4,9.1,3.2.1,6.2-.5,9.1-.5,24-.1,48,.2,72,.5,23,.3,45.2-12.4,67.9-8.9.6,0,8.2,2.2,6.7,3.6h0Z"/>
    <path class="st0" d="M206.5,157.5c-1.3,1.5-8.7,4.5-10.9,5.2-9,2.6-15.2,1.9-23.8-1.7-4.2-1.7-8.9-4-8.4-9.3.6-6,6-9,11.4-10.2,9.6-2.2,16.7.2,24.5,5.9,2.1,1.5,9.5,7.3,7.1,10.1h0ZM184.1,141.9h-5.2c0,0,1,1.4,1,1.4-4.4-.5-10.8,1.4-13.1,5.4-3.7,6.6,1.8,8.9,7.1,10.9,8,3.1,13,3.6,21.4,1.2,1.2-.4,9.3-3.7,9.5-4.1.4-.6,0-1.6-.4-2.1-.9-1.4-5.5-5.3-7.1-6.4-3.6-2.4-8.6-5.2-13.1-4.9v-1.3c0,0,0,0,0,0Z"/>
    <path class="st0" d="M355.4,83.5c4.6-.6,14.3,1.7,17.7,5.1s4,9.6-.3,12.7c-10.5,7.5-26.4,7.5-37.2.8-3.5-2.1-4.2-2.8-1.5-6.5,3.8-5.2,15-11.4,21.4-12.2h0ZM360.4,84.8c-1.3.2-3.3-.3-4.5,0-.5.1-.5,1.2-1.1,1.4-.9.3-2.2-.1-3.2.2-4.1,1.1-15,7.8-16.7,11.6-.2.5-.6.6-.2,1.2,1.4,2.6,15.1,6.1,18.2,6.2,4.3.2,17.8-3.5,20.2-7.2,4.2-6.7-7.2-13.5-13.2-12l.5-1.4h0Z"/>
    <path class="st0" d="M797.3,53c-.2.9-.9.9-1.7,1-4.3.5-9.5-.4-14,0-39.6-2.5-79.3.7-119-.5-8.5-.2-16.4.5-24.7.8-.9,0-1.4.2-1.4-1,7-.8,14.3-1.4,21.4-1.2,6.3.1,12.8,1.2,19.2,1.5,11.2.4,22.4-1.2,33.6-1.5,22.1-.6,44.2-.5,66.2.5,6.8.3,13.6.1,20.4.5h0Z"/>
    <path class="st0" d="M841.5,133.7c-.1-.8,1.1-.4,1.7-.5,5.8-.2,12.4-.2,18.3,0,3.6.1,7.9.9,11.5,1,21.1.6,43.3-8.3,64.3-10.6,16.8-1.8,35.2-2,52.3-3.4,1.4-.1,3.2-.5,4.6-.9.2,1.4-1.8,1.6-2.8,1.8-15,2.2-30.3,2.1-45.5,3-25.3,1.6-50,11.9-75.3,11-3.5-.1-7.5-.9-11-1-6-.2-12.1.5-18-.5h0Z"/>
    <path class="st0" d="M245.5,133.2c-.4.8-2.7.9-3.6,1-8.1.5-17.2.7-25.4,1-25.2.9-50.1-9.4-75.4-11-14.3-.9-28.4-.9-42.7-2.9-.7,0-1.5,0-1.7-1,9.7.2,19.3,1.7,29,2.4,7.9.5,16,.1,24,1,25.2,2.6,50,13.9,75.8,9.6h19.9s0,0,0,0Z"/>
    <path class="st0" d="M1158.1,283.8c.1,1.2,0,.8-.7.9-7.1,1.3-14.1,1.2-21.3,3.1-6.3,1.7-12.5,5-18.7,6.7-18,4.9-41.3-2.5-59.7-4.1-6.4-.6-12.9-.5-19.4-.5-.8-.6,0-.9.7-1,3.9-.5,11.7-.2,15.8,0,19.3,1.1,43.1,9.4,62,4.4,6.8-1.8,13.3-5.4,20.2-7.1s14.1-2.3,21.1-2.6h0Z"/>
    <path class="st0" d="M967.2,311.5l-32.8-2.4c-27.2.4-52,4.5-79.1,0-1.9-.3-4.9-.4-6.1-1.8,7.8.5,15.5,2.2,23.3,2.9,10.6.9,19-.3,29.3-1,19.5-1.2,38.6-1.7,58,.5,1.7.2,4.2.5,5.8.9.7.2,1.5,0,1.7,1h0Z"/>
    <path class="st0" d="M237.9,307.2c-.3.9-1.5,1.1-2.3,1.3-28.5,6.4-54.8-.4-82.9.6-5.3.2-11,.6-16.3,1s-11,1.2-16.6,1.4c-.1-.7.8-.7,1.3-.8,7.9-2.2,27.9-2.9,36.8-3,13.8-.2,28.4,2.4,42.2,2.9,12.5.5,25.2-2.2,37.7-3.4h0Z"/>
    <path class="st0" d="M1141.2,141.5c4.9-.6,9.6,3.3,8.1,8.5-.2.6-3.4,5.3-3.8,5.7-2.5,2.1-7.5.3-10.6,0-4-.3-10.1,1.8-10.2-4.2,0-2.8,5.4-8,8-8.6,1.4-.3,2.3.2,3.4,0,1.4-.2,3.4-1.4,5.1-1.6h0ZM1127,153.3c.5.9,13.7.5,15.9,1.4,1.6-.3,5.1-6,4.6-7.7-.4-1.2-3.7-3.6-5-3.7-2-.1-6.6,2.1-8.6,2.9l-.9-1.4c-2.1,1.5-7.8,5.6-5.9,8.6h0Z"/>
    <path class="st0" d="M1067.4,204.7c0,.8-1.8,1-2.5,1.1-8.5,2-17.3,4-25.8,5.8-14.4,3.1-20.8.4-34.5-2-8.1-1.4-15-1.1-23.1-.2-.1-.7.9-.6,1.4-.7,4-.9,9.6-1.4,13.7-1.2,8.8.3,17.1,3.9,25.9,4.4,15.9.9,29.2-6.5,44.9-7.2h0Z"/>
    <path class="st0" d="M105.9,209l-.2.9c-7.7-1.8-15.6-1.7-23.4-.3-13.6,2.4-19.5,5.1-34,2-8.5-1.8-17.3-3.8-25.8-5.8-.7-.1-2.4-.3-2.5-1.1,15.8.8,29.4,8.2,45.3,7.2,8.4-.6,16.5-3.9,25-4.3,5.2-.2,10.5.6,15.6,1.4Z"/>
    <path class="st0" d="M787.2,309.2c-1.2,1.6-5.1,0-7,0-9.8-.4-23.7,1.1-33.5,2.5-14.9,2-28.4,7.1-43,10l1.6-1c13.4-3.3,26.2-8,40-9.9,7.9-1.1,17.8-2.1,25.8-2.5,5.4-.2,10.8,0,16.1,1h0Z"/>
    <path class="st0" d="M852,298.1c0,.8-2.1.9-2.6,1-8.8.7-18.6-1.6-27.3-2.4-12.2-1.1-21-.4-33.1-4.3-.7-.2-5.9-1.4-4.5-2.9,12.4,5.9,25.8,5.1,39.1,6.2,9.5.8,19,3,28.5,2.4Z"/>
    <path class="st0" d="M429.3,204.7l-7.4,1.4c-14.2,1.1-28.4,2.7-42.7,3.4l-24.7-.5c-.8-.6,0-.9.7-1,7.5-1,16.3,1.3,24,.5,1.3,0,2.5-.5,3.8-.5,2.1,0,4.2.1,6.2,0,13.4-.8,26.6-3.3,40.1-3.4h0Z"/>
    <path class="st0" d="M733,208c-.2.9-.9.9-1.7,1-7.2.8-16.1,0-23.5.5l-42.2-3.4-7.9-1.4c11.2-.2,22.2,2,33.3,2.9,14,1.1,27.9.9,42,.5Z"/>
    <path class="st0" d="M235,298.6c-.1-.8,1.1-.5,1.7-.5,9.5-.4,18-1.6,27.4-2.4,14.7-1.3,23-.8,37.5-5.7.8-.3.8-1,1.6.1-4.6,2.5-10.5,4-15.7,4.9-7.3,1.3-14.5.9-21.9,1.6-10.1.9-20.3,3.5-30.5,1.9h0Z"/>
    <path class="st0" d="M1192.2,250.2c-.4,1.1-1.9,1.1-2.8,1.3-11.3,2.5-22.7.2-33.9-.4-6.1-.3-12.4.3-18.5,0,.2-.9.9-.9,1.7-1,13.4-1.8,27.2,1.5,40.8,1,4.1-.1,8.5-1.1,12.7-1h0Z"/>
    <path class="st0" d="M1091.9,50.2c-2.9,6.5,3.8,6.9,6.7,10.4,2.1,2.5,2.5,7.2,4.3,9.6,1.9,2.6,6.4,2.7,5.4,7.3-1.5.3-.8-1.1-1.4-2.2-.9-1.6-3.9-2.8-5.2-4.8-1.8-2.7-1.8-6.4-3.9-9-.8-1-4.9-4.2-6-4.5-.9,3.2-5.6,5.8-5.9,9-.1,1.4.8,2.8.3,4.6,0,.2-2.3,3.6-2.8,4.4-.4.6-.4,1.4-1.4,1.2-.6-2.3,2.9-4.3,3.3-5.6.6-1.8-.4-3.2-.4-4.7,0-3.9,5.6-6.6,5.7-9.1.1-1.7-1.2-4.1,0-6.2l1.5-.3h0Z"/>
    <path class="st0" d="M815.5,218.1c0,.7-1.3.7-1.8.8-13.8,3-28.9,1.1-43,1.6-3.9.1-8.4,1.5-12.2.5,0-.7,1.2-.9,1.7-.9,14.2-1.5,30.1-.3,44.6-1,3.6-.2,7.1-1.6,10.8-1h0Z"/>
    <path class="st0" d="M1188.8,201.8c-.2.7-2.7,1-3.1,1-11.1,0-23.2.9-34.5,1.4-4.5.2-9.2,1.1-13.7,1-.1-.7.8-.7,1.3-.8,7.4-2.1,19.1-1.1,27.2-1.6,7.5-.4,15.3-2.6,22.8-.9h0Z"/>
    <path class="st0" d="M473.4,302.5c-.3.2-1.3.1-.9-.7,1.9-4.4,8.2-5.3,11-8.2,2.3-2.4,3-6.4,5.8-9.1,2.3-2.2,6.3-3.5,8.2-5.7,4.2-5.1,2.2-14.7,8.1-18.9,0,2.3-1.8,3.5-2.6,5.7-1.7,4.5-1.2,9.2-4.3,13.4-2.4,3.2-6.5,4.1-9.1,6.7-2.3,2.4-2.9,6.3-5.2,8.7-3,3-7.3,3.7-10.4,6.9-.4.4-.4,1.1-.5,1.2h0Z"/>
    <path class="st0" d="M534.4,218.6c.2.2.2,1.3-.6.8l-31.3-3.3c-3.9-.2-5.8,2.7-9.6,2.4-6.5-.5-12.9-4.7-19.4-5,.8-1.1,1.9-.7,3-.6,4.8.6,14.4,5.6,18.7,4.6,1-.2,1.8-1.2,2.7-1.6,4.5-1.7,19.9,1.1,25.7,1.7,1.8.2,9.8,0,10.8,1Z"/>
    <path class="st0" d="M49.3,289c.8.6,0,.9-.7,1-3.6.5-8.2-.2-12,0-10.9.6-21.4,3.1-32.2,4.2-1.1.1-2.7.8-3.5-.2l3.7-1.1c14.9-2.2,29.6-4.9,44.8-3.9h0Z"/>
    <path class="st0" d="M960,290c-.7,1.4-3.2,1.8-4.6,1.9-5.7.6-12.3-.3-18.2,0-8.9.5-17.7,2.8-26.6,2.9.5-.7,2.9-1.9,3.6-1.9.9,0,1.8.6,2.8.5,6-.5,12.2-2.1,18.3-2.4,8.2-.5,16.6.7,24.7-1h0Z"/>
    <path class="st0" d="M42.1,120.8c0,.7-1.7.7-2.3.8-6.7,1.2-14.4,2.5-21,3.4-5.7.8-12.3,1.4-17.9.5-.7-.7,0-.9.7-.9,3.1-.4,6.9.2,10.1,0,10.2-.7,20.2-4.2,30.5-3.8h0Z"/>
    <path class="st0" d="M170.7,293.4c.2,1.2-.2,1-1.2,1-5.7,0-13.1-2.1-19.2-2.4-5.8-.3-17,1.1-21.7-.8-.7-.3-1.3.3-1.1-1.1,8,1.7,16.1.5,24.2,1,6.3.3,12.7,1.7,19,2.4Z"/>
    <path class="st0" d="M732.5,233.4c1.7,1.2-3.4.9-4,.8-2.9-.6-5.5-3.3-7.8-3.7-3.5-.5-6,.7-9.1.9-4.2.3-13-1.3-17.6-2-.4,0-1.4-.2-1.3-.8,5.5-1,11.4,1.8,16.5,1.9,3.5.1,6.4-1.5,10.5-.9s8.1,4.7,12.8,3.8h0Z"/>
    <path class="st0" d="M304.5,219.5c-.2.9-.9.9-1.7,1-8.3.9-20.9,0-29.1-1.6-.6-.1-2.3,0-2.3-.8l33.1,1.4h0Z"/>
    <path class="st0" d="M963.8,76.6c-1.2,3-5,4.7-6.4,7.7-1.4,3-.3,5.9-1.8,9.2-.4.8-2.7,3.7-3.5,3.7-1.8,0,1.2-2.6,1.4-2.9,2.7-4.1.9-6.7,3.1-10.8.6-1.2,6.1-7.9,7.3-6.9h0Z"/>
    <path class="st0" d="M135.7,95.2c-2.2-.6-4.4-3.8-4.8-6-.6-4.3.3-5.3-2.7-9.3-1.4-1.8-3.8-3.1-4.5-5.3.3-.3,3.5,2.3,3.9,2.6,5.7,5.6,2.9,7.7,5,13.2.7,1.9,2.6,2.9,3.1,4.8Z"/>
    <path class="st0" d="M445.6,84.3l-2.2,9.6c-1.9,0,.6-7.9,1-8.6s0-1.2,1.2-.9h0Z"/>
    <path class="st1" d="M477.8,264.6c-4.3-1.6-8.1-1.7-12-4.6-1.8-1.3-3-3.8-5.3-4l5.6,5.7c3.4,2.4,7.4,2.6,11.2,3.9-1.7,7-9.4,10.3-14.6,14.4-3.7,2.9-10.5,11.1-14.5,11.9-1.2.2-4.4.5-5.7.6-11.8.4-23.7-.7-35.5-.5-7.3.1-16.4,2-23.5,0-9.1-2.5-9.1-20.3-6.4-27.5,4.2-4.5,7.5-9.7,11.5-14.4,4.5-5.3,10.2-10,13.7-16.1,2.7-4.6,6.1-16.3,12-17.2,5-.8,10.8.2,15.8.4,3.9.2,11-.2,14.3,1.5,8.6,8.2,18.6,15.6,27.2,23.6,1.7,1.6,4.3,3.8,5,6,.4,1.3,1.2,6.2,1.2,7.4v8.9h0ZM454.1,261c4.4-5,.5-8-1.5-12.8-5.2-12.4-6.5-14-18-21.3-5.6-3.5-12-7.1-18.2-9.4,6,4.3,13,7.2,19.1,11.3,10,6.6,11.2,8.4,15.8,19.2,1.3,3,4,6.1,3.4,9.5-.5,2.9-9.7,9.2-12.2,12.2-1.8,2.2-3.9,4.8-3.5,7.8.4,2.4,5.9,10.7,7.7,12.7.1.2,1.6,1.2,1.3,0-2.8-5.4-10.8-10.9-6.4-17.5,3.2-4.9,9-7.7,12.5-11.7h0Z"/>
    <path class="st1" d="M626.5,255.9l-7.8,5.8-9,2.8c-1.1-2.2,0-4,0-6,.2-3.4,0-7.7,1.1-10.9s15.5-14.3,19-17.4c4-3.5,10.9-11.6,15.8-12.5,3.8-.7,8-.5,11.8-.7,4.3-.2,12.2-1.3,16.2-.4,5.3,1.2,9.1,13.5,11.8,18,3.5,5.9,10.2,11.5,14.7,16.9,2.3,2.8,4.3,6,6.5,8.9,2.9,3.8,4.2,3.4,4.8,9.1.6,6.3.6,11.9-2.5,17.7-1.7,3.2-3.3,4.3-6.9,5-6.3,1.2-15.4-.4-22-.5-11.4-.2-22.8.9-34.1.5-1.8,0-5.3-.4-7-.7-4.5-.9-10.1-8.3-13.7-11.3-4.5-3.7-9.3-5.4-13.2-10.3-5-6.3.2-4.8,5-6.4,3.2-1.1,6.2-3.4,8.4-6,.5-.5,1.2-.8,1-1.7h0ZM670.6,217.6c-5.7,2.3-11.6,5.4-16.9,8.7-5.4,3.3-12,7.6-15.3,13-2.9,4.7-3.9,10.4-6.9,15.2-.3,1.1-.4,2.5-.2,3.6.9,4.8,16.5,12,15.8,19.1-.4,4.7-6.8,9.2-7.7,13.7,3.2-3.8,9.4-10.4,8.6-15.5-.5-3.3-6.5-8.6-9.1-11.1-3.6-3.4-8.1-4.2-6-10.3,1.1-3.1,4.2-10.1,5.7-13,6-11.1,21-15.5,30.6-22.1.5-.3,1.2-.7,1.3-1.4h0ZM704.7,263.1c-2.6.6-6.4,4.3-6.2,7.2l6.2-7.2ZM693.7,278c-1.9,0-2.8,1.9-4.7,2.3-3.1.6-7.5-1.2-10.5-2.3-4.5-1.7-3.9-1.2-8.6-2-3-.5-5-2.5-8.2-.4-.9.6-2.7,2.7-1.2,3.4,2-5.2,5.1-2.4,8.4-2,1.8.2,3.9-.2,5.6.1,1.1.2,2.6,1.6,4,2.2,2.2.8,6.9,2.5,9,2.5,1.8,0,5.7-1.8,6-3.8h0Z"/>
    <path class="st1" d="M207.9,264.8c-.3-3.7,2.8-7.2,5.2-9.8,2.1-2.3,5.7-3.8,5.6-7.8l2.3,13.1c0,2.8-1.6,4.2-3.5,5.9-13.6,12.4-23,10.4-40.1,11.4-5.6.3-12.3,2.5-17.6,2-5.7-.6-11.9-6.2-16.9-9.1-5.2-3.1-13.1-4.7-12.5-12.2.3-3.6,6.1-19.3,7.9-22.8,3.9-7.4,8.9-7.7,14.6-12.5,2.8-2.3,5.2-5.5,8-8,3.4-2.9,7.2-5.4,10.9-7.9,1-.2,1.9.7,2.6,1.2,3.6,2.3,10.4,7.7,13,10.9,2.2,2.7,2.7,5.2,6.1,7,5.7,3,9.1,3.2,13.2,9.2,1,1.4,1.5,3.2,2.6,4.4-.7-4.8-5.2-9.3-9.3-11.6-2.2-1.3-6.1-2.4-7.8-3.7s-3.7-5.6-5.6-7.6c-2.1-2.2-6.3-5.3-8.8-7.1-1.7-1.2-3.5-2.1-5.2-3.2,5-3.4,12.7.7,17.3,3.5,6.6,4.1,10.2,10.8,15.5,16.1,4.7,4.8,12.5,9.3,12.8,17.2,0,.8-.3,5.2-.5,5.8-.6,1.9-8,7.8-9.7,11-.6,1.1-2.4,4.9,0,4.9h0ZM156,232.8c-1.1-.2-.7.2-.9.9-.4,1.3-.5,2.3-1.3,3.5-1.1,1.5-3.5,2.4-4.3,4.1-.7,1.5-.5,5.5-.8,5.8,0,.1-1.1.3-1.5.7-1.1.9-4.4,4.7-4.8,6-.2.7.3.8.8.4.3-.3,4.9-7.1,5.6-6.2.3,4.3.5,8.8,3,12.4.5-2-1.5-4.3-1.8-6.2s-.5-6.8-.4-8.7c0-.9.4-2.8.8-3.6.8-1.6,3.8-3.2,4.7-4.9.5-1.1.8-2.9.9-4.1h0Z"/>
    <path class="st1" d="M880.3,199.4c.8.9-.3.8-.7,1-10,5.2-14.5,10.6-21.2,19.1-2.7,3.5-6.2,3.6-9.8,5.5-4.8,2.6-11.7,8.9-12,14.6l3.6-6.2c3.5-6.6,13.2-7.7,17.6-11.6,2.2-2,4.3-6.5,6.8-9.1,3.1-3.2,10.7-9,14.5-11.4.7-.4,1.2-1.1,2.2-1,1.2.2,10,6.8,11.6,8.1,4.5,3.7,8.4,8.7,12.8,12.2,7.5,5.9,12,5.3,16.8,15.3,2.1,4.3,8.9,23,8.9,27.1,0,8.3-10.9,11.1-16.8,14.6s-11.2,8.9-18,9.9c-5.9.8-10.2-1.1-15.8-1.7-7.6-.9-15.3-.2-23-1-4.2-.4-8.4-1.6-12.7-1.9l3.8-.7c.6-.6,3.8-1.4,3.8-1.9,0-2-4.7,1-5.2,1.1-6.9,1.4-7.4-13-9.3-16.8-1-2.1-4-5.5-5.7-7.3-3.2-3.5-8.7-5.7-6.2-11.9l-1-.5c1.2-9.8,6.7-12.9,12.8-18.9,10-9.8,19.4-25.5,34.7-27.7,1.6-.2,6.3.2,7.3,1.3h0ZM916.8,257.4c.6-.8-3.1-5.7-3.8-6.5-.9-.9-3.3-2.2-3.6-2.6-.8-1.4.3-4.5-.5-6.2-.7-1.5-4.4-3.8-5.4-5.1-1.2-1.6-.9-4.1-2.5-5.4-1.1,7.4,6.4,7.3,7.1,13.7.4,3.1,0,8.8-.2,12-.2,2-2.7,5.1-2.7,7.4,3.9-3.5,3.6-9.9,3.8-14.9.9-1,5.9,6.1,6.4,6.8.4.5,0,1.2,1.2.9h0Z"/>
    <path class="st1" d="M844.8,282.3c-2.8-.1-5.6-1.4-7.9-2.9s-11.9-9-13.1-10.9c-3-4.8,1.3-13.8.9-19.3,1.3,1,1.4,2.7,2.4,4.1,2.8,3.9,7.8,6.6,10.2,11.4,2.6,5.3,1.4,13.6,7.6,17.6h0Z"/>
    <path class="st1" d="M1067.9,228.1c-4.4,3.8-4.8,9.1-8.2,13.6-.9,1.2-3,3.5-4.2,4.4-5.9,4.6-11.2,1.6-14.8,10.2-.4.9-1.7,3.9-.6,4.4.8-2.7,1.9-5.4,3.8-7.4,3.1-3.3,8.5-3,12.7-6.4,7.4-6,7-12.6,12.9-19.2,3.8-4.2,10.5-11,14.9-14.4s5.7-3.1,11-2.9c9.1.4,21.2,4.8,28.3,10.6,7,5.7,2.6,6.8,3.1,13.6.4,4.9,2.1,6.6.8,12.3-1.5,7-14.4,28.3-20.1,32.7-8.2,6.4-14,2.9-22.8,1.8-6.3-.8-9.5-.2-16-2.2-12.7-3.8-29.4-4.6-43.2-8.6-2.9-.8-11.2-3.5-11.5-6.8-.1-1.5,4.1-9.8,5.2-11.5,9-14.9,23.2-13.3,37.8-19.3l10.8-4.8h0ZM1126.9,225.3c-8.7-.6-13.9,5.7-16,13.5-.8,3.1-.6,6.9-1.9,9.6-2.4,5.2-13.4,6.2-14.3,12.8,3.9-6.2,14.2-6.8,16.2-14.3,1.7-6.5,1.5-15.2,8.8-19,2.3-1.2,5.3-1,7.2-2.7h0ZM1085.7,279.4c2.3,0,4.4-2.5,5.8-4.1,3.9-4.5,4.5-8.3,5.3-14.1-10,4.9-20.7,8.7-30,14.9v1.4l28.6-14.4c-1.2,2-.6,4.7-1.3,6.6-.2.6-3.6,5.2-4.2,5.9-1.3,1.4-3.2,2.1-4.1,3.8h0Z"/>
    <path class="st1" d="M53.1,179.7c.2-1.4-.3-.8-1.1-1-2.7-.7-5.1-.2-7.7-.5-7.2-.8-11.5-5.1-17.6-7.4-5.1-1.9-11.1-1.9-15.2-6.2,1.6-3.7,2.4-8.8,6-11.2,2.6-1.8,6.8-2,8.4-5,.5-1,.6-2.2,1.1-3.2,1.8-3.1,15.5-8.6,19.2-8.7,1.1,0,4.5.7,5.5,1.2,2.3,1.3,4.4,5.6,7.4,7.5,6.9,4.3,18.1,6.9,25.9,10.5,2.4,1.1,10.3,4.9,10.9,7.4-2,1.3-3.1,3.5-5.1,4.9-9.7,7.2-22.3,5.1-32.8,9-.5.2-1.9.5-1.9,1.2l18.3-3c7.5-1.7,17.6-3.8,21-11.4,1.3,1.3,1.8,5.1,1.9,7,.9,13.2-10.6,12.2-20,15-8.4,2.4-16.9,8.1-25.8,7.3-6-.5-13.3-5.1-19-7.4-9.9-4-26.1-5.6-21.6-20.4,4.1,4.9,10.3,4.7,15.8,7s12.3,7.4,18.5,7.4h7.9ZM53.6,167.8c3.8,3.6,8.1.9,12.4.1,3.6-.7,10.5-.5,12.1-4.7.6-1.4.4-3.1-1-4.1,1.6,7.9-7.9,6.8-13.1,7.8-1.6.3-3.6,1.5-5,1.6-1.6.1-3.7-.9-5.5-.8ZM56.5,178.8c-1.1-.1-1.9,1.4-2.3,2.2-1.7,3.1-4.3,8.4-2.2,11.6,1.4-1.5.4-3.7.9-5.8.6-2.5,3-5.5,3.6-8.1Z"/>
    <path class="st1" d="M1041.8,179.7c7.7-.8,11.2-4.2,17.5-6.9,3.9-1.7,8.8-2.1,12.5-3.8,1.9-.9,3-2.5,4.8-3.1,1.8,8.9-.8,11.5-8.3,14.9-7.2,3.3-16.3,6.7-23.8,9.7-15,6-19.3,0-32.7-4.2-5.7-1.8-16.5-2.4-20-7.3-3.3-4.4-1.3-10.2-.2-15.1,3.8,6.8,11.8,9.2,18.9,10.9l20.7,3.5c-.7-1.2-2.8-1.5-4.1-1.9-10.5-3.1-22.9-1.7-31.9-9.4l-3.3-4.3c2-2.4,4.8-4,7.5-5.5,8.8-4.7,20.7-6.9,28.9-11.9,3.5-2.1,5.7-7.3,9-8.2,5.3-1.5,18.3,3.1,22.2,6.9,1.8,1.8,1.5,3.9,3.4,5.7,2.1,2,4.8,2.1,7.1,3.5,3.4,2.1,4.6,7.6,5.8,11.3-4.1,4.8-10.8,4.6-16.2,6.8s-9.4,6.1-16.1,6.9c-2.6.3-5.2-.3-7.8.4-.8.2-1.2-.1-1,1.1,2.4-.2,5.1.2,7.4,0h0ZM1033.8,167.8c-1.8-.3-3.8.9-5.4.8-1.3,0-3.5-1.2-5.1-1.5-5-.9-15.5-.3-13-7.9-1.7.6-1.7,2.5-1.3,4,1,4.2,9.2,4.2,12.5,4.8s5.8,2.3,9.4,1.5c.7-.2,2.7-.9,3-1.6h0ZM1035.8,192.2c-.3-1.7.7-3.1.3-4.8-.5-1.9-3.3-7.4-5.1-8.6.2,2.9,3.2,6.4,3.7,9,.3,1.4-.6,4.8,1.1,4.4h0Z"/>
    <path class="st0" d="M756,208c.7.3-2.2,1.3-2.9.9-.7-.3,2.1-1.3,2.9-.9Z"/>
    <path class="st1" d="M303.6,165.8c5.9-.9,10.5.7,12.8-6.2,3.6.3,7.8-.4,11.3.1s14.9,7.5,17.9,10,4.1,3.8,3.5,7.8c-1.3,8.5-15.1,17.1-22.8,19.4-6.5,1.9-26.8.4-33.4-1.8-7.2-2.4-25.1-19-25.7-26.6-.3-4.5,3-10.8,6.7-13.3,3.8-2.6,18.5-4,23.2-3.6,7.2.5,12.5,3.5,18,7.9-.4,1.5-1.9,3.8-3.4,4.2-2.7.9-7.5-1.2-8.1,2.2ZM295.4,191.7c-.7-1.7-2.7-1.6-4-2.5-1.7-1-5.6-7-5.6-8.8,0-1.1,1.2-3.5,0-4.1-2.9,5.6,3,15.4,9.6,15.3h0ZM329.5,194.6l-4.3-6c-4.5-4.7-4.7-1.5-9.2-2.3-2.4-.4-5.1-2.8-7.5-3.2,1.1,1.8,5.1,3.8,7.1,4.2s5.3-.6,6.4-.1,6.9,8.2,7.7,7.4h0Z"/>
    <path class="st1" d="M756.6,76.5c-4.5.5-7.5-.3-9.1-4.8,3.4-1.3,5.6-4.1,9.1-5.5,7.8-3.2,18.8-2.2,27-.6,7.4,1.4,12.9,8.8,11.8,16.4-.9,6.4-17.5,22.5-23.5,25-6.2,2.6-27.3,4.4-33.7,3-6.8-1.6-19.9-9.5-23-15.8-1.8-3.7-2.8-6.9,0-10.2,2.6-2.9,16.7-11.3,20.4-11.8,1.7-.2,10.2-.2,11,.5.5.5,1,2.4,1.9,3.4,3,3.2,9.5,1.8,7.9.5h0ZM767.2,104.3c1.6,0,3.3-.6,4.7-1.3,3.2-1.9,8.8-10.8,4.7-14-.6,1.4.9,3,.6,4.4-.1.7-4.1,7.2-4.8,7.7-1.5,1.3-4.3,1.1-5.2,3.1h0ZM754.7,95.7c-2.7.3-5.4,2.8-8,3.2-2,.3-3.1-.4-4.7-.4-3.3,0-6.7,6.4-8.9,8.7,1,.9,6.7-7,7.7-7.4,1.3-.6,4.6.6,6.8.1,1.8-.4,5.7-2.8,7.1-4.2h0Z"/>
    <path class="st1" d="M567.4,138.7c4.2-.9,8.6,1.1,10.8,4.8s-3.6,4.5-3.5,7.2,6.4,7.6,5.1,9.4c-.7,1-11.1,2.6-13.9,4.8-4.7,3.7-2.8,10.5-11.6,11.4-4.1.4-15.4-1.5-18.5-4.1-3.3-2.7-3.6-4.7-1.9-8.6,2-4.7,6.8-6,9.5-9.6,1.2-1.6,1.8-3.7,3.3-5.3,3.6-3.7,9.2-3.6,13.6-5.6,2.3-1,4.8-4.1,7-4.6h0Z"/>
    <path class="st1" d="M539.7,175.1c2.8.8,5.1,1.9,8,2.3,4.6.7,10.7.5,13.9-3.3,1.8-2.1,3-6.3,5-7.9,2.9-2.3,8.3-2.9,11.8-4.1.4,1.2.2,2.6.5,3.9.1.7.4,2.7,1.2,2.9-.1-2.4.6-5.1-1-7.2,6.6-1.8-3-7.6-2.9-10.8,0-2.6,4.5-2.8,3.8-6.1-.2-.8-1.1-1.3-.9-2.3,2.9,2.1,5.9,4.1,8.4,6.7,1.5,1.5,6.5,7.8,6.8,9.5,1.2,6-1.5,6-4.7,9-5.4,5.1-5.6,8.6-14.2,9.4-2.7.2-5.5-.2-8.1,0-9.4.7-20,6.9-27.6-1.9h0Z"/>
    <path class="st1" d="M184.1,141.9v1.3c4.5-.2,9.5,2.5,13.1,4.9,1.6,1.1,6.2,4.9,7.1,6.4.4.6.8,1.5.4,2.1-.3.4-8.3,3.8-9.5,4.1-8.4,2.4-13.4,1.9-21.4-1.2-5.2-2-10.8-4.3-7.1-10.9,2.3-4,8.6-5.9,13.1-5.4l-1-1.4h5.2c0,0,0,0,0,0ZM191.8,149.1c-3.4.3-8.4,3.4-11.7,3.3-2.4,0-7.4-1.7-9.6-2.9-.3-.2-2.8-2.9-2.7-1.1,0,.9,3.9,3.3,4.9,3.7,6.9,2.8,11.6,1.4,18.1-1.8.7-.3,1.2.1,1-1.2h0Z"/>
    <path class="st1" d="M360.4,84.8l-.5,1.4c6-1.6,17.3,5.3,13.2,12-2.3,3.7-15.8,7.4-20.2,7.2-3.1-.1-16.9-3.7-18.2-6.2-.3-.7,0-.8.2-1.2,1.7-3.8,12.7-10.5,16.7-11.6,1-.3,2.3.1,3.2-.2.7-.2.6-1.2,1.1-1.4,1.2-.3,3.2.2,4.5,0h0ZM347.9,92c-.2,1,.5,1.1,1.2,1.5,1,.5,9.3,3.4,10.1,3.3,1.9,0,6.6-1.4,8.4-2.2.8-.4,4.8-2.8,3.9-4-2.7,2.3-8.3,4.7-11.8,4.8-2.1,0-11.2-3.7-11.7-3.3h0Z"/>
    <path class="st1" d="M1127,153.3c-1.8-3,3.8-7.1,5.9-8.6l.9,1.4c2-.8,6.6-3,8.6-2.9,1.3,0,4.6,2.5,5,3.7.5,1.8-3,7.4-4.6,7.7-2.2-.9-15.4-.6-15.9-1.4h0Z"/>
    <path class="st0" d="M454.1,261c-3.5,4-9.3,6.8-12.5,11.7-4.3,6.6,3.7,12.1,6.4,17.5.3,1.3-1.1.2-1.3,0-1.8-2-7.4-10.3-7.7-12.7-.4-3,1.7-5.6,3.5-7.8,2.5-3,11.8-9.4,12.2-12.2.5-3.4-2.1-6.5-3.4-9.5-4.6-10.8-5.8-12.6-15.8-19.2-6.2-4.1-13.1-7-19.1-11.3,6.1,2.2,12.6,5.9,18.2,9.4,11.6,7.3,12.8,8.9,18,21.3,2,4.8,5.9,7.8,1.5,12.8h0Z"/>
    <path class="st0" d="M670.6,217.6c-.1.6-.8,1-1.3,1.4-9.7,6.6-24.6,11.1-30.6,22.1-1.6,2.9-4.7,9.9-5.7,13-2.1,6,2.4,6.9,6,10.3,2.6,2.4,8.5,7.7,9.1,11.1.8,5.2-5.4,11.8-8.6,15.5.8-4.5,7.2-9,7.7-13.7.7-7.2-14.9-14.3-15.8-19.1-.2-1.1,0-2.5.2-3.6,3-4.7,4-10.4,6.9-15.2,3.3-5.4,9.9-9.7,15.3-13,5.3-3.3,11.2-6.4,16.9-8.7h0Z"/>
    <path class="st0" d="M693.7,278c-.3,2-4.2,3.8-6,3.8-2.2,0-6.8-1.7-9-2.5-1.4-.5-3-1.9-4-2.2-1.7-.4-3.8,0-5.6-.1-3.4-.4-6.4-3.2-8.4,2-1.5-.7.3-2.8,1.2-3.4,3.1-2.1,5.2,0,8.2.4,4.7.7,4,.3,8.6,2,3,1.1,7.4,2.9,10.5,2.3,1.9-.4,2.7-2.3,4.7-2.3h0Z"/>
    <path class="st0" d="M704.7,263.1l-6.2,7.2c-.2-2.8,3.6-6.6,6.2-7.2Z"/>
    <path class="st0" d="M156,232.8c0,1.2-.3,3-.9,4.1-.8,1.7-3.8,3.4-4.7,4.9-.4.8-.7,2.7-.8,3.6-.1,1.9,0,6.9.4,8.7.3,1.8,2.3,4.2,1.8,6.2-2.5-3.6-2.7-8.1-3-12.4-.6-.9-5.2,5.9-5.6,6.2-.5.4-1,.3-.8-.4.4-1.2,3.7-5,4.8-6,.4-.3,1.4-.5,1.5-.7.2-.4,0-4.3.8-5.8.8-1.7,3.2-2.6,4.3-4.1.9-1.2.9-2.2,1.3-3.5.2-.6-.2-1.1.9-.9h0Z"/>
    <path class="st0" d="M916.8,257.4c-1.2.3-.8-.4-1.2-.9-.5-.7-5.5-7.8-6.4-6.8-.2,4.9,0,11.3-3.8,14.9,0-2.3,2.5-5.4,2.7-7.4.3-3.1.5-8.9.2-11.9-.8-6.4-8.3-6.4-7.1-13.7,1.5,1.3,1.2,3.8,2.5,5.4,1,1.4,4.8,3.6,5.4,5.1.8,1.7-.3,4.9.5,6.2.3.5,2.7,1.7,3.6,2.6.8.8,4.5,5.7,3.8,6.5h0Z"/>
    <path class="st0" d="M1085.7,279.4c.9-1.7,2.8-2.4,4.1-3.8.6-.6,4-5.3,4.2-5.9.8-1.9.1-4.6,1.3-6.6l-28.6,14.4v-1.4c9.3-6.1,20-10,30-14.9-.8,5.8-1.4,9.6-5.3,14.1-1.4,1.6-3.5,4.1-5.8,4.1h0Z"/>
    <path class="st0" d="M1126.9,225.3c-1.8,1.7-4.8,1.5-7.2,2.7-7.4,3.8-7.1,12.5-8.8,19-1.9,7.4-12.2,8.1-16.2,14.3.9-6.6,11.9-7.6,14.3-12.8,1.2-2.7,1-6.6,1.9-9.6,2.1-7.8,7.2-14.1,16-13.5h0Z"/>
    <path class="st0" d="M53.6,167.8c1.7-.1,3.8.9,5.5.8,1.4-.1,3.4-1.3,5-1.6,5.2-1,14.7,0,13.1-7.8,1.3,1,1.6,2.7,1,4.1-1.7,4.2-8.6,4-12.1,4.7-4.3.8-8.6,3.5-12.4-.1Z"/>
    <path class="st0" d="M56.5,178.8c-.6,2.6-3,5.6-3.6,8.1-.5,2,.4,4.2-.9,5.8-2.1-3.2.5-8.6,2.2-11.6.5-.8,1.2-2.4,2.3-2.2Z"/>
    <path class="st0" d="M1033.8,167.8c-.3.7-2.3,1.4-3,1.6-3.6.9-6-.8-9.4-1.5s-11.5-.5-12.5-4.8c-.3-1.5-.3-3.3,1.3-4-2.5,7.6,8,7,13,7.9,1.6.3,3.8,1.4,5.1,1.5,1.6.1,3.7-1.1,5.4-.8h0Z"/>
    <path class="st0" d="M1035.8,192.2c-1.7.3-.8-3-1.1-4.4-.5-2.6-3.6-6.1-3.7-9,1.7,1.2,4.6,6.7,5.1,8.6.4,1.7-.6,3.1-.3,4.8h0Z"/>
    <path class="st0" d="M329.5,194.6c-.8.8-6.6-7-7.7-7.4s-4.3.5-6.4.1-6-2.4-7.1-4.2c2.5.5,5.2,2.8,7.5,3.2,4.5.8,4.7-2.4,9.2,2.3l4.3,6h0Z"/>
    <path class="st0" d="M295.4,191.7c-6.6,0-12.4-9.7-9.6-15.3,1.2.6,0,2.9,0,4.1,0,1.8,4,7.8,5.6,8.8,1.3.8,3.4.7,4,2.5h0Z"/>
    <path class="st0" d="M754.7,95.7c-1.4,1.4-5.2,3.8-7.1,4.2-2.3.5-5.5-.8-6.8-.1-1,.5-6.7,8.4-7.7,7.4,2.2-2.3,5.5-8.6,8.9-8.7,1.6,0,2.7.7,4.7.4,2.7-.4,5.3-2.9,8-3.2h0Z"/>
    <path class="st0" d="M767.2,104.3c1-2.1,3.7-1.8,5.2-3.1.6-.6,4.6-7.1,4.8-7.7.2-1.4-1.2-3.1-.6-4.4,4.1,3.2-1.5,12.1-4.7,14-1.3.8-3.1,1.4-4.7,1.3h0Z"/>
    <path class="st0" d="M191.8,149.1c.2,1.3-.3.8-1,1.2-6.5,3.2-11.1,4.6-18.1,1.8-1-.4-4.9-2.8-4.9-3.7-.1-1.8,2.4.9,2.7,1.1,2.2,1.2,7.2,2.9,9.6,2.9,3.3,0,8.3-3,11.7-3.3h0Z"/>
    <path class="st0" d="M347.9,92c.5-.4,9.6,3.4,11.7,3.3,3.5,0,9.1-2.5,11.8-4.8,1,1.2-3,3.6-3.9,4-1.8.9-6.5,2.2-8.4,2.2-.7,0-9.1-2.9-10.1-3.3-.7-.4-1.4-.4-1.2-1.5h0Z"/>
  </g>
</svg>