<?xml version="1.0" encoding="UTF-8"?>
<svg id="Layer_2" xmlns="http://www.w3.org/2000/svg" version="1.1" viewBox="0 0 355.5 362.5">
  <!-- Generator: Adobe Illustrator 29.2.0, SVG Export Plug-In . SVG Version: 2.1.0 Build 108)  -->
  <defs>
    <style>
      .st0, .st1 {
        fill: #fff;
      }

      .st2 {
        fill: #99e7ff;
      }

      .st2, .st3, .st1, .st4 {
        opacity: .7;
      }

      .st3 {
        fill: #ffb888;
      }

      .st5, .st4 {
        fill: #d097fc;
      }
    </style>
  </defs>
  <g id="Layer_1-2">
    <path class="st3" d="M86.7,54.5c-1.6-1.3-2.9-1.2-4.7-1.8-.9-.3-1.7-1-2.7-1-.7,4.7,1,9.6-3.2,13-3.5,2.8-10.3,1-11.3,7.1-.2,1.5-.6,3.6-.8,5-.3,3,.7,5.3-.1,8.5-1.2,4.8-3.8,6.8-6.7,10.3-2.9,3.4-1.4,3.6-1.6,7.3-.4,7-11.2,8.4-14.8,14.2-.7,1.1-1.3,2.9-1.9,4.4.2.3.4.6.4,1,.2,1.6-.1,3.3-.9,4.7,0,0,.2-.2.2-.2.3-.2.5-.3.8-.2.5,2-1.8,4.2-3.2,5.5-2.4,2.2-5.3,3.9-7.4,6.5-6.9,8-.3,12.7.6,21.5,1.4,14.1-11.3,19.6-16.4,31.4-1.8,4.1-3.3,9.9-2.1,14.3.7.5,1.3-1.7,1.4-2.1,1.1-4.8.7-7.8,3.2-12.6,6.4-12.1,19.8-14.1,18.7-30.3-.6-8.4-3.1-13.5,1.5-21.7,3.3-5.8,10.9-9.6,12.3-15.8.5-2.1.3-4.4,1-6.5,1.5-4.6,8.1-6.8,11.1-10.5,2.6-3.2,2.4-6.9,4.6-10.3.4-.6,1-.9,1.3-1.5.7-1.3.7-4.5,1.4-5.3.2-.3.2-.3.5,0,.4,1.4,0,2.8-.4,4.1l3.7-2.4c3.5-3.7,1.9-8.8,2.3-13.3.9-10.2,11.7-11.9,13.8-20.3.4-1.6.7-1.9-.6-3h0Z"/>
    <path class="st4" d="M330.5,217.8c1.5-1.4,3.2-2.6,4.5-4.2,3.3-3.9,5.1-9.8,5.3-14.9,0-.7,0-4.8-.6-4.9-1.1-.2-.3,3.5-.4,4.2-.2,6.4-3.5,15.1-9.4,18.2-1.8,1-2.1.9-4,.2-5.4-2.1-5-7.1-9.1-9.6-3.5-2.2-7.8-1.4-11.4-3.7-2.8-1.8-4.3-5.6-7.3-7.1-3.4-1.8-7-.3-10.5-1.5-3-1-5.1-3.7-7.5-5.5-.5-.6-.2-2.6,0-3.4,1-5.2,4.2-8.6,7.1-12.7-.2-.2-1,.5-1.2.6-4.3,3.1-7.5,9.2-7.2,14.5-5-2.4-10.8.7-15.8-1.6-11-5,2.7-18.3,7.9-22.3,35.5-26.9,79.7-9.3,82.1,36.2.4,7.7-1.2,25.5-9.3,29.1-2.1.9-3.3.4-5-.9-4-3.1-3-9.4-8.3-10.8h0ZM301.5,155.5c-4.7.4-12.1,2.9-15.4,6.4-1.8,1.9-2.5,4.5,1.2,4.1,2.7-.3,7.2-2.8,10.5-3.5,1.1-.2,2.6-.5,3.7-.6,2.5-.2,9.1.9,9.2-3,.1-3.9-6.6-3.6-9.2-3.4ZM316.1,157.6c-2.5.6-1.5,5,2,4.5,3.3-.5,2-5.4-2-4.5ZM276.5,167.5c-2.9.2-2.3,4.9.8,3.1,1.8-1,.9-3.2-.8-3.1ZM302.6,175.1c-2,.3-1.2,3.8.8,2.2,1-.8.5-2.4-.8-2.2ZM295,179.4c1.1-1.3.1-3.5-1.8-2.9-3.5,1.1-.2,5.2,1.8,2.9ZM276.3,176.8c-.8-.5-1.7.8-1,1.3,1.1.8,1.5-.9,1-1.3ZM267.4,178.2c-1.6,0-1.6,3.6-.6,4.1.5.2.3-.4.4-.6,0-1.2-.1-2.3.2-3.5h0ZM271.7,181.3c1-1.1-.9-1.6-1.1-.8-.2.6.6,1.3,1.1.8ZM295.4,184.7c-.3,0-.7.5-.6.8,2,2.9,2.6-1.3.6-.8ZM345.6,188.8c-1.2-1.2-3.1.8-2,1.9s3.1-.8,2-1.9ZM332.9,195.3c-1.8.5-1.6,4.3.2,4.3s2.4-5-.2-4.3ZM322.1,200.1c.4.5-1.3,1.5-.4,1.7,1.5.3,2.2-2.5.8-3.2-.8-.4-1.7.4-1.3,1.3l.9.2h0ZM342.1,222.4c.7.5,2.4-2,2.7-2.5,2.4-3.9,4.7-13.3,3.5-17.7-.1-.4-.1-.9-.5-1.1-.4.3-.3.6-.4,1.1-.1,1.6.1,3.4,0,5.1-.4,5.2-2.6,10.8-5.3,15.2h0ZM328.5,204.9c-.9.3-.7,2.3.6,1.9s.2-2.1-.6-1.9ZM342.2,210.7c-.7.2-.9,1.6-.2,2,1.7.9,2.3-2.7.2-2Z"/>
    <path class="st4" d="M213.7,278.9c.6-4.1,4.4-3.4,7.5-4,9.5-1.9,15.8-6.9,18.5-16.4,6.5-2.5,12.9-5.6,18.2-10.2,2.8-2.5,5.5-5.3,6.5-8.9,9.5-2.4,14.3-9.4,16.4-18.5,1.6-7,1.7-11.9,6.2-18,1-1.2,4.6-5.2,6-5.5,1.7-.4,4.5.7,5.7,1.9l4.9,5.6c-8.6,6.5-16.9,13-21.2,23.2s-3.2,21.8-8.7,30.9c-2.6,4.4-8.6,9.7-14.1,6.9-.5-.3-2.6-2-2.8-2.5-.3-.8,1,0,1.1,0,9.2,1.9,13.5-9.9,8.3-17-.3-.4-2.1-2.3-2.5-1.9.4,1.1,1.3,2.1,1.8,3.1,2,3.9,2.6,8.4-.5,12-3.5,4.2-11.8,4-10.3-3.1.6-2.7,3.7-5.1,6.3-3.4,2.9,1.9,0,6.6-2.1,5-1.5-1.2.5-2.4.5-2.6-.2-.9-2.1-.2-2.4,1-.8,3.5,3.6,4.8,5.8,2,3.6-4.7-2.4-10.5-7.7-6-4.5,3.9-1.9,10.8,2.1,13.9l2.5,1.7c-2.3.4-4.7.4-7-.2l1.1-2.2c-.5.4-.9,1-1.3,1.3-1,.6-5.8.4-7.5.6-5.2.7-12.1,3.3-13.1,9.3-.4,2.2,1.1,3.2-1.7,4.6s-6.2-.7-9.1,2.2c-2.3,2.4-.6,5.9-1.8,7-.6.6-4.8.4-6,1.1v-12.8h0ZM292.3,203c-2.7.6-4.5,5.9-1.1,5.4,2.1-.3,4.2-3.4,2.8-5.4-.3-.2-1.3-.2-1.8,0h0ZM271.2,242.8c-2.3.4-2.6,3.9-.5,4.2,2.6.3,3.5-4.7.5-4.2Z"/>
    <path class="st4" d="M287.6,268c0,3.3,3.7,2.4,4-.4.4-3.8-4.4-4.5-6.5-1.5-4,5.6,2.5,12.5,8,7.1,6-5.9-.6-15.2,2.7-20.8.7-1.2,1.9-2,2.5-3.3,2-4-1.1-7.8,1.3-11.9,1.9-3.4,5.9-4.4,9.2-6.1-1,2.9-2.2,5.7-2.9,8.7s-.8,6.3-1.5,9.3c-.4,1.5-1.2,3.1-1.6,4.6-4.2,14.7-6.8,26.9-19.1,37.3-9.4,7.9-22,10.6-30,20.2-1.1,1.4-2,3.2-3,4.4-1.6,1.8-4.4,3.4-6.2,5.5-6.1,7-6.7,13.9-9.6,22.1-.4,1.1-2.6,6-4.2,5.1-1.8-.9,0-6.6.5-8.2,3.6-11.2,12.1-23,19.8-31.8,1-1.1,3.7-4.4,4.7-5.1.8-.6,4.9-1.6,6.4-2.2,3.6-1.7,7.1-4.3,9.8-7.2.4-.4,1.7-2.5,1.9-2.6.6-.4,2.9-.8,4.1-1.5,3.9-2.5,5.4-9.2,5.7-13.5.2-2.9-.5-6.1-.2-8.9.3-3.1,2-8.5,3-11.7,3.4-11,8.2-19.5,15.8-28.1,5.1-5.7,12-10.9,13.8-18.7,2,1,2.7,3.2,3.8,4.9-2.1,1.9-4.8,2.6-6.5,4.9s-1.9,4.9-2.9,7.5c-1.9,5.4-9.6,4.4-12.5,10.8-1.5,3.4-.6,5-.4,8.3.3,4.2-3.6,5.5-4,9.6-.6,5.5,3.8,13.6-2.1,17.9-5.8,4.2-7.1-5.8-3.3-6.7,3.5-.8,2.7,5.1-.2,2.1h0ZM294.5,244.7l-.6-.7c-1.5.5-2.9,1.7-2.6,3.4.2,1,1.8,1.5,2.4.5-2.6-.4-1.2-3.2.7-3.2ZM292.3,252.3c1-1-.8-1.6-1.3-.9-.6.8.5,1.7,1.3.9Z"/>
    <path class="st1" d="M214.6,272.1c1.5-11.2,6.4-19.8,15.5-26.4,7.4-5.3,15.5-9.3,22.9-15.1,9.3-7.3,16.3-16.1,22.2-26.2l3,3.5c-.2,1.9-.4,4.1-1,5.9-2.5,7-11.2,4.9-12.8,14.1-.4,2.2-.2,8.3-1.4,9.7-1.3,1.5-7.1,1.8-9.3,2.3-4.7,1.1-8.3,3.2-11.4,6.8-2.6,3-3.3,6.8-4.7,10.4-4.9,2.4-10.4,3.8-15,6.8-3.3,2.2-5.7,5-8,8.2h0ZM260,229.4c-2.5.8-4.7,3.1-6.7,4.8l1-.3,5.7-4.5Z"/>
    <path class="st4" d="M278,255.5c-.4.1-.5,1-.6,1.4-3.1,10.2-4.7,15.8-13.7,22.5-7.3,5.4-20.5,9.2-26,15.3-.3.3-.4.9-.7,1.2-.9.7-5.9,1.8-8,3.1-6.7,4-8,11.1-8.1,18.4h-1.2c-.2.9.8.3,1,.5-1,13.3-16.3,16.7-23.9,25.7-3.4,4.1-4.7,8.5-7.3,12.9-.8,1.3-2.5,4.1-4.2,4.1-3,0,0-5.7.6-6.9,6-11.5,17.1-17.4,26.2-25.9,7.9-7.3,5.3-9.8,6-19.5,1.2-17.7,22.4-19.8,34.1-27.6,4.2-2.8,7.3-6.1,10.3-10.1.4-.5,1.1-2.1,1.5-2.3.7-.5,3.3-.8,4.7-1.5,11.1-6,9.9-18.8,13.1-28.6.7-2,1.8-2.1,3.4-3.3.2,0,.1.2.1.4-.4,1.7-1.3,3.6-1.9,5.4-2.3,8-3,15.1-2.7,23.5.3,7,1.9,13.6-1.2,20.4-1.4,3-4.8,5.7-8.2,4.7-4.7-1.3-3.7-8.6.9-7.6,2.3.5,1.3,4.3-.7,2.1l-.7.2c-.7,3.2,4,2.7,4.4.1.7-4.1-4.2-5.8-7-3.1-1.5,1.4-1.9,3.6-1.7,5.5,0,.6.7,1.9.6,2-.2.5-1.8,2.1-2.3,2.5-1.6,1.4-4.2,2.5-6.2,3.1-6.3,1.8-13.4,1.2-19.9,1.8,5-4.6,11.8-6.8,17.8-10,8.6-4.6,16.3-10.5,19.9-19.9.4-1.1,1.7-4.8,1.7-5.8v-4.7h0Z"/>
    <path class="st1" d="M327.2,230.3c-3,4.5-5.4,9.2-6.8,14.5-3.8,15.3-.3,30.4-8.3,44.9-6.5,11.7-18,18.2-30.3,22.6,2.5-3.5,5.7-6.6,8.4-10,1.7-2.2,3.4-5.2,5-7.1.8-.9,2.4-1.9,3.2-2.8,8.8-9.1,12.1-17.7,14.4-30,1.9-10,3.7-24.9,11.4-32.3,1.1-1,1.5.1,2.9.1h0Z"/>
    <path class="st4" d="M202.9,358.9c-.4,0-.5-.8-.5-1.1-1.1-13.8,17.2-16.6,19.2-27.1.6-3.2-.3-9.3,1-11.9.2-.5.8-.6,1.1-1,4.2-5.3,5.7-14.6,10.6-18.8,1-.9,3.5-1.1,4.8-1.3,9.6-1.1,22.4.9,28.6-8.2l3.5,1.3c.4.3.1.2,0,.5-1.9,2.9-7.1,6.6-10.2,8-9.4,4.3-21.6.8-27.5,11.4-2,3.6-4.2,13.6-4.7,17.8-.2,2.1.3,4.7-1.1,6.6-1.1,1.4-3.1,1.2-4.7,1.8-5.4,1.9-3.5,6.7-6.8,9-1.4,1-3.6,1.5-5.1,2.3-4,2.1-7.1,6.3-8.1,10.7h0Z"/>
    <path class="st4" d="M212.2,249.1c0-.8.2-2.2.3-3.1.2-2.2,2.7-4,4.3-5.3,8.1-6.5,19.1-9.9,28.2-14.7,10.5-5.6,20.5-13.6,25.8-24.5.4-.3,2.3,1.3,2.9,1.6-6.1,11.6-14.9,21.1-25.5,28.7-4.7,3.4-10.5,7.1-15.6,9.9-2.7,1.5-5.4,1.9-8.3,3-4.7,1.8-8.5,4.5-12.1,7.9,0-1.1,0-2.3,0-3.5h0Z"/>
    <path class="st4" d="M290.2,299.4c-3.7,5.4-8.5,9.8-12.6,14.9-8.9,4.1-18.9,9-23.8,18-2.8,5-3.6,11.2-8.3,15-.2.2-1.2,1-1.4.8,4.8-9.9,2.6-21.4,7.8-31.1,10.5-6.8,23.1-8.7,33.9-14.9.5-.3,4.2-2.9,4.4-2.7h0Z"/>
    <path class="st1" d="M213.4,241.1c.7-3.5,2.5-7.1,4.6-9.9,6.8-9.1,18.6-11.6,28.4-16,8.1-3.6,16.4-8.9,20.7-16.8l2.3,1.7c.2.5-1.8,3.7-2.2,4.3-5.6,8.8-14,15.2-23.1,20.1-10.3,5.5-21.8,8.9-30.7,16.7h0Z"/>
    <path class="st1" d="M254.5,313.3c-.2-.2.8-1.3,1-1.5,6-7.3,15.4-10.1,23.2-15,10.1-6.4,16.8-14.9,21-26l4.1-13.6c-.4,11.2-2.2,22.6-7.3,32.6-2.3,4.4-4.4,6.1-8.5,8.8-10.4,7-22.4,9-33.4,14.7h0Z"/>
    <path class="st4" d="M298.1,290.1c4.2-9.1,6.3-19.2,7.2-29.2.3-3.2.2-6.7.5-9.8.7-6.8,6.9-16.4,11.3-21.6.4-.5,2.3-2.8,2.7-2.7l3,2c-12.6,13.9-9.1,34.1-16.8,50.1-2,4.1-4.8,8-7.9,11.2h0Z"/>
    <path class="st4" d="M289.7,230.3c-.1-.1,1.4-2.6,1.7-3,3.3-5.3,7.6-9.8,11.8-14.4-.4-.2-1.2.4-1.5.6-5.3,3.4-10.4,10.5-13.6,15.9-.5.8-.8,1.8-1.3,2.6-1.1,1.5-3.2,2.3-4,4.1-.4,0-.2-.6-.2-.8.4-5.4,4.3-11.9,7.7-16.1,4.3-5.2,9.8-9.1,14.9-13.4.5-.2,1.5.6,2.1.8.7.3,1.8.1,1.5.9-3.3,9.1-10.8,17.9-19,22.9h0Z"/>
    <path class="st4" d="M314.9,208.2c-3.3,8.4-10.9,13.8-16.5,20.5-9.5,11.3-11,18.1-15.6,31.5-.1.3,0,.7-.5.8,0-8.4,1.3-17,4.4-24.8,1.7-4.2,2.7-3.6,6-6,7.9-5.6,14.8-13.4,17.2-23l5,.9h0Z"/>
    <path class="st4" d="M290.2,197.2c-4.3,3.2-7.5,7.7-9.2,12.8s-1.7,11.1-4,16.2-6.4,9.5-11.8,10.9c1-4.6-.3-10.4,3.7-13.9,1.8-1.5,4.3-2.1,6.1-3.5,5.3-4,4-9.7,6.1-15.3.5-1.5,3.8-7.7,5.4-7.9.9,0,2.6,1.1,3.7.7h0ZM270.1,228.1c.8,2.2,3.3.4,3.7-1.2.9-3.4-3-4.3-3.5-1,3.9-3.8,3.9,3-.2,2.2h0Z"/>
    <path class="st1" d="M203.1,291.3c-.6,5.7-3.6,10-7.8,13.7-3.8,3.2-8.5,5.3-11.3,9.6-4.1,6.3-3.6,18.2-13.5,18.3l3.4-2c7.7-6.1,2-16,10.7-22.4,5.1-3.7,8.9-4.6,12.7-10.4.7-1.1,2.9-6.1,3.4-6.5.6-.5,1.8-.1,2.5-.2h0Z"/>
    <path class="st1" d="M240.3,256.2c1.1-8.4,7.2-13.2,15.1-15,2.2-.5,4.6-.5,6.7-1.3-1,2.9-3.8,5.4-6.1,7.4-4.7,4-10,6.6-15.7,8.9h0Z"/>
    <path class="st1" d="M237.2,259.6c-2.1,6.3-6.6,10.9-13,12.8-2.6.8-5.3.9-7.9,1.6,3.4-8.4,13-11.7,20.9-14.4Z"/>
    <path class="st1" d="M204.3,281.4c0-2.2-.6-4.6-.7-6.8-.2-4.8,2.9-9.4,4.8-13.7l2.4-3.7c.8,8.6,0,17.9-6.5,24.2Z"/>
    <path class="st1" d="M226.9,245.4c-3.5,3.2-6.8,6.5-9.2,10.6-3.3,5.9-4.7,12.5-5.5,19.2l-2.4,1.4c.4-1.3,1.2-2.5,1.6-3.8,1.3-4.1,1.4-9.6,1.3-13.9,0-1.3-.6-2.8,0-4.1.2-.5,2.6-2.8,3.2-3.3,3.1-2.7,7.1-4.8,11-6.1h0Z"/>
    <path class="st4" d="M210.8,254.4c0,.3-2.3,3.3-2.7,4-1.8,3-3.4,6-4.5,9.3-.4,0-.2-.3-.2-.6,0-5.6,1.9-11.6,4.8-16.4.7-1.2,1.7-2.7,2.7-3.7v7.3h0Z"/>
    <path class="st0" d="M239.8,352.2c-2,3.6-8.8,9.9-13.3,8.6-.5-.1-.9-.7-.9-1.2.2-1.7,3.4-3.3,4.8-3.9,3-1.3,6.4-2,9.4-3.5h0Z"/>
    <path class="st4" d="M274.6,189.3c1.7.2,3.5.5,4.8,1.8-1.1,2.5-2,5.1-3.1,7.6-.2.5-1,2.3-1.5,2.3-.3,0-2.5-1.4-2.5-1.8,0-.8,1.8-5.1,2-6.6.2-1.1.3-2.3.4-3.4h0Z"/>
    <path class="st1" d="M285.2,195.5c-1.5,1.6-3.1,3.1-4.2,5.1l-2.3,4.8-2.3-3c1.7-3.2,3.2-6.6,4-10.2.3-.2,3.8,3.6,4.8,3.4Z"/>
    <path class="st4" d="M326.2,219c-2.6,1.4-4.8,3.4-7,5.4l-3.9-1.3c1.5-2.6,3.7-4.9,5.9-6.9l4.9,2.9Z"/>
    <path class="st1" d="M231.7,299.7c-4.4,5.1-4.9,12.4-9.1,17.5.2-7.1,1.8-14.7,9.1-17.5Z"/>
    <path class="st4" d="M328.5,219.4c.5,0,3.2,1.2,3.2,1.7-2.6,1.7-5.1,3.7-7.2,6l-3.4-1.9c0-.5,6.6-5.8,7.3-5.8Z"/>
    <path class="st1" d="M317.8,226l-6.2,7.6-3.9,6.3c1.1-5.3,3.4-10.2,6.3-14.8l3.8.9h0Z"/>
    <path class="st4" d="M268.9,189.5l-1.7,5.8c-.3.2-4.8-4.3-5.2-4.8-.7-.9-1.9-2.3-1.9-3.4.7.4,1.4,1,2.2,1.4.4.2,2.6,1,2.9,1h3.7Z"/>
    <path class="st1" d="M273.4,189.3c-.6,3.1-1.5,6-2.8,8.9l-2.2-1.8c.9-2.2,1.8-4.4,1.6-6.8l3.4-.2h0Z"/>
    <path class="st5" d="M339.2,231c-.2.4-1.4.3-1.8.2-2.5-.2-4.8-1-7.1-1.7-.5-.6,3-3.3,3.7-3.6,1.3,2.1,2.7,4.2,5.2,5h0Z"/>
    <path class="st0" d="M332.4,222.6c.6,0,1.4,1.6.8,2.2-.3.3-2,1.4-2.5,1.8-1.6,1.3-1.8,2.9-4.2,1.1,0-.4,5.4-5.1,5.9-5.1h0Z"/>
    <path class="st1" d="M318.5,216.6l-5.8,6.7c.8-3,2.9-5.5,5.8-6.7Z"/>
    <path class="st1" d="M200.9,290.8l1.4-3.4c0,1.3-.1,2.7-1.4,3.4Z"/>
    <path class="st2" d="M170.2,115.1c.3-2.7.4-5,1.5-7.5,1.4-3.4,3.6-5.4,6.2-7.8-4.8.9-8.1,7.2-8.6,11.6-.2,2.1.9,4.4-2,3.2-3.8-1.5-4.7-3.9-9.6-3.5-2.6.2-6,2.3-8.3,0-2.2-2-.4-7.9.8-10.3,4.3-8.7,14.3-10.9,22.4-14.6,12.5-5.6,20.9-12.1,35.6-8.6,11,2.7,20.8,10.7,25.2,21.1,2.5,5.9,3,12,4.5,18,2,7.9,5.8,14.3,3.9,22.9-.8,3.8-4.3,10.2-8.8,9.6-4.1-.5-4.1-4.6-6.4-6.8-1.3-1.3-2.9-1.6-4.3-2.4-5.7-3.1-4.2-8.4-12.9-9.7-7.9-1.1-12.4-.2-19.3-5.4-4-3.1-6.4-7.8-11.4-9.5-2.9-1-5.5-.7-8.5-.5h0ZM198.9,83.2c-1.4-1.4-5.4.3-4.6,2.3,1,2.2,6.8,0,4.6-2.3ZM189.4,84.2c-.8-.5-1.5.6-1.2,1.4.9.4,1.9-.9,1.2-1.4ZM217.9,87.8c-2.4.5-1.1,5.3,1.8,4.4,1.9-.6,1-5-1.8-4.4ZM181.2,89.5c-1.7.3-1.6,3,.6,2.6,1.8-.4,1.2-2.9-.6-2.6ZM223.4,95c-1,.2-1.6,1.3-1.6,2.2-.1,2,2.5,5.4,3.3,7.5,1.1,2.7,1.5,7.3,2.6,9.3,1,1.8,2.4,1.5,3.3-.2,1.8-3.7-.4-11.6-2.5-15-.9-1.6-3-4.3-5.1-3.9h0ZM167.3,95.4c-.8-.7-4.5,2.2-5.2,2.9s-1.6,1.9-1.6,2.9c1.2-.8,2-2.1,3.1-3,.8-.6,2.9-1.5,3.3-1.9.3-.3.3-.4.2-.8ZM193.9,103.1c-1.3-.8-3.5,2-1.1,2.3,1-.2,1.8-1.9,1.1-2.3ZM158.2,105.5c1,0,1.4-1.3.6-1.9l-.6,1.9ZM181.9,104.8c-1.8.4-2,3.9.9,3.3,2-.4,1.2-3.7-.9-3.3ZM211.4,110.5c-.8.2-.8,2.7.7,2.1,1-.3,0-2.3-.7-2.1ZM189.4,111c-1.4.2-1.2,2.2-1.2,3.4,1.4-.2,1.2-2.2,1.2-3.4ZM209.7,117.3c-.3,0-1,2.7-1.3,3.3-.6,1.3-1.6,2.7-2,4-.1.4-.3.3.2.6,1.2.3,2.9-3.8,3.2-4.7.1-.4,1.2-3.5,0-3.2ZM228.9,120.9c-1.3.4-1.7,3.2-.2,3.7,3.4,1.1,2.9-4.5.2-3.7ZM216.9,121.7c-2,0-2.1,3.4-.2,3.5s2.3-3.5.2-3.5ZM235,141c2.6-3,3.2-8.7,2.3-12.5-.2-1-1.7-4-1.6-1.8,0,1.2.8,3.1.9,4.6.3,3.4-.6,6.5-1.7,9.7h0Z"/>
    <path class="st2" d="M129.5,220.3c-3.4,3.6-1.1,7.7-7.8,9.6-5.5,1.5-7.8.4-12.7,4.6-9.9,8.7-5.6,20-7.5,31.1-1.3,7.4-6.4,17-13.2,20.7-1.1.6-2.3,1.2-3.6,1.1,0-3.8,3.9-6.4,6.1-9.1,2.3-2.9,4.9-7.1,3.9-10.9-.4-1.5-1.9-3.4-1.9-4.8,0-1.9,3-3.9,3.3-6.3.6-4.1-3.5-6.8-2.8-11.2.5-3.5,4.4-3.9,5.8-6.7,1.3-2.6,0-5.2,2.2-7.6,2.7-2.7,11.5-4.2,15.4-5.7,7.6-2.8,11.6-8,12.1-16.3.4-7.1-4.5-14.3,1.1-20.5,7.2-8.1,23-2.7,26.4-14.4.4-1.2.4-2.7.9-3.9,1.6-3.9,7.9-4.1,9.8-9.6,1.6-4.6,0-7-.2-11.3-.2-4.8,4.1-5.8,6.7-8.9,3.3-3.9,5.6-11.2,6.6-16.2.1-.7.5-4.6.9-4.6l7.3,7.1c.5.7-.2,1.9-.5,2.6-3,6.8-10.4,11.4-13.4,19.1-3.3,8.4.2,19.1-3.3,25.8-2.3,4.3-6.7,3.5-9,7.1-1.6,2.5-1.6,4.5-4.8,5.8s-4.8.4-7.9.3c-10.3-.5-17.8,4.8-16.9,15.7.3,3.9,3.1,9.5,1.4,13.2-.9,2-3.3,2.9-4.7,4.3h0ZM183.7,129c-.4-.4-1.9,2.1-2,2.4-.3.6-.6,1.3-.8,1.9.8.6,3.3-3.9,2.9-4.3h0ZM162.1,176.8c-.4-.3-1.8.5-1.3,1.2,1.1,1.4,1.9-.8,1.3-1.2ZM157.1,181.6c-.6.9,1,1.7,1.6.9.8-1.2-1.2-1.5-1.6-.9ZM153.4,183.5c-.3,0-1,.4-.9.8.7,1,2.4.9,1.8-.6-.3-.3-.6-.2-.9-.2ZM110,231c-3.6,0-6.8,3.2-7.9,6.5l4-4.1,3.9-2.4h0ZM98,260.8c.3-3.2.8-6.3,1.2-9.5.3-2.3.1-4.7.5-6.9.3-1.9,1.3-3.7,1.7-5.7l-1.6,3.1c-1.5,5-2,10.8-2.2,16,0,.8,0,1.9,0,2.6,0,.3.2.7.5.4h0Z"/>
    <path class="st2" d="M209.3,132.6c-1.9,8.5-13.1,9.6-15,18.2-.9,4.2,1.3,8.3.2,12-1.4,4.7-7.8,4.9-7.2,10.9.2,2.6,1.9,4.3.9,7.2-1,3.2-5,2.5-6.8,5.2-2.2,3.1-1.4,7.7-4.4,11.5-4.5,5.7-10.5,3.2-16.1,6.5-14.5,8.4-5.4,24.3-6.8,36.9-.9,8-7.3,22-14.7,25.9-3.1,1.7-2.1-.5-.8-2.2,4.6-5.5,7.6-7.1,9.8-14.7,3.3-11.4.2-17.3-2.6-27.7-6.1-23,15.7-24.4,27.3-36.2,1.6-1.6,3.2-3.7,4.3-5.6.4,0,.2.3.2.6.1,2.6-1.2,6.7-2.5,9-.4.7-1.8,2.2-2,2.8-.2.6.4.4.7.2,3-1.2,5-8.8,5.3-11.8,0-1-.2-2.5-.1-3.3.1-.6,1.4-2.8,1.7-3.8,3.4-9.4,2.7-19.4,6.4-28.6,2.2-5.5,5.9-10.4,10.4-14.4,3.9.9,7.9,1.2,11.8,1.4h0ZM194.9,138.1c-.4-.4-2.4,2.2-1.3,2.1.3,0,1.5-1.9,1.3-2.1ZM191.8,142.9c-.6-.7-2.7,4-2.4,4.3.8.2,1.3-.8,1.6-1.4.2-.4,1.1-2.6.8-2.9h0ZM188.2,153.3c0-.3,1.2-2.4.4-2.4-.5,0-1.5,2.5-.4,2.4ZM168.5,194.1c-1.4,0-2.2,1.4-2.2,2.6,1.1-.5,2.4-1.2,2.2-2.6ZM159.7,199.3c1,.1,2.4,0,2.4-1.3-.3-1-2.8,1-2.4,1.3ZM155.8,204.3c.3-.2.9-1.2.2-1.4-1.2-.3-1.4,2.4-.2,1.4Z"/>
    <path class="st1" d="M117.7,177v-5.4c0-4.6,4.1-11.8,7.1-15.2,10.6-12.2,27.8-12,38.3-24.1,1.4-1.6,2.4-3.5,3.7-5.2l3.7,4.2c-2.7,7.4-7.8,13.1-14.4,17.2-4.2,2.7-9.9,4.6-13.3,8.3-4.1,4.4-4.7,10.8-9.2,14.8-4.2,3.7-10.5,4.5-15.8,5.4h0Z"/>
    <path class="st2" d="M154.4,217.5c.4-4.8,3.2-9.2,7.4-11.6,6.1-3.6,12.5-.6,17.4-7.8,2-3,2-5.2,2.9-8.4,1.5-5.1,4.9-3.3,7.2-6.5,2.5-3.5.4-6.2,0-9.5-.5-3.9,3-4.5,5.1-6.8,5.4-5.6,0-11.6,2.6-17.6.3-.7,2.2-3.6,2.8-3.7.5-.1,2.9,2,3.7,2.2-1.8,2.9-3.4,5.9-4.5,9.2-4.8,14.7.2,26.3-11.7,39.4-8.6,9.4-26.9,14.4-32.2,25.4-.2.3.1.7-.5.5.1-1.6-.1-3.4,0-4.9h0Z"/>
    <path class="st1" d="M100.4,208.7c0-3.7-.5-7.2,0-10.9,1.2-9,6.6-15.7,15.2-18.6.2.2.3.3.4.6.9,5.3,2.2,12.7.6,17.8-2.3,7.1-9.3,9.9-16.2,11.1Z"/>
    <path class="st2" d="M165.7,154.9c.2,3-.5,5.9-2.8,7.9-1.8,1.6-4.2,2.2-5.8,4-2.6,2.8-1.7,6.5-3.8,9.4-3.1,4.4-12.3,4.6-17.1,6,.4-4.6,3.3-8.6,7.3-10.8,4.6-2.6,10.1-2.9,12.4-8.4.8-2,1.1-6.2,3.8-6.5.5,0,1,.2,1.6.1,1.7-.2,3-1,4.4-1.7h0Z"/>
    <path class="st2" d="M145.7,227.7c0,1.3,1.2,3.3.9,4.6-.2.6-1.1,1.7-1.5,2.4-1.7,3.2-3.7,8.8-7.2,10.3-2.6,1.1-5.2,0-8,1.4-6,3-3.6,13.8-10,15.4-3.4.8-7.2-.5-10.1,2.5,1.5-3.4,5.3-5.2,8-7.5,5.1-4.2,3.9-5.5,6.3-10.7,3.2-6.8,8.4-4.3,13.5-7.9,3.5-2.5,4.4-5.9,6.8-9.1.2-.3,1.1-1.7,1.4-1.4h0Z"/>
    <path class="st2" d="M167.8,117c.5.5-1.7,6-2,6.9-.2.3-.4.2-.7.2-.8,0-3.7-1.2-4.6-1.6-4.1-1.8-7.9-4.9-10.4-8.7,3.3,1.1,6.5-1.1,9.7-.7,2.8.4,5.2,3.3,8,3.8h0Z"/>
    <path class="st2" d="M231.4,151.1l-2,.5c-5.4.3-10-2.7-14.8-4.7,1.3-2.2,2.8-4.4,4.7-6.1,2.1,1.6,5.1,2.1,6.7,4.3s2.2,5.3,5.5,5.9h0Z"/>
    <path class="st2" d="M109.5,225.3c2.9-7.3,11-7.8,16.6-12-1.6,7.8-9.6,10.7-16.6,12Z"/>
    <path class="st2" d="M174.5,154.8c.4-4.4,3.2-9.8,6-13.2l1.7-1.6c-1.4,3.1-1.1,6.6-1.8,9.8-.8,3.6-2.8,7.5-5.9,9.6.1-1.5-.1-3.2,0-4.7h0Z"/>
    <path class="st2" d="M171.4,129.5c-.7-.6-1.1-1.4-1.7-2.1-.4-.4-1.9-1.6-2.1-1.8-.4-.6.8-2.9,1-3.8s.6-3.6.9-4.1c.3-.4,3.9-.8,4.3-.7.6.2.4,1.2.3,1.7-.4,3.6-2.1,7.2-2.8,10.8h0Z"/>
    <path class="st2" d="M141.9,190.2c-4.5,4.5,0,12.1-6.7,15.1-1.7-6.4.3-12.7,6.7-15.1Z"/>
    <path class="st2" d="M207.2,145.6c-.2-.1,1-1.6,1.2-1.8,1.9-2.2,4.4-4.8,6.7-6.5.3-.2.8-.8,1.1-.4l1.8,2.8c-2.2,1.7-3.8,4.1-5.4,6.4-.8.6-4.2-.8-5.4-.5h0Z"/>
    <path class="st2" d="M211.2,133.1c1.6.3,2.9,1.3,3.9,2.5-2.8,2-5.4,4.3-7.8,6.8-2,2.1-2.7,5.2-5.6,1.6,2.9-2.1,5.8-3.9,7.7-7.2.7-1.2,1.1-2.6,1.8-3.8h0Z"/>
    <path class="st2" d="M104.7,245.7c.7-3.7,2.8-7.4,5.8-9.8,0,4.5-2,7.6-5.8,9.8Z"/>
    <path class="st3" d="M99.4,1.9c25.8-1,43.2,21.2,41.6,45.9-.6,9-6.6,22.9-18,18.5-2.1-.8-3.9-2.7-6.2-2.9-1.6-.2-3.4.4-5,.4-5.2,0-7.3-3.8-11.6-5.2-2.4-.8-4.6-.6-7.2-1.7s-3.4-2.6-5.3-4.1-3.5-1.3-5.6-2c-2.9-1.1-3.9-4.3-6.2-6.2-4.3-3.6-9.5-1.3-12.8-7.6-5.5-10.5,4-20.6,12-26.3,7-5,15.6-8.3,24.3-8.6h0ZM94.3,6.4c-3.8.3-8.8,2.6-11.6,5.2-3.1,2.9-4.2,7.2,1.7,4.8,3.2-1.3,4.8-2.7,8.6-3.6,2.1-.5,7.5-.8,7.6-3.7,0-2.6-4.5-2.8-6.3-2.7ZM107.5,7.4c-2.8.5-1.9,3.8,1,3.9,3.7.2,3.1-4.7-1-3.9ZM89.3,24.2c-1.2-1.1-3.2.9-2,2s3.2-.9,2-2ZM128.8,28.2c.4.4,1.6.5,2,0,1.6-1.1-.3-4-1.8-3.3-1.1.5-.9,2.5-.2,3.2h0ZM70.3,25.9c-1,.3-1.1,2,0,2.6,2.3,1.4,3.1-3.5,0-2.6ZM122.9,31.6c-1.8.5-1.6,4.7.7,5.2,3.5.7,3.4-6.4-.7-5.2ZM80.5,33c-1.4.4-2.2,2.3-2.6,3.5-.4,1.3-1.1,3.3,0,4.4.5,0,1.5-7.1,2.5-7.9h0ZM132.9,36.7c-2.1.3-2,5.2,1.1,4.2,1.8-.5,1.3-4.6-1.1-4.2ZM92.8,39.6c-1.5,0-1.9,2.5-.5,2.8,2.3.4,2.1-2.7.5-2.8ZM120.8,44.1c1.9,0,1.3-2.4-.1-1v1ZM102.1,54.1c.8-.5,1.5-1.5,1.7-2.5,0-.4.4-.5-.1-.8-.8.9-1.7,2-1.6,3.4h0ZM121,54.9c-.5-.5-3.1,3.4-2.6,3.8,1.2.3,3-3.4,2.6-3.8ZM131.5,55.2c-3-1.5-2.9,4,0,2.2.3-.7.3-1.5,0-2.2Z"/>
    <path class="st3" d="M36.8,181.3c-.3-1.8,1-3.1,2-4.3,3.7-4.5,7.3-7.8,9.1-13.7,3.2-10.4-3-18,5.2-27.9,7.6-9.1,22.9-10.5,25.6-22.9.6-2.6,0-4.7.4-7.1.3-2,1.8-2.9,2.8-4.4.7-1,1.1-2.2,1.8-3.2l.8,4.6c0,0,.4-.2.4-.4.2-.9-.6-3.8-.7-5-.6-9.6,0-20.4,5.2-28.7,1.2-1.9,4.8-6.7,6.6-7.8,2.4-1.5,6.6,1.6,8.6,3.1-2.6,6-8.7,9.5-11.2,15.7-2.2,5.5-1.2,8.6-1,14.1.2,4.4-3.1,5.1-3.7,8.3-.5,2.7.6,5.1-1,7.6-1.2,2-3.9,3.3-5.2,5.1s-1.6,5-2.7,7.2c-3.4,7.1-15.4,7.5-20.2,14.1-1.8,2.5-1.7,5.8-3,8.5-.8,1.7-2.3,3.1-3.2,4.7-3.6,6.2,0,13.7-3.3,20.5-1.6,3.3-3.8,4.8-6.4,7.1-2,1.9-4,4.8-7,4.9h0ZM87.4,86.1c.5-5.7,2-11.3,5.1-16.1,1-1.6,2.3-2.9,3.5-4.4.2-.2,1.1-1.4,1-1.5-6,4.6-9.1,12.1-9.8,19.5l.2,2.5h0Z"/>
    <path class="st3" d="M115.7,65.4c-3.1,4.1-5.2,8.8-5.9,13.9-1.8,12,3.9,22.2-2.8,33.7-7.4,12.7-27.2,15.6-32.4,30.5-2.8,7.9.4,13.7-.2,21.4-.5,6.6-5,13.9-11,16.7-.1-.4.2-.6.5-.8,2.6-3.1,4.9-4,6.9-8.2,4.7-9.8-2-16.6,1-25.9,5.9-18.4,29.7-22.8,34.7-40.9,3.1-11-2.2-21.5,1.7-32.6.6-1.7,2.6-5.7,3.8-6.9.9-.9,2.4-.8,3.6-.8h0Z"/>
    <path class="st3" d="M73,44.8c-.2,4-2.7,8.1-5.2,11.1-11,12.8-29.9,13.7-36.4,31.5-5.1,13.8,3.3,27-10.8,37.2-5,3.6-10.4,5.5-13.2,11.5-1.7,3.6-1.5,6.7-2.3,10.5-.1.7-1,4.7-2.1,4.2-2.8-4.4.3-12.4,2.9-16.5,6.4-9.8,19.1-10.2,21.7-22.7,1.8-8.8-2.1-17.2,1.3-26.1,7.5-19.8,38.9-18.3,41.8-41.2l2.4.5h0Z"/>
    <path class="st1" d="M274.6,116.6c1.8-.2,3.4.4,4.7,1.6,1.9,1.7,3.7,5.4.9,7.1.8,1.5.4,2.1-1,2.9-2.6,1.4-4,1.5-6.7.5-6.4-2.5-4.4-11.3,2.1-12.1ZM272.2,121.6c.2-.6.8-1.6,1.3-1.9.7-.4,1.3,0,1.8-.6-1.1-2.8-5.2,1.4-3.9,2.4h.7c0,0,0,0,0,0Z"/>
    <path class="st0" d="M117.8,304c1.4-.2,2.7.2,3.9,1,4.7,3.3.7,10.3-4.5,8.6-4.8-1.6-4.4-9,.7-9.6ZM118.6,306.4c-1.2-1.5-3.6,1-2.8,2.4.4.7.8-.9.9-1,.4-.6,1.1-1.3,1.9-1.4h0Z"/>
    <path class="st1" d="M53.8,225.3c3.3-.7,2.4,4-.3,4.2-3.2.3-2.4-3.7.3-4.2Z"/>
    <path class="st0" d="M338.3,268.6c-1.9-1.6-1.2-5.6,1.9-4.6,3.7,1.2.1,6.3-1.9,4.6Z"/>
    <path class="st1" d="M31.1,47.3c-2.7-2.5,1.3-5.8,3.6-4.5,2.9,1.7-.5,7.5-3.6,4.5Z"/>
    <path class="st0" d="M137.5,305.4c-1.6,2-7.2.5-5.2-3.4.9-1.7,2.4-1.8,3.9-.8,1.3.8,2.4,2.9,1.3,4.2h0Z"/>
    <path class="st1" d="M23.8,23c4.3-.9,6.1,5.5,2.2,7.2-5,2.2-7.7-6.1-2.2-7.2ZM24.3,24.6c-1.7-.2-2.1.9-1.9,2.4l.6-.5,1.3-1.9h0Z"/>
    <path class="st1" d="M294.2,103.9c4.5-.2,4.7,7.4-.2,6.6-4-.7-3.3-6.5.2-6.6ZM294.5,105.3c-1.9-.7-2.8,2.4-1,2-.4-1.2.8-1.1,1-2Z"/>
    <path class="st1" d="M276,92.6c1.8.4,4,1.5,2.9,3.7-2,3.9-8.2-1.1-2.9-3.7Z"/>
    <path class="st0" d="M129.4,325.6c2.2-.5,3.7,2.3,1.7,3.4-2.7,1.5-4.2-2.9-1.7-3.4Z"/>
    <path class="st1" d="M188.2,42.7c1.2,1.9-2.3,3.1-2.5,1.2-.1-1.1,1.7-1.5,2.5-1.2Z"/>
    <path class="st0" d="M338.1,293.9c1.8-.5,2.2,2.2.2,2.1-1.3,0-1-1.9-.2-2.1Z"/>
    <path class="st1" d="M290.3,76.5c1-.8,3,0,3,1.3-.6,3.6-5.4.6-3-1.3Z"/>
    <g>
      <path d="M212,277.6c-.3-.4-3.9,2.4-4.3,2.8-.6.5-2.7,3-2.9,3.5-.6,1.6.2,4.2-.4,5.9,1.4,11.6-9.2,16.4-16.3,22.6-6.8,6-5.5,21.5-16.3,22.1-1.8.1-6.6-1.8-5.5-3.8s1.9.1,2.7.2c2.3.4,4.2-1.2,5.5-2.9,3.2-4.1,2.3-9.6,4.1-14.4,2.6-6.6,7.8-7.5,12.8-11.4,5.5-4.2,8.2-12.7,11.3-18.7-.1-1.9-.2-3.9-.5-5.7,0-.3,0-1.3-.4-1.4-3,8.7-8,17.4-18.6,16.3-5.6-.6-9.4-5.8-6.2-11,2.1-3.4,7.3-4.3,9.5-.5,1.6,2.9-.6,6.9-3.9,5.8-.9-.3-1.8-1.9-.8-2.3.7-.3.6.6,1.1.8,2.3,1.1,4.2-3.7.6-4.9-5.4-1.8-8.9,7-2.9,9.8,5,2.4,10.5.2,14-3.7,2.3-2.6,6.4-10.5,7.1-13.8.5-2.3,0-5.6.1-8.1.4-5.7,2.6-11.6,5.7-16.4.8-1.2,3.5-4.2,3.8-4.9.3-.8.4-2.3.7-3.4,7.2-23.5,29.9-20.6,46.1-33.6,3.1-2.5,6.3-5.9,8-9.4-3.8-3.8-8-7.2-9-12.8-1.7-9.8,7.9-18.7,15.2-23.8,36.2-25.3,79-7.2,83.1,37.3.9,9.3-.7,26-8.4,32.4-5.2,4.3-12.2,3-18.1.9-4.7,5.4-7.1,12.9-8,20-1.9,13.9,0,26.1-7.2,39.1-7.7,14.1-21.2,19.4-35.1,25.5-2,2.4-4.2,4.9-6,7.5-3.1,4.3-8.1,11.9-5.6,17.3,2.6,5.7,11.3,1.5,10.1-3.4-.8-3.3-6.5-2-3.8,1.1l-.5.7c-2.9-.4-2.5-3.9-.3-5.1,2.6-1.4,5.9.4,6.3,3.2,1.2,8.6-13.7,11.7-14.4,1-.5-7,6.2-15.2,10.3-20.4,0-.2-.2-.1-.4-.1-3.9,1.2-12.3,6.9-15.1,9.8-6.1,6.2-6.4,15.3-12.6,20.8-1,.9-2.8,1.8-3.6,2.6-1.1,1.1-2.2,3.4-3.4,4.8-2.5,3-8.1,7.1-12.1,6.9-2.3-.1-3.8-1.6-3-4,1.6-4.4,12.8-6.3,16.6-8.5,5.7-9.2,3.9-20.6,7.6-30.5-4.7,3.3-7.4,8.5-9.4,13.8-1.5,4.2-3,13.9-7,16.1-3.6,1.9-4.5-1.6-4.3-4.5,1-11.9,13.3-28.2,21-37.1.6-.7,3.5-3.5,3.7-4,.2-.5-.3-.3-.5-.3-6.6.7-13.4,1.7-17.1,7.9-2,3.5-3.7,11.6-4.4,15.7-.6,3.5.5,8.5-3.4,10.2-1.6.8-3.5.6-5,1.7-3.3,2.3-1.3,6.2-6.5,8.9s-7.5,2.8-10.5,8.7c-.8,1.6-2.5,7.6-4.2,2.5-3.3-9.8,9-17.2,14.9-22.3,3.5-3,4.9-6.9,4.3-11.5-5.1,8.8-16,11.8-22.3,19.2-3.8,4.5-5.9,12.5-9.5,16-3.7,3.6-7.4,1.2-5.7-4,4.1-12.9,18.4-20.9,27.8-29.6,1.3-1.2,3.1-2.9,4-4.4,3.2-5.2,1-11,2.1-16.6,3.3-17.4,23.7-18.8,35.7-27.4,3.9-2.8,7.1-6,9.5-10.2l-3.7,1.3c-6.5-.2-12.5-1.8-18.8,1.1-2.9,1.4-7.1,5.5-5,8.9,2.6,4.2,9.8,1.1,8-2.9-1.3-2.8-6.1,0-2.1,1-1.3,2.4-4,0-2.6-2.2,1.6-2.7,5.9-1.7,6.4,1.4.4,2.4-1.1,4.9-3.3,5.8-2.8,1.2-5.4.3-7.6-1.6-.9.9-1.9,1.6-3.1,2-2.4.7-5.7-.5-7.6,1.5-2,2.1.2,5.5-2.1,7.3-1.9,1.5-4.8-.1-6.7,1.7-.5,4.3-1,8.5-2.2,12.7-3.1,10.5-11.2,22.4-19.1,29.8-.7.6-4.4,4.1-5.2,3.4,0-1.7,2.2-2.9,3.4-4.2,10.3-10.9,18.7-21.9,20.8-37.2.2-1.2.3-2.5.1-3.7-3.1,1.8-5.5,4-6.7,7.5-.9,2.6-1.1,4.3-2.4,6.9-1.5,2.9-6.6,8.2-6.9,10.7-.1,1.2.1,4.3,1.9,3.5,2-.8,1.1-5.4,2.3-7.4.4-.7,3.4-3.5,3.8-2,.2.8-1.2,1.4-1.7,1.9-1.7,1.8-1,3.8-1.5,5.9-1.5,5.5-7.3,3.3-6.3-2.7.6-3.1,6-8.5,7.7-12,1.1-2.2,1.2-4.6,2.1-6.8,1.5-3.6,4.9-5.8,8.1-7.7v-14.8h0ZM330.5,217.8c5.2,1.5,4.3,7.7,8.3,10.8,1.7,1.3,2.9,1.9,5,.9,8.1-3.6,9.7-21.4,9.3-29.1-2.3-45.5-46.5-63.2-82.1-36.2-5.3,4-18.9,17.3-7.9,22.3,5,2.3,10.8-.8,15.8,1.6-.2-5.3,2.9-11.4,7.2-14.5.2-.2,1-.8,1.2-.6-2.9,4.1-6.2,7.5-7.1,12.7-.1.8-.5,2.8,0,3.4,2.4,1.9,4.6,4.5,7.5,5.5,3.5,1.2,7-.3,10.5,1.5,3,1.6,4.5,5.3,7.3,7.1,3.6,2.3,7.9,1.5,11.4,3.7,4.1,2.5,3.7,7.5,9.1,9.6,2,.8,2.2.8,4-.2,5.8-3.2,9.1-11.9,9.4-18.2,0-.7-.7-4.4.4-4.2.6.1.6,4.2.6,4.9-.2,5.1-2,10.9-5.3,14.9-1.3,1.6-3.1,2.8-4.5,4.2h0ZM268.9,189.5h-3.7c-.3,0-2.4-.8-2.9-1-.8-.4-1.5-1-2.2-1.4,0,1,1.2,2.5,1.9,3.4.4.5,4.9,5,5.2,4.8l1.7-5.8ZM273.4,189.3l-3.4.2c.1,2.4-.8,4.6-1.6,6.8l2.2,1.8c1.2-2.8,2.2-5.8,2.8-8.9h0ZM274.6,189.3c0,1.1-.1,2.3-.4,3.4-.3,1.5-2.1,5.8-2,6.6,0,.4,2.2,1.8,2.5,1.8.5,0,1.3-1.8,1.5-2.3,1.2-2.5,2.1-5.1,3.1-7.6-1.3-1.3-3-1.6-4.8-1.8h0ZM285.2,195.5c-1,.2-4.5-3.6-4.8-3.4-.9,3.6-2.3,7-4,10.2l2.3,3,2.3-4.8c1.1-1.9,2.7-3.4,4.2-5.1ZM290.2,197.2c-1.1.4-2.9-.8-3.7-.7-1.5.2-4.8,6.4-5.4,7.9-2,5.6-.8,11.3-6.1,15.3-1.8,1.4-4.3,2-6.1,3.5-4,3.5-2.8,9.3-3.7,13.9,5.4-1.4,9.6-5.9,11.8-10.9s2.2-10.8,4-16.2,4.9-9.5,9.2-12.8h0ZM213.7,278.9v12.8c1.2-.7,5.4-.5,6-1.1,1.2-1.1-.5-4.6,1.8-7,2.9-3,6.3-.8,9.1-2.2s1.3-2.3,1.7-4.6c.9-5.9,7.8-8.6,13.1-9.3,1.7-.2,6.5,0,7.5-.6.5-.3.9-1,1.3-1.3l-1.1,2.2c2.2.7,4.7.6,7,.2l-2.5-1.7c-4-3.2-6.7-10-2.1-13.9,5.3-4.5,11.3,1.3,7.7,6-2.2,2.8-6.6,1.5-5.8-2,.3-1.2,2.2-1.9,2.4-1,0,.3-2,1.5-.5,2.6,2.1,1.6,5-3,2.1-5-2.6-1.7-5.8.7-6.3,3.4-1.5,7.1,6.8,7.3,10.3,3.1,3-3.6,2.4-8.1.5-12-.5-1-1.4-2-1.8-3.1.4-.4,2.2,1.6,2.5,1.9,5.2,7,.8,18.9-8.3,17-.2,0-1.5-.8-1.1,0,.2.4,2.3,2.2,2.8,2.5,5.5,2.8,11.5-2.5,14.1-6.9,5.4-9.2,4.4-21,8.7-30.9s12.6-16.7,21.2-23.2l-4.9-5.6c-1.3-1.2-4-2.2-5.7-1.9-1.4.3-5.1,4.2-6,5.5-4.5,6-4.7,11-6.2,18-2.1,9.2-6.9,16.2-16.4,18.5-1,3.7-3.8,6.5-6.5,8.9-5.2,4.7-11.6,7.8-18.2,10.2-2.7,9.5-9,14.5-18.5,16.4-3.1.6-6.9-.1-7.5,4h0ZM213.4,241.1c8.9-7.8,20.4-11.2,30.7-16.7,9.1-4.9,17.5-11.3,23.1-20.1.4-.6,2.5-3.8,2.2-4.3l-2.3-1.7c-4.3,8-12.6,13.2-20.7,16.8-9.8,4.4-21.7,6.9-28.4,16-2.1,2.8-3.9,6.4-4.6,9.9h0ZM212.2,249.1c0,1.1,0,2.3,0,3.5,3.6-3.4,7.4-6.1,12.1-7.9,2.9-1.1,5.5-1.5,8.3-3,5.1-2.8,10.9-6.5,15.6-9.9,10.6-7.6,19.4-17.1,25.5-28.7-.6-.2-2.4-1.9-2.9-1.6-5.2,10.9-15.2,18.9-25.8,24.5-9.2,4.9-20.1,8.3-28.2,14.7-1.7,1.3-4.1,3.1-4.3,5.3-.1.9-.2,2.3-.3,3.1h0ZM214.6,272.1c2.3-3.2,4.7-6,8-8.2,4.6-3,10.1-4.5,15-6.8,1.4-3.6,2.1-7.4,4.7-10.4,3.1-3.7,6.7-5.7,11.4-6.8,2.2-.5,8-.8,9.3-2.3,1.1-1.3,1-7.5,1.4-9.7,1.6-9.1,10.4-7.1,12.8-14.1.6-1.8.8-4,1-5.9l-3-3.5c-5.9,10.2-13,19-22.2,26.2-7.3,5.7-15.4,9.8-22.9,15.1-9.2,6.6-14.1,15.1-15.5,26.4h0ZM289.7,230.3c8.2-5,15.7-13.8,19-22.9.3-.8-.9-.6-1.5-.9-.6-.2-1.6-1-2.1-.8-5.1,4.4-10.6,8.2-14.9,13.4-3.4,4.1-7.2,10.7-7.7,16.1,0,.3-.2.9.2.8.7-1.8,2.9-2.6,4-4.1.5-.7.8-1.8,1.3-2.6,3.3-5.4,8.4-12.4,13.6-15.9.3-.2,1.1-.8,1.5-.6-4.2,4.6-8.4,9.1-11.8,14.4-.2.4-1.8,2.9-1.7,3h0ZM314.9,208.2l-5-.9c-2.4,9.6-9.4,17.4-17.2,23-3.3,2.4-4.4,1.8-6,6-3.1,7.8-4.4,16.4-4.4,24.8.4,0,.4-.5.5-.8,4.6-13.4,6.1-20.2,15.6-31.5,5.6-6.7,13.3-12.1,16.5-20.5h0ZM287.6,268c2.9,3,3.6-2.9.2-2.1-3.8.9-2.5,10.8,3.3,6.7,5.9-4.2,1.4-12.3,2.1-17.9.5-4.2,4.3-5.4,4-9.6-.2-3.2-1.1-4.9.4-8.3,2.9-6.4,10.6-5.4,12.5-10.8.9-2.6,1.1-5.1,2.9-7.5s4.4-3.1,6.5-4.9c-1.1-1.7-1.8-3.9-3.8-4.9-1.8,7.9-8.7,13-13.8,18.7-7.7,8.6-12.5,17.1-15.8,28.1-1,3.2-2.7,8.5-3,11.7-.3,2.8.4,5.9.2,8.9-.3,4.3-1.8,11-5.7,13.5-1.2.8-3.5,1.2-4.1,1.5-.1,0-1.5,2.1-1.9,2.6-2.7,2.9-6.2,5.6-9.8,7.2-1.5.7-5.6,1.7-6.4,2.2-1,.7-3.7,4-4.7,5.1-7.7,8.8-16.2,20.6-19.8,31.8-.5,1.6-2.2,7.3-.5,8.2,1.6.8,3.9-4,4.2-5.1,2.9-8.2,3.4-15.2,9.6-22.1,1.9-2.1,4.7-3.7,6.2-5.5,1-1.2,1.9-3.1,3-4.4,8-9.5,20.6-12.3,30-20.2,12.3-10.3,14.9-22.6,19.1-37.3.5-1.5,1.3-3.1,1.6-4.6.7-2.9.8-6.2,1.5-9.3s1.9-5.8,2.9-8.7c-3.2,1.6-7.2,2.7-9.2,6.1-2.4,4.1.7,8-1.3,11.9-.6,1.3-1.8,2.1-2.5,3.3-3.3,5.7,3.4,14.9-2.7,20.8-5.5,5.4-12-1.5-8-7.1,2.1-3,7-2.3,6.5,1.5-.3,2.9-4,3.7-4,.4h0ZM326.2,219l-4.9-2.9c-2.3,2.1-4.4,4.3-5.9,6.9l3.9,1.3c2.2-2,4.4-4,7-5.4ZM318.5,216.6c-2.8,1.2-5,3.7-5.8,6.7l5.8-6.7ZM328.5,219.4c-.7,0-7.3,5.3-7.3,5.8l3.4,1.9c2.1-2.3,4.6-4.3,7.2-6,0-.5-2.7-1.7-3.2-1.7ZM332.4,222.6c-.5,0-5.9,4.7-5.9,5.1,2.4,1.8,2.6.2,4.2-1.1.5-.4,2.2-1.5,2.5-1.8.6-.7-.2-2.3-.8-2.2h0ZM317.8,226l-3.8-.9c-2.8,4.6-5.2,9.5-6.3,14.8l3.9-6.3,6.2-7.6h0ZM339.2,231c-2.5-.9-3.9-2.9-5.2-5-.7.3-4.2,3-3.7,3.6,2.3.7,4.6,1.5,7.1,1.7.4,0,1.6.2,1.8-.2h0ZM298.1,290.1c3.1-3.2,5.9-7.1,7.9-11.2,7.7-16,4.3-36.2,16.8-50.1l-3-2c-.4,0-2.3,2.3-2.7,2.7-4.4,5.2-10.6,14.8-11.3,21.6-.3,3.2-.2,6.6-.5,9.8-.9,10-3,20-7.2,29.2h0ZM327.2,230.3c-1.4,0-1.8-1.2-2.9-.1-7.7,7.4-9.4,22.4-11.4,32.3-2.4,12.3-5.7,20.9-14.4,30-.9.9-2.5,1.9-3.2,2.8-1.7,2-3.3,4.9-5,7.1-2.7,3.4-5.9,6.4-8.4,10,12.3-4.4,23.8-10.9,30.3-22.6,8-14.6,4.5-29.7,8.3-44.9,1.3-5.3,3.7-10,6.8-14.5h0ZM278,255.5v4.7c0,1-1.2,4.6-1.7,5.8-3.6,9.4-11.3,15.3-19.9,19.9-5.9,3.2-12.8,5.3-17.8,10,6.5-.6,13.6,0,19.9-1.8,2.1-.6,4.6-1.7,6.2-3.1.5-.4,2.1-2,2.3-2.5,0-.2-.5-1.5-.6-2-.2-2,.2-4.1,1.7-5.5,2.8-2.7,7.6-1,7,3.1-.4,2.6-5.1,3.1-4.4-.1l.7-.2c2,2.1,3-1.6.7-2.1-4.6-1-5.6,6.3-.9,7.6,3.5,1,6.9-1.7,8.2-4.7,3.1-6.8,1.5-13.4,1.2-20.4-.3-8.4.4-15.4,2.7-23.5.5-1.8,1.4-3.7,1.9-5.4,0-.1,0-.4-.1-.4-1.6,1.2-2.8,1.3-3.4,3.3-3.2,9.9-2,22.7-13.1,28.7-1.4.8-4,1.1-4.7,1.5-.4.2-1.1,1.8-1.5,2.3-3,4-6.1,7.3-10.3,10.1-11.7,7.9-32.9,9.9-34.1,27.6-.7,9.6,1.9,12.1-6,19.5-9.1,8.5-20.2,14.3-26.2,25.9-.6,1.2-3.5,6.9-.6,6.9,1.7,0,3.5-2.8,4.2-4.1,2.6-4.4,3.8-8.8,7.3-12.9,7.6-9,22.9-12.4,23.9-25.7-.1-.1-1.2.4-1-.5h1.2c.1-7.3,1.4-14.4,8.1-18.4,2.1-1.2,7-2.3,8-3.1.3-.2.4-.9.7-1.2,5.5-6,18.7-9.8,26-15.3,9-6.7,10.6-12.3,13.7-22.5.1-.4.2-1.3.6-1.4h0ZM240.3,256.2c5.7-2.3,11-4.9,15.7-8.9,2.4-2,5.1-4.5,6.1-7.4-2.1.8-4.5.8-6.7,1.3-7.9,1.8-14,6.6-15.1,15h0ZM226.9,245.4c-3.9,1.3-7.9,3.4-11,6.1-.5.5-3,2.9-3.2,3.3-.6,1.4,0,2.8,0,4.1,0,4.3,0,9.8-1.3,13.9-.4,1.3-1.2,2.5-1.6,3.8l2.4-1.4c.8-6.7,2.2-13.3,5.5-19.2,2.4-4.2,5.7-7.4,9.2-10.6h0ZM210.8,254.4v-7.3c-1,1-1.9,2.4-2.7,3.7-2.8,4.8-4.7,10.7-4.8,16.3,0,.3-.1.7.2.6,1.1-3.3,2.7-6.4,4.5-9.3.4-.7,2.7-3.6,2.7-4h0ZM204.3,281.4c6.4-6.4,7.3-15.6,6.5-24.2l-2.4,3.7c-1.9,4.3-5,8.9-4.8,13.7.1,2.2.7,4.6.7,6.8ZM254.5,313.3c11-5.6,23-7.7,33.4-14.7,4-2.7,6.2-4.5,8.5-8.8,5.1-10,6.9-21.5,7.3-32.6l-4.1,13.6c-4.2,11.2-10.9,19.7-21,26-7.8,4.9-17.2,7.7-23.2,15-.2.2-1.1,1.4-1,1.5h0ZM237.2,259.6c-7.9,2.6-17.5,6-20.9,14.4,2.6-.7,5.3-.8,7.9-1.6,6.4-1.9,10.9-6.5,13-12.8ZM200.9,290.8c1.3-.7,1.4-2,1.4-3.4l-1.4,3.4ZM202.9,358.9c1-4.4,4.2-8.6,8.1-10.7,1.6-.8,3.7-1.3,5.1-2.3,3.3-2.3,1.4-7.1,6.8-9,1.6-.5,3.6-.3,4.7-1.8,1.4-1.8.9-4.4,1.1-6.6.5-4.2,2.7-14.2,4.7-17.8,5.9-10.6,18.1-7.1,27.5-11.4,3.1-1.4,8.4-5.2,10.2-8,.2-.2.4-.2,0-.5l-3.5-1.3c-6.2,9.1-19,7.1-28.6,8.2-1.4.1-3.8.4-4.8,1.3-4.9,4.2-6.4,13.4-10.6,18.8-.4.4-.9.6-1.1,1-1.3,2.7-.4,8.7-1,11.9-2,10.5-20.3,13.4-19.2,27.1,0,.3,0,1.1.5,1.1h0ZM203.1,291.3c-.7.1-2-.3-2.5.2-.4.4-2.6,5.3-3.4,6.5-3.7,5.8-7.6,6.7-12.7,10.4-8.7,6.4-3,16.3-10.7,22.4l-3.4,2c9.9,0,9.4-12,13.5-18.3,2.8-4.3,7.6-6.3,11.3-9.6,4.2-3.6,7.2-8,7.8-13.7h0ZM290.2,299.4c-.2-.2-3.9,2.4-4.4,2.7-10.8,6.2-23.4,8.2-33.9,14.9-5.2,9.7-3,21.3-7.8,31.1.2.2,1.2-.6,1.4-.8,4.6-3.8,5.5-10,8.3-15,4.9-8.9,14.9-13.9,23.8-18,4.1-5.1,8.9-9.5,12.6-14.9h0ZM231.7,299.7c-7.3,2.9-9,10.4-9.1,17.5,4.2-5.1,4.8-12.4,9.1-17.5ZM239.8,352.2c-3,1.5-6.3,2.2-9.4,3.5-1.4.6-4.6,2.2-4.8,3.9,0,.5.4,1.1.9,1.2,4.4,1.3,11.3-5,13.3-8.6h0Z"/>
      <path d="M213.4,148.7c-3.6,6.4-4.1,12.9-3.9,20.1.5,13,2.4,21.4-5.9,32.7-10.9,15-30.4,15.4-33.7,36.7-.9,5.7-.1,12.3-4,17.1-.5.7-3.1,3.2-3.7,3.5s-1.3.1-1.2-.7c0-.5,2.8-2.7,3.5-3.5,3.4-4.4,2.8-9.6,3.3-14.7,2.6-26.5,27.1-24.3,37.1-44,7.1-14,0-26.2,3.5-39.9.7-2.7,2-5.1,2.8-7.8,0-.3-5.2-.7-6,0-.7.6-3.1,5.5-3.6,6.7-4.9,11.5-2,23.6-7.7,34.8-6.5,12.9-17.6,16.2-28.5,23.8-4.1,2.9-7.4,6.2-10.7,9.9-.2.3-.1.7-.1,1.1,0,3.1,1.3,7,1.5,10.3.6,10.7-4.1,21.4-11.1,29.3-1.6,1.8-6.6,6.9-9.1,4.5s2.6-6,3.9-7.5c6.7-7.6,9.4-16.3,7.6-26.5,0-.4.2-.4-.5-.4-2.4,5.1-4.6,12.4-11.2,13-1.8.2-3.2-.4-5,.5-5.1,2.5-3.1,12.5-9.1,15.1-3.7,1.6-6.8-.4-10.6,2.6-.7.5-2.9,3.2-3.2,3.3-2,.6-.9-2.9-.6-3.7,2.5-6.6,10.5-8.2,13.1-13.8,2-4.1,1.7-8,6.2-10.8,2.5-1.5,4.3-1.3,6.8-2.1,4.8-1.4,6.6-5.9,9.3-9.6.4-.6,2-2.1,2.1-2.4.3-.8-.7-2.9-1-3.8-1.4-5.2-1.6-9.6.4-14.7,4.5-11.7,17.2-13.9,25.7-21.5,10.7-9.6,10.1-18.9,12.5-31.9,1.4-7.8,4.7-15,10.1-20.9.5-.5,2.7-2.3,2.8-2.5,0-.3-.2-.4-.4-.6-1.4-.8-3.4-1.5-4.9-2.2-.9,4.9-5.3,8.1-6.7,12.6-1.1,3.4-.7,6.5-1.5,9.8-.9,4.3-3.2,8.6-7.1,10.9,0,6,.3,13.5-5.3,17.2-1.4.9-3.4,1.4-4.7,2.5-1.5,1.4-1.9,3.7-3.1,5.3-2.4,3-6.3,3.3-9.8,3.1-4.1-.2-6.2-1.7-9.2,2.3-2.1,2.7-1.2,4.4-1.4,7.4-.3,3.9-2.4,5.7-5.4,7.7,1,3.9,1.9,9.1-1.3,12.2-1,1-2.6,1.5-3.6,2.7-1.4,1.6-1.7,4.3-2.9,6.2-2.9,4.6-8,3.7-12.5,5-4.7,1.4-2.9,3.6-4,7.3-.7,2.4-2.7,4.1-4.5,5.8-1.4,1.4-3.1,1.7-3.3,3.9-.4,3.9.3,8.3,0,12.2-.6,9.1-5.8,20.1-13.6,25-2.1,1.3-7.3,3.8-7.3-.5s8.8-10.1,10.2-16c1-4.1-2.1-5.3-1.8-8.8.4-3.7,4.6-3.9,2.8-8.8-1.3-3.6-3.8-6-1.9-10.3,1.2-2.8,3.2-2.9,4.9-4.7,2.2-2.5-.2-6.1,3.5-9.2,1.8-1.6,6-2.5,6.8-3.2.5-.5,1.9-3.5,2.6-4.5,1.8-2.4,4.1-4,6.7-5.3,4.1-2,10.6-3.3,10.4-9-.1-4.4-1.8-8.7-1.5-13.2.4-5.1,4.4-9.2,9.1-10.9,0-6,3.5-10.8,8.7-13.5,3.7-1.9,8.7-2.6,10.9-6.7,1.2-2.3,1.2-5.7,3.6-7.2,2-1.3,5.8.3,7.4-2.2.4-.7-.5-3.7-.5-4.8,0-5.2,5.6-7.2,8.1-10.8,3.7-5.3,5.3-13,7-19.1-.1-.6-3.6-1.6-4-1.3-.3,2-.5,4-.9,6-.6,3.3-1.9,6.3-2.7,9.5-.1.4,0,.8,0,1.3l-.5-.5c-2.5,5.8-6.6,10.9-11.7,14.6-6.1,4.4-14.6,6.6-18.5,13.4-1.5,2.5-2.2,5.3-3.9,7.8-4.7,7-11.9,7.8-19.6,9.3-.4.6,1,8.3,1.2,9.7.9,9.7-2,16.7-11.4,20.3-2.4.9-4.9,1.4-7.3,2.2-.2,3.8-2.8,9-6.4,10.5-.8.3-1,.4-1.5-.3,3.3-2.5,6-5.4,6.2-9.7-10.1,2.2-15.2,11.3-14.7,21.2,0,1,.7,3.7.6,4.3,0,.2-.3.4-.5.6-.3,0-.4-.2-.6-.3-.5-.6-1.1-4.6-1.2-5.5-.8-10.9,5.7-20.1,16.5-22.4,0-5.1-.6-10,.6-15,2-7.9,8.3-14.6,16.3-16.5-.9-9.6,2.9-18.8,9.8-25.3,11.8-11.2,30.8-10.8,39.1-26.2-2-.9-4.1-1.3-6.2-2.2-9.9-4.8-15.9-14.3-10-24.9,5-8.9,15.7-11.5,24.4-15.4,6.8-3.1,13.1-7.1,20.7-8.4,17.1-3,34.8,6.6,41.6,22.6,2.7,6.3,3.3,13.1,5.1,19.7,1.1,4.2,3,8.3,3.7,12.6,1.3,8.3-.7,17.5-8.7,21.6-8.2,4.1-14.4.2-21.9-3.1h0ZM170.2,115.1c3-.2,5.6-.5,8.5.5,5,1.7,7.4,6.4,11.4,9.5,6.9,5.3,11.4,4.3,19.3,5.4,8.6,1.2,7.1,6.6,12.9,9.7,1.5.8,3,1.1,4.3,2.4,2.3,2.2,2.3,6.3,6.4,6.8,4.5.6,8-5.9,8.8-9.6,1.9-8.6-1.9-15-3.9-22.9-1.5-6.1-2.1-12.2-4.5-18-4.4-10.4-14.2-18.4-25.2-21.1-14.7-3.5-23.1,2.9-35.6,8.6-8.1,3.7-18.1,5.9-22.4,14.6-1.2,2.4-3,8.2-.8,10.3,2.3,2.2,5.7.1,8.3,0,4.9-.4,5.8,2,9.6,3.5,2.9,1.2,1.8-1.2,2-3.2.5-4.5,3.9-10.8,8.6-11.6-2.6,2.4-4.8,4.4-6.2,7.8-1.1,2.6-1.2,4.8-1.5,7.5h0ZM167.8,117c-2.8-.6-5.2-3.5-8-3.8-3.2-.4-6.4,1.8-9.7.7,2.5,3.8,6.2,6.9,10.4,8.7.9.4,3.8,1.6,4.6,1.6.3,0,.5,0,.7-.2.3-.9,2.5-6.4,2-6.9h0ZM171.4,129.5c.7-3.5,2.4-7.2,2.8-10.8,0-.5.3-1.5-.3-1.7-.4-.1-4,.3-4.3.7-.4.5-.7,3.2-.9,4.1s-1.4,3.2-1,3.8c.1.2,1.6,1.4,2.1,1.8.6.6,1,1.5,1.7,2.1h0ZM129.5,220.3c1.4-1.4,3.8-2.4,4.7-4.3,1.7-3.7-1.1-9.3-1.4-13.2-.9-10.9,6.6-16.2,16.9-15.7,3.1.1,4.7,1,7.9-.3s3.2-3.3,4.8-5.8c2.3-3.6,6.7-2.8,9-7.1,3.5-6.7,0-17.3,3.3-25.8,3-7.6,10.4-12.2,13.4-19.1.3-.8,1-1.9.5-2.6l-7.3-7.1c-.5,0-.8,3.9-.9,4.6-1,5-3.3,12.2-6.6,16.2-2.6,3.1-6.9,4.1-6.7,8.9.2,4.2,1.8,6.7.2,11.3-1.9,5.6-8.1,5.7-9.8,9.6-.5,1.2-.5,2.7-.9,3.9-3.4,11.7-19.2,6.3-26.4,14.4-5.5,6.2-.7,13.4-1.1,20.5-.4,8.3-4.5,13.4-12.1,16.3-3.9,1.5-12.7,3-15.4,5.7-2.3,2.4-.9,5-2.2,7.6-1.4,2.8-5.3,3.2-5.8,6.7-.6,4.5,3.4,7.1,2.8,11.2-.3,2.4-3.2,4.4-3.3,6.3,0,1.4,1.5,3.3,1.9,4.8.9,3.8-1.7,8-3.9,10.9s-6.2,5.4-6.1,9.1c1.3,0,2.5-.5,3.6-1.1,6.8-3.6,11.9-13.3,13.2-20.7,1.9-11.2-2.4-22.4,7.5-31.1,4.8-4.3,7.2-3.1,12.7-4.6,6.7-1.9,4.4-6,7.8-9.6h0ZM117.7,177c5.3-.9,11.6-1.7,15.8-5.4,4.6-4,5.1-10.3,9.2-14.8,3.4-3.7,9.1-5.6,13.3-8.3,6.6-4.2,11.7-9.8,14.4-17.2l-3.7-4.2c-1.3,1.7-2.3,3.6-3.7,5.2-10.5,12.1-27.6,11.9-38.3,24.1-3,3.4-7.1,10.7-7.1,15.2v5.4h0ZM209.3,132.6c-4-.2-8-.4-11.8-1.4-4.4,3.9-8.1,8.8-10.4,14.4-3.8,9.3-3,19.3-6.4,28.6-.4.9-1.6,3.1-1.7,3.8-.1.7.2,2.3.1,3.3-.2,2.9-2.2,10.6-5.3,11.8-.3.1-.9.3-.7-.2.2-.6,1.6-2.1,2-2.8,1.4-2.3,2.7-6.3,2.5-9,0-.3.2-.7-.2-.6-1.1,1.9-2.8,4.1-4.3,5.6-11.6,11.8-33.4,13.2-27.3,36.2,2.8,10.5,5.9,16.3,2.6,27.7-2.2,7.6-5.2,9.2-9.8,14.7-1.4,1.7-2.4,3.9.8,2.2,7.4-3.9,13.8-17.8,14.7-25.9,1.4-12.6-7.7-28.5,6.8-36.9,5.6-3.2,11.6-.8,16.1-6.5,3-3.8,2.1-8.3,4.4-11.5,1.9-2.7,5.9-2,6.8-5.2.9-2.9-.7-4.6-.9-7.2-.6-6.1,5.8-6.2,7.2-10.9,1.1-3.7-1.1-7.8-.2-12,1.9-8.6,13.1-9.8,15-18.2h0ZM211.2,133.1c-.7,1.2-1.1,2.5-1.8,3.8-1.9,3.2-4.8,5-7.7,7.2,2.9,3.7,3.6.6,5.6-1.6,2.4-2.5,5-4.8,7.8-6.8-1-1.2-2.3-2.2-3.9-2.5h0ZM207.2,145.6c1.2-.3,4.7,1.1,5.4.5,1.6-2.3,3.2-4.7,5.4-6.4l-1.8-2.8c-.3-.4-.8.2-1.1.4-2.4,1.7-4.9,4.2-6.7,6.5-.2.2-1.4,1.6-1.2,1.8h0ZM174.5,154.8c-.1,1.5.1,3.2,0,4.7,3-2.1,5.1-6,5.9-9.6.7-3.3.4-6.7,1.8-9.8l-1.7,1.6c-2.8,3.4-5.6,8.8-6,13.2h0ZM231.4,151.1c-3.3-.7-3.9-3.7-5.5-5.9s-4.6-2.7-6.7-4.3c-1.9,1.7-3.3,3.9-4.7,6.1,4.7,2,9.4,5,14.8,4.7l2-.5h0ZM154.4,217.5c-.1,1.6.1,3.3,0,4.9.7.1.4-.2.5-.5,5.3-11,23.6-15.9,32.2-25.4,11.9-13.1,6.9-24.7,11.7-39.4,1.1-3.2,2.7-6.3,4.5-9.2-.8-.3-3.2-2.4-3.7-2.2-.6.1-2.5,3-2.8,3.7-2.6,6,2.9,12-2.6,17.6-2.1,2.2-5.6,2.9-5.1,6.8.4,3.3,2.5,6,0,9.5-2.3,3.2-5.7,1.4-7.2,6.5-.9,3.2-.9,5.4-2.9,8.4-4.9,7.2-11.4,4.2-17.4,7.8-4.1,2.4-6.9,6.8-7.4,11.6h0ZM165.7,154.9c-1.4.7-2.8,1.5-4.4,1.7-.5,0-1-.2-1.6-.1-2.7.4-2.9,4.5-3.8,6.5-2.3,5.5-7.9,5.9-12.4,8.4-4,2.3-6.9,6.2-7.3,10.8,4.9-1.4,14-1.6,17.1-6,2.1-2.9,1.2-6.6,3.8-9.4,1.6-1.8,4.1-2.4,5.8-4,2.3-2,3-5,2.8-7.9h0ZM100.4,208.7c6.8-1.1,13.8-4,16.2-11.1,1.7-5.1.3-12.5-.6-17.8,0-.3-.1-.4-.4-.6-8.6,2.9-14,9.6-15.2,18.6-.5,3.7,0,7.2,0,10.9ZM141.9,190.2c-6.4,2.4-8.4,8.7-6.7,15.1,6.8-3.1,2.2-10.6,6.7-15.1ZM109.5,225.3c7-1.3,14.9-4.2,16.6-12-5.5,4.2-13.6,4.7-16.6,12ZM145.7,227.7c-.3-.3-1.2,1.1-1.4,1.4-2.4,3.2-3.3,6.6-6.8,9.1-5.1,3.6-10.2,1.1-13.5,7.9-2.4,5.2-1.2,6.5-6.3,10.7-2.8,2.3-6.6,4-8,7.5,3-2.9,6.7-1.6,10.1-2.5,6.4-1.6,4-12.4,10-15.4,2.8-1.4,5.4-.2,8-1.4,3.5-1.5,5.6-7,7.2-10.3.4-.7,1.3-1.8,1.5-2.4.4-1.2-.8-3.2-.9-4.6h0ZM104.7,245.7c3.7-2.3,5.8-5.4,5.8-9.8-2.9,2.4-5.1,6.1-5.8,9.8Z"/>
      <path d="M110.7,65.7c-1.6.1-3.1-.7-4.6-1.2-2.3,6.1-9.2,9.9-11.3,16.1-1.8,5.4,0,9.9-.7,14.9-.4,3.1-2.7,3.7-3.4,5.9-.6,1.8,0,3.7-.1,5.6-.6,5.6-5.4,5.8-7.1,9.8-.8,1.9-1.1,4.1-2.2,6-4.3,7.6-18.2,8.2-21,15.7-.7,1.9-.8,3.9-1.6,5.8-1,2.3-3,4-4.1,6.2-2.1,4.3-.7,9.1-1.3,13.9-1,7.5-3.8,9.4-9.1,13.9-1.5,1.3-6.5,6.8-8.7,4s3.1-7,4.6-8.8c2-2.5,4.1-5.6,5.3-8.6,4.8-11.8-3.3-19.7,6.8-31.4,9.2-10.6,24.8-8.9,24.8-26,0-5.3,1.4-4.4,3.7-8.1,2.6-4.4,1.4-8.7,1.6-13.5.5-9.9,4.5-20.2,12.5-26.4-.8-.3-1.6-.5-2.3-.8-1.3-.5-2.4-1.4-3.7-2-.3,1.3-.6,2.8-1.1,4.1-2.3,5.6-9.2,7.8-11.5,13.7-2.1,5.3.5,10.7-2.1,15.7-1.8,3.5-6,4.3-8.2,7.4-1.6,2.2-1.5,5.2-2.7,7.7-2.3,4.9-6.5,6.1-10.2,9.3-3.3,2.9-2.5,5.8-3.3,9.6-1.8,7.4-9,10.1-12.6,16.4-5.7,9.9.6,18.2-1.8,28.2-3,12.2-17.7,15.5-20.6,29.8-.4,2.2-.4,9.9-4,9.3-3.8-.6-1.8-9.4-1.2-11.9,1-4.1,3.3-8.6,5.6-12.1,6.5-9.5,14.7-12.7,11.9-26.4-1.3-6.5-5.8-9.7-2-16.8,2.7-5,7.1-7,10.9-10.7.8-.8,1.9-2.6,2.5-3,.3-.2.5-.3.8-.2.5,2-1.8,4.2-3.2,5.5-2.4,2.2-5.3,3.9-7.4,6.5-6.9,8-.3,12.7.6,21.5,1.4,14.1-11.3,19.6-16.4,31.4-1.8,4.1-3.3,9.9-2.1,14.3.7.5,1.3-1.7,1.4-2.1,1.1-4.8.7-7.8,3.2-12.6,6.4-12.1,19.8-14.1,18.7-30.3-.6-8.4-3.1-13.5,1.5-21.7,3.3-5.8,10.9-9.6,12.3-15.8.5-2.1.3-4.4,1-6.5,1.5-4.6,8.1-6.8,11.1-10.5,2.6-3.2,2.4-6.9,4.6-10.3.4-.6,1-.9,1.3-1.5.7-1.3.7-4.5,1.4-5.3.2-.3.2-.3.5,0,.4,1.4,0,2.8-.4,4.1l3.7-2.4c3.5-3.7,1.9-8.8,2.3-13.3.9-10.2,11.7-11.9,13.8-20.3.4-1.6.7-1.9-.6-3-1.6-1.3-2.9-1.2-4.7-1.8-.9-.3-1.7-1-2.7-1-.7,4.7,1,9.6-3.2,13-3.5,2.8-10.3,1-11.3,7.1-.2,1.5-.6,3.6-.8,5-.3,3,.7,5.3-.1,8.5-1.2,4.8-3.8,6.8-6.7,10.3s-1.4,3.6-1.6,7.3c-.4,7-11.2,8.4-14.8,14.2-1,1.6-1.8,5.1-2.9,6.2-.5.5-1.7.9-2.4,1.5s-2.6,2.5-3.1,2.6c-.9.3-1.2-.3-.9-1.1.6-1.4,4.3-3.3,5.2-4.5,1.3-1.7,1.7-4.6,3.5-6.8,3.4-4.1,10.8-6.3,12.8-9.8,1.8-3.2,0-5,1-7.8.7-1.9,2.2-2.8,3.5-4.2,1.2-1.3,1.9-2.9,3.5-3.7l-.7-.2c1.6-2.8,2.8-5.6,2.6-8.9-.2-3.1-.2-5.5.3-8.6s2.7-5.7,5.8-6.7c2.6-.8,5.3-.4,7.2-2.9s1.2-5.4,1.5-8.1c.1-1.1.9-2.5.9-3.2,0-.8-1-1.8-1.4-2.4-.2-.3-2.3-2.9-2.6-2.5-.5,4.3-3.1,8.6-5.9,11.8-11.1,12.7-30.9,13.9-36.1,32.5-3,10.9,1.8,22.4-6.3,31.9-5.6,6.6-15.2,7.5-18.1,17-1,3.2-.8,10.9-3.6,12.8-2.5,1.7-4.1-1.4-4.3-3.6-.6-5.7,3-14.1,6.8-18.4,6.8-7.4,17.5-8.2,19.3-19.9.9-5.9-.9-12.6-.4-18.9.7-8.4,6.2-15.1,12.9-19.8,11.1-7.7,28.9-11.7,30.5-27.6-4.4-1-7.8-5.1-9-9.4-2.8-10.9,6-20,14.1-25.7,26.2-18.3,60.5-6.7,67.5,25,2.1,9.7,1.7,26.6-7.3,33-5.7,4-11.4,2.4-16.9-1-3.7,4.2-6,9.9-6.6,15.4-1,9.2,2.6,17.4,0,26.8-4.8,17.1-22.5,18.2-31.8,30.8-7.9,10.7-1,18.6-3.5,29.6-1.1,4.7-4.1,9.5-7.8,12.6-1.4,1.2-4.3,3.5-6,1.9-1.4-2,3.6-5.3,4.8-6.7,2.1-2.3,4.3-6.2,4.6-9.4.9-9.4-4.6-12.9.1-23.6,7.5-17.1,31.1-22.2,34.3-40.3,2-11.2-3.4-21.5,2.3-32.7l2.8-4.5h0ZM99.4,1.9c-8.7.3-17.2,3.6-24.3,8.6-8,5.7-17.4,15.8-12,26.3,3.3,6.4,8.5,4,12.8,7.6,2.3,2,3.4,5.2,6.2,6.2,2.1.8,3.7.5,5.6,2s2.8,3,5.3,4.1,4.7.9,7.2,1.7c4.3,1.5,6.3,5.3,11.6,5.2,1.6,0,3.3-.6,5-.4,2.3.3,4.1,2.1,6.2,2.9,11.4,4.5,17.4-9.5,18-18.5,1.6-24.7-15.8-46.9-41.6-45.9h0ZM73,44.8l-2.4-.5c-2.8,22.8-34.2,21.4-41.8,41.2-3.4,8.9.5,17.3-1.3,26.1-2.6,12.6-15.3,12.9-21.7,22.7-2.7,4.1-5.8,12.1-2.9,16.5,1.1.5,2-3.5,2.1-4.2.7-3.7.5-6.9,2.3-10.5,2.9-6,8.3-7.9,13.2-11.5,14.1-10.2,5.7-23.4,10.8-37.2,6.5-17.8,25.5-18.7,36.4-31.5,2.6-3,5-7.1,5.2-11.1h0ZM36.8,181.3c3-.1,4.9-3.1,7-4.9,2.5-2.3,4.8-3.8,6.4-7.1,3.2-6.8-.3-14.3,3.3-20.5.9-1.6,2.4-2.9,3.2-4.7,1.3-2.7,1.2-6.1,3-8.5,4.8-6.6,16.9-7,20.2-14.1,1.1-2.2,1.3-5.3,2.7-7.2s3.9-3.2,5.2-5.1c1.6-2.6.5-4.9,1-7.6.6-3.1,3.9-3.9,3.7-8.3-.2-5.5-1.2-8.6,1-14.1,2.4-6.1,8.5-9.7,11.2-15.7-2-1.5-6.1-4.6-8.6-3.1-1.8,1.1-5.4,5.9-6.6,7.8-5.2,8.3-5.8,19.1-5.2,28.7,0,1.2.9,4.1.7,5,0,.2-.3.5-.4.4l-.8-4.6c-.7,1-1.1,2.2-1.8,3.2-1,1.4-2.6,2.4-2.8,4.4-.3,2.4.2,4.5-.4,7.1-2.6,12.4-18,13.9-25.6,22.9-8.3,9.9-2.1,17.6-5.2,27.9-1.8,5.9-5.3,9.2-9.1,13.7-1,1.2-2.4,2.6-2,4.3h0ZM115.7,65.4c-1.2,0-2.7,0-3.6.8-1.2,1.2-3.2,5.3-3.8,6.9-3.9,11.1,1.3,21.5-1.7,32.6-5,18-28.8,22.5-34.7,40.9-3,9.3,3.7,16-1,25.9-2,4.2-4.3,5.1-6.9,8.2-.2.3-.6.4-.5.8,6-2.8,10.5-10.1,11-16.7.6-7.7-2.5-13.4.2-21.4,5.2-14.9,24.9-17.8,32.4-30.5,6.7-11.5.9-21.7,2.8-33.7.8-5.1,2.9-9.8,5.9-13.9h0Z"/>
      <path d="M280.3,117.8c6.7,6.7-3,16.4-10.4,10.5-7.2-5.9,3-17.8,10.4-10.5ZM274.6,116.6c-6.5.7-8.5,9.5-2.1,12.1,2.7,1.1,4.2,1,6.7-.5,1.4-.8,1.8-1.4,1-2.9,2.9-1.7,1.1-5.4-.9-7.1-1.4-1.2-2.9-1.8-4.7-1.6Z"/>
      <path d="M117.4,303.1c2.5-.4,6.1,1.4,7.1,3.9,2.1,5.6-4.9,10.3-9.4,6.8-3.8-3-2.4-9.9,2.3-10.6ZM117.8,304c-5.1.7-5.5,8.1-.7,9.6,5.3,1.7,9.2-5.3,4.5-8.6-1.2-.8-2.5-1.2-3.9-1Z"/>
      <path d="M53.5,223.9c5.9-1,4.2,7.8-1,7.1-4.2-.5-3.2-6.4,1-7.1ZM53.8,225.3c-2.7.6-3.6,4.6-.3,4.2,2.7-.3,3.6-4.9.3-4.2Z"/>
      <path d="M171.9,46.2c.5-.1.5.3.8.6,1.9,2.5,4.2,6.2,1.2,8.9-4.1,3.8-8.7-1.8-4.3-5,.8-.6,3.3-1.8,3.2-.1-1.9.4-4.4,1.8-3.7,4.2.6,2,5.3.8,4.9-3-.3-2.6-2.4-3-2.1-5.5Z"/>
      <path d="M338.4,262.8c5.9-1.1,6.1,6.8,1.1,7.4-1.5.2-2.5-1.1-3.1-2.4-1-2-.4-4.5,2-5h0ZM338.3,268.6c2,1.7,5.6-3.4,1.9-4.6-3-1-3.7,3.1-1.9,4.6Z"/>
      <path d="M32.4,41.5c5.5-.8,6.3,8.4,0,7.6-4-.5-4.1-7,0-7.6ZM31.1,47.3c3.2,3,6.6-2.8,3.6-4.5-2.4-1.3-6.3,2-3.6,4.5Z"/>
      <path d="M133.7,300c1.9-.4,4.1,0,4.9,1.9,1.6,3.5-1.7,6.3-5.1,5.1s-3.2-6.5.2-7.1h0ZM137.5,305.4c1.1-1.3,0-3.4-1.3-4.2-1.5-1-3-.9-3.9.8-2.1,3.9,3.6,5.4,5.2,3.4h0Z"/>
      <path d="M23.3,22.3c7.4-1.4,7.4,10.2.2,9-4.9-.8-4.8-8.1-.2-9ZM23.8,23c-5.5,1.1-2.8,9.5,2.2,7.2,4-1.8,2.1-8.1-2.2-7.2Z"/>
      <path d="M293.3,103.2c3.4-.7,5.8,2.4,5,5.7-1.2,4.8-9.4,2.8-7.6-3.1.3-1.1,1.5-2.4,2.6-2.7ZM294.2,103.9c-3.6.1-4.2,5.9-.2,6.6,4.9.8,4.7-6.7.2-6.6Z"/>
      <path d="M275,92.1c3.1-.7,6.2,1.6,4.7,4.7-1.6,3.3-7.6,1.7-6.8-2.4.2-.8,1.2-2.1,2-2.3h0ZM276,92.6c-5.3,2.6.9,7.6,2.9,3.7,1.1-2.2-1.2-3.2-2.9-3.7Z"/>
      <path d="M48.1,261.5c.3-.5.8-.5,1.2-1.1.2-.5.2-.7.3-1.2,0-1-.2-4.8-.8-5.5s-1.7-.9-2.5-.4c-.7.4-.7,1.5-1.1,2-.4.5-1,.5-1.5,1.4-.9,1.7-.2,2.4.8,3.8-2.3.2-2.4-2.4-1.6-3.9.4-.8,1.3-.9,1.5-1.4.2-.4,0-.9.2-1.2,1.6-3.7,5.3-2.2,5.6,1.6.2,1.9.5,5.8-2.2,5.9h0Z"/>
      <path d="M129.4,324.7c4.7-.9,5,5.9.4,5.5-3.7-.3-3.5-4.9-.4-5.5ZM129.4,325.6c-2.5.5-.9,4.9,1.7,3.4,1.9-1.1.5-3.9-1.7-3.4Z"/>
      <path d="M186.5,41.5c5.6-1,2.4,6.8-1.4,3.9-1.6-1.2-.4-3.6,1.4-3.9ZM188.2,42.7c-.8-.3-2.7.2-2.5,1.2.2,1.8,3.8.7,2.5-1.2Z"/>
      <path d="M336.6,296.7c-.9-.9-.3-3.5,1.1-3.9,3.8-1.2,4.5,5.2,0,4.4-.2,0-1-.4-1.1-.5ZM338.1,293.9c-.8.2-1.1,2.1.2,2.1,2,0,1.6-2.7-.2-2.1Z"/>
      <path d="M290.9,75.3c3.5-.5,4.4,4.6,1.3,5.2-3.8.7-4.7-4.7-1.3-5.2ZM290.3,76.5c-2.3,1.9,2.4,4.9,3,1.3,0-1.2-2.1-2-3-1.3Z"/>
      <path d="M37,236.4c1.4,1.3-.1,3.7-1.9,3.8,0-1.2,1.5-1.5,1.2-2.9-.4-.4-2,1.3-2.1,1.9-.1.7.6.8.7,1.4-.2.9-2.7.3-1.7-2.2.4-1.1,2.8-2.9,3.8-1.9h0Z"/>
      <path d="M37.2,13.8c-1.4,1.3-3.9.2-3.8-1.7,0-.9.7-2.1,1.7-1.8-.3.9-.8.9-.7,2,.2,2.4,3.9.5,2.3-1.3-.3-.4-1.2-.4-1.1-.8.3-.8,1.7.3,1.9.7.5.8.3,2.3-.3,2.9Z"/>
      <path d="M343.7,281.4c.5.3.6.8,1.1,1.2,3.6,2.6,6.2-3.6,1.3-3.4.3-1.4,2.4-.7,2.9.3,2,3.9-5,6.5-5.3,1.9h0Z"/>
      <path d="M279.9,54.6l-.7,1.1c.1,1.9,2.4.8,1.8-.6-.2-.4-.6-.2-.6-.5l1.1.2c1.1,1.8-.6,3.6-2.5,2.8-1.3-.5-1-3.6,1-3h0Z"/>
      <path d="M57.7,246.1c-.9-.9.3-2.7,1.5-2.8,2,1.4,0,4.2-1.5,2.8Z"/>
      <path d="M352.5,257.5c1.1.2,2.1,1.5,1.3,2.5-1.4,1.9-3.4-1.3-1.3-2.5Z"/>
      <path d="M175.9,41.3c-.4.4-2.7,1.4-3,1-.2-1.3,2-3,3.1-2.3.4.3.2.9,0,1.3h0Z"/>
      <path d="M60.5,216.7c1.6-.5,1.9,1.9,1.3,2.2-.5.2-1.5.2-1.8-.4-.3-.6-.2-1.7.5-1.9Z"/>
      <path d="M176,21.8c.3-.5,2.1-.4,1.9,1-.3,1.9-2.8.4-1.9-1Z"/>
      <path d="M186.3,34c0-.4,0-.9.3-1.2,1.2-1,1.9,1.7-.3,1.2Z"/>
      <path d="M37.7,229.3l.2,1.3-.6.4-.8-1.1c.3-.4.6-.7,1.2-.6h0Z"/>
      <path d="M301.5,155.5c2.6-.2,9.3-.5,9.2,3.4-.1,3.9-6.8,2.8-9.2,3-1.1,0-2.6.4-3.7.6-3.2.7-7.8,3.1-10.5,3.5-3.7.5-3-2.1-1.2-4.1,3.3-3.5,10.7-6,15.4-6.4ZM285.9,164.8c1.9,0,3.6-1.1,5.4-1.7,6.1-2.1,9.2-2,15.4-2.6,2.6-.2,4-2.1,1.1-3.2-4.7-1.8-15.2,1-19.3,4-.5.4-3.3,2.9-2.6,3.6h0Z"/>
      <path d="M342.1,222.4c2.7-4.4,4.9-10,5.3-15.2.1-1.6-.1-3.4,0-5.1,0-.4,0-.8.4-1.1.4.3.4.7.5,1.1,1.2,4.4-1.1,13.8-3.5,17.7-.3.5-2,3-2.7,2.5h0Z"/>
      <path d="M316.1,157.6c4.1-.9,5.4,3.9,2,4.5-3.6.6-4.6-3.9-2-4.5ZM316.3,158.8c-1.2.4.1,2.1,1.6,1.9,1.8-.3.3-2.5-1.6-1.9Z"/>
      <path d="M295,179.4c-2,2.3-5.3-1.8-1.8-2.9,2-.6,2.9,1.6,1.8,2.9Z"/>
      <path d="M276.5,167.5c1.7,0,2.5,2.1.8,3.1-3.1,1.8-3.7-3-.8-3.1Z"/>
      <path d="M332.9,195.3c2.6-.8,2.4,4.3.2,4.3s-1.9-3.7-.2-4.3ZM333.1,196.2c-.6.1-.5,2.4,0,2.4.8-.3.9-2.6,0-2.4Z"/>
      <path d="M302.6,175.1c1.3-.2,1.8,1.4.8,2.2-2,1.5-2.8-1.9-.8-2.2Z"/>
      <path d="M345.6,188.8c1.1,1.1-.8,2.9-2,1.9s.8-3.1,2-1.9Z"/>
      <path d="M322.1,200.1l-.9-.2c-.5-.9.4-1.7,1.3-1.3,1.5.7.8,3.5-.8,3.2-.9-.2.8-1.2.4-1.7h0Z"/>
      <path d="M267.4,178.2c-.4,1.2-.2,2.3-.2,3.5,0,.2.1.8-.4.6-1-.5-1-4,.6-4.1h0Z"/>
      <path d="M342.2,210.7c2.1-.7,1.6,2.9-.2,2-.8-.4-.5-1.8.2-2Z"/>
      <path d="M328.5,204.9c.8-.2,2,1.5.6,1.9s-1.5-1.6-.6-1.9Z"/>
      <path d="M295.4,184.7c2-.6,1.4,3.7-.6.8,0-.3.4-.7.6-.8Z"/>
      <path d="M276.3,176.8c.6.4.1,2.1-1,1.3-.8-.5.1-1.8,1-1.3Z"/>
      <path d="M271.7,181.3c-.5.6-1.3-.2-1.1-.8.2-.8,2.2-.3,1.1.8Z"/>
      <path d="M292.3,203c.4-.1,1.4-.2,1.8,0,1.4,1.9-.8,5.1-2.8,5.4-3.5.5-1.6-4.8,1.1-5.4h0ZM293.6,203.7c-1.9,0-3.2,1.8-3.4,3.6,2.1.3,3.6-1.6,3.4-3.6Z"/>
      <path d="M271.2,242.8c3-.6,2.1,4.5-.5,4.2-2.2-.3-1.9-3.7.5-4.2ZM271.4,243.6c-1,0-1.9,2.2-.9,2.5s2-1.2,1.7-2.1c-.1-.2-.5-.4-.7-.4h0Z"/>
      <path d="M294.5,244.7c-2,0-3.4,2.8-.7,3.2-.6,1.1-2.2.6-2.4-.5-.3-1.8,1.1-2.9,2.6-3.4l.6.7Z"/>
      <path d="M292.3,252.3c-.8.8-1.9,0-1.3-.9.5-.7,2.3,0,1.3.9Z"/>
      <path d="M260,229.4l-5.7,4.5-1,.3c2-1.7,4.2-4,6.7-4.8Z"/>
      <path d="M270.1,228.1c4.2.9,4.1-6,.2-2.2.5-3.4,4.4-2.5,3.5,1-.4,1.6-3,3.4-3.7,1.2h0Z"/>
      <path d="M223.4,95c2.1-.5,4.2,2.3,5.1,3.9,2,3.4,4.3,11.3,2.5,15-.8,1.7-2.3,1.9-3.3.2-1.1-2.1-1.6-6.7-2.6-9.3-.8-2.1-3.4-5.5-3.3-7.5,0-.9.6-2,1.6-2.2h0ZM229.7,113.9c1.4-4.7-.2-13-3.7-16.5-.7-.7-2.6-2-2.9-.3-.3,1.6,2.1,4.8,2.8,6.5,1.4,3.4,1.9,7,3.2,10.3,0,0,.7,0,.7,0Z"/>
      <path d="M235,141c1.1-3.2,1.9-6.3,1.7-9.7-.1-1.4-.9-3.3-.9-4.6-.1-2.2,1.4.8,1.6,1.8.8,3.8.3,9.6-2.3,12.5h0Z"/>
      <path d="M198.9,83.2c2.3,2.3-3.6,4.5-4.6,2.3-.9-2,3.1-3.7,4.6-2.3ZM198.1,84.1c-.3-.4-2.8,0-2.6,1,.4.2,3.2-.3,2.6-1Z"/>
      <path d="M217.9,87.8c2.7-.6,3.6,3.8,1.8,4.4-2.8.9-4.2-3.9-1.8-4.4ZM219.1,89c-.6-.5-1.2-.2-1.4.6.5,2.8,3.2,1.2,1.4-.6Z"/>
      <path d="M228.9,120.9c2.7-.8,3.2,4.8-.2,3.7-1.5-.5-1.1-3.3.2-3.7Z"/>
      <path d="M209.7,117.3c1.2-.3.2,2.8,0,3.2-.3.9-2,5-3.2,4.7-.4-.3-.3-.3-.2-.6.4-1.3,1.4-2.7,2-4,.2-.6,1-3.2,1.3-3.3Z"/>
      <path d="M181.9,104.8c2.1-.4,2.8,2.8.9,3.3-2.8.6-2.6-2.9-.9-3.3Z"/>
      <path d="M216.9,121.7c2.1,0,1.7,3.6-.2,3.5s-1.7-3.5.2-3.5Z"/>
      <path d="M167.3,95.4c0,.4,0,.5-.2.8-.4.5-2.6,1.3-3.3,1.9-1.1.9-2,2.2-3.1,3,0-1,.9-2.2,1.6-2.9s4.4-3.6,5.2-2.9Z"/>
      <path d="M181.2,89.5c1.8-.3,2.4,2.2.6,2.6-2.2.5-2.3-2.2-.6-2.6Z"/>
      <path d="M193.9,103.1c.7.5-.1,2.2-1.1,2.3-2.4-.3-.2-3.2,1.1-2.3Z"/>
      <path d="M189.4,111c0,1.1.2,3.1-1.2,3.4,0-1.1-.2-3.1,1.2-3.4Z"/>
      <path d="M211.4,110.5c.6-.2,1.6,1.8.7,2.1-1.5.5-1.5-1.9-.7-2.1Z"/>
      <path d="M189.4,84.2c.7.5-.2,1.8-1.2,1.4-.3-.8.4-2,1.2-1.4Z"/>
      <path d="M158.2,105.5l.6-1.9c.8.6.4,1.9-.6,1.9Z"/>
      <path d="M98,260.8c-.3.4-.4,0-.5-.4,0-.7,0-1.9,0-2.6.2-5.2.7-11,2.2-16l1.6-3.1c-.3,1.9-1.3,3.7-1.7,5.7-.4,2.3-.2,4.6-.5,6.9-.4,3.2-.9,6.3-1.2,9.5h0Z"/>
      <path d="M110,231l-3.9,2.4-4,4.1c1.1-3.2,4.3-6.4,7.9-6.5h0Z"/>
      <path d="M183.7,129c.4.4-2.1,4.9-2.9,4.3.2-.6.5-1.3.8-1.9.1-.3,1.6-2.9,2-2.4h0Z"/>
      <path d="M153.4,183.5c.3,0,.7-.1.9.2.6,1.5-1.1,1.6-1.8.6,0-.4.6-.7.9-.8Z"/>
      <path d="M157.1,181.6c.4-.6,2.4-.2,1.6.9-.5.7-2.1,0-1.6-.9Z"/>
      <path d="M162.1,176.8c.6.4-.2,2.6-1.3,1.2-.4-.7.9-1.5,1.3-1.2Z"/>
      <path d="M191.8,142.9c.2.3-.6,2.5-.8,2.9-.3.6-.8,1.6-1.6,1.4-.3-.3,1.8-5,2.4-4.3h0Z"/>
      <path d="M168.5,194.1c.3,1.5-1,2.1-2.2,2.6,0-1.2.8-2.7,2.2-2.6Z"/>
      <path d="M159.7,199.3c-.4-.3,2.1-2.3,2.4-1.3,0,1.2-1.4,1.4-2.4,1.3Z"/>
      <path d="M188.2,153.3c-1.2.1-.1-2.4.4-2.4.8,0-.4,2.1-.4,2.4Z"/>
      <path d="M194.9,138.1c.2.2-1,2.1-1.3,2.1-1.1,0,.9-2.6,1.3-2.1Z"/>
      <path d="M155.8,204.3c-1.3,1.1-1-1.7.2-1.4.7.2,0,1.1-.2,1.4Z"/>
      <path d="M94.3,6.4c1.8-.2,6.4,0,6.3,2.7,0,2.9-5.6,3.1-7.6,3.7-3.8,1-5.4,2.3-8.6,3.6-5.8,2.4-4.8-1.9-1.7-4.8,2.8-2.6,7.8-4.9,11.6-5.2ZM93.8,7.7c-4.6.5-10.7,3.7-12.7,8,.2.2.3.3.6.4,1.2.1,6-2.8,7.7-3.4,3.1-1.1,6.2-1.4,9.2-2.5l.5-1c0-1.7-4.1-1.6-5.3-1.5h0Z"/>
      <path d="M122.9,31.6c4.1-1.2,4.2,5.9.7,5.2-2.3-.5-2.5-4.6-.7-5.2ZM123.3,32.6c-1.4.3-.3,3.3.9,3.1s.8-3.5-.9-3.1Z"/>
      <path d="M107.5,7.4c4.1-.8,4.7,4.1,1,3.9-2.9-.1-3.8-3.4-1-3.9ZM107.1,8.8c-.4,1.4,2.4,1.5,2.6.8.3-1.1-1.9-1.3-2.6-.8Z"/>
      <path d="M132.9,36.7c2.4-.4,2.9,3.7,1.1,4.2-3.1.9-3.1-3.9-1.1-4.2ZM133.7,39.7c.3-.7.3-1.8-.7-1.9,0,.7-.3,1.9.7,1.9Z"/>
      <path d="M128.8,28.2c-.7-.6-.9-2.7.2-3.2,1.5-.7,3.4,2.2,1.8,3.3-.4.4-1.6.3-2,0h0Z"/>
      <path d="M80.5,33c-1,.8-2,7.9-2.5,7.9-1.1-1.1-.5-3,0-4.4s1.2-3.1,2.6-3.5h0Z"/>
      <path d="M70.3,25.9c3-.9,2.3,3.9,0,2.6-1.1-.6-1-2.2,0-2.6Z"/>
      <path d="M131.5,55.2c.4.7.4,1.5,0,2.2-3,1.8-3.1-3.6,0-2.2Z"/>
      <path d="M92.8,39.6c1.6,0,1.8,3.2-.5,2.8-1.4-.2-1-2.8.5-2.8Z"/>
      <path d="M89.3,24.2c1.2,1.1-.9,3.2-2,2s.9-3.2,2-2Z"/>
      <path d="M121,54.9c.4.5-1.5,4.1-2.6,3.8-.4-.5,2.2-4.4,2.6-3.8Z"/>
      <path d="M102.1,54.1c-.2-1.3.7-2.4,1.6-3.4.5.3.2.4.1.8-.2,1-.9,2-1.7,2.5h0Z"/>
      <path d="M120.8,44.1v-1c1.3-1.5,1.9,1,0,1Z"/>
      <path d="M87.4,86.1l-.2-2.5c.8-7.4,3.9-14.9,9.8-19.5.2.2-.8,1.3-1,1.5-1.2,1.5-2.5,2.8-3.5,4.4-3.2,4.8-4.6,10.4-5.1,16.1h0Z"/>
      <path d="M272.2,121.6h-.7c-1.4-1.1,2.8-5.3,3.9-2.5-.5.6-1.1.2-1.8.6-.5.3-1.1,1.4-1.3,1.9h0Z"/>
      <path d="M118.6,306.4c-.8,0-1.5.7-1.9,1.4-.1.2-.5,1.8-.9,1-.8-1.4,1.5-3.9,2.8-2.4h0Z"/>
      <path d="M24.3,24.6l-1.3,1.9-.6.5c-.2-1.5.3-2.6,1.9-2.4h0Z"/>
      <path d="M294.5,105.3c-.2.9-1.3.8-1,2-1.9.3-.9-2.8,1-2Z"/>
    </g>
    <path class="st1" d="M285.9,164.8c-.7-.7,2-3.1,2.6-3.6,4-3,14.6-5.8,19.3-4,2.9,1.1,1.5,3-1.1,3.2-6.2.6-9.3.6-15.4,2.6-1.8.6-3.5,1.8-5.4,1.7h0Z"/>
    <path class="st1" d="M316.3,158.8c1.9-.6,3.4,1.6,1.6,1.9-1.5.2-2.8-1.5-1.6-1.9Z"/>
    <path class="st0" d="M333.1,196.2c.9-.2.8,2.1,0,2.4-.5,0-.6-2.3,0-2.4Z"/>
    <path class="st1" d="M293.6,203.7c.2,1.9-1.3,3.9-3.4,3.6.1-1.8,1.4-3.5,3.4-3.6Z"/>
    <path class="st1" d="M271.4,243.6c.2,0,.6.2.7.4.3.9-.7,2.5-1.7,2.1s0-2.5.9-2.5h0Z"/>
    <path class="st1" d="M229.7,113.9h-.7c-1.3-3.4-1.8-7-3.2-10.4-.7-1.7-3-4.9-2.8-6.5.3-1.7,2.2-.4,2.9.3,3.5,3.5,5.1,11.8,3.7,16.5Z"/>
    <path class="st1" d="M198.1,84.1c.5.7-2.2,1.1-2.6,1-.1-1,2.4-1.3,2.6-1Z"/>
    <path class="st1" d="M219.1,89c1.8,1.7-.9,3.4-1.4.6.1-.7.8-1.1,1.4-.6Z"/>
    <path class="st1" d="M93.8,7.7c1.2-.1,5.3-.2,5.3,1.5l-.5,1c-3.1,1.1-6.2,1.4-9.2,2.5-1.7.6-6.5,3.5-7.7,3.4-.3,0-.4-.1-.6-.4,1.9-4.3,8.1-7.5,12.7-8h0Z"/>
    <path class="st1" d="M123.3,32.6c1.7-.4,2.1,2.8.9,3.1s-2.2-2.7-.9-3.1Z"/>
    <path class="st0" d="M107.1,8.8c.7-.4,3-.3,2.6.8-.2.7-3.1.6-2.6-.8Z"/>
    <path class="st1" d="M133.7,39.7c-1,0-.7-1.2-.7-1.9,1,0,1,1.2.7,1.9Z"/>
  </g>
</svg>